M48
INCH
T01C.008
T02C.008
T03C.01
T04C.012
T05C.014
T06C.02
T07C.022
T08C.032
T09C.033
T10C.039
T11C.126
T12C.03
T13C.04
;LEADER: 12 
;HEADER: 
;CODE  : ASCII 
;FILE  : hmd-C-119-2015pm13-1-12.drl for board hmd-C-119-2015pm13.brd ... layers TOP and BOTTOM
;T01 Holesize 1. = 8.000000 Tolerance = +0.000000/-0.000000 PLATED MILS Quantity = 48
;T02 Holesize 2. = 8.000000 Tolerance = +2.000000/-2.000000 PLATED MILS Quantity = 989
;T03 Holesize 3. = 10.000000 Tolerance = +2.000000/-2.000000 PLATED MILS Quantity = 623
;T04 Holesize 4. = 12.000000 Tolerance = +3.000000/-3.000000 PLATED MILS Quantity = 93
;T05 Holesize 5. = 14.000000 Tolerance = +3.000000/-3.000000 PLATED MILS Quantity = 169
;T06 Holesize 6. = 20.000000 Tolerance = +3.000000/-3.000000 PLATED MILS Quantity = 2
;T07 Holesize 7. = 22.000000 Tolerance = +3.000000/-3.000000 PLATED MILS Quantity = 5
;T08 Holesize 8. = 32.000000 Tolerance = +3.000000/-3.000000 PLATED MILS Quantity = 2
;T09 Holesize 9. = 33.000000 Tolerance = +3.000000/-3.000000 PLATED MILS Quantity = 4
;T10 Holesize 10. = 39.000000 Tolerance = +3.000000/-3.000000 PLATED MILS Quantity = 2
;T11 Holesize 11. = 126.000000 Tolerance = +3.000000/-3.000000 PLATED MILS Quantity = 5
;T12 Holesize 12. = 30.000000 Tolerance = +2.000000/-2.000000 NON_PLATED MILS Quantity = 2
;T13 Holesize 13. = 40.000000 Tolerance = +2.000000/-2.000000 NON_PLATED MILS Quantity = 2
%
G90
T01
X0000153366Y0000188009
X0000172177Y0000188102
X0000153366Y0000197457
X0000153365Y0000216358
X0000175416Y0000222655
X0000153366Y0000222657
X0000214995Y0000173602
X0000211846Y0000189352
X0000211846Y0000198802
X0000218146Y0000198802
X0000224446Y0000211402
X0000211845Y0000211402
X0000218146Y0000214552
X0000230746Y0000214552
X0000211845Y0000217702
X0000218146Y0000220851
X0000211846Y0000224001
X0000211846Y0000230302
X0000230746Y0000233451
X0000237046Y0000233451
X0000255945Y0000233451
X0000268545Y0000227152
X0000268545Y0000211402
X0000262245Y0000186202
X0000274846Y0000195651
X0000281145Y0000198802
X0000274846Y0000201952
X0000281137Y0000205072
X0000274846Y0000211402
X0000281146Y0000211402
X0000274846Y0000220851
X0000281145Y0000220852
X0000274846Y0000227152
X0000281146Y0000233452
X0000321004Y0000223025
X0000317853Y0000216729
X0000317853Y0000197829
X0000317854Y0000191530
X0000324994Y0000186885
X0000317854Y0000185231
X0000340228Y0000181755
X0000339904Y0000188378
X0000336754Y0000207278
X0000336754Y0000213577
X0000339904Y0000223026
X0000339904Y0000229325
X0000357500Y0000269000
X0000375500Y0000269200
T02
X0000019500Y0000226500
X0000037500Y0000027047
X0000058000Y0000034000
X0000058000Y0000036500
X0000046150Y0000125850
X0000051850Y0000137500
X0000045500Y0000170500
X0000045500Y0000173500
X0000045500Y0000188616
X0000045500Y0000191616
X0000045000Y0000198824
X0000047000Y0000200792
X0000047000Y0000208664
X0000045000Y0000210500
X0000041000Y0000229500
X0000078500Y0000282200
X0000065000Y0000274000
X0000061500Y0000259000
X0000061500Y0000255500
X0000070500Y0000254000
X0000061500Y0000252000
X0000070500Y0000250538
X0000063462Y0000217500
X0000060000Y0000217500
X0000071500Y0000170000
X0000061500Y0000159000
X0000065500Y0000122500
X0000077500Y0000087500
X0000072505Y0000077495
X0000075358Y0000047500
X0000060000Y0000035500
X0000094000Y0000065500
X0000094500Y0000076000
X0000092500Y0000077000
X0000094498Y0000078001
X0000082500Y0000100000
X0000095000Y0000178000
X0000098450Y0000200450
X0000094533Y0000207200
X0000085800Y0000217100
X0000090100Y0000217100
X0000094533Y0000217400
X0000087500Y0000225000
X0000087000Y0000230000
X0000087262Y0000235262
X0000087495Y0000239984
X0000087400Y0000244706
X0000087100Y0000249387
X0000089400Y0000256500
X0000085600Y0000256700
X0000094000Y0000262500
X0000084676Y0000263010
X0000091452Y0000263500
X0000106000Y0000266100
X0000118000Y0000265000
X0000110000Y0000265000
X0000114000Y0000265000
X0000107862Y0000263702
X0000112000Y0000263500
X0000116000Y0000263500
X0000105895Y0000261500
X0000117000Y0000221500
X0000109071Y0000221489
X0000114200Y0000221500
X0000104300Y0000221300
X0000100000Y0000219500
X0000105500Y0000218900
X0000108633Y0000218000
X0000103500Y0000217100
X0000113500Y0000216500
X0000101100Y0000199100
X0000104900Y0000191100
X0000101400Y0000188600
X0000108400Y0000188600
X0000104900Y0000188600
X0000104900Y0000186100
X0000111000Y0000182500
X0000101000Y0000126000
X0000106000Y0000068000
X0000125300Y0000205300
X0000139379Y0000210432
X0000139308Y0000215028
X0000124957Y0000224143
X0000128500Y0000227233
X0000125584Y0000227316
X0000128500Y0000230545
X0000130500Y0000234000
X0000127338Y0000235453
X0000124800Y0000236882
X0000130500Y0000237000
X0000131500Y0000240300
X0000128000Y0000242000
X0000124681Y0000243160
X0000129200Y0000245600
X0000128912Y0000248119
X0000125600Y0000250000
X0000128600Y0000251400
X0000124300Y0000254282
X0000120000Y0000263500
X0000123910Y0000263590
X0000122000Y0000265500
X0000154794Y0000255318
X0000143480Y0000255318
X0000149985Y0000255318
X0000146662Y0000248943
X0000157976Y0000248884
X0000154655Y0000233060
X0000149300Y0000231604
X0000142844Y0000230906
X0000156516Y0000228953
X0000153366Y0000228956
X0000149349Y0000228605
X0000153366Y0000225807
X0000149278Y0000225706
X0000150216Y0000222658
X0000156545Y0000222682
X0000153366Y0000219508
X0000156516Y0000216358
X0000150216Y0000216356
X0000156516Y0000213207
X0000153366Y0000213207
X0000148715Y0000211703
X0000153366Y0000210058
X0000156516Y0000210057
X0000153366Y0000206907
X0000156516Y0000206906
X0000150216Y0000206906
X0000153366Y0000200608
X0000150216Y0000200608
X0000156516Y0000200608
X0000150216Y0000197458
X0000156516Y0000197458
X0000150216Y0000194307
X0000156516Y0000194307
X0000153366Y0000194308
X0000156516Y0000191158
X0000150216Y0000191159
X0000153366Y0000191158
X0000159584Y0000191076
X0000145743Y0000189077
X0000150216Y0000188008
X0000150216Y0000184860
X0000153366Y0000184860
X0000150216Y0000181709
X0000153366Y0000181710
X0000156516Y0000181709
X0000144000Y0000167500
X0000152000Y0000083500
X0000155500Y0000080500
X0000160352Y0000081648
X0000171623Y0000177905
X0000175845Y0000181235
X0000178566Y0000181707
X0000178566Y0000184857
X0000175417Y0000184857
X0000172266Y0000184861
X0000160168Y0000187522
X0000175416Y0000188007
X0000178566Y0000188006
X0000172331Y0000191200
X0000175417Y0000191156
X0000161653Y0000193108
X0000178566Y0000194305
X0000175416Y0000194306
X0000172266Y0000194306
X0000178566Y0000197455
X0000175416Y0000197455
X0000165754Y0000199755
X0000169007Y0000200320
X0000175416Y0000200606
X0000178566Y0000200605
X0000172259Y0000203715
X0000178562Y0000203757
X0000175414Y0000203758
X0000172266Y0000210057
X0000178566Y0000210057
X0000175417Y0000210057
X0000175416Y0000213205
X0000172266Y0000213205
X0000175417Y0000216356
X0000166107Y0000218352
X0000175416Y0000219509
X0000178564Y0000219506
X0000168314Y0000220276
X0000160097Y0000222099
X0000178562Y0000222653
X0000172259Y0000222665
X0000175416Y0000225805
X0000172224Y0000225882
X0000175416Y0000228954
X0000165966Y0000232070
X0000172047Y0000232352
X0000169643Y0000248813
X0000178058Y0000255248
X0000172896Y0000255177
X0000161158Y0000255318
X0000166390Y0000255460
X0000184351Y0000255460
X0000197500Y0000253000
X0000181240Y0000248802
X0000180496Y0000232282
X0000180496Y0000228903
X0000180391Y0000225761
X0000187745Y0000210432
X0000186250Y0000088079
X0000218146Y0000170452
X0000214996Y0000170452
X0000211845Y0000170452
X0000206000Y0000170500
X0000218146Y0000173602
X0000211846Y0000173602
X0000218146Y0000176752
X0000214996Y0000176752
X0000214995Y0000179902
X0000218146Y0000179901
X0000211846Y0000179902
X0000214995Y0000183051
X0000211846Y0000183051
X0000214996Y0000186202
X0000218146Y0000186202
X0000211845Y0000186202
X0000214995Y0000189352
X0000211845Y0000192502
X0000214995Y0000192501
X0000218146Y0000192502
X0000214995Y0000195652
X0000211845Y0000195651
X0000218146Y0000195651
X0000214995Y0000198802
X0000218146Y0000201952
X0000214996Y0000201952
X0000211845Y0000201952
X0000215018Y0000208226
X0000211846Y0000208251
X0000218146Y0000208252
X0000214996Y0000211402
X0000218146Y0000211402
X0000211846Y0000214552
X0000214995Y0000214552
X0000214996Y0000217702
X0000218146Y0000217702
X0000214995Y0000220852
X0000218146Y0000224002
X0000214995Y0000224001
X0000208605Y0000224362
X0000204645Y0000225635
X0000218146Y0000227152
X0000211845Y0000227152
X0000214996Y0000227152
X0000214995Y0000230302
X0000211845Y0000233452
X0000218146Y0000233452
X0000214995Y0000233451
X0000211845Y0000236601
X0000218146Y0000236601
X0000214995Y0000236602
X0000218146Y0000239752
X0000214995Y0000239752
X0000211846Y0000240000
X0000219282Y0000252434
X0000216100Y0000252788
X0000211050Y0000252801
X0000206506Y0000253000
X0000213494Y0000262000
X0000209016Y0000262000
X0000217506Y0000264000
X0000206506Y0000264000
X0000210984Y0000264000
X0000228506Y0000264000
X0000221984Y0000264000
X0000239506Y0000264000
X0000232995Y0000264008
X0000231000Y0000262500
X0000235494Y0000262500
X0000220000Y0000262000
X0000224494Y0000262000
X0000226483Y0000253013
X0000233604Y0000252829
X0000222727Y0000252400
X0000238374Y0000252434
X0000228474Y0000251500
X0000233896Y0000236601
X0000237046Y0000236602
X0000230746Y0000236602
X0000227595Y0000236601
X0000224446Y0000236601
X0000221296Y0000236602
X0000221296Y0000233451
X0000227595Y0000233452
X0000233896Y0000233452
X0000224446Y0000233452
X0000227596Y0000230302
X0000221296Y0000230302
X0000237046Y0000230302
X0000224445Y0000230302
X0000233896Y0000230301
X0000230746Y0000230302
X0000227595Y0000227152
X0000230746Y0000227152
X0000237045Y0000227152
X0000224446Y0000227152
X0000227596Y0000224001
X0000221296Y0000224001
X0000233896Y0000224002
X0000227595Y0000220851
X0000230746Y0000220852
X0000224446Y0000220851
X0000233901Y0000220847
X0000224446Y0000217702
X0000227595Y0000217702
X0000221296Y0000217701
X0000230746Y0000217701
X0000237045Y0000217702
X0000224445Y0000214552
X0000221296Y0000214552
X0000237046Y0000214552
X0000233895Y0000214552
X0000230746Y0000211402
X0000221296Y0000211402
X0000227595Y0000211402
X0000237045Y0000211402
X0000227595Y0000208252
X0000237046Y0000208251
X0000224446Y0000208252
X0000221296Y0000208251
X0000233896Y0000208252
X0000230746Y0000208251
X0000237045Y0000201952
X0000224446Y0000201952
X0000221295Y0000201952
X0000233896Y0000201952
X0000227595Y0000201952
X0000224445Y0000198802
X0000221296Y0000198802
X0000237046Y0000198802
X0000233896Y0000198802
X0000237046Y0000195652
X0000227595Y0000195651
X0000221296Y0000195652
X0000224446Y0000192502
X0000230746Y0000192501
X0000221296Y0000192501
X0000227595Y0000192502
X0000230746Y0000189352
X0000237046Y0000189352
X0000227595Y0000186202
X0000237045Y0000186202
X0000230746Y0000186202
X0000224446Y0000186202
X0000237046Y0000183051
X0000233896Y0000183052
X0000221296Y0000183051
X0000227596Y0000183051
X0000230746Y0000183051
X0000224446Y0000179901
X0000237046Y0000179902
X0000227595Y0000179901
X0000230746Y0000179902
X0000233896Y0000179901
X0000230746Y0000176751
X0000224446Y0000176752
X0000221296Y0000176751
X0000233896Y0000176752
X0000237045Y0000176752
X0000233895Y0000173602
X0000224445Y0000173602
X0000230746Y0000173602
X0000227596Y0000173602
X0000237046Y0000173602
X0000227595Y0000170452
X0000233896Y0000170452
X0000224446Y0000170452
X0000237045Y0000170452
X0000230746Y0000170452
X0000230746Y0000164152
X0000223700Y0000153782
X0000223700Y0000150318
X0000224700Y0000147500
X0000221500Y0000147000
X0000237150Y0000129650
X0000235441Y0000064500
X0000230750Y0000064000
X0000228250Y0000064000
X0000242500Y0000064000
X0000240000Y0000064000
X0000251750Y0000064000
X0000254250Y0000064000
X0000259063Y0000064500
X0000247252Y0000064500
X0000256000Y0000088500
X0000249000Y0000091500
X0000243050Y0000141800
X0000243000Y0000155350
X0000257500Y0000157000
X0000245428Y0000165000
X0000241000Y0000166000
X0000259096Y0000170452
X0000252795Y0000170452
X0000255946Y0000170452
X0000249646Y0000170452
X0000249645Y0000173602
X0000240195Y0000173602
X0000259096Y0000173602
X0000243346Y0000173602
X0000252796Y0000173602
X0000255945Y0000173602
X0000259096Y0000176752
X0000255946Y0000176752
X0000249646Y0000176752
X0000252795Y0000176752
X0000240196Y0000176752
X0000243345Y0000176752
X0000252796Y0000179902
X0000240195Y0000179902
X0000249646Y0000179901
X0000243345Y0000179901
X0000255945Y0000179902
X0000259096Y0000179901
X0000249646Y0000183052
X0000243356Y0000183062
X0000252796Y0000183051
X0000255945Y0000183051
X0000259096Y0000183052
X0000240195Y0000183051
X0000255946Y0000186202
X0000243345Y0000186202
X0000259096Y0000186202
X0000249646Y0000186202
X0000252796Y0000189352
X0000255945Y0000189352
X0000259096Y0000189351
X0000249645Y0000189352
X0000255945Y0000192501
X0000240196Y0000192502
X0000249646Y0000192502
X0000243345Y0000192502
X0000252795Y0000195651
X0000255945Y0000195652
X0000243345Y0000195651
X0000240196Y0000195651
X0000249646Y0000195651
X0000255945Y0000198802
X0000240195Y0000198802
X0000243346Y0000198802
X0000249645Y0000198802
X0000252796Y0000198802
X0000255946Y0000201952
X0000243345Y0000201952
X0000252795Y0000201952
X0000240196Y0000201952
X0000259096Y0000201952
X0000249646Y0000201952
X0000249636Y0000208242
X0000243345Y0000208252
X0000252796Y0000208251
X0000255945Y0000208251
X0000240195Y0000208251
X0000252795Y0000211402
X0000243345Y0000211402
X0000249636Y0000211392
X0000259096Y0000211402
X0000255941Y0000211397
X0000259091Y0000214547
X0000252791Y0000214547
X0000240201Y0000214547
X0000243346Y0000214552
X0000255945Y0000214552
X0000249645Y0000214552
X0000240196Y0000217702
X0000259096Y0000217702
X0000252795Y0000217702
X0000249646Y0000217702
X0000243345Y0000220851
X0000255945Y0000220852
X0000249646Y0000220851
X0000240195Y0000220852
X0000255945Y0000224001
X0000252796Y0000224001
X0000259091Y0000223997
X0000240195Y0000224001
X0000243345Y0000224002
X0000255941Y0000227147
X0000259096Y0000227152
X0000240196Y0000227152
X0000252795Y0000227152
X0000243346Y0000227152
X0000240195Y0000230302
X0000259096Y0000230301
X0000243346Y0000230302
X0000255945Y0000230302
X0000249646Y0000230302
X0000252795Y0000233452
X0000240196Y0000233452
X0000259096Y0000233453
X0000249646Y0000233452
X0000243345Y0000233452
X0000259096Y0000236601
X0000255945Y0000236602
X0000252795Y0000236601
X0000240196Y0000236601
X0000249646Y0000236601
X0000243345Y0000236601
X0000249646Y0000239752
X0000259096Y0000239752
X0000252845Y0000239801
X0000256000Y0000241500
X0000251000Y0000250500
X0000241202Y0000252434
X0000252162Y0000252829
X0000255694Y0000252827
X0000244210Y0000252788
X0000248909Y0000252865
X0000259000Y0000253000
X0000259500Y0000257000
X0000242016Y0000262540
X0000246500Y0000262540
X0000254500Y0000262500
X0000250100Y0000262500
X0000244024Y0000264030
X0000253000Y0000266000
X0000256994Y0000266000
X0000260800Y0000264300
X0000263600Y0000263300
X0000267200Y0000261500
X0000271900Y0000260400
X0000263500Y0000253120
X0000267000Y0000251500
X0000261500Y0000250500
X0000276000Y0000249000
X0000277996Y0000239752
X0000274865Y0000239752
X0000271696Y0000239752
X0000262246Y0000239752
X0000265395Y0000239752
X0000268541Y0000239747
X0000271696Y0000236602
X0000277996Y0000236602
X0000262241Y0000236597
X0000268545Y0000236601
X0000265396Y0000236601
X0000274846Y0000233452
X0000262246Y0000233451
X0000268545Y0000233452
X0000277996Y0000233451
X0000265396Y0000233452
X0000265395Y0000230302
X0000274846Y0000230301
X0000268546Y0000230302
X0000277996Y0000230302
X0000262246Y0000230302
X0000265396Y0000227152
X0000277995Y0000227152
X0000271696Y0000227152
X0000262241Y0000227147
X0000268546Y0000224001
X0000277996Y0000224001
X0000262246Y0000224001
X0000271696Y0000224001
X0000274846Y0000224002
X0000277996Y0000220852
X0000265396Y0000220851
X0000268545Y0000220851
X0000271696Y0000220852
X0000262241Y0000220847
X0000274846Y0000217702
X0000262241Y0000217697
X0000265391Y0000217697
X0000271696Y0000217701
X0000277995Y0000217702
X0000277996Y0000214552
X0000268546Y0000214552
X0000265395Y0000214552
X0000274845Y0000214552
X0000271696Y0000214552
X0000271696Y0000211402
X0000277995Y0000211402
X0000265396Y0000211402
X0000262246Y0000211402
X0000265396Y0000208252
X0000268545Y0000208252
X0000262246Y0000208251
X0000277996Y0000208251
X0000271696Y0000208251
X0000274846Y0000208252
X0000277986Y0000205072
X0000265396Y0000201952
X0000268545Y0000201952
X0000271696Y0000201952
X0000262245Y0000201952
X0000277996Y0000198802
X0000265395Y0000198802
X0000268546Y0000198802
X0000274846Y0000198802
X0000271696Y0000198802
X0000271696Y0000195652
X0000277996Y0000195652
X0000268545Y0000192502
X0000277996Y0000192501
X0000265396Y0000192502
X0000274846Y0000192502
X0000271696Y0000192501
X0000274846Y0000189351
X0000271696Y0000189352
X0000277996Y0000189352
X0000265396Y0000186202
X0000271696Y0000186202
X0000277995Y0000186202
X0000268545Y0000186202
X0000274846Y0000186202
X0000268546Y0000183051
X0000262246Y0000183051
X0000277996Y0000183051
X0000271696Y0000183051
X0000274846Y0000183052
X0000262246Y0000179902
X0000277996Y0000179902
X0000271696Y0000179902
X0000268545Y0000179901
X0000265396Y0000179901
X0000271696Y0000176751
X0000274846Y0000176752
X0000265396Y0000176752
X0000268545Y0000176752
X0000277995Y0000176752
X0000277996Y0000173602
X0000274845Y0000173602
X0000268546Y0000173602
X0000265395Y0000173602
X0000271696Y0000173602
X0000271696Y0000170452
X0000277995Y0000170452
X0000274846Y0000170452
X0000262246Y0000170452
X0000270500Y0000155500
X0000264500Y0000146100
X0000269200Y0000146100
X0000269200Y0000140200
X0000264500Y0000140200
X0000270874Y0000064500
X0000266250Y0000064500
X0000263750Y0000064500
X0000289500Y0000053500
X0000287000Y0000053500
X0000298434Y0000064566
X0000290560Y0000064560
X0000295500Y0000150900
X0000281796Y0000170702
X0000281145Y0000173602
X0000281146Y0000176752
X0000281145Y0000179902
X0000281145Y0000183051
X0000284273Y0000183075
X0000281145Y0000189352
X0000281146Y0000192502
X0000281146Y0000195651
X0000281145Y0000208251
X0000296357Y0000213685
X0000281145Y0000214552
X0000296710Y0000217150
X0000281146Y0000217702
X0000281145Y0000224001
X0000281146Y0000227152
X0000281145Y0000230302
X0000281146Y0000236601
X0000281145Y0000239752
X0000298500Y0000253000
X0000286100Y0000258100
X0000296600Y0000258100
X0000281700Y0000260000
X0000286100Y0000261000
X0000289400Y0000262900
X0000297144Y0000276148
X0000287000Y0000278500
X0000286000Y0000283000
X0000301400Y0000271800
X0000312290Y0000267573
X0000315710Y0000267573
X0000302290Y0000267073
X0000305710Y0000267073
X0000314502Y0000232678
X0000314483Y0000229549
X0000317810Y0000229302
X0000317854Y0000226178
X0000314704Y0000226179
X0000317853Y0000223029
X0000313621Y0000222159
X0000317854Y0000219879
X0000303404Y0000217003
X0000314703Y0000216728
X0000317854Y0000213579
X0000311554Y0000213579
X0000311554Y0000210428
X0000317854Y0000210429
X0000317854Y0000207278
X0000314704Y0000207278
X0000314812Y0000201028
X0000317853Y0000200979
X0000314704Y0000197829
X0000317854Y0000194679
X0000314703Y0000194679
X0000314704Y0000191530
X0000314704Y0000188380
X0000317854Y0000182081
X0000314704Y0000182081
X0000317000Y0000064500
X0000303000Y0000064500
X0000306000Y0000064500
X0000314000Y0000064500
X0000314500Y0000050500
X0000317500Y0000050500
X0000326500Y0000050500
X0000330000Y0000050500
X0000329420Y0000064500
X0000326500Y0000064500
X0000320000Y0000082500
X0000337015Y0000181794
X0000326479Y0000181865
X0000336754Y0000185232
X0000339904Y0000185229
X0000336754Y0000188381
X0000324712Y0000190704
X0000339904Y0000191528
X0000321003Y0000191530
X0000336754Y0000191531
X0000336754Y0000194677
X0000321003Y0000194679
X0000339904Y0000194677
X0000328601Y0000195724
X0000324194Y0000197641
X0000321003Y0000197829
X0000339904Y0000197826
X0000333656Y0000197882
X0000330793Y0000197916
X0000321003Y0000200979
X0000339904Y0000200977
X0000339904Y0000207278
X0000321003Y0000207278
X0000321003Y0000210429
X0000336754Y0000210428
X0000339904Y0000210429
X0000339904Y0000213577
X0000321003Y0000213579
X0000321004Y0000216729
X0000339904Y0000216727
X0000336754Y0000216727
X0000336754Y0000219878
X0000339904Y0000219877
X0000336754Y0000223026
X0000339904Y0000226176
X0000321003Y0000226175
X0000336754Y0000226177
X0000336754Y0000229325
X0000324283Y0000229271
X0000321083Y0000229405
X0000336754Y0000232475
X0000334700Y0000267900
X0000325710Y0000268000
X0000322290Y0000268000
X0000348000Y0000252500
X0000340000Y0000252500
X0000341500Y0000247800
X0000346703Y0000240979
X0000344500Y0000234500
X0000340059Y0000232632
X0000343054Y0000232475
X0000343054Y0000229325
X0000343054Y0000226177
X0000343054Y0000223026
X0000349506Y0000215006
X0000343054Y0000210428
X0000352293Y0000206822
X0000344500Y0000205946
X0000343054Y0000200977
X0000352333Y0000198244
X0000343054Y0000197826
X0000343053Y0000194677
X0000343054Y0000188377
X0000343054Y0000185228
X0000343429Y0000181703
X0000357500Y0000104500
X0000353000Y0000100500
X0000368237Y0000083763
X0000364475Y0000097975
X0000370500Y0000111000
X0000360500Y0000112000
X0000368000Y0000117000
X0000372500Y0000125500
X0000377000Y0000127261
X0000379500Y0000128870
X0000379000Y0000140103
X0000376500Y0000142072
X0000377000Y0000152000
X0000375936Y0000157532
X0000376387Y0000168387
X0000375000Y0000173000
X0000377350Y0000199150
X0000371000Y0000203000
X0000367500Y0000218000
X0000379500Y0000235000
X0000364000Y0000244500
X0000364000Y0000258500
X0000368700Y0000268800
X0000364100Y0000279970
X0000379800Y0000282000
X0000382000Y0000269700
X0000395000Y0000256000
X0000392844Y0000201955
X0000388908Y0000201500
X0000396780Y0000201280
X0000384000Y0000198500
X0000390000Y0000198000
X0000396000Y0000197000
X0000399000Y0000192000
X0000382500Y0000191545
X0000390000Y0000185500
X0000397092Y0000185500
X0000393500Y0000185500
X0000393557Y0000170786
X0000380192Y0000170356
X0000394986Y0000169087
X0000380000Y0000166000
X0000380546Y0000159077
X0000399213Y0000155937
X0000380500Y0000154593
X0000380899Y0000144582
X0000399213Y0000139673
X0000380899Y0000137593
X0000398860Y0000132249
X0000380000Y0000123451
X0000392006Y0000111000
X0000397500Y0000110500
X0000394516Y0000108500
X0000400500Y0000110500
X0000407345Y0000131542
X0000417250Y0000131536
X0000403810Y0000131542
X0000411588Y0000131542
X0000406285Y0000163715
X0000414770Y0000163930
X0000418332Y0000164068
X0000409339Y0000175382
X0000404000Y0000185500
X0000408406Y0000185635
X0000400628Y0000185594
X0000416891Y0000185635
X0000412649Y0000185635
X0000410556Y0000201556
X0000404946Y0000248569
X0000437000Y0000258500
X0000420500Y0000242500
X0000422500Y0000240790
X0000434000Y0000236500
X0000422500Y0000221500
X0000425500Y0000217500
X0000423000Y0000206000
X0000429000Y0000197000
X0000426430Y0000192030
X0000426150Y0000188880
X0000425730Y0000181039
X0000438542Y0000165500
X0000425023Y0000164068
X0000421487Y0000164068
X0000431090Y0000161594
X0000430680Y0000156997
X0000429729Y0000146634
X0000430680Y0000142148
X0000439500Y0000136500
X0000430326Y0000135431
X0000429619Y0000131895
X0000426002Y0000131813
X0000421487Y0000131542
X0000426902Y0000111000
X0000422659Y0000111000
X0000437308Y0000110021
X0000430237Y0000110021
X0000433773Y0000110021
X0000440844Y0000110021
X0000444500Y0000118000
X0000451000Y0000128450
X0000450500Y0000139500
X0000441500Y0000140849
X0000441500Y0000144000
X0000450500Y0000144500
X0000441500Y0000173968
X0000449500Y0000195000
X0000459000Y0000205500
X0000459000Y0000208000
X0000451290Y0000218500
X0000444500Y0000225000
X0000442000Y0000226000
X0000447500Y0000227000
X0000453258Y0000236758
X0000459500Y0000253600
X0000448000Y0000258100
X0000444900Y0000258300
X0000442000Y0000258500
X0000447000Y0000272500
X0000465600Y0000266700
X0000460800Y0000266600
X0000464000Y0000261800
X0000471500Y0000259000
X0000460400Y0000258300
X0000463000Y0000237000
X0000460000Y0000237000
X0000463616Y0000220595
X0000461116Y0000220571
X0000479000Y0000181500
X0000473850Y0000180500
X0000468500Y0000180500
X0000476500Y0000179000
X0000472000Y0000178000
X0000468000Y0000172000
X0000465800Y0000170700
X0000468000Y0000169500
X0000479500Y0000167500
X0000479500Y0000164500
X0000470500Y0000151000
X0000465500Y0000136500
X0000468500Y0000117000
X0000474500Y0000117000
X0000471500Y0000117000
X0000462490Y0000105510
X0000484500Y0000130500
X0000481500Y0000135000
X0000486000Y0000135000
X0000484953Y0000181547
X0000491000Y0000182000
X0000494795Y0000224000
X0000497500Y0000224000
X0000484500Y0000226000
X0000487000Y0000226000
X0000493000Y0000233000
X0000490500Y0000233000
X0000486000Y0000252000
X0000483500Y0000254414
X0000486000Y0000262500
X0000486000Y0000272000
X0000513500Y0000213000
X0000511000Y0000211500
X0000502000Y0000210000
X0000511000Y0000209000
X0000513500Y0000208500
X0000518000Y0000206500
X0000518000Y0000203500
X0000515500Y0000191500
X0000517000Y0000189000
X0000510000Y0000160000
X0000512000Y0000158500
X0000512000Y0000155000
X0000514700Y0000154000
X0000509000Y0000153000
X0000512500Y0000149500
X0000509000Y0000149500
X0000512500Y0000147000
X0000512500Y0000143300
X0000510500Y0000141500
X0000512000Y0000139500
X0000512000Y0000136500
X0000510000Y0000135000
X0000506000Y0000116500
X0000514000Y0000092000
X0000530500Y0000092500
X0000521176Y0000094150
X0000539000Y0000106500
X0000539000Y0000109200
X0000522000Y0000111150
X0000528500Y0000122000
X0000528000Y0000147000
X0000528000Y0000150000
X0000524000Y0000159500
X0000521000Y0000159500
X0000533500Y0000169000
X0000521500Y0000194700
X0000521500Y0000197200
X0000520500Y0000205000
X0000552500Y0000152700
X0000553000Y0000149500
X0000553000Y0000127500
X0000561217Y0000138773
X0000561000Y0000142000
X0000568300Y0000159000
X0000571500Y0000159000
X0000589217Y0000155773
X0000591717Y0000155773
X0000591717Y0000153273
X0000589217Y0000153273
X0000583467Y0000149773
X0000580167Y0000149773
X0000591500Y0000136000
T03
X0000039000Y0000014500
X0000047500Y0000014500
X0000081000Y0000028000
X0000085500Y0000023000
X0000089000Y0000014500
X0000099000Y0000014500
X0000100500Y0000024500
X0000109000Y0000014500
X0000119000Y0000014500
X0000134500Y0000014500
X0000149000Y0000014500
R04X0000010000
X0000197433Y0000026520
X0000372500Y0000026500
X0000376000Y0000020500
X0000376000Y0000024500
X0000377000Y0000014500
X0000380000Y0000017000
X0000380000Y0000014500
X0000383000Y0000017000
X0000383000Y0000014500
X0000447500Y0000022500
X0000447500Y0000015000
X0000447500Y0000029500
X0000455000Y0000014500
X0000455500Y0000024500
X0000464000Y0000014500
X0000464500Y0000024500
X0000471000Y0000014500
X0000471500Y0000024500
X0000478500Y0000024500
X0000479000Y0000014500
X0000484000Y0000023500
X0000486500Y0000026500
X0000533500Y0000014500
X0000533500Y0000059000
X0000533500Y0000049000
X0000533500Y0000032000
X0000492500Y0000031500
X0000488000Y0000030000
X0000488000Y0000037500
X0000488000Y0000032500
X0000488000Y0000035000
X0000485000Y0000032500
X0000485000Y0000035000
X0000485000Y0000037500
X0000485000Y0000030000
X0000482000Y0000035000
X0000482000Y0000037500
X0000482000Y0000030000
X0000482000Y0000032500
X0000462500Y0000051500
X0000458000Y0000053500
X0000452500Y0000044000
X0000452500Y0000039500
X0000447500Y0000035500
X0000447500Y0000047000
X0000447500Y0000041500
X0000368000Y0000031500
X0000365000Y0000031500
X0000363000Y0000034500
X0000363000Y0000037500
X0000363000Y0000041500
X0000357500Y0000046000
X0000347500Y0000046000
R02X-0000010000
X0000323500Y0000050500
X0000317500Y0000046000
X0000308500Y0000050500
X0000307500Y0000046000
X0000298500Y0000050500
X0000297500Y0000046000
X0000292500Y0000053500
X0000287500Y0000046000
X0000283000Y0000048700
X0000277500Y0000046000
X0000276500Y0000048500
X0000267500Y0000046000
X0000257500Y0000046000
X0000249000Y0000046000
X0000247000Y0000050000
X0000239000Y0000046000
X0000229000Y0000046000
R02X-0000010000
X0000208571Y0000052000
X0000206500Y0000036500
X0000206000Y0000032000
X0000140000Y0000040000
X0000130000Y0000050000
X0000120000Y0000040000
X0000110000Y0000050000
X0000100000Y0000040000
X0000075000Y0000043000
X0000074500Y0000031500
X0000068000Y0000033000
X0000065600Y0000041400
X0000029650Y0000030350
X0000047571Y0000070596
X0000059114Y0000062065
X0000064500Y0000087500
X0000072400Y0000066500
X0000090000Y0000086000
X0000094150Y0000061850
X0000094241Y0000070759
X0000096000Y0000084000
X0000101500Y0000070000
X0000101650Y0000064350
X0000102000Y0000087000
X0000104512Y0000075988
X0000112488Y0000075988
X0000120000Y0000060000
X0000123165Y0000072665
X0000140000Y0000060000
X0000141500Y0000082500
X0000150000Y0000070000
X0000168200Y0000084868
X0000176000Y0000084500
X0000180000Y0000070000
X0000210000Y0000070000
X0000220000Y0000060000
X0000225000Y0000064000
X0000241000Y0000084500
X0000244000Y0000081000
X0000252850Y0000081100
X0000267000Y0000084900
X0000282685Y0000064500
X0000286623Y0000064623
X0000310245Y0000064500
X0000323800Y0000064500
X0000325500Y0000084244
X0000332200Y0000064500
X0000345678Y0000064178
X0000349000Y0000063500
X0000350500Y0000084500
X0000352000Y0000063500
X0000353500Y0000084500
X0000355500Y0000063500
X0000358500Y0000063500
X0000468000Y0000086000
X0000474000Y0000084000
X0000480000Y0000087000
X0000482000Y0000063500
X0000485000Y0000063500
X0000486500Y0000085500
X0000488000Y0000063500
X0000488500Y0000089000
X0000491000Y0000063500
R03X0000003000
X0000502500Y0000064500
X0000516500Y0000073800
X0000533500Y0000069000
X0000543000Y0000075500
X0000561000Y0000075500
X0000578000Y0000075500
X0000578000Y0000116000
X0000578000Y0000108500
X0000559000Y0000091000
X0000557500Y0000118000
X0000547000Y0000097150
X0000535000Y0000103750
X0000524500Y0000106000
X0000522300Y0000114500
X0000522300Y0000117500
X0000515700Y0000105500
X0000513000Y0000118084
X0000506000Y0000108740
X0000495311Y0000109500
X0000495000Y0000116000
X0000494500Y0000105000
X0000488000Y0000106000
X0000482000Y0000092500
X0000482000Y0000106500
X0000479500Y0000098500
X0000476500Y0000107000
X0000473500Y0000101000
X0000472000Y0000106800
X0000467000Y0000106500
X0000466500Y0000097500
X0000465000Y0000091500
X0000451750Y0000119250
X0000451850Y0000115550
X0000446150Y0000115350
X0000445500Y0000103800
X0000442500Y0000103700
X0000431600Y0000105000
X0000425350Y0000106350
X0000417528Y0000114219
X0000405743Y0000114243
X0000399000Y0000100000
X0000391500Y0000103000
X0000389500Y0000100500
X0000389000Y0000104000
X0000387000Y0000101500
X0000385500Y0000111500
X0000385000Y0000103700
X0000383275Y0000115775
X0000371000Y0000102000
X0000364300Y0000106800
X0000364300Y0000112300
X0000362400Y0000114900
X0000327798Y0000091018
X0000321800Y0000107900
X0000321600Y0000110600
X0000307713Y0000104468
X0000296148Y0000112968
X0000261000Y0000105000
X0000243400Y0000108000
X0000242448Y0000110568
X0000229013Y0000104468
X0000217448Y0000112968
X0000183500Y0000107500
R02Y-0000003000
X0000170450Y0000091018
X0000164200Y0000108700
X0000163800Y0000119518
X0000150365Y0000104468
X0000138800Y0000112968
X0000105500Y0000105800
X0000104000Y0000092500
X0000101500Y0000098500
X0000095500Y0000101000
X0000090500Y0000111000
X0000090500Y0000107000
X0000088500Y0000097500
X0000087000Y0000091500
X0000075000Y0000095500
X0000069958Y0000093542
X0000067400Y0000099300
X0000047900Y0000109200
X0000046300Y0000107300
X0000043500Y0000116300
X0000043000Y0000108300
X0000039000Y0000109800
X0000035300Y0000109592
X0000017700Y0000143900
X0000018900Y0000149500
X0000036000Y0000149000
X0000036000Y0000146069
X0000045000Y0000148500
X0000046300Y0000137550
X0000047500Y0000148500
X0000048900Y0000133000
X0000049500Y0000139500
X0000050000Y0000148500
X0000053308Y0000122708
X0000054000Y0000149150
X0000056750Y0000128750
X0000060500Y0000122500
X0000063350Y0000130650
X0000092500Y0000143000
X0000096441Y0000140100
X0000099000Y0000147500
X0000104000Y0000140500
X0000107000Y0000135500
X0000107000Y0000140500
X0000116500Y0000132600
X0000123650Y0000143250
X0000128550Y0000142550
X0000128900Y0000147400
X0000205500Y0000132000
X0000211000Y0000128750
X0000215100Y0000144700
X0000215100Y0000135200
X0000222050Y0000144050
X0000223800Y0000129300
X0000223800Y0000139700
X0000227200Y0000129800
X0000235666Y0000146355
X0000243000Y0000132000
X0000243000Y0000137000
X0000285150Y0000133000
X0000288850Y0000132850
X0000291550Y0000141000
X0000438500Y0000125107
X0000440500Y0000123500
X0000450663Y0000133663
X0000450963Y0000123963
X0000454500Y0000133500
X0000455000Y0000123500
X0000457000Y0000136500
X0000460500Y0000134500
X0000463000Y0000145000
X0000470001Y0000132999
X0000472496Y0000145000
X0000474000Y0000128500
X0000488800Y0000143350
X0000489000Y0000135000
X0000495100Y0000130500
X0000498000Y0000121000
X0000498800Y0000135000
X0000500500Y0000130350
X0000506400Y0000149500
X0000506500Y0000125000
X0000513000Y0000124500
X0000521000Y0000147500
X0000528000Y0000128060
X0000528000Y0000140500
X0000553000Y0000124500
X0000554000Y0000121500
X0000558300Y0000139400
X0000559000Y0000128000
X0000575390Y0000143600
X0000578000Y0000124500
X0000586100Y0000149600
X0000586217Y0000140773
X0000589500Y0000129000
X0000590000Y0000145000
X0000590000Y0000148500
X0000590000Y0000141000
X0000601500Y0000136000
X0000601500Y0000129000
X0000601500Y0000161500
X0000601500Y0000155000
X0000592500Y0000161362
X0000583500Y0000161500
X0000579138Y0000159194
X0000572000Y0000150000
X0000570000Y0000161500
X0000567327Y0000150000
X0000562000Y0000161500
X0000559000Y0000168000
X0000559000Y0000178000
X0000532500Y0000155500
X0000524000Y0000165500
X0000518000Y0000177000
X0000517000Y0000168500
X0000515500Y0000179000
X0000506000Y0000160000
X0000501800Y0000177500
X0000499500Y0000169500
X0000497250Y0000160000
X0000496500Y0000169500
X0000490500Y0000169500
X0000488250Y0000160000
X0000486000Y0000169500
X0000481500Y0000169500
X0000478500Y0000156500
X0000475500Y0000168000
X0000471500Y0000168000
X0000470650Y0000153650
X0000467500Y0000165000
X0000462500Y0000178000
X0000457000Y0000169000
X0000454000Y0000161500
X0000445645Y0000168000
X0000441500Y0000168000
X0000441500Y0000163500
X0000430710Y0000177920
X0000429124Y0000163927
X0000418689Y0000172798
X0000416113Y0000171988
X0000385500Y0000178000
X0000383000Y0000176000
X0000312000Y0000166500
X0000305000Y0000166500
X0000299500Y0000166500
X0000295435Y0000166500
X0000291500Y0000151000
X0000280500Y0000160415
X0000271500Y0000160501
X0000260000Y0000160500
X0000256046Y0000160450
X0000243000Y0000151500
X0000238946Y0000155054
X0000221250Y0000157750
X0000213696Y0000165672
X0000205000Y0000164500
X0000181700Y0000157400
X0000168500Y0000178000
X0000156700Y0000174200
X0000151000Y0000170600
X0000142800Y0000175600
X0000128900Y0000151400
X0000121500Y0000157500
X0000111000Y0000160150
X0000110850Y0000152200
X0000106000Y0000151121
X0000100500Y0000158350
X0000097000Y0000167000
X0000092000Y0000175000
X0000068500Y0000170000
X0000054000Y0000156000
X0000054000Y0000152000
X0000053000Y0000159000
X0000053000Y0000161500
X0000036500Y0000170000
X0000036450Y0000175208
X0000035500Y0000153000
X0000033000Y0000156300
X0000033000Y0000164000
X0000033000Y0000158800
X0000033000Y0000166500
X0000033000Y0000161500
X0000032500Y0000169600
X0000032500Y0000172500
X0000032400Y0000151500
X0000029500Y0000151500
X0000027000Y0000151500
X0000021500Y0000152000
X0000019000Y0000152000
X0000018500Y0000197500
X0000019300Y0000200600
X0000033504Y0000209500
X0000035000Y0000197500
X0000035000Y0000204700
X0000035900Y0000209500
X0000036450Y0000192920
X0000036450Y0000187016
X0000036450Y0000181112
X0000045000Y0000203000
X0000049500Y0000206200
X0000054500Y0000200000
X0000072650Y0000209150
X0000085700Y0000207200
X0000086900Y0000203400
X0000090100Y0000207200
X0000100000Y0000206500
X0000100900Y0000203100
X0000103533Y0000207000
X0000108633Y0000207152
X0000111050Y0000200450
X0000121950Y0000200550
X0000124900Y0000209900
X0000347500Y0000208500
X0000357200Y0000203800
X0000369000Y0000205000
X0000371000Y0000208000
X0000380694Y0000209118
X0000382500Y0000201000
X0000392500Y0000192000
X0000400748Y0000201696
X0000402600Y0000199600
X0000404900Y0000201700
X0000407000Y0000196000
X0000420285Y0000183938
X0000423000Y0000209500
X0000428500Y0000194000
X0000433500Y0000195000
X0000434500Y0000197500
X0000436000Y0000195000
X0000437000Y0000184500
X0000441500Y0000208500
X0000446500Y0000208500
X0000449200Y0000182800
X0000451500Y0000208500
X0000452500Y0000195000
X0000456200Y0000182900
X0000461508Y0000209580
X0000461500Y0000196000
X0000461500Y0000190000
X0000462700Y0000181000
X0000473000Y0000203000
X0000477500Y0000203000
X0000482000Y0000208000
X0000482000Y0000193500
X0000482000Y0000203000
X0000482000Y0000198500
X0000486500Y0000203000
X0000491500Y0000203000
X0000502000Y0000193500
X0000502000Y0000204000
X0000504000Y0000190000
X0000514000Y0000184500
X0000514000Y0000187000
X0000524000Y0000196000
X0000524000Y0000189500
X0000559000Y0000186000
X0000559000Y0000198000
X0000559000Y0000238000
R02Y-0000010000
X0000527500Y0000239500
X0000525500Y0000234000
X0000519500Y0000231000
X0000513500Y0000233000
X0000510500Y0000238500
X0000507000Y0000221500
X0000504350Y0000234150
X0000502500Y0000216000
X0000488860Y0000223242
X0000486000Y0000230500
X0000482970Y0000223242
X0000482000Y0000212000
X0000473112Y0000223280
X0000473000Y0000230500
X0000467950Y0000223680
X0000453000Y0000239500
X0000443500Y0000236742
X0000438650Y0000225150
X0000438250Y0000210250
X0000437000Y0000236500
X0000430500Y0000225000
X0000430500Y0000236000
X0000425200Y0000212100
X0000425080Y0000222000
X0000422600Y0000231556
X0000380878Y0000211812
X0000379544Y0000231556
X0000379400Y0000228600
X0000378000Y0000219500
X0000378000Y0000225500
X0000377500Y0000215000
X0000372500Y0000219500
X0000370500Y0000215500
X0000367500Y0000232500
X0000363750Y0000228850
X0000359500Y0000238000
X0000348500Y0000226500
X0000348000Y0000223500
X0000143692Y0000234686
X0000129669Y0000214931
X0000121355Y0000224500
X0000121315Y0000218300
X0000115000Y0000228500
X0000094350Y0000227650
X0000077500Y0000213000
X0000059000Y0000239500
X0000057000Y0000234000
X0000051000Y0000231000
X0000047400Y0000212600
X0000045000Y0000216000
X0000045000Y0000233000
X0000045000Y0000222440
X0000045000Y0000218504
X0000042000Y0000238500
X0000040500Y0000225000
X0000019700Y0000212200
X0000019500Y0000216000
X0000043500Y0000244500
X0000050500Y0000248000
X0000056500Y0000245500
X0000068950Y0000262750
X0000072547Y0000256400
X0000075500Y0000265500
X0000075800Y0000259400
X0000082094Y0000262700
X0000090150Y0000266200
X0000095500Y0000252000
X0000095500Y0000258500
X0000098400Y0000258500
X0000099500Y0000252000
X0000107500Y0000251500
X0000188000Y0000255500
X0000195250Y0000249750
X0000202222Y0000241880
X0000226217Y0000249611
X0000226989Y0000246000
X0000232858Y0000250089
X0000295100Y0000252400
X0000295500Y0000254500
X0000309500Y0000260100
X0000328500Y0000260000
X0000331500Y0000260000
X0000337000Y0000257800
X0000355000Y0000252500
X0000371800Y0000268700
X0000377000Y0000250500
X0000379000Y0000269400
X0000381000Y0000250000
X0000383000Y0000242000
X0000384000Y0000248000
X0000390500Y0000244000
X0000394500Y0000244000
X0000395500Y0000269500
X0000399500Y0000269500
X0000400000Y0000256000
X0000401000Y0000244200
X0000402980Y0000246500
X0000404720Y0000244056
X0000406549Y0000246521
X0000410700Y0000244200
X0000411000Y0000248000
X0000414500Y0000244000
X0000418000Y0000256000
X0000430000Y0000242200
X0000430000Y0000252500
X0000451300Y0000253400
X0000476000Y0000265500
X0000478000Y0000258500
X0000486000Y0000258000
X0000489500Y0000254500
X0000490550Y0000242950
X0000504950Y0000252050
X0000512000Y0000244500
X0000519000Y0000248000
X0000525000Y0000245500
X0000531500Y0000248000
X0000541500Y0000248000
X0000551500Y0000248000
X0000559000Y0000248000
X0000500700Y0000275700
X0000477553Y0000275553
X0000471500Y0000279000
X0000457000Y0000272500
X0000452000Y0000272500
X0000439500Y0000272500
X0000434000Y0000272500
X0000396200Y0000281000
X0000396003Y0000276603
X0000387700Y0000278861
X0000354000Y0000270500
X0000349650Y0000276150
X0000299800Y0000282900
X0000128050Y0000276050
X0000124150Y0000271650
X0000119900Y0000271600
X0000113000Y0000280200
X0000112000Y0000271000
X0000108300Y0000281200
X0000108300Y0000277700
X0000108027Y0000273500
X0000090500Y0000282150
X0000087550Y0000282200
X0000075500Y0000276500
X0000072547Y0000281500
T04
X0000068084Y0000055774
X0000066089Y0000057779
X0000070089Y0000057768
X0000068094Y0000059774
X0000102877Y0000236967
X0000108910Y0000236967
X0000108910Y0000243000
X0000102877Y0000243000
X0000137859Y0000151481
X0000139859Y0000148481
X0000135859Y0000148481
X0000137859Y0000145481
X0000159352Y0000102200
X0000157352Y0000100200
X0000159352Y0000098200
X0000161352Y0000100200
X0000238001Y0000098201
X0000236000Y0000100200
X0000238000Y0000102200
X0000240000Y0000100199
X0000316700Y0000098200
X0000314700Y0000100200
X0000318700Y0000100200
X0000316700Y0000102200
X0000352000Y0000092000
X0000349500Y0000090000
X0000354000Y0000089500
X0000351500Y0000087500
X0000375487Y0000087661
X0000373862Y0000090161
X0000377862Y0000090161
X0000375487Y0000092661
X0000398690Y0000213670
X0000392670Y0000213670
X0000392670Y0000219690
X0000398690Y0000219690
X0000398690Y0000225710
X0000392670Y0000225710
X0000398690Y0000231730
X0000392670Y0000231730
X0000410730Y0000231730
X0000404710Y0000231730
X0000410730Y0000225710
X0000404710Y0000225710
X0000404710Y0000219690
X0000410730Y0000219690
X0000410730Y0000213670
X0000404710Y0000213670
X0000416818Y0000156396
X0000412487Y0000156396
X0000405993Y0000156397
X0000410323Y0000156397
X0000418983Y0000156396
X0000408158Y0000156397
X0000414652Y0000156396
X0000405993Y0000154232
X0000414652Y0000154231
X0000405993Y0000152067
X0000414653Y0000152067
X0000405993Y0000149902
X0000414652Y0000149902
X0000412487Y0000147737
X0000410323Y0000147736
X0000416818Y0000147737
X0000405993Y0000147736
X0000418983Y0000147737
X0000408158Y0000147736
X0000414652Y0000147737
X0000414652Y0000145572
X0000405993Y0000145571
X0000414652Y0000143407
X0000405993Y0000143407
X0000405993Y0000141242
X0000414652Y0000141242
X0000408158Y0000139077
X0000416818Y0000139076
X0000405993Y0000139077
X0000414652Y0000139076
X0000410323Y0000139077
X0000418983Y0000139076
X0000412487Y0000139076
X0000421147Y0000139077
X0000423312Y0000139077
X0000423312Y0000141242
X0000423313Y0000143407
X0000423312Y0000145571
X0000423312Y0000147736
X0000421147Y0000147736
X0000423312Y0000149902
X0000423312Y0000152067
X0000423312Y0000154232
X0000423312Y0000156397
X0000421147Y0000156397
T05
X0000033000Y0000037500
X0000027500Y0000037500
X0000023000Y0000038000
X0000034500Y0000040500
X0000025000Y0000041000
X0000029500Y0000041000
X0000021900Y0000052300
X0000022100Y0000056200
X0000020000Y0000059100
X0000020000Y0000063100
X0000020000Y0000066800
X0000019882Y0000074869
X0000019891Y0000078269
X0000029400Y0000081344
X0000022799Y0000081361
X0000026199Y0000081353
X0000036900Y0000133300
X0000021000Y0000135000
X0000025000Y0000135000
X0000032500Y0000135500
X0000036500Y0000137000
X0000076000Y0000196600
X0000080000Y0000196600
X0000078000Y0000193500
X0000079000Y0000177000
X0000076000Y0000175000
X0000079000Y0000173500
X0000068000Y0000152000
X0000070500Y0000132500
X0000070500Y0000121500
X0000059421Y0000116028
X0000061096Y0000113300
X0000070500Y0000111000
X0000061350Y0000110000
X0000060400Y0000104300
X0000092000Y0000054500
X0000080500Y0000050000
X0000084000Y0000050000
X0000126000Y0000082765
X0000117500Y0000083000
X0000121000Y0000083000
X0000113500Y0000087500
X0000123000Y0000087500
X0000110000Y0000087500
X0000110000Y0000091000
X0000113500Y0000091000
X0000113500Y0000097000
X0000110500Y0000097000
X0000113500Y0000100000
X0000110500Y0000100500
X0000110500Y0000104000
X0000107000Y0000113000
X0000107000Y0000116500
X0000107000Y0000120000
X0000117400Y0000123668
X0000120600Y0000123668
X0000114000Y0000123668
X0000130900Y0000131500
X0000127800Y0000131500
X0000127500Y0000159900
X0000127400Y0000163000
X0000121000Y0000171000
X0000143200Y0000171100
X0000139400Y0000172600
X0000121100Y0000174400
X0000136000Y0000190000
X0000136500Y0000193000
X0000133500Y0000194196
X0000154400Y0000166700
X0000157800Y0000166600
X0000180200Y0000151300
X0000178600Y0000148700
X0000177900Y0000143400
X0000179800Y0000140500
X0000194000Y0000124000
X0000190500Y0000124000
X0000197500Y0000124000
X0000189748Y0000120568
X0000189748Y0000117168
X0000189000Y0000102500
X0000192048Y0000100568
X0000189000Y0000099500
X0000191948Y0000097368
X0000189000Y0000096500
X0000178500Y0000093000
X0000182000Y0000093000
X0000182000Y0000089500
X0000178500Y0000089500
X0000192000Y0000088000
X0000189000Y0000086000
X0000192000Y0000084000
X0000199500Y0000084000
X0000195500Y0000084000
X0000270500Y0000085000
X0000274000Y0000085000
X0000277500Y0000085000
X0000267500Y0000089000
X0000271000Y0000089000
X0000260000Y0000089500
X0000261200Y0000093045
X0000255000Y0000093000
X0000258000Y0000093000
X0000270548Y0000094068
X0000267848Y0000095668
X0000270648Y0000097368
X0000267848Y0000099068
X0000270748Y0000100568
X0000268574Y0000120200
X0000268100Y0000123600
X0000271348Y0000123668
X0000274748Y0000123668
X0000277948Y0000123668
X0000336000Y0000085500
X0000339500Y0000085500
X0000336000Y0000089000
X0000339500Y0000089000
X0000336000Y0000092500
X0000339500Y0000092500
X0000386500Y0000096500
X0000386500Y0000092500
X0000359163Y0000083500
X0000363000Y0000064500
X0000366500Y0000064500
X0000397000Y0000055500
X0000393500Y0000055500
X0000390000Y0000052500
X0000397000Y0000052000
X0000393500Y0000051000
X0000390000Y0000048500
X0000391500Y0000015500
X0000398000Y0000015500
X0000411000Y0000015500
X0000405500Y0000015500
X0000426500Y0000016500
X0000426500Y0000020500
X0000421000Y0000020500
X0000411000Y0000020500
X0000416000Y0000020500
X0000412500Y0000050000
X0000416000Y0000052000
X0000419000Y0000054000
X0000412500Y0000054000
X0000416000Y0000056000
X0000412500Y0000058000
X0000420500Y0000069000
X0000417000Y0000069000
X0000424000Y0000069000
X0000420639Y0000181039
X0000475000Y0000055000
X0000482000Y0000055000
X0000478500Y0000055000
X0000478500Y0000058500
X0000475000Y0000058500
X0000482000Y0000058500
X0000526000Y0000028500
X0000519000Y0000028500
X0000529500Y0000028500
X0000515500Y0000028500
X0000522500Y0000028500
X0000529500Y0000056000
X0000508500Y0000056000
X0000508500Y0000059500
X0000529500Y0000059500
X0000508500Y0000063000
X0000529500Y0000063000
X0000551000Y0000083000
X0000554500Y0000082500
X0000551000Y0000079500
X0000554500Y0000079000
T06
X0000449538Y0000107624
X0000454460Y0000107620
T07
X0000462157Y0000244000
X0000467078Y0000244000
X0000471999Y0000244000
X0000476921Y0000244000
X0000481842Y0000244000
T08
X0000452500Y0000173000
X0000034000Y0000240000
T09
X0000291300Y0000267600
X0000291300Y0000276500
X0000341700Y0000276500
X0000341700Y0000267600
T10
X0000441780Y0000181240
X0000441780Y0000191240
T11
X0000095677Y0000092554
X0000050402Y0000239417
X0000272500Y0000274100
X0000473630Y0000092554
X0000518906Y0000239417
T12
X0000471500Y0000269000
X0000495500Y0000269000
T13
X0000364200Y0000270500
X0000387800Y0000270500
M30
