G04 ================== begin FILE IDENTIFICATION RECORD ==================*
G04 Layout Name:  F:/work/Eileen/hmd/002/hmd-C-119-2015pm13.brd*
G04 Film Name:    hmd_c_SMCS*
G04 File Format:  Gerber RS274X*
G04 File Origin:  Cadence Allegro 16.3-S053*
G04 Origin Date:  Mon Jan 19 12:35:49 2015*
G04 *
G04 Layer:  VIA CLASS/SOLDERMASK_TOP*
G04 Layer:  PIN/SOLDERMASK_TOP*
G04 Layer:  PACKAGE GEOMETRY/SOLDERMASK_TOP*
G04 Layer:  BOARD GEOMETRY/OUTLINE*
G04 Layer:  BOARD GEOMETRY/SOLDERMASK_TOP*
G04 *
G04 Offset:    (0.00 0.00)*
G04 Mirror:    No*
G04 Mode:      Positive*
G04 Rotation:  0*
G04 FullContactRelief:  No*
G04 UndefLineWidth:     5.00*
G04 ================== end FILE IDENTIFICATION RECORD ====================*
%FSLAX55Y55*MOIN*%
%IR0*IPPOS*OFA0.00000B0.00000*MIA0B0*SFA1.00000B1.00000*%
%AMMACRO42*
21,1,.055,.075,0.0,0.0,89.849*%
%ADD42MACRO42*%
%AMMACRO119*
21,1,.049,.046,0.0,0.0,89.989*%
%ADD119MACRO119*%
%ADD111R,.037X.1*%
%AMMACRO33*
4,1,21,.01127,.00823,
.012704,.008101,
.014094,.007725,
.015397,.007114,
.016575,.006285,
.01759,.005264,
.018413,.004083,
.019019,.002777,
.019388,.001385,
.01951,-.00005,
.019381,-.001484,
.019005,-.002874,
.018393,-.004177,
.017565,-.005354,
.016544,-.00637,
.015363,-.007193,
.014056,-.007798,
.012665,-.008168,
.01123,-.00829,
-.01953,-.00821,
-.01949,.00831,
.01127,.00823,
0.0*
%
%ADD33MACRO33*%
%ADD102R,.081X.101*%
%AMMACRO94*
21,1,.03,.067,0.0,0.0,150.*%
%ADD94MACRO94*%
%ADD54R,.11X.075*%
%ADD52R,.038X.112*%
%ADD87R,.046X.114*%
%ADD38R,.134X.046*%
%ADD24R,.075X.203*%
%AMMACRO89*
21,1,.053,.077,0.0,0.0,150.*%
%ADD89MACRO89*%
%ADD66C,.014*%
%ADD56R,.082X.116*%
%AMMACRO21*
21,1,.04646,.17087,0.0,0.0,179.849*%
%ADD21MACRO21*%
%ADD16C,.032*%
%AMMACRO51*
21,1,.05,.032,0.0,0.0,.045*%
%ADD51MACRO51*%
%ADD74C,.016*%
%ADD113R,.027X.008*%
%ADD105C,.071*%
%ADD69C,.08*%
%ADD19C,.062*%
%ADD123C,.036*%
%ADD83C,.045*%
%ADD86C,.046*%
%ADD22R,.03X.03*%
%ADD11R,.031X.031*%
%ADD63R,.071X.071*%
%AMMACRO67*
4,1,21,-.01125,-.00826,
-.012684,-.008135,
-.014075,-.007762,
-.01538,-.007153,
-.016559,-.006328,
-.017578,-.005309,
-.018403,-.00413,
-.019012,-.002825,
-.019385,-.001434,
-.01951,0.0,
-.019385,.001434,
-.019012,.002825,
-.018403,.00413,
-.017578,.005309,
-.016559,.006328,
-.01538,.007153,
-.014075,.007762,
-.012684,.008135,
-.01125,.00826,
.01951,.00826,
.01951,-.00826,
-.01125,-.00826,
0.0*
%
%ADD67MACRO67*%
%AMMACRO62*
4,1,21,-.00826,.01125,
-.008135,.012684,
-.007762,.014075,
-.007153,.01538,
-.006328,.016559,
-.005309,.017578,
-.00413,.018403,
-.002825,.019012,
-.001434,.019385,
0.0,.01951,
.001434,.019385,
.002825,.019012,
.00413,.018403,
.005309,.017578,
.006328,.016559,
.007153,.01538,
.007762,.014075,
.008135,.012684,
.00826,.01125,
.00826,-.01951,
-.00826,-.01951,
-.00826,.01125,
0.0*
%
%ADD62MACRO62*%
%ADD106R,.073X.073*%
%AMMACRO78*
4,1,20,.044,-.044,
-.014,-.044,
-.014,-.047,
-.044,-.047,
-.044,-.031,
-.024,-.031,
-.024,-.021,
-.044,-.021,
-.044,-.005,
-.024,-.005,
-.024,.005,
-.044,.005,
-.044,.021,
-.024,.021,
-.024,.031,
-.044,.031,
-.044,.047,
-.014,.047,
-.014,.044,
.044,.044,
.044,-.044,
0.0*
%
%ADD78MACRO78*%
%ADD127R,.066X.066*%
%ADD68R,.077X.077*%
%AMMACRO104*
21,1,.038,.014,0.0,0.0,179.96*
1,1,.038,.000005,.007*
1,1,.038,-.000005,-.007*%
%ADD104MACRO104*%
%ADD57R,.04646X.17087*%
%AMMACRO60*
4,1,21,-.0165,.0055,
-.0165,-.0055,
.011,-.0055,
.011955,-.005416,
.012881,-.005168,
.01375,-.004763,
.014535,-.004213,
.015213,-.003535,
.015763,-.00275,
.016168,-.001881,
.016416,-.000955,
.0165,0.0,
.016416,.000955,
.016168,.001881,
.015763,.00275,
.015213,.003535,
.014535,.004213,
.01375,.004763,
.012881,.005168,
.011955,.005416,
.011,.0055,
-.0165,.0055,
0.0*
%
%ADD60MACRO60*%
%AMMACRO20*
21,1,.063,.071,0.0,0.0,179.669*%
%ADD20MACRO20*%
%AMMACRO41*
21,1,.03,.03,0.0,0.0,89.874*%
%ADD41MACRO41*%
%AMMACRO23*
21,1,.03,.03,0.0,0.0,89.849*%
%ADD23MACRO23*%
%ADD91R,.02X.01*%
%ADD70R,.01X.02*%
%AMMACRO31*
21,1,.071,.071,0.0,0.0,89.849*%
%ADD31MACRO31*%
%AMMACRO37*
4,1,21,-.01127,-.00823,
-.012704,-.008101,
-.014094,-.007725,
-.015397,-.007114,
-.016575,-.006285,
-.01759,-.005264,
-.018413,-.004083,
-.019019,-.002777,
-.019388,-.001385,
-.01951,.00005,
-.019381,.001484,
-.019005,.002874,
-.018393,.004177,
-.017565,.005354,
-.016544,.00637,
-.015363,.007193,
-.014056,.007798,
-.012665,.008168,
-.01123,.00829,
.01953,.00821,
.01949,-.00831,
-.01127,-.00823,
0.0*
%
%ADD37MACRO37*%
%AMMACRO32*
4,1,21,.00823,-.01127,
.008101,-.012704,
.007725,-.014094,
.007114,-.015397,
.006285,-.016575,
.005264,-.01759,
.004083,-.018413,
.002777,-.019019,
.001385,-.019388,
-.00005,-.01951,
-.001484,-.019381,
-.002874,-.019005,
-.004177,-.018393,
-.005354,-.017565,
-.00637,-.016544,
-.007193,-.015363,
-.007798,-.014056,
-.008168,-.012665,
-.00829,-.01123,
-.00821,.01953,
.00831,.01949,
.00823,-.01127,
0.0*
%
%ADD32MACRO32*%
%AMMACRO30*
4,1,21,-.00823,.01127,
-.008101,.012704,
-.007725,.014094,
-.007114,.015397,
-.006285,.016575,
-.005264,.01759,
-.004083,.018413,
-.002777,.019019,
-.001385,.019388,
.00005,.01951,
.001484,.019381,
.002874,.019005,
.004177,.018393,
.005354,.017565,
.00637,.016544,
.007193,.015363,
.007798,.014056,
.008168,.012665,
.00829,.01123,
.00821,-.01953,
-.00831,-.01949,
-.00823,.01127,
0.0*
%
%ADD30MACRO30*%
%ADD125R,.101X.128*%
%ADD48R,.032X.012*%
%ADD129R,.144X.104*%
%ADD58R,.012X.051*%
%ADD47R,.012X.032*%
%ADD34R,.02X.016*%
%ADD25R,.01X.026*%
%ADD115O,.035X.014*%
%ADD81R,.032X.014*%
%ADD45O,.021X.036*%
%ADD36R,.032X.05*%
%ADD122R,.022X.024*%
%ADD120O,.014X.035*%
%ADD126R,.041X.052*%
%ADD10C,.12*%
%ADD95R,.061X.051*%
%ADD93R,.034X.015*%
%ADD128R,.028X.012*%
%ADD114R,.061X.016*%
%ADD109R,.034X.016*%
%ADD99R,.015X.034*%
%ADD75R,.03X.064*%
%ADD15R,.054X.05*%
%ADD108R,.016X.034*%
%ADD84R,.05X.054*%
%ADD53R,.014X.037*%
%ADD40R,.04X.046*%
%ADD117R,.091X.024*%
%ADD116O,.038X.052*%
%ADD112R,.046X.041*%
%ADD100R,.061X.053*%
%ADD82R,.03X.093*%
%ADD76R,.045X.061*%
%ADD50R,.061X.045*%
%ADD28R,.055X.016*%
%ADD14R,.055X.043*%
%ADD39R,.043X.055*%
%ADD88R,.071X.056*%
%ADD80R,.039X.016*%
%ADD73R,.035X.028*%
%ADD55R,.039X.034*%
%ADD29C,.244*%
%ADD103R,.028X.028*%
%ADD79R,.049X.034*%
%ADD77R,.033X.049*%
%ADD46R,.059X.051*%
%ADD35R,.034X.039*%
%ADD124R,.073X.038*%
%ADD107R,.028X.028*%
%ADD92R,.02X.02098*%
%ADD26R,.063X.039*%
%ADD17R,.051X.059*%
%ADD131R,.018X.057*%
%ADD72R,.037X.065*%
%ADD71R,.02098X.02*%
%AMMACRO59*
4,1,20,-.0325,.047,
-.0325,-.047,
-.0155,-.047,
-.0155,-.075,
-.0045,-.075,
-.0045,-.047,
.0045,-.047,
.0045,-.075,
.0155,-.075,
.0155,-.047,
.0325,-.047,
.0325,.047,
.0155,.047,
.0155,.075,
.0045,.075,
.0045,.047,
-.0045,.047,
-.0045,.075,
-.0155,.075,
-.0155,.047,
-.0325,.047,
0.0*
%
%ADD59MACRO59*%
%ADD13R,.075X.055*%
%ADD130R,.091X.093*%
%ADD118R,.063X.059*%
%ADD110R,.049X.081*%
%ADD101R,.223X.223*%
%ADD27R,.046X.049*%
%ADD121R,.242X.242*%
%ADD98R,.305X.305*%
%ADD85R,.072X.077*%
%ADD44R,.049X.046*%
%ADD97R,.0375X.0154*%
%ADD96R,.0154X.0375*%
%ADD18R,.093X.077*%
%AMMACRO65*
4,1,21,.01125,.00826,
.012684,.008135,
.014075,.007762,
.01538,.007153,
.016559,.006328,
.017578,.005309,
.018403,.00413,
.019012,.002825,
.019385,.001434,
.01951,0.0,
.019385,-.001434,
.019012,-.002825,
.018403,-.00413,
.017578,-.005309,
.016559,-.006328,
.01538,-.007153,
.014075,-.007762,
.012684,-.008135,
.01125,-.00826,
-.01951,-.00826,
-.01951,.00826,
.01125,.00826,
0.0*
%
%ADD65MACRO65*%
%AMMACRO64*
4,1,21,.00826,-.01125,
.008135,-.012684,
.007762,-.014075,
.007153,-.01538,
.006328,-.016559,
.005309,-.017578,
.00413,-.018403,
.002825,-.019012,
.001434,-.019385,
0.0,-.01951,
-.001434,-.019385,
-.002825,-.019012,
-.00413,-.018403,
-.005309,-.017578,
-.006328,-.016559,
-.007153,-.01538,
-.007762,-.014075,
-.008135,-.012684,
-.00826,-.01125,
-.00826,.01951,
.00826,.01951,
.00826,-.01125,
0.0*
%
%ADD64MACRO64*%
%AMMACRO90*
4,1,20,-.044,.044,
.014,.044,
.014,.047,
.044,.047,
.044,.031,
.024,.031,
.024,.021,
.044,.021,
.044,.005,
.024,.005,
.024,-.005,
.044,-.005,
.044,-.021,
.024,-.021,
.024,-.031,
.044,-.031,
.044,-.047,
.014,-.047,
.014,-.044,
-.044,-.044,
-.044,.044,
0.0*
%
%ADD90MACRO90*%
%ADD49R,.187X.187*%
%AMMACRO43*
21,1,.034,.039,0.0,0.0,89.923*%
%ADD43MACRO43*%
%AMMACRO12*
21,1,.082,.116,0.0,0.0,179.849*%
%ADD12MACRO12*%
%AMMACRO61*
4,1,21,.0165,-.0055,
.0165,.0055,
-.011,.0055,
-.011955,.005416,
-.012881,.005168,
-.01375,.004763,
-.014535,.004213,
-.015213,.003535,
-.015763,.00275,
-.016168,.001881,
-.016416,.000955,
-.0165,0.0,
-.016416,-.000955,
-.016168,-.001881,
-.015763,-.00275,
-.015213,-.003535,
-.014535,-.004213,
-.01375,-.004763,
-.012881,-.005168,
-.011955,-.005416,
-.011,-.0055,
.0165,-.0055,
0.0*
%
%ADD61MACRO61*%
%ADD132C,.005*%
G75*
%LPD*%
G75*
G36*
G01X158252Y22315D02*
X189748D01*
G03X193685Y26252I0J3937D01*
G01Y57748D01*
G03X189748Y61685I-3937J0D01*
G01X158252D01*
G03X154315Y57748I0J-3937D01*
G01Y26252D01*
G03X158252Y22315I3937J0D01*
G37*
%LPC*%
G75*
G36*
G01X186594Y36244D02*
G02X185012Y34531I-1734J14D01*
G01X184185D01*
X186551Y31205D01*
X186594Y31169D01*
X185134D01*
X182731Y34516D01*
X177150D01*
Y31173D01*
X175961D01*
Y39059D01*
X175949Y39079D01*
X184866D01*
G02X186594Y37362I-110J-1839D01*
G01Y36244D01*
G37*
G36*
G01X186598Y52831D02*
Y51646D01*
X177724D01*
G03X177150Y51071I25J-599D01*
G01Y50638D01*
G03X177713Y50067I608J36D01*
G01X184933Y50071D01*
G02X186598Y48323I-112J-1773D01*
G01Y46709D01*
G02X184850Y44957I-1763J11D01*
G01X175969D01*
Y46130D01*
X184835D01*
G03X185417Y46780I-18J602D01*
G01Y48256D01*
G03X184850Y48894I-595J42D01*
G01X177689Y48890D01*
G02X175969Y50614I53J1773D01*
G01Y51094D01*
G02X177693Y52831I1777J-39D01*
G01X186598D01*
G37*
G36*
G01X165839Y31177D02*
X160815Y39047D01*
X162220D01*
X166728Y31976D01*
X171217Y39047D01*
X172622Y39055D01*
X167622Y31181D01*
X165839Y31177D01*
G37*
G36*
G01X170343Y52827D02*
G02X172039Y51130I-99J-1795D01*
G01X172035Y46661D01*
G02X170280Y44949I-1777J66D01*
G01X163118Y44953D01*
G02X161406Y46665I57J1769D01*
G01X161402Y51094D01*
G02X163083Y52827I1779J-44D01*
G01X170343D01*
G37*
%LPD*%
G75*
G36*
G01X163173Y51646D02*
X170283D01*
G02X170846Y51051I-15J-578D01*
G01Y46728D01*
G02X170224Y46126I-596J-7D01*
G01X163169Y46134D01*
G02X162591Y46728I7J585D01*
G01X162579Y51071D01*
G02X163165Y51642I591J-21D01*
G01X163173Y51646D01*
G37*
G36*
G01X177150Y37870D02*
X184850Y37866D01*
G02X185417Y37248I-24J-591D01*
G01Y36323D01*
G02X184799Y35701I-596J-26D01*
G01X177154Y35705D01*
X177150Y37870D01*
G37*
G54D100*
X415139Y109575D03*
X406479D03*
Y103275D03*
X415139D03*
G54D101*
X414652Y147737D03*
G54D110*
X435579Y248000D03*
X445421D03*
G54D120*
X479047Y185638D03*
X477079D03*
X475110D03*
X473142D03*
X471173D03*
X469205D03*
X467236D03*
Y220362D03*
X469205D03*
X471173D03*
X473142D03*
X475110D03*
X477079D03*
X479047D03*
X494795Y185638D03*
X492827D03*
X490858D03*
X488890D03*
X486921D03*
X484953D03*
X482984D03*
X481016D03*
Y220362D03*
X482984D03*
X484953D03*
X486921D03*
X488890D03*
X490858D03*
X492827D03*
X494795D03*
X496764Y185638D03*
Y220362D03*
G54D102*
X409920Y269500D03*
X426080D03*
G54D111*
X437000Y264823D03*
X442000D03*
X447000D03*
X437000Y280177D03*
X442000D03*
X447000D03*
X452000Y264823D03*
X457000D03*
X452000Y280177D03*
X457000D03*
G54D121*
X482000Y203000D03*
G54D130*
X552268Y142627D03*
X596166D03*
G54D103*
X429500Y218700D03*
Y222300D03*
X463500Y44700D03*
Y48300D03*
X458000Y175300D03*
Y171700D03*
X461700Y175300D03*
Y171700D03*
X479500Y64800D03*
Y61200D03*
X490500Y162700D03*
Y166300D03*
X486000Y162700D03*
Y166300D03*
X495000Y162700D03*
Y166300D03*
X503000Y41700D03*
Y45300D03*
X499500Y162700D03*
Y166300D03*
G54D112*
X456450Y34000D03*
X462550D03*
X452450Y50100D03*
X458550D03*
X456450Y39500D03*
X462550D03*
G54D10*
X27200Y19300D03*
X81500Y271500D03*
X188100Y246300D03*
X357500Y165000D03*
X551500Y240500D03*
G54D131*
X575201Y154635D03*
X573233D03*
X571264D03*
X569296D03*
X567327D03*
X565359D03*
X563390D03*
X561422D03*
X587012D03*
X585044D03*
X583075D03*
X581107D03*
X579138D03*
X577170D03*
G54D122*
X472827Y233500D03*
X476173D03*
X484673D03*
X481327D03*
X518827Y192000D03*
X522173D03*
X518827Y200000D03*
X522173D03*
G54D20*
X41680Y35503D03*
X52680Y35439D03*
G54D104*
X449538Y107624D03*
X454460Y107620D03*
G54D11*
X33300Y27047D03*
Y32953D03*
X73953Y87500D03*
X68047D03*
X81047Y105500D03*
X86953D03*
X97547Y163500D03*
X111000Y143047D03*
Y148953D03*
X103453Y163500D03*
X185453Y84500D03*
X179547D03*
X227200Y159853D03*
Y153947D03*
X257847Y84900D03*
X263753D03*
X286953Y250500D03*
X281047D03*
X422047Y255500D03*
X427953D03*
X502500Y110547D03*
Y116453D03*
G54D113*
X456778Y141063D03*
Y143032D03*
X460222D03*
Y141063D03*
X456778Y145000D03*
Y146968D03*
Y148937D03*
X460222D03*
Y146968D03*
X456778Y157563D03*
Y159532D03*
X460222D03*
Y157563D03*
X456778Y161500D03*
Y163468D03*
Y165437D03*
X460222D03*
Y163468D03*
G54D132*
G01X41435Y11341D02*
X-16000D01*
G01X-26417Y97705D02*
X-27666Y98635D01*
X-28292Y99720D01*
X-28500Y100960D01*
X-28083Y102510D01*
X-27042Y103595D01*
X-25792Y103905D01*
X-24541Y103750D01*
X-23500Y103130D01*
X-21417Y100030D01*
X-19958Y98635D01*
X-17875Y97705D01*
X-16000Y97395D01*
Y103905D01*
G01Y112740D02*
X-18708Y113050D01*
X-21000Y113515D01*
X-23083Y114135D01*
X-25375Y114910D01*
X-28500Y116150D01*
Y109950D01*
G01X-17875Y122040D02*
X-16833Y122970D01*
X-16208Y124055D01*
X-16000Y125450D01*
X-16417Y126845D01*
X-17250Y127930D01*
X-18708Y128705D01*
X-20375Y128860D01*
X-22042Y128550D01*
X-23083Y127775D01*
X-23917Y126690D01*
X-24125Y125605D01*
X-23917Y124520D01*
X-23083Y123125D01*
X-28500Y123590D01*
Y127775D01*
G01X-18500Y134440D02*
X-17041Y135370D01*
X-16208Y136610D01*
X-16000Y138005D01*
X-16208Y139245D01*
X-17250Y140485D01*
X-18500Y141260D01*
X-19750Y141415D01*
X-21208Y141105D01*
X-22250Y140020D01*
X-22667Y138935D01*
Y137540D01*
G01Y138935D02*
X-23292Y139865D01*
X-24333Y140640D01*
X-25583Y140950D01*
X-26833Y140640D01*
X-27875Y139865D01*
X-28500Y138470D01*
X-28292Y137075D01*
X-27458Y135680D01*
G01X-15583Y150250D02*
X-15792Y149940D01*
X-16208D01*
X-16417Y150250D01*
X-16208Y150560D01*
X-15792D01*
X-15583Y150250D01*
G01X-26417Y159705D02*
X-27666Y160635D01*
X-28292Y161720D01*
X-28500Y162960D01*
X-28083Y164510D01*
X-27042Y165595D01*
X-25792Y165905D01*
X-24541Y165750D01*
X-23500Y165130D01*
X-21417Y162030D01*
X-19958Y160635D01*
X-17875Y159705D01*
X-16000Y159395D01*
Y165905D01*
G01X-28500Y175050D02*
X-28083Y173810D01*
X-27042Y172880D01*
X-25792Y172260D01*
X-24125Y171795D01*
X-22250Y171640D01*
X-20375Y171795D01*
X-18708Y172260D01*
X-17458Y172880D01*
X-16417Y173810D01*
X-16000Y175050D01*
X-16417Y176290D01*
X-17458Y177220D01*
X-18708Y177840D01*
X-20375Y178305D01*
X-22250Y178460D01*
X-24125Y178305D01*
X-25792Y177840D01*
X-27042Y177220D01*
X-28083Y176290D01*
X-28500Y175050D01*
G01X-21208Y205705D02*
X-22667Y206790D01*
X-23500Y207720D01*
X-23917Y208960D01*
X-23500Y210045D01*
X-22667Y210820D01*
X-21417Y211440D01*
X-19958Y211595D01*
X-18708Y211440D01*
X-17458Y210820D01*
X-16417Y209890D01*
X-16000Y208805D01*
X-16417Y207565D01*
X-17666Y206480D01*
X-19542Y205860D01*
X-21625Y205705D01*
X-24333Y206015D01*
X-25792Y206480D01*
X-27250Y207255D01*
X-28292Y208340D01*
X-28500Y209425D01*
X-28083Y210510D01*
X-27042Y211285D01*
G01X-17458Y218415D02*
X-16417Y219500D01*
X-16000Y220740D01*
X-16417Y221980D01*
X-17666Y223065D01*
X-19542Y223840D01*
X-21417Y224150D01*
X-23708D01*
X-25583Y223840D01*
X-27250Y223065D01*
X-28083Y222135D01*
X-28500Y221050D01*
X-28083Y219810D01*
X-27250Y218880D01*
X-26000Y218260D01*
X-24333Y217950D01*
X-22875Y218260D01*
X-21417Y219035D01*
X-20583Y219965D01*
X-20375Y221050D01*
X-20791Y222290D01*
X-21833Y223220D01*
X-23708Y224150D01*
G01X-15583Y233450D02*
X-15792Y233140D01*
X-16208D01*
X-16417Y233450D01*
X-16208Y233760D01*
X-15792D01*
X-15583Y233450D01*
G01X-17458Y243215D02*
X-16417Y244300D01*
X-16000Y245540D01*
X-16417Y246780D01*
X-17666Y247865D01*
X-19542Y248640D01*
X-21417Y248950D01*
X-23708D01*
X-25583Y248640D01*
X-27250Y247865D01*
X-28083Y246935D01*
X-28500Y245850D01*
X-28083Y244610D01*
X-27250Y243680D01*
X-26000Y243060D01*
X-24333Y242750D01*
X-22875Y243060D01*
X-21417Y243835D01*
X-20583Y244765D01*
X-20375Y245850D01*
X-20791Y247090D01*
X-21833Y248020D01*
X-23708Y248950D01*
G01X-18500Y254840D02*
X-17041Y255770D01*
X-16208Y257010D01*
X-16000Y258405D01*
X-16208Y259645D01*
X-17250Y260885D01*
X-18500Y261660D01*
X-19750Y261815D01*
X-21208Y261505D01*
X-22250Y260420D01*
X-22667Y259335D01*
Y257940D01*
G01Y259335D02*
X-23292Y260265D01*
X-24333Y261040D01*
X-25583Y261350D01*
X-26833Y261040D01*
X-27875Y260265D01*
X-28500Y258870D01*
X-28292Y257475D01*
X-27458Y256080D01*
G01X-15750Y199600D02*
Y194950D01*
X-28250D01*
Y199600D01*
G01X-15750Y267800D02*
Y272450D01*
X-28250D01*
Y267800D01*
G01X54558Y286661D02*
X-16000D01*
G01X-6000Y136375D02*
Y11341D01*
G01X-8500Y26341D02*
X-6000Y11341D01*
X-3500Y26341D01*
X-8500D01*
G01X-6000Y167625D02*
Y286661D01*
G01X-3500Y271661D02*
X-6000Y286661D01*
X-8500Y271661D01*
X-3500D01*
G01X13004Y172606D02*
G03X21617Y14692I835938J-33598D01*
G01X12350Y169400D02*
Y134550D01*
G01Y149400D02*
Y315100D01*
G01X13004Y251228D02*
Y172606D01*
G01X40563Y251228D02*
X13004D01*
G01X190675Y305100D02*
X12350D01*
G01X27350Y307600D02*
X12350Y305100D01*
X27350Y302600D01*
Y307600D01*
G01X25510Y11341D02*
X51441D01*
G01X21617Y14692D02*
G03X25510Y11340I3894J585D01*
G01X40563Y251228D02*
G03X60248Y270913I0J19685D01*
G01X84832Y13482D02*
G03X51441Y11341I-16713J-790D01*
G01X60248Y270913D02*
Y282724D01*
G01X64185Y286661D02*
X505130D01*
G01X64185D02*
G03X60248Y282724I0J-3937D01*
G01X84830Y13482D02*
X84796Y11341D01*
G01D02*
X195797D01*
G01X209851Y29217D02*
G03X195797Y11341I2624J-16525D01*
G01X201290Y300725D02*
X202220Y299683D01*
X203305Y299058D01*
X204700Y298850D01*
X206095Y299267D01*
X207180Y300100D01*
X207955Y301558D01*
X208110Y303225D01*
X207800Y304892D01*
X207025Y305933D01*
X205940Y306767D01*
X204855Y306975D01*
X203770Y306767D01*
X202375Y305933D01*
X202840Y311350D01*
X207025D01*
G01X214465Y300308D02*
X215550Y299267D01*
X216790Y298850D01*
X218030Y299267D01*
X219115Y300516D01*
X219890Y302392D01*
X220200Y304267D01*
Y306558D01*
X219890Y308433D01*
X219115Y310100D01*
X218185Y310933D01*
X217100Y311350D01*
X215860Y310933D01*
X214930Y310100D01*
X214310Y308850D01*
X214000Y307183D01*
X214310Y305725D01*
X215085Y304267D01*
X216015Y303433D01*
X217100Y303225D01*
X218340Y303641D01*
X219270Y304683D01*
X220200Y306558D01*
G01X226555Y309267D02*
X227485Y310516D01*
X228570Y311142D01*
X229810Y311350D01*
X231360Y310933D01*
X232445Y309892D01*
X232755Y308642D01*
X232600Y307391D01*
X231980Y306350D01*
X228880Y304267D01*
X227485Y302808D01*
X226555Y300725D01*
X226245Y298850D01*
X232755D01*
G01X243760D02*
Y311350D01*
X238025Y302392D01*
X245775D01*
G01X254300Y298433D02*
X253990Y298642D01*
Y299058D01*
X254300Y299267D01*
X254610Y299058D01*
Y298642D01*
X254300Y298433D01*
G01X263755Y304058D02*
X264840Y305517D01*
X265770Y306350D01*
X267010Y306767D01*
X268095Y306350D01*
X268870Y305517D01*
X269490Y304267D01*
X269645Y302808D01*
X269490Y301558D01*
X268870Y300308D01*
X267940Y299267D01*
X266855Y298850D01*
X265615Y299267D01*
X264530Y300516D01*
X263910Y302392D01*
X263755Y304475D01*
X264065Y307183D01*
X264530Y308642D01*
X265305Y310100D01*
X266390Y311142D01*
X267475Y311350D01*
X268560Y310933D01*
X269335Y309892D01*
G01X276155Y309267D02*
X277085Y310516D01*
X278170Y311142D01*
X279410Y311350D01*
X280960Y310933D01*
X282045Y309892D01*
X282355Y308642D01*
X282200Y307391D01*
X281580Y306350D01*
X278480Y304267D01*
X277085Y302808D01*
X276155Y300725D01*
X275845Y298850D01*
X282355D01*
G01X209851Y42837D02*
Y29217D01*
G01X359457Y42837D02*
X209851D01*
G01X304100Y298850D02*
X299450D01*
Y311350D01*
X304100D01*
G01X313400Y298850D02*
Y311350D01*
X311540Y308850D01*
G01Y298850D02*
X315260D01*
G01X322390Y300725D02*
X323320Y299683D01*
X324405Y299058D01*
X325800Y298850D01*
X327195Y299267D01*
X328280Y300100D01*
X329055Y301558D01*
X329210Y303225D01*
X328900Y304892D01*
X328125Y305933D01*
X327040Y306767D01*
X325955Y306975D01*
X324870Y306767D01*
X323475Y305933D01*
X323940Y311350D01*
X328125D01*
G01X338200D02*
X336960Y310933D01*
X336030Y309892D01*
X335410Y308642D01*
X334945Y306975D01*
X334790Y305100D01*
X334945Y303225D01*
X335410Y301558D01*
X336030Y300308D01*
X336960Y299267D01*
X338200Y298850D01*
X339440Y299267D01*
X340370Y300308D01*
X340990Y301558D01*
X341455Y303225D01*
X341610Y305100D01*
X341455Y306975D01*
X340990Y308642D01*
X340370Y309892D01*
X339440Y310933D01*
X338200Y311350D01*
G01X350600Y298433D02*
X350290Y298642D01*
Y299058D01*
X350600Y299267D01*
X350910Y299058D01*
Y298642D01*
X350600Y298433D01*
G01X364860Y298850D02*
Y311350D01*
X359125Y302392D01*
X366875D01*
G01X372765Y300308D02*
X373850Y299267D01*
X375090Y298850D01*
X376330Y299267D01*
X377415Y300516D01*
X378190Y302392D01*
X378500Y304267D01*
Y306558D01*
X378190Y308433D01*
X377415Y310100D01*
X376485Y310933D01*
X375400Y311350D01*
X374160Y310933D01*
X373230Y310100D01*
X372610Y308850D01*
X372300Y307183D01*
X372610Y305725D01*
X373385Y304267D01*
X374315Y303433D01*
X375400Y303225D01*
X376640Y303641D01*
X377570Y304683D01*
X378500Y306558D01*
G01X373510Y11340D02*
G03X359457Y29217I-16678J1352D01*
G01D02*
Y42837D01*
G01X373510Y11340D02*
X484512D01*
G01X384700Y298850D02*
X389350D01*
Y311350D01*
X384700D01*
G01X398725Y305100D02*
X604812D01*
G01X517903Y13481D02*
G03X484512Y11340I-16714J-789D01*
G01X509067Y270913D02*
G03X528752Y251228I19685J0D01*
G01X509067Y282724D02*
Y270913D01*
G01Y282724D02*
G03X505130Y286661I-3937J0D01*
G01X517867Y11340D02*
X536702D01*
G01X517901Y13481D02*
X517867Y11340D01*
G01X536702D02*
Y72364D01*
G01D02*
X581190D01*
G01X562214Y251228D02*
X528752D01*
G01X604812Y164803D02*
X562214D01*
G01D02*
Y251228D01*
G01X581190Y125514D02*
Y72364D01*
G01X604812Y125514D02*
X581190D01*
G01X589812Y302600D02*
X604812Y305100D01*
X589812Y307600D01*
Y302600D01*
G01X604812Y125514D02*
Y164803D01*
G01Y174803D02*
Y315100D01*
G54D12*
X36983Y55256D03*
X52983Y55214D03*
G54D114*
X458500Y145000D03*
Y161500D03*
G54D30*
X65122Y51973D03*
X67090Y51968D03*
X69058Y51962D03*
X71026Y51957D03*
G54D123*
X471500Y269000D03*
X495500D03*
G54D105*
X441780Y181240D03*
G54D21*
X51499Y55218D03*
X38467Y55252D03*
G54D13*
X26619Y62783D03*
Y74983D03*
X117852Y105100D03*
Y117300D03*
X177900Y97468D03*
Y109668D03*
X196500Y105100D03*
Y117300D03*
X256548Y97468D03*
Y109668D03*
X275200Y105100D03*
Y117300D03*
X335248Y97468D03*
Y109668D03*
X460500Y118400D03*
Y130600D03*
X479500Y111400D03*
Y123600D03*
X490000Y111400D03*
Y123600D03*
G54D124*
X471500Y262300D03*
Y275700D03*
X495500Y262300D03*
Y275700D03*
G54D40*
X71550Y147000D03*
X84450D03*
G54D115*
X464638Y188236D03*
Y190205D03*
Y192173D03*
Y194142D03*
Y196110D03*
Y198079D03*
Y200047D03*
Y202016D03*
Y203984D03*
Y205953D03*
Y207921D03*
Y209890D03*
Y211858D03*
Y213827D03*
Y215795D03*
Y217764D03*
X499362Y192173D03*
Y190205D03*
Y188236D03*
Y207921D03*
Y205953D03*
Y203984D03*
Y202016D03*
Y200047D03*
Y198079D03*
Y196110D03*
Y194142D03*
Y217764D03*
Y215795D03*
Y213827D03*
Y211858D03*
Y209890D03*
G54D31*
X68089Y57774D03*
G54D106*
X441780Y191240D03*
G54D22*
X50722Y70583D03*
X48859Y125850D03*
Y129550D03*
X43500D03*
Y125850D03*
X38400Y125950D03*
Y129650D03*
X43600Y133850D03*
Y137550D03*
X50650Y193000D03*
Y197000D03*
X54422Y70583D03*
X65500Y118350D03*
Y114650D03*
X59600Y129450D03*
Y125750D03*
X56400Y116450D03*
Y120150D03*
X51400D03*
Y116450D03*
X53900Y125950D03*
Y129650D03*
X59500Y134150D03*
Y137850D03*
X54700Y138350D03*
Y134650D03*
X65000Y158350D03*
Y154650D03*
X54350Y193000D03*
Y197000D03*
X68353Y41921D03*
Y45621D03*
X81155Y45208D03*
X77455D03*
X72802Y45602D03*
Y41902D03*
X68077Y70692D03*
Y74392D03*
X75000Y102350D03*
Y98650D03*
X72150Y218000D03*
X75850D03*
X72150Y222000D03*
X75850D03*
X72150Y238000D03*
X75850D03*
X72150Y226000D03*
X75850D03*
X72150Y230000D03*
X75850D03*
X72150Y234000D03*
X75850D03*
X72150Y246000D03*
X75850D03*
X75650Y250000D03*
X79350D03*
X75650Y254000D03*
X79350D03*
X72150Y242000D03*
X75850D03*
X68500Y270850D03*
Y267150D03*
Y278650D03*
Y274950D03*
X96000Y133650D03*
Y137350D03*
X97500Y154650D03*
Y158350D03*
X86900Y200450D03*
Y196750D03*
X91400D03*
Y200450D03*
X95900Y196750D03*
Y200450D03*
X85800Y210250D03*
Y213950D03*
X94433Y213952D03*
Y210252D03*
X90133D03*
Y213952D03*
X97650Y268900D03*
X97500Y265750D03*
Y262050D03*
X91452Y260633D03*
X87752D03*
X90150Y268900D03*
X93850D03*
X106650Y65500D03*
X110350D03*
X105350Y61500D03*
X101650D03*
X108500Y127850D03*
Y124150D03*
X101000Y133650D03*
Y137350D03*
X111000Y135150D03*
Y138850D03*
X106000Y143650D03*
X108000Y160150D03*
X107150Y155000D03*
X110850D03*
X103500Y154650D03*
Y158350D03*
X106000Y147350D03*
X108000Y163850D03*
X103750Y203100D03*
X107450D03*
Y199100D03*
X103750D03*
X113900Y200450D03*
Y196750D03*
X103533Y210252D03*
Y213952D03*
X99033Y210252D03*
Y213952D03*
X108633D03*
Y210252D03*
X113500Y210050D03*
Y213750D03*
X101350Y268900D03*
X101500Y265750D03*
Y262050D03*
X108850Y268900D03*
X105150D03*
X123750Y130500D03*
X120050D03*
X117500Y150050D03*
Y153750D03*
X122500D03*
Y150050D03*
X118700Y200550D03*
Y196850D03*
X125800Y197050D03*
Y200750D03*
X118615Y214652D03*
Y218352D03*
X126982Y214931D03*
X123282D03*
X121950Y209900D03*
X118250D03*
X144650Y82500D03*
X141950Y112968D03*
X145650D03*
X141950Y116968D03*
X145650D03*
X141050Y135400D03*
X144750D03*
X131550Y161400D03*
X135250D03*
X148350Y82500D03*
X160352Y84350D03*
Y88050D03*
X152502Y87700D03*
X156202D03*
X159300Y113118D03*
X150300Y112618D03*
X154800Y113118D03*
X159300Y116818D03*
X150300Y116318D03*
X154800Y116818D03*
X149550Y135400D03*
X153250D03*
X150400Y140050D03*
Y143750D03*
X155900Y140050D03*
Y143750D03*
X161400D03*
Y140050D03*
X150400Y149050D03*
Y152750D03*
Y157550D03*
Y161250D03*
X155900Y149050D03*
Y152750D03*
X151247Y242252D03*
X154947D03*
X174150Y87968D03*
X170450D03*
X165302Y87944D03*
Y84244D03*
X168300Y113118D03*
X170700Y97918D03*
Y101618D03*
X163800Y113118D03*
X168300Y116818D03*
X163800D03*
X208200Y128750D03*
Y132450D03*
X220598Y112968D03*
X224298D03*
X220598Y116968D03*
X224298D03*
X223900Y136050D03*
Y132350D03*
X230150Y83300D03*
X233850D03*
X238500Y84150D03*
Y87850D03*
X230150Y87700D03*
X233850D03*
X237948Y113118D03*
X228948Y112618D03*
X233448Y113118D03*
X237948Y116818D03*
X228948Y116318D03*
X233448Y116818D03*
X232500Y149650D03*
Y153350D03*
X238850Y158500D03*
X235150D03*
X252798Y87968D03*
X249098D03*
X249150Y83800D03*
X252850D03*
X243950Y87944D03*
Y84244D03*
X247000Y113150D03*
X242500D03*
X249348Y97918D03*
Y101618D03*
X247000Y116850D03*
X242500D03*
X267000Y159850D03*
Y156150D03*
X299298Y112968D03*
X302998D03*
X299298Y116968D03*
X302998D03*
X291000Y239650D03*
Y243350D03*
X317700Y84350D03*
Y88050D03*
X309850Y87700D03*
X313550D03*
X316648Y113118D03*
X307648Y112618D03*
X312148Y113118D03*
X321500Y113150D03*
X316648Y116818D03*
X307648Y116318D03*
X312148Y116818D03*
X321500Y116850D03*
X331498Y87968D03*
X327798D03*
X322650Y87944D03*
Y84244D03*
X326000Y113150D03*
X328048Y97918D03*
Y101618D03*
X326000Y116850D03*
X332350Y242200D03*
X336050D03*
X350850Y115000D03*
X347150D03*
X352500Y209650D03*
Y213350D03*
X355650Y114900D03*
X359350D03*
X366650Y212000D03*
X367350Y225500D03*
X363650D03*
X359350Y243000D03*
X355650D03*
X382150Y103700D03*
X378450D03*
X373900Y112650D03*
X373800Y104250D03*
Y107950D03*
X373900Y116350D03*
X377350Y208000D03*
X373650D03*
X377350Y203000D03*
X373650D03*
X370350Y212000D03*
X373650D03*
X377350D03*
X374850Y225500D03*
X371150D03*
X399000Y106350D03*
Y102650D03*
Y194650D03*
Y198350D03*
X387000D03*
Y194650D03*
X393000Y198350D03*
Y194650D03*
X395850Y248200D03*
X399550D03*
X392350Y248000D03*
X388650D03*
X414138Y121578D03*
X410438D03*
X413828Y116919D03*
X417528D03*
X409443Y117061D03*
X405743D03*
X412649Y182535D03*
Y178835D03*
X416891Y182535D03*
Y178835D03*
X404000Y182350D03*
Y178650D03*
X408406Y182535D03*
Y178835D03*
X416000Y194650D03*
Y198350D03*
X411000Y194650D03*
Y198350D03*
X403650Y251500D03*
X407350D03*
X415000Y250850D03*
Y247150D03*
X406350Y256000D03*
X402650D03*
X411150D03*
X414850D03*
X422500Y102650D03*
Y106350D03*
X422659Y113935D03*
Y117635D03*
X426902Y113935D03*
Y117635D03*
X422902Y174239D03*
X427290Y174250D03*
X422902Y177939D03*
X430750Y182010D03*
X431240Y191300D03*
X427290Y177950D03*
X425400Y225250D03*
Y228950D03*
X425000Y240650D03*
Y236950D03*
X431150Y239500D03*
X419500Y250850D03*
Y247150D03*
X425000Y247350D03*
Y251050D03*
X434650Y105000D03*
X438350D03*
X447186Y123963D03*
X443486D03*
X447186Y128913D03*
X443486D03*
Y133863D03*
X447186D03*
X434650Y174000D03*
X438350D03*
X434450Y182010D03*
X434940Y191300D03*
X446500Y215350D03*
Y211650D03*
X441500D03*
Y215350D03*
X442350Y239500D03*
X438650D03*
X446150D03*
X434850D03*
X456350Y198500D03*
X452650D03*
X456350Y202500D03*
X452650D03*
X451500Y215350D03*
Y211650D03*
X459500Y228650D03*
Y232350D03*
X463500Y228650D03*
Y232350D03*
X449850Y239500D03*
X467000Y113350D03*
Y109650D03*
X472000D03*
Y113350D03*
X480850Y130500D03*
X477150D03*
X471500Y174850D03*
Y171150D03*
X475500Y174850D03*
Y171150D03*
X465500Y177150D03*
Y180850D03*
X491850Y130500D03*
X488150D03*
X481500Y172650D03*
Y176350D03*
X490500Y172650D03*
Y176350D03*
X486000Y172650D03*
Y176350D03*
X495000Y172650D03*
Y176350D03*
X494000Y226650D03*
Y230350D03*
X490000Y226650D03*
Y230350D03*
X493150Y237000D03*
X496850D03*
X498000Y111650D03*
Y124150D03*
Y127850D03*
Y115350D03*
X512350Y171000D03*
X508650D03*
X499000Y172650D03*
Y176350D03*
X504500Y166850D03*
Y163150D03*
X509000Y166850D03*
Y163150D03*
X508650Y175500D03*
X512350D03*
Y180000D03*
X508650D03*
X510850Y189000D03*
X507150D03*
Y184500D03*
X510850D03*
X509350Y197500D03*
X505650D03*
X509350Y193500D03*
X505650D03*
X511850Y205500D03*
X508150D03*
X511850Y201500D03*
X508150D03*
X506000Y215850D03*
Y212150D03*
X503500Y219150D03*
Y222850D03*
X504350Y237000D03*
X500650D03*
X517500Y182150D03*
Y185850D03*
G54D107*
X449200Y180000D03*
Y185500D03*
X455700Y44000D03*
X459300D03*
X461700Y54500D03*
X465300D03*
Y58500D03*
X461700D03*
X452800Y180000D03*
Y185500D03*
X456200Y180000D03*
X459800D03*
X456200Y185500D03*
X459800D03*
X480200Y68500D03*
X476600D03*
G54D14*
X35683Y78877D03*
Y71577D03*
X42735Y78792D03*
Y71492D03*
X71500Y155850D03*
Y163150D03*
X77500Y209150D03*
Y201850D03*
X94900Y189250D03*
Y181950D03*
X126900Y113918D03*
Y121218D03*
X133952Y113851D03*
Y121151D03*
X205548Y113918D03*
Y121218D03*
X212600Y113851D03*
Y121151D03*
X284248Y113918D03*
Y121218D03*
X291300Y113851D03*
Y121151D03*
G54D50*
X95169Y274750D03*
Y281050D03*
X103831Y274750D03*
Y281050D03*
G54D116*
X462157Y244000D03*
X476921D03*
X471999D03*
X467078D03*
X481842D03*
G54D125*
X485000Y42000D03*
G54D32*
X65152Y63591D03*
X71056Y63575D03*
X69088Y63580D03*
X67120Y63586D03*
G54D23*
X50731Y74588D03*
X60407Y45292D03*
X64107Y45282D03*
X59005Y74350D03*
X58995Y70650D03*
X54431Y74578D03*
X63581Y74404D03*
X63571Y70704D03*
X79432Y55461D03*
X79442Y59161D03*
X76995Y70650D03*
X77005Y74350D03*
X72495Y70650D03*
X72505Y74350D03*
G54D41*
X97207Y65550D03*
X97199Y61850D03*
G54D117*
X473681Y34500D03*
Y39500D03*
Y44500D03*
Y49500D03*
X496319D03*
Y44500D03*
Y39500D03*
Y34500D03*
G54D108*
X447353Y221458D03*
X445384D03*
X443416D03*
X441447D03*
X439479D03*
X437510D03*
X435542D03*
Y233742D03*
X437510D03*
X439479D03*
X441447D03*
X443416D03*
X445384D03*
X447353D03*
X453258Y221458D03*
X451290D03*
X449321D03*
Y233742D03*
X451290D03*
X453258D03*
G54D15*
X25900Y95950D03*
Y109650D03*
G54D126*
X493800Y242950D03*
Y252050D03*
X501200D03*
Y242950D03*
G54D60*
X132052Y144544D03*
Y146513D03*
Y148481D03*
Y150449D03*
Y152418D03*
G54D51*
X108396Y79728D03*
X108399Y75988D03*
X108402Y72248D03*
X118796Y79736D03*
X118802Y72256D03*
G54D24*
X38802Y95000D03*
X51598D03*
G54D33*
X62288Y60741D03*
X62283Y58773D03*
X62277Y56805D03*
X62272Y54837D03*
G54D42*
X86631Y54993D03*
X86663Y67193D03*
G54D61*
X143666Y144544D03*
Y152418D03*
Y150449D03*
Y148481D03*
Y146513D03*
G54D43*
X97848Y77259D03*
X97840Y70759D03*
G54D118*
X471000Y65950D03*
Y58050D03*
G54D109*
X435542Y224647D03*
Y226616D03*
Y228584D03*
Y230553D03*
X453258Y224647D03*
Y230553D03*
Y228584D03*
Y226616D03*
G54D25*
X40941Y112166D03*
X43500D03*
X46059D03*
Y120434D03*
X43500D03*
X40941D03*
G54D34*
X62478Y96509D03*
Y101627D03*
Y99068D03*
X69958Y96509D03*
Y101627D03*
Y99068D03*
X95760Y128559D03*
Y126000D03*
Y123441D03*
X103240Y128559D03*
Y126000D03*
Y123441D03*
G54D70*
X209016Y255728D03*
Y259272D03*
X220016Y255728D03*
X221984D03*
X210984D03*
X221984Y259272D03*
X220016D03*
X210984D03*
X231016Y255728D03*
X232984D03*
Y259272D03*
X231016D03*
X252516Y255728D03*
X254484D03*
X242016D03*
X243984D03*
X254484Y259272D03*
X252516D03*
X243984D03*
X242016D03*
X264516Y255728D03*
X266484D03*
Y259272D03*
X264516D03*
X396484Y117772D03*
X394516D03*
Y114228D03*
X396484D03*
X394694Y178913D03*
X396662D03*
Y182457D03*
X394694D03*
X436524Y117804D03*
X434556D03*
Y114260D03*
X436524D03*
G54D127*
X508500Y97000D03*
X518000Y99500D03*
X517000Y110500D03*
X546000Y115000D03*
X536000D03*
X546000Y105500D03*
X533500Y163000D03*
G54D16*
X28000Y89000D03*
X48000Y23500D03*
X49000Y136000D03*
X50500Y189500D03*
Y200500D03*
X60500Y41500D03*
X65500Y111000D03*
X64500Y143500D03*
X66000Y163500D03*
X78500Y101500D03*
X93000Y156000D03*
X96500Y173500D03*
X88000Y277000D03*
X109000Y62000D03*
X114500Y130000D03*
X108500Y131500D03*
X114000Y158500D03*
X113000Y173500D03*
X111500Y163500D03*
X111000Y204000D03*
X111500Y283000D03*
X126000Y149500D03*
X118500Y206000D03*
X122500Y197000D03*
X128500Y205500D03*
X128000Y211000D03*
X140500Y167500D03*
X158400Y242252D03*
X191700Y224568D03*
X213000Y249500D03*
X234000Y79500D03*
X237500Y149000D03*
X236000Y154000D03*
X249000Y80000D03*
X258000Y249500D03*
X246506Y250000D03*
X263000Y159500D03*
X273000Y157000D03*
X264500Y249500D03*
X295000Y240000D03*
X314000Y84000D03*
X308500Y83500D03*
X329000Y242000D03*
X351000Y119000D03*
X352500Y217500D03*
X339500Y242000D03*
X356000Y213000D03*
X363500Y241500D03*
X374000Y101000D03*
X387000Y88500D03*
X395000Y104000D03*
X400000Y251500D03*
X407000Y97000D03*
X402800Y196500D03*
X410000Y280000D03*
X426500Y102500D03*
X431000Y174500D03*
X433500Y187500D03*
X420500Y195500D03*
X426000Y232200D03*
X425000Y244000D03*
X429000Y248500D03*
X422000Y259500D03*
X426000Y280000D03*
X438500Y101000D03*
Y170000D03*
X435000Y178000D03*
X465000Y173500D03*
X451500Y248500D03*
X467000Y45000D03*
Y34500D03*
Y39500D03*
Y50500D03*
X492000Y134500D03*
X493500Y169400D03*
X482500Y166000D03*
X489000Y179700D03*
X503000Y48500D03*
Y38000D03*
X501500Y124000D03*
X504400Y171500D03*
X503500Y185000D03*
X498500Y179600D03*
X511500Y218000D03*
X500000Y231500D03*
Y226000D03*
X521500Y182000D03*
G54D52*
X100600Y173600D03*
X109200D03*
G54D44*
X94154Y116500D03*
X100846D03*
X125554Y174400D03*
X132246D03*
G54D71*
X206506Y255728D03*
Y259272D03*
X217506Y255728D03*
X224494D03*
X213494D03*
X224494Y259272D03*
X217506D03*
X213494D03*
X239506Y255728D03*
X228506D03*
X235494D03*
X239506Y259272D03*
X235494D03*
X228506D03*
X250006Y255728D03*
X256994D03*
X246494D03*
X256994Y259272D03*
X250006D03*
X246494D03*
X262006Y255728D03*
X268994D03*
Y259272D03*
X262006D03*
X398994Y117772D03*
X392006D03*
Y114228D03*
X398994D03*
X392184Y178913D03*
X399172D03*
Y182457D03*
X392184D03*
X432046Y117804D03*
Y114260D03*
X439034Y117804D03*
Y114260D03*
G54D17*
X31737Y119100D03*
X23863D03*
X31737Y127600D03*
X23863D03*
G54D26*
X43500Y116300D03*
G54D35*
X51050Y111100D03*
X57550D03*
X59350Y144800D03*
X52850D03*
X81750Y138500D03*
X94750Y109000D03*
X88250Y138500D03*
X101250Y109000D03*
X129150Y135400D03*
X135650D03*
X457750Y191000D03*
X451250D03*
X520750Y165000D03*
X514250D03*
G54D80*
X359163Y86239D03*
Y88839D03*
Y91439D03*
Y94039D03*
X368237Y94061D03*
Y91461D03*
Y88861D03*
Y86261D03*
G54D53*
X100963Y182694D03*
X102932D03*
X104900D03*
X106868D03*
X108837D03*
Y194506D03*
X106868D03*
X104900D03*
X102932D03*
X100963D03*
G54D128*
X505039Y194417D03*
Y196583D03*
X509961Y194417D03*
Y196583D03*
G54D62*
X156400Y94391D03*
X158368D03*
X160336D03*
X162304D03*
X235048D03*
X237016D03*
X238984D03*
X240952D03*
X313748D03*
X315716D03*
X317684D03*
X319652D03*
G54D119*
X469999Y122654D03*
X470001Y129346D03*
G54D90*
X377087Y90161D03*
G54D18*
X27722Y146069D03*
Y229931D03*
G54D27*
X49000Y152654D03*
Y159346D03*
X58000Y152654D03*
Y159346D03*
X78900Y182754D03*
Y189446D03*
X132400Y190146D03*
Y183454D03*
G54D72*
X223630Y69705D03*
X345678D03*
G54D36*
X66760Y126300D03*
Y136700D03*
X74240Y126300D03*
Y136700D03*
X70500D03*
G54D45*
X96441Y143260D03*
Y150740D03*
X101559Y143260D03*
X99000Y150740D03*
X101559D03*
G54D81*
X368040Y103847D03*
Y105816D03*
Y107784D03*
Y109753D03*
X360560D03*
Y107784D03*
Y105816D03*
Y103847D03*
G54D129*
X519000Y37295D03*
Y61705D03*
G54D63*
X159352Y100200D03*
X238000D03*
X316700D03*
G54D54*
X104900Y188600D03*
G54D64*
X160336Y106009D03*
X158368D03*
X156400D03*
X162304D03*
X240952D03*
X238984D03*
X237016D03*
X235048D03*
X319652D03*
X317684D03*
X315716D03*
X313748D03*
G54D46*
X86900Y189037D03*
Y181163D03*
X115400Y189037D03*
Y181163D03*
X123900Y190537D03*
Y182663D03*
G54D55*
X126799Y79165D03*
Y72665D03*
X161900Y149650D03*
Y156150D03*
X167400Y143150D03*
Y136650D03*
X173900Y143150D03*
Y136650D03*
X174900Y149650D03*
Y156150D03*
X168400Y149650D03*
Y156150D03*
X218700Y144050D03*
Y137550D03*
X379707Y109275D03*
Y115775D03*
G54D73*
X218660Y132000D03*
X213540D03*
X385940Y253000D03*
X391060D03*
G54D28*
X40500Y153560D03*
Y155528D03*
Y157496D03*
Y159464D03*
Y161432D03*
Y163400D03*
Y165368D03*
Y167336D03*
Y169304D03*
Y171272D03*
Y173240D03*
Y175208D03*
Y177176D03*
Y179144D03*
Y181112D03*
Y183080D03*
Y185048D03*
Y187016D03*
Y188984D03*
Y190952D03*
Y192920D03*
Y194888D03*
Y196856D03*
Y198824D03*
Y200792D03*
Y202760D03*
Y204728D03*
Y206696D03*
Y208664D03*
Y210632D03*
Y212600D03*
Y214568D03*
Y216536D03*
Y218504D03*
Y220472D03*
Y222440D03*
G54D82*
X364300Y106800D03*
G54D37*
X73890Y54807D03*
X73895Y56775D03*
X73901Y58743D03*
X73906Y60711D03*
G54D91*
X382592Y127929D03*
Y125961D03*
X383299Y142072D03*
Y140104D03*
X382946Y156567D03*
Y154599D03*
X382592Y170356D03*
Y168388D03*
X386136Y125961D03*
Y127929D03*
X386843Y140104D03*
Y142072D03*
X386490Y154599D03*
Y156567D03*
X386136Y168388D03*
Y170356D03*
G54D19*
X34000Y240000D03*
X291300Y267600D03*
Y276500D03*
X341700Y267600D03*
Y276500D03*
X452500Y173000D03*
G54D65*
X153543Y103152D03*
Y101184D03*
Y99216D03*
Y97248D03*
X232191Y103152D03*
Y101184D03*
Y99216D03*
Y97248D03*
X310891Y103152D03*
Y101184D03*
Y99216D03*
Y97248D03*
G54D92*
X382592Y123451D03*
X383299Y144582D03*
Y137594D03*
X382592Y130439D03*
X382946Y159077D03*
Y152089D03*
X382592Y172866D03*
Y165878D03*
X386136Y123451D03*
X386843Y137594D03*
Y144582D03*
X386136Y130439D03*
X386490Y152089D03*
Y159077D03*
X386136Y165878D03*
Y172866D03*
G54D29*
X50402Y239417D03*
X95677Y92554D03*
X272500Y274100D03*
X473630Y92554D03*
X518906Y239417D03*
G54D47*
X96451Y224384D03*
X94877D03*
X93303D03*
Y255584D03*
X96451D03*
X94877D03*
X110617Y224384D03*
X112191D03*
X107469D03*
X109043D03*
X105895D03*
X104321D03*
X102747D03*
X101173D03*
X99599D03*
X98025D03*
Y255584D03*
X101173D03*
X99599D03*
X104321D03*
X102747D03*
X105895D03*
X107469D03*
X109043D03*
X110617D03*
X112191D03*
X118487Y224384D03*
X113765D03*
X115339D03*
X116913D03*
X113765Y255584D03*
X115339D03*
X116913D03*
X118487D03*
G54D83*
X364000Y219000D03*
X370500Y242500D03*
X377000D03*
X429000Y208000D03*
Y214000D03*
X435000Y208000D03*
Y214000D03*
G54D74*
X213426Y175182D03*
X216576D03*
X219726D03*
X222876D03*
X213426Y172032D03*
X216576D03*
X219726D03*
X222876D03*
X213426Y190932D03*
X216576D03*
X219726D03*
X222876D03*
X213426Y187782D03*
X216576D03*
X219726D03*
X222876D03*
X213426Y184632D03*
X216576D03*
X219726D03*
X222876D03*
X213426Y181482D03*
X216576D03*
X219726D03*
X222876D03*
X213426Y178332D03*
X216576D03*
X219726D03*
X222876D03*
X213426Y206672D03*
X216576D03*
X219726D03*
X222876D03*
X213426Y203532D03*
X216576D03*
X219726D03*
X222876D03*
X213426Y200382D03*
X216576D03*
X219726D03*
X222876D03*
X213426Y197232D03*
X216576D03*
X219726D03*
X222876D03*
X213426Y194082D03*
X216576D03*
X219726D03*
X222876D03*
X213426Y222422D03*
X216576D03*
X219726D03*
X222876D03*
X213426Y219272D03*
X216576D03*
X219726D03*
X222876D03*
X213426Y216122D03*
X216576D03*
X219726D03*
X222876D03*
X213426Y212972D03*
X216576D03*
X219726D03*
X222876D03*
X213426Y209822D03*
X216576D03*
X219726D03*
X222876D03*
X213426Y238172D03*
X216576D03*
X219726D03*
X222876D03*
X213426Y235022D03*
X216576D03*
X219726D03*
X222876D03*
X213426Y231872D03*
X216576D03*
X219726D03*
X222876D03*
X213426Y228722D03*
X216576D03*
X219726D03*
X222876D03*
X213426Y225572D03*
X216576D03*
X219726D03*
X222876D03*
X226026Y175182D03*
X229176D03*
X232326D03*
X235476D03*
X238626D03*
X226026Y172032D03*
X229176D03*
X232326D03*
X235476D03*
X238626D03*
X226026Y190932D03*
X229176D03*
X232326D03*
X235476D03*
X238626D03*
X226026Y187782D03*
X229176D03*
X232326D03*
X235476D03*
X238626D03*
X226026Y184632D03*
X229176D03*
X232326D03*
X235476D03*
X238626D03*
X226026Y181482D03*
X229176D03*
X232326D03*
X235476D03*
X238626D03*
X226026Y178332D03*
X229176D03*
X232326D03*
X235476D03*
X238626D03*
X226026Y206672D03*
X229176D03*
X232326D03*
X235476D03*
X238626D03*
X226026Y203532D03*
X229176D03*
X232326D03*
X235476D03*
X238626D03*
X226026Y200382D03*
X229176D03*
X232326D03*
X235476D03*
X238626D03*
X226026Y197232D03*
X229176D03*
X232326D03*
X235476D03*
X238626D03*
X226026Y194082D03*
X229176D03*
X232326D03*
X235476D03*
X238626D03*
X226026Y222422D03*
X229176D03*
X232326D03*
X235476D03*
X238626D03*
X226026Y219272D03*
X229176D03*
X232326D03*
X235476D03*
X238626D03*
X226026Y216122D03*
X229176D03*
X232326D03*
X235476D03*
X238626D03*
X226026Y212972D03*
X229176D03*
X232326D03*
X235476D03*
X238626D03*
X226026Y209822D03*
X229176D03*
X232326D03*
X235476D03*
X238626D03*
X226026Y238172D03*
X229176D03*
X232326D03*
X235476D03*
X238626D03*
X226026Y235022D03*
X229176D03*
X232326D03*
X235476D03*
X238626D03*
X226026Y231872D03*
X229176D03*
X232326D03*
X235476D03*
X238626D03*
X226026Y228722D03*
X229176D03*
X232326D03*
X235476D03*
X238626D03*
X226026Y225572D03*
X229176D03*
X232326D03*
X235476D03*
X238626D03*
X241776Y175182D03*
X244926D03*
X248066D03*
X251216D03*
X254366D03*
X241776Y172032D03*
X244926D03*
X248066D03*
X251216D03*
X254366D03*
X241776Y190932D03*
X244926D03*
X248066D03*
X251216D03*
X254366D03*
X241776Y187782D03*
X244926D03*
X248066D03*
X251216D03*
X254366D03*
X241776Y184632D03*
X244926D03*
X248066D03*
X251216D03*
X254366D03*
X241776Y181482D03*
X244926D03*
X248066D03*
X251216D03*
X254366D03*
X241776Y178332D03*
X244926D03*
X248066D03*
X251216D03*
X254366D03*
X241776Y206672D03*
X244926D03*
X248066D03*
X251216D03*
X254366D03*
X241776Y203532D03*
X244926D03*
X248066D03*
X251216D03*
X254366D03*
X241776Y200382D03*
X244926D03*
X248066D03*
X251216D03*
X254366D03*
X241776Y197232D03*
X244926D03*
X248066D03*
X251216D03*
X254366D03*
X241776Y194082D03*
X244926D03*
X248066D03*
X251216D03*
X254366D03*
X241776Y222422D03*
X244926D03*
X248066D03*
X251216D03*
X254366D03*
X241776Y219272D03*
X244926D03*
X248066D03*
X251216D03*
X254366D03*
X241776Y216122D03*
X244926D03*
X248066D03*
X251216D03*
X254366D03*
X241776Y212972D03*
X244926D03*
X248066D03*
X251216D03*
X254366D03*
X241776Y209822D03*
X244926D03*
X248066D03*
X251216D03*
X254366D03*
X241776Y238172D03*
X244926D03*
X248066D03*
X251216D03*
X254366D03*
X241776Y235022D03*
X244926D03*
X248066D03*
X251216D03*
X254366D03*
X241776Y231872D03*
X244926D03*
X248066D03*
X251216D03*
X254366D03*
X241776Y228722D03*
X244926D03*
X248066D03*
X251216D03*
X254366D03*
X241776Y225572D03*
X244926D03*
X248066D03*
X251216D03*
X254366D03*
X257516Y175182D03*
X260666D03*
X263816D03*
X266966D03*
X270116D03*
X273266D03*
X257516Y172032D03*
X260666D03*
X263816D03*
X266966D03*
X270116D03*
X273266D03*
X257516Y190932D03*
X260666D03*
X263816D03*
X266966D03*
X270116D03*
X273266D03*
X257516Y187782D03*
X260666D03*
X263816D03*
X266966D03*
X270116D03*
X273266D03*
X257516Y184632D03*
X260666D03*
X263816D03*
X266966D03*
X270116D03*
X273266D03*
X257516Y181482D03*
X260666D03*
X263816D03*
X266966D03*
X270116D03*
X273266D03*
X257516Y178332D03*
X260666D03*
X263816D03*
X266966D03*
X270116D03*
X273266D03*
X257516Y206672D03*
X260666D03*
X263816D03*
X266966D03*
X270116D03*
X273266D03*
X257516Y203532D03*
X260666D03*
X263816D03*
X266966D03*
X270116D03*
X273266D03*
X257516Y200382D03*
X260666D03*
X263816D03*
X266966D03*
X270116D03*
X273266D03*
X257516Y197232D03*
X260666D03*
X263816D03*
X266966D03*
X270116D03*
X273266D03*
X257516Y194082D03*
X260666D03*
X263816D03*
X266966D03*
X270116D03*
X273266D03*
X257516Y222422D03*
X260666D03*
X263816D03*
X266966D03*
X270116D03*
X273266D03*
X257516Y219272D03*
X260666D03*
X263816D03*
X266966D03*
X270116D03*
X273266D03*
X257516Y216122D03*
X260666D03*
X263816D03*
X266966D03*
X270116D03*
X273266D03*
X257516Y212972D03*
X260666D03*
X263816D03*
X266966D03*
X270116D03*
X273266D03*
X257516Y209822D03*
X260666D03*
X263816D03*
X266966D03*
X270116D03*
X273266D03*
X257516Y238172D03*
X260666D03*
X263816D03*
X266966D03*
X270116D03*
X273266D03*
X257516Y235022D03*
X260666D03*
X263816D03*
X266966D03*
X270116D03*
X273266D03*
X257516Y231872D03*
X260666D03*
X263816D03*
X266966D03*
X270116D03*
X273266D03*
X257516Y228722D03*
X260666D03*
X263816D03*
X266966D03*
X270116D03*
X273266D03*
X257516Y225572D03*
X260666D03*
X263816D03*
X266966D03*
X270116D03*
X273266D03*
X276416Y175182D03*
X279566D03*
X276416Y172032D03*
X279566D03*
X276416Y190932D03*
X279566D03*
X276416Y187782D03*
X279566D03*
X276416Y184632D03*
X279566D03*
X276416Y181482D03*
X279566D03*
X276416Y178332D03*
X279566D03*
X276416Y206672D03*
X279566D03*
X276416Y203532D03*
X279566D03*
X276416Y200382D03*
X279566D03*
X276416Y197232D03*
X279566D03*
X276416Y194082D03*
X279566D03*
X276416Y222422D03*
X279566D03*
X276416Y219272D03*
X279566D03*
X276416Y216122D03*
X279566D03*
X276416Y212972D03*
X279566D03*
X276416Y209822D03*
X279566D03*
X276416Y238172D03*
X279566D03*
X276416Y235022D03*
X279566D03*
X276416Y231872D03*
X279566D03*
X276416Y228722D03*
X279566D03*
X276416Y225572D03*
X279566D03*
X351500Y87500D03*
X352000Y92000D03*
X349500Y90000D03*
X354000Y89500D03*
X375487Y92661D03*
Y87661D03*
X373862Y90161D03*
X377862D03*
G54D56*
X128252Y97600D03*
X144252D03*
X206900D03*
X222900D03*
X285600D03*
X301600D03*
G54D38*
X86000Y123600D03*
Y132400D03*
X83500Y156100D03*
Y164900D03*
G54D39*
X71350Y116500D03*
X78650D03*
G54D84*
X359650Y234000D03*
X373350D03*
G54D75*
X239378Y69705D03*
X235441D03*
X231504D03*
X227567D03*
X255126D03*
X251189D03*
X247252D03*
X243315D03*
X270874D03*
X266937D03*
X263000D03*
X259063D03*
X286623D03*
X282685D03*
X278748D03*
X274811D03*
X302371D03*
X298434D03*
X294497D03*
X290560D03*
X318119D03*
X314182D03*
X310245D03*
X306308D03*
X337804D03*
X333867D03*
X329930D03*
X325993D03*
X322056D03*
X341741D03*
G54D93*
X384050Y207940D03*
Y223684D03*
Y221716D03*
Y219748D03*
Y217780D03*
Y215812D03*
Y213844D03*
Y211876D03*
Y209908D03*
Y237460D03*
Y235492D03*
Y233524D03*
Y231556D03*
Y229588D03*
Y227620D03*
Y225652D03*
X419350Y207940D03*
Y209908D03*
Y211876D03*
Y213844D03*
Y215812D03*
Y217780D03*
Y219748D03*
Y221716D03*
Y223684D03*
Y225652D03*
Y227620D03*
Y229588D03*
Y231556D03*
Y233524D03*
Y235492D03*
Y237460D03*
G54D48*
X90295Y239984D03*
Y238410D03*
Y236836D03*
Y235262D03*
Y233688D03*
Y232114D03*
Y230540D03*
Y228966D03*
Y227392D03*
Y241558D03*
Y243132D03*
Y244706D03*
Y246280D03*
Y247854D03*
Y249428D03*
Y251002D03*
Y252576D03*
X121495Y239984D03*
Y238410D03*
Y236836D03*
Y235262D03*
Y233688D03*
Y232114D03*
Y230540D03*
Y228966D03*
Y227392D03*
Y252576D03*
Y247854D03*
Y249428D03*
Y251002D03*
Y244706D03*
Y246280D03*
Y241558D03*
Y243132D03*
G54D57*
X129736Y97600D03*
X142768D03*
X208384D03*
X221416D03*
X287084D03*
X300116D03*
G54D66*
X158092Y183284D03*
X154942D03*
X151793D03*
X158092Y186434D03*
X154942D03*
X151793D03*
X158092Y189583D03*
X154942D03*
X151793D03*
X158092Y192733D03*
X154942D03*
X151793D03*
X158092Y195882D03*
X154942D03*
X151793D03*
X158092Y199032D03*
X154942D03*
X151793D03*
X158092Y202182D03*
X154942D03*
X151793D03*
X158092Y205331D03*
X154942D03*
X151793D03*
X158092Y208481D03*
X154942D03*
X151793D03*
X158092Y211630D03*
X154942D03*
X151793D03*
X158092Y214780D03*
X154942D03*
X151793D03*
X158092Y217930D03*
X154942D03*
X151793D03*
X158092Y221079D03*
X154942D03*
X151793D03*
X158092Y224229D03*
X154942D03*
X151793D03*
X158092Y227378D03*
X154942D03*
X151793D03*
X158092Y230528D03*
X154942D03*
X151793D03*
X176989Y183284D03*
X173840D03*
X170690D03*
X176989Y186434D03*
X173840D03*
X170690D03*
X176989Y189583D03*
X173840D03*
X170690D03*
X176989Y192733D03*
X173840D03*
X170690D03*
X176989Y195882D03*
X173840D03*
X170690D03*
X176989Y199032D03*
X173840D03*
X170690D03*
X176989Y202182D03*
X173840D03*
X170690D03*
X176989Y205331D03*
X173840D03*
X170690D03*
X176989Y208481D03*
X173840D03*
X170690D03*
X176989Y211630D03*
X173840D03*
X170690D03*
X176989Y214780D03*
X173840D03*
X170690D03*
X176989Y217930D03*
X173840D03*
X170690D03*
X176989Y221079D03*
X173840D03*
X170690D03*
X176989Y224229D03*
X173840D03*
X170690D03*
X176989Y227378D03*
X173840D03*
X170690D03*
X176989Y230528D03*
X173840D03*
X170690D03*
X319430Y183656D03*
X316281D03*
X319430Y186806D03*
X316281D03*
X319430Y189955D03*
X316281D03*
X319430Y193105D03*
X316281D03*
X319430Y196254D03*
X316281D03*
X319430Y199404D03*
X316281D03*
X319430Y202554D03*
X316281D03*
X319430Y205703D03*
X316281D03*
X319430Y208853D03*
X316281D03*
X319430Y212002D03*
X316281D03*
X319430Y215152D03*
X316281D03*
X319430Y218302D03*
X316281D03*
X319430Y221451D03*
X316281D03*
X319430Y224601D03*
X316281D03*
X319430Y227750D03*
X316281D03*
X319430Y230900D03*
X316281D03*
X335178Y183656D03*
X322580D03*
X335178Y186806D03*
X322580D03*
X335178Y189955D03*
X322580D03*
X335178Y193105D03*
X322580D03*
X335178Y196254D03*
X322580D03*
X335178Y199404D03*
X322580D03*
X335178Y202554D03*
X322580D03*
X335178Y205703D03*
X322580D03*
X335178Y208853D03*
X322580D03*
X335178Y212002D03*
X322580D03*
X335178Y215152D03*
X322580D03*
X335178Y218302D03*
X322580D03*
X335178Y221451D03*
X322580D03*
X335178Y224601D03*
X322580D03*
X335178Y227750D03*
X322580D03*
X335178Y230900D03*
X322580D03*
X341477Y183656D03*
X338328D03*
X341477Y186806D03*
X338328D03*
X341477Y189955D03*
X338328D03*
X341477Y193105D03*
X338328D03*
X341477Y196254D03*
X338328D03*
X341477Y199404D03*
X338328D03*
X341477Y202554D03*
X338328D03*
X341477Y205703D03*
X338328D03*
X341477Y208853D03*
X338328D03*
X341477Y212002D03*
X338328D03*
X341477Y215152D03*
X338328D03*
X341477Y218302D03*
X338328D03*
X341477Y221451D03*
X338328D03*
X341477Y224601D03*
X338328D03*
X341477Y227750D03*
X338328D03*
X341477Y230900D03*
X338328D03*
G54D49*
X105895Y239984D03*
G54D85*
X360550Y251000D03*
X371450D03*
G54D76*
X237150Y133469D03*
Y142131D03*
X230850D03*
Y133469D03*
G54D58*
X117532Y136950D03*
X119500D03*
X121468D03*
Y143250D03*
X119500D03*
X117532D03*
G54D67*
X165161Y97248D03*
Y99216D03*
Y101184D03*
Y103152D03*
X243809Y97248D03*
Y99216D03*
Y101184D03*
Y103152D03*
X322509Y97248D03*
Y99216D03*
Y101184D03*
Y103152D03*
G54D94*
X395566Y73390D03*
X398976Y71422D03*
X402385Y69453D03*
X405795Y67485D03*
X416024Y61578D03*
X412615Y63547D03*
X409205Y65515D03*
X419434Y59610D03*
G54D59*
X137859Y148481D03*
G54D77*
X301500Y249900D03*
Y255900D03*
X306500Y249900D03*
X311500D03*
X316500D03*
X321500D03*
X306500Y255900D03*
X311500D03*
X316500D03*
X321500D03*
X326500Y249900D03*
X331500D03*
X326500Y255900D03*
X331500D03*
G54D95*
X394000Y93750D03*
Y86250D03*
G54D68*
X208571Y57500D03*
X360737D03*
G54D86*
X364200Y270500D03*
X387800D03*
G54D96*
X399892Y127952D03*
X397924D03*
Y167522D03*
X399892D03*
X415636Y127952D03*
X413668D03*
X411700D03*
X409732D03*
X407764D03*
X405796D03*
X403828D03*
X401860D03*
Y167522D03*
X403828D03*
X405796D03*
X407764D03*
X409732D03*
X411700D03*
X413668D03*
X415636D03*
X431380Y127952D03*
X429412D03*
X427444D03*
X425476D03*
X423508D03*
X421540D03*
X419572D03*
X417604D03*
Y167522D03*
X419572D03*
X421540D03*
X423508D03*
X425476D03*
X427444D03*
X429412D03*
X431380D03*
G54D78*
X350313Y90139D03*
G54D69*
X205556Y246042D03*
X287436Y164162D03*
G54D87*
X360252Y262139D03*
X368126D03*
Y278861D03*
X360252D03*
X376000Y262139D03*
X383874D03*
Y278861D03*
X376000D03*
X391748Y262139D03*
Y278861D03*
G54D97*
X394867Y131009D03*
Y132977D03*
Y134945D03*
Y136913D03*
Y138881D03*
Y140849D03*
Y142817D03*
Y144785D03*
Y146753D03*
Y148721D03*
Y150689D03*
Y152657D03*
Y154625D03*
Y156593D03*
Y158561D03*
Y160529D03*
Y162497D03*
Y164465D03*
X434437Y131009D03*
Y132977D03*
Y134945D03*
Y136913D03*
Y138881D03*
Y140849D03*
Y142817D03*
Y144785D03*
Y146753D03*
Y148721D03*
Y150689D03*
Y152657D03*
Y154625D03*
Y156593D03*
Y158561D03*
Y160529D03*
Y162497D03*
Y164465D03*
G54D79*
X353000Y103547D03*
Y109453D03*
X347000D03*
Y103547D03*
G54D88*
X372000Y65500D03*
Y76500D03*
X415000Y74000D03*
Y85000D03*
X429000Y74000D03*
Y85000D03*
X496500Y57500D03*
X486500D03*
X496500Y68500D03*
X486500D03*
G54D98*
X401700Y222700D03*
G54D89*
X383506Y62737D03*
X416238Y43839D03*
G54D99*
X386940Y205050D03*
X388908D03*
X390876D03*
X392844D03*
X394812D03*
X396780D03*
X398748D03*
X400716D03*
Y240350D03*
X398748D03*
X396780D03*
X394812D03*
X392844D03*
X390876D03*
X388908D03*
X386940D03*
X402684Y205050D03*
X404652D03*
X406620D03*
X408588D03*
X410556D03*
X412524D03*
X414492D03*
X416460D03*
Y240350D03*
X414492D03*
X412524D03*
X410556D03*
X408588D03*
X406620D03*
X404652D03*
X402684D03*
M02*
