G04 ================== begin FILE IDENTIFICATION RECORD ==================*
G04 Layout Name:  F:/work/Eileen/hmd/002/hmd-C-119-2015pm13.brd*
G04 Film Name:    hmd_c_PMPS*
G04 File Format:  Gerber RS274X*
G04 File Origin:  Cadence Allegro 16.3-S053*
G04 Origin Date:  Mon Jan 19 12:35:49 2015*
G04 *
G04 Layer:  PIN/PASTEMASK_BOTTOM*
G04 Layer:  PACKAGE GEOMETRY/PASTEMASK_BOTTOM*
G04 Layer:  BOARD GEOMETRY/OUTLINE*
G04 *
G04 Offset:    (0.00 0.00)*
G04 Mirror:    No*
G04 Mode:      Positive*
G04 Rotation:  0*
G04 FullContactRelief:  No*
G04 UndefLineWidth:     1.00*
G04 ================== end FILE IDENTIFICATION RECORD ====================*
%FSLAX55Y55*MOIN*%
%IR0*IPPOS*OFA0.00000B0.00000*MIA0B0*SFA1.00000B1.00000*%
%AMMACRO12*
21,1,.055,.075,0.0,0.0,89.849*%
%ADD12MACRO12*%
%ADD59R,.1X.072*%
%AMMACRO57*
21,1,.035,.028,0.0,0.0,135.*%
%ADD57MACRO57*%
%ADD50C,.04*%
%ADD20C,.06*%
%ADD58R,.077X.124*%
%ADD65R,.008X.018*%
%AMMACRO39*
21,1,.012,.012,0.0,0.0,45.*%
%ADD39MACRO39*%
%ADD36R,.012X.012*%
%ADD61R,.04X.04*%
%ADD49R,.031X.031*%
%AMMACRO54*
21,1,.024,.024,0.0,0.0,45.*%
%ADD54MACRO54*%
%ADD10R,.024X.024*%
%ADD56R,.079X.209*%
%AMMACRO31*
21,1,.024,.024,0.0,0.0,.003*%
%ADD31MACRO31*%
%AMMACRO60*
21,1,.065,.013,0.0,0.0,.079*%
%ADD60MACRO60*%
%AMMACRO28*
21,1,.024,.024,0.0,0.0,.262*%
%ADD28MACRO28*%
%AMMACRO66*
21,1,.024,.024,0.0,0.0,89.716*%
%ADD66MACRO66*%
%AMMACRO25*
21,1,.024,.024,0.0,0.0,89.849*%
%ADD25MACRO25*%
%ADD41R,.02X.01*%
%ADD38R,.01X.02*%
%ADD29O,.033X.011*%
%ADD30O,.011X.033*%
%ADD17R,.05X.03*%
%ADD15R,.022X.022*%
%ADD67R,.012X.051*%
%ADD62R,.04X.05*%
%ADD55R,.022X.041*%
%ADD45R,.03X.05*%
%ADD68R,.024X.022*%
%ADD63R,.051X.012*%
%ADD14R,.04X.043*%
%ADD32R,.043X.04*%
%ADD16R,.035X.04*%
%ADD13R,.042X.024*%
%ADD24R,.04X.035*%
%ADD70R,.028X.012*%
%ADD64R,.025X.07*%
%ADD69R,.026X.044*%
%ADD46R,.065X.05*%
%ADD51R,.044X.026*%
%ADD23R,.055X.043*%
%ADD53R,.063X.071*%
%ADD48R,.028X.043*%
%ADD35R,.028X.035*%
%ADD22R,.043X.055*%
%ADD43R,.035X.028*%
%ADD26R,.039X.034*%
%ADD33R,.059X.051*%
%ADD18R,.034X.039*%
%ADD42R,.02X.02098*%
%ADD37R,.02098X.02*%
%ADD34R,.075X.055*%
%ADD19R,.055X.039*%
%ADD52R,.067X.091*%
%ADD47R,.055X.075*%
%ADD27R,.039X.055*%
%ADD44O,.05512X.02362*%
%ADD40R,.079X.071*%
%AMMACRO21*
21,1,.034,.039,0.0,0.0,89.849*%
%ADD21MACRO21*%
%AMMACRO11*
21,1,.051,.059,0.0,0.0,89.849*%
%ADD11MACRO11*%
%ADD71C,.001*%
G75*
%LPD*%
G75*
G36*
G01X272412Y134980D02*
X269912D01*
Y139606D01*
X273337D01*
Y135905D01*
X272412Y134980D01*
G37*
G36*
G01X265187D02*
X268613D01*
Y139606D01*
X265187D01*
Y134980D01*
G37*
G36*
G01X261388Y134983D02*
X263888D01*
Y139609D01*
X260463D01*
Y135909D01*
X261388Y134983D01*
G37*
G36*
G01X269912Y140885D02*
X273337D01*
Y145511D01*
X269912D01*
Y140885D01*
G37*
G36*
G01X260463Y140889D02*
X263888D01*
Y145515D01*
X260463D01*
Y140889D01*
G37*
G36*
G01X265187Y140885D02*
X268613D01*
Y145511D01*
X265187D01*
Y140885D01*
G37*
G36*
G01X261388Y151420D02*
X263888D01*
Y146794D01*
X260463D01*
Y150495D01*
X261388Y151420D01*
G37*
G36*
G01X272412D02*
X269912D01*
Y146794D01*
X273337D01*
Y150495D01*
X272412Y151420D01*
G37*
G36*
G01X265187Y146791D02*
X268613D01*
Y151417D01*
X265187D01*
Y146791D01*
G37*
G54D10*
X30650Y27000D03*
X34350D03*
X23950Y221800D03*
X27650D03*
X31450D03*
X35150D03*
X64150Y107500D03*
Y102500D03*
X56750Y126100D03*
X53050D03*
X52818Y119118D03*
X56518D03*
X58150Y134500D03*
X61850D03*
X66500Y134350D03*
Y130650D03*
X65150Y156000D03*
Y160500D03*
X79500Y97650D03*
X67850Y107500D03*
X79500Y101350D03*
X67850Y102500D03*
X78500Y124650D03*
Y128350D03*
X74000Y144850D03*
Y141150D03*
X68850Y156000D03*
Y160500D03*
X73000Y160350D03*
Y156650D03*
X82250Y259400D03*
X78550D03*
X72650D03*
X68950D03*
X81150Y282200D03*
X94000Y111150D03*
Y114850D03*
X93500Y159150D03*
X95500Y150350D03*
Y146650D03*
X93500Y162850D03*
X94400Y213950D03*
Y210250D03*
X90100Y213950D03*
Y210250D03*
X85800Y213950D03*
Y210250D03*
X90650Y225000D03*
X94350D03*
X90650Y230000D03*
X94350D03*
X93000Y253650D03*
Y257350D03*
X84850Y282200D03*
X99000Y111150D03*
X104500Y126350D03*
Y122650D03*
X99000Y114850D03*
X99500Y131650D03*
Y135350D03*
X107350Y143500D03*
X103650D03*
X104500Y131650D03*
Y135350D03*
X108500Y213850D03*
Y210150D03*
X112500Y225150D03*
Y228850D03*
X102500Y254150D03*
X107500D03*
X102500Y270150D03*
Y262150D03*
Y265850D03*
Y257850D03*
X107500D03*
X102500Y273850D03*
X116650Y71000D03*
X120350D03*
X124400Y153750D03*
Y150050D03*
X117500Y225150D03*
Y228850D03*
X120450Y274900D03*
X124150D03*
X131900Y142550D03*
X139800Y161350D03*
Y157650D03*
X134650Y161400D03*
X130950D03*
X131900Y146250D03*
X145000Y161350D03*
Y157650D03*
X131900Y151550D03*
Y155250D03*
X142194Y210349D03*
X145894D03*
X145896Y214958D03*
X142196D03*
X142823Y224606D03*
Y228306D03*
X143480Y248943D03*
Y252643D03*
X153300Y107318D03*
Y103618D03*
X153750Y161300D03*
X150050D03*
X153750Y157200D03*
X150050D03*
X159666Y209781D03*
Y213481D03*
X161158Y248943D03*
Y252643D03*
X154794Y248943D03*
Y252643D03*
X149844Y248943D03*
Y252643D03*
X164045Y208947D03*
X167745D03*
X163621Y196644D03*
X167321D03*
X172330Y200686D03*
Y196986D03*
X167816Y203757D03*
X164116D03*
X164045Y213897D03*
X167745D03*
X177987Y248801D03*
Y252501D03*
X166320Y248872D03*
Y252572D03*
X172966Y248731D03*
Y252431D03*
X193650Y128800D03*
X181716Y204032D03*
Y200332D03*
X186980Y213689D03*
X183280D03*
X184351Y248801D03*
Y252501D03*
X197350Y128800D03*
X208350Y167500D03*
X204650D03*
X204475Y173757D03*
X208175D03*
X204558Y178897D03*
X208258D03*
X196643Y221039D03*
X200343D03*
X204150Y238500D03*
X207850D03*
X196502Y228251D03*
X200202D03*
X208000Y249350D03*
Y245650D03*
X214850Y84500D03*
X211150D03*
X219500Y88350D03*
Y84650D03*
X215750Y142000D03*
X212050D03*
X215750Y137600D03*
X212050D03*
X223800Y136150D03*
Y132450D03*
X212200Y153950D03*
Y150250D03*
X220550Y154100D03*
X216850D03*
X220550Y150000D03*
X216850D03*
X218210Y166945D03*
X221910D03*
X223474Y204871D03*
X219774D03*
X241150Y88500D03*
X231948Y107318D03*
Y103618D03*
X234450Y129800D03*
X230750D03*
X227900Y149450D03*
Y145750D03*
X235415Y166591D03*
X231715D03*
X226800Y166350D03*
Y162650D03*
X239840Y247886D03*
Y244186D03*
X235096Y247852D03*
Y244152D03*
X230212Y247881D03*
Y244181D03*
X244850Y88500D03*
X254500Y109350D03*
Y105650D03*
X249350Y142000D03*
X245650D03*
X249350Y137000D03*
X245650D03*
X249350Y132000D03*
X245650D03*
X249350Y146500D03*
X245650D03*
X249350Y151500D03*
X245650D03*
X246150Y156500D03*
X249850D03*
X249617Y162974D03*
Y166674D03*
X255500Y163150D03*
Y166850D03*
X246407Y177723D03*
Y181423D03*
X247846Y204302D03*
X244146D03*
X246435Y221310D03*
Y225010D03*
X246364Y232717D03*
Y229017D03*
X249229Y247955D03*
Y244255D03*
X253973Y247939D03*
Y244239D03*
X244584Y247935D03*
Y244235D03*
X264100Y97450D03*
Y101150D03*
X260250Y109100D03*
X263950D03*
X267153Y166957D03*
Y163257D03*
X271608Y166886D03*
Y163186D03*
X260000Y166850D03*
Y163150D03*
X267822Y244195D03*
Y247895D03*
X272303Y244215D03*
Y247915D03*
X258592Y247939D03*
Y244239D03*
X263276Y247894D03*
Y244194D03*
X285150Y141000D03*
X288850D03*
X285150Y136000D03*
X288850D03*
Y146000D03*
X285150D03*
X288850Y151000D03*
X285150D03*
X285000Y155650D03*
Y159350D03*
X280447Y163115D03*
Y166815D03*
X275850Y163186D03*
Y166886D03*
X288448Y185825D03*
X284748D03*
Y191057D03*
X288448D03*
X288072Y218988D03*
X288001Y213826D03*
X303237Y213693D03*
X299537D03*
X291772Y218988D03*
X291701Y213826D03*
X304205Y251852D03*
Y255552D03*
X292950Y282400D03*
X296650D03*
X310648Y107318D03*
Y103618D03*
X308404Y210153D03*
Y213853D03*
X311059Y219532D03*
Y223232D03*
X314953Y251852D03*
Y255552D03*
X310711Y251852D03*
Y255552D03*
X321317Y251852D03*
Y255552D03*
X324000Y91350D03*
Y87650D03*
X328604Y200645D03*
X332304D03*
X337015Y201181D03*
Y197481D03*
X332304Y205118D03*
X328604D03*
X324154Y210153D03*
Y213853D03*
X328604Y209702D03*
X332304D03*
X328604Y214305D03*
X332304D03*
X336450Y247968D03*
Y251668D03*
X325631Y248039D03*
Y251739D03*
X332136Y247897D03*
Y251597D03*
X346500Y203850D03*
Y200150D03*
Y211150D03*
Y214850D03*
X351650Y210500D03*
Y226500D03*
X347000Y237850D03*
Y234150D03*
X351500Y244650D03*
Y248350D03*
X352500Y278350D03*
Y274650D03*
X355350Y210500D03*
Y226500D03*
X358000Y261150D03*
Y264850D03*
X354000Y261150D03*
Y264850D03*
X365000Y261150D03*
Y264850D03*
X369000Y261150D03*
Y264850D03*
X367000Y278350D03*
Y274650D03*
X356500Y278350D03*
Y274650D03*
X379150Y111500D03*
X382850D03*
Y203700D03*
X383700Y208850D03*
Y212550D03*
X370500Y235850D03*
Y232150D03*
X383150Y227000D03*
Y232000D03*
X379350Y254000D03*
X375650D03*
X376150Y242500D03*
X379850D03*
X376150Y247000D03*
X379850D03*
X373500Y261150D03*
Y264850D03*
X378000Y261150D03*
Y264850D03*
X379500Y278350D03*
Y274650D03*
X375500Y278350D03*
Y274650D03*
X371000Y278350D03*
Y274650D03*
X398778Y135431D03*
X386550Y203700D03*
X399850Y204700D03*
X399150Y241000D03*
X386850Y227000D03*
X394500Y240350D03*
Y236650D03*
X390500Y240350D03*
Y236650D03*
X386850Y232000D03*
X399850Y248500D03*
X396150D03*
X399500Y263150D03*
Y266850D03*
X395500Y263150D03*
Y266850D03*
X395650Y259000D03*
X399350D03*
X417516Y128006D03*
X407781D03*
X404081D03*
X402749Y141359D03*
Y145059D03*
X411317Y135077D03*
X407617D03*
X416809D03*
X402478Y135431D03*
X406202Y160533D03*
X409902D03*
X402395Y156019D03*
Y152319D03*
X416266Y175382D03*
X412566D03*
X403500Y178150D03*
Y181850D03*
X408200Y204650D03*
Y208350D03*
X403550Y204700D03*
X415150Y209500D03*
X402850Y241000D03*
X407650D03*
X411350D03*
X415650Y231500D03*
X414500Y251850D03*
Y248150D03*
X429701Y128006D03*
X426001D03*
X421216D03*
X420509Y135077D03*
X426791Y136409D03*
Y140109D03*
X418223Y160533D03*
X421923D03*
X426791Y146309D03*
Y150009D03*
Y160615D03*
Y156915D03*
X432224Y170432D03*
X432242Y165819D03*
X432530Y186075D03*
X428830D03*
Y181125D03*
X432530D03*
X429000Y209350D03*
Y205650D03*
X422850Y218500D03*
X419150D03*
X422850Y214500D03*
X419150D03*
X429000Y216150D03*
Y219850D03*
X418850Y209500D03*
X419350Y231500D03*
X430500Y231350D03*
Y227650D03*
X418500Y248150D03*
Y251850D03*
X446150Y112500D03*
X444150Y144500D03*
X447850D03*
X444150Y139500D03*
X447850D03*
X444386Y133663D03*
X448086D03*
X434922Y142584D03*
Y138884D03*
X434569Y160615D03*
Y156915D03*
X435924Y170432D03*
X435942Y165819D03*
X449150Y186000D03*
X438650Y222500D03*
X442350D03*
X441850Y229000D03*
X438150D03*
X446150Y233500D03*
X438150D03*
X441850D03*
Y239500D03*
X438150D03*
X434000Y262650D03*
Y266350D03*
X447000D03*
Y262650D03*
X442000Y266350D03*
Y262650D03*
X438000Y266350D03*
Y262650D03*
X449850Y112500D03*
X454500Y126950D03*
X454700Y115550D03*
Y119250D03*
X453150Y139500D03*
X456850D03*
X454500Y130650D03*
X453150Y144500D03*
X456850D03*
X452850Y186000D03*
X456650D03*
X460350D03*
X464650Y190000D03*
Y196000D03*
Y209500D03*
X449850Y233500D03*
X463000Y228650D03*
Y232350D03*
X451400Y266450D03*
Y262750D03*
X473150Y135000D03*
X476850D03*
X470650Y161000D03*
X474350D03*
Y156500D03*
X470650D03*
Y165000D03*
X474350D03*
X472850Y183500D03*
X469150D03*
X477000Y188350D03*
Y184650D03*
X468350Y190000D03*
Y196000D03*
Y209500D03*
X473000Y219850D03*
Y216150D03*
X475000Y258150D03*
Y261850D03*
X467650Y262000D03*
X471350D03*
X476000Y268150D03*
Y271850D03*
X471350Y275500D03*
X467650D03*
X486000Y143350D03*
Y139650D03*
X491500Y143350D03*
Y139650D03*
X492150Y135000D03*
X495850D03*
X494650Y185500D03*
Y181000D03*
X496150Y190500D03*
Y204000D03*
Y196500D03*
Y210000D03*
X489000Y219850D03*
Y216150D03*
X483000Y219850D03*
Y216150D03*
X496150Y216000D03*
X483000Y258150D03*
Y261850D03*
X489500Y257650D03*
Y261350D03*
X502500Y81150D03*
Y84850D03*
X513000Y94650D03*
X508700D03*
X513000Y98350D03*
X508700D03*
X513000Y102150D03*
Y105850D03*
X508700Y102150D03*
Y105850D03*
X510650Y121500D03*
X503150Y122000D03*
X506850D03*
X503000Y126650D03*
X498000D03*
X507350Y135000D03*
X503650D03*
X503000Y130350D03*
X498000D03*
X508350Y180500D03*
X504650D03*
X498350Y185500D03*
Y181000D03*
X499850Y190500D03*
Y204000D03*
Y196500D03*
Y210000D03*
Y216000D03*
X526650Y89000D03*
X518500Y94150D03*
X525000Y111150D03*
X518500Y102150D03*
Y105850D03*
Y97850D03*
X514350Y121500D03*
X525000Y114850D03*
X528850Y119000D03*
X525150D03*
X527000Y159150D03*
Y162850D03*
X534500Y88650D03*
Y92350D03*
X530350Y89000D03*
X539500Y97150D03*
X530500D03*
X535000D03*
X544000D03*
X539500Y100850D03*
X535850Y106500D03*
X532150D03*
X530500Y100850D03*
X535000D03*
X544000D03*
X543650Y124500D03*
X554300Y113150D03*
Y109350D03*
Y105650D03*
X547350Y124500D03*
X554300Y116850D03*
X564867Y142273D03*
X568567D03*
X564867Y138273D03*
X568567D03*
G54D11*
X30790Y46463D03*
X30810Y54337D03*
G54D20*
X51200Y51100D03*
X117900Y188100D03*
X154100Y277400D03*
X360000Y170000D03*
X528000Y20000D03*
X551500Y240500D03*
G54D21*
X38291Y69250D03*
X38309Y75750D03*
G54D30*
X78453Y264009D03*
X72547D03*
X78453Y277591D03*
X72547D03*
G54D12*
X29484Y64400D03*
X29516Y76600D03*
G54D40*
X187850Y147400D03*
Y137400D03*
Y157400D03*
X204350Y147400D03*
Y137400D03*
Y157400D03*
G54D22*
X45050Y143900D03*
X52350D03*
X120750Y280700D03*
X128050D03*
X160510Y183134D03*
X167810D03*
X301850Y161500D03*
X309150D03*
X330954Y177354D03*
X323654D03*
G54D13*
X35418Y112292D03*
Y119772D03*
Y116032D03*
X46018Y112292D03*
Y119772D03*
G54D31*
X98004Y74587D03*
Y70887D03*
G54D23*
X40500Y150350D03*
Y157650D03*
G54D32*
X125154Y78000D03*
X131846D03*
G54D14*
X22400Y141154D03*
X31500D03*
X22400Y147846D03*
X31500D03*
X49000Y152654D03*
Y159346D03*
X77800Y182854D03*
Y189546D03*
X129700Y176546D03*
Y169854D03*
X138900Y176654D03*
Y183346D03*
X481500Y236846D03*
Y230154D03*
X494500Y77654D03*
Y84346D03*
X551500Y92154D03*
Y98846D03*
G54D41*
X188165Y223520D03*
X191709D03*
X188165Y225488D03*
X191709D03*
X351728Y217516D03*
Y219484D03*
X355272D03*
Y217516D03*
G54D50*
X360100Y107000D03*
X421500Y226500D03*
G54D42*
X188165Y221010D03*
X191709D03*
X188165Y227998D03*
X191709D03*
X351728Y215006D03*
Y221994D03*
X355272D03*
Y215006D03*
G54D33*
X118500Y90063D03*
Y97937D03*
X197748Y89231D03*
Y97105D03*
X276448Y89231D03*
Y97105D03*
G54D51*
X358800Y243260D03*
Y247000D03*
Y250740D03*
X369200Y243260D03*
Y250740D03*
G54D24*
X42450Y167000D03*
X48550D03*
G54D15*
X29500Y158700D03*
Y162300D03*
X36000Y166800D03*
Y163200D03*
X471600Y175300D03*
Y171700D03*
X475200D03*
Y175300D03*
G54D60*
X462487Y110938D03*
X462490Y108378D03*
X462466Y126298D03*
X462469Y123738D03*
X462473Y121178D03*
X462476Y118618D03*
X462480Y116058D03*
X462483Y113498D03*
X490090Y108416D03*
X490087Y110976D03*
X490083Y113536D03*
X490080Y116096D03*
X490076Y118656D03*
X490073Y121216D03*
X490069Y123776D03*
X490066Y126336D03*
G54D52*
X381594Y23201D03*
Y35799D03*
X393406D03*
Y23201D03*
G54D34*
X117800Y105168D03*
Y117368D03*
X196448Y105168D03*
Y117368D03*
X275148Y105168D03*
Y117368D03*
X404000Y21900D03*
Y34100D03*
X510500Y74900D03*
Y87100D03*
G54D43*
X217760Y132200D03*
X212640D03*
X440311Y128006D03*
X435191D03*
X440311Y133663D03*
X435191D03*
G54D70*
X569178Y139190D03*
Y141356D03*
X564256Y139190D03*
Y141356D03*
G54D16*
X23500Y158950D03*
Y165050D03*
X50000Y94950D03*
Y101050D03*
X56000Y94950D03*
Y101050D03*
X298500Y60550D03*
Y54450D03*
X313250D03*
Y60550D03*
X318750Y54450D03*
Y60550D03*
X325000Y54450D03*
Y60550D03*
X330500Y54450D03*
Y60550D03*
G54D25*
X62056Y64908D03*
X62046Y61208D03*
G54D61*
X481563Y268000D03*
X489437D03*
Y276000D03*
G54D71*
G01X41435Y11341D02*
X-16000D01*
G01X-26417Y97705D02*
X-27666Y98635D01*
X-28292Y99720D01*
X-28500Y100960D01*
X-28083Y102510D01*
X-27042Y103595D01*
X-25792Y103905D01*
X-24541Y103750D01*
X-23500Y103130D01*
X-21417Y100030D01*
X-19958Y98635D01*
X-17875Y97705D01*
X-16000Y97395D01*
Y103905D01*
G01Y112740D02*
X-18708Y113050D01*
X-21000Y113515D01*
X-23083Y114135D01*
X-25375Y114910D01*
X-28500Y116150D01*
Y109950D01*
G01X-17875Y122040D02*
X-16833Y122970D01*
X-16208Y124055D01*
X-16000Y125450D01*
X-16417Y126845D01*
X-17250Y127930D01*
X-18708Y128705D01*
X-20375Y128860D01*
X-22042Y128550D01*
X-23083Y127775D01*
X-23917Y126690D01*
X-24125Y125605D01*
X-23917Y124520D01*
X-23083Y123125D01*
X-28500Y123590D01*
Y127775D01*
G01X-18500Y134440D02*
X-17041Y135370D01*
X-16208Y136610D01*
X-16000Y138005D01*
X-16208Y139245D01*
X-17250Y140485D01*
X-18500Y141260D01*
X-19750Y141415D01*
X-21208Y141105D01*
X-22250Y140020D01*
X-22667Y138935D01*
Y137540D01*
G01Y138935D02*
X-23292Y139865D01*
X-24333Y140640D01*
X-25583Y140950D01*
X-26833Y140640D01*
X-27875Y139865D01*
X-28500Y138470D01*
X-28292Y137075D01*
X-27458Y135680D01*
G01X-15583Y150250D02*
X-15792Y149940D01*
X-16208D01*
X-16417Y150250D01*
X-16208Y150560D01*
X-15792D01*
X-15583Y150250D01*
G01X-26417Y159705D02*
X-27666Y160635D01*
X-28292Y161720D01*
X-28500Y162960D01*
X-28083Y164510D01*
X-27042Y165595D01*
X-25792Y165905D01*
X-24541Y165750D01*
X-23500Y165130D01*
X-21417Y162030D01*
X-19958Y160635D01*
X-17875Y159705D01*
X-16000Y159395D01*
Y165905D01*
G01X-28500Y175050D02*
X-28083Y173810D01*
X-27042Y172880D01*
X-25792Y172260D01*
X-24125Y171795D01*
X-22250Y171640D01*
X-20375Y171795D01*
X-18708Y172260D01*
X-17458Y172880D01*
X-16417Y173810D01*
X-16000Y175050D01*
X-16417Y176290D01*
X-17458Y177220D01*
X-18708Y177840D01*
X-20375Y178305D01*
X-22250Y178460D01*
X-24125Y178305D01*
X-25792Y177840D01*
X-27042Y177220D01*
X-28083Y176290D01*
X-28500Y175050D01*
G01X-21208Y205705D02*
X-22667Y206790D01*
X-23500Y207720D01*
X-23917Y208960D01*
X-23500Y210045D01*
X-22667Y210820D01*
X-21417Y211440D01*
X-19958Y211595D01*
X-18708Y211440D01*
X-17458Y210820D01*
X-16417Y209890D01*
X-16000Y208805D01*
X-16417Y207565D01*
X-17666Y206480D01*
X-19542Y205860D01*
X-21625Y205705D01*
X-24333Y206015D01*
X-25792Y206480D01*
X-27250Y207255D01*
X-28292Y208340D01*
X-28500Y209425D01*
X-28083Y210510D01*
X-27042Y211285D01*
G01X-17458Y218415D02*
X-16417Y219500D01*
X-16000Y220740D01*
X-16417Y221980D01*
X-17666Y223065D01*
X-19542Y223840D01*
X-21417Y224150D01*
X-23708D01*
X-25583Y223840D01*
X-27250Y223065D01*
X-28083Y222135D01*
X-28500Y221050D01*
X-28083Y219810D01*
X-27250Y218880D01*
X-26000Y218260D01*
X-24333Y217950D01*
X-22875Y218260D01*
X-21417Y219035D01*
X-20583Y219965D01*
X-20375Y221050D01*
X-20791Y222290D01*
X-21833Y223220D01*
X-23708Y224150D01*
G01X-15583Y233450D02*
X-15792Y233140D01*
X-16208D01*
X-16417Y233450D01*
X-16208Y233760D01*
X-15792D01*
X-15583Y233450D01*
G01X-17458Y243215D02*
X-16417Y244300D01*
X-16000Y245540D01*
X-16417Y246780D01*
X-17666Y247865D01*
X-19542Y248640D01*
X-21417Y248950D01*
X-23708D01*
X-25583Y248640D01*
X-27250Y247865D01*
X-28083Y246935D01*
X-28500Y245850D01*
X-28083Y244610D01*
X-27250Y243680D01*
X-26000Y243060D01*
X-24333Y242750D01*
X-22875Y243060D01*
X-21417Y243835D01*
X-20583Y244765D01*
X-20375Y245850D01*
X-20791Y247090D01*
X-21833Y248020D01*
X-23708Y248950D01*
G01X-18500Y254840D02*
X-17041Y255770D01*
X-16208Y257010D01*
X-16000Y258405D01*
X-16208Y259645D01*
X-17250Y260885D01*
X-18500Y261660D01*
X-19750Y261815D01*
X-21208Y261505D01*
X-22250Y260420D01*
X-22667Y259335D01*
Y257940D01*
G01Y259335D02*
X-23292Y260265D01*
X-24333Y261040D01*
X-25583Y261350D01*
X-26833Y261040D01*
X-27875Y260265D01*
X-28500Y258870D01*
X-28292Y257475D01*
X-27458Y256080D01*
G01X-15750Y199600D02*
Y194950D01*
X-28250D01*
Y199600D01*
G01X-15750Y267800D02*
Y272450D01*
X-28250D01*
Y267800D01*
G01X54558Y286661D02*
X-16000D01*
G01X-6000Y136375D02*
Y11341D01*
G01X-8500Y26341D02*
X-6000Y11341D01*
X-3500Y26341D01*
X-8500D01*
G01X-6000Y167625D02*
Y286661D01*
G01X-3500Y271661D02*
X-6000Y286661D01*
X-8500Y271661D01*
X-3500D01*
G01X13004Y172606D02*
G03X21617Y14692I835938J-33598D01*
G01X12350Y169400D02*
Y134550D01*
G01Y149400D02*
Y315100D01*
G01X13004Y251228D02*
Y172606D01*
G01X40563Y251228D02*
X13004D01*
G01X190675Y305100D02*
X12350D01*
G01X27350Y307600D02*
X12350Y305100D01*
X27350Y302600D01*
Y307600D01*
G01X25510Y11341D02*
X51441D01*
G01X21617Y14692D02*
G03X25510Y11340I3894J585D01*
G01X40563Y251228D02*
G03X60248Y270913I0J19685D01*
G01X84832Y13482D02*
G03X51441Y11341I-16713J-790D01*
G01X60248Y270913D02*
Y282724D01*
G01X64185Y286661D02*
X505130D01*
G01X64185D02*
G03X60248Y282724I0J-3937D01*
G01X84830Y13482D02*
X84796Y11341D01*
G01D02*
X195797D01*
G01X209851Y29217D02*
G03X195797Y11341I2624J-16525D01*
G01X201290Y300725D02*
X202220Y299683D01*
X203305Y299058D01*
X204700Y298850D01*
X206095Y299267D01*
X207180Y300100D01*
X207955Y301558D01*
X208110Y303225D01*
X207800Y304892D01*
X207025Y305933D01*
X205940Y306767D01*
X204855Y306975D01*
X203770Y306767D01*
X202375Y305933D01*
X202840Y311350D01*
X207025D01*
G01X214465Y300308D02*
X215550Y299267D01*
X216790Y298850D01*
X218030Y299267D01*
X219115Y300516D01*
X219890Y302392D01*
X220200Y304267D01*
Y306558D01*
X219890Y308433D01*
X219115Y310100D01*
X218185Y310933D01*
X217100Y311350D01*
X215860Y310933D01*
X214930Y310100D01*
X214310Y308850D01*
X214000Y307183D01*
X214310Y305725D01*
X215085Y304267D01*
X216015Y303433D01*
X217100Y303225D01*
X218340Y303641D01*
X219270Y304683D01*
X220200Y306558D01*
G01X226555Y309267D02*
X227485Y310516D01*
X228570Y311142D01*
X229810Y311350D01*
X231360Y310933D01*
X232445Y309892D01*
X232755Y308642D01*
X232600Y307391D01*
X231980Y306350D01*
X228880Y304267D01*
X227485Y302808D01*
X226555Y300725D01*
X226245Y298850D01*
X232755D01*
G01X243760D02*
Y311350D01*
X238025Y302392D01*
X245775D01*
G01X254300Y298433D02*
X253990Y298642D01*
Y299058D01*
X254300Y299267D01*
X254610Y299058D01*
Y298642D01*
X254300Y298433D01*
G01X263755Y304058D02*
X264840Y305517D01*
X265770Y306350D01*
X267010Y306767D01*
X268095Y306350D01*
X268870Y305517D01*
X269490Y304267D01*
X269645Y302808D01*
X269490Y301558D01*
X268870Y300308D01*
X267940Y299267D01*
X266855Y298850D01*
X265615Y299267D01*
X264530Y300516D01*
X263910Y302392D01*
X263755Y304475D01*
X264065Y307183D01*
X264530Y308642D01*
X265305Y310100D01*
X266390Y311142D01*
X267475Y311350D01*
X268560Y310933D01*
X269335Y309892D01*
G01X276155Y309267D02*
X277085Y310516D01*
X278170Y311142D01*
X279410Y311350D01*
X280960Y310933D01*
X282045Y309892D01*
X282355Y308642D01*
X282200Y307391D01*
X281580Y306350D01*
X278480Y304267D01*
X277085Y302808D01*
X276155Y300725D01*
X275845Y298850D01*
X282355D01*
G01X209851Y42837D02*
Y29217D01*
G01X359457Y42837D02*
X209851D01*
G01X304100Y298850D02*
X299450D01*
Y311350D01*
X304100D01*
G01X313400Y298850D02*
Y311350D01*
X311540Y308850D01*
G01Y298850D02*
X315260D01*
G01X322390Y300725D02*
X323320Y299683D01*
X324405Y299058D01*
X325800Y298850D01*
X327195Y299267D01*
X328280Y300100D01*
X329055Y301558D01*
X329210Y303225D01*
X328900Y304892D01*
X328125Y305933D01*
X327040Y306767D01*
X325955Y306975D01*
X324870Y306767D01*
X323475Y305933D01*
X323940Y311350D01*
X328125D01*
G01X338200D02*
X336960Y310933D01*
X336030Y309892D01*
X335410Y308642D01*
X334945Y306975D01*
X334790Y305100D01*
X334945Y303225D01*
X335410Y301558D01*
X336030Y300308D01*
X336960Y299267D01*
X338200Y298850D01*
X339440Y299267D01*
X340370Y300308D01*
X340990Y301558D01*
X341455Y303225D01*
X341610Y305100D01*
X341455Y306975D01*
X340990Y308642D01*
X340370Y309892D01*
X339440Y310933D01*
X338200Y311350D01*
G01X350600Y298433D02*
X350290Y298642D01*
Y299058D01*
X350600Y299267D01*
X350910Y299058D01*
Y298642D01*
X350600Y298433D01*
G01X364860Y298850D02*
Y311350D01*
X359125Y302392D01*
X366875D01*
G01X372765Y300308D02*
X373850Y299267D01*
X375090Y298850D01*
X376330Y299267D01*
X377415Y300516D01*
X378190Y302392D01*
X378500Y304267D01*
Y306558D01*
X378190Y308433D01*
X377415Y310100D01*
X376485Y310933D01*
X375400Y311350D01*
X374160Y310933D01*
X373230Y310100D01*
X372610Y308850D01*
X372300Y307183D01*
X372610Y305725D01*
X373385Y304267D01*
X374315Y303433D01*
X375400Y303225D01*
X376640Y303641D01*
X377570Y304683D01*
X378500Y306558D01*
G01X373510Y11340D02*
G03X359457Y29217I-16678J1352D01*
G01D02*
Y42837D01*
G01X373510Y11340D02*
X484512D01*
G01X384700Y298850D02*
X389350D01*
Y311350D01*
X384700D01*
G01X398725Y305100D02*
X604812D01*
G01X517903Y13481D02*
G03X484512Y11340I-16714J-789D01*
G01X509067Y270913D02*
G03X528752Y251228I19685J0D01*
G01X509067Y282724D02*
Y270913D01*
G01Y282724D02*
G03X505130Y286661I-3937J0D01*
G01X517867Y11340D02*
X536702D01*
G01X517901Y13481D02*
X517867Y11340D01*
G01X536702D02*
Y72364D01*
G01D02*
X581190D01*
G01X562214Y251228D02*
X528752D01*
G01X604812Y164803D02*
X562214D01*
G01D02*
Y251228D01*
G01X581190Y125514D02*
Y72364D01*
G01X604812Y125514D02*
X581190D01*
G01X589812Y302600D02*
X604812Y305100D01*
X589812Y307600D01*
Y302600D01*
G01X604812Y125514D02*
Y164803D01*
G01Y174803D02*
Y315100D01*
G54D44*
X255483Y140700D03*
Y135700D03*
Y150700D03*
Y145700D03*
X278317Y135700D03*
Y140700D03*
Y145700D03*
Y150700D03*
G54D26*
X65500Y113150D03*
Y119650D03*
X77500Y202250D03*
Y208750D03*
X100000Y216250D03*
Y209750D03*
X126200Y111818D03*
Y118318D03*
X192000Y249750D03*
Y256250D03*
X204848Y111818D03*
Y118318D03*
X202000Y252750D03*
Y246250D03*
X283548Y111818D03*
Y118318D03*
X413000Y31250D03*
Y24750D03*
X420000Y31250D03*
Y24750D03*
X446590Y121574D03*
Y128074D03*
X434500Y203750D03*
Y210250D03*
X468000Y227750D03*
Y234250D03*
X518000Y110250D03*
Y116750D03*
X534250Y122750D03*
Y116250D03*
X595717Y147523D03*
Y154023D03*
G54D35*
X114800Y270240D03*
Y275360D03*
X247000Y60560D03*
Y55440D03*
X276500Y59060D03*
Y53940D03*
X421487Y175114D03*
Y169994D03*
X427000Y169940D03*
Y175060D03*
X519500Y128060D03*
Y122940D03*
X595500Y135440D03*
Y140560D03*
G54D53*
X382000Y35500D03*
Y22500D03*
X393000Y35500D03*
Y22500D03*
X445000Y155500D03*
X441500Y201000D03*
X456000Y155500D03*
X452500Y201000D03*
X560000Y82000D03*
X571000D03*
G54D62*
X481644Y275553D03*
G54D17*
X22496Y209500D03*
X29504D03*
X22496Y203500D03*
X29504D03*
X22496Y197500D03*
X29504D03*
X449596Y249700D03*
X456604D03*
X472496Y140000D03*
X479504D03*
G54D27*
X67150Y140850D03*
X59650D03*
X63400Y149550D03*
X80250Y144350D03*
X84000Y135650D03*
X87750Y144350D03*
X257650Y116250D03*
X265150D03*
X261400Y124950D03*
X520750Y82350D03*
X528250D03*
X524500Y73650D03*
X545000Y108650D03*
X541250Y117350D03*
X548750D03*
G54D18*
X29250Y216000D03*
X22750D03*
X82250Y175000D03*
X88750D03*
X146650Y174200D03*
X153150D03*
X214750Y161000D03*
X221250D03*
X288935Y170622D03*
X295435D03*
X366250Y42500D03*
X361350Y101100D03*
X367850D03*
X372750Y42500D03*
X381750Y221000D03*
X388250D03*
X409045Y181039D03*
X415545D03*
X444700Y164500D03*
X451200D03*
X450150Y243200D03*
X456650D03*
X504350Y104600D03*
X497850D03*
X561250Y118000D03*
X569250Y91000D03*
X562750D03*
X567750Y118000D03*
G54D63*
X497650Y139632D03*
Y141600D03*
Y143568D03*
X503950D03*
Y141600D03*
Y139632D03*
G54D45*
X283000Y52996D03*
Y60004D03*
X464500Y149496D03*
Y156504D03*
G54D54*
X385885Y172801D03*
X389420Y176337D03*
X392036Y173721D03*
X388501Y170185D03*
G54D36*
X145764Y191156D03*
X144268Y219129D03*
X142268D03*
X147764Y191156D03*
X152861Y179193D03*
X150861D03*
X147823Y187563D03*
Y185563D03*
X150106Y204686D03*
Y202686D03*
X147880Y194835D03*
Y196835D03*
X155941Y202767D03*
X153941D03*
X150994Y212278D03*
Y210278D03*
X147098Y223601D03*
X147086Y229019D03*
Y231019D03*
X147098Y225601D03*
X177624Y191157D03*
X174205Y182909D03*
X172205D03*
X175399Y205942D03*
Y207942D03*
X181398Y181079D03*
Y183079D03*
X181352Y188238D03*
Y186238D03*
X179624Y191157D03*
X182291Y208481D03*
X184291D03*
X182034Y196158D03*
Y194158D03*
X182654Y229514D03*
Y231514D03*
X219979Y173521D03*
X221979D03*
X225070Y189077D03*
X223727Y182784D03*
X224373Y196583D03*
Y194583D03*
X221333Y228332D03*
Y226332D03*
X223331Y239705D03*
X221331D03*
X214500Y242500D03*
X212500D03*
X240000Y188000D03*
Y186000D03*
X227070Y189077D03*
X225727Y182784D03*
X233131Y205058D03*
X235131D03*
X240071Y204058D03*
Y206058D03*
X227555Y205987D03*
Y203987D03*
X234636Y227049D03*
X232636D03*
X226979Y239494D03*
X228979D03*
X237515Y239423D03*
X239515D03*
X245374Y170915D03*
Y168915D03*
X252869Y187178D03*
Y185178D03*
X246435Y187229D03*
Y189229D03*
X247496Y208252D03*
X245496D03*
X256698Y206260D03*
X254698D03*
X252092Y206058D03*
Y204058D03*
X245375Y198389D03*
X247375D03*
X247364Y195229D03*
X245364D03*
X247435Y214675D03*
X245435D03*
X247496Y211502D03*
X245496D03*
X268567Y188290D03*
Y190290D03*
X271689Y204846D03*
X269689D03*
X268497Y194583D03*
Y196583D03*
X261294Y204492D03*
X259294D03*
X268497Y216645D03*
Y218645D03*
X283629Y179329D03*
Y177329D03*
X275719Y179744D03*
X273719D03*
X304761Y219554D03*
X304832Y223160D03*
X312266Y190997D03*
Y188997D03*
X316802Y179107D03*
X314802D03*
X312408Y195219D03*
Y197219D03*
X312479Y204927D03*
Y202927D03*
X320429Y204128D03*
X318429D03*
X306761Y219554D03*
X306832Y223160D03*
X314704Y213003D03*
Y211003D03*
X312332Y230256D03*
Y232256D03*
X345571Y188380D03*
Y186380D03*
Y181148D03*
Y183148D03*
X350299Y200603D03*
X352299D03*
X350369Y204492D03*
X352369D03*
X339975Y204139D03*
X341975D03*
X345147Y223574D03*
Y225574D03*
Y229514D03*
Y231514D03*
G54D19*
X34850Y232000D03*
X26150Y235750D03*
Y228250D03*
X76650Y111000D03*
X85350Y107250D03*
Y114750D03*
X226150Y84750D03*
Y92250D03*
X234850Y88500D03*
G54D37*
X143168Y240889D03*
Y244433D03*
X161470Y240889D03*
X154482D03*
Y244433D03*
X161470D03*
X150156Y240889D03*
Y244433D03*
X177006Y240728D03*
X172996Y240818D03*
X166008D03*
X177006Y244272D03*
X166008Y244362D03*
X172996D03*
X183994Y240728D03*
Y244272D03*
X304003Y244117D03*
Y247661D03*
X314620Y244132D03*
Y247676D03*
X310991Y244117D03*
Y247661D03*
X336152Y239721D03*
X332367Y239732D03*
X325379D03*
X336152Y243265D03*
X325379Y243276D03*
X332367D03*
X321608Y244132D03*
Y247676D03*
X343140Y239721D03*
Y243265D03*
G54D46*
X351500Y69500D03*
Y80500D03*
X486500Y56500D03*
Y67500D03*
X514000Y46500D03*
Y57500D03*
X524000Y46500D03*
Y57500D03*
G54D64*
X496500Y151478D03*
X491500D03*
X486500D03*
X481500D03*
X496500Y174522D03*
X491500D03*
X486500D03*
X481500D03*
G54D55*
X374000Y224510D03*
Y213490D03*
G54D28*
X71492Y46850D03*
X71508Y43150D03*
G54D47*
X365900Y51000D03*
X378100D03*
X445900Y98500D03*
X444400Y155500D03*
X440400Y201000D03*
X458100Y98500D03*
X456600Y155500D03*
X452600Y201000D03*
X490900Y97500D03*
X503100D03*
X499700Y112500D03*
X511900D03*
G54D29*
X82390Y270800D03*
Y268832D03*
Y266863D03*
X68610Y270800D03*
Y268832D03*
Y266863D03*
X82390Y274737D03*
Y272768D03*
X68610Y274737D03*
Y272768D03*
G54D38*
X158960Y240889D03*
X156992D03*
Y244433D03*
X158960D03*
X147646Y240889D03*
X145678D03*
Y244433D03*
X147646D03*
X170486Y240818D03*
X168518D03*
Y244362D03*
X170486D03*
X181484Y240728D03*
X179516D03*
Y244272D03*
X181484D03*
X319098Y244132D03*
X317130D03*
Y247676D03*
X319098D03*
X308481Y244117D03*
X306513D03*
Y247661D03*
X308481D03*
X329857Y239732D03*
X327889D03*
Y243276D03*
X329857D03*
X340630Y239721D03*
X338662D03*
Y243265D03*
X340630D03*
G54D56*
X403508Y57000D03*
X429492D03*
G54D65*
X523100Y97000D03*
X525900D03*
Y101000D03*
X524500D03*
X523100D03*
G54D48*
X366047Y35500D03*
X371953D03*
X380953Y98500D03*
X375047D03*
G54D66*
X528991Y111150D03*
X529009Y114850D03*
G54D39*
X177078Y211721D03*
X180874Y222707D03*
X182288Y224121D03*
X178492Y213135D03*
X216171Y191057D03*
X217585Y189643D03*
X216466Y181388D03*
X217880Y182802D03*
X220484Y185471D03*
X221898Y186885D03*
X221615Y179249D03*
X220201Y180663D03*
X223118Y218976D03*
X221704Y220390D03*
X216383Y232140D03*
X217797Y230726D03*
X228898Y175360D03*
X227484Y176774D03*
X237338Y192767D03*
X234414Y189785D03*
X235828Y191199D03*
X234343Y185188D03*
X232929Y186602D03*
X231303Y198411D03*
X229889Y199825D03*
X234220Y195871D03*
X235634Y197285D03*
X238752Y194181D03*
X229252Y222382D03*
X230666Y223796D03*
X238444Y222524D03*
X237030Y223938D03*
X237525Y219766D03*
X236111Y221180D03*
X232788Y218281D03*
X234202Y216867D03*
X240566Y211634D03*
X235757Y213190D03*
X234343Y211776D03*
X253223Y192896D03*
X257324Y194451D03*
X254637Y194310D03*
X252304Y220544D03*
X253718Y221958D03*
X255698Y217857D03*
X257112Y216443D03*
X241980Y218988D03*
X243394Y217574D03*
X241980Y213048D03*
X261143Y175643D03*
X262557Y177057D03*
X265314Y182926D03*
X263900Y181512D03*
X258738Y193037D03*
X265239Y224286D03*
X266653Y222872D03*
X262840Y213543D03*
X261426Y214957D03*
X260506Y222382D03*
X259092Y220968D03*
X270972Y232989D03*
X272386Y234403D03*
X272032Y229241D03*
X270618Y230655D03*
X275921Y235534D03*
X274507Y236948D03*
X342389Y190845D03*
X343803Y192259D03*
X342672Y213190D03*
X341258Y211776D03*
G54D57*
X400435Y162331D03*
X396815Y165951D03*
G54D67*
X517532Y142150D03*
X519500D03*
X521468D03*
Y135850D03*
X519500D03*
X517532D03*
G54D49*
X364000Y85169D03*
Y93831D03*
X510153Y185500D03*
X504247D03*
G54D58*
X406850Y57000D03*
X426150D03*
G54D68*
X533500Y159327D03*
Y162673D03*
X578217Y143600D03*
X586217D03*
X578217Y146946D03*
X586217D03*
G54D59*
X434000Y22100D03*
Y39900D03*
G54D69*
X560760Y99800D03*
Y110200D03*
X568240Y99800D03*
X564500D03*
X568240Y110200D03*
M02*
