G04 ================== begin FILE IDENTIFICATION RECORD ==================*
G04 Layout Name:  F:/work/Eileen/hmd/002/hmd-C-119-2015pm13.brd*
G04 Film Name:    hmd_c_L5*
G04 File Format:  Gerber RS274X*
G04 File Origin:  Cadence Allegro 16.3-S053*
G04 Origin Date:  Mon Jan 19 12:35:48 2015*
G04 *
G04 Layer:  VIA CLASS/L5*
G04 Layer:  PIN/L5*
G04 Layer:  ETCH/L5*
G04 Layer:  BOARD GEOMETRY/OUTLINE*
G04 *
G04 Offset:    (0.00 0.00)*
G04 Mirror:    No*
G04 Mode:      Positive*
G04 Rotation:  0*
G04 FullContactRelief:  No*
G04 UndefLineWidth:     5.00*
G04 ================== end FILE IDENTIFICATION RECORD ====================*
%FSLAX55Y55*MOIN*%
%IR0*IPPOS*OFA0.00000B0.00000*MIA0B0*SFA1.00000B1.00000*%
%ADD10C,.02*%
%ADD23C,.03*%
%ADD18C,.04*%
%ADD15C,.022*%
%ADD17C,.026*%
%ADD13C,.018*%
%ADD11C,.028*%
%ADD20C,.065*%
%ADD12C,.056*%
%ADD16C,.057*%
%ADD21R,.065X.065*%
%AMMACRO19*
21,1,.034,.014,0.0,0.0,179.96*
1,1,.034,.000005,.007*
1,1,.034,-.000005,-.007*%
%ADD19MACRO19*%
%ADD14C,.16*%
%ADD22O,.034X.048*%
%ADD24C,.01*%
%ADD25C,.012*%
%ADD26C,.004*%
%ADD27C,.005*%
%ADD28C,.0045*%
%ADD30C,.034*%
%ADD32C,.03104*%
%ADD35C,.05004*%
%ADD29C,.02704*%
%ADD33C,.03704*%
%ADD31C,.02904*%
%ADD34C,.22812*%
G75*
%LPD*%
G75*
G36*
G01X16500Y192500D02*
X22500Y198500D01*
Y223000D01*
X27000Y227500D01*
X46500D01*
X48000Y226000D01*
Y223000D01*
X46002Y221002D01*
X35878D01*
X35377Y220500D01*
X35000D01*
X29000Y214500D01*
Y195500D01*
X23000Y189500D01*
Y148000D01*
X22500Y147500D01*
X16000D01*
X15500Y148000D01*
Y191500D01*
X16500Y192500D01*
G37*
G36*
G01X49349Y13401D02*
X25200D01*
X24401Y13801D01*
X24001Y14201D01*
X23701Y14900D01*
X23201Y18500D01*
X21401Y31400D01*
X21138Y33551D01*
G02X21535Y34000I397J49D01*
G01X52000D01*
X54000Y32000D01*
Y25164D01*
X53699Y24901D01*
X51999Y22351D01*
X50999Y20550D01*
X50149Y18100D01*
X49549Y15750D01*
X49349Y13401D01*
G37*
G36*
G01X25500Y147500D02*
X24500Y148500D01*
Y188500D01*
X31500Y195500D01*
Y208142D01*
G02X32207Y208401I401J0D01*
G03X34702Y208294I1297J1099D01*
G03Y210706I1198J1206D01*
G03X32207Y210599I-1198J-1206D01*
G02X31500Y210858I-306J259D01*
G01Y214500D01*
X36500Y219500D01*
X46000D01*
X46500Y219000D01*
Y214042D01*
G03X45913Y213424I900J-1442D01*
G01X45899Y213399D01*
X43500Y211000D01*
Y203801D01*
X43479Y203759D01*
G03Y202241I1521J-759D01*
G01X43500Y202199D01*
Y179500D01*
X41000Y177000D01*
X33000D01*
X31000Y175000D01*
Y155500D01*
X33500Y153000D01*
Y149000D01*
X32000Y147500D01*
X25500D01*
G37*
G36*
G01X60404Y239400D02*
G02I-9904J0D01*
G37*
G36*
G01X68000Y42000D02*
X70117Y44117D01*
X88932D01*
X137140Y72380D01*
X151000Y77000D01*
X279000D01*
X280000Y76000D01*
Y63000D01*
X282000Y61000D01*
X297000D01*
X302000Y56000D01*
X384500D01*
X386000Y54500D01*
Y14500D01*
X385000Y13500D01*
X375700D01*
Y15700D01*
X374800Y18700D01*
X373500Y21700D01*
X372200Y23800D01*
X370200Y26100D01*
X367500Y28300D01*
X364800Y30000D01*
X361500Y31200D01*
Y44500D01*
X361099Y44901D01*
X208901D01*
X208900Y44900D01*
X208300D01*
X207800Y44400D01*
Y31000D01*
X204900Y30100D01*
X201500Y28100D01*
X199200Y26200D01*
X196600Y23100D01*
X195100Y20300D01*
X193900Y17000D01*
X193643Y13400D01*
X87100D01*
X86700Y17200D01*
X85100Y21500D01*
X81900Y26000D01*
X77700Y29200D01*
X73200Y31100D01*
X67979Y31833D01*
X67000Y32812D01*
Y41000D01*
X68000Y42000D01*
G37*
G36*
G01X361000Y88000D02*
X357000Y84000D01*
X355349D01*
G02X354950Y84422I0J400D01*
G03X352324Y85352I-1450J78D01*
G02X351676I-324J234D01*
G03X351637Y85403I-1173J-856D01*
G01X351535Y85534D01*
X351735Y85762D01*
X351804Y85775D01*
G03X353249Y87400I-304J1725D01*
G02X353696Y87775I400J-23D01*
G03X354992Y90944I304J1725D01*
G03X354100Y91249I-992J-1444D01*
G02X353728Y91714I23J400D01*
G03X350251Y92100I-1728J286D01*
G02X349786Y91728I-400J23D01*
G03X348056Y90992I-286J-1728D01*
G03X348483Y88573I1444J-992D01*
G03X349410Y88250I1017J1427D01*
G02X349772Y87786I-33J-399D01*
G03X350100Y86447I1728J-286D01*
G02X349936Y85838I-320J-240D01*
G03X349050Y84422I564J-1338D01*
G02X348651Y84000I-399J-22D01*
G01X327345D01*
G02X326947Y84366I0J400D01*
G03X324053I-1447J-122D01*
G02X323655Y84000I-398J34D01*
G01X279671D01*
G02X279285Y84507I-1J400D01*
G03X276061Y86166I-1785J493D01*
G02X275439I-311J251D01*
G03X272561I-1439J-1166D01*
G02X271939I-311J251D01*
G03X271525Y86542I-1438J-1167D01*
G02X271614Y87253I221J333D01*
G03X269561Y90166I-614J1747D01*
G02X268939I-311J251D01*
G03Y87834I-1439J-1166D01*
G02X269561I311J-251D01*
G03X269975Y87458I1438J1167D01*
G02X269886Y86747I-221J-333D01*
G03X268843Y85827I614J-1747D01*
G02X268165Y85767I-358J179D01*
G03X265602Y84508I-1165J-867D01*
G02X265217Y84000I-385J-108D01*
G01X250226D01*
Y90927D01*
X250242Y90965D01*
Y90966D01*
G03X247758I-1242J534D01*
G01Y90965D01*
X247774Y90927D01*
Y85008D01*
X247492Y84726D01*
X242442D01*
X242403Y84875D01*
G03X239550Y84422I-1403J-374D01*
G02X239151Y84000I-399J-22D01*
G01X201361D01*
X201343Y84180D01*
G03X197855Y84851I-1843J-180D01*
G02X197145I-355J184D01*
G03X194061Y85166I-1645J-851D01*
G02X193439I-311J251D01*
G03X192851Y85645I-1439J-1166D01*
G02Y86355I184J355D01*
G03X190151Y88101I-851J1645D01*
G02X189618Y87746I-399J22D01*
G03X188178Y87660I-618J-1746D01*
G02X187601Y88032I-177J358D01*
G03X185010Y88616I-1351J46D01*
G01X184995Y88581D01*
X184979Y88543D01*
X184774Y88337D01*
Y84000D01*
X177849D01*
G02X177450Y84422I0J400D01*
G03X174550I-1450J78D01*
G02X174151Y84000I-399J-22D01*
G01X169992D01*
G02X169605Y84501I0J400D01*
G03X166795I-1405J367D01*
G02X166408Y84000I-387J-101D01*
G01X161000D01*
X122587Y69640D01*
X99500Y56000D01*
X93000Y49500D01*
X88000Y47000D01*
X77107D01*
G02X76708Y47423I0J400D01*
G03X75031Y48812I-1350J77D01*
G01X74890Y48777D01*
X73500Y51000D01*
Y65552D01*
G03Y67448I-1100J948D01*
G01Y76580D01*
G03Y78410I-995J915D01*
G01Y82900D01*
X68900Y87500D01*
Y97000D01*
X73500Y101600D01*
Y178500D01*
X77500Y182500D01*
X109636D01*
X109659Y182326D01*
G03X112341I1341J174D01*
G01X112364Y182500D01*
X119500D01*
X174250Y127750D01*
X186615Y124966D01*
X186734D01*
X186769Y124931D01*
X188705Y124495D01*
X188674Y124308D01*
G03X189059Y122837I1826J-308D01*
G02X188925Y122227I-311J-251D01*
G03X188533Y119170I823J-1659D01*
G02Y118566I-262J-302D01*
G03X190963I1215J-1398D01*
G02Y119170I262J302D01*
G03X191189Y121731I-1215J1398D01*
G02X191323Y122341I311J251D01*
G03X191939Y122834I-823J1659D01*
G02X192561I311J-251D01*
G03X195457Y122857I1439J1166D01*
G01X195535Y122957D01*
X196055Y122840D01*
X196098Y122790D01*
G03X198246Y122306I1401J1210D01*
G01X198306Y122332D01*
X215016Y118570D01*
X267695D01*
G03X269453I879J1630D01*
G01X340430D01*
X361000Y98000D01*
Y88000D01*
G37*
G36*
G01X146700Y159900D02*
X137000Y169600D01*
Y177500D01*
X139800Y180300D01*
X174868D01*
G03X176822I977J935D01*
G01X200100D01*
X208800Y189000D01*
Y189800D01*
X210440Y191440D01*
G02X210979Y191464I283J-283D01*
G03X213056Y191900I866J1038D01*
G01X213784D01*
G03X216206I1211J601D01*
G01X216935D01*
G03X219357I1211J602D01*
G01X220085D01*
G03X222484Y191856I1211J601D01*
G01X222607Y191979D01*
G02X223245Y191880I283J-283D01*
G03X225068Y193703I1201J622D01*
G02X224969Y194341I184J355D01*
G01X225756Y195128D01*
G02X226394Y195029I283J-283D01*
G03X228217Y196852I1201J622D01*
G02X228118Y197490I184J355D01*
G01X228900Y198272D01*
Y201598D01*
X228906Y201622D01*
G03X228945Y201873I-1311J332D01*
G01X228949Y201949D01*
X229000Y202000D01*
Y204700D01*
X231332Y207032D01*
X231361Y207047D01*
G03X231950Y207636I-615J1204D01*
G01X231965Y207665D01*
X233000Y208700D01*
Y212871D01*
G02X233513Y213255I400J0D01*
G03Y215849I382J1297D01*
G02X233000Y216233I-113J384D01*
G01Y218000D01*
X238400Y223400D01*
G02X239028Y223319I283J-283D01*
G03X240877Y225168I1167J682D01*
G02X240796Y225796I202J345D01*
G01X241551Y226551D01*
G02X242179Y226470I283J-283D01*
G03X244028Y228319I1167J682D01*
G02X243947Y228947I202J345D01*
G01X247500Y232500D01*
X248686D01*
G03X250606I960J952D01*
G01X251835D01*
G03X253755I960J952D01*
G01X254984D01*
G03X256906I961J951D01*
G01X258137D01*
G03X260055I959J953D01*
G01X261285D01*
G03X263207I961J951D01*
G01X264300D01*
X264737Y232063D01*
G02X264669Y231443I-283J-283D01*
G03X265574Y228962I726J-1141D01*
G01X265587Y228964D01*
X265800D01*
Y228491D01*
X265587D01*
X265574Y228492D01*
G03X265399Y225800I-179J-1340D01*
G02X265800Y225400I1J-400D01*
G01Y222603D01*
G02X265399Y222203I-400J0D01*
G03X265574Y219511I-4J-1352D01*
G01X265587Y219512D01*
X265800D01*
Y219035D01*
X265586D01*
X265573Y219037D01*
G03X264277Y216931I-182J-1340D01*
G01X264371Y216794D01*
X260577Y213000D01*
Y197421D01*
X256746Y193590D01*
G03X254856Y191700I-801J-1089D01*
G01X253956Y190800D01*
X247745D01*
X244816Y193728D01*
X243915D01*
X243878Y193745D01*
G03X243724Y191204I-533J-1243D01*
G01X243838Y191238D01*
X245700Y189375D01*
Y186500D01*
X244500Y185300D01*
X238723D01*
G02X238340Y185815I0J400D01*
G03X236512Y187445I-1295J387D01*
G01X236475Y187428D01*
X233194D01*
X232551Y186786D01*
G02X231921Y186871I-283J283D01*
G03X230902Y184859I-1175J-669D01*
G01X230914Y184860D01*
X231126D01*
Y184393D01*
X230914D01*
X230902Y184394D01*
G03X229887Y182007I-156J-1343D01*
G02X229915Y181415I-254J-309D01*
G01X229900Y181400D01*
Y180957D01*
G03X229398Y179799I846J-1055D01*
G01X229399Y179791D01*
Y179584D01*
X228943D01*
Y179799D01*
G03X226247I-1348J102D01*
G01Y179584D01*
X225794D01*
Y179799D01*
G03X223147Y179527I-1348J102D01*
G01X223179Y179414D01*
X221783Y178018D01*
X221670Y178050D01*
G03X221299Y175399I-374J-1299D01*
G02X221500Y175199I1J-200D01*
G01Y167600D01*
X214050Y160150D01*
X208502D01*
Y160502D01*
X183998D01*
Y159900D01*
X146700D01*
G37*
G36*
G01X431484Y56144D02*
X444000Y48441D01*
Y13404D01*
X388000D01*
Y53157D01*
X390989Y57000D01*
X402535D01*
X409202Y67000D01*
X413111D01*
X431484Y56144D01*
G37*
G36*
G01X447099Y13401D02*
X446000Y14500D01*
Y49914D01*
X415500Y68500D01*
Y74000D01*
X416500Y75000D01*
X441500D01*
X448000Y68500D01*
X522500D01*
X541500Y87500D01*
Y99169D01*
X545502Y103171D01*
Y112829D01*
X542500Y115831D01*
Y149500D01*
X537500Y154500D01*
X536331D01*
X536329Y154502D01*
X530498D01*
X527500Y157500D01*
Y159500D01*
X523000Y164000D01*
Y168000D01*
X523999Y168998D01*
X532136D01*
X532159Y168824D01*
G03X534841I1341J176D01*
G01X534864Y168998D01*
X541878D01*
X560878Y149998D01*
X578815D01*
Y149786D01*
G03X581519I1352J-13D01*
G01Y149998D01*
X582115D01*
Y149786D01*
G03X584819I1352J-13D01*
G01Y149998D01*
X594122D01*
X596002Y151878D01*
Y156122D01*
X594122Y158002D01*
X573147D01*
G02X572771Y158538I0J400D01*
G03X570229I-1271J462D01*
G02X569853Y158002I-376J-136D01*
G01X569639D01*
G02X569446Y158255I0J200D01*
G01X569460Y158304D01*
X569472Y158326D01*
G03X569602Y159364I-1172J674D01*
G03X567590Y160150I-1302J-364D01*
G03X567029Y158538I709J-1151D01*
G02X566653Y158002I-376J-136D01*
G01X564622D01*
X545622Y177002D01*
X521499D01*
X517500Y181000D01*
X514000D01*
X511250Y178250D01*
X503043D01*
G03X500557I-1243J-750D01*
G01X491750D01*
X491000Y179000D01*
Y180636D01*
X491174Y180659D01*
G03Y183341I-174J1341D01*
G01X491000Y183364D01*
Y204000D01*
X491500Y204500D01*
X493765D01*
X510492Y187774D01*
X516429D01*
X516466Y187757D01*
G03Y190243I534J1243D01*
G01X516429Y190226D01*
X511508D01*
X494000Y207735D01*
Y222293D01*
G02X494480Y222685I400J0D01*
G03X494590Y222664I308J1316D01*
G03X495842Y223144I206J1336D01*
G02X496453I305J-258D01*
G03Y224856I1047J856D01*
G02X495842I-305J258D01*
G03X494590Y225336I-1046J-856D01*
G03X494480Y225315I198J-1337D01*
G02X494000Y225707I-80J392D01*
G01Y227500D01*
X491000Y230500D01*
Y231737D01*
X491110Y231793D01*
G03X491465Y232053I-611J1206D01*
G02X492035I285J-281D01*
G03Y233947I965J947D01*
G02X491465I-285J281D01*
G03X491110Y234207I-966J-946D01*
G01X491000Y234263D01*
Y236000D01*
X490000Y237000D01*
Y252000D01*
X491000Y253000D01*
Y270000D01*
X487000Y274000D01*
X477000D01*
X472000Y279000D01*
X457000D01*
X456000Y280000D01*
Y283000D01*
X457599Y284599D01*
X505450D01*
X505700Y284499D01*
X506099Y284299D01*
X506599Y283799D01*
X506899Y283400D01*
X506999Y282800D01*
Y270000D01*
X507099Y268800D01*
X507399Y266600D01*
X507799Y264700D01*
X509399Y261000D01*
X510799Y258399D01*
X512399Y256599D01*
X513399Y255399D01*
X515399Y253799D01*
X516799Y252599D01*
X520600Y250699D01*
X520900Y250599D01*
X522300Y250199D01*
X523600Y249799D01*
X524100Y249699D01*
X525800Y249399D01*
X527000Y249199D01*
X560199D01*
Y163400D01*
X560800Y162799D01*
X602799D01*
Y127601D01*
X579800D01*
X579199Y127000D01*
Y74401D01*
X535300D01*
X534599Y73700D01*
Y13401D01*
X520224D01*
X519100Y19300D01*
X516900Y23500D01*
X514000Y27100D01*
X509000Y30200D01*
X502800Y31800D01*
X498400Y31600D01*
X494000Y30400D01*
X490000Y28300D01*
X486800Y25200D01*
X484000Y20900D01*
X482500Y16300D01*
X482200Y13401D01*
X447099D01*
G37*
G36*
G01X483304Y92600D02*
G02I-9904J0D01*
G37*
G36*
G01X505500Y175500D02*
X545000D01*
X554000Y166500D01*
X564000Y156500D01*
X593500D01*
X594500Y155500D01*
Y152500D01*
X593500Y151500D01*
X561500D01*
X549000Y164000D01*
X542500Y170500D01*
X501500D01*
X501000D01*
X500500Y171000D01*
X471000D01*
X468500Y168500D01*
X467000D01*
X463000D01*
X462500Y169000D01*
Y172500D01*
X465000Y175000D01*
X465500Y175500D01*
X466000Y176000D01*
X502500D01*
X505000D01*
X505500Y175500D01*
G37*
%LPC*%
G75*
G36*
G01X253285Y63053D02*
G03X252715I-285J-281D01*
G02Y64947I-965J947D01*
G03X253285I285J281D01*
G02Y63053I965J-947D01*
G37*
G36*
G01X229785D02*
G03X229215I-285J-281D01*
G02Y64947I-965J947D01*
G03X229785I285J281D01*
G02Y63053I965J-947D01*
G37*
G36*
G01X265000Y65934D02*
G02Y63066I1250J-1434D01*
G02Y65934I-1250J1434D01*
G37*
G36*
G01X241250Y65434D02*
G02Y62566I1250J-1434D01*
G02Y65434I-1250J1434D01*
G37*
G36*
G01X288535Y52553D02*
G03X287965I-285J-281D01*
G02Y54447I-965J947D01*
G03X288535I285J281D01*
G02Y52553I965J-947D01*
G37*
G36*
G01X315658Y49801D02*
G02Y51199I-1158J699D01*
G03X316342I342J206D01*
G02Y49801I1158J-699D01*
G03X315658I-342J-206D01*
G37*
G36*
G01X184352Y102676D02*
G02X182648I-852J-1176D01*
G03Y103324I-234J324D01*
G02Y105676I852J1176D01*
G03Y106324I-234J324D01*
G02X184352I852J1176D01*
G03Y105676I234J-324D01*
G02Y103324I-852J-1176D01*
G03Y102676I234J-324D01*
G37*
G36*
G01X105176Y139648D02*
G02Y141352I-1176J852D01*
G03X105824I324J234D01*
G02Y139648I1176J-852D01*
G03X105176I-324J-234D01*
G37*
G36*
G01X93263Y75455D02*
G03X92806Y75683I-366J-162D01*
G02X92804Y78317I-306J1317D01*
G03X93261Y78546I91J390D01*
G02X95532Y77130I1237J-545D01*
G03X95533Y76873I154J-128D01*
G02X93263Y75455I-1033J-873D01*
G37*
G36*
G01X119561Y81834D02*
G03X118939I-311J-251D01*
G02Y84166I-1439J1166D01*
G03X119561I311J251D01*
G02Y81834I1439J-1166D01*
G37*
G36*
G01X112061Y86334D02*
G03X111439I-311J-251D01*
G02X108834Y88939I-1439J1166D01*
G03Y89561I-251J311D01*
G02X111439Y92166I1166J1439D01*
G03X112061I311J251D01*
G02X114666Y89561I1439J-1166D01*
G03Y88939I251J-311D01*
G02X112061Y86334I-1166J-1439D01*
G37*
G36*
G01X271866Y95973D02*
G03X271848Y95387I263J-301D01*
G02X268761Y93583I-1300J-1319D01*
G03X268281Y93867I-386J-105D01*
G02X266633Y97066I-433J1801D01*
G03Y97670I-262J302D01*
G02X268454Y100818I1215J1398D01*
G03X268969Y101084I131J378D01*
G02X272009Y99211I1779J-516D01*
G03X271991Y98643I272J-293D01*
G02X271866Y95973I-1343J-1275D01*
G37*
G36*
G01X191118Y95712D02*
G03X190595Y95558I-179J-357D01*
G02X187619Y97734I-1594J942D01*
G03Y98266I-299J266D01*
G02Y100734I1381J1234D01*
G03Y101266I-299J266D01*
G02X190847Y102642I1381J1234D01*
G03X191388Y102298I399J30D01*
G02X193309Y99211I660J-1730D01*
G03X193291Y98643I272J-293D01*
G02X191118Y95712I-1343J-1275D01*
G37*
G36*
G01X111958Y101642D02*
G03X112491Y101553I315J246D01*
G02X114881Y98766I1009J-1553D01*
G03Y98234I299J-266D01*
G02X112266Y95619I-1381J-1234D01*
G03X111734I-266J-299D01*
G02X109334Y98439I-1233J1382D01*
G03Y99061I-251J311D01*
G02Y101939I1166J1439D01*
G03Y102561I-251J311D01*
G02X111666I1166J1439D01*
G03Y101939I251J-311D01*
G02X111958Y101642I-1166J-1439D01*
G37*
G36*
G01X161313Y98648D02*
G03X160904Y98239I-9J-400D01*
G02X157800I-1552J-39D01*
G03X157391Y98648I-400J9D01*
G02Y101752I-39J1552D01*
G03X157800Y102161I9J400D01*
G02X160904I1552J39D01*
G03X161313Y101752I400J-9D01*
G02Y98648I39J-1552D01*
G37*
G36*
G01X318661D02*
G03X318252Y98239I-9J-400D01*
G02X315148I-1552J-39D01*
G03X314739Y98648I-400J9D01*
G02Y101752I-39J1552D01*
G03X315148Y102161I9J400D01*
G02X318252I1552J39D01*
G03X318661Y101752I400J-9D01*
G02Y98648I39J-1552D01*
G37*
G36*
G01X236449Y98239D02*
G03X236039Y98649I-400J10D01*
G02Y101752I-39J1552D01*
G03X236448Y102161I9J400D01*
G02X239551I1552J39D01*
G03X239961Y101751I400J-10D01*
G02X239962Y98647I39J-1552D01*
G03X239553Y98238I-9J-400D01*
G02X236449Y98239I-1552J-37D01*
G37*
G36*
G01X322667Y109615D02*
G03X322710Y109032I294J-271D01*
G02X320733Y108885I-910J-1132D01*
G03X320690Y109468I-294J271D01*
G02X322667Y109615I910J1132D01*
G37*
G36*
G01X242110Y108667D02*
G03X241905Y109222I-355J184D01*
G02X243738Y109901I544J1346D01*
G03X243943Y109346I355J-184D01*
G02X242110Y108667I-544J-1346D01*
G37*
G36*
G01X108166Y115061D02*
G03Y114439I251J-311D01*
G02X105834I-1166J-1439D01*
G03Y115061I-251J311D01*
G02Y117939I1166J1439D01*
G03Y118561I-251J311D01*
G02X108166I1166J1439D01*
G03Y117939I251J-311D01*
G02Y115061I-1166J-1439D01*
G37*
G36*
G01X116002Y122453D02*
G03X115398I-302J-262D01*
G02Y124883I-1398J1215D01*
G03X116002I302J262D01*
G02X118716Y124971I1398J-1215D01*
G03X119284I284J282D01*
G02Y122365I1316J-1303D01*
G03X118716I-284J-282D01*
G02X116002Y122453I-1316J1303D01*
G37*
G36*
G01X129625Y130156D02*
G03X129075I-275J-290D01*
G02Y132844I-1275J1344D01*
G03X129625I275J290D01*
G02Y130156I1275J-1344D01*
G37*
G36*
G01X126117Y161131D02*
G03X126099Y161682I-299J266D01*
G02X128783Y161769I1301J1318D01*
G03X128801Y161218I299J-266D01*
G02X126117Y161131I-1301J-1318D01*
G37*
G36*
G01X155834Y167872D02*
G03X156438Y167855I309J253D01*
G02X156366Y165428I1362J-1255D01*
G03X155762Y165445I-309J-253D01*
G02X155834Y167872I-1362J1255D01*
G37*
G36*
G01X169748Y177258D02*
G02X169791Y178665I-1248J742D01*
G03X170484Y178633I356J183D01*
G02X170441Y177248I1139J-729D01*
G03X169748Y177258I-349J-195D01*
G37*
G36*
G01X414349Y50105D02*
G02X411649Y51645I-1849J-105D01*
G03Y52355I-184J355D01*
G02Y55645I851J1645D01*
G03Y56355I-184J355D01*
G02X414349Y57895I851J1645D01*
G03X414971Y57540I399J-23D01*
G02X417849Y56101I1029J-1540D01*
G03X418382Y55746I399J22D01*
G02Y52254I618J-1746D01*
G03X417849Y51899I-134J-377D01*
G02X414971Y50460I-1849J101D01*
G03X414349Y50105I-223J-332D01*
G37*
G36*
G01X511947Y210535D02*
G03Y209965I281J-285D01*
G02X510053I-947J-965D01*
G03Y210535I-281J285D01*
G02X511947I947J965D01*
G37*
G36*
G01X522447Y196235D02*
G03Y195665I281J-285D01*
G02X520553I-947J-965D01*
G03Y196235I-281J285D01*
G02X522447I947J965D01*
G37*
G36*
G01X555666Y81061D02*
G03Y80439I251J-311D01*
G02X552899Y78070I-1166J-1439D01*
G03X552277Y78159I-346J-201D01*
G02X549834Y80939I-1278J1341D01*
G03Y81561I-251J311D01*
G02X552601Y83930I1166J1439D01*
G03X553223Y83841I346J201D01*
G02X555666Y81061I1278J-1341D01*
G37*
G36*
G01X530666Y58061D02*
G03Y57439I251J-311D01*
G02X528334I-1166J-1439D01*
G03Y58061I-251J311D01*
G02Y60939I1166J1439D01*
G03Y61561I-251J311D01*
G02X530666I1166J1439D01*
G03Y60939I251J-311D01*
G02Y58061I-1166J-1439D01*
G37*
G36*
G01X471671Y49498D02*
X468671Y52498D01*
X459829D01*
X459415Y52085D01*
G02X456585Y54915I-1415J1415D01*
G01X458171Y56502D01*
X470329D01*
X472498Y54332D01*
G03X473175Y54683I283J283D01*
G02X473834Y56439I1825J317D01*
G03Y57061I-251J311D01*
G02X476439Y59666I1166J1439D01*
G03X477061I311J251D01*
G02X479939I1439J-1166D01*
G03X480561I311J251D01*
G02X483166Y57061I1439J-1166D01*
G03Y56439I251J-311D01*
G02X483617Y54097I-1166J-1439D01*
G03X483966Y53502I349J-195D01*
G01X497171D01*
X501671Y58002D01*
X506534D01*
G03X506883Y58597I0J400D01*
G02X507334Y60939I1617J903D01*
G03Y61561I-251J311D01*
G02X509666I1166J1439D01*
G03Y60939I251J-311D01*
G02X509760Y58143I-1166J-1439D01*
G03X509777Y57541I272J-294D01*
G02X508500Y53998I-1277J-1541D01*
G01X503329D01*
X498829Y49498D01*
X471671D01*
G37*
G36*
G01X518699Y204658D02*
G02X517301I-699J-1158D01*
G03Y205342I-206J342D01*
G02X518699I699J1158D01*
G03Y204658I206J-342D01*
G37*
G36*
G01X553782Y125723D02*
G02X552218I-782J-1223D01*
G03X552230Y126389I-216J337D01*
G02X553770I770J1111D01*
G03X553782Y125723I228J-329D01*
G37*
G54D30*
X35000Y204700D03*
Y197500D03*
X36450Y192920D03*
Y187016D03*
Y181112D03*
G54D32*
X139859Y148481D03*
X137859Y151481D03*
X135859Y148481D03*
X137859Y145481D03*
G54D35*
X495500Y269000D03*
G54D29*
X37500Y27047D03*
X235441Y64500D03*
X247252D03*
X259063D03*
X270874D03*
X330000Y50500D03*
X326500D03*
X353000Y100500D03*
X256000Y88500D03*
X152000Y83500D03*
X101000Y126000D03*
X106000Y68000D03*
X95000Y178000D03*
X82500Y100000D03*
X94000Y65500D03*
X77500Y87500D03*
X144000Y167500D03*
X206000Y170500D03*
X218146Y170452D03*
Y176752D03*
X214996Y170452D03*
X218146Y173602D03*
X211845Y170452D03*
X214995Y173602D03*
X214996Y176752D03*
X211846Y173602D03*
Y179902D03*
X218146Y179901D03*
X214995Y179902D03*
X224446Y186202D03*
X214996D03*
X221296Y183051D03*
X211846D03*
X214995D03*
X211845Y186202D03*
X218146D03*
X214995Y189352D03*
X211846D03*
X230746D03*
Y192501D03*
X227595Y186202D03*
X237046Y189352D03*
X233896Y201952D03*
X237046Y195652D03*
X240195Y208251D03*
X237045Y201952D03*
X240195Y198802D03*
X240196Y201952D03*
X237046Y198802D03*
X240196Y195651D03*
X237046Y208251D03*
X240196Y217702D03*
X240195Y220852D03*
X237045Y211402D03*
X240201Y214547D03*
X237046Y214552D03*
X249636Y208242D03*
X249645Y198802D03*
X243345Y195651D03*
Y201952D03*
X255945Y198802D03*
X252795Y201952D03*
Y195651D03*
X255945Y208251D03*
X249646Y201952D03*
Y195651D03*
X243346Y198802D03*
X255945Y195652D03*
X255946Y201952D03*
X252796Y198802D03*
X243345Y208252D03*
X252796Y208251D03*
X249646Y217702D03*
X252795D03*
X243345Y211402D03*
X252795D03*
X249645Y214552D03*
X255945D03*
Y220852D03*
X243346Y214552D03*
X249636Y211392D03*
X252791Y214547D03*
X255941Y211397D03*
X243345Y220851D03*
X255945Y224001D03*
X252796D03*
X252795Y227152D03*
X255941Y227147D03*
X249646Y230302D03*
X255945D03*
X262241Y220847D03*
Y217697D03*
X262246Y224001D03*
X259091Y214547D03*
Y223997D03*
X259096Y230301D03*
Y227152D03*
X262241Y227147D03*
X502000Y210000D03*
X553000Y149500D03*
X552500Y152700D03*
X561217Y138773D03*
X561000Y142000D03*
X591500Y136000D03*
G54D33*
X126000Y82765D03*
X123000Y87500D03*
G54D31*
X298500Y50500D03*
X327798Y91018D03*
X307713Y104468D03*
X296148Y112968D03*
X261000Y105000D03*
X229013Y104468D03*
X217448Y112968D03*
X163800Y119518D03*
X164200Y108700D03*
X170450Y91018D03*
X150365Y104468D03*
X138800Y112968D03*
X141500Y82500D03*
X128900Y151400D03*
Y147400D03*
X121500Y157500D03*
X123650Y143250D03*
X116500Y132600D03*
X128550Y142550D03*
X123165Y72665D03*
X106000Y151121D03*
X110850Y152200D03*
X99000Y147500D03*
X100500Y158350D03*
X111000Y160150D03*
X107000Y135500D03*
X105500Y105800D03*
X101500Y70000D03*
X112488Y75988D03*
X104512D03*
X101650Y64350D03*
X97000Y167000D03*
X92000Y175000D03*
X96441Y140100D03*
X92500Y143000D03*
X90500Y107000D03*
Y111000D03*
X94241Y70759D03*
X94150Y61850D03*
X156700Y174200D03*
X151000Y170600D03*
X205000Y164500D03*
X213696Y165672D03*
X502000Y193500D03*
X504000Y190000D03*
X502000Y204000D03*
X502500Y216000D03*
G54D34*
X95300Y92500D03*
%LPD*%
G75*
G36*
G01X105204Y92500D02*
G02I-9904J0D01*
G37*
G36*
G01X528804Y239200D02*
G02I-9904J0D01*
G37*
G54D10*
G01X286623Y64623D02*
Y66623D01*
X289900Y69900D01*
X388400D01*
X400400Y81900D01*
X445400D01*
X449300Y78000D01*
X508900D01*
X529000Y98100D01*
Y104000D01*
X535500Y110500D01*
Y126000D01*
X533440Y128060D01*
X528000D01*
G01X521000Y159500D02*
Y156500D01*
X525000Y152500D01*
X535500D01*
X539500Y148500D01*
Y116000D01*
X543500Y112000D01*
Y104000D01*
X537000Y97500D01*
Y86500D01*
X528300Y77800D01*
X514900D01*
X512100Y75000D01*
X446400D01*
X443400Y78000D01*
X402000D01*
X383200Y59200D01*
X302200D01*
X298434Y62966D01*
Y64566D01*
G01X370500Y111000D02*
X375487Y106013D01*
Y92661D01*
G01X508500Y56000D02*
X502500D01*
X498000Y51500D01*
X472500D01*
X469500Y54500D01*
X459000D01*
X458000Y53500D01*
X17700Y143900D03*
X19000Y152000D03*
X18900Y149500D03*
X18500Y197500D03*
X29650Y30350D03*
X33000Y161500D03*
X27000Y151500D03*
X32400D03*
X29500D03*
X21500Y152000D03*
X33000Y158800D03*
Y156300D03*
X32500Y169600D03*
Y172500D03*
X33000Y166500D03*
Y164000D03*
X19300Y200600D03*
X33504Y209500D03*
X35000Y204700D03*
Y197500D03*
X19700Y212200D03*
X19500Y216000D03*
X39000Y14500D03*
X47500D03*
X47571Y70596D03*
X46300Y107300D03*
X47900Y109200D03*
X35300Y109592D03*
X39000Y109800D03*
X43000Y108300D03*
X43500Y116300D03*
X46300Y137550D03*
X49500Y139500D03*
X48900Y133000D03*
X45000Y148500D03*
X50000D03*
X47500D03*
X36000Y146069D03*
Y149000D03*
X35500Y153000D03*
X36500Y170000D03*
X36450Y175208D03*
Y181112D03*
Y187016D03*
Y192920D03*
X35900Y209500D03*
X49500Y206200D03*
X45000Y203000D03*
X47400Y212600D03*
X45000Y216000D03*
Y218504D03*
X40500Y225000D03*
X45000Y222440D03*
X42000Y238500D03*
X45000Y233000D03*
X50500Y248000D03*
X43500Y244500D03*
X65600Y41400D03*
X59114Y62065D03*
X64500Y87500D03*
X56750Y128750D03*
X60500Y122500D03*
X53308Y122708D03*
X63350Y130650D03*
X54000Y156000D03*
X53000Y159000D03*
Y161500D03*
X54000Y149150D03*
Y152000D03*
X54500Y200000D03*
X59000Y239500D03*
X51000Y231000D03*
X57000Y234000D03*
X56500Y245500D03*
X81000Y28000D03*
X68000Y33000D03*
X74500Y31500D03*
X75000Y43000D03*
X72400Y66500D03*
X75000Y95500D03*
X69958Y93542D03*
X67400Y99300D03*
X68500Y170000D03*
X72650Y209150D03*
X77500Y213000D03*
X72547Y256400D03*
X75800Y259400D03*
X75500Y265500D03*
X68950Y262750D03*
X82094Y262700D03*
X72547Y281500D03*
X75500Y276500D03*
X89000Y14500D03*
X85500Y23000D03*
X94150Y61850D03*
X94241Y70759D03*
X96000Y84000D03*
X88500Y97500D03*
X87000Y91500D03*
X90000Y86000D03*
X90500Y111000D03*
Y107000D03*
X95500Y101000D03*
X92500Y143000D03*
X96441Y140100D03*
X92000Y175000D03*
X97000Y167000D03*
X85700Y207200D03*
X90100D03*
X86900Y203400D03*
X94350Y227650D03*
X95500Y252000D03*
X98400Y258500D03*
X90150Y266200D03*
X95500Y258500D03*
X90500Y282150D03*
X87550Y282200D03*
X109000Y14500D03*
X99000D03*
X100500Y24500D03*
X110000Y50000D03*
X100000Y40000D03*
X101650Y64350D03*
X104512Y75988D03*
X112488D03*
X101500Y70000D03*
Y98500D03*
X104000Y92500D03*
X102000Y87000D03*
X105500Y105800D03*
X104000Y140500D03*
X107000Y135500D03*
Y140500D03*
X111000Y160150D03*
X100500Y158350D03*
X99000Y147500D03*
X110850Y152200D03*
X106000Y151121D03*
X103533Y207000D03*
X100900Y203100D03*
X111050Y200450D03*
X108633Y207152D03*
X100000Y206500D03*
X99500Y252000D03*
X107500Y251500D03*
X112000Y271000D03*
X113000Y280200D03*
X108300Y277700D03*
Y281200D03*
X108027Y273500D03*
X119000Y14500D03*
X130000Y50000D03*
X120000Y40000D03*
Y60000D03*
X123165Y72665D03*
X128550Y142550D03*
X116500Y132600D03*
X123650Y143250D03*
X121500Y157500D03*
X128900Y147400D03*
Y151400D03*
X121950Y200550D03*
X129669Y214931D03*
X124900Y209900D03*
X121315Y218300D03*
X121355Y224500D03*
X115000Y228500D03*
X124150Y271650D03*
X119900Y271600D03*
X128050Y276050D03*
X134500Y14500D03*
X140000Y40000D03*
Y60000D03*
X141500Y82500D03*
X138800Y112968D03*
X142800Y175600D03*
X143692Y234686D03*
X149000Y14500D03*
X159000D03*
X150000Y70000D03*
X150365Y104468D03*
X156700Y174200D03*
X151000Y170600D03*
X169000Y14500D03*
X176000Y84500D03*
X168200Y84868D03*
X170450Y91018D03*
X164200Y108700D03*
X163800Y119518D03*
X168500Y178000D03*
X179000Y14500D03*
X189000D03*
X180000Y70000D03*
X183500Y104500D03*
Y101500D03*
Y107500D03*
X181700Y157400D03*
X188000Y255500D03*
X206000Y32000D03*
X197433Y26520D03*
X209000Y46000D03*
X206500Y36500D03*
X208571Y52000D03*
X210000Y70000D03*
X205500Y132000D03*
X205000Y164500D03*
X202222Y241880D03*
X195250Y249750D03*
X219000Y46000D03*
X220000Y60000D03*
X225000Y64000D03*
X217448Y112968D03*
X223800Y129300D03*
X211000Y128750D03*
X215100Y144700D03*
Y135200D03*
X222050Y144050D03*
X223800Y139700D03*
X221250Y157750D03*
X213696Y165672D03*
X226989Y246000D03*
X226217Y249611D03*
X239000Y46000D03*
X229000D03*
X241000Y84500D03*
X229013Y104468D03*
X227200Y129800D03*
X235666Y146355D03*
X238946Y155054D03*
X232858Y250089D03*
X257500Y46000D03*
X249000D03*
X247000Y50000D03*
X244000Y81000D03*
X252850Y81100D03*
X243400Y108000D03*
X242448Y110568D03*
X243000Y132000D03*
Y137000D03*
Y151500D03*
X256046Y160450D03*
X267500Y46000D03*
X267000Y84900D03*
X261000Y105000D03*
X260000Y160500D03*
X271500Y160501D03*
X287500Y46000D03*
X277500D03*
X283000Y48700D03*
X276500Y48500D03*
X286623Y64623D03*
X282685Y64500D03*
X285150Y133000D03*
X288850Y132850D03*
X280500Y160415D03*
X297500Y46000D03*
X298500Y50500D03*
X292500Y53500D03*
X296148Y112968D03*
X291550Y141000D03*
X291500Y151000D03*
X295435Y166500D03*
X305000D03*
X299500D03*
X295100Y252400D03*
X295500Y254500D03*
X299800Y282900D03*
X307500Y46000D03*
X317500D03*
X308500Y50500D03*
X310245Y64500D03*
X321800Y107900D03*
X307713Y104468D03*
X321600Y110600D03*
X312000Y166500D03*
X309500Y260100D03*
X327500Y46000D03*
X337500D03*
X323500Y50500D03*
X332200Y64500D03*
X323800D03*
X325500Y84244D03*
X327798Y91018D03*
X337000Y257800D03*
X328500Y260000D03*
X331500D03*
X347500Y46000D03*
X352000Y63500D03*
X345678Y64178D03*
X349000Y63500D03*
X350500Y84500D03*
X353500D03*
X347500Y208500D03*
X348000Y223500D03*
X348500Y226500D03*
X354000Y270500D03*
X349650Y276150D03*
X365000Y31500D03*
X368000D03*
X363000Y34500D03*
Y37500D03*
Y41500D03*
X357500Y46000D03*
X355500Y63500D03*
X358500D03*
X364300Y112300D03*
Y106800D03*
X362400Y114900D03*
X369000Y205000D03*
X357200Y203800D03*
X363750Y228850D03*
X359500Y238000D03*
X367500Y232500D03*
X355000Y252500D03*
X383000Y14500D03*
X377000D03*
X380000D03*
Y17000D03*
X383000D03*
X372500Y26500D03*
X376000Y20500D03*
Y24500D03*
X385500Y111500D03*
X385000Y103700D03*
X371000Y102000D03*
X383275Y115775D03*
X383000Y176000D03*
X385500Y178000D03*
X371000Y208000D03*
X382500Y201000D03*
X380694Y209118D03*
X380878Y211812D03*
X377500Y215000D03*
X372500Y219500D03*
X378000D03*
X370500Y215500D03*
X378000Y225500D03*
X379400Y228600D03*
X379544Y231556D03*
X377000Y250500D03*
X383000Y242000D03*
X384000Y248000D03*
X381000Y250000D03*
X371800Y268700D03*
X379000Y269400D03*
X399000Y100000D03*
X389500Y100500D03*
X387000Y101500D03*
X389000Y104000D03*
X391500Y103000D03*
X392500Y192000D03*
X400748Y201696D03*
X390500Y244000D03*
X394500D03*
X400000Y256000D03*
X401000Y244200D03*
X399500Y269500D03*
X395500D03*
X387700Y278861D03*
X396003Y276603D03*
X396200Y281000D03*
X405743Y114243D03*
X417528Y114219D03*
X416113Y171988D03*
X402600Y199600D03*
X407000Y196000D03*
X404900Y201700D03*
X402980Y246500D03*
X414500Y244000D03*
X411000Y248000D03*
X410700Y244200D03*
X406549Y246521D03*
X404720Y244056D03*
X431600Y105000D03*
X425350Y106350D03*
X429124Y163927D03*
X418689Y172798D03*
X430710Y177920D03*
X420285Y183938D03*
X423000Y209500D03*
X433500Y195000D03*
X428500Y194000D03*
X425200Y212100D03*
X430500Y225000D03*
X425080Y222000D03*
X422600Y231556D03*
X430500Y236000D03*
X430000Y252500D03*
X418000Y256000D03*
X430000Y242200D03*
X447500Y15000D03*
Y22500D03*
Y29500D03*
Y35500D03*
Y41500D03*
Y47000D03*
X445500Y103800D03*
X442500Y103700D03*
X438500Y125107D03*
X440500Y123500D03*
X446150Y115350D03*
X441500Y168000D03*
Y163500D03*
X445645Y168000D03*
X449200Y182800D03*
X437000Y184500D03*
X446500Y208500D03*
X436000Y195000D03*
X434500Y197500D03*
X441500Y208500D03*
X438650Y225150D03*
X438250Y210250D03*
X437000Y236500D03*
X443500Y236742D03*
X439500Y272500D03*
X434000D03*
X455000Y14500D03*
X464000D03*
X464500Y24500D03*
X455500D03*
X452500Y39500D03*
Y44000D03*
X458000Y53500D03*
X462500Y51500D03*
X465000Y91500D03*
X450963Y123963D03*
X451850Y115550D03*
X451750Y119250D03*
X455000Y123500D03*
X457000Y136500D03*
X454500Y133500D03*
X460500Y134500D03*
X450663Y133663D03*
X463000Y145000D03*
X454000Y161500D03*
X457000Y169000D03*
X462700Y181000D03*
X461500Y190000D03*
X456200Y182900D03*
X462500Y178000D03*
X451500Y208500D03*
X461508Y209580D03*
X461500Y196000D03*
X452500Y195000D03*
X453000Y239500D03*
X451300Y253400D03*
X452000Y272500D03*
X457000D03*
X471000Y14500D03*
X479000D03*
X471500Y24500D03*
X478500D03*
X479500Y98500D03*
X474000Y84000D03*
X480000Y87000D03*
X466500Y97500D03*
X468000Y86000D03*
X467000Y106500D03*
X472000Y106800D03*
X476500Y107000D03*
X473500Y101000D03*
X474000Y128500D03*
X470001Y132999D03*
X472496Y145000D03*
X478500Y156500D03*
X470650Y153650D03*
X467500Y165000D03*
X471500Y168000D03*
X481500Y169500D03*
X475500Y168000D03*
X477500Y203000D03*
X473000D03*
X467950Y223680D03*
X473112Y223280D03*
X473000Y230500D03*
X478000Y258500D03*
X476000Y265500D03*
X477553Y275553D03*
X471500Y279000D03*
X492500Y31500D03*
X488000Y32500D03*
X486500Y26500D03*
X484000Y23500D03*
X482000Y30000D03*
X485000D03*
X488000D03*
X485000Y32500D03*
X482000D03*
Y35000D03*
X485000D03*
X488000D03*
X482000Y37500D03*
X485000D03*
X488000D03*
X482000Y63500D03*
X485000D03*
X488000D03*
X494000D03*
X491000D03*
X497000D03*
X488500Y89000D03*
X486500Y85500D03*
X482000Y92500D03*
X494500Y105000D03*
X482000Y106500D03*
X488000Y106000D03*
X495311Y109500D03*
X495000Y116000D03*
X488800Y143350D03*
X489000Y135000D03*
X495100Y130500D03*
X488250Y160000D03*
X497250D03*
X490500Y169500D03*
X486000D03*
X496500D03*
X482000Y193500D03*
Y203000D03*
Y208000D03*
Y198500D03*
X491500Y203000D03*
X486500D03*
X488860Y223242D03*
X482970D03*
X482000Y212000D03*
X486000Y230500D03*
X489500Y254500D03*
X490550Y242950D03*
X486000Y258000D03*
X502500Y64500D03*
X500000Y63500D03*
X506000Y108740D03*
X513000Y124500D03*
X506500Y125000D03*
X513000Y118084D03*
X498000Y121000D03*
X498800Y135000D03*
X500500Y130350D03*
X506000Y160000D03*
X506400Y149500D03*
X499500Y169500D03*
X501800Y177500D03*
X502000Y193500D03*
X504000Y190000D03*
X502000Y204000D03*
X502500Y216000D03*
X507000Y221500D03*
X504350Y234150D03*
X510500Y238500D03*
X513500Y233000D03*
X504950Y252050D03*
X512000Y244500D03*
X500700Y275700D03*
X516500Y73800D03*
X524500Y106000D03*
X515700Y105500D03*
X528000Y128060D03*
X522300Y114500D03*
Y117500D03*
X528000Y140500D03*
X521000Y147500D03*
X517000Y168500D03*
X524000Y165500D03*
X518000Y177000D03*
X515500Y179000D03*
X514000Y184500D03*
Y187000D03*
X524000Y189500D03*
Y196000D03*
X527500Y239500D03*
X525500Y234000D03*
X519500Y231000D03*
X525000Y245500D03*
X519000Y248000D03*
X533500Y14500D03*
Y32000D03*
Y49000D03*
Y59000D03*
X543000Y75500D03*
X533500Y69000D03*
X535000Y103750D03*
X532500Y155500D03*
X531500Y248000D03*
X541500D03*
X561000Y75500D03*
X547000Y97150D03*
X559000Y91000D03*
X553000Y124500D03*
X559000Y128000D03*
X554000Y121500D03*
X557500Y118000D03*
X558300Y139400D03*
X559000Y168000D03*
Y178000D03*
Y186000D03*
Y198000D03*
Y218000D03*
Y238000D03*
Y228000D03*
X551500Y248000D03*
X559000D03*
X575390Y143600D03*
X570000Y161500D03*
X562000D03*
X572000Y150000D03*
X567327D03*
X578000Y75500D03*
Y108500D03*
Y124500D03*
Y116000D03*
X589500Y129000D03*
X586217Y140773D03*
X590000Y145000D03*
Y141000D03*
X592500Y161362D03*
X583500Y161500D03*
X586100Y149600D03*
X579138Y159194D03*
X590000Y148500D03*
X601500Y129000D03*
Y136000D03*
Y155000D03*
Y161500D03*
G54D20*
X441780Y181240D03*
G54D11*
X25000Y41000D03*
X29500D03*
X34500Y40500D03*
X33000Y37500D03*
X27500D03*
X23000Y38000D03*
X22100Y56200D03*
X20000Y63100D03*
X21900Y52300D03*
X20000Y59100D03*
X22799Y81361D03*
X19882Y74869D03*
X19891Y78269D03*
X29400Y81344D03*
X26199Y81353D03*
X20000Y66800D03*
X32500Y135500D03*
X21000Y135000D03*
X25000D03*
X36900Y133300D03*
X36500Y137000D03*
X60400Y104300D03*
X61096Y113300D03*
X61350Y110000D03*
X59421Y116028D03*
X80500Y50000D03*
X70500Y111000D03*
Y121500D03*
Y132500D03*
X68000Y152000D03*
X79000Y177000D03*
Y173500D03*
X76000Y175000D03*
Y196600D03*
X80000D03*
X78000Y193500D03*
X92000Y54500D03*
X84000Y50000D03*
X113500Y87500D03*
X110000D03*
Y91000D03*
X113500D03*
X110500Y97000D03*
X113500D03*
X107000Y113000D03*
X110500Y100500D03*
X113500Y100000D03*
X110500Y104000D03*
X114000Y123668D03*
X107000Y116500D03*
Y120000D03*
X123000Y87500D03*
X117500Y83000D03*
X121000D03*
X126000Y82765D03*
X120600Y123668D03*
X117400D03*
X127800Y131500D03*
X127500Y159900D03*
X127400Y163000D03*
X121100Y174400D03*
X121000Y171000D03*
X130900Y131500D03*
X143200Y171100D03*
X139400Y172600D03*
X136500Y193000D03*
X136000Y190000D03*
X133500Y194196D03*
X154400Y166700D03*
X157800Y166600D03*
X177900Y143400D03*
X178500Y89500D03*
Y93000D03*
X182000D03*
Y89500D03*
X189000Y86000D03*
X192000Y84000D03*
Y88000D03*
X191948Y97368D03*
X189000Y96500D03*
X192048Y100568D03*
X189000Y99500D03*
Y102500D03*
X194000Y124000D03*
X189748Y120568D03*
X190500Y124000D03*
X189748Y117168D03*
X179800Y140500D03*
X180200Y151300D03*
X178600Y148700D03*
X199500Y84000D03*
X195500D03*
X197500Y124000D03*
X258000Y93000D03*
X255000D03*
X261200Y93045D03*
X260000Y89500D03*
X271000Y89000D03*
X270500Y85000D03*
X267500Y89000D03*
X270548Y94068D03*
X267848Y95668D03*
X270648Y97368D03*
X267848Y99068D03*
X270748Y100568D03*
X271348Y123668D03*
X268574Y120200D03*
X268100Y123600D03*
X277500Y85000D03*
X274000D03*
X277948Y123668D03*
X274748D03*
X336000Y85500D03*
Y92500D03*
Y89000D03*
X339500Y85500D03*
Y89000D03*
Y92500D03*
X363000Y64500D03*
X366500D03*
X359163Y83500D03*
X398000Y15500D03*
X391500D03*
X390000Y48500D03*
Y52500D03*
X393500Y55500D03*
X397000Y52000D03*
Y55500D03*
X393500Y51000D03*
X386500Y92500D03*
Y96500D03*
X411000Y15500D03*
X405500D03*
X416000Y20500D03*
X411000D03*
X416000Y52000D03*
Y56000D03*
X412500Y50000D03*
Y58000D03*
Y54000D03*
X417000Y69000D03*
X426500Y16500D03*
X421000Y20500D03*
X426500D03*
X419000Y54000D03*
X420500Y69000D03*
X424000D03*
X420639Y181039D03*
X478500Y55000D03*
X475000D03*
Y58500D03*
X478500D03*
X482000Y55000D03*
Y58500D03*
X508500Y63000D03*
Y59500D03*
Y56000D03*
X515500Y28500D03*
X519000D03*
X522500D03*
X526000D03*
X529500D03*
Y63000D03*
Y59500D03*
Y56000D03*
X551000Y79500D03*
X554500Y79000D03*
X551000Y83000D03*
X554500Y82500D03*
G54D21*
X441780Y191240D03*
G54D12*
X34000Y240000D03*
X452500Y173000D03*
G54D22*
X462157Y244000D03*
X476921D03*
X471999D03*
X467078D03*
X481842D03*
G54D13*
X19500Y226500D03*
X37500Y27047D03*
X46150Y125850D03*
X45500Y170500D03*
Y173500D03*
Y188616D03*
Y191616D03*
X47000Y208664D03*
X45000Y198824D03*
X47000Y200792D03*
X45000Y210500D03*
X41000Y229500D03*
X60000Y35500D03*
X58000Y34000D03*
Y36500D03*
X65500Y122500D03*
X51850Y137500D03*
X61500Y159000D03*
X63462Y217500D03*
X60000D03*
X61500Y255500D03*
Y252000D03*
Y259000D03*
X65000Y274000D03*
X75358Y47500D03*
X72505Y77495D03*
X77500Y87500D03*
X71500Y170000D03*
X70500Y250538D03*
Y254000D03*
X78500Y282200D03*
X92500Y77000D03*
X94500Y76000D03*
X94498Y78001D03*
X94000Y65500D03*
X82500Y100000D03*
X95000Y178000D03*
X94533Y207200D03*
Y217400D03*
X85800Y217100D03*
X90100D03*
X87500Y225000D03*
X87495Y239984D03*
X87262Y235262D03*
X87000Y230000D03*
X87100Y249387D03*
X87400Y244706D03*
X89400Y256500D03*
X91452Y263500D03*
X84676Y263010D03*
X94000Y262500D03*
X85600Y256700D03*
X106000Y68000D03*
X101000Y126000D03*
X104900Y186100D03*
Y191100D03*
X101400Y188600D03*
X108400D03*
X104900D03*
X111000Y182500D03*
X101100Y199100D03*
X98450Y200450D03*
X108633Y218000D03*
X109071Y221489D03*
X113500Y216500D03*
X103500Y217100D03*
X100000Y219500D03*
X104300Y221300D03*
X105500Y218900D03*
X106000Y266100D03*
X112000Y263500D03*
X110000Y265000D03*
X105895Y261500D03*
X107862Y263702D03*
X125300Y205300D03*
X117000Y221500D03*
X124957Y224143D03*
X114200Y221500D03*
X128500Y227233D03*
X127338Y235453D03*
X128500Y230545D03*
X124800Y236882D03*
X125584Y227316D03*
X124681Y243160D03*
X128000Y242000D03*
X128600Y251400D03*
X129200Y245600D03*
X124300Y254282D03*
X125600Y250000D03*
X128912Y248119D03*
X120000Y263500D03*
X114000Y265000D03*
X122000Y265500D03*
X118000Y265000D03*
X123910Y263590D03*
X116000Y263500D03*
X144000Y167500D03*
X145743Y189077D03*
X139308Y215028D03*
X139379Y210432D03*
X142844Y230906D03*
X130500Y234000D03*
Y237000D03*
X131500Y240300D03*
X143480Y255318D03*
X155500Y80500D03*
X152000Y83500D03*
X160352Y81648D03*
X150216Y191159D03*
Y188008D03*
X153366Y181710D03*
X161653Y193108D03*
X150216Y181709D03*
Y184860D03*
X153366Y191158D03*
X156516Y181709D03*
X153366Y184860D03*
X156516Y191158D03*
X153366Y188009D03*
X159584Y191076D03*
X160168Y187522D03*
X150216Y194307D03*
X156516Y200608D03*
X150216Y206906D03*
X153366Y200608D03*
X150216Y197458D03*
Y200608D03*
X153366Y194308D03*
X156516Y197458D03*
Y194307D03*
Y206906D03*
X153366Y206907D03*
Y197457D03*
Y219508D03*
X153365Y216358D03*
X150216Y222658D03*
X153366Y213207D03*
X150216Y216356D03*
X153366Y210058D03*
X156516Y216358D03*
X153366Y222657D03*
X160097Y222099D03*
X156545Y222682D03*
X148715Y211703D03*
X156516Y210057D03*
Y213207D03*
X149349Y228605D03*
X149300Y231604D03*
X149278Y225706D03*
X156516Y228953D03*
X153366Y228956D03*
Y225807D03*
X154655Y233060D03*
X146662Y248943D03*
X157976Y248884D03*
X149985Y255318D03*
X154794D03*
X161158D03*
X175417Y191156D03*
Y184857D03*
X172266Y184861D03*
X175845Y181235D03*
X171623Y177905D03*
X172331Y191200D03*
X172177Y188102D03*
X175416Y188007D03*
X175414Y203758D03*
X175416Y194306D03*
Y197455D03*
X172259Y203715D03*
X172266Y194306D03*
X175416Y200606D03*
X169007Y200320D03*
X165754Y199755D03*
X175416Y213205D03*
X175417Y210057D03*
X175416Y222655D03*
X172259Y222665D03*
X168314Y220276D03*
X175416Y219509D03*
X166107Y218352D03*
X172266Y210057D03*
Y213205D03*
X175417Y216356D03*
X172224Y225882D03*
X175416Y228954D03*
Y225805D03*
X165966Y232070D03*
X172047Y232352D03*
X169643Y248813D03*
X166390Y255460D03*
X172896Y255177D03*
X178058Y255248D03*
X186250Y88079D03*
X178566Y188006D03*
Y181707D03*
Y184857D03*
X178562Y203757D03*
X178566Y197455D03*
Y200605D03*
Y194305D03*
X178562Y222653D03*
X187745Y210432D03*
X178564Y219506D03*
X178566Y210057D03*
X180496Y228903D03*
Y232282D03*
X180391Y225761D03*
X181240Y248802D03*
X184351Y255460D03*
X206000Y170500D03*
X208605Y224362D03*
X204645Y225635D03*
X206506Y253000D03*
X197500D03*
X206506Y264000D03*
X209016Y262000D03*
X221500Y147000D03*
X224700Y147500D03*
X223700Y150318D03*
Y153782D03*
X221296Y176751D03*
X218146Y170452D03*
Y176752D03*
X214996Y170452D03*
X218146Y173602D03*
X211845Y170452D03*
X224445Y173602D03*
X214995D03*
X214996Y176752D03*
X224446D03*
X211846Y173602D03*
X224446Y170452D03*
X221296Y192501D03*
X211846Y179902D03*
X218146Y179901D03*
X214995Y179902D03*
Y192501D03*
X224446Y179901D03*
Y186202D03*
X214996D03*
X221296Y183051D03*
X224446Y192502D03*
X211845D03*
X211846Y183051D03*
X214995D03*
X218146Y192502D03*
X211845Y186202D03*
X218146D03*
X214995Y189352D03*
X211846D03*
X221296Y195652D03*
X215018Y208226D03*
X224445Y198802D03*
X214995D03*
X224446Y208252D03*
X221295Y201952D03*
X214996D03*
X218146Y198802D03*
X211846D03*
X224446Y201952D03*
X221296Y208251D03*
X214995Y195652D03*
X211845Y195651D03*
Y201952D03*
X218146D03*
Y208252D03*
X211846Y208251D03*
X221296Y198802D03*
X218146Y195651D03*
Y217702D03*
Y224002D03*
X224446Y217702D03*
X214995Y220852D03*
X224445Y214552D03*
X221296Y224001D03*
X214995Y214552D03*
X224446Y220851D03*
X211845Y211402D03*
X218146D03*
X221296Y214552D03*
X211845Y217702D03*
X214996D03*
X224446Y211402D03*
X221296D03*
X218146Y220851D03*
X211846Y214552D03*
X218146D03*
X214996Y211402D03*
X214995Y224001D03*
X211846D03*
X221296Y217701D03*
X224446Y227152D03*
X221296Y233451D03*
X224445Y230302D03*
X221296Y236602D03*
X214995Y239752D03*
X224446Y233452D03*
X214995Y233451D03*
X214996Y227152D03*
X221296Y230302D03*
X218146Y236601D03*
X211846Y240000D03*
X224446Y236601D03*
X211845Y227152D03*
Y236601D03*
X211846Y230302D03*
X218146Y227152D03*
X211845Y233452D03*
X218146D03*
X214995Y236602D03*
Y230302D03*
X218146Y239752D03*
X219282Y252434D03*
X216100Y252788D03*
X222727Y252400D03*
X211050Y252801D03*
X210984Y264000D03*
X220000Y262000D03*
X213494D03*
X221984Y264000D03*
X217506D03*
X224494Y262000D03*
X240000Y64000D03*
X230750D03*
X228250D03*
X235441Y64500D03*
X237150Y129650D03*
X230746Y164152D03*
Y173602D03*
X237045Y170452D03*
X237046Y173602D03*
X233896Y176752D03*
X241000Y166000D03*
X230746Y170452D03*
Y176751D03*
X240195Y173602D03*
X240196Y176752D03*
X237045D03*
X227595Y170452D03*
X227596Y173602D03*
X233895D03*
X233896Y170452D03*
X230746Y189352D03*
Y192501D03*
X227595Y186202D03*
X237046Y189352D03*
X233896Y183052D03*
X237045Y186202D03*
X230746Y179902D03*
Y186202D03*
X240195Y183051D03*
X230746D03*
X233896Y179901D03*
X237046Y179902D03*
X240195D03*
X237046Y183051D03*
X240196Y192502D03*
X227596Y183051D03*
X227595Y192502D03*
Y179901D03*
Y195651D03*
X233896Y201952D03*
X227595Y208252D03*
X240195Y198802D03*
X237045Y201952D03*
X240195Y208251D03*
X237046Y195652D03*
X230746Y208251D03*
X227595Y201952D03*
X240196D03*
X237046Y198802D03*
X240196Y195651D03*
X237046Y208251D03*
X233896Y198802D03*
Y208252D03*
X227595Y217702D03*
X230746Y211402D03*
Y220852D03*
X233901Y220847D03*
X227595Y220851D03*
X240196Y217702D03*
X240195Y220852D03*
X233895Y214552D03*
X240201Y214547D03*
X237045Y211402D03*
X227596Y224001D03*
X230746Y217701D03*
X237046Y214552D03*
X233896Y224002D03*
X227595Y211402D03*
X230746Y214552D03*
X237045Y217702D03*
X240195Y224001D03*
X227595Y227152D03*
Y233452D03*
X237045Y227152D03*
X230746Y236602D03*
X227596Y230302D03*
X230746Y233451D03*
X240195Y230302D03*
X240196Y236601D03*
X233896D03*
X237046Y233451D03*
X233896Y233452D03*
X240196D03*
X230746Y230302D03*
X233896Y230301D03*
X227595Y236601D03*
X237046Y230302D03*
X230746Y227152D03*
X237046Y236602D03*
X240196Y227152D03*
X228474Y251500D03*
X233604Y252829D03*
X241202Y252434D03*
X238374D03*
X226483Y253013D03*
X232995Y264008D03*
X231000Y262500D03*
X235494D03*
X228506Y264000D03*
X239506D03*
X254250Y64000D03*
X251750D03*
X242500D03*
X247252Y64500D03*
X249000Y91500D03*
X256000Y88500D03*
X243050Y141800D03*
X257500Y157000D03*
X243000Y155350D03*
X243346Y173602D03*
X245428Y165000D03*
X252796Y173602D03*
X249645D03*
X255946Y176752D03*
Y170452D03*
X255945Y173602D03*
X252795Y176752D03*
X249646D03*
Y170452D03*
X252795D03*
X243345Y176752D03*
X249646Y186202D03*
Y183052D03*
X252796Y189352D03*
X255945Y192501D03*
X252796Y179902D03*
X255945Y183051D03*
X249645Y189352D03*
X252796Y183051D03*
X243345Y192502D03*
X255945Y189352D03*
X255946Y186202D03*
X243356Y183062D03*
X255945Y179902D03*
X249646Y179901D03*
X243345Y186202D03*
X249646Y192502D03*
X243345Y179901D03*
X255945Y208251D03*
X252795Y195651D03*
Y201952D03*
X255945Y198802D03*
X243345Y201952D03*
Y195651D03*
X249645Y198802D03*
X249636Y208242D03*
X249646Y201952D03*
Y195651D03*
X243346Y198802D03*
X255945Y195652D03*
X255946Y201952D03*
X252796Y198802D03*
X243345Y208252D03*
X252796Y208251D03*
X249646Y217702D03*
X252795D03*
X255945Y214552D03*
X249645D03*
X252795Y211402D03*
X243345D03*
X255945Y220852D03*
X243346Y214552D03*
X249636Y211392D03*
X252791Y214547D03*
X255941Y211397D03*
X243345Y220851D03*
X255945Y224001D03*
X249646Y220851D03*
X243345Y224002D03*
X252796Y224001D03*
X252845Y239801D03*
X249646Y236601D03*
X252795Y227152D03*
X243345Y236601D03*
Y233452D03*
X243346Y230302D03*
X255945Y233451D03*
X252795Y233452D03*
X255941Y227147D03*
X249646Y230302D03*
X243346Y227152D03*
X252795Y236601D03*
X249646Y239752D03*
X255945Y236602D03*
X249646Y233452D03*
X255945Y230302D03*
X255694Y252827D03*
X244210Y252788D03*
X252162Y252829D03*
X248909Y252865D03*
X251000Y250500D03*
X256000Y241500D03*
X254500Y262500D03*
X253000Y266000D03*
X242016Y262540D03*
X256994Y266000D03*
X250100Y262500D03*
X246500Y262540D03*
X244024Y264030D03*
X266250Y64500D03*
X263750D03*
X259063D03*
X270874D03*
X269200Y140200D03*
X264500D03*
Y146100D03*
X269200D03*
X270500Y155500D03*
X271696Y176751D03*
X259096Y173602D03*
X271696D03*
X265395D03*
X265396Y176752D03*
X268545D03*
X259096Y170452D03*
X262246D03*
X259096Y176752D03*
X268546Y173602D03*
X271696Y170452D03*
X259096Y189351D03*
X271696Y186202D03*
X265396D03*
X271696Y192501D03*
X265396Y192502D03*
X271696Y183051D03*
X268546D03*
X271696Y189352D03*
X262246Y183051D03*
X259096Y186202D03*
X268545D03*
Y179901D03*
X262246Y179902D03*
X271696D03*
X268545Y192502D03*
X265396Y179901D03*
X259096Y183052D03*
Y179901D03*
X262245Y186202D03*
X265396Y201952D03*
X271696Y195652D03*
X262246Y208251D03*
X268546Y198802D03*
X265395D03*
X268545Y208252D03*
X271696Y198802D03*
X265396Y208252D03*
X271696Y201952D03*
X268545D03*
X259096D03*
X271696Y208251D03*
X262245Y201952D03*
X262241Y220847D03*
X265396Y220851D03*
X265391Y217697D03*
X262241D03*
X262246Y211402D03*
Y224001D03*
X268546Y214552D03*
X259091Y214547D03*
X268545Y220851D03*
X271696Y224001D03*
Y220852D03*
X268546Y224001D03*
X271696Y211402D03*
X265396D03*
X268545D03*
X265395Y214552D03*
X271696D03*
Y217701D03*
X259096Y217702D03*
Y211402D03*
X259091Y223997D03*
X271696Y239752D03*
X265396Y227152D03*
X259096Y236601D03*
Y230301D03*
X271696Y227152D03*
Y236602D03*
X268545Y227152D03*
X259096D03*
X268546Y230302D03*
X265396Y236601D03*
X268545Y233452D03*
X262246Y230302D03*
X265396Y233452D03*
X262241Y236597D03*
X262246Y239752D03*
X259096Y233453D03*
Y239752D03*
X265395D03*
X262246Y233451D03*
X268541Y239747D03*
X268545Y236601D03*
X265395Y230302D03*
X262241Y227147D03*
X267000Y251500D03*
X259000Y253000D03*
X263500Y253120D03*
X261500Y250500D03*
X263600Y263300D03*
X267200Y261500D03*
X271900Y260400D03*
X260800Y264300D03*
X259500Y257000D03*
X287000Y53500D03*
X281146Y176752D03*
X277995D03*
Y170452D03*
X274845Y173602D03*
X281145D03*
X277996D03*
X274846Y176752D03*
X281796Y170702D03*
X274846Y170452D03*
X281145Y179902D03*
X277996D03*
Y192501D03*
X277995Y186202D03*
X274846Y192502D03*
X281146D03*
X284273Y183075D03*
X274846Y186202D03*
X277996Y183051D03*
X281145D03*
X274846Y183052D03*
X277996Y189352D03*
X281145D03*
X274846Y189351D03*
X277996Y208251D03*
Y198802D03*
X274846Y201952D03*
X281145Y208251D03*
X274846Y208252D03*
Y198802D03*
X281145D03*
X277996Y195652D03*
X281146Y195651D03*
X277986Y205072D03*
X281137D03*
X274846Y195651D03*
X277996Y220852D03*
X274845Y214552D03*
X281146Y211402D03*
X277995D03*
X281145Y224001D03*
X274846Y224002D03*
X281145Y220852D03*
X281146Y217702D03*
X274846Y211402D03*
X281145Y214552D03*
X274846Y220851D03*
X277996Y214552D03*
X277995Y217702D03*
X274846D03*
X277996Y224001D03*
Y233451D03*
X277995Y227152D03*
X281145Y239752D03*
X274865D03*
X281146Y233452D03*
X277996Y239752D03*
X274846Y230301D03*
X281146Y227152D03*
X274846Y233452D03*
X281146Y236601D03*
X281145Y230302D03*
X274846Y227152D03*
X277996Y236602D03*
Y230302D03*
X276000Y249000D03*
X286100Y261000D03*
X281700Y260000D03*
X286100Y258100D03*
X289400Y262900D03*
X287000Y278500D03*
X286000Y283000D03*
X289500Y53500D03*
X290560Y64560D03*
X298434Y64566D03*
X303000Y64500D03*
X295500Y150900D03*
X296710Y217150D03*
X296357Y213685D03*
X303404Y217003D03*
X298500Y253000D03*
X296600Y258100D03*
X302290Y267073D03*
X301400Y271800D03*
X297144Y276148D03*
X314000Y64500D03*
X317000D03*
X306000D03*
X317500Y50500D03*
X314500D03*
X320000Y82500D03*
X314704Y191530D03*
X317854Y182081D03*
X314704D03*
Y188380D03*
X317854Y191530D03*
X321003D03*
X317854Y185231D03*
X314703Y194679D03*
X321003Y200979D03*
X314704Y207278D03*
X314812Y201028D03*
X314704Y197829D03*
X321003Y194679D03*
X317853Y200979D03*
X317854Y194679D03*
Y207278D03*
X321003D03*
X317853Y197829D03*
X321003D03*
X317854Y219879D03*
Y213579D03*
X313621Y222159D03*
X317853Y216729D03*
X314703Y216728D03*
X311554Y210428D03*
X317854Y210429D03*
X321004Y223025D03*
X317853Y223029D03*
X311554Y213579D03*
X321003Y210429D03*
Y213579D03*
X321004Y216729D03*
X314483Y229549D03*
X314502Y232678D03*
X314704Y226179D03*
X321003Y226175D03*
X317854Y226178D03*
X321083Y229405D03*
X317810Y229302D03*
X312290Y267573D03*
X315710D03*
X305710Y267073D03*
X329420Y64500D03*
X326500D03*
Y50500D03*
X330000D03*
X336754Y185232D03*
X326479Y181865D03*
X337015Y181794D03*
X336754Y188381D03*
X324712Y190704D03*
X324994Y186885D03*
X336754Y191531D03*
X328601Y195724D03*
X336754Y194677D03*
Y207278D03*
X324194Y197641D03*
X333656Y197882D03*
X330793Y197916D03*
X336754Y219878D03*
Y213577D03*
Y210428D03*
Y216727D03*
Y223026D03*
Y226177D03*
Y229325D03*
X324283Y229271D03*
X336754Y232475D03*
X325710Y268000D03*
X322290D03*
X334700Y267900D03*
X353000Y100500D03*
X339904Y191528D03*
X343429Y181703D03*
X343054Y188377D03*
X339904Y185229D03*
X343054Y185228D03*
X339904Y188378D03*
X340228Y181755D03*
X344500Y205946D03*
X339904Y207278D03*
X343054Y197826D03*
Y200977D03*
X339904Y194677D03*
X343053D03*
X352333Y198244D03*
X352293Y206822D03*
X339904Y197826D03*
Y200977D03*
Y213577D03*
X343054Y223026D03*
X339904Y210429D03*
X343054Y210428D03*
X339904Y223026D03*
Y219877D03*
Y216727D03*
X349506Y215006D03*
X343054Y229325D03*
X346703Y240979D03*
X343054Y232475D03*
X344500Y234500D03*
X343054Y226177D03*
X339904Y229325D03*
Y226176D03*
X340059Y232632D03*
X341500Y247800D03*
X340000Y252500D03*
X348000D03*
X368237Y83763D03*
X364475Y97975D03*
X360500Y112000D03*
X357500Y104500D03*
X368000Y117000D03*
X367500Y218000D03*
X364000Y244500D03*
X357500Y269000D03*
X368700Y268800D03*
X364000Y258500D03*
X364100Y279970D03*
X370500Y111000D03*
X377000Y127261D03*
X372500Y125500D03*
X380000Y123451D03*
X379500Y128870D03*
X376500Y142072D03*
X380899Y144582D03*
Y137593D03*
X379000Y140103D03*
X380546Y159077D03*
X377000Y152000D03*
X380500Y154593D03*
X375936Y157532D03*
X376387Y168387D03*
X380000Y166000D03*
X375000Y173000D03*
X380192Y170356D03*
X382500Y191545D03*
X377350Y199150D03*
X384000Y198500D03*
X371000Y203000D03*
X379500Y235000D03*
X382000Y269700D03*
X375500Y269200D03*
X379800Y282000D03*
X394516Y108500D03*
X400500Y110500D03*
X392006Y111000D03*
X397500Y110500D03*
X398860Y132249D03*
X399213Y139673D03*
Y155937D03*
X394986Y169087D03*
X393557Y170786D03*
X390000Y185500D03*
X397092D03*
X393500D03*
X400628Y185594D03*
X399000Y192000D03*
X396000Y197000D03*
X392844Y201955D03*
X396780Y201280D03*
X388908Y201500D03*
X390000Y198000D03*
X395000Y256000D03*
X417250Y131536D03*
X407345Y131542D03*
X411588D03*
X403810D03*
X414770Y163930D03*
X406285Y163715D03*
X409339Y175382D03*
X416891Y185635D03*
X408406D03*
X412649D03*
X404000Y185500D03*
X410556Y201556D03*
X404946Y248569D03*
X422659Y111000D03*
X426902D03*
X430237Y110021D03*
X429619Y131895D03*
X430326Y135431D03*
X426002Y131813D03*
X421487Y131542D03*
X430680Y142148D03*
X429729Y146634D03*
X430680Y156997D03*
X418332Y164068D03*
X421487D03*
X425023D03*
X431090Y161594D03*
X425730Y181039D03*
X426150Y188880D03*
X426430Y192030D03*
X429000Y197000D03*
X423000Y206000D03*
X425500Y217500D03*
X422500Y221500D03*
Y240790D03*
X420500Y242500D03*
X440844Y110021D03*
X437308D03*
X433773D03*
X444500Y118000D03*
X439500Y136500D03*
X441500Y144000D03*
Y140849D03*
X438542Y165500D03*
X441500Y173968D03*
X434000Y236500D03*
X442000Y226000D03*
X444500Y225000D03*
X447500Y227000D03*
X437000Y258500D03*
X447000Y272500D03*
X448000Y258100D03*
X444900Y258300D03*
X442000Y258500D03*
X462490Y105510D03*
X451000Y128450D03*
X450500Y139500D03*
Y144500D03*
X459000Y208000D03*
Y205500D03*
X449500Y195000D03*
X451290Y218500D03*
X461116Y220571D03*
X463616Y220595D03*
X453258Y236758D03*
X463000Y237000D03*
X460000D03*
X459500Y253600D03*
X460400Y258300D03*
X464000Y261800D03*
X460800Y266600D03*
X474500Y117000D03*
X468500D03*
X471500D03*
X465500Y136500D03*
X470500Y151000D03*
X479500Y167500D03*
Y164500D03*
X468000Y169500D03*
Y172000D03*
X465800Y170700D03*
X468500Y180500D03*
X476500Y179000D03*
X479000Y181500D03*
X473850Y180500D03*
X472000Y178000D03*
X465600Y266700D03*
X471500Y259000D03*
X481500Y135000D03*
X484500Y130500D03*
X486000Y135000D03*
X491000Y182000D03*
X484953Y181547D03*
X494795Y224000D03*
X484500Y226000D03*
X490500Y233000D03*
X493000D03*
X487000Y226000D03*
X486000Y252000D03*
X483500Y254414D03*
X486000Y272000D03*
Y262500D03*
X506000Y116500D03*
X512500Y143300D03*
X512000Y136500D03*
Y139500D03*
X510500Y141500D03*
X510000Y135000D03*
X512500Y147000D03*
X509000Y149500D03*
Y153000D03*
X512000Y155000D03*
Y158500D03*
X510000Y160000D03*
X512500Y149500D03*
X502000Y210000D03*
X497500Y224000D03*
X511000Y211500D03*
Y209000D03*
X521176Y94150D03*
X514000Y92000D03*
X522000Y111150D03*
X528500Y122000D03*
X528000Y147000D03*
Y150000D03*
X514700Y154000D03*
X524000Y159500D03*
X521000D03*
X515500Y191500D03*
X517000Y189000D03*
X520500Y205000D03*
X513500Y208500D03*
X521500Y197200D03*
Y194700D03*
X518000Y203500D03*
Y206500D03*
X513500Y213000D03*
X530500Y92500D03*
X539000Y109200D03*
Y106500D03*
X533500Y169000D03*
X553000Y127500D03*
Y149500D03*
X552500Y152700D03*
X561217Y138773D03*
X561000Y142000D03*
X571500Y159000D03*
X568300D03*
X591500Y136000D03*
X580167Y149773D03*
X583467D03*
X591717Y153273D03*
X589217D03*
X591717Y155773D03*
X589217D03*
G54D14*
X50402Y239417D03*
X95677Y92554D03*
X272500Y274100D03*
X473630Y92554D03*
X518906Y239417D03*
G54D23*
X471500Y269000D03*
X495500D03*
G54D24*
G01X61500Y159000D02*
X60000D01*
X58000Y157000D01*
Y144500D01*
X51850Y138350D01*
Y137500D01*
G54D15*
X66089Y57779D03*
X68094Y59774D03*
X68084Y55774D03*
X70089Y57768D03*
X108910Y236967D03*
X102877D03*
Y243000D03*
X108910D03*
X137859Y145481D03*
X135859Y148481D03*
X137859Y151481D03*
X139859Y148481D03*
X161352Y100200D03*
X159352Y98200D03*
X157352Y100200D03*
X159352Y102200D03*
X238000D03*
X236000Y100200D03*
X240000Y100199D03*
X238001Y98201D03*
X316700Y102200D03*
X314700Y100200D03*
X316700Y98200D03*
X318700Y100200D03*
X398690Y219690D03*
X392670D03*
Y213670D03*
X398690D03*
X392670Y225710D03*
X398690D03*
X392670Y231730D03*
X398690D03*
X416818Y139076D03*
X414652Y145572D03*
Y143407D03*
Y141242D03*
Y139076D03*
X412487D03*
X410323Y139077D03*
X408158D03*
X405993D03*
Y141242D03*
Y143407D03*
Y145571D03*
X414652Y154231D03*
X414653Y152067D03*
X414652Y149902D03*
X416818Y147737D03*
Y156396D03*
X414652D03*
X405993Y149902D03*
Y147736D03*
X408158D03*
X410323D03*
X412487Y147737D03*
X414652D03*
X412487Y156396D03*
X410323Y156397D03*
X408158D03*
X405993D03*
Y154232D03*
Y152067D03*
X404710Y219690D03*
X410730D03*
X404710Y213670D03*
X410730D03*
X404710Y225710D03*
X410730D03*
X404710Y231730D03*
X410730D03*
X418983Y139076D03*
X421147Y139077D03*
X423312D03*
Y141242D03*
X423313Y143407D03*
X423312Y145571D03*
X421147Y147736D03*
X418983Y147737D03*
X423312Y147736D03*
Y149902D03*
Y152067D03*
Y154232D03*
Y156397D03*
X421147D03*
X418983Y156396D03*
G54D25*
G01X528500Y122000D02*
X528000Y122500D01*
X520500D01*
X518000Y120000D01*
Y117000D01*
X510500Y109500D01*
Y107000D01*
X508000Y104500D01*
X500500D01*
X497250Y101250D01*
X487250D01*
X485000Y103500D01*
Y109000D01*
X483000Y111000D01*
X458000D01*
X454410Y107410D01*
X454460Y107620D01*
G54D16*
X291300Y267600D03*
Y276500D03*
X341700Y267600D03*
Y276500D03*
G54D26*
G01X156516Y210057D02*
X157660D01*
X157662Y210059D01*
X161020D01*
X164096Y213136D01*
Y224967D01*
X170527Y231398D01*
Y232982D01*
X173888Y236343D01*
X190259D01*
X196261Y230341D01*
Y228526D01*
X194109Y226373D01*
Y223867D01*
X197857Y220119D01*
X211999D01*
X214827Y222948D01*
Y223833D01*
X214995Y224001D01*
G01X211846D02*
X212925D01*
X213342Y223584D01*
Y223019D01*
X211543Y221220D01*
X198312D01*
X195209Y224322D01*
Y225918D01*
X197362Y228070D01*
Y230797D01*
X190715Y237444D01*
X173433D01*
X169427Y233437D01*
Y231853D01*
X162996Y225423D01*
Y213591D01*
X160564Y211160D01*
X159461D01*
X158117Y211159D01*
X156516Y212761D01*
Y213207D01*
G01X265395Y214552D02*
X267025Y212922D01*
Y208996D01*
X267082Y208939D01*
X267025Y208881D01*
Y207623D01*
X270124Y204524D01*
X274801D01*
X277276Y202049D01*
X283589D01*
X285184Y203644D01*
Y204700D01*
X285683Y205199D01*
X287460D01*
X287959Y204700D01*
Y202778D01*
X289003Y201735D01*
X290717D01*
X291760Y202778D01*
Y205651D01*
X292228Y206119D01*
X292893D01*
X293361Y205651D01*
Y202778D01*
X294405Y201735D01*
X296119D01*
X297163Y202778D01*
Y205397D01*
X297561Y205796D01*
X298365D01*
X298764Y205397D01*
Y202778D01*
X299807Y201735D01*
X301521D01*
X302565Y202778D01*
Y204731D01*
X303033Y205199D01*
X303698D01*
X304166Y204731D01*
Y202778D01*
X305476Y201468D01*
X308040D01*
X309179Y202607D01*
Y204225D01*
X309155Y204249D01*
Y206585D01*
X309922Y207352D01*
X312628D01*
X314186Y208909D01*
X315808D01*
Y208908D01*
X316790D01*
X316791Y208909D01*
X318483D01*
X319299Y209725D01*
X320299D01*
X321003Y210429D01*
G01Y213579D02*
Y212734D01*
X319634Y211365D01*
X319068D01*
X318483Y211950D01*
X317225D01*
X315284Y210009D01*
X313730D01*
X312173Y208452D01*
X309466D01*
X308055Y207041D01*
Y203794D01*
X308079Y203770D01*
Y203063D01*
X307585Y202568D01*
X305931D01*
X305266Y203234D01*
Y205187D01*
X304153Y206300D01*
X302578D01*
X301465Y205187D01*
Y203234D01*
X301066Y202835D01*
X300263D01*
X299864Y203234D01*
Y205853D01*
X298820Y206897D01*
X297106D01*
X296062Y205853D01*
Y203234D01*
X295664Y202835D01*
X294860D01*
X294462Y203234D01*
Y206106D01*
X293349Y207219D01*
X291773D01*
X290660Y206106D01*
Y203234D01*
X290261Y202835D01*
X289458D01*
X289059Y203234D01*
Y205156D01*
X287915Y206300D01*
X285228D01*
X284084Y205156D01*
Y204099D01*
X283134Y203149D01*
X277731D01*
X275256Y205624D01*
X270580D01*
X269467Y206736D01*
Y207025D01*
X270066Y207623D01*
Y212867D01*
X270120Y212921D01*
Y212976D01*
X271696Y214552D01*
G54D17*
X351500Y87500D03*
X352000Y92000D03*
X349500Y90000D03*
X354000Y89500D03*
X375487Y92661D03*
Y87661D03*
X373862Y90161D03*
X377862D03*
G54D27*
G01X41435Y11341D02*
X-16000D01*
G01X-26417Y97705D02*
X-27666Y98635D01*
X-28292Y99720D01*
X-28500Y100960D01*
X-28083Y102510D01*
X-27042Y103595D01*
X-25792Y103905D01*
X-24541Y103750D01*
X-23500Y103130D01*
X-21417Y100030D01*
X-19958Y98635D01*
X-17875Y97705D01*
X-16000Y97395D01*
Y103905D01*
G01Y112740D02*
X-18708Y113050D01*
X-21000Y113515D01*
X-23083Y114135D01*
X-25375Y114910D01*
X-28500Y116150D01*
Y109950D01*
G01X-17875Y122040D02*
X-16833Y122970D01*
X-16208Y124055D01*
X-16000Y125450D01*
X-16417Y126845D01*
X-17250Y127930D01*
X-18708Y128705D01*
X-20375Y128860D01*
X-22042Y128550D01*
X-23083Y127775D01*
X-23917Y126690D01*
X-24125Y125605D01*
X-23917Y124520D01*
X-23083Y123125D01*
X-28500Y123590D01*
Y127775D01*
G01X-18500Y134440D02*
X-17041Y135370D01*
X-16208Y136610D01*
X-16000Y138005D01*
X-16208Y139245D01*
X-17250Y140485D01*
X-18500Y141260D01*
X-19750Y141415D01*
X-21208Y141105D01*
X-22250Y140020D01*
X-22667Y138935D01*
Y137540D01*
G01Y138935D02*
X-23292Y139865D01*
X-24333Y140640D01*
X-25583Y140950D01*
X-26833Y140640D01*
X-27875Y139865D01*
X-28500Y138470D01*
X-28292Y137075D01*
X-27458Y135680D01*
G01X-15583Y150250D02*
X-15792Y149940D01*
X-16208D01*
X-16417Y150250D01*
X-16208Y150560D01*
X-15792D01*
X-15583Y150250D01*
G01X-26417Y159705D02*
X-27666Y160635D01*
X-28292Y161720D01*
X-28500Y162960D01*
X-28083Y164510D01*
X-27042Y165595D01*
X-25792Y165905D01*
X-24541Y165750D01*
X-23500Y165130D01*
X-21417Y162030D01*
X-19958Y160635D01*
X-17875Y159705D01*
X-16000Y159395D01*
Y165905D01*
G01X-28500Y175050D02*
X-28083Y173810D01*
X-27042Y172880D01*
X-25792Y172260D01*
X-24125Y171795D01*
X-22250Y171640D01*
X-20375Y171795D01*
X-18708Y172260D01*
X-17458Y172880D01*
X-16417Y173810D01*
X-16000Y175050D01*
X-16417Y176290D01*
X-17458Y177220D01*
X-18708Y177840D01*
X-20375Y178305D01*
X-22250Y178460D01*
X-24125Y178305D01*
X-25792Y177840D01*
X-27042Y177220D01*
X-28083Y176290D01*
X-28500Y175050D01*
G01X-21208Y205705D02*
X-22667Y206790D01*
X-23500Y207720D01*
X-23917Y208960D01*
X-23500Y210045D01*
X-22667Y210820D01*
X-21417Y211440D01*
X-19958Y211595D01*
X-18708Y211440D01*
X-17458Y210820D01*
X-16417Y209890D01*
X-16000Y208805D01*
X-16417Y207565D01*
X-17666Y206480D01*
X-19542Y205860D01*
X-21625Y205705D01*
X-24333Y206015D01*
X-25792Y206480D01*
X-27250Y207255D01*
X-28292Y208340D01*
X-28500Y209425D01*
X-28083Y210510D01*
X-27042Y211285D01*
G01X-17458Y218415D02*
X-16417Y219500D01*
X-16000Y220740D01*
X-16417Y221980D01*
X-17666Y223065D01*
X-19542Y223840D01*
X-21417Y224150D01*
X-23708D01*
X-25583Y223840D01*
X-27250Y223065D01*
X-28083Y222135D01*
X-28500Y221050D01*
X-28083Y219810D01*
X-27250Y218880D01*
X-26000Y218260D01*
X-24333Y217950D01*
X-22875Y218260D01*
X-21417Y219035D01*
X-20583Y219965D01*
X-20375Y221050D01*
X-20791Y222290D01*
X-21833Y223220D01*
X-23708Y224150D01*
G01X-15583Y233450D02*
X-15792Y233140D01*
X-16208D01*
X-16417Y233450D01*
X-16208Y233760D01*
X-15792D01*
X-15583Y233450D01*
G01X-17458Y243215D02*
X-16417Y244300D01*
X-16000Y245540D01*
X-16417Y246780D01*
X-17666Y247865D01*
X-19542Y248640D01*
X-21417Y248950D01*
X-23708D01*
X-25583Y248640D01*
X-27250Y247865D01*
X-28083Y246935D01*
X-28500Y245850D01*
X-28083Y244610D01*
X-27250Y243680D01*
X-26000Y243060D01*
X-24333Y242750D01*
X-22875Y243060D01*
X-21417Y243835D01*
X-20583Y244765D01*
X-20375Y245850D01*
X-20791Y247090D01*
X-21833Y248020D01*
X-23708Y248950D01*
G01X-18500Y254840D02*
X-17041Y255770D01*
X-16208Y257010D01*
X-16000Y258405D01*
X-16208Y259645D01*
X-17250Y260885D01*
X-18500Y261660D01*
X-19750Y261815D01*
X-21208Y261505D01*
X-22250Y260420D01*
X-22667Y259335D01*
Y257940D01*
G01Y259335D02*
X-23292Y260265D01*
X-24333Y261040D01*
X-25583Y261350D01*
X-26833Y261040D01*
X-27875Y260265D01*
X-28500Y258870D01*
X-28292Y257475D01*
X-27458Y256080D01*
G01X-15750Y199600D02*
Y194950D01*
X-28250D01*
Y199600D01*
G01X-15750Y267800D02*
Y272450D01*
X-28250D01*
Y267800D01*
G01X54558Y286661D02*
X-16000D01*
G01X-6000Y136375D02*
Y11341D01*
G01X-8500Y26341D02*
X-6000Y11341D01*
X-3500Y26341D01*
X-8500D01*
G01X-6000Y167625D02*
Y286661D01*
G01X-3500Y271661D02*
X-6000Y286661D01*
X-8500Y271661D01*
X-3500D01*
G01X13004Y172606D02*
G03X21617Y14692I835938J-33598D01*
G01X12350Y169400D02*
Y134550D01*
G01Y149400D02*
Y315100D01*
G01X13004Y251228D02*
Y172606D01*
G01X40563Y251228D02*
X13004D01*
G01X190675Y305100D02*
X12350D01*
G01X27350Y307600D02*
X12350Y305100D01*
X27350Y302600D01*
Y307600D01*
G01X25510Y11341D02*
X51441D01*
G01X21617Y14692D02*
G03X25510Y11340I3894J585D01*
G01X40563Y251228D02*
G03X60248Y270913I0J19685D01*
G01X84832Y13482D02*
G03X51441Y11341I-16713J-790D01*
G01X60248Y270913D02*
Y282724D01*
G01X64185Y286661D02*
X505130D01*
G01X64185D02*
G03X60248Y282724I0J-3937D01*
G01X84830Y13482D02*
X84796Y11341D01*
G01D02*
X195797D01*
G01X209851Y29217D02*
G03X195797Y11341I2624J-16525D01*
G01X201290Y300725D02*
X202220Y299683D01*
X203305Y299058D01*
X204700Y298850D01*
X206095Y299267D01*
X207180Y300100D01*
X207955Y301558D01*
X208110Y303225D01*
X207800Y304892D01*
X207025Y305933D01*
X205940Y306767D01*
X204855Y306975D01*
X203770Y306767D01*
X202375Y305933D01*
X202840Y311350D01*
X207025D01*
G01X214465Y300308D02*
X215550Y299267D01*
X216790Y298850D01*
X218030Y299267D01*
X219115Y300516D01*
X219890Y302392D01*
X220200Y304267D01*
Y306558D01*
X219890Y308433D01*
X219115Y310100D01*
X218185Y310933D01*
X217100Y311350D01*
X215860Y310933D01*
X214930Y310100D01*
X214310Y308850D01*
X214000Y307183D01*
X214310Y305725D01*
X215085Y304267D01*
X216015Y303433D01*
X217100Y303225D01*
X218340Y303641D01*
X219270Y304683D01*
X220200Y306558D01*
G01X226555Y309267D02*
X227485Y310516D01*
X228570Y311142D01*
X229810Y311350D01*
X231360Y310933D01*
X232445Y309892D01*
X232755Y308642D01*
X232600Y307391D01*
X231980Y306350D01*
X228880Y304267D01*
X227485Y302808D01*
X226555Y300725D01*
X226245Y298850D01*
X232755D01*
G01X243760D02*
Y311350D01*
X238025Y302392D01*
X245775D01*
G01X254300Y298433D02*
X253990Y298642D01*
Y299058D01*
X254300Y299267D01*
X254610Y299058D01*
Y298642D01*
X254300Y298433D01*
G01X263755Y304058D02*
X264840Y305517D01*
X265770Y306350D01*
X267010Y306767D01*
X268095Y306350D01*
X268870Y305517D01*
X269490Y304267D01*
X269645Y302808D01*
X269490Y301558D01*
X268870Y300308D01*
X267940Y299267D01*
X266855Y298850D01*
X265615Y299267D01*
X264530Y300516D01*
X263910Y302392D01*
X263755Y304475D01*
X264065Y307183D01*
X264530Y308642D01*
X265305Y310100D01*
X266390Y311142D01*
X267475Y311350D01*
X268560Y310933D01*
X269335Y309892D01*
G01X276155Y309267D02*
X277085Y310516D01*
X278170Y311142D01*
X279410Y311350D01*
X280960Y310933D01*
X282045Y309892D01*
X282355Y308642D01*
X282200Y307391D01*
X281580Y306350D01*
X278480Y304267D01*
X277085Y302808D01*
X276155Y300725D01*
X275845Y298850D01*
X282355D01*
G01X209851Y42837D02*
Y29217D01*
G01X359457Y42837D02*
X209851D01*
G01X304100Y298850D02*
X299450D01*
Y311350D01*
X304100D01*
G01X313400Y298850D02*
Y311350D01*
X311540Y308850D01*
G01Y298850D02*
X315260D01*
G01X322390Y300725D02*
X323320Y299683D01*
X324405Y299058D01*
X325800Y298850D01*
X327195Y299267D01*
X328280Y300100D01*
X329055Y301558D01*
X329210Y303225D01*
X328900Y304892D01*
X328125Y305933D01*
X327040Y306767D01*
X325955Y306975D01*
X324870Y306767D01*
X323475Y305933D01*
X323940Y311350D01*
X328125D01*
G01X338200D02*
X336960Y310933D01*
X336030Y309892D01*
X335410Y308642D01*
X334945Y306975D01*
X334790Y305100D01*
X334945Y303225D01*
X335410Y301558D01*
X336030Y300308D01*
X336960Y299267D01*
X338200Y298850D01*
X339440Y299267D01*
X340370Y300308D01*
X340990Y301558D01*
X341455Y303225D01*
X341610Y305100D01*
X341455Y306975D01*
X340990Y308642D01*
X340370Y309892D01*
X339440Y310933D01*
X338200Y311350D01*
G01X350600Y298433D02*
X350290Y298642D01*
Y299058D01*
X350600Y299267D01*
X350910Y299058D01*
Y298642D01*
X350600Y298433D01*
G01X364860Y298850D02*
Y311350D01*
X359125Y302392D01*
X366875D01*
G01X372765Y300308D02*
X373850Y299267D01*
X375090Y298850D01*
X376330Y299267D01*
X377415Y300516D01*
X378190Y302392D01*
X378500Y304267D01*
Y306558D01*
X378190Y308433D01*
X377415Y310100D01*
X376485Y310933D01*
X375400Y311350D01*
X374160Y310933D01*
X373230Y310100D01*
X372610Y308850D01*
X372300Y307183D01*
X372610Y305725D01*
X373385Y304267D01*
X374315Y303433D01*
X375400Y303225D01*
X376640Y303641D01*
X377570Y304683D01*
X378500Y306558D01*
G01X373510Y11340D02*
G03X359457Y29217I-16678J1352D01*
G01D02*
Y42837D01*
G01X373510Y11340D02*
X484512D01*
G01X384700Y298850D02*
X389350D01*
Y311350D01*
X384700D01*
G01X398725Y305100D02*
X604812D01*
G01X517903Y13481D02*
G03X484512Y11340I-16714J-789D01*
G01X509067Y270913D02*
G03X528752Y251228I19685J0D01*
G01X509067Y282724D02*
Y270913D01*
G01Y282724D02*
G03X505130Y286661I-3937J0D01*
G01X517867Y11340D02*
X536702D01*
G01X517901Y13481D02*
X517867Y11340D01*
G01X536702D02*
Y72364D01*
G01D02*
X581190D01*
G01X562214Y251228D02*
X528752D01*
G01X604812Y164803D02*
X562214D01*
G01D02*
Y251228D01*
G01X581190Y125514D02*
Y72364D01*
G01X604812Y125514D02*
X581190D01*
G01X589812Y302600D02*
X604812Y305100D01*
X589812Y307600D01*
Y302600D01*
G01X604812Y125514D02*
Y164803D01*
G01Y174803D02*
Y315100D01*
G54D18*
X364200Y270500D03*
X387800D03*
G54D28*
G01X261500Y250500D02*
X257800D01*
X257300Y251000D01*
Y260000D01*
X256800Y260500D01*
X225180D01*
X225135Y260455D01*
X140100D01*
X139600Y259955D01*
Y240500D01*
X139100Y240000D01*
X136500D01*
X136000Y239500D01*
Y236366D01*
X131389Y231755D01*
X130134D01*
X129331Y232558D01*
X123755D01*
X123255Y232058D01*
Y232000D01*
X122755Y231500D01*
X109500D01*
X109000Y231000D01*
Y229500D01*
X109500Y229000D01*
X112100D01*
X112600Y228500D01*
Y225300D01*
X112100Y224800D01*
X109500D01*
X109000Y224300D01*
Y221560D01*
X109071Y221489D01*
G01X224494Y262000D02*
Y263500D01*
X224994Y264000D01*
X226200D01*
X226700Y264500D01*
Y270400D01*
X226200Y270900D01*
X133990D01*
X132750Y269660D01*
Y263917D01*
X134150Y262517D01*
Y246850D01*
X133650Y246350D01*
X132350D01*
X130959Y244959D01*
X130745D01*
X129841Y244055D01*
X126800D01*
X126300Y244555D01*
Y248000D01*
X125845Y248455D01*
X111400D01*
X110900Y247955D01*
Y246117D01*
X111350Y245667D01*
X111450D01*
X111900Y245217D01*
Y244317D01*
X111450Y243867D01*
X111350D01*
X110900Y243417D01*
Y242517D01*
X111350Y242067D01*
X111450D01*
X111900Y241617D01*
Y240717D01*
X111450Y240267D01*
X111350D01*
X110900Y239817D01*
Y238917D01*
X111350Y238467D01*
X111450D01*
X111900Y238017D01*
Y237117D01*
X111450Y236667D01*
X111350D01*
X110900Y236217D01*
Y234400D01*
X111400Y233900D01*
X118290D01*
X118298Y233908D01*
X127979D01*
X129071Y235000D01*
Y235071D01*
X130500Y236500D01*
Y237000D01*
G01X112000Y263500D02*
Y268000D01*
X112595Y268595D01*
X113285D01*
X113940Y269250D01*
X115500D01*
X116000Y269750D01*
Y279100D01*
X117400Y280500D01*
X258600D01*
X261500Y277600D01*
Y269584D01*
X267300Y263784D01*
Y261600D01*
X267200Y261500D01*
G01X271900Y260400D02*
Y262000D01*
X263000Y270900D01*
Y278800D01*
X259950Y281850D01*
X116550D01*
X114645Y279945D01*
Y279518D01*
X113682Y278555D01*
X113255D01*
X110000Y275300D01*
Y265000D01*
G01X113500Y216500D02*
X116000D01*
X119977Y220477D01*
X122431D01*
X123412Y221458D01*
Y224784D01*
X124316Y225688D01*
X129142D01*
X142700Y239246D01*
Y253273D01*
X143200Y253773D01*
X143800D01*
X144300Y253273D01*
Y246100D01*
X144800Y245600D01*
X147707D01*
X148207Y246100D01*
Y250900D01*
X147707Y251400D01*
X146000D01*
X145500Y251900D01*
Y257100D01*
X146000Y257600D01*
X151700D01*
X152200Y257100D01*
Y253700D01*
X151700Y253200D01*
X150200D01*
X149700Y252700D01*
Y251000D01*
X150200Y250500D01*
X153954D01*
X155235Y251781D01*
Y253300D01*
X155735Y253800D01*
X157254D01*
X157700Y254246D01*
Y256900D01*
X158200Y257400D01*
X168800D01*
X169300Y256900D01*
Y254900D01*
X169800Y254400D01*
X170700D01*
X171200Y254900D01*
Y256900D01*
X171700Y257400D01*
X225983D01*
X226483Y256900D01*
Y253013D01*
G01X121315Y218300D02*
X121515Y218500D01*
X124500D01*
X158000Y252000D01*
X192500D01*
X195500Y255000D01*
X199500D01*
X200000Y254500D01*
Y251500D01*
X200500Y251000D01*
X204300D01*
X204800Y251500D01*
Y254500D01*
X205300Y255000D01*
X208800D01*
X209505Y254294D01*
Y250900D01*
X210505Y249900D01*
X213299D01*
X214299Y250900D01*
Y254000D01*
X215299Y255000D01*
X223000D01*
X224683Y253317D01*
Y250911D01*
X225983Y249611D01*
X226217D01*
G01X251000Y250500D02*
X253500D01*
X254000Y251000D01*
Y258500D01*
X253500Y259000D01*
X252649D01*
X252199Y258550D01*
Y256500D01*
X251699Y256000D01*
X250899D01*
X250399Y256500D01*
Y258550D01*
X249949Y259000D01*
X249049D01*
X248599Y258550D01*
Y256500D01*
X248099Y256000D01*
X247299D01*
X246799Y256500D01*
Y258550D01*
X246349Y259000D01*
X245449D01*
X244999Y258550D01*
Y257350D01*
X244549Y256900D01*
X243649D01*
X243199Y257350D01*
Y258550D01*
X242749Y259000D01*
X241849D01*
X241399Y258550D01*
Y257350D01*
X240949Y256900D01*
X240049D01*
X239599Y257350D01*
Y258550D01*
X239149Y259000D01*
X238249D01*
X237799Y258550D01*
Y257350D01*
X237349Y256900D01*
X236449D01*
X235999Y257350D01*
Y258550D01*
X235549Y259000D01*
X234649D01*
X234199Y258550D01*
Y257350D01*
X233749Y256900D01*
X232849D01*
X232399Y257350D01*
Y258550D01*
X231949Y259000D01*
X231049D01*
X230599Y258550D01*
Y257350D01*
X230149Y256900D01*
X229249D01*
X228799Y257350D01*
Y258550D01*
X228349Y259000D01*
X141450D01*
X140950Y258500D01*
Y239406D01*
X130544Y229000D01*
X119100D01*
X118600Y228500D01*
Y225000D01*
X119100Y224500D01*
X121355D01*
G01X220000Y262000D02*
Y267800D01*
X219600Y268200D01*
X202772D01*
X202322Y267750D01*
Y266450D01*
X201872Y266000D01*
X200972D01*
X200522Y266450D01*
Y267750D01*
X200072Y268200D01*
X199172D01*
X198722Y267750D01*
Y266450D01*
X198272Y266000D01*
X197372D01*
X196922Y266450D01*
Y267750D01*
X196472Y268200D01*
X195572D01*
X195122Y267750D01*
Y266450D01*
X194672Y266000D01*
X193772D01*
X193322Y266450D01*
Y267750D01*
X192872Y268200D01*
X191972D01*
X191522Y267750D01*
Y266450D01*
X191072Y266000D01*
X190172D01*
X189722Y266450D01*
Y267750D01*
X189272Y268200D01*
X188372D01*
X187922Y267750D01*
Y266450D01*
X187472Y266000D01*
X186572D01*
X186122Y266450D01*
Y267750D01*
X185672Y268200D01*
X184772D01*
X184322Y267750D01*
Y266450D01*
X183872Y266000D01*
X182972D01*
X182522Y266450D01*
Y267750D01*
X182072Y268200D01*
X181172D01*
X180722Y267750D01*
Y266450D01*
X180272Y266000D01*
X179372D01*
X178922Y266450D01*
Y267750D01*
X178472Y268200D01*
X177572D01*
X177122Y267750D01*
Y266450D01*
X176672Y266000D01*
X175772D01*
X175322Y266450D01*
Y267750D01*
X174872Y268200D01*
X173972D01*
X173522Y267750D01*
Y266450D01*
X173072Y266000D01*
X172172D01*
X171722Y266450D01*
Y267750D01*
X171272Y268200D01*
X170372D01*
X169922Y267750D01*
Y266450D01*
X169472Y266000D01*
X168572D01*
X168122Y266450D01*
Y267750D01*
X167672Y268200D01*
X166772D01*
X166322Y267750D01*
Y266450D01*
X165872Y266000D01*
X164972D01*
X164522Y266450D01*
Y267750D01*
X164072Y268200D01*
X163172D01*
X162722Y267750D01*
Y266450D01*
X162272Y266000D01*
X161372D01*
X160922Y266450D01*
Y267750D01*
X160472Y268200D01*
X159572D01*
X159122Y267750D01*
Y266450D01*
X158672Y266000D01*
X157772D01*
X157322Y266450D01*
Y267750D01*
X156872Y268200D01*
X155972D01*
X155522Y267750D01*
Y266450D01*
X155072Y266000D01*
X154172D01*
X153722Y266450D01*
Y267750D01*
X153272Y268200D01*
X152372D01*
X151922Y267750D01*
Y266450D01*
X151472Y266000D01*
X150572D01*
X150122Y266450D01*
Y267750D01*
X149672Y268200D01*
X148772D01*
X148322Y267750D01*
Y266450D01*
X147872Y266000D01*
X146972D01*
X146522Y266450D01*
Y267750D01*
X146072Y268200D01*
X145172D01*
X144722Y267750D01*
Y266450D01*
X144272Y266000D01*
X143372D01*
X142922Y266450D01*
Y267750D01*
X142472Y268200D01*
X141572D01*
X141122Y267750D01*
Y266450D01*
X140672Y266000D01*
X139772D01*
X139322Y266450D01*
Y267750D01*
X138872Y268200D01*
X137400D01*
X136900Y267700D01*
Y243900D01*
X136400Y243400D01*
X133800D01*
X133300Y242900D01*
Y238845D01*
X133000Y238545D01*
X127900D01*
X127400Y238045D01*
Y235515D01*
X127338Y235453D01*
G01X221984Y264000D02*
Y265600D01*
X222484Y266100D01*
X224850D01*
X225350Y266600D01*
Y269100D01*
X224900Y269550D01*
X134600D01*
X134100Y269050D01*
Y264900D01*
X134600Y264400D01*
X135050D01*
X135550Y263900D01*
Y245500D01*
X135050Y245000D01*
X132910D01*
X132261Y244351D01*
Y244350D01*
X131761Y243850D01*
X131760D01*
X131000Y243090D01*
Y241986D01*
X129469Y240455D01*
X123200D01*
X122700Y240955D01*
Y246400D01*
X122200Y246900D01*
X114400D01*
X113900Y246400D01*
Y235750D01*
X114400Y235250D01*
X117100D01*
X117600Y235750D01*
Y244600D01*
X118100Y245100D01*
X120000D01*
X120500Y244600D01*
Y235758D01*
X121000Y235258D01*
X122400D01*
X122900Y235758D01*
Y236382D01*
X123400Y236882D01*
X124800D01*
G01X128600Y251400D02*
X128500D01*
X128600Y251500D01*
X130700D01*
X131200Y252000D01*
Y260747D01*
X130700Y261247D01*
X130500D01*
X130000Y261747D01*
Y271000D01*
X132600Y273600D01*
X240856D01*
X241306Y273150D01*
Y271450D01*
X241756Y271000D01*
X242600D01*
X242900Y271300D01*
Y273300D01*
X243200Y273600D01*
X244300D01*
X244600Y273300D01*
Y271300D01*
X244900Y271000D01*
X245900D01*
X246200Y271300D01*
Y273300D01*
X246500Y273600D01*
X247700D01*
X248000Y273300D01*
Y271300D01*
X248300Y271000D01*
X249500D01*
X249800Y271300D01*
Y273300D01*
X250100Y273600D01*
X253900D01*
X254200Y273300D01*
Y270400D01*
X253900Y270100D01*
X253200D01*
X252800Y270500D01*
Y271686D01*
X252499Y271987D01*
X251501D01*
X251200Y271686D01*
Y270250D01*
X250900Y269950D01*
X242516D01*
X242016Y269450D01*
Y262540D01*
G01X246500D02*
Y266600D01*
X247000Y267100D01*
X250800D01*
X251300Y266600D01*
Y264900D01*
X251800Y264400D01*
X254800D01*
X255300Y264900D01*
Y267200D01*
X255800Y267700D01*
X256900D01*
X257200Y268000D01*
Y274890D01*
X255790Y276300D01*
X131300D01*
X130800Y275800D01*
Y275710D01*
X129495Y274405D01*
X127368D01*
X127173Y274600D01*
X126100D01*
X125600Y274100D01*
Y273100D01*
X126100Y272600D01*
Y269200D01*
X127000Y268300D01*
Y260127D01*
X128445Y258682D01*
Y257318D01*
X127482Y256355D01*
X119100D01*
X118600Y255855D01*
Y254500D01*
X119100Y254000D01*
X124018D01*
X124300Y254282D01*
G01X244024Y264030D02*
Y268100D01*
X244524Y268600D01*
X254790D01*
X255240Y269050D01*
X255500D01*
X255800Y269350D01*
Y274380D01*
X255230Y274950D01*
X131950D01*
X128350Y271350D01*
Y260687D01*
X129795Y259242D01*
Y257878D01*
X129796Y257877D01*
Y253600D01*
X129296Y253100D01*
X125304D01*
X124941Y252737D01*
Y252500D01*
X124441Y252000D01*
X119400D01*
X118900Y251500D01*
Y250500D01*
X119400Y250000D01*
X125600D01*
G01X239506Y264000D02*
Y271800D01*
X239056Y272250D01*
X237844D01*
X237394Y271800D01*
Y265100D01*
X236894Y264600D01*
X236094D01*
X235594Y265100D01*
Y271800D01*
X235144Y272250D01*
X234244D01*
X233794Y271800D01*
Y266450D01*
X233344Y266000D01*
X232444D01*
X231994Y266450D01*
Y271800D01*
X231544Y272250D01*
X230644D01*
X230194Y271800D01*
Y266450D01*
X229744Y266000D01*
X228844D01*
X228394Y266450D01*
Y271800D01*
X227944Y272250D01*
X133250D01*
X131400Y270400D01*
Y262957D01*
X131900Y262457D01*
X132300D01*
X132800Y261957D01*
Y248619D01*
X132300Y248119D01*
X128912D01*
G01X263600Y263300D02*
Y264800D01*
X260100Y268300D01*
Y276600D01*
X257550Y279150D01*
X118850D01*
X117500Y277800D01*
Y268400D01*
X117000Y267900D01*
X116900D01*
X114000Y265000D01*
G01X260800Y264300D02*
X258600Y266500D01*
Y275400D01*
X256200Y277800D01*
X122900D01*
X122400Y277300D01*
Y268000D01*
X122900Y267500D01*
X125100D01*
X125600Y267000D01*
Y259127D01*
X124573Y258100D01*
X116500D01*
X116000Y258600D01*
Y263500D01*
G01X217506Y264000D02*
Y266350D01*
X217006Y266850D01*
X215832D01*
X215382Y266400D01*
Y264750D01*
X214932Y264300D01*
X214032D01*
X213582Y264750D01*
Y266400D01*
X213132Y266850D01*
X210409D01*
X209959Y266400D01*
Y265885D01*
X209500Y265426D01*
Y264500D01*
X208545Y263545D01*
X208375D01*
X206635Y261805D01*
X204055D01*
X203605Y262255D01*
Y263450D01*
X203155Y263900D01*
X202255D01*
X201805Y263450D01*
Y262255D01*
X201355Y261805D01*
X200455D01*
X200005Y262255D01*
Y263450D01*
X199555Y263900D01*
X198655D01*
X198205Y263450D01*
Y262255D01*
X197755Y261805D01*
X196855D01*
X196405Y262255D01*
Y263450D01*
X195955Y263900D01*
X195055D01*
X194605Y263450D01*
Y262255D01*
X194155Y261805D01*
X193255D01*
X192805Y262255D01*
Y263450D01*
X192355Y263900D01*
X191455D01*
X191005Y263450D01*
Y262255D01*
X190555Y261805D01*
X189655D01*
X189205Y262255D01*
Y263450D01*
X188755Y263900D01*
X187855D01*
X187405Y263450D01*
Y262255D01*
X186955Y261805D01*
X186055D01*
X185605Y262255D01*
Y263450D01*
X185155Y263900D01*
X184255D01*
X183805Y263450D01*
Y262255D01*
X183355Y261805D01*
X182455D01*
X182005Y262255D01*
Y263450D01*
X181555Y263900D01*
X180655D01*
X180205Y263450D01*
Y262255D01*
X179755Y261805D01*
X178855D01*
X178405Y262255D01*
Y263450D01*
X177955Y263900D01*
X177055D01*
X176605Y263450D01*
Y262255D01*
X176155Y261805D01*
X175255D01*
X174805Y262255D01*
Y263450D01*
X174355Y263900D01*
X173455D01*
X173005Y263450D01*
Y262255D01*
X172555Y261805D01*
X171655D01*
X171205Y262255D01*
Y263450D01*
X170755Y263900D01*
X169855D01*
X169405Y263450D01*
Y262255D01*
X168955Y261805D01*
X168055D01*
X167605Y262255D01*
Y263450D01*
X167155Y263900D01*
X166255D01*
X165805Y263450D01*
Y262255D01*
X165355Y261805D01*
X164455D01*
X164005Y262255D01*
Y263450D01*
X163555Y263900D01*
X162655D01*
X162205Y263450D01*
Y262255D01*
X161755Y261805D01*
X160855D01*
X160405Y262255D01*
Y263450D01*
X159955Y263900D01*
X159055D01*
X158605Y263450D01*
Y262255D01*
X158155Y261805D01*
X157255D01*
X156805Y262255D01*
Y263450D01*
X156355Y263900D01*
X155455D01*
X155005Y263450D01*
Y262255D01*
X154555Y261805D01*
X153655D01*
X153205Y262255D01*
Y263450D01*
X152755Y263900D01*
X151855D01*
X151405Y263450D01*
Y262255D01*
X150955Y261805D01*
X150055D01*
X149605Y262255D01*
Y263450D01*
X149155Y263900D01*
X148255D01*
X147805Y263450D01*
Y262255D01*
X147355Y261805D01*
X146455D01*
X146005Y262255D01*
Y263450D01*
X145555Y263900D01*
X144655D01*
X144205Y263450D01*
Y262255D01*
X143755Y261805D01*
X142855D01*
X142405Y262255D01*
Y263450D01*
X141955Y263900D01*
X141055D01*
X140605Y263450D01*
Y262255D01*
X140155Y261805D01*
X139205D01*
X138250Y260850D01*
Y242000D01*
X137750Y241500D01*
X135150D01*
X134650Y241000D01*
Y236926D01*
X131724Y234000D01*
X130500D01*
G01X143692Y234686D02*
X153662Y244656D01*
X192836D01*
X205635Y231857D01*
X209595D01*
X209630Y231822D01*
X210266D01*
X210350Y231906D01*
X216782D01*
X222841Y225846D01*
Y219246D01*
X221296Y217701D01*
G01X230746Y214552D02*
X229141Y212947D01*
X222141D01*
X222110Y212978D01*
X220688D01*
X219751Y212041D01*
Y210823D01*
X218785Y209857D01*
X218506D01*
X218505Y209856D01*
X190506D01*
X188384Y211978D01*
X178828D01*
X176055Y214751D01*
X171627D01*
X171618Y214742D01*
X169852D01*
X160451Y205341D01*
X155897D01*
X154971Y206267D01*
Y207488D01*
X154005Y208453D01*
X151965D01*
X148715Y211703D01*
G01X153366Y222657D02*
X159559Y228850D01*
Y229409D01*
X158459Y230509D01*
Y231068D01*
X158855Y231464D01*
X159413D01*
X160514Y230363D01*
X161072D01*
X161468Y230759D01*
Y231318D01*
X160368Y232418D01*
Y232977D01*
X160764Y233373D01*
X161322D01*
X162423Y232272D01*
X162981D01*
X163377Y232668D01*
Y233227D01*
X162277Y234327D01*
Y234886D01*
X162673Y235282D01*
X163232D01*
X164332Y234182D01*
X164891D01*
X165287Y234578D01*
Y235136D01*
X164186Y236237D01*
Y236795D01*
X164582Y237191D01*
X165141D01*
X166241Y236091D01*
X166800D01*
X167196Y236487D01*
Y237045D01*
X166095Y238146D01*
Y238704D01*
X166491Y239100D01*
X167050D01*
X168150Y238000D01*
X168709D01*
X169105Y238396D01*
Y238955D01*
X168005Y240055D01*
Y240614D01*
X168401Y241010D01*
X168959D01*
X170060Y239909D01*
X170618D01*
X171759Y241050D01*
X191351D01*
X203938Y228463D01*
X210534D01*
X211845Y227152D01*
G01X218146Y201952D02*
X216575Y200381D01*
X209675D01*
X207827Y202230D01*
X206953D01*
X206558Y202624D01*
Y204593D01*
X206164Y204987D01*
X205602D01*
X205208Y204593D01*
Y202624D01*
X204813Y202230D01*
X204252D01*
X203857Y202624D01*
Y204593D01*
X203463Y204987D01*
X202901D01*
X202507Y204593D01*
Y202624D01*
X202112Y202230D01*
X201551D01*
X201156Y202624D01*
Y204593D01*
X200761Y204987D01*
X200200D01*
X199805Y204593D01*
Y202624D01*
X199411Y202230D01*
X198849D01*
X198455Y202624D01*
Y204593D01*
X198060Y204987D01*
X197499D01*
X197104Y204593D01*
Y202624D01*
X196710Y202230D01*
X196148D01*
X195754Y202624D01*
Y204593D01*
X195359Y204987D01*
X194798D01*
X194403Y204593D01*
Y202624D01*
X194009Y202230D01*
X193447D01*
X193053Y202624D01*
Y204593D01*
X192658Y204987D01*
X192096D01*
X191702Y204593D01*
Y202624D01*
X191307Y202230D01*
X190746D01*
X190351Y202624D01*
Y204593D01*
X189957Y204987D01*
X189395D01*
X189001Y204593D01*
Y202624D01*
X188606Y202230D01*
X188045D01*
X187650Y202624D01*
Y204593D01*
X187256Y204987D01*
X186694D01*
X186300Y204593D01*
Y202624D01*
X185905Y202230D01*
X185344D01*
X184949Y202624D01*
Y204593D01*
X184554Y204987D01*
X183993D01*
X183598Y204593D01*
Y202624D01*
X183187Y202213D01*
X177922D01*
X176997Y203138D01*
Y206897D01*
X178566Y208466D01*
Y210057D01*
G01X172266D02*
X171172Y208963D01*
Y208709D01*
X170562Y208099D01*
Y199331D01*
X174041Y195852D01*
X179132D01*
X179133Y195851D01*
X179205D01*
X180112Y194944D01*
Y194872D01*
X182866Y192118D01*
X183316D01*
X183710Y191723D01*
Y190674D01*
X184105Y190280D01*
X184666D01*
X185061Y190674D01*
Y191723D01*
X185455Y192118D01*
X186017D01*
X186411Y191723D01*
Y190674D01*
X186806Y190280D01*
X187367D01*
X187762Y190674D01*
Y191723D01*
X188156Y192118D01*
X188718D01*
X189113Y191723D01*
Y190674D01*
X189507Y190280D01*
X190069D01*
X190463Y190674D01*
Y191723D01*
X190858Y192118D01*
X191419D01*
X191814Y191723D01*
Y190674D01*
X192208Y190280D01*
X192770D01*
X193164Y190674D01*
Y191723D01*
X193559Y192118D01*
X194120D01*
X194515Y191723D01*
Y190674D01*
X194909Y190280D01*
X195471D01*
X195865Y190674D01*
Y191723D01*
X196260Y192118D01*
X196821D01*
X197216Y191723D01*
Y190674D01*
X197611Y190280D01*
X198172D01*
X198567Y190674D01*
Y191723D01*
X198961Y192118D01*
X199523D01*
X199917Y191723D01*
Y190674D01*
X200312Y190280D01*
X200873D01*
X201268Y190674D01*
Y191723D01*
X201662Y192118D01*
X202224D01*
X202618Y191723D01*
Y190674D01*
X203013Y190280D01*
X203574D01*
X203969Y190674D01*
Y191723D01*
X204363Y192118D01*
X204925D01*
X205319Y191723D01*
Y190674D01*
X205714Y190280D01*
X206275D01*
X206670Y190674D01*
Y191723D01*
X207066Y192118D01*
X209029Y194081D01*
X214345D01*
X214346Y194082D01*
X217495D01*
X217496Y194081D01*
X218795D01*
X219725Y195011D01*
Y197230D01*
X221296Y198802D01*
G01X218146Y195651D02*
X216574Y197223D01*
X209171D01*
X207319Y195371D01*
X206445D01*
X206051Y195765D01*
Y197451D01*
X205656Y197846D01*
X205095D01*
X204700Y197451D01*
Y195765D01*
X204305Y195371D01*
X203744D01*
X203349Y195765D01*
Y197451D01*
X202955Y197846D01*
X202393D01*
X201999Y197451D01*
Y195765D01*
X201604Y195371D01*
X201043D01*
X200648Y195765D01*
Y197451D01*
X200254Y197846D01*
X199692D01*
X199298Y197451D01*
Y195765D01*
X198903Y195371D01*
X198342D01*
X197947Y195765D01*
Y197451D01*
X197553Y197846D01*
X196991D01*
X196597Y197451D01*
Y195765D01*
X196202Y195371D01*
X195641D01*
X195246Y195765D01*
Y197451D01*
X194851Y197846D01*
X194290D01*
X193895Y197451D01*
Y195765D01*
X193501Y195371D01*
X192939D01*
X192545Y195765D01*
Y197451D01*
X192150Y197846D01*
X191589D01*
X191194Y197451D01*
Y195765D01*
X190800Y195371D01*
X190238D01*
X189844Y195765D01*
Y197451D01*
X189449Y197846D01*
X188888D01*
X188493Y197451D01*
Y195765D01*
X188099Y195371D01*
X187537D01*
X187143Y195765D01*
Y197451D01*
X186748Y197846D01*
X186186D01*
X185792Y197451D01*
Y195765D01*
X185397Y195371D01*
X183714D01*
X181381Y197704D01*
Y197846D01*
X180226Y199001D01*
X174836D01*
X173837Y200000D01*
Y211635D01*
X172266Y213205D01*
G01X218146Y211402D02*
X216541Y213006D01*
X211207D01*
X209821Y214392D01*
X208947D01*
X208552Y213997D01*
Y212382D01*
X208158Y211988D01*
X207596D01*
X207202Y212382D01*
Y213997D01*
X206807Y214392D01*
X206246D01*
X205851Y213997D01*
Y212382D01*
X205457Y211988D01*
X204895D01*
X204501Y212382D01*
Y213997D01*
X204106Y214392D01*
X203545D01*
X203150Y213997D01*
Y212382D01*
X202755Y211988D01*
X202194D01*
X201799Y212382D01*
Y213997D01*
X201405Y214392D01*
X200843D01*
X200449Y213997D01*
Y212382D01*
X200054Y211988D01*
X199493D01*
X199098Y212382D01*
Y213997D01*
X198704Y214392D01*
X198142D01*
X197748Y213997D01*
Y212382D01*
X197353Y211988D01*
X196792D01*
X196397Y212382D01*
Y213997D01*
X196003Y214392D01*
X195441D01*
X195047Y213997D01*
Y212382D01*
X194652Y211988D01*
X194091D01*
X193696Y212382D01*
Y213997D01*
X193301Y214392D01*
X192740D01*
X192345Y213997D01*
Y212382D01*
X191951Y211988D01*
X191389D01*
X190995Y212382D01*
Y213997D01*
X190600Y214392D01*
X186786D01*
X186392Y214786D01*
Y215412D01*
X185997Y215806D01*
X185436D01*
X185041Y215412D01*
Y214786D01*
X184646Y214392D01*
X184085D01*
X183690Y214786D01*
Y215412D01*
X183296Y215806D01*
X182734D01*
X182340Y215412D01*
Y214786D01*
X181945Y214392D01*
X181384D01*
X180989Y214786D01*
Y215412D01*
X180595Y215806D01*
X180033D01*
X179639Y215412D01*
Y214786D01*
X179244Y214392D01*
X178323D01*
X176962Y215753D01*
Y216995D01*
X176056Y217901D01*
X174777D01*
X174733Y217857D01*
X172684D01*
X169860Y220680D01*
Y220915D01*
X169219Y221556D01*
Y223019D01*
X170989Y224789D01*
X171131D01*
X172224Y225882D01*
G01X218146Y227152D02*
X219706Y225591D01*
Y223306D01*
X218858Y222458D01*
X217569D01*
X216540Y221429D01*
Y220213D01*
X215573Y219246D01*
X214347D01*
X213390Y218291D01*
Y217026D01*
X212492Y216128D01*
X198454D01*
X196121Y218461D01*
X195563D01*
X194566Y217464D01*
X194007D01*
X193611Y217860D01*
Y218418D01*
X194608Y219415D01*
Y219974D01*
X194212Y220370D01*
X193654D01*
X192657Y219373D01*
X192098D01*
X191702Y219769D01*
Y220327D01*
X192699Y221324D01*
Y221883D01*
X192303Y222279D01*
X191744D01*
X190747Y221282D01*
X190189D01*
X189793Y221678D01*
Y222237D01*
X190790Y223234D01*
Y223792D01*
X190394Y224188D01*
X189835D01*
X188838Y223191D01*
X188280D01*
X187884Y223587D01*
Y224146D01*
X188881Y225143D01*
Y225701D01*
X188485Y226097D01*
X187926D01*
X186929Y225100D01*
X186370D01*
X185974Y225496D01*
Y226055D01*
X186971Y227052D01*
Y227611D01*
X186575Y228007D01*
X186017D01*
X185020Y227009D01*
X184461D01*
X184065Y227405D01*
Y227964D01*
X185062Y228961D01*
Y229520D01*
X183219Y231362D01*
X182583D01*
X181735Y230514D01*
X179684D01*
X176520Y227350D01*
X174777D01*
X173815Y226389D01*
Y221109D01*
X175416Y219509D01*
G01X186250Y88079D02*
X186000Y87829D01*
Y84000D01*
X188500Y81500D01*
X241000D01*
X243000Y83500D01*
X248000D01*
X249000Y84500D01*
Y91500D01*
G01X221500Y147000D02*
Y155000D01*
X223000Y156500D01*
Y169712D01*
X222900Y169812D01*
Y177400D01*
X223857Y178357D01*
X231385D01*
X232352Y179324D01*
Y184852D01*
X233702Y186202D01*
X237045D01*
G01X368000Y117000D02*
X365968D01*
X361068Y121900D01*
X282800D01*
X278800Y125900D01*
X233427D01*
X227250Y132077D01*
Y147250D01*
X226000Y148500D01*
Y175500D01*
X224748Y176752D01*
X224446D01*
G01X227596Y230302D02*
X229181Y231887D01*
Y239706D01*
X216100Y252788D01*
G01X227595Y170452D02*
Y156605D01*
X227851Y156349D01*
Y156239D01*
X236090Y148000D01*
X236348D01*
X239225Y145123D01*
Y131075D01*
X243050Y127250D01*
X279360D01*
X283210Y123400D01*
X361690D01*
X365590Y119500D01*
X422384D01*
X429200Y112684D01*
Y111170D01*
X428692Y110662D01*
Y109380D01*
X429200Y108872D01*
Y108350D01*
X429650Y107900D01*
X435187D01*
X437308Y110021D01*
G01X227596Y173602D02*
Y172637D01*
X229201Y171032D01*
Y156799D01*
X236650Y149350D01*
X236908D01*
X240575Y145683D01*
Y131635D01*
X243610Y128600D01*
X279920D01*
X283770Y124750D01*
X362250D01*
X366000Y121000D01*
X422794D01*
X433773Y110021D01*
G01X372500Y125500D02*
Y124000D01*
X370850Y122350D01*
X367650D01*
X363800Y126200D01*
X284230D01*
X280480Y129950D01*
X278250D01*
X277800Y130400D01*
Y131350D01*
X277350Y131800D01*
X276450D01*
X276000Y131350D01*
Y130400D01*
X275550Y129950D01*
X274650D01*
X274200Y130400D01*
Y131350D01*
X273750Y131800D01*
X272850D01*
X272400Y131350D01*
Y130400D01*
X271950Y129950D01*
X271050D01*
X270600Y130400D01*
Y131350D01*
X270150Y131800D01*
X269250D01*
X268800Y131350D01*
Y130400D01*
X268350Y129950D01*
X267450D01*
X267000Y130400D01*
Y131350D01*
X266550Y131800D01*
X265650D01*
X265200Y131350D01*
Y130400D01*
X264750Y129950D01*
X263850D01*
X263400Y130400D01*
Y131350D01*
X262950Y131800D01*
X262050D01*
X261600Y131350D01*
Y130400D01*
X261150Y129950D01*
X260250D01*
X259800Y130400D01*
Y131350D01*
X259350Y131800D01*
X258450D01*
X258000Y131350D01*
Y130400D01*
X257550Y129950D01*
X256650D01*
X256200Y130400D01*
Y131350D01*
X255750Y131800D01*
X254850D01*
X254400Y131350D01*
Y130400D01*
X253950Y129950D01*
X253050D01*
X252600Y130400D01*
Y131350D01*
X252150Y131800D01*
X251250D01*
X250800Y131350D01*
Y130400D01*
X250350Y129950D01*
X249450D01*
X249000Y130400D01*
Y131350D01*
X248550Y131800D01*
X247650D01*
X247200Y131350D01*
Y130400D01*
X246750Y129950D01*
X245800D01*
X244645Y131105D01*
Y142391D01*
X241925Y145111D01*
Y150075D01*
X241300Y150700D01*
X237210D01*
X236200Y151710D01*
Y161500D01*
X235700Y162000D01*
X233300D01*
X232800Y162500D01*
Y165200D01*
X230746Y167254D01*
Y170452D01*
G01X380000Y123451D02*
X378049D01*
X373950Y127550D01*
X360440D01*
X359990Y128000D01*
Y128350D01*
X359540Y128800D01*
X358640D01*
X358190Y128350D01*
Y128000D01*
X357740Y127550D01*
X356840D01*
X356390Y128000D01*
Y128350D01*
X355940Y128800D01*
X355040D01*
X354590Y128350D01*
Y128000D01*
X354140Y127550D01*
X353240D01*
X352790Y128000D01*
Y128350D01*
X352340Y128800D01*
X351440D01*
X350990Y128350D01*
Y128000D01*
X350540Y127550D01*
X349640D01*
X349190Y128000D01*
Y128350D01*
X348740Y128800D01*
X347840D01*
X347390Y128350D01*
Y128000D01*
X346940Y127550D01*
X346040D01*
X345590Y128000D01*
Y128350D01*
X345140Y128800D01*
X344240D01*
X343790Y128350D01*
Y128000D01*
X343340Y127550D01*
X342440D01*
X341990Y128000D01*
Y128350D01*
X341540Y128800D01*
X340640D01*
X340190Y128350D01*
Y128000D01*
X339740Y127550D01*
X338840D01*
X338390Y128000D01*
Y128350D01*
X337940Y128800D01*
X337040D01*
X336590Y128350D01*
Y128000D01*
X336140Y127550D01*
X335240D01*
X334790Y128000D01*
Y128350D01*
X334340Y128800D01*
X333440D01*
X332990Y128350D01*
Y128000D01*
X332540Y127550D01*
X331640D01*
X331190Y128000D01*
Y128350D01*
X330740Y128800D01*
X329840D01*
X329390Y128350D01*
Y128000D01*
X328940Y127550D01*
X328040D01*
X327590Y128000D01*
Y128350D01*
X327140Y128800D01*
X326240D01*
X325790Y128350D01*
Y128000D01*
X325340Y127550D01*
X324440D01*
X323990Y128000D01*
Y128350D01*
X323540Y128800D01*
X322640D01*
X322190Y128350D01*
Y128000D01*
X321740Y127550D01*
X320840D01*
X320390Y128000D01*
Y128350D01*
X319940Y128800D01*
X319040D01*
X318590Y128350D01*
Y128000D01*
X318140Y127550D01*
X317240D01*
X316790Y128000D01*
Y128350D01*
X316340Y128800D01*
X315440D01*
X314990Y128350D01*
Y128000D01*
X314540Y127550D01*
X313640D01*
X313190Y128000D01*
Y128350D01*
X312740Y128800D01*
X311840D01*
X311390Y128350D01*
Y128000D01*
X310940Y127550D01*
X310040D01*
X309590Y128000D01*
Y128350D01*
X309140Y128800D01*
X308240D01*
X307790Y128350D01*
Y128000D01*
X307340Y127550D01*
X306440D01*
X305990Y128000D01*
Y128350D01*
X305540Y128800D01*
X304640D01*
X304190Y128350D01*
Y128000D01*
X303740Y127550D01*
X302840D01*
X302390Y128000D01*
Y128350D01*
X301940Y128800D01*
X301040D01*
X300590Y128350D01*
Y128000D01*
X300140Y127550D01*
X299240D01*
X298790Y128000D01*
Y128350D01*
X298340Y128800D01*
X297440D01*
X296990Y128350D01*
Y128000D01*
X296540Y127550D01*
X295640D01*
X295190Y128000D01*
Y128350D01*
X294740Y128800D01*
X293840D01*
X293390Y128350D01*
Y128000D01*
X292940Y127550D01*
X292040D01*
X291590Y128000D01*
Y128350D01*
X291140Y128800D01*
X290240D01*
X289790Y128350D01*
Y128000D01*
X289340Y127550D01*
X288440D01*
X287990Y128000D01*
Y128350D01*
X287540Y128800D01*
X286640D01*
X286190Y128350D01*
Y128000D01*
X285740Y127550D01*
X284790D01*
X282500Y129840D01*
Y131700D01*
X281000Y133200D01*
X247200D01*
X245995Y134405D01*
Y142951D01*
X244645Y144301D01*
Y155891D01*
X243641Y156895D01*
X243605D01*
X232291Y168209D01*
Y175206D01*
X230746Y176751D01*
G01X377000Y127261D02*
X373661Y130600D01*
X358064D01*
X357614Y131050D01*
Y131550D01*
X357164Y132000D01*
X356264D01*
X355814Y131550D01*
Y131050D01*
X355364Y130600D01*
X354464D01*
X354014Y131050D01*
Y131550D01*
X353564Y132000D01*
X352664D01*
X352214Y131550D01*
Y131050D01*
X351764Y130600D01*
X350864D01*
X350414Y131050D01*
Y131550D01*
X349964Y132000D01*
X349064D01*
X348614Y131550D01*
Y131050D01*
X348164Y130600D01*
X347264D01*
X346814Y131050D01*
Y131550D01*
X346364Y132000D01*
X345464D01*
X345014Y131550D01*
Y131050D01*
X344564Y130600D01*
X343664D01*
X343214Y131050D01*
Y131550D01*
X342764Y132000D01*
X341864D01*
X341414Y131550D01*
Y131050D01*
X340964Y130600D01*
X340064D01*
X339614Y131050D01*
Y131550D01*
X339164Y132000D01*
X338264D01*
X337814Y131550D01*
Y131050D01*
X337364Y130600D01*
X336464D01*
X336014Y131050D01*
Y131550D01*
X335564Y132000D01*
X334664D01*
X334214Y131550D01*
Y131050D01*
X333764Y130600D01*
X332864D01*
X332414Y131050D01*
Y131550D01*
X331964Y132000D01*
X331064D01*
X330614Y131550D01*
Y131050D01*
X330164Y130600D01*
X329264D01*
X328814Y131050D01*
Y131550D01*
X328364Y132000D01*
X327464D01*
X327014Y131550D01*
Y131050D01*
X326564Y130600D01*
X325664D01*
X325214Y131050D01*
Y131550D01*
X324764Y132000D01*
X323864D01*
X323414Y131550D01*
Y131050D01*
X322964Y130600D01*
X322064D01*
X321614Y131050D01*
Y131550D01*
X321164Y132000D01*
X320264D01*
X319814Y131550D01*
Y131050D01*
X319364Y130600D01*
X318464D01*
X318014Y131050D01*
Y131550D01*
X317564Y132000D01*
X316664D01*
X316214Y131550D01*
Y131050D01*
X315764Y130600D01*
X314864D01*
X314414Y131050D01*
Y131550D01*
X313964Y132000D01*
X313064D01*
X312614Y131550D01*
Y131050D01*
X312164Y130600D01*
X311264D01*
X310814Y131050D01*
Y131550D01*
X310364Y132000D01*
X309464D01*
X309014Y131550D01*
Y131050D01*
X308564Y130600D01*
X307664D01*
X307214Y131050D01*
Y131550D01*
X306764Y132000D01*
X305864D01*
X305414Y131550D01*
Y131050D01*
X304964Y130600D01*
X304064D01*
X303614Y131050D01*
Y131550D01*
X303164Y132000D01*
X302264D01*
X301814Y131550D01*
Y131050D01*
X301364Y130600D01*
X300464D01*
X300014Y131050D01*
Y131550D01*
X299564Y132000D01*
X298664D01*
X298214Y131550D01*
Y131050D01*
X297764Y130600D01*
X296864D01*
X296414Y131050D01*
Y131550D01*
X295964Y132000D01*
X295064D01*
X294614Y131550D01*
Y131050D01*
X294164Y130600D01*
X293264D01*
X292814Y131050D01*
Y131550D01*
X292364Y132000D01*
X291464D01*
X291014Y131550D01*
Y131050D01*
X290564Y130600D01*
X288361D01*
X286795Y132166D01*
Y133682D01*
X285832Y134645D01*
X284468D01*
X284373Y134550D01*
X249450D01*
X247345Y136655D01*
Y149655D01*
X245995Y151005D01*
Y156451D01*
X244201Y158245D01*
X244165D01*
X235500Y166910D01*
Y175000D01*
X233896Y176604D01*
Y176752D01*
G01X379500Y128870D02*
X374770Y133600D01*
X373277D01*
X372827Y134050D01*
Y134450D01*
X372377Y134900D01*
X371477D01*
X371027Y134450D01*
Y134050D01*
X370577Y133600D01*
X369677D01*
X369227Y134050D01*
Y134450D01*
X368777Y134900D01*
X367877D01*
X367427Y134450D01*
Y134050D01*
X366977Y133600D01*
X366077D01*
X365627Y134050D01*
Y134450D01*
X365177Y134900D01*
X364277D01*
X363827Y134450D01*
Y134050D01*
X363377Y133600D01*
X362477D01*
X362027Y134050D01*
Y134450D01*
X361577Y134900D01*
X360677D01*
X360227Y134450D01*
Y134050D01*
X359777Y133600D01*
X358877D01*
X358427Y134050D01*
Y134450D01*
X357977Y134900D01*
X357077D01*
X356627Y134450D01*
Y134050D01*
X356177Y133600D01*
X355277D01*
X354827Y134050D01*
Y134450D01*
X354377Y134900D01*
X353477D01*
X353027Y134450D01*
Y134050D01*
X352577Y133600D01*
X351677D01*
X351227Y134050D01*
Y134450D01*
X350777Y134900D01*
X349877D01*
X349427Y134450D01*
Y134050D01*
X348977Y133600D01*
X348077D01*
X347627Y134050D01*
Y134450D01*
X347177Y134900D01*
X346277D01*
X345827Y134450D01*
Y134050D01*
X345377Y133600D01*
X344477D01*
X344027Y134050D01*
Y134450D01*
X343577Y134900D01*
X342677D01*
X342227Y134450D01*
Y134050D01*
X341777Y133600D01*
X340877D01*
X340427Y134050D01*
Y134450D01*
X339977Y134900D01*
X339077D01*
X338627Y134450D01*
Y134050D01*
X338177Y133600D01*
X337277D01*
X336827Y134050D01*
Y134450D01*
X336377Y134900D01*
X335477D01*
X335027Y134450D01*
Y134050D01*
X334577Y133600D01*
X333677D01*
X333227Y134050D01*
Y134450D01*
X332777Y134900D01*
X331877D01*
X331427Y134450D01*
Y134050D01*
X330977Y133600D01*
X330077D01*
X329627Y134050D01*
Y134450D01*
X329177Y134900D01*
X328277D01*
X327827Y134450D01*
Y134050D01*
X327377Y133600D01*
X326477D01*
X326027Y134050D01*
Y134450D01*
X325577Y134900D01*
X324677D01*
X324227Y134450D01*
Y134050D01*
X323777Y133600D01*
X322877D01*
X322427Y134050D01*
Y134450D01*
X321977Y134900D01*
X321077D01*
X320627Y134450D01*
Y134050D01*
X320177Y133600D01*
X319277D01*
X318827Y134050D01*
Y134450D01*
X318377Y134900D01*
X317477D01*
X317027Y134450D01*
Y134050D01*
X316577Y133600D01*
X315677D01*
X315227Y134050D01*
Y134450D01*
X314777Y134900D01*
X313877D01*
X313427Y134450D01*
Y134050D01*
X312977Y133600D01*
X312077D01*
X311627Y134050D01*
Y134450D01*
X311177Y134900D01*
X310277D01*
X309827Y134450D01*
Y134050D01*
X309377Y133600D01*
X308477D01*
X308027Y134050D01*
Y134450D01*
X307577Y134900D01*
X306677D01*
X306227Y134450D01*
Y134050D01*
X305777Y133600D01*
X304877D01*
X304427Y134050D01*
Y134450D01*
X303977Y134900D01*
X303077D01*
X302627Y134450D01*
Y134050D01*
X302177Y133600D01*
X301277D01*
X300827Y134050D01*
Y134450D01*
X300377Y134900D01*
X299477D01*
X299027Y134450D01*
Y134050D01*
X298577Y133600D01*
X297677D01*
X297227Y134050D01*
Y134450D01*
X296777Y134900D01*
X295877D01*
X295427Y134450D01*
Y134050D01*
X294977Y133600D01*
X294077D01*
X293627Y134050D01*
Y134450D01*
X293177Y134900D01*
X292277D01*
X291827Y134450D01*
Y134050D01*
X291377Y133600D01*
X290427D01*
X287427Y136600D01*
X250700D01*
X248695Y138605D01*
Y150215D01*
X247345Y151565D01*
Y157011D01*
X244761Y159595D01*
X244725D01*
X238500Y165820D01*
Y169721D01*
X238591Y169812D01*
Y177392D01*
X237046Y178937D01*
Y179902D01*
G01X226989Y246000D02*
X232489D01*
X232939Y245550D01*
Y243250D01*
X233389Y242800D01*
X234289D01*
X234739Y243250D01*
Y248000D01*
X235239Y248500D01*
X236039D01*
X236539Y248000D01*
Y243250D01*
X236989Y242800D01*
X237889D01*
X238339Y243250D01*
Y248200D01*
X238839Y248700D01*
X239639D01*
X240139Y248200D01*
Y243250D01*
X240589Y242800D01*
X241489D01*
X241939Y243250D01*
Y248400D01*
X242439Y248900D01*
X245086D01*
X245586Y248400D01*
Y232542D01*
X243346Y230302D01*
G01X380546Y159077D02*
X377412Y155943D01*
X375333D01*
X373550Y154160D01*
Y146850D01*
X369400Y142700D01*
X364150D01*
X363700Y143150D01*
Y143950D01*
X363250Y144400D01*
X362350D01*
X361900Y143950D01*
Y143150D01*
X361450Y142700D01*
X360550D01*
X360100Y143150D01*
Y143950D01*
X359650Y144400D01*
X358750D01*
X358300Y143950D01*
Y143150D01*
X357850Y142700D01*
X356950D01*
X356500Y143150D01*
Y143950D01*
X356050Y144400D01*
X355150D01*
X354700Y143950D01*
Y143150D01*
X354250Y142700D01*
X353350D01*
X352900Y143150D01*
Y143950D01*
X352450Y144400D01*
X351550D01*
X351100Y143950D01*
Y143150D01*
X350650Y142700D01*
X349750D01*
X349300Y143150D01*
Y143950D01*
X348850Y144400D01*
X347950D01*
X347500Y143950D01*
Y143150D01*
X347050Y142700D01*
X346150D01*
X345700Y143150D01*
Y143950D01*
X345250Y144400D01*
X344350D01*
X343900Y143950D01*
Y143150D01*
X343450Y142700D01*
X342550D01*
X342100Y143150D01*
Y143950D01*
X341650Y144400D01*
X340750D01*
X340300Y143950D01*
Y143150D01*
X339850Y142700D01*
X338950D01*
X338500Y143150D01*
Y143950D01*
X338050Y144400D01*
X337150D01*
X336700Y143950D01*
Y143150D01*
X336250Y142700D01*
X335350D01*
X334900Y143150D01*
Y143950D01*
X334450Y144400D01*
X333550D01*
X333100Y143950D01*
Y143150D01*
X332650Y142700D01*
X331750D01*
X331300Y143150D01*
Y143950D01*
X330850Y144400D01*
X329950D01*
X329500Y143950D01*
Y143150D01*
X329050Y142700D01*
X328150D01*
X327700Y143150D01*
Y143950D01*
X327250Y144400D01*
X326350D01*
X325900Y143950D01*
Y143150D01*
X325450Y142700D01*
X324550D01*
X324100Y143150D01*
Y143950D01*
X323650Y144400D01*
X322750D01*
X322300Y143950D01*
Y143150D01*
X321850Y142700D01*
X320950D01*
X320500Y143150D01*
Y143950D01*
X320050Y144400D01*
X319150D01*
X318700Y143950D01*
Y143150D01*
X318250Y142700D01*
X317350D01*
X316900Y143150D01*
Y143950D01*
X316450Y144400D01*
X315550D01*
X315100Y143950D01*
Y143150D01*
X314650Y142700D01*
X313750D01*
X313300Y143150D01*
Y143950D01*
X312850Y144400D01*
X311950D01*
X311500Y143950D01*
Y143150D01*
X311050Y142700D01*
X310150D01*
X309700Y143150D01*
Y143950D01*
X309250Y144400D01*
X308350D01*
X307900Y143950D01*
Y143150D01*
X307450Y142700D01*
X306550D01*
X306100Y143150D01*
Y143950D01*
X305650Y144400D01*
X304750D01*
X304300Y143950D01*
Y143150D01*
X303850Y142700D01*
X302950D01*
X302500Y143150D01*
Y143950D01*
X302050Y144400D01*
X301150D01*
X300700Y143950D01*
Y143150D01*
X300250Y142700D01*
X299350D01*
X298900Y143150D01*
Y143950D01*
X298450Y144400D01*
X297550D01*
X297100Y143950D01*
Y143150D01*
X296650Y142700D01*
X295700D01*
X293400Y145000D01*
X287748D01*
X286348Y143600D01*
X255000D01*
X252745Y145855D01*
Y151895D01*
X251395Y153245D01*
Y158691D01*
X251250Y158836D01*
Y174000D01*
X251251Y174001D01*
Y174243D01*
X252795Y175787D01*
Y176752D01*
G01X377000Y152000D02*
Y145900D01*
X367700Y136600D01*
X362801D01*
X362351Y137050D01*
Y137750D01*
X361901Y138200D01*
X361001D01*
X360551Y137750D01*
Y137050D01*
X360101Y136600D01*
X359201D01*
X358751Y137050D01*
Y137750D01*
X358301Y138200D01*
X357401D01*
X356951Y137750D01*
Y137050D01*
X356501Y136600D01*
X355601D01*
X355151Y137050D01*
Y137750D01*
X354701Y138200D01*
X353801D01*
X353351Y137750D01*
Y137050D01*
X352901Y136600D01*
X352001D01*
X351551Y137050D01*
Y137750D01*
X351101Y138200D01*
X350201D01*
X349751Y137750D01*
Y137050D01*
X349301Y136600D01*
X348401D01*
X347951Y137050D01*
Y137750D01*
X347501Y138200D01*
X346601D01*
X346151Y137750D01*
Y137050D01*
X345701Y136600D01*
X344801D01*
X344351Y137050D01*
Y137750D01*
X343901Y138200D01*
X343001D01*
X342551Y137750D01*
Y137050D01*
X342101Y136600D01*
X341201D01*
X340751Y137050D01*
Y137750D01*
X340301Y138200D01*
X339401D01*
X338951Y137750D01*
Y137050D01*
X338501Y136600D01*
X337601D01*
X337151Y137050D01*
Y137750D01*
X336701Y138200D01*
X335801D01*
X335351Y137750D01*
Y137050D01*
X334901Y136600D01*
X334001D01*
X333551Y137050D01*
Y137750D01*
X333101Y138200D01*
X332201D01*
X331751Y137750D01*
Y137050D01*
X331301Y136600D01*
X330401D01*
X329951Y137050D01*
Y137750D01*
X329501Y138200D01*
X328601D01*
X328151Y137750D01*
Y137050D01*
X327701Y136600D01*
X326801D01*
X326351Y137050D01*
Y137750D01*
X325901Y138200D01*
X325001D01*
X324551Y137750D01*
Y137050D01*
X324101Y136600D01*
X323201D01*
X322751Y137050D01*
Y137750D01*
X322301Y138200D01*
X321401D01*
X320951Y137750D01*
Y137050D01*
X320501Y136600D01*
X319601D01*
X319151Y137050D01*
Y137750D01*
X318701Y138200D01*
X317801D01*
X317351Y137750D01*
Y137050D01*
X316901Y136600D01*
X316001D01*
X315551Y137050D01*
Y137750D01*
X315101Y138200D01*
X314201D01*
X313751Y137750D01*
Y137050D01*
X313301Y136600D01*
X312401D01*
X311951Y137050D01*
Y137750D01*
X311501Y138200D01*
X310601D01*
X310151Y137750D01*
Y137050D01*
X309701Y136600D01*
X308801D01*
X308351Y137050D01*
Y137750D01*
X307901Y138200D01*
X307001D01*
X306551Y137750D01*
Y137050D01*
X306101Y136600D01*
X305201D01*
X304751Y137050D01*
Y137750D01*
X304301Y138200D01*
X303401D01*
X302951Y137750D01*
Y137050D01*
X302501Y136600D01*
X301601D01*
X301151Y137050D01*
Y137750D01*
X300701Y138200D01*
X299801D01*
X299351Y137750D01*
Y137050D01*
X298901Y136600D01*
X298001D01*
X297551Y137050D01*
Y137750D01*
X297101Y138200D01*
X296201D01*
X295751Y137750D01*
Y137050D01*
X295301Y136600D01*
X293800D01*
X292200Y138200D01*
X252500D01*
X250045Y140655D01*
Y150775D01*
X248695Y152125D01*
Y157571D01*
X247500Y158766D01*
Y174500D01*
X249646Y176646D01*
Y176752D01*
G01Y170452D02*
Y158530D01*
X250045Y158131D01*
Y152685D01*
X251395Y151335D01*
Y143905D01*
X253550Y141750D01*
Y140000D01*
X254000Y139550D01*
X254900D01*
X255350Y140000D01*
Y141750D01*
X255800Y142200D01*
X256700D01*
X257150Y141750D01*
Y140000D01*
X257600Y139550D01*
X258500D01*
X258950Y140000D01*
Y141750D01*
X259400Y142200D01*
X273109D01*
X273559Y141750D01*
Y140000D01*
X274009Y139550D01*
X274909D01*
X275359Y140000D01*
Y141750D01*
X275809Y142200D01*
X276709D01*
X277159Y141750D01*
Y140000D01*
X277609Y139550D01*
X278509D01*
X278959Y140000D01*
Y141750D01*
X279409Y142200D01*
X280309D01*
X280759Y141750D01*
Y140000D01*
X281209Y139550D01*
X282109D01*
X282559Y140000D01*
Y141750D01*
X283009Y142200D01*
X283909D01*
X284359Y141750D01*
Y140000D01*
X284809Y139550D01*
X285709D01*
X286159Y140000D01*
Y141501D01*
X287858Y143200D01*
X292800D01*
X295900Y140100D01*
X296850D01*
X297300Y140550D01*
Y140850D01*
X297750Y141300D01*
X298650D01*
X299100Y140850D01*
Y140550D01*
X299550Y140100D01*
X300450D01*
X300900Y140550D01*
Y140850D01*
X301350Y141300D01*
X302250D01*
X302700Y140850D01*
Y140550D01*
X303150Y140100D01*
X304050D01*
X304500Y140550D01*
Y140850D01*
X304950Y141300D01*
X305850D01*
X306300Y140850D01*
Y140550D01*
X306750Y140100D01*
X307650D01*
X308100Y140550D01*
Y140850D01*
X308550Y141300D01*
X309450D01*
X309900Y140850D01*
Y140550D01*
X310350Y140100D01*
X311250D01*
X311700Y140550D01*
Y140850D01*
X312150Y141300D01*
X313050D01*
X313500Y140850D01*
Y140550D01*
X313950Y140100D01*
X314850D01*
X315300Y140550D01*
Y140850D01*
X315750Y141300D01*
X316650D01*
X317100Y140850D01*
Y140550D01*
X317550Y140100D01*
X318450D01*
X318900Y140550D01*
Y140850D01*
X319350Y141300D01*
X320250D01*
X320700Y140850D01*
Y140550D01*
X321150Y140100D01*
X322050D01*
X322500Y140550D01*
Y140850D01*
X322950Y141300D01*
X323850D01*
X324300Y140850D01*
Y140550D01*
X324750Y140100D01*
X325650D01*
X326100Y140550D01*
Y140850D01*
X326550Y141300D01*
X327450D01*
X327900Y140850D01*
Y140550D01*
X328350Y140100D01*
X329250D01*
X329700Y140550D01*
Y140850D01*
X330150Y141300D01*
X331050D01*
X331500Y140850D01*
Y140550D01*
X331950Y140100D01*
X332850D01*
X333300Y140550D01*
Y140850D01*
X333750Y141300D01*
X334650D01*
X335100Y140850D01*
Y140550D01*
X335550Y140100D01*
X336450D01*
X336900Y140550D01*
Y140850D01*
X337350Y141300D01*
X338250D01*
X338700Y140850D01*
Y140550D01*
X339150Y140100D01*
X340050D01*
X340500Y140550D01*
Y140850D01*
X340950Y141300D01*
X341850D01*
X342300Y140850D01*
Y140550D01*
X342750Y140100D01*
X343650D01*
X344100Y140550D01*
Y140850D01*
X344550Y141300D01*
X345450D01*
X345900Y140850D01*
Y140550D01*
X346350Y140100D01*
X347250D01*
X347700Y140550D01*
Y140850D01*
X348150Y141300D01*
X349050D01*
X349500Y140850D01*
Y140550D01*
X349950Y140100D01*
X350850D01*
X351300Y140550D01*
Y140850D01*
X351750Y141300D01*
X352650D01*
X353100Y140850D01*
Y140550D01*
X353550Y140100D01*
X354450D01*
X354900Y140550D01*
Y140850D01*
X355350Y141300D01*
X356250D01*
X356700Y140850D01*
Y140550D01*
X357150Y140100D01*
X358050D01*
X358500Y140550D01*
Y140850D01*
X358950Y141300D01*
X359850D01*
X360300Y140850D01*
Y140550D01*
X360750Y140100D01*
X368900D01*
X374900Y146100D01*
Y153600D01*
X375893Y154593D01*
X380500D01*
G01X380192Y170356D02*
X381400D01*
X381900Y169856D01*
Y161122D01*
X381400Y160622D01*
X379905D01*
X378360Y159077D01*
X374647D01*
X370850Y155280D01*
Y151250D01*
X368900Y149300D01*
X290350D01*
X289800Y149850D01*
X287745D01*
X287295Y150300D01*
Y151450D01*
X286845Y151900D01*
X285945D01*
X285495Y151450D01*
Y150300D01*
X285045Y149850D01*
X284145D01*
X283695Y150300D01*
Y151450D01*
X283245Y151900D01*
X282345D01*
X281895Y151450D01*
Y150300D01*
X281445Y149850D01*
X280545D01*
X280095Y150300D01*
Y151450D01*
X279645Y151900D01*
X278745D01*
X278295Y151450D01*
Y150300D01*
X277845Y149850D01*
X276514D01*
X276064Y150300D01*
Y153150D01*
X275614Y153600D01*
X274714D01*
X274264Y153150D01*
Y150300D01*
X273814Y149850D01*
X272914D01*
X272464Y150300D01*
Y153150D01*
X272014Y153600D01*
X271114D01*
X270664Y153150D01*
Y150300D01*
X270214Y149850D01*
X268447D01*
X267997Y150300D01*
Y154150D01*
X267547Y154600D01*
X266647D01*
X266197Y154150D01*
Y150300D01*
X265747Y149850D01*
X264847D01*
X264397Y150300D01*
Y154150D01*
X263947Y154600D01*
X263047D01*
X262597Y154150D01*
Y150300D01*
X262147Y149850D01*
X261247D01*
X260797Y150300D01*
Y154150D01*
X260347Y154600D01*
X259447D01*
X258997Y154150D01*
Y150300D01*
X258547Y149850D01*
X256950D01*
X255445Y151355D01*
Y153015D01*
X254401Y154059D01*
Y171093D01*
X255945Y172637D01*
Y173602D01*
G01X375936Y157532D02*
X375697Y157293D01*
X374773D01*
X372200Y154720D01*
Y147410D01*
X371190Y146400D01*
X369000D01*
X368950Y146350D01*
X367380D01*
X366930Y146800D01*
Y147050D01*
X366480Y147500D01*
X365580D01*
X365130Y147050D01*
Y146800D01*
X364680Y146350D01*
X363780D01*
X363330Y146800D01*
Y147050D01*
X362880Y147500D01*
X361980D01*
X361530Y147050D01*
Y146800D01*
X361080Y146350D01*
X360180D01*
X359730Y146800D01*
Y147050D01*
X359280Y147500D01*
X358380D01*
X357930Y147050D01*
Y146800D01*
X357480Y146350D01*
X356580D01*
X356130Y146800D01*
Y147050D01*
X355680Y147500D01*
X354780D01*
X354330Y147050D01*
Y146800D01*
X353880Y146350D01*
X352980D01*
X352530Y146800D01*
Y147050D01*
X352080Y147500D01*
X351180D01*
X350730Y147050D01*
Y146800D01*
X350280Y146350D01*
X349380D01*
X348930Y146800D01*
Y147050D01*
X348480Y147500D01*
X347580D01*
X347130Y147050D01*
Y146800D01*
X346680Y146350D01*
X345780D01*
X345330Y146800D01*
Y147050D01*
X344880Y147500D01*
X343980D01*
X343530Y147050D01*
Y146800D01*
X343080Y146350D01*
X342180D01*
X341730Y146800D01*
Y147050D01*
X341280Y147500D01*
X340380D01*
X339930Y147050D01*
Y146800D01*
X339480Y146350D01*
X338580D01*
X338130Y146800D01*
Y147050D01*
X337680Y147500D01*
X336780D01*
X336330Y147050D01*
Y146800D01*
X335880Y146350D01*
X334980D01*
X334530Y146800D01*
Y147050D01*
X334080Y147500D01*
X333180D01*
X332730Y147050D01*
Y146800D01*
X332280Y146350D01*
X331380D01*
X330930Y146800D01*
Y147050D01*
X330480Y147500D01*
X329580D01*
X329130Y147050D01*
Y146800D01*
X328680Y146350D01*
X327780D01*
X327330Y146800D01*
Y147050D01*
X326880Y147500D01*
X325980D01*
X325530Y147050D01*
Y146800D01*
X325080Y146350D01*
X324180D01*
X323730Y146800D01*
Y147050D01*
X323280Y147500D01*
X322380D01*
X321930Y147050D01*
Y146800D01*
X321480Y146350D01*
X320580D01*
X320130Y146800D01*
Y147050D01*
X319680Y147500D01*
X318780D01*
X318330Y147050D01*
Y146800D01*
X317880Y146350D01*
X316980D01*
X316530Y146800D01*
Y147050D01*
X316080Y147500D01*
X315180D01*
X314730Y147050D01*
Y146800D01*
X314280Y146350D01*
X313380D01*
X312930Y146800D01*
Y147050D01*
X312480Y147500D01*
X311580D01*
X311130Y147050D01*
Y146800D01*
X310680Y146350D01*
X309780D01*
X309330Y146800D01*
Y147050D01*
X308880Y147500D01*
X307980D01*
X307530Y147050D01*
Y146800D01*
X307080Y146350D01*
X306180D01*
X305730Y146800D01*
Y147050D01*
X305280Y147500D01*
X304380D01*
X303930Y147050D01*
Y146800D01*
X303480Y146350D01*
X302580D01*
X302130Y146800D01*
Y147050D01*
X301680Y147500D01*
X300780D01*
X300330Y147050D01*
Y146800D01*
X299880Y146350D01*
X298980D01*
X298530Y146800D01*
Y147050D01*
X298080Y147500D01*
X297180D01*
X296730Y147050D01*
Y146800D01*
X296280Y146350D01*
X295380D01*
X294930Y146800D01*
Y147050D01*
X294480Y147500D01*
X293580D01*
X293130Y147050D01*
Y146800D01*
X292680Y146350D01*
X291780D01*
X291330Y146800D01*
Y147050D01*
X290880Y147500D01*
X289980D01*
X289530Y147050D01*
Y146800D01*
X289080Y146350D01*
X288180D01*
X287730Y146800D01*
Y147050D01*
X287280Y147500D01*
X286380D01*
X285930Y147050D01*
Y146800D01*
X284130Y145000D01*
X283230D01*
X282780Y145450D01*
Y148050D01*
X282330Y148500D01*
X281430D01*
X280980Y148050D01*
Y145450D01*
X280530Y145000D01*
X279630D01*
X279180Y145450D01*
Y148050D01*
X278730Y148500D01*
X277830D01*
X277380Y148050D01*
Y145450D01*
X276930Y145000D01*
X276030D01*
X275580Y145450D01*
Y148050D01*
X275130Y148500D01*
X274230D01*
X273780Y148050D01*
Y145450D01*
X273330Y145000D01*
X272430D01*
X271980Y145450D01*
Y148050D01*
X271530Y148500D01*
X262855D01*
X262405Y148050D01*
Y145750D01*
X261955Y145300D01*
X261055D01*
X260605Y145750D01*
Y148050D01*
X260155Y148500D01*
X259255D01*
X258805Y148050D01*
Y145750D01*
X258355Y145300D01*
X257455D01*
X257005Y145750D01*
Y148050D01*
X256555Y148500D01*
X255200D01*
X254095Y149605D01*
Y152455D01*
X252795Y153755D01*
Y170452D01*
G01X255946D02*
Y164054D01*
X258355Y161644D01*
Y159818D01*
X261128Y157045D01*
X277200D01*
X277700Y156545D01*
Y154100D01*
X278200Y153600D01*
X298600D01*
X299100Y153100D01*
Y151300D01*
X299600Y150800D01*
X300828D01*
X301278Y151250D01*
Y152550D01*
X301728Y153000D01*
X302628D01*
X303078Y152550D01*
Y151250D01*
X303528Y150800D01*
X304428D01*
X304878Y151250D01*
Y152550D01*
X305328Y153000D01*
X306228D01*
X306678Y152550D01*
Y151250D01*
X307128Y150800D01*
X308028D01*
X308478Y151250D01*
Y152550D01*
X308928Y153000D01*
X309828D01*
X310278Y152550D01*
Y151250D01*
X310728Y150800D01*
X311628D01*
X312078Y151250D01*
Y152550D01*
X312528Y153000D01*
X313428D01*
X313878Y152550D01*
Y151250D01*
X314328Y150800D01*
X315228D01*
X315678Y151250D01*
Y152550D01*
X316128Y153000D01*
X317028D01*
X317478Y152550D01*
Y151250D01*
X317928Y150800D01*
X318828D01*
X319278Y151250D01*
Y152550D01*
X319728Y153000D01*
X320628D01*
X321078Y152550D01*
Y151250D01*
X321528Y150800D01*
X322428D01*
X322878Y151250D01*
Y152550D01*
X323328Y153000D01*
X324228D01*
X324678Y152550D01*
Y151250D01*
X325128Y150800D01*
X326028D01*
X326478Y151250D01*
Y152550D01*
X326928Y153000D01*
X327828D01*
X328278Y152550D01*
Y151250D01*
X328728Y150800D01*
X329628D01*
X330078Y151250D01*
Y152550D01*
X330528Y153000D01*
X331428D01*
X331878Y152550D01*
Y151250D01*
X332328Y150800D01*
X333228D01*
X333678Y151250D01*
Y152550D01*
X334128Y153000D01*
X335028D01*
X335478Y152550D01*
Y151250D01*
X335928Y150800D01*
X336828D01*
X337278Y151250D01*
Y152550D01*
X337728Y153000D01*
X338628D01*
X339078Y152550D01*
Y151250D01*
X339528Y150800D01*
X340428D01*
X340878Y151250D01*
Y152550D01*
X341328Y153000D01*
X342228D01*
X342678Y152550D01*
Y151250D01*
X343128Y150800D01*
X344028D01*
X344478Y151250D01*
Y152550D01*
X344928Y153000D01*
X345828D01*
X346278Y152550D01*
Y151250D01*
X346728Y150800D01*
X347628D01*
X348078Y151250D01*
Y152550D01*
X348528Y153000D01*
X349428D01*
X349878Y152550D01*
Y151250D01*
X350328Y150800D01*
X351228D01*
X351678Y151250D01*
Y152550D01*
X352128Y153000D01*
X353028D01*
X353478Y152550D01*
Y151250D01*
X353928Y150800D01*
X354828D01*
X355278Y151250D01*
Y152550D01*
X355728Y153000D01*
X356628D01*
X357078Y152550D01*
Y151250D01*
X357528Y150800D01*
X358428D01*
X358878Y151250D01*
Y152550D01*
X359328Y153000D01*
X360228D01*
X360678Y152550D01*
Y151250D01*
X361128Y150800D01*
X362028D01*
X362478Y151250D01*
Y152550D01*
X362928Y153000D01*
X363828D01*
X364278Y152550D01*
Y151250D01*
X364728Y150800D01*
X368490D01*
X369500Y151810D01*
Y162100D01*
X370000Y162600D01*
X372688D01*
X373138Y162150D01*
Y160877D01*
X373588Y160427D01*
X374488D01*
X374938Y160877D01*
Y162150D01*
X375388Y162600D01*
X379500D01*
X380000Y163100D01*
Y166000D01*
G01X416891Y185635D02*
X419400Y188144D01*
Y192100D01*
X417600Y193900D01*
X388255D01*
X383755Y189400D01*
X376400D01*
X371100Y194700D01*
X362100D01*
X335000Y167600D01*
X313227D01*
X312682Y168145D01*
X311318D01*
X310773Y167600D01*
X306227D01*
X305682Y168145D01*
X304318D01*
X303773Y167600D01*
X300727D01*
X300182Y168145D01*
X298818D01*
X298273Y167600D01*
X296662D01*
X296117Y168145D01*
X294753D01*
X294208Y167600D01*
X291600D01*
X284053Y175147D01*
X267965D01*
X266941Y176171D01*
Y177393D01*
X266037Y178297D01*
X264755D01*
X263791Y179261D01*
Y180543D01*
X262828Y181506D01*
X255304D01*
X254341Y182469D01*
Y183692D01*
X250286Y187747D01*
X249063D01*
X244308Y192502D01*
X243345D01*
G01X255946Y176752D02*
X256248D01*
X257500Y175500D01*
Y166000D01*
X264644Y158856D01*
X279732D01*
X279818Y158770D01*
X281182D01*
X281268Y158856D01*
X282000D01*
X282500Y158356D01*
Y155500D01*
X283000Y155000D01*
X367100D01*
X367600Y155500D01*
Y163504D01*
X368100Y164004D01*
X375004D01*
X378545Y167545D01*
Y171545D01*
X379300Y172300D01*
X384200D01*
X384700Y171800D01*
Y161800D01*
X385200Y161300D01*
X390500D01*
X391000Y161800D01*
Y166700D01*
X390550Y167150D01*
X387750D01*
X387300Y167600D01*
Y168500D01*
X387750Y168950D01*
X390550D01*
X391000Y169400D01*
Y170300D01*
X390550Y170750D01*
X387750D01*
X387300Y171200D01*
Y172100D01*
X387750Y172550D01*
X390550D01*
X391000Y173000D01*
Y185000D01*
X390500Y185500D01*
X390000D01*
G01X255945Y179902D02*
Y179555D01*
X257144Y178356D01*
X260144D01*
X263791Y174709D01*
Y171709D01*
X268500Y167000D01*
X285500D01*
X287600Y164900D01*
X292798D01*
X294193Y163505D01*
X306242D01*
X307637Y164900D01*
X309363D01*
X310758Y163505D01*
X314862D01*
X315312Y163955D01*
Y164400D01*
X315762Y164850D01*
X316662D01*
X317112Y164400D01*
Y163955D01*
X317562Y163505D01*
X318462D01*
X318912Y163955D01*
Y164400D01*
X319362Y164850D01*
X320262D01*
X320712Y164400D01*
Y163955D01*
X321162Y163505D01*
X322062D01*
X322512Y163955D01*
Y164400D01*
X322962Y164850D01*
X323862D01*
X324312Y164400D01*
Y163955D01*
X324762Y163505D01*
X325662D01*
X326112Y163955D01*
Y164400D01*
X326562Y164850D01*
X327462D01*
X327912Y164400D01*
Y163955D01*
X328362Y163505D01*
X329262D01*
X329712Y163955D01*
Y164400D01*
X330162Y164850D01*
X331062D01*
X331512Y164400D01*
Y163955D01*
X331962Y163505D01*
X334820D01*
X336120Y164805D01*
Y164900D01*
X357620Y186400D01*
X360690D01*
X361140Y185950D01*
Y183250D01*
X361590Y182800D01*
X362490D01*
X362940Y183250D01*
Y185950D01*
X363390Y186400D01*
X364290D01*
X364740Y185950D01*
Y183250D01*
X365190Y182800D01*
X366090D01*
X366540Y183250D01*
Y185950D01*
X366990Y186400D01*
X367890D01*
X368340Y185950D01*
Y183250D01*
X368790Y182800D01*
X369690D01*
X370140Y183250D01*
Y185950D01*
X370590Y186400D01*
X371490D01*
X371940Y185950D01*
Y183250D01*
X372390Y182800D01*
X373290D01*
X373740Y183250D01*
Y185950D01*
X374190Y186400D01*
X375090D01*
X375540Y185950D01*
Y183250D01*
X375990Y182800D01*
X376890D01*
X377340Y183250D01*
Y185950D01*
X377790Y186400D01*
X378690D01*
X379140Y185950D01*
Y183250D01*
X379590Y182800D01*
X380490D01*
X380940Y183250D01*
Y185950D01*
X381390Y186400D01*
X382290D01*
X382740Y185950D01*
Y183250D01*
X383190Y182800D01*
X384090D01*
X384540Y183250D01*
Y185950D01*
X387240Y188650D01*
X393850D01*
X397000Y185500D01*
X397092D01*
G01X376387Y168387D02*
X366300D01*
X365800Y167887D01*
Y157000D01*
X365300Y156500D01*
X363011D01*
X362561Y156950D01*
Y159650D01*
X362111Y160100D01*
X361211D01*
X360761Y159650D01*
Y156950D01*
X360311Y156500D01*
X359411D01*
X358961Y156950D01*
Y159650D01*
X358511Y160100D01*
X357611D01*
X357161Y159650D01*
Y156950D01*
X356711Y156500D01*
X355811D01*
X355361Y156950D01*
Y159650D01*
X354911Y160100D01*
X354011D01*
X353561Y159650D01*
Y156950D01*
X353111Y156500D01*
X352211D01*
X351761Y156950D01*
Y159650D01*
X351311Y160100D01*
X350411D01*
X349961Y159650D01*
Y156950D01*
X349511Y156500D01*
X346127D01*
X345677Y156950D01*
Y158050D01*
X345227Y158500D01*
X344327D01*
X343877Y158050D01*
Y156950D01*
X343427Y156500D01*
X342527D01*
X342077Y156950D01*
Y158050D01*
X341627Y158500D01*
X340727D01*
X340277Y158050D01*
Y156950D01*
X339827Y156500D01*
X338927D01*
X338477Y156950D01*
Y158050D01*
X338027Y158500D01*
X337127D01*
X336677Y158050D01*
Y156950D01*
X336227Y156500D01*
X335327D01*
X334877Y156950D01*
Y158050D01*
X334427Y158500D01*
X333527D01*
X333077Y158050D01*
Y156950D01*
X332627Y156500D01*
X331727D01*
X331277Y156950D01*
Y158050D01*
X330827Y158500D01*
X329927D01*
X329477Y158050D01*
Y156950D01*
X329027Y156500D01*
X328127D01*
X327677Y156950D01*
Y158050D01*
X327227Y158500D01*
X326327D01*
X325877Y158050D01*
Y156950D01*
X325427Y156500D01*
X324527D01*
X324077Y156950D01*
Y158050D01*
X323627Y158500D01*
X322727D01*
X322277Y158050D01*
Y156950D01*
X321827Y156500D01*
X320927D01*
X320477Y156950D01*
Y158050D01*
X320027Y158500D01*
X319127D01*
X318677Y158050D01*
Y156950D01*
X318227Y156500D01*
X317327D01*
X316877Y156950D01*
Y158050D01*
X316427Y158500D01*
X315527D01*
X315077Y158050D01*
Y156950D01*
X314627Y156500D01*
X313727D01*
X313277Y156950D01*
Y158050D01*
X312827Y158500D01*
X311927D01*
X311477Y158050D01*
Y156950D01*
X311027Y156500D01*
X310127D01*
X309677Y156950D01*
Y158050D01*
X309227Y158500D01*
X308327D01*
X307877Y158050D01*
Y156950D01*
X307427Y156500D01*
X306527D01*
X306077Y156950D01*
Y158050D01*
X305627Y158500D01*
X304727D01*
X304277Y158050D01*
Y156950D01*
X303827Y156500D01*
X302927D01*
X302477Y156950D01*
Y158050D01*
X302027Y158500D01*
X301127D01*
X300677Y158050D01*
Y156950D01*
X300227Y156500D01*
X299327D01*
X298877Y156950D01*
Y158050D01*
X298427Y158500D01*
X297527D01*
X297077Y158050D01*
Y156950D01*
X296627Y156500D01*
X295727D01*
X295277Y156950D01*
Y158050D01*
X294827Y158500D01*
X293927D01*
X293477Y158050D01*
Y156950D01*
X293027Y156500D01*
X292127D01*
X291677Y156950D01*
Y158050D01*
X291227Y158500D01*
X290327D01*
X289877Y158050D01*
Y156950D01*
X289427Y156500D01*
X288527D01*
X288077Y156950D01*
Y158050D01*
X287627Y158500D01*
X286727D01*
X286277Y158050D01*
Y156950D01*
X285827Y156500D01*
X284350D01*
X283850Y157000D01*
Y162000D01*
X283350Y162500D01*
X263500D01*
X259096Y166904D01*
Y170452D01*
G01X262246D02*
Y168194D01*
X264970Y165470D01*
X284530D01*
X288300Y161700D01*
X335300D01*
X354500Y180900D01*
X355500D01*
X355950Y180450D01*
Y175650D01*
X356400Y175200D01*
X357300D01*
X357750Y175650D01*
Y180450D01*
X358200Y180900D01*
X359100D01*
X359550Y180450D01*
Y175650D01*
X360000Y175200D01*
X360900D01*
X361350Y175650D01*
Y180450D01*
X361800Y180900D01*
X362700D01*
X363150Y180450D01*
Y175650D01*
X363600Y175200D01*
X364500D01*
X364950Y175650D01*
Y180450D01*
X365400Y180900D01*
X366300D01*
X366750Y180450D01*
Y175650D01*
X367200Y175200D01*
X368100D01*
X368550Y175650D01*
Y180450D01*
X369000Y180900D01*
X369900D01*
X370350Y180450D01*
Y175650D01*
X370800Y175200D01*
X371700D01*
X372150Y175650D01*
Y180450D01*
X372600Y180900D01*
X373550D01*
X374000Y180450D01*
Y177650D01*
X374450Y177200D01*
X375350D01*
X375800Y177650D01*
Y180450D01*
X376250Y180900D01*
X377150D01*
X377600Y180450D01*
Y177650D01*
X378050Y177200D01*
X378950D01*
X379400Y177650D01*
Y180450D01*
X379850Y180900D01*
X383100D01*
X383600Y180400D01*
Y178700D01*
X383100Y178200D01*
X381300D01*
X380800Y177700D01*
Y176400D01*
X380300Y175900D01*
X375500D01*
X375000Y175400D01*
Y173000D01*
G01X393500Y185500D02*
X391955Y187045D01*
X389359D01*
X388455Y186141D01*
Y175300D01*
X387505Y174350D01*
X378536D01*
X375641Y171455D01*
Y170300D01*
X375141Y169800D01*
X372550D01*
X372100Y170250D01*
Y172250D01*
X371650Y172700D01*
X370750D01*
X370300Y172250D01*
Y170250D01*
X369850Y169800D01*
X368950D01*
X368500Y170250D01*
Y172250D01*
X368050Y172700D01*
X367150D01*
X366700Y172250D01*
Y170250D01*
X366250Y169800D01*
X365350D01*
X364900Y170250D01*
Y172250D01*
X364450Y172700D01*
X363550D01*
X363100Y172250D01*
Y170250D01*
X362650Y169800D01*
X361750D01*
X361300Y170250D01*
Y172250D01*
X360850Y172700D01*
X359950D01*
X359500Y172250D01*
Y170250D01*
X359050Y169800D01*
X358150D01*
X357700Y170250D01*
Y172250D01*
X357250Y172700D01*
X356350D01*
X355900Y172250D01*
Y170250D01*
X355450Y169800D01*
X354550D01*
X354100Y170250D01*
Y172250D01*
X353650Y172700D01*
X352750D01*
X352300Y172250D01*
Y170250D01*
X351850Y169800D01*
X350950D01*
X350500Y170250D01*
Y172250D01*
X350050Y172700D01*
X349150D01*
X348700Y172250D01*
Y170250D01*
X348250Y169800D01*
X347300D01*
X346800Y169300D01*
Y166892D01*
X346350Y166442D01*
X342852D01*
X342402Y165992D01*
Y165092D01*
X342852Y164642D01*
X346350D01*
X346800Y164192D01*
Y160850D01*
X346300Y160350D01*
X341334D01*
X340884Y160800D01*
Y162350D01*
X340434Y162800D01*
X339534D01*
X339084Y162350D01*
Y160800D01*
X338634Y160350D01*
X287740D01*
X284240Y163850D01*
X264650D01*
X260641Y167859D01*
Y175359D01*
X259248Y176752D01*
X259096D01*
G01X268546Y173602D02*
Y169954D01*
X270000Y168500D01*
X286500D01*
X288600Y166400D01*
X290890D01*
X291040Y166250D01*
X293358D01*
X294753Y164855D01*
X300182D01*
X301577Y166250D01*
X302923D01*
X304318Y164855D01*
X305682D01*
X307077Y166250D01*
X309923D01*
X311318Y164855D01*
X312682D01*
X314027Y166200D01*
X335190D01*
X335240Y166250D01*
X335560D01*
X357210Y187900D01*
X384580D01*
X386680Y190000D01*
X401002D01*
X401452Y190450D01*
Y191750D01*
X401902Y192200D01*
X402802D01*
X403252Y191750D01*
Y190450D01*
X403702Y190000D01*
X404602D01*
X405052Y190450D01*
Y191750D01*
X405502Y192200D01*
X406402D01*
X406852Y191750D01*
Y190450D01*
X407302Y190000D01*
X408202D01*
X408652Y190450D01*
Y191750D01*
X409102Y192200D01*
X410002D01*
X410452Y191750D01*
Y190450D01*
X410902Y190000D01*
X412000D01*
X412400Y190400D01*
Y191500D01*
X413100Y192200D01*
X416600D01*
X417100Y191700D01*
Y189100D01*
X416600Y188600D01*
X415800D01*
X415300Y188100D01*
Y182900D01*
X414800Y182400D01*
X411100D01*
X410600Y182900D01*
Y187400D01*
X410100Y187900D01*
X407000D01*
X406500Y187400D01*
Y183400D01*
X406000Y182900D01*
X403322D01*
X400628Y185594D01*
G01X336754Y213577D02*
X335462Y212285D01*
X335262D01*
X333550Y210573D01*
X332913D01*
X331640Y211846D01*
X331004D01*
X330368Y211209D01*
Y210573D01*
X331640Y209300D01*
Y208664D01*
X331004Y208027D01*
X330368D01*
X329095Y209300D01*
X328458D01*
X327822Y208664D01*
Y208027D01*
X329095Y206754D01*
Y206118D01*
X328458Y205482D01*
X327822D01*
X326549Y206754D01*
X325913D01*
X325277Y206118D01*
Y205482D01*
X326549Y204209D01*
Y203572D01*
X325913Y202936D01*
X325277D01*
X324004Y204209D01*
X323367D01*
X322731Y203572D01*
Y202936D01*
X324004Y201663D01*
Y201027D01*
X322385Y199408D01*
X314211D01*
X314077Y199543D01*
X305690D01*
X303428Y197280D01*
X281844D01*
X281795Y197231D01*
X274197D01*
X273275Y198152D01*
Y200373D01*
X271696Y201952D01*
G01X268545D02*
X270125Y200372D01*
Y195002D01*
X271055Y194072D01*
X310968D01*
X313154Y196258D01*
X323391D01*
X324495Y195154D01*
X325202D01*
X327805Y197757D01*
Y198394D01*
X327098Y199101D01*
Y199737D01*
X327734Y200373D01*
X328371D01*
X329078Y199666D01*
X329714D01*
X330351Y200303D01*
Y200939D01*
X329644Y201646D01*
Y202283D01*
X330280Y202919D01*
X330916D01*
X331624Y202212D01*
X332260D01*
X332896Y202848D01*
Y203485D01*
X332189Y204192D01*
Y204828D01*
X332826Y205465D01*
X333462D01*
X334169Y204758D01*
X334805D01*
X335594Y205546D01*
Y206253D01*
X334776Y207070D01*
Y207650D01*
X334730Y207697D01*
Y208404D01*
X336754Y210428D01*
G01X271696Y211402D02*
X273274Y212981D01*
X281795D01*
X281862Y213048D01*
X291902D01*
X293316Y214463D01*
Y218564D01*
X294519Y219767D01*
X295155D01*
X295615Y219307D01*
X296322D01*
X296888Y219873D01*
Y220580D01*
X296428Y221039D01*
Y221676D01*
X297064Y222312D01*
X297701D01*
X301378Y218635D01*
X302014D01*
X302651Y219272D01*
Y219908D01*
X298974Y223585D01*
Y224221D01*
X299610Y224858D01*
X300246D01*
X303923Y221181D01*
X304560D01*
X305196Y221817D01*
Y222454D01*
X301519Y226131D01*
Y227121D01*
X303428Y229029D01*
X305463D01*
X305912Y228579D01*
Y226509D01*
X306362Y226059D01*
X307263D01*
X307713Y226509D01*
Y228579D01*
X308162Y229029D01*
X309063D01*
X309513Y228579D01*
Y226509D01*
X309963Y226059D01*
X310864D01*
X311313Y226509D01*
Y228579D01*
X311763Y229029D01*
X312658D01*
X313157Y228530D01*
X313158Y225539D01*
X315668Y223029D01*
X317853D01*
G01X271696Y217701D02*
X273300Y219306D01*
Y224641D01*
X274206Y225548D01*
X274703D01*
X274761Y225606D01*
X275485D01*
X276391Y226512D01*
Y227236D01*
X276449Y227294D01*
Y227791D01*
X277356Y228697D01*
X277852D01*
X277911Y228756D01*
X278635D01*
X279542Y229663D01*
Y230387D01*
X279600Y230445D01*
Y230941D01*
X280506Y231848D01*
X281002D01*
X281061Y231906D01*
X281785D01*
X282692Y232813D01*
Y238628D01*
X284336Y240272D01*
X336803D01*
X340059Y237016D01*
Y232632D01*
G01X486000Y252000D02*
X485250Y252750D01*
X461950D01*
X460955Y251755D01*
X450618D01*
X447973Y254400D01*
X429300D01*
X423000Y248100D01*
X415100D01*
X412300Y250900D01*
X386720D01*
X384200Y253420D01*
X368420D01*
X363641Y248641D01*
X347041D01*
X344227Y245827D01*
X284773D01*
X279600Y251000D01*
X275000D01*
X268000Y244000D01*
X265500D01*
X263851Y242351D01*
Y234997D01*
X265396Y233452D01*
G01X483500Y254414D02*
X470086D01*
X467999Y256501D01*
X428401D01*
X425300Y253400D01*
X389339D01*
X387319Y255420D01*
X366220D01*
X361441Y250641D01*
X325741D01*
X322927Y247827D01*
X286050D01*
X280877Y253000D01*
X274000D01*
X267000Y246000D01*
X264500D01*
X260640Y242140D01*
Y238198D01*
X262241Y236597D01*
G01X262246Y239752D02*
Y242246D01*
X265000Y245000D01*
X267500D01*
X274500Y252000D01*
X280377D01*
X285550Y246827D01*
X323342D01*
X326115Y249600D01*
X337300D01*
X337341Y249641D01*
X362100D01*
X366879Y254420D01*
X386904D01*
X388924Y252400D01*
X425885D01*
X428985Y255500D01*
X457600D01*
X459500Y253600D01*
G01X259096Y233453D02*
X259047D01*
X257500Y235000D01*
Y241000D01*
X265000Y248500D01*
X267844D01*
X273344Y254000D01*
X281600D01*
X286773Y248827D01*
X319827D01*
X325400Y254400D01*
X362499D01*
X364519Y256420D01*
X383920D01*
X385500Y258000D01*
X431200D01*
X433400Y260200D01*
X458500D01*
X460400Y258300D01*
G01X364000Y258500D02*
X361500D01*
X358500Y255500D01*
X324000D01*
X318600Y250100D01*
X287100D01*
X281800Y255400D01*
X273200D01*
X271600Y257000D01*
X259500D01*
G01X281145Y220852D02*
X283440Y223147D01*
Y223854D01*
X283045Y224249D01*
Y224956D01*
X285393Y227304D01*
Y229214D01*
X285843Y229663D01*
X286854Y229664D01*
X287304Y230114D01*
Y231015D01*
X286854Y231464D01*
X285842D01*
X285393Y231913D01*
Y232814D01*
X285843Y233264D01*
X286854Y233265D01*
X287304Y233714D01*
Y234615D01*
X286854Y235065D01*
X285842D01*
X285393Y235514D01*
Y236662D01*
X286096Y237366D01*
X289505D01*
X290372Y236499D01*
Y230404D01*
X291162Y229613D01*
X291164D01*
X291613Y229163D01*
X293631D01*
X294873Y230405D01*
Y235677D01*
X296562Y237366D01*
X331365D01*
X335208Y233523D01*
Y230870D01*
X336754Y229325D01*
G01X281146Y217702D02*
X282691Y219247D01*
Y220489D01*
X284790Y222588D01*
Y224180D01*
X289005Y228395D01*
X290471D01*
X290604Y228262D01*
X290605D01*
X291055Y227813D01*
X294190D01*
X296224Y229846D01*
Y234482D01*
X297757Y236015D01*
X299271D01*
X299721Y235565D01*
Y235065D01*
X300171Y234615D01*
X301072D01*
X301521Y235065D01*
Y235565D01*
X301971Y236015D01*
X302872D01*
X303322Y235565D01*
Y235065D01*
X303771Y234615D01*
X304672D01*
X305122Y235065D01*
Y235565D01*
X305572Y236015D01*
X306472D01*
X306922Y235565D01*
Y235065D01*
X307372Y234615D01*
X308273D01*
X308722Y235065D01*
Y235565D01*
X309172Y236015D01*
X330807D01*
X333857Y232965D01*
Y231952D01*
X331995Y230090D01*
Y229383D01*
X335208Y226169D01*
Y224619D01*
X332828Y222240D01*
Y221165D01*
X334116Y219878D01*
X336754D01*
G01X281145Y214552D02*
X287041D01*
X287967Y215477D01*
Y216114D01*
X287260Y216821D01*
Y217457D01*
X287896Y218094D01*
X288532D01*
X289240Y217386D01*
X289876D01*
X290512Y218023D01*
Y218659D01*
X289805Y219366D01*
Y220003D01*
X290442Y220639D01*
X291078D01*
X291785Y219932D01*
X292422D01*
X303569Y231080D01*
X313829D01*
X313844Y231094D01*
X315122D01*
X316264Y229952D01*
Y228663D01*
X317171Y227756D01*
X318449D01*
X318553Y227859D01*
X321722D01*
X322737Y228875D01*
Y229910D01*
X323644Y230817D01*
X325470D01*
X330757Y225529D01*
Y224610D01*
X329301Y223153D01*
Y220268D01*
X334192Y215376D01*
X335919D01*
X336114Y215181D01*
X338135D01*
X338193Y215123D01*
X341446D01*
X343054Y213515D01*
Y210428D01*
G01X277995Y217702D02*
X279541Y216156D01*
X281785D01*
X290910Y225281D01*
X294094D01*
X302077Y233265D01*
X308831D01*
X310231Y234665D01*
X316052D01*
X316502Y234215D01*
Y232307D01*
X316952Y231857D01*
X317853D01*
X318302Y232307D01*
Y234215D01*
X318752Y234665D01*
X319653D01*
X320103Y234215D01*
Y232307D01*
X320552Y231857D01*
X321453D01*
X321903Y232307D01*
Y234215D01*
X322353Y234665D01*
X324167D01*
X326322Y232510D01*
X326958D01*
X328372Y233924D01*
X329009D01*
X329645Y233288D01*
Y232652D01*
X328231Y231237D01*
Y230601D01*
X332985Y225847D01*
Y224857D01*
X330651Y222524D01*
Y220827D01*
X334751Y216727D01*
X336754D01*
G01X277996Y224001D02*
X279600Y225606D01*
X281785D01*
X284042Y227863D01*
Y237716D01*
X285043Y238716D01*
X291272D01*
X291722Y238267D01*
Y230964D01*
X292172Y230514D01*
X293073D01*
X293522Y230964D01*
Y238267D01*
X293972Y238716D01*
X335106D01*
X336754Y237069D01*
Y232475D01*
G01X286100Y261000D02*
X291700D01*
X295600Y264900D01*
X336100D01*
X339000Y262000D01*
X351600D01*
X353699Y264099D01*
X392799D01*
X397600Y268900D01*
Y271100D01*
X401800Y275300D01*
X434200D01*
X438600Y270900D01*
Y270899D01*
X445400Y264099D01*
X460115D01*
X460514Y263700D01*
X462600D01*
X465600Y266700D01*
G01X281700Y260000D02*
X286450Y264750D01*
Y268150D01*
X290600Y272300D01*
X296400D01*
X298600Y274500D01*
X331000D01*
X337200Y280700D01*
X358400D01*
X364142Y274958D01*
X396943D01*
X399385Y277400D01*
X470773D01*
X470818Y277355D01*
X471445D01*
X476800Y272000D01*
X486000D01*
G01X286100Y258100D02*
X291900D01*
X296700Y262900D01*
X334600D01*
X338500Y259000D01*
X357400D01*
X359900Y261500D01*
X365800D01*
X366600Y260700D01*
X431143D01*
X432593Y262150D01*
X459307D01*
X460757Y260700D01*
X462900D01*
X464000Y261800D01*
G01X460800Y266600D02*
X460700Y266500D01*
X450100D01*
X440300Y276300D01*
X399700D01*
X389900Y266500D01*
X352900D01*
X347600Y271800D01*
X301400D01*
G01X367500Y218000D02*
Y222500D01*
X369500Y224500D01*
Y233500D01*
X376500Y240500D01*
X382173D01*
X382318Y240355D01*
X383682D01*
X383827Y240500D01*
X394000D01*
X400000Y246500D01*
X402980D01*
G01X442000Y226000D02*
X439500Y228500D01*
X390500D01*
X388500Y226500D01*
Y210500D01*
X382250Y204250D01*
X376750D01*
X374500Y202000D01*
Y194000D01*
X377000Y191500D01*
X382455D01*
X382500Y191545D01*
G01X468500Y180500D02*
X461500Y187500D01*
X454500D01*
X442000Y200000D01*
X429500D01*
X428500Y199000D01*
X410500D01*
X405500Y204000D01*
X384500D01*
X383145Y202645D01*
X380845D01*
X377350Y199150D01*
G01X429000Y197000D02*
X428300Y197700D01*
X409000D01*
X408200Y198500D01*
X405000D01*
X404000Y197500D01*
X399500D01*
X397455Y199545D01*
X385045D01*
X384000Y198500D01*
G01X371000Y203000D02*
X373000Y205000D01*
Y216500D01*
X374145Y217645D01*
Y223355D01*
X373000Y224500D01*
Y233000D01*
X377000Y237000D01*
X383000D01*
X384500Y235500D01*
X425500D01*
X427000Y234000D01*
X450500D01*
X453258Y236758D01*
G01X444500Y225000D02*
Y227500D01*
X441500Y230500D01*
X426501D01*
X423501Y233500D01*
X383000D01*
X381500Y235000D01*
X379500D01*
G01X451290Y218500D02*
X449000Y216210D01*
Y206000D01*
X444556Y201556D01*
X410556D01*
G01X434000Y236500D02*
X432500Y238000D01*
X408500D01*
X404720Y241780D01*
Y244056D01*
G01X517000Y189000D02*
X511000D01*
X492000Y208000D01*
Y227000D01*
X487500Y231500D01*
Y243000D01*
X479699Y250801D01*
X462942D01*
X455041Y242900D01*
X434300D01*
X433000Y244200D01*
X416444D01*
X416144Y244500D01*
Y244682D01*
X415182Y245644D01*
X411582D01*
X411382Y245844D01*
X410156D01*
X409500Y246500D01*
X406648D01*
X406627Y246521D01*
X406549D01*
G01X524000Y159500D02*
X521000Y162500D01*
X472500D01*
X469500Y159500D01*
X440000D01*
X435573Y163927D01*
X429124D01*
G01X476500Y179000D02*
Y181500D01*
X475500Y182500D01*
X472500D01*
X471000Y181000D01*
Y180000D01*
X469794Y178794D01*
X466706D01*
X465500Y180000D01*
Y181000D01*
X461000Y185500D01*
X453000D01*
X447260Y191240D01*
X441780D01*
G54D19*
X449538Y107624D03*
X454460Y107620D03*
M02*
