G04 ================== begin FILE IDENTIFICATION RECORD ==================*
G04 Layout Name:  F:/work/Eileen/hmd/002/hmd-C-119-2015pm13.brd*
G04 Film Name:    hmd_c_L8*
G04 File Format:  Gerber RS274X*
G04 File Origin:  Cadence Allegro 16.3-S053*
G04 Origin Date:  Mon Jan 19 12:35:49 2015*
G04 *
G04 Layer:  VIA CLASS/L8*
G04 Layer:  PIN/L8*
G04 Layer:  ETCH/L8*
G04 Layer:  BOARD GEOMETRY/OUTLINE*
G04 *
G04 Offset:    (0.00 0.00)*
G04 Mirror:    No*
G04 Mode:      Positive*
G04 Rotation:  0*
G04 FullContactRelief:  No*
G04 UndefLineWidth:     5.00*
G04 ================== end FILE IDENTIFICATION RECORD ====================*
%FSLAX55Y55*MOIN*%
%IR0*IPPOS*OFA0.00000B0.00000*MIA0B0*SFA1.00000B1.00000*%
%ADD10C,.02*%
%ADD23C,.03*%
%ADD18C,.04*%
%ADD15C,.022*%
%ADD17C,.026*%
%ADD13C,.018*%
%ADD11C,.028*%
%ADD20C,.065*%
%ADD12C,.056*%
%ADD16C,.057*%
%ADD21R,.065X.065*%
%AMMACRO19*
21,1,.034,.014,0.0,0.0,179.96*
1,1,.034,.000005,.007*
1,1,.034,-.000005,-.007*%
%ADD19MACRO19*%
%ADD14C,.2*%
%ADD22O,.034X.048*%
%ADD24C,.015*%
%ADD25C,.005*%
%ADD33C,.034*%
%ADD28C,.03104*%
%ADD34C,.05004*%
%ADD32C,.03162*%
%ADD27C,.02704*%
%ADD29C,.03704*%
%ADD26C,.02904*%
%ADD36C,.06406*%
%ADD31C,.07604*%
%ADD30C,.07704*%
%ADD35C,.22004*%
G75*
%LPD*%
G75*
G36*
G01X370453Y204953D02*
X390634Y225134D01*
G02X391276Y225027I283J-283D01*
G03X393353Y227104I1394J683D01*
G02X393246Y227746I176J359D01*
G01X396654Y231154D01*
G02X397296Y231047I283J-283D01*
G03X399373Y233124I1394J683D01*
G02X399266Y233766I176J359D01*
G01X400500Y235000D01*
X429447D01*
G03X431553I1053J1000D01*
G01X485000D01*
X492800Y227200D01*
Y216700D01*
X493898Y215602D01*
Y215601D01*
X496625Y212875D01*
X508700Y200800D01*
Y187600D01*
X504600Y183500D01*
X495500D01*
X491500Y187500D01*
X446032D01*
Y195492D01*
X437373D01*
X437319Y195608D01*
G03X436180Y196441I-1319J-608D01*
G02X435854Y196975I50J397D01*
G03X434294Y198937I-1354J525D01*
G03X433182Y196890I206J-1437D01*
G02X432977Y196355I-363J-168D01*
G03X432409Y195958I524J-1354D01*
G03X433660Y193557I1091J-958D01*
G03X434490Y193938I-160J1443D01*
G02X435010I260J-304D01*
G03X436891Y193853I990J1062D01*
G02X437528Y193532I237J-322D01*
G01Y187500D01*
X427602D01*
G02X427271Y188124I0J400D01*
G03X425029I-1121J756D01*
G02X424698Y187500I-331J-224D01*
G01X418000D01*
X417396Y186896D01*
X417281Y186930D01*
G03X415596Y185246I-390J-1295D01*
G01X415630Y185131D01*
X408788Y178289D01*
G03X408767Y178267I1365J-1324D01*
G01X408765Y178265D01*
X406456Y175956D01*
X406454Y175954D01*
G03X406432Y175933I1302J-1386D01*
G01X376000Y145500D01*
X292000D01*
X271930Y125430D01*
X271819Y125459D01*
G03X269972Y124907I-471J-1791D01*
G02X269414Y124905I-280J286D01*
G03X267006Y125094I-1314J-1305D01*
G03X267108Y122036I1094J-1494D01*
G02X267192Y121433I-215J-337D01*
G03X267071Y121283I1379J-1236D01*
G03X266725Y120298I1504J-1081D01*
G01X266721Y120221D01*
X248500Y102000D01*
Y92763D01*
X248390Y92707D01*
G03Y90293I610J-1207D01*
G01X248500Y90237D01*
Y87000D01*
X243953Y82453D01*
X243880Y82447D01*
G03X242553Y81120I120J-1447D01*
G01X242547Y81047D01*
X241600Y80100D01*
X161675D01*
G02X161366Y80754I0J400D01*
G03X159338I-1014J894D01*
G02X159029Y80100I-309J-254D01*
G01X157252D01*
G02X156852Y80500I0J400D01*
G03X154173Y80241I-1352J0D01*
G01X154211Y80044D01*
X148051Y78861D01*
X143000Y77000D01*
X137691Y74146D01*
X136516Y73755D01*
X131599Y70872D01*
X103000Y55500D01*
X98000Y53500D01*
X94171D01*
G02X93782Y53996I-1J400D01*
G03X90218I-1782J504D01*
G02X89829Y53500I-388J-96D01*
G01X34300D01*
X21714Y66086D01*
X21754Y66204D01*
G03X20700Y68515I-1754J596D01*
G01Y73207D01*
G03X21511Y75749I-818J1661D01*
G03X21094Y76269I-1630J-880D01*
G02Y76861I269J296D01*
G03X21210Y79569I-1203J1408D01*
G03X20700Y79935I-1319J-1300D01*
G01Y80200D01*
X16500Y84400D01*
Y85500D01*
X15000Y117500D01*
Y217000D01*
X31000Y233000D01*
X41465D01*
G03X59280Y232918I8937J6417D01*
G03X59850Y245054I-8878J6498D01*
G01Y250772D01*
G02X60535Y251053I400J0D01*
G03Y252947I965J947D01*
G02X59850Y253228I-285J281D01*
G01Y254272D01*
G02X60535Y254553I400J0D01*
G03Y256447I965J947D01*
G02X59850Y256728I-285J281D01*
G01Y257772D01*
G02X60535Y258053I400J0D01*
G03X62841Y259174I965J947D01*
G03X60237Y259482I-1341J-174D01*
G01X60188Y259353D01*
X59850D01*
Y260150D01*
X63550Y263850D01*
Y272598D01*
G02X64177Y272927I400J0D01*
G03Y275073I823J1073D01*
G02X63550Y275402I-227J329D01*
G01Y278550D01*
X68400Y283400D01*
X76941D01*
G02X77298Y282818I1J-400D01*
G03X79702I1202J-618D01*
G02X80059Y283400I356J182D01*
G01X85880D01*
G02X86240Y282827I0J-400D01*
G03X88692Y281303I1310J-628D01*
G02X89321I315J-247D01*
G03X91785Y282827I1179J847D01*
G02X92145Y283400I360J173D01*
G01X116900D01*
X117600Y282700D01*
Y276600D01*
X114300Y273300D01*
X109679D01*
G02X109479Y273500I0J200D01*
G03X106575I-1452J0D01*
G02X106375Y273300I-200J0D01*
G01X84200D01*
X77249Y266349D01*
G02X76660Y266374I-283J283D01*
G03X74688Y266704I-1160J-874D01*
G03X74218Y264818I812J-1204D01*
G03X75324Y264059I1282J682D01*
G01X75500Y264037D01*
Y260828D01*
X75361Y260784D01*
G03Y258016I439J-1384D01*
G01X75500Y257972D01*
Y222700D01*
X66802Y214002D01*
X66800D01*
X66499Y213700D01*
X48348D01*
G03X46452I-948J-1100D01*
G01X35200D01*
X33932Y212432D01*
X32212Y210713D01*
Y210712D01*
X32000Y210500D01*
Y180700D01*
X35683Y177017D01*
G02X35636Y176411I-283J-283D01*
G03X37653Y174394I814J-1203D01*
G02X38259Y174441I323J-236D01*
G01X49300Y163400D01*
Y149772D01*
G03X49109Y149647I697J-1274D01*
G03X49020Y149571I898J-1141D01*
G02X48480I-270J295D01*
G03X47250Y149930I-980J-1071D01*
G03X46000Y149553I-250J-1430D01*
G03X44749Y149930I-1000J-1053D01*
G03Y147070I-249J-1430D01*
G03X46000Y147447I251J1430D01*
G03X47250Y147070I1000J1053D01*
G03X48480Y147429I250J1430D01*
G02X49020I270J-295D01*
G03X49109Y147353I987J1065D01*
G03X49300Y147228I888J1149D01*
G01Y140947D01*
X49148Y140909D01*
G03Y138091I352J-1409D01*
G01X49300Y138053D01*
Y134852D01*
G02X48900Y134452I-400J0D01*
G03Y131548I0J-1452D01*
G02X49300Y131148I0J-400D01*
G01Y117800D01*
X51998Y115102D01*
Y115101D01*
X54823Y112277D01*
X60298Y106802D01*
G02X60084Y106125I-283J-283D01*
G03X62225Y103984I316J-1825D01*
G02X62902Y104198I394J-69D01*
G01X63432Y103668D01*
X66101Y100998D01*
X66102D01*
X66293Y100807D01*
G02X66310Y100260I-283J-283D01*
G03X68360Y98210I1090J-960D01*
G02X68907Y98193I264J-300D01*
G01X77577Y89523D01*
G02X77341Y88843I-283J-283D01*
G03X78843Y87341I159J-1343D01*
G02X79523Y87577I397J-47D01*
G01X85400Y81700D01*
X93874D01*
X93890Y81697D01*
G03X97464I1787J10857D01*
G01X97480Y81700D01*
X116181D01*
G03X118819I1319J1300D01*
G01X119681D01*
G03X122846Y83146I1319J1300D01*
G01X122839Y83238D01*
X134350Y94750D01*
X135650D01*
X135800Y94900D01*
X156500D01*
X158497Y96897D01*
X158627Y96828D01*
G03X160038Y96808I725J1372D01*
G03X160904Y98239I-685J1392D01*
G02X161313Y98648I400J9D01*
G03X162744Y99514I39J1551D01*
G03X162650Y101050I-1392J686D01*
G01X177800Y116200D01*
X177900D01*
X184500Y122800D01*
Y138000D01*
X210000Y163500D01*
X217500D01*
X223493Y169493D01*
G03X225405Y171405I953J959D01*
G01X226643Y172643D01*
G03X228903Y173256I953J959D01*
G03X227235Y174905I-1307J346D01*
G02X226750Y175296I-85J391D01*
G01Y178206D01*
G02X227252Y178593I400J0D01*
G03Y181209I343J1308D01*
G02X226750Y181596I-102J387D01*
G01Y181840D01*
X226994D01*
X227033Y181822D01*
G03X227744Y181707I564J1229D01*
G03X228852Y183552I-148J1344D01*
G03X227235Y184354I-1256J-501D01*
G02X226750Y184745I-85J391D01*
G01Y184990D01*
X226994D01*
X227033Y184972D01*
G03X228571Y185266I562J1230D01*
G03X228403Y187286I-976J936D01*
G03X227252Y187510I-808J-1084D01*
G02X226750Y187897I-102J387D01*
G01Y190807D01*
G02X227252Y191194I400J0D01*
G03Y193810I343J1308D01*
G02X226750Y194197I-102J387D01*
G01Y194439D01*
X226994D01*
X227033Y194421D01*
G03Y196881I562J1230D01*
G01X226994Y196863D01*
X226750D01*
Y197250D01*
X231866Y202366D01*
G02X232549Y202065I283J-283D01*
G03X233783Y203299I1347J-113D01*
G02X233482Y203982I-18J400D01*
G01X233500Y204000D01*
Y206500D01*
G02X233899Y206900I400J0D01*
G03Y209604I-3J1352D01*
G02X233500Y210004I1J400D01*
G01Y211500D01*
X232500Y212500D01*
Y215500D01*
X233764Y216764D01*
G03X233788Y216788I-1332J1356D01*
G01X233789Y216789D01*
X234807Y217806D01*
G03X234828Y217828I-1365J1324D01*
G01X234830Y217830D01*
X235000Y218000D01*
X235296D01*
G02X235695Y217623I0J-400D01*
G03X238352Y217356I1350J78D01*
G03X238394Y217780I-1307J344D01*
G01Y218000D01*
X238847D01*
Y217780D01*
G03X238889Y217356I1349J-80D01*
G03X241546Y217623I1307J345D01*
G02X241945Y218000I399J-23D01*
G01X247897D01*
G02X248296Y217623I0J-400D01*
G03X250953Y217356I1350J78D01*
G03X250995Y217780I-1307J344D01*
G01Y218000D01*
X251446D01*
Y217780D01*
G03X251488Y217356I1349J-80D01*
G03X254145Y217623I1307J345D01*
G02X254544Y218000I399J-23D01*
G01X256000D01*
X256459Y217541D01*
X256460Y217540D01*
G03X256484Y217516I1356J1332D01*
G01X258037Y215963D01*
G02X258070Y215433I-282J-284D01*
G03X258020Y213722I1021J-886D01*
G03X259484Y213253I1071J825D01*
G02X260000Y212871I116J-383D01*
G01Y212672D01*
X259809Y212556D01*
X259709Y212607D01*
G03X257745Y211354I-613J-1205D01*
G03X259485Y210107I1351J48D01*
G02X260000Y209724I115J-383D01*
G01Y207000D01*
X264276Y202724D01*
X264205Y202593D01*
G03X265748Y200647I1191J-641D01*
G01X265774Y200654D01*
X266000D01*
Y200100D01*
X265773D01*
X265748Y200107D01*
G03X264126Y198337I-353J-1305D01*
G03X265553Y197459I1270J465D01*
G02X266000Y197062I47J-397D01*
G01Y194242D01*
G02X265553Y193845I-400J0D01*
G03Y191159I-157J-1343D01*
G02X266000Y190762I47J-397D01*
G01Y187942D01*
G02X265553Y187545I-400J0D01*
G03Y184859I-157J-1343D01*
G02X266000Y184462I47J-397D01*
G01Y181641D01*
G02X265553Y181244I-400J0D01*
G03X264198Y179274I-157J-1343D01*
G03X265748Y178596I1198J627D01*
G01X265774Y178603D01*
X266000D01*
Y178050D01*
X265774D01*
X265748Y178057D01*
G03Y175447I-352J-1305D01*
G01X265774Y175454D01*
X266000D01*
Y174900D01*
X265773D01*
X265748Y174907D01*
G03X264126Y173137I-353J-1305D01*
G03X265553Y172259I1270J465D01*
G02X266000Y171862I47J-397D01*
G01Y171500D01*
X269500Y168000D01*
X293945D01*
G02X294276Y167374I1J-400D01*
G03X296594I1159J-874D01*
G02X296925Y168000I330J226D01*
G01X310510D01*
G02X310841Y167374I1J-400D01*
G03X313159I1159J-874D01*
G02X313490Y168000I330J226D01*
G01X333500D01*
X356002Y190501D01*
Y190502D01*
X369047Y203547D01*
X369121Y203553D01*
G03X369204Y203562I-115J1448D01*
G02X369654Y203128I52J-396D01*
G03X370872Y204346I1346J-128D01*
G02X370438Y204796I-38J398D01*
G03X370447Y204879I-1439J198D01*
G01X370453Y204953D01*
G37*
G36*
G01X37000Y35000D02*
X47937Y45937D01*
X92037D01*
X137140Y72380D01*
X137484Y72495D01*
X138288Y72762D01*
X138290Y72763D01*
X151000Y77000D01*
X331877D01*
X341878Y66998D01*
X384001D01*
X386000Y65000D01*
Y14500D01*
X385000Y13500D01*
X375700D01*
Y15200D01*
X375200Y17600D01*
X373800Y21100D01*
X372300Y23700D01*
X370200Y26100D01*
X367500Y28300D01*
X364600Y30000D01*
X361500Y31100D01*
Y44500D01*
X361099Y44901D01*
X208901D01*
X208900Y44900D01*
X208300D01*
X207800Y44400D01*
Y31000D01*
X205000Y30100D01*
X201600Y28200D01*
X199300Y26300D01*
X196700Y23200D01*
X195100Y20200D01*
X194000Y16900D01*
X193432Y13400D01*
X87334D01*
X86500Y17800D01*
X85000Y21500D01*
X82300Y25600D01*
X78000Y29100D01*
X76500Y29700D01*
X73600Y30800D01*
X71400Y31300D01*
X69500Y31600D01*
X65700Y31500D01*
X62700Y30800D01*
X60400Y29900D01*
X57700Y28500D01*
X54300Y25600D01*
X53600Y24900D01*
X51800Y22300D01*
X50800Y20400D01*
X50100Y18100D01*
X49500Y15700D01*
X49300Y13800D01*
Y13400D01*
X25600D01*
X24000Y15000D01*
X21556Y34550D01*
G02X21953Y35000I397J50D01*
G01X37000D01*
G37*
G36*
G01X75000Y176732D02*
G03Y173268I1000J-1732D01*
G01Y152000D01*
X94500D01*
X98000Y155500D01*
X111000D01*
X112000Y154500D01*
Y152500D01*
X109000Y149500D01*
Y110000D01*
X106119Y107119D01*
X106000Y107163D01*
G03X104137Y105300I-500J-1363D01*
G01X104181Y105181D01*
X101500Y102500D01*
X100381D01*
X100340Y102519D01*
G03X90974Y102500I-4663J-9965D01*
G01X66723D01*
X61675Y107549D01*
G02X61850Y108217I283J283D01*
G03X62498Y111453I-500J1783D01*
G02X62453Y112039I248J314D01*
G03X61517Y115103I-1357J1260D01*
G02X61220Y115588I92J390D01*
G03X59000Y114225I-1799J440D01*
G02X59297Y113740I-92J-390D01*
G03X59948Y111847I1799J-440D01*
G02X59993Y111261I-248J-314D01*
G03X59567Y110500I1358J-1260D01*
G02X58899Y110325I-385J108D01*
G01X53500Y115723D01*
Y121260D01*
X53653Y121297D01*
G03Y124119I-345J1411D01*
G01X53500Y124156D01*
Y147301D01*
G02X53922Y147700I400J0D01*
G03X54927Y150267I78J1450D01*
G02Y150883I256J308D01*
G03X53922Y153450I-927J1117D01*
G02X53500Y153849I-22J399D01*
G01Y154151D01*
G02X53922Y154550I400J0D01*
G03X54325Y157415I78J1450D01*
G02X54109Y158063I90J390D01*
G03X54071Y159980I-1109J937D01*
G02Y160520I295J270D01*
G03X53615Y162815I-1071J980D01*
G01X53500Y162869D01*
Y170000D01*
X41500Y182000D01*
X37599D01*
G03X35301I-1149J-888D01*
G01X33900D01*
X33502Y182398D01*
Y196009D01*
G02X34139Y196331I400J0D01*
G03Y198669I861J1169D01*
G02X33502Y198991I-237J322D01*
G01Y208037D01*
X33678Y208058D01*
G03X34443Y208393I-175J1441D01*
G02X34961I259J-305D01*
G03X34847Y210500I939J1107D01*
G02X34557I-145J137D01*
G03X34487Y210569I-1054J-999D01*
G01X34484Y210572D01*
X34339Y210716D01*
X35822Y212198D01*
X43824D01*
G02X44092Y211502I0J-400D01*
G03X45194Y209162I908J-1002D01*
G02X45650Y208743I57J-396D01*
G03X46806Y210002I1350J-79D01*
G02X46350Y210421I-57J396D01*
G03X46320Y210794I-1350J79D01*
G02X46859Y211253I390J88D01*
G03X48752Y212071I541J1347D01*
G01X48802Y212198D01*
X67122D01*
X67423Y212500D01*
X68500D01*
X71301Y209699D01*
X71264Y209584D01*
G03X73084Y207764I1386J-434D01*
G01X73199Y207801D01*
X82500Y198500D01*
Y185000D01*
X75000Y177500D01*
Y176732D01*
G37*
G36*
G01X91706Y216000D02*
G02X91339Y216560I0J400D01*
G03X88812Y217512I-1239J541D01*
G02X88149Y217351I-381J122D01*
G01X77002Y228498D01*
Y258585D01*
G03Y260215I-1202J815D01*
G01Y263501D01*
X85298Y271798D01*
X115902D01*
Y272500D01*
X119900D01*
X119950Y272450D01*
X122342D01*
G02X122732Y271964I0J-400D01*
G03X125568I1418J-314D01*
G02X125958Y272450I390J86D01*
G01X128050D01*
X132400Y268100D01*
Y248300D01*
X130688Y246588D01*
G02X130130Y246581I-283J283D01*
G03X130016Y246678I-932J-980D01*
G02X129950Y247253I241J319D01*
G03X128096Y247041I-1038J866D01*
G02X128162Y246466I-241J-319D01*
G03X128219Y244670I1038J-866D01*
G02X128212Y244112I-290J-275D01*
G01X127157Y243057D01*
X127149Y243051D01*
G03X126943Y242843I852J-1050D01*
G01X117500Y233400D01*
Y223000D01*
X117318Y222818D01*
X117217Y222834D01*
G03X115666Y221283I-217J-1334D01*
G01X115682Y221182D01*
X110500Y216000D01*
X105106D01*
G02X104739Y216560I0J400D01*
G03X104851Y217151I-1239J541D01*
G02X105308Y217562I400J15D01*
G03X105815Y220215I192J1338D01*
G02X105541Y220763I93J389D01*
G03X103985Y219985I-1241J537D01*
G02X104259Y219437I-93J-389D01*
G03X104149Y218849I1241J-536D01*
G02X103692Y218438I-400J-15D01*
G03X102261Y216560I-192J-1338D01*
G02X101894Y216000I-367J-160D01*
G01X95972D01*
G02X95643Y216628I0J400D01*
G03X93423I-1110J772D01*
G02X93094Y216000I-329J-228D01*
G01X91706D01*
G37*
G36*
G01X103298Y83202D02*
X102853Y83647D01*
G02X102874Y84233I283J283D01*
G03X103429Y100361I-7197J8321D01*
G02X103428Y100928I282J284D01*
G01X110500Y108000D01*
Y109377D01*
X110502Y109378D01*
Y148002D01*
X119527Y157027D01*
G02X120175Y156907I283J-283D01*
G03X122093Y158825I1325J593D01*
G02X121973Y159473I163J365D01*
G01X125004Y162504D01*
G02X125662Y162360I283J-283D01*
G03X126099Y161682I1738J640D01*
G02X126117Y161131I-281J-285D01*
G03X128801Y161218I1383J-1231D01*
G02X128783Y161769I281J285D01*
G03X128040Y164738I-1383J1231D01*
G02X127896Y165396I139J375D01*
G01X132000Y169500D01*
Y192231D01*
G02X132595Y192580I400J0D01*
G03X134256Y192505I905J1616D01*
G02X134788Y192293I163J-365D01*
G03X134947Y191991I1711J708D01*
G02X134858Y191458I-335J-218D01*
G03X137553Y191009I1142J-1458D01*
G02X137642Y191542I335J218D01*
G03X135744Y194691I-1142J1458D01*
G02X135212Y194903I-163J365D01*
G03X132595Y195812I-1712J-707D01*
G02X132000Y196161I-195J349D01*
G01Y239038D01*
X132110Y239093D01*
G03Y241507I-610J1207D01*
G01X132000Y241562D01*
Y245000D01*
X133688Y246688D01*
X136378Y243998D01*
X183122D01*
X202122Y262998D01*
X205598D01*
G03X207362Y262953I908J1002D01*
G01X207417Y262998D01*
X207685D01*
G02X207857Y262696I0J-200D01*
G03X210353Y262204I1159J-696D01*
G02X210802Y262660I395J60D01*
G03X211840Y262953I182J1340D01*
G01X211895Y262998D01*
X212163D01*
G02X212335Y262696I0J-200D01*
G03X214765Y262462I1159J-696D01*
G02X215141Y262998I376J136D01*
G01X216598D01*
G03X218362Y262953I908J1002D01*
G01X218417Y262998D01*
X218669D01*
G02X218841Y262696I0J-200D01*
G03X221336Y262206I1159J-696D01*
G02X221789Y262662I395J60D01*
G03X222840Y262953I195J1338D01*
G01X222895Y262998D01*
X223163D01*
G02X223335Y262696I0J-200D01*
G03X225765Y262462I1159J-696D01*
G02X226141Y262998I376J136D01*
G01X227598D01*
G03X229080Y262776I908J1002D01*
G02X229650Y262434I170J-362D01*
G03X232341Y262326I1350J66D01*
G02X232796Y262671I397J-51D01*
G03X233842Y262954I200J1337D01*
G01X233897Y262998D01*
X234171D01*
Y262779D01*
X234167Y262760D01*
G03X236844Y262576I1327J-260D01*
G02X237243Y262998I399J22D01*
G01X238578D01*
X247853Y253724D01*
X247767Y253589D01*
G03X249761Y251815I1142J-724D01*
G01X250074Y251502D01*
X249958Y251362D01*
G03X252185Y249848I1042J-862D01*
G01X260315D01*
G03X262685I1185J652D01*
G01X274306D01*
G02X274693Y249346I0J-400D01*
G03X277307I1307J-346D01*
G02X277694Y249848I387J102D01*
G01X296928D01*
X299489Y247288D01*
X300206Y247048D01*
X307828D01*
X316378Y238498D01*
X354500D01*
Y191123D01*
X332878Y169502D01*
X283354D01*
G02X282999Y170084I1J400D01*
G03X282243Y171978I-1203J618D01*
G02X282095Y172640I133J377D01*
G03X280698Y172326I-950J962D01*
G02X280846Y171664I-133J-377D01*
G03X280593Y170084I950J-962D01*
G02X280238Y169502I-356J-182D01*
G01X279658D01*
G02X279279Y170027I0J400D01*
G03X276711I-1284J425D01*
G02X276332Y169502I-379J-125D01*
G01X276004D01*
Y169753D01*
X276029Y169798D01*
G03X273562Y170027I-1183J654D01*
G02X273183Y169502I-379J-125D01*
G01X272854D01*
Y169753D01*
X272879Y169798D01*
G03X270513I-1183J654D01*
G01X270538Y169753D01*
Y169502D01*
X270122D01*
X267502Y172122D01*
Y172300D01*
G02X267810Y172468I200J0D01*
G03X268049Y174859I736J1134D01*
G02X267502Y175231I-147J372D01*
G01Y175449D01*
G02X267810Y175617I200J0D01*
G03X268048Y178009I735J1135D01*
G02X267502Y178381I-146J372D01*
G01Y178598D01*
G02X267810Y178766I200J0D01*
G03X268048Y181158I735J1135D01*
G02X267502Y181530I-146J372D01*
G01Y181749D01*
G02X267810Y181917I200J0D01*
G03X268049Y184308I736J1134D01*
G02X267502Y184680I-147J372D01*
G01Y190873D01*
G02X268048Y191245I400J0D01*
G03Y193759I497J1257D01*
G02X267502Y194131I-146J372D01*
G01Y200323D01*
G02X268048Y200695I400J0D01*
G03X267330Y202544I497J1257D01*
G02X266687Y202436I-360J175D01*
G01X266639Y202484D01*
X266624Y202517D01*
G03X265961Y203180I-1228J-565D01*
G01X265928Y203195D01*
X261502Y207622D01*
Y209684D01*
G02X261980Y210076I400J0D01*
G03Y212728I266J1326D01*
G02X261502Y213120I-78J392D01*
G01Y214622D01*
X259996Y216127D01*
G02X260009Y216705I283J283D01*
G03X258099Y218615I-913J997D01*
G02X257521Y218602I-295J270D01*
G01X256622Y219502D01*
X251118D01*
G02X250782Y220118I0J400D01*
G03X248510I-1136J733D01*
G02X248174Y219502I-336J-216D01*
G01X244817D01*
G02X244481Y220118I0J400D01*
G03X242209I-1136J733D01*
G02X241873Y219502I-336J-216D01*
G01X241667D01*
G02X241331Y220118I0J400D01*
G03X239059I-1136J734D01*
G02X238723Y219502I-336J-216D01*
G01X235376D01*
G02X235039Y220117I0J400D01*
G03X233562Y219538I-1138J730D01*
G02X233745Y218868I-100J-387D01*
G01X232727Y217850D01*
G02X232056Y218034I-283J283D01*
G03X230792Y216350I-1310J-333D01*
G02X230998Y216150I6J-200D01*
G01Y216103D01*
G02X230792Y215903I-200J0D01*
G03Y213201I-46J-1351D01*
G02X230998Y213001I6J-200D01*
G01Y212953D01*
G02X230792Y212753I-200J0D01*
G03X231404Y210221I-46J-1351D01*
G02X231998Y209871I194J-350D01*
G01Y204622D01*
X229554Y202178D01*
G02X228889Y202344I-283J283D01*
G03X227203Y200658I-1294J-392D01*
G02X227369Y199993I-117J-382D01*
G01X225248Y197872D01*
Y194207D01*
G02X224757Y193818I-400J0D01*
G03Y191186I-311J-1316D01*
G02X225248Y190797I91J-389D01*
G01Y178457D01*
G02X224757Y178068I-400J0D01*
G03Y175436I-311J-1316D01*
G02X225248Y175047I91J-389D01*
G01Y174832D01*
X225008D01*
X224971Y174848D01*
G03X223687Y172483I-526J-1246D01*
G02X223745Y171869I-225J-331D01*
G01X216878Y165002D01*
X209378D01*
X182998Y138622D01*
Y124498D01*
X161350Y102850D01*
G02X160715Y102941I-284J282D01*
G03X157800Y102161I-1364J-741D01*
G02X157391Y101752I-400J-9D01*
G03X156611Y98837I-39J-1551D01*
G02X156702Y98202I-191J-351D01*
G01X154902Y96402D01*
X135178D01*
X135028Y96252D01*
X133728D01*
X122026Y84549D01*
X121894Y84622D01*
G03X119561Y84166I-894J-1622D01*
G02X118939I-311J251D01*
G03X115684Y83362I-1439J-1166D01*
G01X115652Y83202D01*
X103298D01*
G37*
G36*
G01X317000Y240000D02*
X308450Y248550D01*
X300450D01*
X300300Y248600D01*
X297550Y251350D01*
X296834D01*
G02X296460Y251890I0J400D01*
G03X296363Y253116I-1360J509D01*
G02X296412Y253370I174J98D01*
G03X294237Y253784I-912J1130D01*
G02X294188Y253530I-174J-98D01*
G03X293740Y251890I912J-1130D01*
G02X293366Y251350I-374J-140D01*
G01X268358D01*
X268351Y251544D01*
G03X265649I-1351J-44D01*
G01X265642Y251350D01*
X262551D01*
G03X260504Y251415I-1052J-850D01*
G01X260445Y251350D01*
X260228D01*
G02X259947Y252035I0J400D01*
G03X258053I-947J965D01*
G02X257772Y251350I-281J-285D01*
G01X257076D01*
G02X256760Y251996I0J400D01*
G03X254628I-1066J831D01*
G02X254312Y251350I-316J-246D01*
G01X253542D01*
G02X253227Y251996I0J400D01*
G03X250968Y253463I-1065J833D01*
G02X250332Y253368I-353J188D01*
G01X242818Y260882D01*
G02X242853Y261479I283J283D01*
G03X243355Y262354I-837J1062D01*
G02X243814Y262694I396J-55D01*
G03X244585Y262800I209J1336D01*
G02X245150Y262460I166J-364D01*
G03X245939Y263770I1350J80D01*
G02X245374Y264110I-166J364D01*
G03X242685Y264216I-1350J-80D01*
G02X242226Y263876I-396J55D01*
G03X241428Y263757I-209J-1336D01*
G02X240855Y264091I-174J360D01*
G03X238299Y264610I-1349J-91D01*
G01X238244Y264500D01*
X234260D01*
X234205Y264611D01*
G03X231785I-1210J-603D01*
G01X231730Y264500D01*
X229768D01*
X229713Y264610D01*
G03X227299I-1207J-610D01*
G01X227244Y264500D01*
X223246D01*
X223191Y264610D01*
G03X220777I-1207J-610D01*
G01X220722Y264500D01*
X218768D01*
X218713Y264610D01*
G03X216299I-1207J-610D01*
G01X216244Y264500D01*
X212246D01*
X212191Y264610D01*
G03X209777I-1207J-610D01*
G01X209722Y264500D01*
X207768D01*
X207713Y264610D01*
G03X205299I-1207J-610D01*
G01X205244Y264500D01*
X201500D01*
X182500Y245500D01*
X137000D01*
X135000Y247500D01*
Y271500D01*
X145500Y282000D01*
X263912D01*
G02X264213Y281337I0J-400D01*
G03X280787I8287J-7237D01*
G02X281088Y282000I301J263D01*
G01X282000D01*
X285655Y278345D01*
X285666Y278281D01*
G03X287043Y277149I1334J219D01*
G02X287455Y276725I13J-400D01*
G03X295021Y277497I3845J-225D01*
G02X295407Y278000I386J103D01*
G01X337593D01*
G02X337979Y277497I0J-400D01*
G03X345241Y274983I3721J-998D01*
G02X345891Y275109I368J-157D01*
G01X350498Y270502D01*
Y267378D01*
X355000Y262877D01*
Y253963D01*
X354824Y253941D01*
G03Y251059I176J-1441D01*
G01X355000Y251037D01*
Y240000D01*
X317000D01*
G37*
G36*
G01X270874Y121874D02*
X270980Y121853D01*
G03X272746Y122453I368J1815D01*
G02X273350I302J-262D01*
G03X276064Y122365I1398J1215D01*
G02X276632I284J-282D01*
G03Y124971I1316J1303D01*
G02X276064I-284J282D01*
G03X275277Y125443I-1316J-1303D01*
G02X275109Y126109I115J383D01*
G01X289561Y140561D01*
G02X290213Y140434I283J-282D01*
G03X292116Y142337I1337J566D01*
G02X291989Y142989I155J369D01*
G01X292999Y143998D01*
X376622D01*
X407494Y174871D01*
G02X408134Y174769I283J-283D01*
G03X409952Y176587I1205J613D01*
G02X409850Y177227I181J357D01*
G01X416904Y184281D01*
X416980Y184286D01*
G03X418240Y185546I-89J1349D01*
G01X418245Y185622D01*
X418622Y185998D01*
X435509D01*
G02X435831Y185361I0J-400D01*
G03X437280Y183075I1169J-861D01*
G02X437738Y182559I78J-392D01*
G03X439077Y184522I4042J-1319D01*
G02X438429Y184759I-255J309D01*
G03X438169Y185361I-1429J-260D01*
G02X438491Y185998I322J237D01*
G01X490002D01*
X495000Y181000D01*
X509000D01*
X512000Y178000D01*
Y159863D01*
X511825Y159841D01*
G03X511797Y159837I177J-1341D01*
G02X511340Y160179I-61J395D01*
G03X510203Y158663I-1340J-179D01*
G02X510660Y158321I61J-395D01*
G03X511826Y157159I1340J179D01*
G01X512000Y157136D01*
Y156364D01*
X511826Y156341D01*
G03X510649Y154949I174J-1341D01*
G02X510032Y154598I-400J-15D01*
G03X507764Y151554I-1033J-1597D01*
G02Y150946I-260J-304D01*
G03X507530Y150707I1237J-1445D01*
G02X507257Y150672I-155J126D01*
G03Y148328I-857J-1172D01*
G02X507530Y148293I118J-161D01*
G03X510709Y148665I1470J1207D01*
G02X511395Y148721I360J-175D01*
G03X511553Y148535I1105J779D01*
G02Y147965I-281J-285D01*
G03X511890Y145793I947J-965D01*
G01X512000Y145737D01*
Y144563D01*
X511890Y144507D01*
G03X511149Y143249I610J-1207D01*
G02X510692Y142838I-400J-15D01*
G03X509984Y140250I-192J-1338D01*
G01X510038Y140228D01*
X510173Y140036D01*
X510151Y139949D01*
G03X510557Y138261I1849J-448D01*
G02Y137739I-303J-261D01*
G03X510099Y136544I1443J-1238D01*
G02X509912Y136349I-200J5D01*
G03X511250Y134484I88J-1349D01*
G01X511272Y134538D01*
X511464Y134673D01*
X511551Y134651D01*
G03X512000Y134598I446J1849D01*
G01Y125553D01*
G03X511689Y123877I1000J-1052D01*
G01X511749Y123749D01*
X509500Y121500D01*
X499369D01*
X499315Y121615D01*
G03X496685I-1315J-615D01*
G01X496631Y121500D01*
X452900D01*
X452070Y120670D01*
X451970Y120685D01*
G03X450315Y119030I-220J-1435D01*
G01X450330Y118930D01*
X449900Y118500D01*
X449500D01*
X447281Y116281D01*
X447140Y116412D01*
G03X446078Y116800I-990J-1062D01*
G02X445703Y117382I-19J399D01*
G03X444524Y116648I-1203J618D01*
G02X444880Y116054I6J-400D01*
G03X444699Y115389I1270J-703D01*
G02X444299Y115000I-400J11D01*
G01X418752D01*
G03X416304I-1224J-781D01*
G01X406982D01*
G03X404504I-1239J-757D01*
G01X385089D01*
G02X384697Y115481I0J400D01*
G03X381853I-1422J294D01*
G02X381461Y115000I-392J-81D01*
G01X363858D01*
X363828Y115164D01*
G03X360972I-1428J-264D01*
G01X360942Y115000D01*
X354000D01*
X334501Y95502D01*
X334378D01*
X330998Y92122D01*
Y91998D01*
X329923Y90923D01*
G02X329242Y91165I-283J283D01*
G03X327651Y89574I-1444J-147D01*
G02X327893Y88893I-41J-398D01*
G01X322500Y83500D01*
X320910D01*
G03X319090I-910J-1000D01*
G01X268559D01*
G02X268222Y84116I0J400D01*
G03X265778I-1222J784D01*
G02X265441Y83500I-337J-216D01*
G01X254500D01*
X250500Y87500D01*
Y101500D01*
X267611Y118611D01*
X267740Y118546D01*
G03X270228Y121034I834J1654D01*
G01X270163Y121163D01*
X270874Y121874D01*
G37*
G36*
G01X469000Y67000D02*
X472000Y64000D01*
Y53500D01*
X473000Y52500D01*
X484000D01*
X493000Y61500D01*
X502000D01*
X507500Y67000D01*
X516000D01*
X520500D01*
X529500D01*
X531000Y65500D01*
Y52000D01*
X528500Y49500D01*
X513500D01*
X499500D01*
X490000Y40000D01*
X461000D01*
X430000Y71000D01*
X394500D01*
X392000Y68500D01*
X342500D01*
X332500Y78500D01*
Y91500D01*
X335000Y94000D01*
X343000D01*
X344500Y92500D01*
Y83500D01*
X347500Y80500D01*
X386000D01*
X388500Y83000D01*
X442000D01*
X458000Y67000D01*
X469000D01*
G37*
G36*
G01X475770Y117463D02*
G02X476146Y118000I376J137D01*
G01X481500D01*
X493465Y106035D01*
X493356Y105895D01*
G03X495553Y104000I1144J-895D01*
G01X526000D01*
X530000Y108000D01*
Y181000D01*
X523633Y187367D01*
G02X523934Y188050I283J283D01*
G03X522550Y189434I66J1450D01*
G02X521867Y189133I-400J-18D01*
G01X510202Y200798D01*
Y201422D01*
X503047Y208577D01*
G02X503026Y209120I283J283D01*
G03X501120Y211026I-1026J880D01*
G02X500577Y211047I-260J304D01*
G01X495400Y216223D01*
Y222791D01*
G03X495839Y223141I-605J1209D01*
G02X496456I308J-255D01*
G03Y224859I1044J859D01*
G02X495839I-309J255D01*
G03X495400Y225209I-1044J-859D01*
G01Y245400D01*
X476958Y263842D01*
G02X476973Y264422I283J283D01*
G03X474690Y264873I-973J1078D01*
G02X474330Y264300I-360J-173D01*
G01X454000D01*
X453950Y264250D01*
X355750D01*
X352000Y268000D01*
Y280500D01*
X355500Y284000D01*
X494500D01*
X500689Y277811D01*
G02X500469Y277134I-283J-282D01*
G03X502134Y275469I231J-1434D01*
G02X502811Y275689I395J-63D01*
G01X505500Y273000D01*
Y256500D01*
X512834Y249166D01*
G02X512774Y248552I-283J-282D01*
G03X528911Y243993I6132J-9135D01*
G02X529558Y244442I364J167D01*
G01X551000Y223000D01*
Y90500D01*
X529000Y68500D01*
X516623D01*
X516622Y68502D01*
X458899D01*
X443400Y84000D01*
X443123D01*
X442622Y84502D01*
X387878D01*
X387377Y84000D01*
X385500D01*
X384000Y85500D01*
Y101948D01*
G02X384530Y102326I400J0D01*
G03X386269Y104406I470J1374D01*
G02X386619Y105000I350J194D01*
G01X403998D01*
Y100998D01*
X417502D01*
Y105000D01*
X424814D01*
X424848Y104988D01*
G03X425852I502J1362D01*
G01X425886Y105000D01*
X430137D01*
X430159Y104824D01*
G03X433041I1441J176D01*
G01X433063Y105000D01*
X439800D01*
X449877Y115077D01*
G02X450525Y114957I283J-283D01*
G03X452443Y116875I1325J593D01*
G02X452323Y117523I163J365D01*
G01X452800Y118000D01*
X466854D01*
G02X467230Y117463I0J-400D01*
G03X469658Y116301I1270J-464D01*
G02X470342I342J-206D01*
G03X472658I1158J699D01*
G02X473342I342J-206D01*
G03X475770Y117463I1158J698D01*
G37*
G36*
G01X431484Y56144D02*
X444000Y48441D01*
Y13404D01*
X388000D01*
Y53157D01*
X390989Y57000D01*
X402535D01*
X409202Y67000D01*
X413111D01*
X431484Y56144D01*
G37*
G36*
G01X519400Y18300D02*
X516800Y23700D01*
X514300Y26500D01*
X511300Y28800D01*
X507400Y30700D01*
X503100Y31600D01*
X498600Y31500D01*
X493500Y30300D01*
X489100Y27500D01*
X485800Y23900D01*
X483200Y19000D01*
X483176Y18884D01*
X482300Y15300D01*
X482251Y14412D01*
X482042Y13401D01*
X446000D01*
Y47500D01*
X446500Y48000D01*
X450877D01*
X460378Y38498D01*
X490622D01*
X500122Y47998D01*
X529122D01*
X529123Y48000D01*
X530000D01*
X532500Y50500D01*
Y51377D01*
X532502Y51378D01*
Y66122D01*
X532500Y66123D01*
Y69000D01*
X533000Y69500D01*
X534000D01*
X534599Y68901D01*
Y13401D01*
X520200D01*
X519400Y18300D01*
G37*
G36*
G01X555599Y74401D02*
X554000Y76000D01*
Y76750D01*
G02X554418Y77150I400J0D01*
G03X555666Y80439I82J1850D01*
G02Y81061I251J311D01*
G03X554418Y84350I-1166J1439D01*
G02X554000Y84750I-18J400D01*
G01Y123447D01*
G03Y125553I-1000J1053D01*
G01Y126590D01*
G03Y128410I-1000J910D01*
G01Y148590D01*
G03Y150410I-1000J910D01*
G01Y224000D01*
X533500Y244500D01*
Y248000D01*
X534699Y249199D01*
X560199D01*
Y163400D01*
X560800Y162799D01*
X602799D01*
Y127601D01*
X579800D01*
X579199Y127000D01*
Y74401D01*
X555599D01*
G37*
%LPC*%
G75*
G36*
G01X184352Y102676D02*
G02X182648I-852J-1176D01*
G03Y103324I-234J324D01*
G02Y105676I852J1176D01*
G03Y106324I-234J324D01*
G02X184352I852J1176D01*
G03Y105676I234J-324D01*
G02Y103324I-852J-1176D01*
G03Y102676I234J-324D01*
G37*
G36*
G01X37773Y134934D02*
G02X35698Y134709I-873J-1634D01*
G03X35627Y135366I-259J304D01*
G02X37702Y135591I873J1634D01*
G03X37773Y134934I259J-304D01*
G37*
G36*
G01X22645Y134149D02*
G02Y135851I-1645J851D01*
G03X23355I355J184D01*
G02Y134149I1645J-851D01*
G03X22645I-355J-184D01*
G37*
G36*
G01X222594Y145396D02*
G02X221057Y145109I-544J-1346D01*
G03X220947Y145766I-273J292D01*
G02X222460Y146048I553J1234D01*
G03X222594Y145396I284J-281D01*
G37*
G36*
G01X36888Y147218D02*
G02X35112I-888J-1149D01*
G03Y147851I-244J317D01*
G02X36888I888J1149D01*
G03Y147218I244J-316D01*
G37*
G36*
G01X224978Y148823D02*
G02X223650Y148352I-278J-1323D01*
G03X223422Y148995I-311J252D01*
G02X224750Y149466I278J1323D01*
G03X224978Y148823I311J-252D01*
G37*
G36*
G01X34071Y157280D02*
G02X31929I-1071J-980D01*
G03Y157820I-295J270D01*
G02X32006Y159858I1071J980D01*
G03Y160442I-274J292D01*
G02X31929Y162480I994J1058D01*
G03Y163020I-295J270D01*
G02Y164980I1071J980D01*
G03Y165520I-295J270D01*
G02X32044Y167593I1071J980D01*
G03X31936Y168262I-264J301D01*
G02X31597Y170737I564J1338D01*
G03Y171363I-249J313D01*
G02X33403I903J1137D01*
G03Y170737I249J-313D01*
G02X33456Y168507I-903J-1137D01*
G03X33564Y167838I264J-301D01*
G02X34071Y165520I-564J-1338D01*
G03Y164980I295J-270D01*
G02Y163020I-1071J-980D01*
G03Y162480I295J-270D01*
G02X33994Y160442I-1071J-980D01*
G03Y159858I274J-292D01*
G02X34071Y157820I-994J-1058D01*
G03Y157280I295J-270D01*
G37*
G36*
G01X384436Y176214D02*
G02X383524Y177354I-1436J-214D01*
G03X384064Y177786I144J373D01*
G02X384976Y176646I1436J214D01*
G03X384436Y176214I-144J-373D01*
G37*
G36*
G01X427777Y192143D02*
G02X426610Y193370I-1347J-113D01*
G03X427060Y193817I53J397D01*
G02X427956Y195346I1440J183D01*
G03X428079Y196010I-149J371D01*
G02X429550Y195765I921J990D01*
G03X429451Y195097I163J-365D01*
G02X428246Y192570I-951J-1097D01*
G03X427777Y192143I-70J-394D01*
G37*
G36*
G01X451277Y195782D02*
G02Y194218I1223J-782D01*
G03X450611Y194230I-337J-216D01*
G02Y195770I-1111J770D01*
G03X451277Y195782I329J228D01*
G37*
G36*
G01X19521Y198533D02*
G02X18107Y198898I-1021J-1033D01*
G03X18279Y199567I-109J385D01*
G02X19693Y199202I1021J1033D01*
G03X19521Y198533I109J-385D01*
G37*
G36*
G01X384146Y199844D02*
G02X382745Y199003I-146J-1344D01*
G03X382401Y199551I-371J149D01*
G02X383825Y200405I99J1449D01*
G03X384146Y199844I365J-164D01*
G37*
G36*
G01X404032Y199843D02*
G02X401161Y199791I-1432J-243D01*
G03X400761Y200244I-397J53D01*
G02X402187Y201505I-13J1452D01*
G03X402587Y201052I397J-53D01*
G02X402972Y201004I14J-1452D01*
G03X403468Y201457I102J386D01*
G02X404528Y200296I1432J243D01*
G03X404032Y199843I-102J-386D01*
G37*
G36*
G01X71773Y254456D02*
G02X70750Y255329I-1273J-456D01*
G03X71196Y255868I74J393D01*
G02X72235Y254982I1351J532D01*
G03X71773Y254456I-86J-391D01*
G37*
G36*
G01X69645Y59731D02*
G03X70054Y59320I400J-11D01*
G02X70046Y56217I35J-1552D01*
G03X69636Y55808I-10J-400D01*
G02X66533Y55817I-1552J-34D01*
G03X66124Y56227I-400J10D01*
G02X66132Y59330I-35J1552D01*
G03X66542Y59739I10J400D01*
G02X69645Y59731I1552J35D01*
G37*
G36*
G01X93263Y75455D02*
G03X92806Y75683I-366J-162D01*
G02X92804Y78317I-306J1317D01*
G03X93261Y78546I91J390D01*
G02X95532Y77130I1237J-545D01*
G03X95533Y76873I154J-128D01*
G02X93263Y75455I-1033J-873D01*
G37*
G36*
G01X28080Y80045D02*
G03X27512Y80046I-284J-281D01*
G02X24798Y80142I-1312J1307D01*
G03X24194Y80143I-302J-262D01*
G02X24200Y82572I-1395J1218D01*
G03X24804Y82571I302J262D01*
G02X27519Y82652I1395J-1218D01*
G03X28087Y82651I284J281D01*
G02X28080Y80045I1313J-1307D01*
G37*
G36*
G01X180561Y88334D02*
G03X179939I-311J-251D01*
G02X177334Y90939I-1439J1166D01*
G03Y91561I-251J311D01*
G02X179939Y94166I1166J1439D01*
G03X180561I311J251D01*
G02X183166Y91561I1439J-1166D01*
G03Y90939I251J-311D01*
G02X180561Y88334I-1166J-1439D01*
G37*
G36*
G01X191118Y95712D02*
G03X190595Y95558I-179J-357D01*
G02X187619Y97734I-1594J942D01*
G03Y98266I-299J266D01*
G02Y100734I1381J1234D01*
G03Y101266I-299J266D01*
G02X190847Y102642I1381J1234D01*
G03X191388Y102298I399J30D01*
G02X193309Y99211I660J-1730D01*
G03X193291Y98643I272J-293D01*
G02X191118Y95712I-1343J-1275D01*
G37*
G36*
G01X236449Y98239D02*
G03X236039Y98649I-400J10D01*
G02Y101752I-39J1552D01*
G03X236448Y102161I9J400D01*
G02X239551I1552J39D01*
G03X239961Y101751I400J-10D01*
G02X239962Y98647I39J-1552D01*
G03X239553Y98238I-9J-400D01*
G02X236449Y98239I-1552J-37D01*
G37*
G36*
G01X48097Y107761D02*
G03X47751Y107351I54J-396D01*
G02X46103Y108739I-1451J-51D01*
G03X46449Y109149I-54J396D01*
G02X48097Y107761I1451J51D01*
G37*
G36*
G01X242110Y108667D02*
G03X241905Y109222I-355J184D01*
G02X243738Y109901I544J1346D01*
G03X243943Y109346I355J-184D01*
G02X242110Y108667I-544J-1346D01*
G37*
G36*
G01X188533Y118566D02*
G03Y119170I-262J302D01*
G02X188925Y122227I1215J1398D01*
G03X189059Y122837I-177J359D01*
G02X191939Y125166I1441J1163D01*
G03X192561I311J251D01*
G02X195439I1439J-1166D01*
G03X196061I311J251D01*
G02Y122834I1439J-1166D01*
G03X195439I-311J-251D01*
G02X192561I-1439J1166D01*
G03X191939I-311J-251D01*
G02X191323Y122341I-1439J1166D01*
G03X191189Y121731I177J-359D01*
G02X190963Y119170I-1441J-1163D01*
G03Y118566I262J-302D01*
G02X188533I-1215J-1398D01*
G37*
G36*
G01X27980Y152571D02*
G03X28520I270J295D01*
G02X30637Y152403I980J-1071D01*
G03X31263I313J249D01*
G02Y150597I1137J-903D01*
G03X30637I-313J-249D01*
G02X28520Y150429I-1137J903D01*
G03X27980I-270J-295D01*
G02Y152571I-980J1071D01*
G37*
G36*
G01X394909Y170804D02*
G03X395235Y170416I400J5D01*
G02X393634Y169069I-249J-1329D01*
G03X393308Y169457I-400J-5D01*
G02X394909Y170804I249J1329D01*
G37*
G36*
G01X459947Y207035D02*
G03Y206465I281J-285D01*
G02X458053I-947J-965D01*
G03Y207035I-281J285D01*
G02X459947I947J965D01*
G37*
G36*
G01X379775Y210242D02*
G03X379814Y210824I-254J309D01*
G02X381797Y210688I1064J988D01*
G03X381758Y210106I254J-309D01*
G02X379775Y210242I-1064J-988D01*
G37*
G36*
G01X46070Y217522D02*
G03Y216982I295J-270D01*
G02X43930I-1070J-982D01*
G03Y217522I-295J270D01*
G02X46070I1070J982D01*
G37*
G36*
G01X462660Y219639D02*
G03X462090Y219633I-282J-283D01*
G02X462072Y221527I-974J938D01*
G03X462642Y221533I282J283D01*
G02X462660Y219639I974J-938D01*
G37*
G36*
G01X424200Y220845D02*
G03X423624Y220749I-243J-318D01*
G02X423263Y222616I-1124J751D01*
G03X423832Y222742I225J331D01*
G02X424200Y220845I1248J-742D01*
G37*
G36*
G01X443286Y226417D02*
G03X443857Y226189I380J124D01*
G02X443214Y224583I643J-1189D01*
G03X442643Y224811I-380J-124D01*
G02X443286Y226417I-643J1189D01*
G37*
G36*
G01X486035Y225053D02*
G03X485465I-285J-281D01*
G02Y226947I-965J947D01*
G03X486035I285J281D01*
G02Y225053I965J-947D01*
G37*
G36*
G01X17869Y150523D02*
G03X17891Y151063I-284J282D01*
G02X19980Y153071I1110J936D01*
G03X20520I270J295D01*
G02Y150929I980J-1071D01*
G03X19980I-270J-295D01*
G02X19904Y150863I-990J1063D01*
G03X19891Y150561I124J-157D01*
G02X17869Y150523I-991J-1061D01*
G37*
G36*
G01X315658Y49801D02*
G02Y51199I-1158J699D01*
G03X316342I342J206D01*
G02Y49801I1158J-699D01*
G03X315658I-342J-206D01*
G37*
G36*
G01X304158Y63801D02*
G02Y65199I-1158J699D01*
G03X304842I342J206D01*
G02Y63801I1158J-699D01*
G03X304158I-342J-206D01*
G37*
G36*
G01X315158D02*
G02Y65199I-1158J699D01*
G03X315842I342J206D01*
G02Y63801I1158J-699D01*
G03X315158I-342J-206D01*
G37*
G36*
G01X327627Y63753D02*
G02Y65247I-1127J747D01*
G03X328293I333J221D01*
G02Y63753I1127J-747D01*
G03X327627I-333J-221D01*
G37*
G36*
G01X59237Y37045D02*
G03X59694Y36817I366J162D01*
G02X59797Y34163I306J-1317D01*
G03X59340Y33821I-61J-395D01*
G02X57053Y34965I-1340J179D01*
G03Y35535I-281J285D01*
G02X59237Y37045I947J965D01*
G37*
G36*
G01X241250Y65434D02*
G02Y62566I1250J-1434D01*
G02Y65434I-1250J1434D01*
G37*
G36*
G01X265000Y65934D02*
G02Y63066I1250J-1434D01*
G02Y65934I-1250J1434D01*
G37*
G36*
G01X229785Y63053D02*
G03X229215I-285J-281D01*
G02Y64947I-965J947D01*
G03X229785I285J281D01*
G02Y63053I965J-947D01*
G37*
G36*
G01X253285D02*
G03X252715I-285J-281D01*
G02Y64947I-965J947D01*
G03X253285I285J281D01*
G02Y63053I965J-947D01*
G37*
G36*
G01X288535Y54447D02*
G02Y52553I965J-947D01*
G03X287965I-285J-281D01*
G02Y54447I-965J947D01*
G03X288535I285J281D01*
G37*
G36*
G01X105176Y139648D02*
G02Y141352I-1176J852D01*
G03X105824I324J234D01*
G02Y139648I1176J-852D01*
G03X105176I-324J-234D01*
G37*
G36*
G01X46199Y189774D02*
G02X44801I-699J-1158D01*
G03Y190458I-206J342D01*
G02X46199I699J1158D01*
G03Y189774I206J-342D01*
G37*
G36*
G01X46340Y199006D02*
G02X45204Y200161I-1340J-182D01*
G03X45660Y200610I60J395D01*
G02X45680Y201084I1340J181D01*
G03X45227Y201566I-391J87D01*
G02X46405Y202633I-227J1434D01*
G03X46839Y202134I387J-102D01*
G02X46796Y199455I161J-1342D01*
G03X46340Y199006I-60J-395D01*
G37*
G36*
G01X83848Y261942D02*
G03X83277Y261858I-245J-316D01*
G02X83044Y263798I-1183J842D01*
G03X83618Y263852I261J303D01*
G02X83848Y261942I1058J-841D01*
G37*
G36*
G01X113340Y263321D02*
G02X110660I-1340J179D01*
G03X110203Y263663I-396J-53D01*
G02X109666Y263690I-202J1337D01*
G03X109178Y263393I-98J-388D01*
G02X106610Y264213I-1316J309D01*
G03X106185Y264761I-370J152D01*
G02X107252Y265589I-185J1339D01*
G03X107677Y265041I370J-152D01*
G02X108196Y265012I185J-1339D01*
G03X108684Y265309I98J388D01*
G02X111340Y265179I1316J-309D01*
G03X111797Y264837I396J53D01*
G02X112203I203J-1337D01*
G03X112660Y265179I61J395D01*
G02X115340I1340J-179D01*
G03X115797Y264837I396J53D01*
G02X116203I203J-1337D01*
G03X116660Y265179I61J395D01*
G02X119340I1340J-179D01*
G03X119797Y264837I396J53D01*
G02X120207Y264836I202J-1337D01*
G03X120664Y265293I62J395D01*
G02X123346Y265372I1336J207D01*
G03X123782Y264936I398J-38D01*
G02X122564Y263718I128J-1346D01*
G03X122128Y264154I-398J38D01*
G02X121793Y264164I-127J1346D01*
G03X121336Y263707I-62J-395D01*
G02X118660Y263321I-1336J-207D01*
G03X118203Y263663I-396J-53D01*
G02X117797I-203J1337D01*
G03X117340Y263321I-61J-395D01*
G02X114660I-1340J179D01*
G03X114203Y263663I-396J-53D01*
G02X113797I-203J1337D01*
G03X113340Y263321I-61J-395D01*
G37*
G36*
G01X93325Y263672D02*
G02X92708Y262100I675J-1172D01*
G03X92127Y262328I-382J-118D01*
G02X90275Y264165I-675J1172D01*
G03X89975Y264759I-348J197D01*
G02X91387Y265440I175J1441D01*
G03X91665Y264835I341J-210D01*
G02X92744Y263900I-213J-1335D01*
G03X93325Y263672I382J118D01*
G37*
G36*
G01X178098Y150483D02*
G03X178382Y150945I-108J385D01*
G02X180702Y149517I1818J355D01*
G03X180418Y149055I108J-385D01*
G02X178098Y150483I-1818J-355D01*
G37*
G36*
G01X129625Y130156D02*
G03X129075I-275J-290D01*
G02Y132844I-1275J1344D01*
G03X129625I275J290D01*
G02Y130156I1275J-1344D01*
G37*
G36*
G01X116002Y122453D02*
G03X115398I-302J-262D01*
G02Y124883I-1398J1215D01*
G03X116002I302J262D01*
G02X118716Y124971I1398J-1215D01*
G03X119284I284J282D01*
G02Y122365I1316J-1303D01*
G03X118716I-284J-282D01*
G02X116002Y122453I-1316J1303D01*
G37*
G36*
G01X111958Y101642D02*
G03X112491Y101553I315J246D01*
G02X114881Y98766I1009J-1553D01*
G03Y98234I299J-266D01*
G02X112266Y95619I-1381J-1234D01*
G03X111734I-266J-299D01*
G02X109334Y98439I-1233J1382D01*
G03Y99061I-251J311D01*
G02Y101939I1166J1439D01*
G03Y102561I-251J311D01*
G02X111666I1166J1439D01*
G03Y101939I251J-311D01*
G02X111958Y101642I-1166J-1439D01*
G37*
G36*
G01X239465Y251636D02*
G02Y253232I-1091J798D01*
G03X240111I323J236D01*
G02X242283Y253246I1091J-798D01*
G03X242970Y253327I320J240D01*
G02X243129Y251976I1240J-539D01*
G03X242442Y251895I-320J-240D01*
G02X240111Y251636I-1240J539D01*
G03X239465I-323J-236D01*
G37*
G36*
G01X234002Y250983D02*
G02X232325Y251440I-1144J-894D01*
G03X232503Y252044I-147J372D01*
G02X234155Y251594I1101J785D01*
G03X234002Y250983I163J-365D01*
G37*
G36*
G01X227662Y249757D02*
G02X226889Y250898I-1445J-146D01*
G03X227174Y251130I92J178D01*
G02X227133Y251330I1300J371D01*
G03X226678Y251675I-397J-51D01*
G02X227824Y253183I-195J1338D01*
G03X228279Y252838I397J51D01*
G02X228154Y250186I195J-1338D01*
G03X227662Y249757I-94J-388D01*
G37*
G36*
G01X344387Y232703D02*
G02X341862Y231837I-1333J-228D01*
G03X341178Y231873I-353J-188D01*
G02X341251Y233270I-1119J759D01*
G03X341935Y233234I353J188D01*
G02X342837Y233810I1119J-759D01*
G03X343167Y234272I-64J395D01*
G02X344717Y233165I1333J228D01*
G03X344387Y232703I64J-395D01*
G37*
G36*
G01X349013Y224540D02*
G02X347379Y224812I-1013J-1040D01*
G03X347487Y225460I-171J362D01*
G02X349121Y225188I1013J1040D01*
G03X349013Y224540I171J-362D01*
G37*
G36*
G01X167447Y218535D02*
G02X166471Y219654I-1340J-183D01*
G03X166974Y220093I107J385D01*
G02X167950Y218974I1340J183D01*
G03X167447Y218535I-107J-385D01*
G37*
G36*
G01X316690Y201669D02*
G02X316669Y200327I1163J-689D01*
G03X315975Y200338I-350J-193D01*
G02X315996Y201680I-1163J689D01*
G03X316690Y201669I350J193D01*
G37*
G36*
G01X341077Y201650D02*
G02X338731I-1173J-673D01*
G03X338384Y202248I-347J198D01*
G01X332275D01*
X327248Y207275D01*
Y216775D01*
X325896Y218128D01*
X322444D01*
G03X322115Y217500I0J-400D01*
G02X319893I-1111J-771D01*
G03X319564Y218128I-329J228D01*
G01X319293D01*
G03X318964Y217500I0J-400D01*
G02X316971Y217754I-1111J-771D01*
G03X316923Y218396I-261J303D01*
G02Y221362I931J1483D01*
G03X316971Y222004I-213J339D01*
G02X318964Y222258I882J1025D01*
G03X319293Y221630I329J-228D01*
G01X319562D01*
G03X319891Y222258I0J400D01*
G02X322117I1113J767D01*
G03X322446Y221630I329J-228D01*
G01X327346D01*
X330752Y218225D01*
Y208725D01*
X333725Y205752D01*
X335412D01*
G03X335719Y206409I1J400D01*
G02X337789I1035J869D01*
G03X338096Y205752I306J-257D01*
G01X341829D01*
X343262Y207184D01*
G02X345738Y204708I1238J-1238D01*
G01X343746Y202715D01*
G03X343807Y202100I283J-282D01*
G02X341881Y201650I-753J-1123D01*
G03X341534Y202248I-347J198D01*
G01X341424D01*
G03X341077Y201650I0J-400D01*
G37*
G36*
G01X329892Y196124D02*
G02X329001Y197015I-1291J-400D01*
G03X329502Y197516I119J382D01*
G02X331907Y198682I1291J400D01*
G03X332561Y198674I330J227D01*
G02X332542Y197116I1095J-792D01*
G03X331888Y197124I-330J-227D01*
G02X330393Y196625I-1095J792D01*
G03X329892Y196124I-119J-382D01*
G37*
G36*
G01X160914Y191319D02*
G02X158383Y190456I-1330J-243D01*
G03X157682Y190474I-355J-184D01*
G02X157717Y191778I-1166J684D01*
G03X158418Y191760I355J184D01*
G02X159851Y192401I1166J-684D01*
G03X160323Y192865I78J392D01*
G02X161386Y191783I1330J243D01*
G03X160914Y191319I-78J-392D01*
G37*
G36*
G01X172865Y189266D02*
G02X171608Y189329I-688J-1164D01*
G03X171643Y190036I-168J363D01*
G02X172900Y189973I688J1164D01*
G03X172865Y189266I168J-363D01*
G37*
G36*
G01X169748Y177258D02*
G02X169791Y178665I-1248J742D01*
G03X170484Y178633I356J183D01*
G02X170441Y177248I1139J-729D01*
G03X169748Y177258I-349J-195D01*
G37*
G36*
G01X141924Y172442D02*
G02X141351Y170992I1276J-1342D01*
G03X140676Y171258I-399J-24D01*
G02X141249Y172708I-1276J1342D01*
G03X141924Y172442I399J24D01*
G37*
G36*
G01X288704Y264059D02*
G03X288762Y264703I-206J343D01*
G02X291112Y263753I2538J2897D01*
G03X290706Y263250I-20J-400D01*
G02X288704Y264059I-1306J-350D01*
G37*
G36*
G01X262760Y264360D02*
G02X262279Y263012I840J-1060D01*
G03X261640Y263240I-391J-85D01*
G02X262121Y264588I-840J1060D01*
G03X262760Y264360I391J85D01*
G37*
G36*
G01X329676Y259148D02*
G02Y260852I-1176J852D01*
G03X330324I324J234D01*
G02Y259148I1176J-852D01*
G03X329676I-324J-234D01*
G37*
G36*
G01X286859Y259219D02*
G02X285341I-759J-1119D01*
G03Y259881I-224J331D01*
G02X286859I759J1119D01*
G03Y259219I224J-331D01*
G37*
G36*
G01X261469Y90627D02*
G02X258460Y90529I-1469J-1127D01*
G03X258105Y91151I-332J223D01*
G02X256766Y91619I-105J1849D01*
G03X256234I-266J-299D01*
G02Y94381I-1234J1381D01*
G03X256766I266J299D01*
G02X259298Y94322I1235J-1381D01*
G03X259866Y94330I280J285D01*
G02X261682Y91257I1334J-1285D01*
G03X261469Y90627I104J-386D01*
G37*
G36*
G01X378352Y127280D02*
G02X377577Y128484I-1352J-19D01*
G03X378148Y128851I171J361D01*
G02X378923Y127647I1352J19D01*
G03X378352Y127280I-171J-361D01*
G37*
G36*
G01X487777Y135782D02*
G02Y134218I1223J-782D01*
G03X487111Y134230I-337J-216D01*
G02Y135770I-1111J770D01*
G03X487777Y135782I329J228D01*
G37*
G36*
G01X430927Y162936D02*
G02X429795Y161983I163J-1342D01*
G03X429350Y162493I-383J115D01*
G02X430499Y163461I-226J1434D01*
G03X430927Y162936I379J-128D01*
G37*
G36*
G01X480199Y165658D02*
G02X478801I-699J-1158D01*
G03Y166342I-206J342D01*
G02X479628Y168846I698J1158D01*
G03X480062Y169299I38J398D01*
G02X481299Y168062I1438J201D01*
G03X480846Y167628I-55J-396D01*
G02X480199Y166342I-1346J-129D01*
G03Y165658I206J-342D01*
G37*
G36*
G01X497676Y168648D02*
G02Y170352I-1176J852D01*
G03X498324I324J234D01*
G02Y168648I1176J-852D01*
G03X497676I-324J-234D01*
G37*
G36*
G01X463425Y179120D02*
G02X461732Y179232I-924J-1120D01*
G03X461775Y179880I-211J339D01*
G02X463468Y179768I924J1120D01*
G03X463425Y179120I211J-339D01*
G37*
G36*
G01X475807Y180161D02*
G02X475148Y178997I693J-1161D01*
G03X474543Y179339I-400J-1D01*
G02X475202Y180503I-693J1161D01*
G03X475807Y180161I400J1D01*
G37*
G36*
G01X271866Y95973D02*
G03X271848Y95387I263J-301D01*
G02X268761Y93583I-1300J-1319D01*
G03X268281Y93867I-386J-105D01*
G02X266633Y97066I-433J1801D01*
G03Y97670I-262J302D01*
G02X268454Y100818I1215J1398D01*
G03X268969Y101084I131J378D01*
G02X272009Y99211I1779J-516D01*
G03X271991Y98643I272J-293D01*
G02X271866Y95973I-1343J-1275D01*
G37*
G36*
G01X318661Y98648D02*
G03X318252Y98239I-9J-400D01*
G02X315148I-1552J-39D01*
G03X314739Y98648I-400J9D01*
G02Y101752I-39J1552D01*
G03X315148Y102161I9J400D01*
G02X318252I1552J39D01*
G03X318661Y101752I400J-9D01*
G02Y98648I39J-1552D01*
G37*
G36*
G01X322667Y109615D02*
G03X322710Y109032I294J-271D01*
G02X320733Y108885I-910J-1132D01*
G03X320690Y109468I-294J271D01*
G02X322667Y109615I910J1132D01*
G37*
G36*
G01X415735Y137964D02*
G02X413570I-1083J1112D01*
G02X411404I-1083J1112D01*
G02X409240Y137965I-1081J1113D01*
G02X407076I-1082J1112D01*
G02X404881Y140160I-1083J1112D01*
G02Y142324I1112J1082D01*
G02X404880Y144489I1112J1083D01*
G02X404881Y146654I1113J1082D01*
G02Y148819I1112J1083D01*
G02Y150984I1112J1083D01*
G02Y153150I1112J1083D01*
G02Y155314I1112J1082D01*
G02X407076Y157509I1112J1083D01*
G02X409240I1082J-1112D01*
G02X411406I1083J-1112D01*
G02X413570Y157508I1081J-1113D01*
G02X415735I1082J-1112D01*
G02X417900I1083J-1112D01*
G02X420064Y157509I1083J-1112D01*
G02X422230I1083J-1112D01*
G02X424424Y155314I1082J-1112D01*
G02Y153150I-1112J-1082D01*
G02Y150984I-1112J-1083D01*
G02Y148819I-1112J-1082D01*
G02Y146654I-1112J-1083D01*
G02X424425Y144490I-1112J-1083D01*
G02Y142324I-1112J-1083D01*
G02X424424Y140160I-1113J-1081D01*
G02X422230Y137965I-1112J-1083D01*
G02X420066Y137964I-1083J1112D01*
G02X417900I-1083J1112D01*
G02X415735I-1082J1112D01*
G37*
G36*
G01X471542Y152504D02*
G03X471493Y151917I245J-316D01*
G02X469616Y152023I-993J-917D01*
G03X469635Y152612I-261J303D01*
G02X471542Y152504I1015J1038D01*
G37*
G36*
G01X468947Y171035D02*
G03Y170465I281J-285D01*
G02X466699Y169133I-947J-965D01*
G03X466196Y169407I-385J-108D01*
G02X466178Y171998I-396J1293D01*
G03X466681Y172295I112J384D01*
G02X468947Y171035I1319J-295D01*
G37*
G36*
G01X512147Y209717D02*
G03X512717Y209602I339J212D01*
G02X512354Y207783I783J-1102D01*
G03X511783Y207898I-340J-211D01*
G02X510053Y209965I-783J1102D01*
G03Y210535I-281J285D01*
G02X511579Y212722I947J965D01*
G03X512150Y213064I171J361D01*
G02X512921Y211778I1350J-65D01*
G03X512351Y211436I-171J-361D01*
G02X511947Y210535I-1351J65D01*
G03Y209965I281J-285D01*
G02X512147Y209717I-945J-967D01*
G37*
G36*
G01X387351Y94145D02*
G02X385649I-851J-1645D01*
G03Y94855I-184J355D01*
G02X387351I851J1645D01*
G03Y94145I184J-355D01*
G37*
G36*
G01X443704Y102889D02*
G02X443648Y104589I-1204J811D01*
G03X444296Y104611I316J245D01*
G02X444352Y102911I1204J-811D01*
G03X443704Y102889I-316J-245D01*
G37*
G36*
G01X370562Y269459D02*
G02X370516Y268022I1238J-759D01*
G03X369829Y268055I-353J-187D01*
G02X367411Y268392I-1129J745D01*
G03X366716Y268518I-381J-121D01*
G02X367398Y270323I-2516J1982D01*
G03X368003Y269959I399J-21D01*
G02X369874Y269470I697J-1159D01*
G03X370562Y269459I347J199D01*
G37*
G36*
G01X454462Y111021D02*
G02X457162Y108318I-1J-2701D01*
G01X457161Y106918D01*
G02X454460Y104219I-2701J2D01*
G01X454458D01*
G02X452315Y105278I2J2701D01*
G03X451680I-317J-243D01*
G02X449538Y104223I-2142J1646D01*
G01X449536D01*
G02X446836Y106926I1J2701D01*
G01X446837Y108326D01*
G02X449538Y111025I2701J-2D01*
G01X449540D01*
G02X451683Y109966I-2J-2701D01*
G03X452318I318J243D01*
G02X454460Y111021I2142J-1646D01*
G01X454462D01*
G37*
G36*
G01X539862Y108158D02*
G03Y107542I255J-308D01*
G02X538138I-862J-1042D01*
G03Y108158I-255J308D01*
G02X539862I862J1042D01*
G37*
G36*
G01X523382Y194686D02*
G03X522821Y194410I-170J-362D01*
G02X520553Y195665I-1321J290D01*
G03Y196235I-281J285D01*
G02X522804Y197559I947J965D01*
G03X523364Y197305I386J106D01*
G02X523382Y194686I636J-1305D01*
G37*
G36*
G01X519351Y203435D02*
G02X517301Y204658I-1351J65D01*
G03Y205342I-206J342D01*
G02X519351Y206565I699J1158D01*
G03X519922Y206222I400J18D01*
G02Y203778I578J-1222D01*
G03X519351Y203435I-171J-361D01*
G37*
G36*
G01X414349Y50105D02*
G02X411649Y51645I-1849J-105D01*
G03Y52355I-184J355D01*
G02Y55645I851J1645D01*
G03Y56355I-184J355D01*
G02X414349Y57895I851J1645D01*
G03X414971Y57540I399J-23D01*
G02X417849Y56101I1029J-1540D01*
G03X418382Y55746I399J22D01*
G02Y52254I618J-1746D01*
G03X417849Y51899I-134J-377D01*
G02X414971Y50460I-1849J101D01*
G03X414349Y50105I-223J-332D01*
G37*
G36*
G01X590752Y152326D02*
G03X590182I-285J-281D01*
G02X588270Y154238I-965J947D01*
G03Y154808I-281J285D01*
G02X590182Y156720I947J965D01*
G03X590752I285J281D01*
G02X592664Y154808I965J-947D01*
G03Y154238I281J-285D01*
G02X590752Y152326I-947J-965D01*
G37*
G54D33*
X462500Y51500D03*
G54D28*
X410730Y231730D03*
X404710D03*
X410730Y225710D03*
X404710D03*
X410730Y213670D03*
X404710D03*
X410730Y219690D03*
X404710D03*
X398690Y225710D03*
Y213670D03*
X392670D03*
Y219690D03*
X398690D03*
X108910Y236967D03*
X102877D03*
Y243000D03*
X108910D03*
X137859Y145481D03*
X135859Y148481D03*
X137859Y151481D03*
X139859Y148481D03*
G54D34*
X495500Y269000D03*
X471500D03*
G54D32*
X458000Y53500D03*
G54D27*
X451290Y218500D03*
X447500Y227000D03*
X425500Y217500D03*
X423000Y206000D03*
X410556Y201556D03*
X404000Y185500D03*
X412649Y185635D03*
X408406D03*
X390000Y198000D03*
X388908Y201500D03*
X396780Y201280D03*
X392844Y201955D03*
X396000Y197000D03*
X399000Y192000D03*
X400628Y185594D03*
X393500Y185500D03*
X397092D03*
X390000D03*
X377350Y199150D03*
X382500Y191545D03*
X380192Y170356D03*
X375000Y173000D03*
X380000Y166000D03*
X376387Y168387D03*
X375936Y157532D03*
X380500Y154593D03*
X377000Y152000D03*
X380546Y159077D03*
X295500Y150900D03*
X262245Y201952D03*
X259096D03*
X262245Y186202D03*
X259096Y179901D03*
Y183052D03*
X262246Y179902D03*
X259096Y186202D03*
X262246Y183051D03*
X259096Y189351D03*
Y176752D03*
X262246Y170452D03*
X259096D03*
Y173602D03*
X270500Y155500D03*
X269200Y146100D03*
X264500D03*
Y140200D03*
X269200D03*
X255941Y211397D03*
X252791Y214547D03*
X249636Y211392D03*
X243346Y214552D03*
X252796Y208251D03*
X243345Y208252D03*
X252796Y198802D03*
X255946Y201952D03*
X255945Y195652D03*
X243346Y198802D03*
X249646Y195651D03*
Y201952D03*
X243345Y179901D03*
X249646Y192502D03*
X243345Y186202D03*
X249646Y179901D03*
X255945Y179902D03*
X243356Y183062D03*
X255946Y186202D03*
X255945Y189352D03*
X243345Y192502D03*
X252796Y183051D03*
X249645Y189352D03*
X255945Y183051D03*
X252796Y179902D03*
X249646Y183052D03*
X252796Y189352D03*
X249646Y186202D03*
X243345Y176752D03*
X252795Y170452D03*
X249646D03*
Y176752D03*
X252795D03*
X255945Y173602D03*
X255946Y170452D03*
Y176752D03*
X249645Y173602D03*
X252796D03*
X245428Y165000D03*
X243346Y173602D03*
X243000Y155350D03*
X257500Y157000D03*
X243050Y141800D03*
X237046Y214552D03*
X233896Y198802D03*
X237046Y208251D03*
X240196Y195651D03*
X237046Y198802D03*
X240196Y201952D03*
Y192502D03*
X237046Y183051D03*
X240195Y179902D03*
X237046D03*
X233896Y179901D03*
X230746Y183051D03*
X240195D03*
X230746Y186202D03*
Y179902D03*
X237045Y186202D03*
X237046Y189352D03*
X233896Y183052D03*
X230746Y192501D03*
Y189352D03*
X233896Y170452D03*
X233895Y173602D03*
X227595Y170452D03*
X237045Y176752D03*
X240196D03*
X240195Y173602D03*
X230746Y176751D03*
Y170452D03*
X241000Y166000D03*
X233896Y176752D03*
X237046Y173602D03*
X237045Y170452D03*
X230746Y164152D03*
Y173602D03*
X237150Y129650D03*
X223700Y153782D03*
X186250Y88079D03*
X152000Y83500D03*
X106000Y68000D03*
X94000Y65500D03*
X70500Y250538D03*
X72505Y77495D03*
X60000Y217500D03*
X63462D03*
X41000Y229500D03*
X46150Y125850D03*
X330000Y50500D03*
X298434Y64566D03*
X290560Y64560D03*
X270874Y64500D03*
X259063D03*
X247252D03*
X235441D03*
X37500Y27047D03*
X326500Y50500D03*
X101000Y126000D03*
X61500Y159000D03*
X65500Y122500D03*
X71500Y170000D03*
X87500Y225000D03*
X87495Y239984D03*
X87262Y235262D03*
X87100Y249387D03*
X87400Y244706D03*
X89400Y256500D03*
X85600Y256700D03*
X108633Y218000D03*
X109071Y221489D03*
X100000Y219500D03*
X124681Y243160D03*
X128600Y251400D03*
X124300Y254282D03*
X125600Y250000D03*
X144000Y167500D03*
X145743Y189077D03*
X139308Y215028D03*
X139379Y210432D03*
X150216Y181709D03*
Y184860D03*
X153366Y191158D03*
X156516Y181709D03*
X153366Y184860D03*
Y188009D03*
X160168Y187522D03*
X153366Y200608D03*
X150216Y197458D03*
Y200608D03*
X153366Y194308D03*
X156516Y197458D03*
Y194307D03*
Y206906D03*
X153366Y206907D03*
Y197457D03*
Y219508D03*
X153365Y216358D03*
X150216Y216356D03*
X153366Y210058D03*
X156516Y216358D03*
X153366Y222657D03*
X160097Y222099D03*
X156545Y222682D03*
X148715Y211703D03*
X156516Y210057D03*
Y213207D03*
X149300Y231604D03*
X149278Y225706D03*
X156516Y228953D03*
X153366Y228956D03*
Y225807D03*
X154655Y233060D03*
X172266Y184861D03*
X175845Y181235D03*
X175416Y188007D03*
Y194306D03*
Y197455D03*
X172259Y203715D03*
X172266Y194306D03*
X175416Y200606D03*
X169007Y200320D03*
X165754Y199755D03*
X175417Y210057D03*
X175416Y222655D03*
X172259Y222665D03*
X175416Y219509D03*
X172266Y210057D03*
Y213205D03*
X175417Y216356D03*
X172224Y225882D03*
X175416Y228954D03*
Y225805D03*
X165966Y232070D03*
X172047Y232352D03*
X178566Y184857D03*
X178562Y203757D03*
X178566Y200605D03*
Y194305D03*
X187745Y210432D03*
X178564Y219506D03*
X178566Y210057D03*
X180496Y232282D03*
X180391Y225761D03*
X206000Y170500D03*
X208605Y224362D03*
X204645Y225635D03*
X206506Y253000D03*
X221296Y176751D03*
X218146Y170452D03*
Y176752D03*
X214996Y170452D03*
X211845D03*
X214995Y173602D03*
X214996Y176752D03*
X211846Y173602D03*
X221296Y192501D03*
X211846Y179902D03*
X218146Y179901D03*
X214996Y186202D03*
X221296Y183051D03*
X211845Y192502D03*
X211846Y183051D03*
X214995D03*
X218146Y192502D03*
X211845Y186202D03*
X218146D03*
X214995Y189352D03*
X211846D03*
X221296Y195652D03*
X214995Y198802D03*
X224446Y208252D03*
X221295Y201952D03*
X214996D03*
X218146Y198802D03*
X211846D03*
X224446Y201952D03*
X221296Y208251D03*
X214995Y195652D03*
X211845Y195651D03*
Y201952D03*
X218146D03*
Y208252D03*
X211846Y208251D03*
X221296Y198802D03*
X218146Y195651D03*
Y217702D03*
Y224002D03*
X224446Y217702D03*
X214995Y214552D03*
X224446Y220851D03*
X211845Y211402D03*
X218146D03*
X221296Y214552D03*
X211845Y217702D03*
X214996D03*
X224446Y211402D03*
X221296D03*
X218146Y220851D03*
X211846Y214552D03*
X218146D03*
X214996Y211402D03*
X214995Y224001D03*
X211846D03*
X221296Y217701D03*
X224446Y227152D03*
X221296Y233451D03*
X224445Y230302D03*
X221296Y236602D03*
X214995Y239752D03*
X224446Y233452D03*
X214996Y227152D03*
X221296Y230302D03*
X218146Y236601D03*
X211846Y240000D03*
X224446Y236601D03*
X211845Y227152D03*
Y236601D03*
X211846Y230302D03*
X218146Y227152D03*
X211845Y233452D03*
X218146D03*
X214995Y236602D03*
Y230302D03*
X218146Y239752D03*
X219282Y252434D03*
X216100Y252788D03*
X222727Y252400D03*
X211050Y252801D03*
X227595Y208252D03*
Y217702D03*
X230746Y220852D03*
X227595Y220851D03*
X233896Y224002D03*
X227595Y211402D03*
X240195Y224001D03*
X227595Y227152D03*
Y233452D03*
X237045Y227152D03*
X230746Y236602D03*
X227596Y230302D03*
X230746Y233451D03*
X240195Y230302D03*
X240196Y236601D03*
X233896D03*
X237046Y233451D03*
X233896Y233452D03*
X240196D03*
X230746Y230302D03*
X233896Y230301D03*
X227595Y236601D03*
X237046Y230302D03*
X230746Y227152D03*
X237046Y236602D03*
X240196Y227152D03*
X255945Y224001D03*
X243345Y224002D03*
X252796Y224001D03*
X252845Y239801D03*
X249646Y236601D03*
X252795Y227152D03*
X243345Y236601D03*
Y233452D03*
X243346Y230302D03*
X255945Y233451D03*
X252795Y233452D03*
X255941Y227147D03*
X249646Y230302D03*
X243346Y227152D03*
X252795Y236601D03*
X249646Y239752D03*
X255945Y236602D03*
X249646Y233452D03*
X255945Y230302D03*
X256000Y241500D03*
X271696Y176751D03*
Y186202D03*
Y192501D03*
Y183051D03*
Y189352D03*
Y179902D03*
Y195652D03*
X268545Y208252D03*
X271696Y198802D03*
X265396Y208252D03*
X271696Y201952D03*
Y208251D03*
X262241Y220847D03*
X265396Y220851D03*
X265391Y217697D03*
X262241D03*
X262246Y224001D03*
X268545Y220851D03*
X271696Y224001D03*
Y220852D03*
X268546Y224001D03*
X271696Y211402D03*
X265396D03*
X268545D03*
X265395Y214552D03*
X271696D03*
Y217701D03*
X259091Y223997D03*
X271696Y239752D03*
X265396Y227152D03*
X259096Y236601D03*
Y230301D03*
X268545Y227152D03*
X259096D03*
X268546Y230302D03*
X265396Y236601D03*
X268545Y233452D03*
X262246Y230302D03*
X265396Y233452D03*
X262241Y236597D03*
X262246Y239752D03*
X259096Y233453D03*
Y239752D03*
X265395D03*
X262246Y233451D03*
X268541Y239747D03*
X268545Y236601D03*
X265395Y230302D03*
X262241Y227147D03*
X281146Y176752D03*
X277995D03*
X274845Y173602D03*
X277996D03*
X274846Y176752D03*
X281145Y179902D03*
X277995Y186202D03*
X274846Y192502D03*
X281146D03*
X284273Y183075D03*
X274846Y186202D03*
X277996Y183051D03*
X281145D03*
X274846Y183052D03*
X277996Y189352D03*
X281145D03*
X274846Y189351D03*
X277996Y198802D03*
X274846Y201952D03*
X281145Y208251D03*
X274846Y208252D03*
Y198802D03*
X281145D03*
X277996Y195652D03*
X281146Y195651D03*
X277986Y205072D03*
X281137D03*
X274846Y195651D03*
X274845Y214552D03*
X281146Y211402D03*
X277995D03*
X281145Y224001D03*
X274846Y224002D03*
X281145Y220852D03*
X281146Y217702D03*
X274846Y211402D03*
X281145Y214552D03*
X274846Y220851D03*
X277996Y214552D03*
X277995Y217702D03*
X274846D03*
X277996Y224001D03*
X277995Y227152D03*
X281145Y239752D03*
X274865D03*
X281146Y233452D03*
X277996Y239752D03*
X274846Y230301D03*
X281146Y227152D03*
X274846Y233452D03*
X281146Y236601D03*
X281145Y230302D03*
X274846Y227152D03*
X277996Y236602D03*
Y230302D03*
X296357Y213685D03*
X303404Y217003D03*
X314704Y182081D03*
Y188380D03*
X317854Y191530D03*
X321003D03*
X317854Y185231D03*
X314704Y197829D03*
X321003Y194679D03*
X317854D03*
Y207278D03*
X321003D03*
X317853Y197829D03*
X321003D03*
X314703Y216728D03*
X311554Y210428D03*
X317854Y210429D03*
X311554Y213579D03*
X321003Y210429D03*
Y213579D03*
X314502Y232678D03*
X314704Y226179D03*
X321003Y226175D03*
X317854Y226178D03*
X321083Y229405D03*
X317810Y229302D03*
X336754Y185232D03*
X326479Y181865D03*
X337015Y181794D03*
X336754Y188381D03*
X324712Y190704D03*
X324994Y186885D03*
X336754Y191531D03*
Y194677D03*
X324194Y197641D03*
X336754Y219878D03*
Y213577D03*
Y210428D03*
Y216727D03*
Y223026D03*
Y226177D03*
Y229325D03*
X324283Y229271D03*
X336754Y232475D03*
X343054Y185228D03*
X339904Y188378D03*
X340228Y181755D03*
X339904Y194677D03*
X343053D03*
X352333Y198244D03*
X352293Y206822D03*
X339904Y197826D03*
Y210429D03*
X343054Y210428D03*
X339904Y223026D03*
Y219877D03*
Y216727D03*
X349506Y215006D03*
X343054Y226177D03*
X339904Y229325D03*
Y226176D03*
X143480Y255318D03*
X149985D03*
X154794D03*
X161158D03*
X166390Y255460D03*
X172896Y255177D03*
X178058Y255248D03*
X184351Y255460D03*
X254500Y262500D03*
X253000Y266000D03*
X256994D03*
X250100Y262500D03*
X263500Y253120D03*
X267200Y261500D03*
X271900Y260400D03*
X259500Y257000D03*
X281700Y260000D03*
X296600Y258100D03*
X302290Y267073D03*
X301400Y271800D03*
X297144Y276148D03*
X312290Y267573D03*
X315710D03*
X305710Y267073D03*
X325710Y268000D03*
X322290D03*
X334700Y267900D03*
X340000Y252500D03*
X348000D03*
X484953Y181547D03*
X491000Y182000D03*
X484500Y130500D03*
X481500Y135000D03*
X472000Y178000D03*
X479000Y181500D03*
X468500Y180500D03*
X465500Y136500D03*
X450500Y144500D03*
Y139500D03*
X441500Y173968D03*
X438542Y165500D03*
X441500Y140849D03*
Y144000D03*
X439500Y136500D03*
X425730Y181039D03*
X425023Y164068D03*
X421487D03*
X418332D03*
X430680Y156997D03*
X429729Y146634D03*
X430680Y142148D03*
X421487Y131542D03*
X426002Y131813D03*
X430326Y135431D03*
X429619Y131895D03*
X406285Y163715D03*
X414770Y163930D03*
X403810Y131542D03*
X411588D03*
X407345D03*
X417250Y131536D03*
X399213Y155937D03*
Y139673D03*
X398860Y132249D03*
X379000Y140103D03*
X380899Y137593D03*
Y144582D03*
X376500Y142072D03*
X380000Y123451D03*
X372500Y125500D03*
X368000Y117000D03*
X256000Y88500D03*
X451000Y128450D03*
X533500Y169000D03*
X530500Y92500D03*
X514000Y92000D03*
X521176Y94150D03*
X486000Y262500D03*
Y272000D03*
X465600Y266700D03*
X460800Y266600D03*
X462490Y105510D03*
X447000Y272500D03*
X379800Y282000D03*
X375500Y269200D03*
X382000Y269700D03*
X364100Y279970D03*
X357500Y269000D03*
X561217Y138773D03*
X561000Y142000D03*
X571500Y159000D03*
X568300D03*
X591500Y136000D03*
X580167Y149773D03*
X583467D03*
G54D29*
X126000Y82765D03*
X32500Y135500D03*
X68000Y152000D03*
X70500Y132500D03*
Y121500D03*
Y111000D03*
G54D26*
X502000Y193500D03*
X486000Y230500D03*
X482000Y212000D03*
X486500Y203000D03*
X491500D03*
X482000Y198500D03*
Y208000D03*
Y203000D03*
Y193500D03*
X473000Y230500D03*
X467950Y223680D03*
X473000Y203000D03*
X477500D03*
X451500Y208500D03*
X438250Y210250D03*
X438650Y225150D03*
X441500Y208500D03*
X446500D03*
X422600Y231556D03*
X430500Y225000D03*
X425200Y212100D03*
X423000Y209500D03*
X407000Y196000D03*
X392500Y192000D03*
X291500Y151000D03*
X280500Y160415D03*
X260000Y160500D03*
X271500Y160501D03*
X256046Y160450D03*
X243000Y151500D03*
Y132000D03*
Y137000D03*
X238946Y155054D03*
X235666Y146355D03*
X227200Y129800D03*
X229013Y104468D03*
X241000Y84500D03*
X221250Y157750D03*
X223800Y139700D03*
X215100Y135200D03*
Y144700D03*
X211000Y128750D03*
X223800Y129300D03*
X217448Y112968D03*
X205500Y132000D03*
X170450Y91018D03*
X168200Y84868D03*
X176000Y84500D03*
X141500Y82500D03*
X123165Y72665D03*
X101500Y70000D03*
X112488Y75988D03*
X104512D03*
X101650Y64350D03*
X94241Y70759D03*
X94150Y61850D03*
X75500Y276500D03*
X72547Y281500D03*
X68950Y262750D03*
X69958Y93542D03*
X72400Y66500D03*
X64500Y87500D03*
X59114Y62065D03*
X45000Y222440D03*
X40500Y225000D03*
X36500Y170000D03*
X35500Y153000D03*
X46300Y137550D03*
X43500Y116300D03*
X43000Y108300D03*
X39000Y109800D03*
X35300Y109592D03*
X47571Y70596D03*
X19500Y216000D03*
X19700Y212200D03*
X17700Y143900D03*
X298500Y50500D03*
X282685Y64500D03*
X286623Y64623D03*
X65600Y41400D03*
X106000Y151121D03*
X99000Y147500D03*
X107000Y135500D03*
X96441Y140100D03*
X92500Y143000D03*
X90500Y107000D03*
Y111000D03*
X54500Y200000D03*
X63350Y130650D03*
X60500Y122500D03*
X56750Y128750D03*
X36450Y192920D03*
Y187016D03*
X94350Y227650D03*
X95500Y252000D03*
X98400Y258500D03*
X99500Y252000D03*
X107500Y251500D03*
X115000Y228500D03*
X128550Y142550D03*
X116500Y132600D03*
X123650Y143250D03*
X128900Y147400D03*
Y151400D03*
X138800Y112968D03*
X142800Y175600D03*
X143692Y234686D03*
X150365Y104468D03*
X156700Y174200D03*
X151000Y170600D03*
X164200Y108700D03*
X163800Y119518D03*
X181700Y157400D03*
X205000Y164500D03*
X202222Y241880D03*
X195250Y249750D03*
X226989Y246000D03*
X347500Y208500D03*
X188000Y255500D03*
X309500Y260100D03*
X337000Y257800D03*
X501800Y177500D03*
X506000Y160000D03*
X500500Y130350D03*
X498800Y135000D03*
X506500Y125000D03*
X486000Y169500D03*
X490500D03*
X497250Y160000D03*
X488250D03*
X495100Y130500D03*
X488800Y143350D03*
X475500Y168000D03*
X471500D03*
X467500Y165000D03*
X478500Y156500D03*
X472496Y145000D03*
X470001Y132999D03*
X474000Y128500D03*
X456200Y182900D03*
X457000Y169000D03*
X454000Y161500D03*
X463000Y145000D03*
X450663Y133663D03*
X460500Y134500D03*
X454500Y133500D03*
X457000Y136500D03*
X449200Y182800D03*
X445645Y168000D03*
X441500Y163500D03*
Y168000D03*
X430710Y177920D03*
X418689Y172798D03*
X307713Y104468D03*
X296148Y112968D03*
X288850Y132850D03*
X285150Y133000D03*
X261000Y105000D03*
X455000Y123500D03*
X450963Y123963D03*
X547000Y97150D03*
X532500Y155500D03*
X535000Y103750D03*
X516500Y73800D03*
X504950Y252050D03*
X504350Y234150D03*
X507000Y221500D03*
X502500Y216000D03*
X486000Y258000D03*
X489500Y254500D03*
X488000Y106000D03*
X482000Y106500D03*
X486500Y85500D03*
X488500Y89000D03*
X471500Y279000D03*
X477553Y275553D03*
X476500Y107000D03*
X472000Y106800D03*
X467000Y106500D03*
X457000Y272500D03*
X452000D03*
X434000D03*
X439500D03*
X396200Y281000D03*
X396003Y276603D03*
X387700Y278861D03*
X399500Y269500D03*
X399000Y100000D03*
G54D36*
X387800Y270500D03*
G54D31*
X452500Y173000D03*
G54D30*
X341700Y267600D03*
G54D35*
X473630Y92554D03*
%LPD*%
G75*
G54D10*
X17700Y143900D03*
X19000Y152000D03*
X18900Y149500D03*
X18500Y197500D03*
X29650Y30350D03*
X33000Y161500D03*
X27000Y151500D03*
X32400D03*
X29500D03*
X21500Y152000D03*
X33000Y158800D03*
Y156300D03*
X32500Y169600D03*
Y172500D03*
X33000Y166500D03*
Y164000D03*
X19300Y200600D03*
X33504Y209500D03*
X35000Y204700D03*
Y197500D03*
X19700Y212200D03*
X19500Y216000D03*
X39000Y14500D03*
X47500D03*
X47571Y70596D03*
X46300Y107300D03*
X47900Y109200D03*
X35300Y109592D03*
X39000Y109800D03*
X43000Y108300D03*
X43500Y116300D03*
X46300Y137550D03*
X49500Y139500D03*
X48900Y133000D03*
X45000Y148500D03*
X50000D03*
X47500D03*
X36000Y146069D03*
Y149000D03*
X35500Y153000D03*
X36500Y170000D03*
X36450Y175208D03*
Y181112D03*
Y187016D03*
Y192920D03*
X35900Y209500D03*
X49500Y206200D03*
X45000Y203000D03*
X47400Y212600D03*
X45000Y216000D03*
Y218504D03*
X40500Y225000D03*
X45000Y222440D03*
X42000Y238500D03*
X45000Y233000D03*
X50500Y248000D03*
X43500Y244500D03*
X65600Y41400D03*
X59114Y62065D03*
X64500Y87500D03*
X56750Y128750D03*
X60500Y122500D03*
X53308Y122708D03*
X63350Y130650D03*
X54000Y156000D03*
X53000Y159000D03*
Y161500D03*
X54000Y149150D03*
Y152000D03*
X54500Y200000D03*
X59000Y239500D03*
X51000Y231000D03*
X57000Y234000D03*
X56500Y245500D03*
X81000Y28000D03*
X68000Y33000D03*
X74500Y31500D03*
X75000Y43000D03*
X72400Y66500D03*
X75000Y95500D03*
X69958Y93542D03*
X67400Y99300D03*
X68500Y170000D03*
X72650Y209150D03*
X77500Y213000D03*
X72547Y256400D03*
X75800Y259400D03*
X75500Y265500D03*
X68950Y262750D03*
X82094Y262700D03*
X72547Y281500D03*
X75500Y276500D03*
X89000Y14500D03*
X85500Y23000D03*
X94150Y61850D03*
X94241Y70759D03*
X96000Y84000D03*
X88500Y97500D03*
X87000Y91500D03*
X90000Y86000D03*
X90500Y111000D03*
Y107000D03*
X95500Y101000D03*
X92500Y143000D03*
X96441Y140100D03*
X92000Y175000D03*
X97000Y167000D03*
X85700Y207200D03*
X90100D03*
X86900Y203400D03*
X94350Y227650D03*
X95500Y252000D03*
X98400Y258500D03*
X90150Y266200D03*
X95500Y258500D03*
X90500Y282150D03*
X87550Y282200D03*
X109000Y14500D03*
X99000D03*
X100500Y24500D03*
X110000Y50000D03*
X100000Y40000D03*
X101650Y64350D03*
X104512Y75988D03*
X112488D03*
X101500Y70000D03*
Y98500D03*
X104000Y92500D03*
X102000Y87000D03*
X105500Y105800D03*
X104000Y140500D03*
X107000Y135500D03*
Y140500D03*
X111000Y160150D03*
X100500Y158350D03*
X99000Y147500D03*
X110850Y152200D03*
X106000Y151121D03*
X103533Y207000D03*
X100900Y203100D03*
X111050Y200450D03*
X108633Y207152D03*
X100000Y206500D03*
X99500Y252000D03*
X107500Y251500D03*
X112000Y271000D03*
X113000Y280200D03*
X108300Y277700D03*
Y281200D03*
X108027Y273500D03*
X119000Y14500D03*
X130000Y50000D03*
X120000Y40000D03*
Y60000D03*
X123165Y72665D03*
X128550Y142550D03*
X116500Y132600D03*
X123650Y143250D03*
X121500Y157500D03*
X128900Y147400D03*
Y151400D03*
X121950Y200550D03*
X129669Y214931D03*
X124900Y209900D03*
X121315Y218300D03*
X121355Y224500D03*
X115000Y228500D03*
X124150Y271650D03*
X119900Y271600D03*
X128050Y276050D03*
X134500Y14500D03*
X140000Y40000D03*
Y60000D03*
X141500Y82500D03*
X138800Y112968D03*
X142800Y175600D03*
X143692Y234686D03*
X149000Y14500D03*
X159000D03*
X150000Y70000D03*
X150365Y104468D03*
X156700Y174200D03*
X151000Y170600D03*
X169000Y14500D03*
X176000Y84500D03*
X168200Y84868D03*
X170450Y91018D03*
X164200Y108700D03*
X163800Y119518D03*
X168500Y178000D03*
X179000Y14500D03*
X189000D03*
X180000Y70000D03*
X183500Y104500D03*
Y101500D03*
Y107500D03*
X181700Y157400D03*
X188000Y255500D03*
X206000Y32000D03*
X197433Y26520D03*
X209000Y46000D03*
X206500Y36500D03*
X208571Y52000D03*
X210000Y70000D03*
X205500Y132000D03*
X205000Y164500D03*
X202222Y241880D03*
X195250Y249750D03*
X219000Y46000D03*
X220000Y60000D03*
X225000Y64000D03*
X217448Y112968D03*
X223800Y129300D03*
X211000Y128750D03*
X215100Y144700D03*
Y135200D03*
X222050Y144050D03*
X223800Y139700D03*
X221250Y157750D03*
X213696Y165672D03*
X226989Y246000D03*
X226217Y249611D03*
X239000Y46000D03*
X229000D03*
X241000Y84500D03*
X229013Y104468D03*
X227200Y129800D03*
X235666Y146355D03*
X238946Y155054D03*
X232858Y250089D03*
X257500Y46000D03*
X249000D03*
X247000Y50000D03*
X244000Y81000D03*
X252850Y81100D03*
X243400Y108000D03*
X242448Y110568D03*
X243000Y132000D03*
Y137000D03*
Y151500D03*
X256046Y160450D03*
X267500Y46000D03*
X267000Y84900D03*
X261000Y105000D03*
X260000Y160500D03*
X271500Y160501D03*
X287500Y46000D03*
X277500D03*
X283000Y48700D03*
X276500Y48500D03*
X286623Y64623D03*
X282685Y64500D03*
X285150Y133000D03*
X288850Y132850D03*
X280500Y160415D03*
X297500Y46000D03*
X298500Y50500D03*
X292500Y53500D03*
X296148Y112968D03*
X291550Y141000D03*
X291500Y151000D03*
X295435Y166500D03*
X305000D03*
X299500D03*
X295100Y252400D03*
X295500Y254500D03*
X299800Y282900D03*
X307500Y46000D03*
X317500D03*
X308500Y50500D03*
X310245Y64500D03*
X321800Y107900D03*
X307713Y104468D03*
X321600Y110600D03*
X312000Y166500D03*
X309500Y260100D03*
X327500Y46000D03*
X337500D03*
X323500Y50500D03*
X332200Y64500D03*
X323800D03*
X325500Y84244D03*
X327798Y91018D03*
X337000Y257800D03*
X328500Y260000D03*
X331500D03*
X347500Y46000D03*
X352000Y63500D03*
X345678Y64178D03*
X349000Y63500D03*
X350500Y84500D03*
X353500D03*
X347500Y208500D03*
X348000Y223500D03*
X348500Y226500D03*
X354000Y270500D03*
X349650Y276150D03*
X365000Y31500D03*
X368000D03*
X363000Y34500D03*
Y37500D03*
Y41500D03*
X357500Y46000D03*
X355500Y63500D03*
X358500D03*
X364300Y112300D03*
Y106800D03*
X362400Y114900D03*
X369000Y205000D03*
X357200Y203800D03*
X363750Y228850D03*
X359500Y238000D03*
X367500Y232500D03*
X355000Y252500D03*
X383000Y14500D03*
X377000D03*
X380000D03*
Y17000D03*
X383000D03*
X372500Y26500D03*
X376000Y20500D03*
Y24500D03*
X385500Y111500D03*
X385000Y103700D03*
X371000Y102000D03*
X383275Y115775D03*
X383000Y176000D03*
X385500Y178000D03*
X371000Y208000D03*
X382500Y201000D03*
X380694Y209118D03*
X380878Y211812D03*
X377500Y215000D03*
X372500Y219500D03*
X378000D03*
X370500Y215500D03*
X378000Y225500D03*
X379400Y228600D03*
X379544Y231556D03*
X377000Y250500D03*
X383000Y242000D03*
X384000Y248000D03*
X381000Y250000D03*
X371800Y268700D03*
X379000Y269400D03*
X399000Y100000D03*
X389500Y100500D03*
X387000Y101500D03*
X389000Y104000D03*
X391500Y103000D03*
X392500Y192000D03*
X400748Y201696D03*
X390500Y244000D03*
X394500D03*
X400000Y256000D03*
X401000Y244200D03*
X399500Y269500D03*
X395500D03*
X387700Y278861D03*
X396003Y276603D03*
X396200Y281000D03*
X405743Y114243D03*
X417528Y114219D03*
X416113Y171988D03*
X402600Y199600D03*
X407000Y196000D03*
X404900Y201700D03*
X402980Y246500D03*
X414500Y244000D03*
X411000Y248000D03*
X410700Y244200D03*
X406549Y246521D03*
X404720Y244056D03*
X431600Y105000D03*
X425350Y106350D03*
X429124Y163927D03*
X418689Y172798D03*
X430710Y177920D03*
X420285Y183938D03*
X423000Y209500D03*
X433500Y195000D03*
X428500Y194000D03*
X425200Y212100D03*
X430500Y225000D03*
X425080Y222000D03*
X422600Y231556D03*
X430500Y236000D03*
X430000Y252500D03*
X418000Y256000D03*
X430000Y242200D03*
X447500Y15000D03*
Y22500D03*
Y29500D03*
Y35500D03*
Y41500D03*
Y47000D03*
X445500Y103800D03*
X442500Y103700D03*
X438500Y125107D03*
X440500Y123500D03*
X446150Y115350D03*
X441500Y168000D03*
Y163500D03*
X445645Y168000D03*
X449200Y182800D03*
X437000Y184500D03*
X446500Y208500D03*
X436000Y195000D03*
X434500Y197500D03*
X441500Y208500D03*
X438650Y225150D03*
X438250Y210250D03*
X437000Y236500D03*
X443500Y236742D03*
X439500Y272500D03*
X434000D03*
X455000Y14500D03*
X464000D03*
X464500Y24500D03*
X455500D03*
X452500Y39500D03*
Y44000D03*
X458000Y53500D03*
X462500Y51500D03*
X465000Y91500D03*
X450963Y123963D03*
X451850Y115550D03*
X451750Y119250D03*
X455000Y123500D03*
X457000Y136500D03*
X454500Y133500D03*
X460500Y134500D03*
X450663Y133663D03*
X463000Y145000D03*
X454000Y161500D03*
X457000Y169000D03*
X462700Y181000D03*
X461500Y190000D03*
X456200Y182900D03*
X462500Y178000D03*
X451500Y208500D03*
X461508Y209580D03*
X461500Y196000D03*
X452500Y195000D03*
X453000Y239500D03*
X451300Y253400D03*
X452000Y272500D03*
X457000D03*
X471000Y14500D03*
X479000D03*
X471500Y24500D03*
X478500D03*
X479500Y98500D03*
X474000Y84000D03*
X480000Y87000D03*
X466500Y97500D03*
X468000Y86000D03*
X467000Y106500D03*
X472000Y106800D03*
X476500Y107000D03*
X473500Y101000D03*
X474000Y128500D03*
X470001Y132999D03*
X472496Y145000D03*
X478500Y156500D03*
X470650Y153650D03*
X467500Y165000D03*
X471500Y168000D03*
X481500Y169500D03*
X475500Y168000D03*
X477500Y203000D03*
X473000D03*
X467950Y223680D03*
X473112Y223280D03*
X473000Y230500D03*
X478000Y258500D03*
X476000Y265500D03*
X477553Y275553D03*
X471500Y279000D03*
X492500Y31500D03*
X488000Y32500D03*
X486500Y26500D03*
X484000Y23500D03*
X482000Y30000D03*
X485000D03*
X488000D03*
X485000Y32500D03*
X482000D03*
Y35000D03*
X485000D03*
X488000D03*
X482000Y37500D03*
X485000D03*
X488000D03*
X482000Y63500D03*
X485000D03*
X488000D03*
X494000D03*
X491000D03*
X497000D03*
X488500Y89000D03*
X486500Y85500D03*
X482000Y92500D03*
X494500Y105000D03*
X482000Y106500D03*
X488000Y106000D03*
X495311Y109500D03*
X495000Y116000D03*
X488800Y143350D03*
X489000Y135000D03*
X495100Y130500D03*
X488250Y160000D03*
X497250D03*
X490500Y169500D03*
X486000D03*
X496500D03*
X482000Y193500D03*
Y203000D03*
Y208000D03*
Y198500D03*
X491500Y203000D03*
X486500D03*
X488860Y223242D03*
X482970D03*
X482000Y212000D03*
X486000Y230500D03*
X489500Y254500D03*
X490550Y242950D03*
X486000Y258000D03*
X502500Y64500D03*
X500000Y63500D03*
X506000Y108740D03*
X513000Y124500D03*
X506500Y125000D03*
X513000Y118084D03*
X498000Y121000D03*
X498800Y135000D03*
X500500Y130350D03*
X506000Y160000D03*
X506400Y149500D03*
X499500Y169500D03*
X501800Y177500D03*
X502000Y193500D03*
X504000Y190000D03*
X502000Y204000D03*
X502500Y216000D03*
X507000Y221500D03*
X504350Y234150D03*
X510500Y238500D03*
X513500Y233000D03*
X504950Y252050D03*
X512000Y244500D03*
X500700Y275700D03*
X516500Y73800D03*
X524500Y106000D03*
X515700Y105500D03*
X528000Y128060D03*
X522300Y114500D03*
Y117500D03*
X528000Y140500D03*
X521000Y147500D03*
X517000Y168500D03*
X524000Y165500D03*
X518000Y177000D03*
X515500Y179000D03*
X514000Y184500D03*
Y187000D03*
X524000Y189500D03*
Y196000D03*
X527500Y239500D03*
X525500Y234000D03*
X519500Y231000D03*
X525000Y245500D03*
X519000Y248000D03*
X533500Y14500D03*
Y32000D03*
Y49000D03*
Y59000D03*
X543000Y75500D03*
X533500Y69000D03*
X535000Y103750D03*
X532500Y155500D03*
X531500Y248000D03*
X541500D03*
X561000Y75500D03*
X547000Y97150D03*
X559000Y91000D03*
X553000Y124500D03*
X559000Y128000D03*
X554000Y121500D03*
X557500Y118000D03*
X558300Y139400D03*
X559000Y168000D03*
Y178000D03*
Y186000D03*
Y198000D03*
Y218000D03*
Y238000D03*
Y228000D03*
X551500Y248000D03*
X559000D03*
X575390Y143600D03*
X570000Y161500D03*
X562000D03*
X572000Y150000D03*
X567327D03*
X578000Y75500D03*
Y108500D03*
Y124500D03*
Y116000D03*
X589500Y129000D03*
X586217Y140773D03*
X590000Y145000D03*
Y141000D03*
X592500Y161362D03*
X583500Y161500D03*
X586100Y149600D03*
X579138Y159194D03*
X590000Y148500D03*
X601500Y129000D03*
Y136000D03*
Y155000D03*
Y161500D03*
G54D20*
X441780Y181240D03*
G54D11*
X25000Y41000D03*
X29500D03*
X34500Y40500D03*
X33000Y37500D03*
X27500D03*
X23000Y38000D03*
X22100Y56200D03*
X20000Y63100D03*
X21900Y52300D03*
X20000Y59100D03*
X22799Y81361D03*
X19882Y74869D03*
X19891Y78269D03*
X29400Y81344D03*
X26199Y81353D03*
X20000Y66800D03*
X32500Y135500D03*
X21000Y135000D03*
X25000D03*
X36900Y133300D03*
X36500Y137000D03*
X60400Y104300D03*
X61096Y113300D03*
X61350Y110000D03*
X59421Y116028D03*
X80500Y50000D03*
X70500Y111000D03*
Y121500D03*
Y132500D03*
X68000Y152000D03*
X79000Y177000D03*
Y173500D03*
X76000Y175000D03*
Y196600D03*
X80000D03*
X78000Y193500D03*
X92000Y54500D03*
X84000Y50000D03*
X113500Y87500D03*
X110000D03*
Y91000D03*
X113500D03*
X110500Y97000D03*
X113500D03*
X107000Y113000D03*
X110500Y100500D03*
X113500Y100000D03*
X110500Y104000D03*
X114000Y123668D03*
X107000Y116500D03*
Y120000D03*
X123000Y87500D03*
X117500Y83000D03*
X121000D03*
X126000Y82765D03*
X120600Y123668D03*
X117400D03*
X127800Y131500D03*
X127500Y159900D03*
X127400Y163000D03*
X121100Y174400D03*
X121000Y171000D03*
X130900Y131500D03*
X143200Y171100D03*
X139400Y172600D03*
X136500Y193000D03*
X136000Y190000D03*
X133500Y194196D03*
X154400Y166700D03*
X157800Y166600D03*
X177900Y143400D03*
X178500Y89500D03*
Y93000D03*
X182000D03*
Y89500D03*
X189000Y86000D03*
X192000Y84000D03*
Y88000D03*
X191948Y97368D03*
X189000Y96500D03*
X192048Y100568D03*
X189000Y99500D03*
Y102500D03*
X194000Y124000D03*
X189748Y120568D03*
X190500Y124000D03*
X189748Y117168D03*
X179800Y140500D03*
X180200Y151300D03*
X178600Y148700D03*
X199500Y84000D03*
X195500D03*
X197500Y124000D03*
X258000Y93000D03*
X255000D03*
X261200Y93045D03*
X260000Y89500D03*
X271000Y89000D03*
X270500Y85000D03*
X267500Y89000D03*
X270548Y94068D03*
X267848Y95668D03*
X270648Y97368D03*
X267848Y99068D03*
X270748Y100568D03*
X271348Y123668D03*
X268574Y120200D03*
X268100Y123600D03*
X277500Y85000D03*
X274000D03*
X277948Y123668D03*
X274748D03*
X336000Y85500D03*
Y92500D03*
Y89000D03*
X339500Y85500D03*
Y89000D03*
Y92500D03*
X363000Y64500D03*
X366500D03*
X359163Y83500D03*
X398000Y15500D03*
X391500D03*
X390000Y48500D03*
Y52500D03*
X393500Y55500D03*
X397000Y52000D03*
Y55500D03*
X393500Y51000D03*
X386500Y92500D03*
Y96500D03*
X411000Y15500D03*
X405500D03*
X416000Y20500D03*
X411000D03*
X416000Y52000D03*
Y56000D03*
X412500Y50000D03*
Y58000D03*
Y54000D03*
X417000Y69000D03*
X426500Y16500D03*
X421000Y20500D03*
X426500D03*
X419000Y54000D03*
X420500Y69000D03*
X424000D03*
X420639Y181039D03*
X478500Y55000D03*
X475000D03*
Y58500D03*
X478500D03*
X482000Y55000D03*
Y58500D03*
X508500Y63000D03*
Y59500D03*
Y56000D03*
X515500Y28500D03*
X519000D03*
X522500D03*
X526000D03*
X529500D03*
Y63000D03*
Y59500D03*
Y56000D03*
X551000Y79500D03*
X554500Y79000D03*
X551000Y83000D03*
X554500Y82500D03*
G54D21*
X441780Y191240D03*
G54D12*
X34000Y240000D03*
X452500Y173000D03*
G54D22*
X462157Y244000D03*
X476921D03*
X471999D03*
X467078D03*
X481842D03*
G54D13*
X19500Y226500D03*
X37500Y27047D03*
X46150Y125850D03*
X45500Y170500D03*
Y173500D03*
Y188616D03*
Y191616D03*
X47000Y208664D03*
X45000Y198824D03*
X47000Y200792D03*
X45000Y210500D03*
X41000Y229500D03*
X60000Y35500D03*
X58000Y34000D03*
Y36500D03*
X65500Y122500D03*
X51850Y137500D03*
X61500Y159000D03*
X63462Y217500D03*
X60000D03*
X61500Y255500D03*
Y252000D03*
Y259000D03*
X65000Y274000D03*
X75358Y47500D03*
X72505Y77495D03*
X77500Y87500D03*
X71500Y170000D03*
X70500Y250538D03*
Y254000D03*
X78500Y282200D03*
X92500Y77000D03*
X94500Y76000D03*
X94498Y78001D03*
X94000Y65500D03*
X82500Y100000D03*
X95000Y178000D03*
X94533Y207200D03*
Y217400D03*
X85800Y217100D03*
X90100D03*
X87500Y225000D03*
X87495Y239984D03*
X87262Y235262D03*
X87000Y230000D03*
X87100Y249387D03*
X87400Y244706D03*
X89400Y256500D03*
X91452Y263500D03*
X84676Y263010D03*
X94000Y262500D03*
X85600Y256700D03*
X106000Y68000D03*
X101000Y126000D03*
X104900Y186100D03*
Y191100D03*
X101400Y188600D03*
X108400D03*
X104900D03*
X111000Y182500D03*
X101100Y199100D03*
X98450Y200450D03*
X108633Y218000D03*
X109071Y221489D03*
X113500Y216500D03*
X103500Y217100D03*
X100000Y219500D03*
X104300Y221300D03*
X105500Y218900D03*
X106000Y266100D03*
X112000Y263500D03*
X110000Y265000D03*
X105895Y261500D03*
X107862Y263702D03*
X125300Y205300D03*
X117000Y221500D03*
X124957Y224143D03*
X114200Y221500D03*
X128500Y227233D03*
X127338Y235453D03*
X128500Y230545D03*
X124800Y236882D03*
X125584Y227316D03*
X124681Y243160D03*
X128000Y242000D03*
X128600Y251400D03*
X129200Y245600D03*
X124300Y254282D03*
X125600Y250000D03*
X128912Y248119D03*
X120000Y263500D03*
X114000Y265000D03*
X122000Y265500D03*
X118000Y265000D03*
X123910Y263590D03*
X116000Y263500D03*
X144000Y167500D03*
X145743Y189077D03*
X139308Y215028D03*
X139379Y210432D03*
X142844Y230906D03*
X130500Y234000D03*
Y237000D03*
X131500Y240300D03*
X143480Y255318D03*
X155500Y80500D03*
X152000Y83500D03*
X160352Y81648D03*
X150216Y191159D03*
Y188008D03*
X153366Y181710D03*
X161653Y193108D03*
X150216Y181709D03*
Y184860D03*
X153366Y191158D03*
X156516Y181709D03*
X153366Y184860D03*
X156516Y191158D03*
X153366Y188009D03*
X159584Y191076D03*
X160168Y187522D03*
X150216Y194307D03*
X156516Y200608D03*
X150216Y206906D03*
X153366Y200608D03*
X150216Y197458D03*
Y200608D03*
X153366Y194308D03*
X156516Y197458D03*
Y194307D03*
Y206906D03*
X153366Y206907D03*
Y197457D03*
Y219508D03*
X153365Y216358D03*
X150216Y222658D03*
X153366Y213207D03*
X150216Y216356D03*
X153366Y210058D03*
X156516Y216358D03*
X153366Y222657D03*
X160097Y222099D03*
X156545Y222682D03*
X148715Y211703D03*
X156516Y210057D03*
Y213207D03*
X149349Y228605D03*
X149300Y231604D03*
X149278Y225706D03*
X156516Y228953D03*
X153366Y228956D03*
Y225807D03*
X154655Y233060D03*
X146662Y248943D03*
X157976Y248884D03*
X149985Y255318D03*
X154794D03*
X161158D03*
X175417Y191156D03*
Y184857D03*
X172266Y184861D03*
X175845Y181235D03*
X171623Y177905D03*
X172331Y191200D03*
X172177Y188102D03*
X175416Y188007D03*
X175414Y203758D03*
X175416Y194306D03*
Y197455D03*
X172259Y203715D03*
X172266Y194306D03*
X175416Y200606D03*
X169007Y200320D03*
X165754Y199755D03*
X175416Y213205D03*
X175417Y210057D03*
X175416Y222655D03*
X172259Y222665D03*
X168314Y220276D03*
X175416Y219509D03*
X166107Y218352D03*
X172266Y210057D03*
Y213205D03*
X175417Y216356D03*
X172224Y225882D03*
X175416Y228954D03*
Y225805D03*
X165966Y232070D03*
X172047Y232352D03*
X169643Y248813D03*
X166390Y255460D03*
X172896Y255177D03*
X178058Y255248D03*
X186250Y88079D03*
X178566Y188006D03*
Y181707D03*
Y184857D03*
X178562Y203757D03*
X178566Y197455D03*
Y200605D03*
Y194305D03*
X178562Y222653D03*
X187745Y210432D03*
X178564Y219506D03*
X178566Y210057D03*
X180496Y228903D03*
Y232282D03*
X180391Y225761D03*
X181240Y248802D03*
X184351Y255460D03*
X206000Y170500D03*
X208605Y224362D03*
X204645Y225635D03*
X206506Y253000D03*
X197500D03*
X206506Y264000D03*
X209016Y262000D03*
X221500Y147000D03*
X224700Y147500D03*
X223700Y150318D03*
Y153782D03*
X221296Y176751D03*
X218146Y170452D03*
Y176752D03*
X214996Y170452D03*
X218146Y173602D03*
X211845Y170452D03*
X224445Y173602D03*
X214995D03*
X214996Y176752D03*
X224446D03*
X211846Y173602D03*
X224446Y170452D03*
X221296Y192501D03*
X211846Y179902D03*
X218146Y179901D03*
X214995Y179902D03*
Y192501D03*
X224446Y179901D03*
Y186202D03*
X214996D03*
X221296Y183051D03*
X224446Y192502D03*
X211845D03*
X211846Y183051D03*
X214995D03*
X218146Y192502D03*
X211845Y186202D03*
X218146D03*
X214995Y189352D03*
X211846D03*
X221296Y195652D03*
X215018Y208226D03*
X224445Y198802D03*
X214995D03*
X224446Y208252D03*
X221295Y201952D03*
X214996D03*
X218146Y198802D03*
X211846D03*
X224446Y201952D03*
X221296Y208251D03*
X214995Y195652D03*
X211845Y195651D03*
Y201952D03*
X218146D03*
Y208252D03*
X211846Y208251D03*
X221296Y198802D03*
X218146Y195651D03*
Y217702D03*
Y224002D03*
X224446Y217702D03*
X214995Y220852D03*
X224445Y214552D03*
X221296Y224001D03*
X214995Y214552D03*
X224446Y220851D03*
X211845Y211402D03*
X218146D03*
X221296Y214552D03*
X211845Y217702D03*
X214996D03*
X224446Y211402D03*
X221296D03*
X218146Y220851D03*
X211846Y214552D03*
X218146D03*
X214996Y211402D03*
X214995Y224001D03*
X211846D03*
X221296Y217701D03*
X224446Y227152D03*
X221296Y233451D03*
X224445Y230302D03*
X221296Y236602D03*
X214995Y239752D03*
X224446Y233452D03*
X214995Y233451D03*
X214996Y227152D03*
X221296Y230302D03*
X218146Y236601D03*
X211846Y240000D03*
X224446Y236601D03*
X211845Y227152D03*
Y236601D03*
X211846Y230302D03*
X218146Y227152D03*
X211845Y233452D03*
X218146D03*
X214995Y236602D03*
Y230302D03*
X218146Y239752D03*
X219282Y252434D03*
X216100Y252788D03*
X222727Y252400D03*
X211050Y252801D03*
X210984Y264000D03*
X220000Y262000D03*
X213494D03*
X221984Y264000D03*
X217506D03*
X224494Y262000D03*
X240000Y64000D03*
X230750D03*
X228250D03*
X235441Y64500D03*
X237150Y129650D03*
X230746Y164152D03*
Y173602D03*
X237045Y170452D03*
X237046Y173602D03*
X233896Y176752D03*
X241000Y166000D03*
X230746Y170452D03*
Y176751D03*
X240195Y173602D03*
X240196Y176752D03*
X237045D03*
X227595Y170452D03*
X227596Y173602D03*
X233895D03*
X233896Y170452D03*
X230746Y189352D03*
Y192501D03*
X227595Y186202D03*
X237046Y189352D03*
X233896Y183052D03*
X237045Y186202D03*
X230746Y179902D03*
Y186202D03*
X240195Y183051D03*
X230746D03*
X233896Y179901D03*
X237046Y179902D03*
X240195D03*
X237046Y183051D03*
X240196Y192502D03*
X227596Y183051D03*
X227595Y192502D03*
Y179901D03*
Y195651D03*
X233896Y201952D03*
X227595Y208252D03*
X240195Y198802D03*
X237045Y201952D03*
X240195Y208251D03*
X237046Y195652D03*
X230746Y208251D03*
X227595Y201952D03*
X240196D03*
X237046Y198802D03*
X240196Y195651D03*
X237046Y208251D03*
X233896Y198802D03*
Y208252D03*
X227595Y217702D03*
X230746Y211402D03*
Y220852D03*
X233901Y220847D03*
X227595Y220851D03*
X240196Y217702D03*
X240195Y220852D03*
X233895Y214552D03*
X240201Y214547D03*
X237045Y211402D03*
X227596Y224001D03*
X230746Y217701D03*
X237046Y214552D03*
X233896Y224002D03*
X227595Y211402D03*
X230746Y214552D03*
X237045Y217702D03*
X240195Y224001D03*
X227595Y227152D03*
Y233452D03*
X237045Y227152D03*
X230746Y236602D03*
X227596Y230302D03*
X230746Y233451D03*
X240195Y230302D03*
X240196Y236601D03*
X233896D03*
X237046Y233451D03*
X233896Y233452D03*
X240196D03*
X230746Y230302D03*
X233896Y230301D03*
X227595Y236601D03*
X237046Y230302D03*
X230746Y227152D03*
X237046Y236602D03*
X240196Y227152D03*
X228474Y251500D03*
X233604Y252829D03*
X241202Y252434D03*
X238374D03*
X226483Y253013D03*
X232995Y264008D03*
X231000Y262500D03*
X235494D03*
X228506Y264000D03*
X239506D03*
X254250Y64000D03*
X251750D03*
X242500D03*
X247252Y64500D03*
X249000Y91500D03*
X256000Y88500D03*
X243050Y141800D03*
X257500Y157000D03*
X243000Y155350D03*
X243346Y173602D03*
X245428Y165000D03*
X252796Y173602D03*
X249645D03*
X255946Y176752D03*
Y170452D03*
X255945Y173602D03*
X252795Y176752D03*
X249646D03*
Y170452D03*
X252795D03*
X243345Y176752D03*
X249646Y186202D03*
Y183052D03*
X252796Y189352D03*
X255945Y192501D03*
X252796Y179902D03*
X255945Y183051D03*
X249645Y189352D03*
X252796Y183051D03*
X243345Y192502D03*
X255945Y189352D03*
X255946Y186202D03*
X243356Y183062D03*
X255945Y179902D03*
X249646Y179901D03*
X243345Y186202D03*
X249646Y192502D03*
X243345Y179901D03*
X255945Y208251D03*
X252795Y195651D03*
Y201952D03*
X255945Y198802D03*
X243345Y201952D03*
Y195651D03*
X249645Y198802D03*
X249636Y208242D03*
X249646Y201952D03*
Y195651D03*
X243346Y198802D03*
X255945Y195652D03*
X255946Y201952D03*
X252796Y198802D03*
X243345Y208252D03*
X252796Y208251D03*
X249646Y217702D03*
X252795D03*
X255945Y214552D03*
X249645D03*
X252795Y211402D03*
X243345D03*
X255945Y220852D03*
X243346Y214552D03*
X249636Y211392D03*
X252791Y214547D03*
X255941Y211397D03*
X243345Y220851D03*
X255945Y224001D03*
X249646Y220851D03*
X243345Y224002D03*
X252796Y224001D03*
X252845Y239801D03*
X249646Y236601D03*
X252795Y227152D03*
X243345Y236601D03*
Y233452D03*
X243346Y230302D03*
X255945Y233451D03*
X252795Y233452D03*
X255941Y227147D03*
X249646Y230302D03*
X243346Y227152D03*
X252795Y236601D03*
X249646Y239752D03*
X255945Y236602D03*
X249646Y233452D03*
X255945Y230302D03*
X255694Y252827D03*
X244210Y252788D03*
X252162Y252829D03*
X248909Y252865D03*
X251000Y250500D03*
X256000Y241500D03*
X254500Y262500D03*
X253000Y266000D03*
X242016Y262540D03*
X256994Y266000D03*
X250100Y262500D03*
X246500Y262540D03*
X244024Y264030D03*
X266250Y64500D03*
X263750D03*
X259063D03*
X270874D03*
X269200Y140200D03*
X264500D03*
Y146100D03*
X269200D03*
X270500Y155500D03*
X271696Y176751D03*
X259096Y173602D03*
X271696D03*
X265395D03*
X265396Y176752D03*
X268545D03*
X259096Y170452D03*
X262246D03*
X259096Y176752D03*
X268546Y173602D03*
X271696Y170452D03*
X259096Y189351D03*
X271696Y186202D03*
X265396D03*
X271696Y192501D03*
X265396Y192502D03*
X271696Y183051D03*
X268546D03*
X271696Y189352D03*
X262246Y183051D03*
X259096Y186202D03*
X268545D03*
Y179901D03*
X262246Y179902D03*
X271696D03*
X268545Y192502D03*
X265396Y179901D03*
X259096Y183052D03*
Y179901D03*
X262245Y186202D03*
X265396Y201952D03*
X271696Y195652D03*
X262246Y208251D03*
X268546Y198802D03*
X265395D03*
X268545Y208252D03*
X271696Y198802D03*
X265396Y208252D03*
X271696Y201952D03*
X268545D03*
X259096D03*
X271696Y208251D03*
X262245Y201952D03*
X262241Y220847D03*
X265396Y220851D03*
X265391Y217697D03*
X262241D03*
X262246Y211402D03*
Y224001D03*
X268546Y214552D03*
X259091Y214547D03*
X268545Y220851D03*
X271696Y224001D03*
Y220852D03*
X268546Y224001D03*
X271696Y211402D03*
X265396D03*
X268545D03*
X265395Y214552D03*
X271696D03*
Y217701D03*
X259096Y217702D03*
Y211402D03*
X259091Y223997D03*
X271696Y239752D03*
X265396Y227152D03*
X259096Y236601D03*
Y230301D03*
X271696Y227152D03*
Y236602D03*
X268545Y227152D03*
X259096D03*
X268546Y230302D03*
X265396Y236601D03*
X268545Y233452D03*
X262246Y230302D03*
X265396Y233452D03*
X262241Y236597D03*
X262246Y239752D03*
X259096Y233453D03*
Y239752D03*
X265395D03*
X262246Y233451D03*
X268541Y239747D03*
X268545Y236601D03*
X265395Y230302D03*
X262241Y227147D03*
X267000Y251500D03*
X259000Y253000D03*
X263500Y253120D03*
X261500Y250500D03*
X263600Y263300D03*
X267200Y261500D03*
X271900Y260400D03*
X260800Y264300D03*
X259500Y257000D03*
X287000Y53500D03*
X281146Y176752D03*
X277995D03*
Y170452D03*
X274845Y173602D03*
X281145D03*
X277996D03*
X274846Y176752D03*
X281796Y170702D03*
X274846Y170452D03*
X281145Y179902D03*
X277996D03*
Y192501D03*
X277995Y186202D03*
X274846Y192502D03*
X281146D03*
X284273Y183075D03*
X274846Y186202D03*
X277996Y183051D03*
X281145D03*
X274846Y183052D03*
X277996Y189352D03*
X281145D03*
X274846Y189351D03*
X277996Y208251D03*
Y198802D03*
X274846Y201952D03*
X281145Y208251D03*
X274846Y208252D03*
Y198802D03*
X281145D03*
X277996Y195652D03*
X281146Y195651D03*
X277986Y205072D03*
X281137D03*
X274846Y195651D03*
X277996Y220852D03*
X274845Y214552D03*
X281146Y211402D03*
X277995D03*
X281145Y224001D03*
X274846Y224002D03*
X281145Y220852D03*
X281146Y217702D03*
X274846Y211402D03*
X281145Y214552D03*
X274846Y220851D03*
X277996Y214552D03*
X277995Y217702D03*
X274846D03*
X277996Y224001D03*
Y233451D03*
X277995Y227152D03*
X281145Y239752D03*
X274865D03*
X281146Y233452D03*
X277996Y239752D03*
X274846Y230301D03*
X281146Y227152D03*
X274846Y233452D03*
X281146Y236601D03*
X281145Y230302D03*
X274846Y227152D03*
X277996Y236602D03*
Y230302D03*
X276000Y249000D03*
X286100Y261000D03*
X281700Y260000D03*
X286100Y258100D03*
X289400Y262900D03*
X287000Y278500D03*
X286000Y283000D03*
X289500Y53500D03*
X290560Y64560D03*
X298434Y64566D03*
X303000Y64500D03*
X295500Y150900D03*
X296710Y217150D03*
X296357Y213685D03*
X303404Y217003D03*
X298500Y253000D03*
X296600Y258100D03*
X302290Y267073D03*
X301400Y271800D03*
X297144Y276148D03*
X314000Y64500D03*
X317000D03*
X306000D03*
X317500Y50500D03*
X314500D03*
X320000Y82500D03*
X314704Y191530D03*
X317854Y182081D03*
X314704D03*
Y188380D03*
X317854Y191530D03*
X321003D03*
X317854Y185231D03*
X314703Y194679D03*
X321003Y200979D03*
X314704Y207278D03*
X314812Y201028D03*
X314704Y197829D03*
X321003Y194679D03*
X317853Y200979D03*
X317854Y194679D03*
Y207278D03*
X321003D03*
X317853Y197829D03*
X321003D03*
X317854Y219879D03*
Y213579D03*
X313621Y222159D03*
X317853Y216729D03*
X314703Y216728D03*
X311554Y210428D03*
X317854Y210429D03*
X321004Y223025D03*
X317853Y223029D03*
X311554Y213579D03*
X321003Y210429D03*
Y213579D03*
X321004Y216729D03*
X314483Y229549D03*
X314502Y232678D03*
X314704Y226179D03*
X321003Y226175D03*
X317854Y226178D03*
X321083Y229405D03*
X317810Y229302D03*
X312290Y267573D03*
X315710D03*
X305710Y267073D03*
X329420Y64500D03*
X326500D03*
Y50500D03*
X330000D03*
X336754Y185232D03*
X326479Y181865D03*
X337015Y181794D03*
X336754Y188381D03*
X324712Y190704D03*
X324994Y186885D03*
X336754Y191531D03*
X328601Y195724D03*
X336754Y194677D03*
Y207278D03*
X324194Y197641D03*
X333656Y197882D03*
X330793Y197916D03*
X336754Y219878D03*
Y213577D03*
Y210428D03*
Y216727D03*
Y223026D03*
Y226177D03*
Y229325D03*
X324283Y229271D03*
X336754Y232475D03*
X325710Y268000D03*
X322290D03*
X334700Y267900D03*
X353000Y100500D03*
X339904Y191528D03*
X343429Y181703D03*
X343054Y188377D03*
X339904Y185229D03*
X343054Y185228D03*
X339904Y188378D03*
X340228Y181755D03*
X344500Y205946D03*
X339904Y207278D03*
X343054Y197826D03*
Y200977D03*
X339904Y194677D03*
X343053D03*
X352333Y198244D03*
X352293Y206822D03*
X339904Y197826D03*
Y200977D03*
Y213577D03*
X343054Y223026D03*
X339904Y210429D03*
X343054Y210428D03*
X339904Y223026D03*
Y219877D03*
Y216727D03*
X349506Y215006D03*
X343054Y229325D03*
X346703Y240979D03*
X343054Y232475D03*
X344500Y234500D03*
X343054Y226177D03*
X339904Y229325D03*
Y226176D03*
X340059Y232632D03*
X341500Y247800D03*
X340000Y252500D03*
X348000D03*
X368237Y83763D03*
X364475Y97975D03*
X360500Y112000D03*
X357500Y104500D03*
X368000Y117000D03*
X367500Y218000D03*
X364000Y244500D03*
X357500Y269000D03*
X368700Y268800D03*
X364000Y258500D03*
X364100Y279970D03*
X370500Y111000D03*
X377000Y127261D03*
X372500Y125500D03*
X380000Y123451D03*
X379500Y128870D03*
X376500Y142072D03*
X380899Y144582D03*
Y137593D03*
X379000Y140103D03*
X380546Y159077D03*
X377000Y152000D03*
X380500Y154593D03*
X375936Y157532D03*
X376387Y168387D03*
X380000Y166000D03*
X375000Y173000D03*
X380192Y170356D03*
X382500Y191545D03*
X377350Y199150D03*
X384000Y198500D03*
X371000Y203000D03*
X379500Y235000D03*
X382000Y269700D03*
X375500Y269200D03*
X379800Y282000D03*
X394516Y108500D03*
X400500Y110500D03*
X392006Y111000D03*
X397500Y110500D03*
X398860Y132249D03*
X399213Y139673D03*
Y155937D03*
X394986Y169087D03*
X393557Y170786D03*
X390000Y185500D03*
X397092D03*
X393500D03*
X400628Y185594D03*
X399000Y192000D03*
X396000Y197000D03*
X392844Y201955D03*
X396780Y201280D03*
X388908Y201500D03*
X390000Y198000D03*
X395000Y256000D03*
X417250Y131536D03*
X407345Y131542D03*
X411588D03*
X403810D03*
X414770Y163930D03*
X406285Y163715D03*
X409339Y175382D03*
X416891Y185635D03*
X408406D03*
X412649D03*
X404000Y185500D03*
X410556Y201556D03*
X404946Y248569D03*
X422659Y111000D03*
X426902D03*
X430237Y110021D03*
X429619Y131895D03*
X430326Y135431D03*
X426002Y131813D03*
X421487Y131542D03*
X430680Y142148D03*
X429729Y146634D03*
X430680Y156997D03*
X418332Y164068D03*
X421487D03*
X425023D03*
X431090Y161594D03*
X425730Y181039D03*
X426150Y188880D03*
X426430Y192030D03*
X429000Y197000D03*
X423000Y206000D03*
X425500Y217500D03*
X422500Y221500D03*
Y240790D03*
X420500Y242500D03*
X440844Y110021D03*
X437308D03*
X433773D03*
X444500Y118000D03*
X439500Y136500D03*
X441500Y144000D03*
Y140849D03*
X438542Y165500D03*
X441500Y173968D03*
X434000Y236500D03*
X442000Y226000D03*
X444500Y225000D03*
X447500Y227000D03*
X437000Y258500D03*
X447000Y272500D03*
X448000Y258100D03*
X444900Y258300D03*
X442000Y258500D03*
X462490Y105510D03*
X451000Y128450D03*
X450500Y139500D03*
Y144500D03*
X459000Y208000D03*
Y205500D03*
X449500Y195000D03*
X451290Y218500D03*
X461116Y220571D03*
X463616Y220595D03*
X453258Y236758D03*
X463000Y237000D03*
X460000D03*
X459500Y253600D03*
X460400Y258300D03*
X464000Y261800D03*
X460800Y266600D03*
X474500Y117000D03*
X468500D03*
X471500D03*
X465500Y136500D03*
X470500Y151000D03*
X479500Y167500D03*
Y164500D03*
X468000Y169500D03*
Y172000D03*
X465800Y170700D03*
X468500Y180500D03*
X476500Y179000D03*
X479000Y181500D03*
X473850Y180500D03*
X472000Y178000D03*
X465600Y266700D03*
X471500Y259000D03*
X481500Y135000D03*
X484500Y130500D03*
X486000Y135000D03*
X491000Y182000D03*
X484953Y181547D03*
X494795Y224000D03*
X484500Y226000D03*
X490500Y233000D03*
X493000D03*
X487000Y226000D03*
X486000Y252000D03*
X483500Y254414D03*
X486000Y272000D03*
Y262500D03*
X506000Y116500D03*
X512500Y143300D03*
X512000Y136500D03*
Y139500D03*
X510500Y141500D03*
X510000Y135000D03*
X512500Y147000D03*
X509000Y149500D03*
Y153000D03*
X512000Y155000D03*
Y158500D03*
X510000Y160000D03*
X512500Y149500D03*
X502000Y210000D03*
X497500Y224000D03*
X511000Y211500D03*
Y209000D03*
X521176Y94150D03*
X514000Y92000D03*
X522000Y111150D03*
X528500Y122000D03*
X528000Y147000D03*
Y150000D03*
X514700Y154000D03*
X524000Y159500D03*
X521000D03*
X515500Y191500D03*
X517000Y189000D03*
X520500Y205000D03*
X513500Y208500D03*
X521500Y197200D03*
Y194700D03*
X518000Y203500D03*
Y206500D03*
X513500Y213000D03*
X530500Y92500D03*
X539000Y109200D03*
Y106500D03*
X533500Y169000D03*
X553000Y127500D03*
Y149500D03*
X552500Y152700D03*
X561217Y138773D03*
X561000Y142000D03*
X571500Y159000D03*
X568300D03*
X591500Y136000D03*
X580167Y149773D03*
X583467D03*
X591717Y153273D03*
X589217D03*
X591717Y155773D03*
X589217D03*
G54D14*
X50402Y239417D03*
X95677Y92554D03*
X272500Y274100D03*
X473630Y92554D03*
X518906Y239417D03*
G54D23*
X471500Y269000D03*
X495500D03*
G54D24*
G01X344500Y205946D02*
X342554Y204000D01*
X333000D01*
X329000Y208000D01*
Y217500D01*
X326621Y219879D01*
X317854D01*
G54D15*
X66089Y57779D03*
X68094Y59774D03*
X68084Y55774D03*
X70089Y57768D03*
X108910Y236967D03*
X102877D03*
Y243000D03*
X108910D03*
X137859Y145481D03*
X135859Y148481D03*
X137859Y151481D03*
X139859Y148481D03*
X161352Y100200D03*
X159352Y98200D03*
X157352Y100200D03*
X159352Y102200D03*
X238000D03*
X236000Y100200D03*
X240000Y100199D03*
X238001Y98201D03*
X316700Y102200D03*
X314700Y100200D03*
X316700Y98200D03*
X318700Y100200D03*
X398690Y219690D03*
X392670D03*
Y213670D03*
X398690D03*
X392670Y225710D03*
X398690D03*
X392670Y231730D03*
X398690D03*
X416818Y139076D03*
X414652Y145572D03*
Y143407D03*
Y141242D03*
Y139076D03*
X412487D03*
X410323Y139077D03*
X408158D03*
X405993D03*
Y141242D03*
Y143407D03*
Y145571D03*
X414652Y154231D03*
X414653Y152067D03*
X414652Y149902D03*
X416818Y147737D03*
Y156396D03*
X414652D03*
X405993Y149902D03*
Y147736D03*
X408158D03*
X410323D03*
X412487Y147737D03*
X414652D03*
X412487Y156396D03*
X410323Y156397D03*
X408158D03*
X405993D03*
Y154232D03*
Y152067D03*
X404710Y219690D03*
X410730D03*
X404710Y213670D03*
X410730D03*
X404710Y225710D03*
X410730D03*
X404710Y231730D03*
X410730D03*
X418983Y139076D03*
X421147Y139077D03*
X423312D03*
Y141242D03*
X423313Y143407D03*
X423312Y145571D03*
X421147Y147736D03*
X418983Y147737D03*
X423312Y147736D03*
Y149902D03*
Y152067D03*
Y154232D03*
Y156397D03*
X421147D03*
X418983Y156396D03*
G54D25*
G01X41435Y11341D02*
X-16000D01*
G01X-26417Y97705D02*
X-27666Y98635D01*
X-28292Y99720D01*
X-28500Y100960D01*
X-28083Y102510D01*
X-27042Y103595D01*
X-25792Y103905D01*
X-24541Y103750D01*
X-23500Y103130D01*
X-21417Y100030D01*
X-19958Y98635D01*
X-17875Y97705D01*
X-16000Y97395D01*
Y103905D01*
G01Y112740D02*
X-18708Y113050D01*
X-21000Y113515D01*
X-23083Y114135D01*
X-25375Y114910D01*
X-28500Y116150D01*
Y109950D01*
G01X-17875Y122040D02*
X-16833Y122970D01*
X-16208Y124055D01*
X-16000Y125450D01*
X-16417Y126845D01*
X-17250Y127930D01*
X-18708Y128705D01*
X-20375Y128860D01*
X-22042Y128550D01*
X-23083Y127775D01*
X-23917Y126690D01*
X-24125Y125605D01*
X-23917Y124520D01*
X-23083Y123125D01*
X-28500Y123590D01*
Y127775D01*
G01X-18500Y134440D02*
X-17041Y135370D01*
X-16208Y136610D01*
X-16000Y138005D01*
X-16208Y139245D01*
X-17250Y140485D01*
X-18500Y141260D01*
X-19750Y141415D01*
X-21208Y141105D01*
X-22250Y140020D01*
X-22667Y138935D01*
Y137540D01*
G01Y138935D02*
X-23292Y139865D01*
X-24333Y140640D01*
X-25583Y140950D01*
X-26833Y140640D01*
X-27875Y139865D01*
X-28500Y138470D01*
X-28292Y137075D01*
X-27458Y135680D01*
G01X-15583Y150250D02*
X-15792Y149940D01*
X-16208D01*
X-16417Y150250D01*
X-16208Y150560D01*
X-15792D01*
X-15583Y150250D01*
G01X-26417Y159705D02*
X-27666Y160635D01*
X-28292Y161720D01*
X-28500Y162960D01*
X-28083Y164510D01*
X-27042Y165595D01*
X-25792Y165905D01*
X-24541Y165750D01*
X-23500Y165130D01*
X-21417Y162030D01*
X-19958Y160635D01*
X-17875Y159705D01*
X-16000Y159395D01*
Y165905D01*
G01X-28500Y175050D02*
X-28083Y173810D01*
X-27042Y172880D01*
X-25792Y172260D01*
X-24125Y171795D01*
X-22250Y171640D01*
X-20375Y171795D01*
X-18708Y172260D01*
X-17458Y172880D01*
X-16417Y173810D01*
X-16000Y175050D01*
X-16417Y176290D01*
X-17458Y177220D01*
X-18708Y177840D01*
X-20375Y178305D01*
X-22250Y178460D01*
X-24125Y178305D01*
X-25792Y177840D01*
X-27042Y177220D01*
X-28083Y176290D01*
X-28500Y175050D01*
G01X-21208Y205705D02*
X-22667Y206790D01*
X-23500Y207720D01*
X-23917Y208960D01*
X-23500Y210045D01*
X-22667Y210820D01*
X-21417Y211440D01*
X-19958Y211595D01*
X-18708Y211440D01*
X-17458Y210820D01*
X-16417Y209890D01*
X-16000Y208805D01*
X-16417Y207565D01*
X-17666Y206480D01*
X-19542Y205860D01*
X-21625Y205705D01*
X-24333Y206015D01*
X-25792Y206480D01*
X-27250Y207255D01*
X-28292Y208340D01*
X-28500Y209425D01*
X-28083Y210510D01*
X-27042Y211285D01*
G01X-17458Y218415D02*
X-16417Y219500D01*
X-16000Y220740D01*
X-16417Y221980D01*
X-17666Y223065D01*
X-19542Y223840D01*
X-21417Y224150D01*
X-23708D01*
X-25583Y223840D01*
X-27250Y223065D01*
X-28083Y222135D01*
X-28500Y221050D01*
X-28083Y219810D01*
X-27250Y218880D01*
X-26000Y218260D01*
X-24333Y217950D01*
X-22875Y218260D01*
X-21417Y219035D01*
X-20583Y219965D01*
X-20375Y221050D01*
X-20791Y222290D01*
X-21833Y223220D01*
X-23708Y224150D01*
G01X-15583Y233450D02*
X-15792Y233140D01*
X-16208D01*
X-16417Y233450D01*
X-16208Y233760D01*
X-15792D01*
X-15583Y233450D01*
G01X-17458Y243215D02*
X-16417Y244300D01*
X-16000Y245540D01*
X-16417Y246780D01*
X-17666Y247865D01*
X-19542Y248640D01*
X-21417Y248950D01*
X-23708D01*
X-25583Y248640D01*
X-27250Y247865D01*
X-28083Y246935D01*
X-28500Y245850D01*
X-28083Y244610D01*
X-27250Y243680D01*
X-26000Y243060D01*
X-24333Y242750D01*
X-22875Y243060D01*
X-21417Y243835D01*
X-20583Y244765D01*
X-20375Y245850D01*
X-20791Y247090D01*
X-21833Y248020D01*
X-23708Y248950D01*
G01X-18500Y254840D02*
X-17041Y255770D01*
X-16208Y257010D01*
X-16000Y258405D01*
X-16208Y259645D01*
X-17250Y260885D01*
X-18500Y261660D01*
X-19750Y261815D01*
X-21208Y261505D01*
X-22250Y260420D01*
X-22667Y259335D01*
Y257940D01*
G01Y259335D02*
X-23292Y260265D01*
X-24333Y261040D01*
X-25583Y261350D01*
X-26833Y261040D01*
X-27875Y260265D01*
X-28500Y258870D01*
X-28292Y257475D01*
X-27458Y256080D01*
G01X-15750Y199600D02*
Y194950D01*
X-28250D01*
Y199600D01*
G01X-15750Y267800D02*
Y272450D01*
X-28250D01*
Y267800D01*
G01X54558Y286661D02*
X-16000D01*
G01X-6000Y136375D02*
Y11341D01*
G01X-8500Y26341D02*
X-6000Y11341D01*
X-3500Y26341D01*
X-8500D01*
G01X-6000Y167625D02*
Y286661D01*
G01X-3500Y271661D02*
X-6000Y286661D01*
X-8500Y271661D01*
X-3500D01*
G01X13004Y172606D02*
G03X21617Y14692I835938J-33598D01*
G01X12350Y169400D02*
Y134550D01*
G01Y149400D02*
Y315100D01*
G01X13004Y251228D02*
Y172606D01*
G01X40563Y251228D02*
X13004D01*
G01X190675Y305100D02*
X12350D01*
G01X27350Y307600D02*
X12350Y305100D01*
X27350Y302600D01*
Y307600D01*
G01X25510Y11341D02*
X51441D01*
G01X21617Y14692D02*
G03X25510Y11340I3894J585D01*
G01X40563Y251228D02*
G03X60248Y270913I0J19685D01*
G01X84832Y13482D02*
G03X51441Y11341I-16713J-790D01*
G01X60248Y270913D02*
Y282724D01*
G01X64185Y286661D02*
X505130D01*
G01X64185D02*
G03X60248Y282724I0J-3937D01*
G01X84830Y13482D02*
X84796Y11341D01*
G01D02*
X195797D01*
G01X209851Y29217D02*
G03X195797Y11341I2624J-16525D01*
G01X201290Y300725D02*
X202220Y299683D01*
X203305Y299058D01*
X204700Y298850D01*
X206095Y299267D01*
X207180Y300100D01*
X207955Y301558D01*
X208110Y303225D01*
X207800Y304892D01*
X207025Y305933D01*
X205940Y306767D01*
X204855Y306975D01*
X203770Y306767D01*
X202375Y305933D01*
X202840Y311350D01*
X207025D01*
G01X214465Y300308D02*
X215550Y299267D01*
X216790Y298850D01*
X218030Y299267D01*
X219115Y300516D01*
X219890Y302392D01*
X220200Y304267D01*
Y306558D01*
X219890Y308433D01*
X219115Y310100D01*
X218185Y310933D01*
X217100Y311350D01*
X215860Y310933D01*
X214930Y310100D01*
X214310Y308850D01*
X214000Y307183D01*
X214310Y305725D01*
X215085Y304267D01*
X216015Y303433D01*
X217100Y303225D01*
X218340Y303641D01*
X219270Y304683D01*
X220200Y306558D01*
G01X226555Y309267D02*
X227485Y310516D01*
X228570Y311142D01*
X229810Y311350D01*
X231360Y310933D01*
X232445Y309892D01*
X232755Y308642D01*
X232600Y307391D01*
X231980Y306350D01*
X228880Y304267D01*
X227485Y302808D01*
X226555Y300725D01*
X226245Y298850D01*
X232755D01*
G01X243760D02*
Y311350D01*
X238025Y302392D01*
X245775D01*
G01X254300Y298433D02*
X253990Y298642D01*
Y299058D01*
X254300Y299267D01*
X254610Y299058D01*
Y298642D01*
X254300Y298433D01*
G01X263755Y304058D02*
X264840Y305517D01*
X265770Y306350D01*
X267010Y306767D01*
X268095Y306350D01*
X268870Y305517D01*
X269490Y304267D01*
X269645Y302808D01*
X269490Y301558D01*
X268870Y300308D01*
X267940Y299267D01*
X266855Y298850D01*
X265615Y299267D01*
X264530Y300516D01*
X263910Y302392D01*
X263755Y304475D01*
X264065Y307183D01*
X264530Y308642D01*
X265305Y310100D01*
X266390Y311142D01*
X267475Y311350D01*
X268560Y310933D01*
X269335Y309892D01*
G01X276155Y309267D02*
X277085Y310516D01*
X278170Y311142D01*
X279410Y311350D01*
X280960Y310933D01*
X282045Y309892D01*
X282355Y308642D01*
X282200Y307391D01*
X281580Y306350D01*
X278480Y304267D01*
X277085Y302808D01*
X276155Y300725D01*
X275845Y298850D01*
X282355D01*
G01X209851Y42837D02*
Y29217D01*
G01X359457Y42837D02*
X209851D01*
G01X304100Y298850D02*
X299450D01*
Y311350D01*
X304100D01*
G01X313400Y298850D02*
Y311350D01*
X311540Y308850D01*
G01Y298850D02*
X315260D01*
G01X322390Y300725D02*
X323320Y299683D01*
X324405Y299058D01*
X325800Y298850D01*
X327195Y299267D01*
X328280Y300100D01*
X329055Y301558D01*
X329210Y303225D01*
X328900Y304892D01*
X328125Y305933D01*
X327040Y306767D01*
X325955Y306975D01*
X324870Y306767D01*
X323475Y305933D01*
X323940Y311350D01*
X328125D01*
G01X338200D02*
X336960Y310933D01*
X336030Y309892D01*
X335410Y308642D01*
X334945Y306975D01*
X334790Y305100D01*
X334945Y303225D01*
X335410Y301558D01*
X336030Y300308D01*
X336960Y299267D01*
X338200Y298850D01*
X339440Y299267D01*
X340370Y300308D01*
X340990Y301558D01*
X341455Y303225D01*
X341610Y305100D01*
X341455Y306975D01*
X340990Y308642D01*
X340370Y309892D01*
X339440Y310933D01*
X338200Y311350D01*
G01X350600Y298433D02*
X350290Y298642D01*
Y299058D01*
X350600Y299267D01*
X350910Y299058D01*
Y298642D01*
X350600Y298433D01*
G01X364860Y298850D02*
Y311350D01*
X359125Y302392D01*
X366875D01*
G01X372765Y300308D02*
X373850Y299267D01*
X375090Y298850D01*
X376330Y299267D01*
X377415Y300516D01*
X378190Y302392D01*
X378500Y304267D01*
Y306558D01*
X378190Y308433D01*
X377415Y310100D01*
X376485Y310933D01*
X375400Y311350D01*
X374160Y310933D01*
X373230Y310100D01*
X372610Y308850D01*
X372300Y307183D01*
X372610Y305725D01*
X373385Y304267D01*
X374315Y303433D01*
X375400Y303225D01*
X376640Y303641D01*
X377570Y304683D01*
X378500Y306558D01*
G01X373510Y11340D02*
G03X359457Y29217I-16678J1352D01*
G01D02*
Y42837D01*
G01X373510Y11340D02*
X484512D01*
G01X384700Y298850D02*
X389350D01*
Y311350D01*
X384700D01*
G01X398725Y305100D02*
X604812D01*
G01X517903Y13481D02*
G03X484512Y11340I-16714J-789D01*
G01X509067Y270913D02*
G03X528752Y251228I19685J0D01*
G01X509067Y282724D02*
Y270913D01*
G01Y282724D02*
G03X505130Y286661I-3937J0D01*
G01X517867Y11340D02*
X536702D01*
G01X517901Y13481D02*
X517867Y11340D01*
G01X536702D02*
Y72364D01*
G01D02*
X581190D01*
G01X562214Y251228D02*
X528752D01*
G01X604812Y164803D02*
X562214D01*
G01D02*
Y251228D01*
G01X581190Y125514D02*
Y72364D01*
G01X604812Y125514D02*
X581190D01*
G01X589812Y302600D02*
X604812Y305100D01*
X589812Y307600D01*
Y302600D01*
G01X604812Y125514D02*
Y164803D01*
G01Y174803D02*
Y315100D01*
G54D16*
X291300Y267600D03*
Y276500D03*
X341700Y267600D03*
Y276500D03*
G54D17*
X351500Y87500D03*
X352000Y92000D03*
X349500Y90000D03*
X354000Y89500D03*
X375487Y92661D03*
Y87661D03*
X373862Y90161D03*
X377862D03*
G54D18*
X364200Y270500D03*
X387800D03*
G54D19*
X449538Y107624D03*
X454460Y107620D03*
M02*
