G04 ================== begin FILE IDENTIFICATION RECORD ==================*
G04 Layout Name:  F:/work/Eileen/hmd/002/hmd-C-119-2015pm13.brd*
G04 Film Name:    hmd_c_L10*
G04 File Format:  Gerber RS274X*
G04 File Origin:  Cadence Allegro 16.3-S053*
G04 Origin Date:  Mon Jan 19 12:35:49 2015*
G04 *
G04 Layer:  VIA CLASS/L10*
G04 Layer:  PIN/L10*
G04 Layer:  ETCH/L10*
G04 Layer:  BOARD GEOMETRY/OUTLINE*
G04 *
G04 Offset:    (0.00 0.00)*
G04 Mirror:    No*
G04 Mode:      Positive*
G04 Rotation:  0*
G04 FullContactRelief:  No*
G04 UndefLineWidth:     5.00*
G04 ================== end FILE IDENTIFICATION RECORD ====================*
%FSLAX55Y55*MOIN*%
%IR0*IPPOS*OFA0.00000B0.00000*MIA0B0*SFA1.00000B1.00000*%
%ADD10C,.02*%
%ADD23C,.03*%
%ADD18C,.04*%
%ADD15C,.022*%
%ADD17C,.026*%
%ADD13C,.018*%
%ADD11C,.028*%
%ADD20C,.065*%
%ADD12C,.056*%
%ADD16C,.057*%
%ADD21R,.065X.065*%
%AMMACRO19*
21,1,.034,.014,0.0,0.0,179.96*
1,1,.034,.000005,.007*
1,1,.034,-.000005,-.007*%
%ADD19MACRO19*%
%ADD14C,.16*%
%ADD22O,.034X.048*%
%ADD24C,.015*%
%ADD25C,.004*%
%ADD26C,.005*%
%ADD27C,.0045*%
%ADD29C,.02704*%
%ADD30C,.03704*%
%ADD28C,.02904*%
%ADD31R,.13504X.10504*%
%ADD32R,.08504X.08504*%
G75*
%LPD*%
G75*
G36*
G01X37000Y35000D02*
X45498Y43498D01*
X56002D01*
Y46000D01*
X92144D01*
X144638Y76776D01*
X145000Y77000D01*
X286500D01*
X288500Y75000D01*
Y63500D01*
X291000Y61000D01*
X299000D01*
X308000Y52000D01*
X313136D01*
G02X313454Y51356I1J-400D01*
G03X314029Y49233I1046J-856D01*
G03X315565Y49667I471J1267D01*
G02X316162Y49703I314J-247D01*
G01X316195Y49670D01*
X316233Y49633D01*
X316234Y49632D01*
G03X316895Y49291I866J868D01*
G03X318546Y51356I605J1209D01*
G02X318864Y52000I317J244D01*
G01X325136D01*
G02X325459Y51363I1J-400D01*
G03X325919Y49279I1041J-863D01*
G01X325951Y49264D01*
X326088Y49127D01*
Y48283D01*
X328083Y46288D01*
X333417D01*
X339129Y52000D01*
X385000D01*
X386000Y51000D01*
Y14500D01*
X385000Y13500D01*
X375700D01*
Y15500D01*
X374900Y18800D01*
X372700Y23100D01*
X370700Y25600D01*
X367800Y28200D01*
X364600Y30000D01*
X361500Y31000D01*
Y44500D01*
X361099Y44901D01*
X208901D01*
X208900Y44900D01*
X208300D01*
X207800Y44400D01*
Y31000D01*
X205400Y30300D01*
X201400Y28100D01*
X198800Y25800D01*
X196600Y23100D01*
X195200Y20300D01*
X194000Y16900D01*
X193527Y13400D01*
X87100D01*
X86500Y17200D01*
X85100Y21400D01*
X82000Y26000D01*
X77700Y29400D01*
X72900Y31200D01*
X69000Y31800D01*
X64300Y31300D01*
X61000Y30300D01*
X57700Y28600D01*
X53400Y24900D01*
X50900Y20600D01*
X49900Y17800D01*
X49400Y15700D01*
X49144Y13400D01*
X25600D01*
X24000Y15000D01*
X21556Y34550D01*
G02X21953Y35000I397J50D01*
G01X37000D01*
G37*
G36*
G01X127844Y83000D02*
X127810Y83158D01*
G03X125233Y84451I-1810J-393D01*
G01X125107Y84393D01*
X124078Y85422D01*
G02X124119Y86024I282J283D01*
G03X121524Y88619I-1119J1476D01*
G02X120922Y88578I-319J241D01*
G01X114578Y94922D01*
G02X114619Y95524I282J283D01*
G03X114881Y98234I-1119J1476D01*
G02Y98766I299J266D01*
G03X112491Y101553I-1381J1234D01*
G02X111958Y101642I-218J335D01*
G03X111666Y101939I-1458J-1142D01*
G02Y102561I251J311D01*
G03X109334I-1166J1439D01*
G02Y101939I-251J-311D01*
G03X108864Y101368I1166J-1439D01*
G02X108228Y101272I-353J187D01*
G01X105755Y103745D01*
G02X105922Y104411I283J283D01*
G03X104111Y106222I-422J1389D01*
G02X103445Y106055I-383J116D01*
G01X102000Y107500D01*
X91869D01*
X91815Y107615D01*
G03X89185I-1315J-615D01*
G01X89131Y107500D01*
X75000D01*
X72214Y110286D01*
X72254Y110404D01*
G03X69904Y112754I-1754J596D01*
G01X69786Y112714D01*
X61559Y120941D01*
G02X61552Y121499I283J283D01*
G03X59499Y123552I-1052J1001D01*
G02X58941Y123559I-275J290D01*
G01X50186Y132314D01*
X50239Y132437D01*
G03X48337Y134339I-1339J563D01*
G01X48214Y134286D01*
X46874Y135626D01*
G02X46972Y136263I283J282D01*
G03X45013Y138222I-672J1287D01*
G02X44376Y138124I-355J185D01*
G01X41500Y141000D01*
Y147400D01*
X43998Y149898D01*
X48778D01*
X48828Y149848D01*
X50528D01*
X51098Y149278D01*
Y147578D01*
X52678Y145998D01*
X56822D01*
X59102Y148278D01*
Y151500D01*
X66211D01*
X66259Y151368D01*
G03X69741I1741J632D01*
G01X69789Y151500D01*
X104148D01*
G02X104548Y151105I0J-400D01*
G03X107142Y150224I1452J16D01*
G02X107740Y150260I315J-246D01*
G01X126011Y131989D01*
X125988Y131883D01*
G03X128183Y129688I1812J-383D01*
G01X128289Y129711D01*
X139000Y119000D01*
X162438D01*
X162492Y118887D01*
G03X165108I1308J631D01*
G01X165162Y119000D01*
X188010D01*
G02X188319Y118346I0J-400D01*
G03X191177I1429J-1178D01*
G02X191486Y119000I309J254D01*
G01X261500D01*
X281250Y99250D01*
Y83000D01*
X242490D01*
G02X242168Y83638I0J400D01*
G03X239832I-1168J862D01*
G02X239510Y83000I-322J-238D01*
G01X201671D01*
G02X201285Y83507I-1J400D01*
G03X197855Y84851I-1785J493D01*
G02X197145I-355J184D01*
G03X194061Y85166I-1645J-851D01*
G02X193439I-311J251D01*
G03X192851Y85645I-1439J-1166D01*
G02Y86355I184J355D01*
G03X190151Y88101I-851J1645D01*
G02X189618Y87746I-399J22D01*
G03X188178Y87660I-618J-1746D01*
G02X187601Y88032I-177J358D01*
G03X186664Y86792I-1351J47D01*
G02X187179Y86338I122J-381D01*
G03X189618Y84254I1821J-338D01*
G02X190151Y83899I134J-377D01*
G03X190215Y83507I1849J101D01*
G02X189829Y83000I-385J-107D01*
G01X177490D01*
G02X177168Y83638I0J400D01*
G03X174832I-1168J862D01*
G02X174510Y83000I-322J-238D01*
G01X153749D01*
G02X153350Y83423I0J400D01*
G03X150650I-1350J77D01*
G02X150251Y83000I-399J-23D01*
G01X142869D01*
X142815Y83115D01*
G03X140185I-1315J-615D01*
G01X140131Y83000D01*
X127844D01*
G37*
G36*
G01X51546Y161554D02*
X51548Y161473D01*
G03X51636Y161003I1452J29D01*
G03X51938Y160510I1364J497D01*
G02Y159990I-304J-260D01*
G03X52685Y157583I1062J-990D01*
G02X52897Y156945I-100J-387D01*
G03X54315Y157417I1102J-945D01*
G02X54103Y158055I100J387D01*
G03X54135Y158094I-1107J941D01*
G03X54215Y158204I-1133J908D01*
G02X54832Y158268I335J-219D01*
G01X57600Y155500D01*
Y148900D01*
X56200Y147500D01*
X53300D01*
X52600Y148200D01*
Y149900D01*
X51000Y151500D01*
X40500D01*
X34128Y157872D01*
X34217Y158008D01*
G03X33994Y159858I-1217J792D01*
G02Y160442I274J292D01*
G03X34071Y162480I-994J1058D01*
G02Y163020I295J270D01*
G03Y164980I-1071J980D01*
G02Y165520I295J270D01*
G03X33615Y167815I-1071J980D01*
G01X33500Y167869D01*
Y168547D01*
G03X33700Y170417I-1000J1053D01*
G01Y171683D01*
G03Y173317I-1200J817D01*
G01Y201700D01*
X35273Y203273D01*
X35328Y203286D01*
G03X36414Y204372I-328J1414D01*
G01X36427Y204427D01*
X37200Y205200D01*
X45400D01*
X46800Y203800D01*
Y202327D01*
X46535Y202062D01*
X46497Y202047D01*
G03X45817Y201447I503J-1255D01*
G03X45660Y200610I1183J-655D01*
G02X45204Y200161I-396J-54D01*
G03X44213Y199923I-203J-1337D01*
G03X44956Y197473I787J-1099D01*
G02X45150Y197273I-6J-200D01*
G01Y192929D01*
X45021Y192880D01*
G03X44194Y191965I479J-1264D01*
G03X44890Y190409I1306J-349D01*
G01X45000Y190353D01*
Y189879D01*
X44890Y189823D01*
G03Y187409I610J-1207D01*
G01X45000Y187353D01*
Y174763D01*
X44890Y174707D01*
G03Y172293I610J-1207D01*
G01X45000Y172237D01*
Y171763D01*
X44890Y171707D01*
G03Y169293I610J-1207D01*
G01X45000Y169237D01*
Y168100D01*
X51546Y161554D01*
G37*
G36*
G01X59418Y244755D02*
Y234045D01*
G02Y244755I-8818J5355D01*
G37*
G36*
G01X105817Y92400D02*
G02I-10317J0D01*
G37*
G36*
G01X179896Y203007D02*
X178821Y201933D01*
G03X177512Y201452I-255J-1328D01*
G01X176471D01*
G03X174361I-1055J-846D01*
G01X173157D01*
X172749Y201860D01*
G02X172855Y202502I283J283D01*
G03X171046Y204311I-596J1213D01*
G02X170404Y204205I-359J177D01*
G01X157787Y216822D01*
X157771Y216860D01*
G03X156950Y217639I-1256J-501D01*
G01X156905Y217654D01*
X156844Y217715D01*
X152177D01*
X150480Y219412D01*
Y221109D01*
X150819Y221447D01*
X150845Y221461D01*
G03X151412Y222028I-630J1197D01*
G01X151426Y222054D01*
X151683Y222311D01*
X152052D01*
X152100Y222181D01*
G03X154632I1266J476D01*
G01X154680Y222311D01*
X155238D01*
X155288Y222185D01*
G03X156043Y221427I1257J497D01*
G01X156081Y221411D01*
X165529Y211964D01*
X166132D01*
X169431Y208664D01*
X175088D01*
X179896Y203856D01*
Y203007D01*
G37*
G36*
G01X279271Y172000D02*
G02X278980Y172674I0J400D01*
G03X276658Y173795I-984J928D01*
G01X276648Y173729D01*
X276460Y173540D01*
X276181Y173819D01*
X276169Y173878D01*
G03X275121Y174926I-1324J-276D01*
G01X275062Y174938D01*
X274784Y175216D01*
X274973Y175404D01*
X275039Y175414D01*
G03X273508Y176945I-193J1338D01*
G01X273498Y176879D01*
X273310Y176690D01*
X273032Y176968D01*
X273020Y177027D01*
G03X271972Y178075I-1324J-276D01*
G01X271913Y178087D01*
X271634Y178366D01*
X271823Y178554D01*
X271889Y178564D01*
G03X270358Y180095I-193J1338D01*
G01X270348Y180029D01*
X270160Y179840D01*
X269881Y180119D01*
X269868Y180178D01*
G03X268822Y181224I-1323J-277D01*
G01X268763Y181237D01*
X268485Y181515D01*
X268673Y181703D01*
X268739Y181713D01*
G03X267279Y183522I-193J1338D01*
G02X266621Y183379I-375J140D01*
G01X265723Y184277D01*
G02X265867Y184935I283J283D01*
G03X264058Y186395I-471J1267D01*
G01X264048Y186329D01*
X263860Y186140D01*
X263581Y186419D01*
X263569Y186478D01*
G03X262747Y187457I-1323J-277D01*
G01X262709Y187473D01*
X261209Y188972D01*
X261028D01*
X260432Y189568D01*
X260420Y189627D01*
G03X257779Y189655I-1324J-276D01*
G01X257743Y189500D01*
X257298D01*
X257263Y189655D01*
G03X255096Y190404I-1318J-303D01*
G01X252000Y193500D01*
Y193944D01*
G02X252490Y194334I400J0D01*
G03Y196968I305J1317D01*
G02X252000Y197358I-90J390D01*
G01Y197569D01*
X252240D01*
X252277Y197554D01*
G03X252490Y200119I519J1248D01*
G02X252000Y200509I-90J390D01*
G01Y200719D01*
X252240D01*
X252277Y200703D01*
G03X252490Y203269I518J1249D01*
G02X252000Y203659I-90J390D01*
G01Y206544D01*
G02X252490Y206934I400J0D01*
G03Y209568I306J1317D01*
G02X252000Y209958I-90J390D01*
G01Y210169D01*
X252240D01*
X252277Y210153D01*
G03X252490Y212719I518J1249D01*
G02X252000Y213109I-90J390D01*
G01Y213312D01*
X252240D01*
X252276Y213297D01*
G03X252489Y215865I515J1250D01*
G02X252000Y216255I-89J390D01*
G01Y216469D01*
X252240D01*
X252277Y216453D01*
G03X252490Y219019I518J1249D01*
G02X252000Y219409I-90J390D01*
G01Y222294D01*
G02X252490Y222684I400J0D01*
G03X253849Y224849I306J1317D01*
G01X254500Y225500D01*
X255096D01*
X255205Y225133D01*
G03X256998Y224849I740J-1132D01*
G02X257309Y225500I311J251D01*
G01X257730D01*
G02X258041Y224848I0J-400D01*
G03X260141I1050J-851D01*
G02X260452Y225500I311J252D01*
G01X264500D01*
X265000Y225000D01*
Y224500D01*
X264500Y224000D01*
Y221863D01*
G03Y219839I896J-1012D01*
G01Y218714D01*
G03Y216680I891J-1017D01*
G01Y215565D01*
G03Y213539I895J-1013D01*
G01Y212414D01*
G03Y210390I896J-1012D01*
G01Y209264D01*
G03Y207240I896J-1012D01*
G01Y202964D01*
G03X266037Y200762I897J-1011D01*
G01X266168Y200832D01*
X267426Y199574D01*
X267356Y199443D01*
G03X269187Y197612I1190J-641D01*
G01X269318Y197682D01*
X270576Y196424D01*
X270506Y196293D01*
G03X272404Y194500I1190J-641D01*
G01X274137D01*
G03X275555I709J1151D01*
G01X277288D01*
G03X278704I708J1152D01*
G01X280437D01*
G03X281855I709J1151D01*
G01X313354D01*
X313392Y194349D01*
G03X316014I1311J330D01*
G01X316052Y194500D01*
X316505D01*
X316543Y194349D01*
G03X319165I1311J330D01*
G01X319203Y194500D01*
X319654D01*
X319692Y194349D01*
G03X322314I1311J330D01*
G01X322352Y194500D01*
X328025D01*
X328063Y194484D01*
G03X329139I538J1240D01*
G01X329177Y194500D01*
X331700D01*
X333730Y196530D01*
X333800Y196538D01*
G03X335000Y197738I-144J1344D01*
G01X335008Y197808D01*
X337946Y200746D01*
G02X338611Y200581I283J-283D01*
G03X340300Y202270I1293J396D01*
G02X340135Y202935I118J382D01*
G01X343800Y206600D01*
X346100D01*
X349600Y203100D01*
Y178600D01*
X343100Y172100D01*
X291600D01*
X291500Y172000D01*
X282175D01*
X282150Y172007D01*
G03X281893Y172051I-356J-1305D01*
G02X281809Y172424I14J199D01*
G03X280161Y172674I-664J1178D01*
G02X279870Y172000I-291J-274D01*
G01X279271D01*
G37*
G36*
G01X335600Y84400D02*
X334600Y85400D01*
Y118600D01*
X373903Y157903D01*
G02X374586Y157600I283J-282D01*
G03X375868Y158882I1350J-68D01*
G02X375565Y159565I-21J400D01*
G01X400000Y184000D01*
X406600D01*
X407359Y184759D01*
X407500Y184632D01*
G03X408749Y186943I906J1003D01*
G01X408600Y186982D01*
Y201700D01*
X405800Y204500D01*
X374000D01*
X372897Y203397D01*
G02X372246Y203525I-282J283D01*
G03X369650Y203077I-1246J-525D01*
G02X369251Y202700I-399J23D01*
G01X368500D01*
X367726Y203474D01*
Y208026D01*
X375000Y215300D01*
X375651D01*
G02X376050Y214922I0J-400D01*
G03X378950I1450J78D01*
G02X379349Y215300I399J-22D01*
G01X391154D01*
G02X391465Y214648I0J-400D01*
G03X393875I1205J-978D01*
G02X394186Y215300I311J252D01*
G01X397174D01*
G02X397485Y214648I0J-400D01*
G03X399895I1205J-978D01*
G02X400206Y215300I311J252D01*
G01X403194D01*
G02X403505Y214648I0J-400D01*
G03X405915I1205J-978D01*
G02X406226Y215300I311J252D01*
G01X409214D01*
G02X409525Y214648I0J-400D01*
G03X411935I1205J-978D01*
G02X412246Y215300I311J252D01*
G01X441800D01*
X446489Y210611D01*
G02X446269Y209934I-283J-282D01*
G03X446970Y207126I232J-1434D01*
G02X447500Y206748I130J-378D01*
G01Y147010D01*
X447496Y147006D01*
Y142300D01*
X446774Y141577D01*
Y141575D01*
X442926Y137728D01*
X440068D01*
X440031Y137744D01*
G03X439412Y135151I-530J-1244D01*
G02X439669Y134469I-26J-399D01*
G01X439600Y134400D01*
X449580Y124420D01*
X449553Y124310D01*
G03X451310Y122553I1410J-347D01*
G01X451420Y122580D01*
X459500Y114500D01*
X461000D01*
X462000Y113500D01*
Y106776D01*
X461889Y106721D01*
G03Y104299I601J-1211D01*
G01X462000Y104244D01*
Y94662D01*
X461996Y94643D01*
G03Y90157I11604J-2243D01*
G01X462000Y90138D01*
Y87000D01*
X459400Y84400D01*
X369430D01*
G03X367044I-1193J-637D01*
G01X360782D01*
G03X357544I-1619J-900D01*
G01X354961D01*
X354949Y84588D01*
G03X352324Y85352I-1449J-88D01*
G02X351676I-324J234D01*
G03X351609Y85437I-1173J-856D01*
G02X351735Y85764I153J129D01*
G03X353249Y87400I-235J1736D01*
G02X353714Y87772I400J-23D01*
G03X354100Y91249I286J1728D01*
G02X353728Y91714I23J400D01*
G03X350251Y92100I-1728J286D01*
G02X349786Y91728I-400J23D01*
G03X349400Y88251I-286J-1728D01*
G02X349772Y87786I-23J-400D01*
G03X350100Y86447I1728J-286D01*
G02X349936Y85838I-320J-240D01*
G03X349051Y84588I564J-1338D01*
G01X349039Y84400D01*
X335600D01*
G37*
G36*
G01X431484Y56144D02*
X444000Y48441D01*
Y13404D01*
X388000D01*
Y53157D01*
X390989Y57000D01*
X402535D01*
X409202Y67000D01*
X413111D01*
X431484Y56144D01*
G37*
G36*
G01X482200Y13401D02*
X447599D01*
X446000Y15000D01*
Y63500D01*
X448500Y66000D01*
X497000D01*
X505000Y74000D01*
X524000D01*
X546000Y96000D01*
Y135500D01*
X547500Y137000D01*
X565000D01*
X567000Y139000D01*
Y152000D01*
X568000Y153000D01*
X572000D01*
X574000Y155000D01*
Y161400D01*
X575400Y162800D01*
X602200D01*
X602800Y162200D01*
Y128400D01*
X602000Y127600D01*
X579700D01*
X579200Y127100D01*
Y75100D01*
X578500Y74400D01*
X535300D01*
X534599Y73699D01*
Y13401D01*
X520385D01*
X519100Y19000D01*
X517200Y23000D01*
X514800Y26000D01*
X511700Y28500D01*
X508700Y30200D01*
X505800Y31100D01*
X501800Y31700D01*
X498200Y31400D01*
X494100Y30400D01*
X489800Y27900D01*
X486800Y25200D01*
X484100Y21000D01*
X482500Y16100D01*
X482200Y13401D01*
G37*
G36*
G01X483917Y92400D02*
G02I-10317J0D01*
G37*
G36*
G01X529217Y239500D02*
G02I-10317J0D01*
G37*
G36*
G01X560199Y167000D02*
X554000D01*
X549000Y172000D01*
Y205000D01*
X531000Y223000D01*
Y249199D01*
X560199D01*
Y167000D01*
G37*
%LPC*%
G75*
G36*
G01X59237Y37045D02*
G03X59694Y36817I366J162D01*
G02X59797Y34163I306J-1317D01*
G03X59340Y33821I-61J-395D01*
G02X57053Y34965I-1340J179D01*
G03Y35535I-281J285D01*
G02X59237Y37045I947J965D01*
G37*
G36*
G01X241250Y65434D02*
G02Y62566I1250J-1434D01*
G02Y65434I-1250J1434D01*
G37*
G36*
G01X265000Y65934D02*
G02Y63066I1250J-1434D01*
G02Y65934I-1250J1434D01*
G37*
G36*
G01X229785Y63053D02*
G03X229215I-285J-281D01*
G02Y64947I-965J947D01*
G03X229785I285J281D01*
G02Y63053I965J-947D01*
G37*
G36*
G01X253285D02*
G03X252715I-285J-281D01*
G02Y64947I-965J947D01*
G03X253285I285J281D01*
G02Y63053I965J-947D01*
G37*
G36*
G01X288535Y54447D02*
G02Y52553I965J-947D01*
G03X287965I-285J-281D01*
G02Y54447I-965J947D01*
G03X288535I285J281D01*
G37*
G36*
G01X159207Y111216D02*
X138800D01*
G02Y114720I0J1752D01*
G01X160657D01*
X165438Y109938D01*
G02X162962Y107462I-1238J-1238D01*
G01X159207Y111216D01*
G37*
G36*
G01X116002Y122453D02*
G03X115398I-302J-262D01*
G02Y124883I-1398J1215D01*
G03X116002I302J262D01*
G02X118716Y124971I1398J-1215D01*
G03X119284I284J282D01*
G02Y122365I1316J-1303D01*
G03X118716I-284J-282D01*
G02X116002Y122453I-1316J1303D01*
G37*
G36*
G01X108166Y115061D02*
G03Y114439I251J-311D01*
G02X105834I-1166J-1439D01*
G03Y115061I-251J311D01*
G02Y117939I1166J1439D01*
G03Y118561I-251J311D01*
G02X108166I1166J1439D01*
G03Y117939I251J-311D01*
G02Y115061I-1166J-1439D01*
G37*
G36*
G01X242110Y108667D02*
G03X241905Y109222I-355J184D01*
G02X243738Y109901I544J1346D01*
G03X243943Y109346I355J-184D01*
G02X242110Y108667I-544J-1346D01*
G37*
G36*
G01X236449Y98239D02*
G03X236039Y98649I-400J10D01*
G02Y101752I-39J1552D01*
G03X236448Y102161I9J400D01*
G02X239551I1552J39D01*
G03X239961Y101751I400J-10D01*
G02X239962Y98647I39J-1552D01*
G03X239553Y98238I-9J-400D01*
G02X236449Y98239I-1552J-37D01*
G37*
G36*
G01X161313Y98648D02*
G03X160904Y98239I-9J-400D01*
G02X157800I-1552J-39D01*
G03X157391Y98648I-400J9D01*
G02Y101752I-39J1552D01*
G03X157800Y102161I9J400D01*
G02X160904I1552J39D01*
G03X161313Y101752I400J-9D01*
G02Y98648I39J-1552D01*
G37*
G36*
G01X191118Y95712D02*
G03X190595Y95558I-179J-357D01*
G02X187619Y97734I-1594J942D01*
G03Y98266I-299J266D01*
G02Y100734I1381J1234D01*
G03Y101266I-299J266D01*
G02X190847Y102642I1381J1234D01*
G03X191388Y102298I399J30D01*
G02X193309Y99211I660J-1730D01*
G03X193291Y98643I272J-293D01*
G02X191118Y95712I-1343J-1275D01*
G37*
G36*
G01X271866Y95973D02*
G03X271848Y95387I263J-301D01*
G02X268761Y93583I-1300J-1319D01*
G03X268281Y93867I-386J-105D01*
G02X266633Y97066I-433J1801D01*
G03Y97670I-262J302D01*
G02X268454Y100818I1215J1398D01*
G03X268969Y101084I131J378D01*
G02X272009Y99211I1779J-516D01*
G03X271991Y98643I272J-293D01*
G02X271866Y95973I-1343J-1275D01*
G37*
G36*
G01X180561Y88334D02*
G03X179939I-311J-251D01*
G02X177334Y90939I-1439J1166D01*
G03Y91561I-251J311D01*
G02X179939Y94166I1166J1439D01*
G03X180561I311J251D01*
G02X183166Y91561I1439J-1166D01*
G03Y90939I251J-311D01*
G02X180561Y88334I-1166J-1439D01*
G37*
G36*
G01X105176Y139648D02*
G02Y141352I-1176J852D01*
G03X105824I324J234D01*
G02Y139648I1176J-852D01*
G03X105176I-324J-234D01*
G37*
G36*
G01X51443Y138789D02*
G02X50512Y137696I407J-1289D01*
G03X49983Y138131I-396J58D01*
G02X50929Y139242I-483J1369D01*
G03X51443Y138789I394J-72D01*
G37*
G36*
G01X184352Y102676D02*
G02X182648I-852J-1176D01*
G03Y103324I-234J324D01*
G02Y105676I852J1176D01*
G03Y106324I-234J324D01*
G02X184352I852J1176D01*
G03Y105676I234J-324D01*
G02Y103324I-852J-1176D01*
G03Y102676I234J-324D01*
G37*
G36*
G01X261469Y90627D02*
G02X258460Y90529I-1469J-1127D01*
G03X258105Y91151I-332J223D01*
G02X256766Y91619I-105J1849D01*
G03X256234I-266J-299D01*
G02Y94381I-1234J1381D01*
G03X256766I266J299D01*
G02X259298Y94322I1235J-1381D01*
G03X259866Y94330I280J285D01*
G02X261682Y91257I1334J-1285D01*
G03X261469Y90627I104J-386D01*
G37*
G36*
G01X379775Y210242D02*
G03X379814Y210824I-254J309D01*
G02X381797Y210688I1064J988D01*
G03X381758Y210106I254J-309D01*
G02X379775Y210242I-1064J-988D01*
G37*
G36*
G01X419300Y182318D02*
G03X419286Y182885I-289J277D01*
G02X421508Y183156I999J1053D01*
G03X421631Y182603I337J-215D01*
G02X419300Y182318I-992J-1564D01*
G37*
G36*
G01X417977Y171532D02*
G03X417421Y171357I-196J-348D01*
G02X416825Y173254I-1308J631D01*
G03X417381Y173429I196J348D01*
G02X417977Y171532I1308J-631D01*
G37*
G36*
G01X394909Y170804D02*
G03X395235Y170416I400J5D01*
G02X393634Y169069I-249J-1329D01*
G03X393308Y169457I-400J-5D01*
G02X394909Y170804I249J1329D01*
G37*
G36*
G01X415735Y137964D02*
G02X413570I-1083J1112D01*
G02X411404I-1083J1112D01*
G02X409240Y137965I-1081J1113D01*
G02X407076I-1082J1112D01*
G02X404881Y140160I-1083J1112D01*
G02Y142324I1112J1082D01*
G02X404880Y144489I1112J1083D01*
G02X404881Y146654I1113J1082D01*
G02Y148819I1112J1083D01*
G02Y150984I1112J1083D01*
G02Y153150I1112J1083D01*
G02Y155314I1112J1082D01*
G02X407076Y157509I1112J1083D01*
G02X409240I1082J-1112D01*
G02X411406I1083J-1112D01*
G02X413570Y157508I1081J-1113D01*
G02X415735I1082J-1112D01*
G02X417900I1083J-1112D01*
G02X420064Y157509I1083J-1112D01*
G02X422230I1083J-1112D01*
G02X424424Y155314I1082J-1112D01*
G02Y153150I-1112J-1082D01*
G02Y150984I-1112J-1083D01*
G02Y148819I-1112J-1082D01*
G02Y146654I-1112J-1083D01*
G02X424425Y144490I-1112J-1083D01*
G02Y142324I-1112J-1083D01*
G02X424424Y140160I-1113J-1081D01*
G02X422230Y137965I-1112J-1083D01*
G02X420066Y137964I-1083J1112D01*
G02X417900I-1083J1112D01*
G02X415735I-1082J1112D01*
G37*
G36*
G01X439940Y125293D02*
G03X440372Y124946I397J52D01*
G02X439060Y123314I128J-1446D01*
G03X438628Y123661I-397J-52D01*
G02X439940Y125293I-128J1446D01*
G37*
G36*
G01X454462Y111021D02*
G02X457162Y108318I-1J-2701D01*
G01X457161Y106918D01*
G02X454460Y104219I-2701J2D01*
G01X454458D01*
G02X452315Y105278I2J2701D01*
G03X451680I-317J-243D01*
G02X449538Y104223I-2142J1646D01*
G01X449536D01*
G02X446836Y106926I1J2701D01*
G01X446837Y108326D01*
G02X449538Y111025I2701J-2D01*
G01X449540D01*
G02X451683Y109966I-2J-2701D01*
G03X452318I318J243D01*
G02X454460Y111021I2142J-1646D01*
G01X454462D01*
G37*
G36*
G01X373766Y87990D02*
G03X373464Y88455I-393J75D01*
G02Y91867I398J1706D01*
G03X373766Y92332I-91J390D01*
G02X377214Y92365I1721J329D01*
G03X377655Y91901I394J-67D01*
G02Y88421I207J-1740D01*
G03X377214Y87957I-47J-397D01*
G02X373766Y87990I-1727J-296D01*
G37*
G36*
G01X427777Y192143D02*
G02X426610Y193370I-1347J-113D01*
G03X427060Y193817I53J397D01*
G02X427956Y195346I1440J183D01*
G03X428079Y196010I-149J371D01*
G02X429550Y195765I921J990D01*
G03X429451Y195097I163J-365D01*
G02X428246Y192570I-951J-1097D01*
G03X427777Y192143I-70J-394D01*
G37*
G36*
G01X439077Y184522D02*
G02X437738Y182559I2703J-3282D01*
G03X437280Y183075I-380J124D01*
G02X438429Y184759I-280J1425D01*
G03X439077Y184522I393J72D01*
G37*
G36*
G01X430927Y162936D02*
G02X429795Y161983I163J-1342D01*
G03X429350Y162493I-383J115D01*
G02X430499Y163461I-226J1434D01*
G03X430927Y162936I379J-128D01*
G37*
G36*
G01X378352Y127280D02*
G02X377577Y128484I-1352J-19D01*
G03X378148Y128851I171J361D01*
G02X378923Y127647I1352J19D01*
G03X378352Y127280I-171J-361D01*
G37*
G36*
G01X446078Y116800D02*
G02X444880Y116054I72J-1450D01*
G03X444524Y116648I-350J194D01*
G02X445703Y117382I-24J1352D01*
G03X446078Y116800I356J-183D01*
G37*
G36*
G01X364134Y113743D02*
G02X362976Y112896I166J-1443D01*
G03X362566Y113457I-365J164D01*
G02X363724Y114304I-166J1443D01*
G03X364134Y113743I365J-164D01*
G37*
G36*
G01X398658Y109801D02*
G02Y111199I-1158J699D01*
G03X399342I342J206D01*
G02Y109801I1158J-699D01*
G03X398658I-342J-206D01*
G37*
G36*
G01X443704Y102889D02*
G02X443648Y104589I-1204J811D01*
G03X444296Y104611I316J245D01*
G02X444352Y102911I1204J-811D01*
G03X443704Y102889I-316J-245D01*
G37*
G36*
G01X390854Y101024D02*
G02X388150Y99966I-1354J-524D01*
G03X387610Y100182I-372J-147D01*
G02X385575Y101780I-610J1318D01*
G03X385143Y102255I-392J77D01*
G02X386425Y103420I-143J1445D01*
G03X386857Y102945I392J-77D01*
G02X387214Y102936I142J-1445D01*
G03X387646Y103476I59J396D01*
G02X390350Y104534I1354J524D01*
G03X390890Y104318I372J147D01*
G02X391286Y101564I610J-1318D01*
G03X390854Y101024I-59J-396D01*
G37*
G36*
G01X387351Y94145D02*
G02X385649I-851J-1645D01*
G03Y94855I-184J355D01*
G02X387351I851J1645D01*
G03Y94145I184J-355D01*
G37*
G36*
G01X414349Y50105D02*
G02X411649Y51645I-1849J-105D01*
G03Y52355I-184J355D01*
G02Y55645I851J1645D01*
G03Y56355I-184J355D01*
G02X414349Y57895I851J1645D01*
G03X414971Y57540I399J-23D01*
G02X417849Y56101I1029J-1540D01*
G03X418382Y55746I399J22D01*
G02Y52254I618J-1746D01*
G03X417849Y51899I-134J-377D01*
G02X414971Y50460I-1849J101D01*
G03X414349Y50105I-223J-332D01*
G37*
G36*
G01X553782Y125723D02*
G02X552218I-782J-1223D01*
G03X552230Y126389I-216J337D01*
G02X553770I770J1111D01*
G03X553782Y125723I228J-329D01*
G37*
G36*
G01X477061Y53834D02*
G03X476439I-311J-251D01*
G02X473834Y56439I-1439J1166D01*
G03Y57061I-251J311D01*
G02X476439Y59666I1166J1439D01*
G03X477061I311J251D01*
G02X479939I1439J-1166D01*
G03X480561I311J251D01*
G02X483166Y57061I1439J-1166D01*
G03Y56439I251J-311D01*
G02X480561Y53834I-1166J-1439D01*
G03X479939I-311J-251D01*
G02X477061I-1439J1166D01*
G37*
G36*
G01X509666Y58061D02*
G03Y57439I251J-311D01*
G02X507334I-1166J-1439D01*
G03Y58061I-251J311D01*
G02Y60939I1166J1439D01*
G03Y61561I-251J311D01*
G02X509666I1166J1439D01*
G03Y60939I251J-311D01*
G02Y58061I-1166J-1439D01*
G37*
G36*
G01X530666D02*
G03Y57439I251J-311D01*
G02X528334I-1166J-1439D01*
G03Y58061I-251J311D01*
G02Y60939I1166J1439D01*
G03Y61561I-251J311D01*
G02X530666I1166J1439D01*
G03Y60939I251J-311D01*
G02Y58061I-1166J-1439D01*
G37*
G36*
G01X555666Y81061D02*
G03Y80439I251J-311D01*
G02X552899Y78070I-1166J-1439D01*
G03X552277Y78159I-346J-201D01*
G02X549834Y80939I-1278J1341D01*
G03Y81561I-251J311D01*
G02X552601Y83930I1166J1439D01*
G03X553223Y83841I346J201D01*
G02X555666Y81061I1278J-1341D01*
G37*
G36*
G01X590752Y152326D02*
G03X590182I-285J-281D01*
G02X588270Y154238I-965J947D01*
G03Y154808I-281J285D01*
G02X590182Y156720I947J965D01*
G03X590752I285J281D01*
G02X592664Y154808I965J-947D01*
G03Y154238I281J-285D01*
G02X590752Y152326I-947J-965D01*
G37*
G54D29*
X270874Y64500D03*
X259063D03*
X247252D03*
X235441D03*
X37500Y27047D03*
X65500Y122500D03*
X101000Y126000D03*
X249000Y91500D03*
X256000Y88500D03*
X175414Y203758D03*
X255945Y192501D03*
Y198802D03*
Y208251D03*
Y195652D03*
X255946Y201952D03*
X255945Y214552D03*
Y220852D03*
X255941Y211397D03*
X271696Y186202D03*
Y192501D03*
X265396Y192502D03*
X271696Y183051D03*
Y189352D03*
X268545Y186202D03*
Y192502D03*
X262246Y208251D03*
X265395Y198802D03*
X259096Y201952D03*
X262245D03*
X262241Y220847D03*
Y217697D03*
X259091Y214547D03*
X259096Y217702D03*
Y211402D03*
X281146Y176752D03*
X277995D03*
X277996Y179902D03*
Y192501D03*
X277995Y186202D03*
X274846Y192502D03*
X281146D03*
X284273Y183075D03*
X274846Y186202D03*
X277996Y183051D03*
X281145D03*
X274846Y183052D03*
X277996Y189352D03*
X281145D03*
X274846Y189351D03*
X314704Y191530D03*
X317854Y182081D03*
X314704D03*
Y188380D03*
X317854Y191530D03*
X321003D03*
X317854Y185231D03*
X336754Y185232D03*
X326479Y181865D03*
X337015Y181794D03*
X336754Y188381D03*
X324712Y190704D03*
X324994Y186885D03*
X336754Y191531D03*
Y194677D03*
X339904Y191528D03*
X343429Y181703D03*
X343054Y188377D03*
X339904Y185229D03*
X343054Y185228D03*
X339904Y188378D03*
X340228Y181755D03*
X343054Y197826D03*
Y200977D03*
X339904Y194677D03*
X343053D03*
X339904Y197826D03*
X353000Y100500D03*
X364475Y97975D03*
X360500Y112000D03*
X357500Y104500D03*
X368000Y117000D03*
X370500Y111000D03*
X372500Y125500D03*
X380000Y123451D03*
X376500Y142072D03*
X380899Y144582D03*
Y137593D03*
X379000Y140103D03*
X380546Y159077D03*
X377000Y152000D03*
X380500Y154593D03*
X394516Y108500D03*
X392006Y111000D03*
X398860Y132249D03*
X399213Y139673D03*
Y155937D03*
X417250Y131536D03*
X407345Y131542D03*
X411588D03*
X403810D03*
X414770Y163930D03*
X406285Y163715D03*
X409339Y175382D03*
X416891Y185635D03*
X412649D03*
X410556Y201556D03*
X422659Y111000D03*
X426902D03*
X430237Y110021D03*
X429619Y131895D03*
X430326Y135431D03*
X426002Y131813D03*
X421487Y131542D03*
X430680Y142148D03*
X429729Y146634D03*
X430680Y156997D03*
X418332Y164068D03*
X421487D03*
X425023D03*
X425730Y181039D03*
X426150Y188880D03*
X423000Y206000D03*
X440844Y110021D03*
X437308D03*
X433773D03*
X441500Y144000D03*
Y140849D03*
X438542Y165500D03*
X441500Y173968D03*
X583467Y149773D03*
X580167D03*
X591500Y136000D03*
G54D30*
X70500Y121500D03*
Y132500D03*
G54D28*
X298500Y50500D03*
X282685Y64500D03*
X286623Y64623D03*
X65600Y41400D03*
X56750Y128750D03*
X63350Y130650D03*
X90500Y111000D03*
X92500Y143000D03*
X96441Y140100D03*
X107000Y135500D03*
X99000Y147500D03*
X116500Y132600D03*
X150365Y104468D03*
X168200Y84868D03*
X170450Y91018D03*
X217448Y112968D03*
X229013Y104468D03*
X267000Y84900D03*
X261000Y105000D03*
X36500Y170000D03*
X36450Y175208D03*
Y181112D03*
Y187016D03*
Y192920D03*
X364300Y106800D03*
X385500Y111500D03*
X371000Y102000D03*
X383275Y115775D03*
X371000Y208000D03*
X399000Y100000D03*
X405743Y114243D03*
X417528Y114219D03*
X431600Y105000D03*
X425350Y106350D03*
X423000Y209500D03*
X425200Y212100D03*
X441500Y208500D03*
X438250Y210250D03*
X451850Y115550D03*
X451750Y119250D03*
X458000Y53500D03*
G54D31*
X410750Y106250D03*
G54D32*
X441780Y191240D03*
%LPD*%
G75*
G54D10*
G01X54000Y152000D02*
X40000Y166000D01*
Y201500D01*
X41500Y203000D01*
X45000D01*
G01X54000Y152000D02*
Y149150D01*
X17700Y143900D03*
X19000Y152000D03*
X18900Y149500D03*
X18500Y197500D03*
X29650Y30350D03*
X33000Y161500D03*
X27000Y151500D03*
X32400D03*
X29500D03*
X21500Y152000D03*
X33000Y158800D03*
Y156300D03*
X32500Y169600D03*
Y172500D03*
X33000Y166500D03*
Y164000D03*
X19300Y200600D03*
X33504Y209500D03*
X35000Y204700D03*
Y197500D03*
X19700Y212200D03*
X19500Y216000D03*
X39000Y14500D03*
X47500D03*
X47571Y70596D03*
X46300Y107300D03*
X47900Y109200D03*
X35300Y109592D03*
X39000Y109800D03*
X43000Y108300D03*
X43500Y116300D03*
X46300Y137550D03*
X49500Y139500D03*
X48900Y133000D03*
X45000Y148500D03*
X50000D03*
X47500D03*
X36000Y146069D03*
Y149000D03*
X35500Y153000D03*
X36500Y170000D03*
X36450Y175208D03*
Y181112D03*
Y187016D03*
Y192920D03*
X35900Y209500D03*
X49500Y206200D03*
X45000Y203000D03*
X47400Y212600D03*
X45000Y216000D03*
Y218504D03*
X40500Y225000D03*
X45000Y222440D03*
X42000Y238500D03*
X45000Y233000D03*
X50500Y248000D03*
X43500Y244500D03*
X65600Y41400D03*
X59114Y62065D03*
X64500Y87500D03*
X56750Y128750D03*
X60500Y122500D03*
X53308Y122708D03*
X63350Y130650D03*
X54000Y156000D03*
X53000Y159000D03*
Y161500D03*
X54000Y149150D03*
Y152000D03*
X54500Y200000D03*
X59000Y239500D03*
X51000Y231000D03*
X57000Y234000D03*
X56500Y245500D03*
X81000Y28000D03*
X68000Y33000D03*
X74500Y31500D03*
X75000Y43000D03*
X72400Y66500D03*
X75000Y95500D03*
X69958Y93542D03*
X67400Y99300D03*
X68500Y170000D03*
X72650Y209150D03*
X77500Y213000D03*
X72547Y256400D03*
X75800Y259400D03*
X75500Y265500D03*
X68950Y262750D03*
X82094Y262700D03*
X72547Y281500D03*
X75500Y276500D03*
X89000Y14500D03*
X85500Y23000D03*
X94150Y61850D03*
X94241Y70759D03*
X96000Y84000D03*
X88500Y97500D03*
X87000Y91500D03*
X90000Y86000D03*
X90500Y111000D03*
Y107000D03*
X95500Y101000D03*
X92500Y143000D03*
X96441Y140100D03*
X92000Y175000D03*
X97000Y167000D03*
X85700Y207200D03*
X90100D03*
X86900Y203400D03*
X94350Y227650D03*
X95500Y252000D03*
X98400Y258500D03*
X90150Y266200D03*
X95500Y258500D03*
X90500Y282150D03*
X87550Y282200D03*
X109000Y14500D03*
X99000D03*
X100500Y24500D03*
X110000Y50000D03*
X100000Y40000D03*
X101650Y64350D03*
X104512Y75988D03*
X112488D03*
X101500Y70000D03*
Y98500D03*
X104000Y92500D03*
X102000Y87000D03*
X105500Y105800D03*
X104000Y140500D03*
X107000Y135500D03*
Y140500D03*
X111000Y160150D03*
X100500Y158350D03*
X99000Y147500D03*
X110850Y152200D03*
X106000Y151121D03*
X103533Y207000D03*
X100900Y203100D03*
X111050Y200450D03*
X108633Y207152D03*
X100000Y206500D03*
X99500Y252000D03*
X107500Y251500D03*
X112000Y271000D03*
X113000Y280200D03*
X108300Y277700D03*
Y281200D03*
X108027Y273500D03*
X119000Y14500D03*
X130000Y50000D03*
X120000Y40000D03*
Y60000D03*
X123165Y72665D03*
X128550Y142550D03*
X116500Y132600D03*
X123650Y143250D03*
X121500Y157500D03*
X128900Y147400D03*
Y151400D03*
X121950Y200550D03*
X129669Y214931D03*
X124900Y209900D03*
X121315Y218300D03*
X121355Y224500D03*
X115000Y228500D03*
X124150Y271650D03*
X119900Y271600D03*
X128050Y276050D03*
X134500Y14500D03*
X140000Y40000D03*
Y60000D03*
X141500Y82500D03*
X138800Y112968D03*
X142800Y175600D03*
X143692Y234686D03*
X149000Y14500D03*
X159000D03*
X150000Y70000D03*
X150365Y104468D03*
X156700Y174200D03*
X151000Y170600D03*
X169000Y14500D03*
X176000Y84500D03*
X168200Y84868D03*
X170450Y91018D03*
X164200Y108700D03*
X163800Y119518D03*
X168500Y178000D03*
X179000Y14500D03*
X189000D03*
X180000Y70000D03*
X183500Y104500D03*
Y101500D03*
Y107500D03*
X181700Y157400D03*
X188000Y255500D03*
X206000Y32000D03*
X197433Y26520D03*
X209000Y46000D03*
X206500Y36500D03*
X208571Y52000D03*
X210000Y70000D03*
X205500Y132000D03*
X205000Y164500D03*
X202222Y241880D03*
X195250Y249750D03*
X219000Y46000D03*
X220000Y60000D03*
X225000Y64000D03*
X217448Y112968D03*
X223800Y129300D03*
X211000Y128750D03*
X215100Y144700D03*
Y135200D03*
X222050Y144050D03*
X223800Y139700D03*
X221250Y157750D03*
X213696Y165672D03*
X226989Y246000D03*
X226217Y249611D03*
X239000Y46000D03*
X229000D03*
X241000Y84500D03*
X229013Y104468D03*
X227200Y129800D03*
X235666Y146355D03*
X238946Y155054D03*
X232858Y250089D03*
X257500Y46000D03*
X249000D03*
X247000Y50000D03*
X244000Y81000D03*
X252850Y81100D03*
X243400Y108000D03*
X242448Y110568D03*
X243000Y132000D03*
Y137000D03*
Y151500D03*
X256046Y160450D03*
X267500Y46000D03*
X267000Y84900D03*
X261000Y105000D03*
X260000Y160500D03*
X271500Y160501D03*
X287500Y46000D03*
X277500D03*
X283000Y48700D03*
X276500Y48500D03*
X286623Y64623D03*
X282685Y64500D03*
X285150Y133000D03*
X288850Y132850D03*
X280500Y160415D03*
X297500Y46000D03*
X298500Y50500D03*
X292500Y53500D03*
X296148Y112968D03*
X291550Y141000D03*
X291500Y151000D03*
X295435Y166500D03*
X305000D03*
X299500D03*
X295100Y252400D03*
X295500Y254500D03*
X299800Y282900D03*
X307500Y46000D03*
X317500D03*
X308500Y50500D03*
X310245Y64500D03*
X321800Y107900D03*
X307713Y104468D03*
X321600Y110600D03*
X312000Y166500D03*
X309500Y260100D03*
X327500Y46000D03*
X337500D03*
X323500Y50500D03*
X332200Y64500D03*
X323800D03*
X325500Y84244D03*
X327798Y91018D03*
X337000Y257800D03*
X328500Y260000D03*
X331500D03*
X347500Y46000D03*
X352000Y63500D03*
X345678Y64178D03*
X349000Y63500D03*
X350500Y84500D03*
X353500D03*
X347500Y208500D03*
X348000Y223500D03*
X348500Y226500D03*
X354000Y270500D03*
X349650Y276150D03*
X365000Y31500D03*
X368000D03*
X363000Y34500D03*
Y37500D03*
Y41500D03*
X357500Y46000D03*
X355500Y63500D03*
X358500D03*
X364300Y112300D03*
Y106800D03*
X362400Y114900D03*
X369000Y205000D03*
X357200Y203800D03*
X363750Y228850D03*
X359500Y238000D03*
X367500Y232500D03*
X355000Y252500D03*
X383000Y14500D03*
X377000D03*
X380000D03*
Y17000D03*
X383000D03*
X372500Y26500D03*
X376000Y20500D03*
Y24500D03*
X385500Y111500D03*
X385000Y103700D03*
X371000Y102000D03*
X383275Y115775D03*
X383000Y176000D03*
X385500Y178000D03*
X371000Y208000D03*
X382500Y201000D03*
X380694Y209118D03*
X380878Y211812D03*
X377500Y215000D03*
X372500Y219500D03*
X378000D03*
X370500Y215500D03*
X378000Y225500D03*
X379400Y228600D03*
X379544Y231556D03*
X377000Y250500D03*
X383000Y242000D03*
X384000Y248000D03*
X381000Y250000D03*
X371800Y268700D03*
X379000Y269400D03*
X399000Y100000D03*
X389500Y100500D03*
X387000Y101500D03*
X389000Y104000D03*
X391500Y103000D03*
X392500Y192000D03*
X400748Y201696D03*
X390500Y244000D03*
X394500D03*
X400000Y256000D03*
X401000Y244200D03*
X399500Y269500D03*
X395500D03*
X387700Y278861D03*
X396003Y276603D03*
X396200Y281000D03*
X405743Y114243D03*
X417528Y114219D03*
X416113Y171988D03*
X402600Y199600D03*
X407000Y196000D03*
X404900Y201700D03*
X402980Y246500D03*
X414500Y244000D03*
X411000Y248000D03*
X410700Y244200D03*
X406549Y246521D03*
X404720Y244056D03*
X431600Y105000D03*
X425350Y106350D03*
X429124Y163927D03*
X418689Y172798D03*
X430710Y177920D03*
X420285Y183938D03*
X423000Y209500D03*
X433500Y195000D03*
X428500Y194000D03*
X425200Y212100D03*
X430500Y225000D03*
X425080Y222000D03*
X422600Y231556D03*
X430500Y236000D03*
X430000Y252500D03*
X418000Y256000D03*
X430000Y242200D03*
X447500Y15000D03*
Y22500D03*
Y29500D03*
Y35500D03*
Y41500D03*
Y47000D03*
X445500Y103800D03*
X442500Y103700D03*
X438500Y125107D03*
X440500Y123500D03*
X446150Y115350D03*
X441500Y168000D03*
Y163500D03*
X445645Y168000D03*
X449200Y182800D03*
X437000Y184500D03*
X446500Y208500D03*
X436000Y195000D03*
X434500Y197500D03*
X441500Y208500D03*
X438650Y225150D03*
X438250Y210250D03*
X437000Y236500D03*
X443500Y236742D03*
X439500Y272500D03*
X434000D03*
X455000Y14500D03*
X464000D03*
X464500Y24500D03*
X455500D03*
X452500Y39500D03*
Y44000D03*
X458000Y53500D03*
X462500Y51500D03*
X465000Y91500D03*
X450963Y123963D03*
X451850Y115550D03*
X451750Y119250D03*
X455000Y123500D03*
X457000Y136500D03*
X454500Y133500D03*
X460500Y134500D03*
X450663Y133663D03*
X463000Y145000D03*
X454000Y161500D03*
X457000Y169000D03*
X462700Y181000D03*
X461500Y190000D03*
X456200Y182900D03*
X462500Y178000D03*
X451500Y208500D03*
X461508Y209580D03*
X461500Y196000D03*
X452500Y195000D03*
X453000Y239500D03*
X451300Y253400D03*
X452000Y272500D03*
X457000D03*
X471000Y14500D03*
X479000D03*
X471500Y24500D03*
X478500D03*
X479500Y98500D03*
X474000Y84000D03*
X480000Y87000D03*
X466500Y97500D03*
X468000Y86000D03*
X467000Y106500D03*
X472000Y106800D03*
X476500Y107000D03*
X473500Y101000D03*
X474000Y128500D03*
X470001Y132999D03*
X472496Y145000D03*
X478500Y156500D03*
X470650Y153650D03*
X467500Y165000D03*
X471500Y168000D03*
X481500Y169500D03*
X475500Y168000D03*
X477500Y203000D03*
X473000D03*
X467950Y223680D03*
X473112Y223280D03*
X473000Y230500D03*
X478000Y258500D03*
X476000Y265500D03*
X477553Y275553D03*
X471500Y279000D03*
X492500Y31500D03*
X488000Y32500D03*
X486500Y26500D03*
X484000Y23500D03*
X482000Y30000D03*
X485000D03*
X488000D03*
X485000Y32500D03*
X482000D03*
Y35000D03*
X485000D03*
X488000D03*
X482000Y37500D03*
X485000D03*
X488000D03*
X482000Y63500D03*
X485000D03*
X488000D03*
X494000D03*
X491000D03*
X497000D03*
X488500Y89000D03*
X486500Y85500D03*
X482000Y92500D03*
X494500Y105000D03*
X482000Y106500D03*
X488000Y106000D03*
X495311Y109500D03*
X495000Y116000D03*
X488800Y143350D03*
X489000Y135000D03*
X495100Y130500D03*
X488250Y160000D03*
X497250D03*
X490500Y169500D03*
X486000D03*
X496500D03*
X482000Y193500D03*
Y203000D03*
Y208000D03*
Y198500D03*
X491500Y203000D03*
X486500D03*
X488860Y223242D03*
X482970D03*
X482000Y212000D03*
X486000Y230500D03*
X489500Y254500D03*
X490550Y242950D03*
X486000Y258000D03*
X502500Y64500D03*
X500000Y63500D03*
X506000Y108740D03*
X513000Y124500D03*
X506500Y125000D03*
X513000Y118084D03*
X498000Y121000D03*
X498800Y135000D03*
X500500Y130350D03*
X506000Y160000D03*
X506400Y149500D03*
X499500Y169500D03*
X501800Y177500D03*
X502000Y193500D03*
X504000Y190000D03*
X502000Y204000D03*
X502500Y216000D03*
X507000Y221500D03*
X504350Y234150D03*
X510500Y238500D03*
X513500Y233000D03*
X504950Y252050D03*
X512000Y244500D03*
X500700Y275700D03*
X516500Y73800D03*
X524500Y106000D03*
X515700Y105500D03*
X528000Y128060D03*
X522300Y114500D03*
Y117500D03*
X528000Y140500D03*
X521000Y147500D03*
X517000Y168500D03*
X524000Y165500D03*
X518000Y177000D03*
X515500Y179000D03*
X514000Y184500D03*
Y187000D03*
X524000Y189500D03*
Y196000D03*
X527500Y239500D03*
X525500Y234000D03*
X519500Y231000D03*
X525000Y245500D03*
X519000Y248000D03*
X533500Y14500D03*
Y32000D03*
Y49000D03*
Y59000D03*
X543000Y75500D03*
X533500Y69000D03*
X535000Y103750D03*
X532500Y155500D03*
X531500Y248000D03*
X541500D03*
X561000Y75500D03*
X547000Y97150D03*
X559000Y91000D03*
X553000Y124500D03*
X559000Y128000D03*
X554000Y121500D03*
X557500Y118000D03*
X558300Y139400D03*
X559000Y168000D03*
Y178000D03*
Y186000D03*
Y198000D03*
Y218000D03*
Y238000D03*
Y228000D03*
X551500Y248000D03*
X559000D03*
X575390Y143600D03*
X570000Y161500D03*
X562000D03*
X572000Y150000D03*
X567327D03*
X578000Y75500D03*
Y108500D03*
Y124500D03*
Y116000D03*
X589500Y129000D03*
X586217Y140773D03*
X590000Y145000D03*
Y141000D03*
X592500Y161362D03*
X583500Y161500D03*
X586100Y149600D03*
X579138Y159194D03*
X590000Y148500D03*
X601500Y129000D03*
Y136000D03*
Y155000D03*
Y161500D03*
G54D20*
X441780Y181240D03*
G54D11*
X25000Y41000D03*
X29500D03*
X34500Y40500D03*
X33000Y37500D03*
X27500D03*
X23000Y38000D03*
X22100Y56200D03*
X20000Y63100D03*
X21900Y52300D03*
X20000Y59100D03*
X22799Y81361D03*
X19882Y74869D03*
X19891Y78269D03*
X29400Y81344D03*
X26199Y81353D03*
X20000Y66800D03*
X32500Y135500D03*
X21000Y135000D03*
X25000D03*
X36900Y133300D03*
X36500Y137000D03*
X60400Y104300D03*
X61096Y113300D03*
X61350Y110000D03*
X59421Y116028D03*
X80500Y50000D03*
X70500Y111000D03*
Y121500D03*
Y132500D03*
X68000Y152000D03*
X79000Y177000D03*
Y173500D03*
X76000Y175000D03*
Y196600D03*
X80000D03*
X78000Y193500D03*
X92000Y54500D03*
X84000Y50000D03*
X113500Y87500D03*
X110000D03*
Y91000D03*
X113500D03*
X110500Y97000D03*
X113500D03*
X107000Y113000D03*
X110500Y100500D03*
X113500Y100000D03*
X110500Y104000D03*
X114000Y123668D03*
X107000Y116500D03*
Y120000D03*
X123000Y87500D03*
X117500Y83000D03*
X121000D03*
X126000Y82765D03*
X120600Y123668D03*
X117400D03*
X127800Y131500D03*
X127500Y159900D03*
X127400Y163000D03*
X121100Y174400D03*
X121000Y171000D03*
X130900Y131500D03*
X143200Y171100D03*
X139400Y172600D03*
X136500Y193000D03*
X136000Y190000D03*
X133500Y194196D03*
X154400Y166700D03*
X157800Y166600D03*
X177900Y143400D03*
X178500Y89500D03*
Y93000D03*
X182000D03*
Y89500D03*
X189000Y86000D03*
X192000Y84000D03*
Y88000D03*
X191948Y97368D03*
X189000Y96500D03*
X192048Y100568D03*
X189000Y99500D03*
Y102500D03*
X194000Y124000D03*
X189748Y120568D03*
X190500Y124000D03*
X189748Y117168D03*
X179800Y140500D03*
X180200Y151300D03*
X178600Y148700D03*
X199500Y84000D03*
X195500D03*
X197500Y124000D03*
X258000Y93000D03*
X255000D03*
X261200Y93045D03*
X260000Y89500D03*
X271000Y89000D03*
X270500Y85000D03*
X267500Y89000D03*
X270548Y94068D03*
X267848Y95668D03*
X270648Y97368D03*
X267848Y99068D03*
X270748Y100568D03*
X271348Y123668D03*
X268574Y120200D03*
X268100Y123600D03*
X277500Y85000D03*
X274000D03*
X277948Y123668D03*
X274748D03*
X336000Y85500D03*
Y92500D03*
Y89000D03*
X339500Y85500D03*
Y89000D03*
Y92500D03*
X363000Y64500D03*
X366500D03*
X359163Y83500D03*
X398000Y15500D03*
X391500D03*
X390000Y48500D03*
Y52500D03*
X393500Y55500D03*
X397000Y52000D03*
Y55500D03*
X393500Y51000D03*
X386500Y92500D03*
Y96500D03*
X411000Y15500D03*
X405500D03*
X416000Y20500D03*
X411000D03*
X416000Y52000D03*
Y56000D03*
X412500Y50000D03*
Y58000D03*
Y54000D03*
X417000Y69000D03*
X426500Y16500D03*
X421000Y20500D03*
X426500D03*
X419000Y54000D03*
X420500Y69000D03*
X424000D03*
X420639Y181039D03*
X478500Y55000D03*
X475000D03*
Y58500D03*
X478500D03*
X482000Y55000D03*
Y58500D03*
X508500Y63000D03*
Y59500D03*
Y56000D03*
X515500Y28500D03*
X519000D03*
X522500D03*
X526000D03*
X529500D03*
Y63000D03*
Y59500D03*
Y56000D03*
X551000Y79500D03*
X554500Y79000D03*
X551000Y83000D03*
X554500Y82500D03*
G54D21*
X441780Y191240D03*
G54D12*
X34000Y240000D03*
X452500Y173000D03*
G54D22*
X462157Y244000D03*
X476921D03*
X471999D03*
X467078D03*
X481842D03*
G54D13*
X19500Y226500D03*
X37500Y27047D03*
X46150Y125850D03*
X45500Y170500D03*
Y173500D03*
Y188616D03*
Y191616D03*
X47000Y208664D03*
X45000Y198824D03*
X47000Y200792D03*
X45000Y210500D03*
X41000Y229500D03*
X60000Y35500D03*
X58000Y34000D03*
Y36500D03*
X65500Y122500D03*
X51850Y137500D03*
X61500Y159000D03*
X63462Y217500D03*
X60000D03*
X61500Y255500D03*
Y252000D03*
Y259000D03*
X65000Y274000D03*
X75358Y47500D03*
X72505Y77495D03*
X77500Y87500D03*
X71500Y170000D03*
X70500Y250538D03*
Y254000D03*
X78500Y282200D03*
X92500Y77000D03*
X94500Y76000D03*
X94498Y78001D03*
X94000Y65500D03*
X82500Y100000D03*
X95000Y178000D03*
X94533Y207200D03*
Y217400D03*
X85800Y217100D03*
X90100D03*
X87500Y225000D03*
X87495Y239984D03*
X87262Y235262D03*
X87000Y230000D03*
X87100Y249387D03*
X87400Y244706D03*
X89400Y256500D03*
X91452Y263500D03*
X84676Y263010D03*
X94000Y262500D03*
X85600Y256700D03*
X106000Y68000D03*
X101000Y126000D03*
X104900Y186100D03*
Y191100D03*
X101400Y188600D03*
X108400D03*
X104900D03*
X111000Y182500D03*
X101100Y199100D03*
X98450Y200450D03*
X108633Y218000D03*
X109071Y221489D03*
X113500Y216500D03*
X103500Y217100D03*
X100000Y219500D03*
X104300Y221300D03*
X105500Y218900D03*
X106000Y266100D03*
X112000Y263500D03*
X110000Y265000D03*
X105895Y261500D03*
X107862Y263702D03*
X125300Y205300D03*
X117000Y221500D03*
X124957Y224143D03*
X114200Y221500D03*
X128500Y227233D03*
X127338Y235453D03*
X128500Y230545D03*
X124800Y236882D03*
X125584Y227316D03*
X124681Y243160D03*
X128000Y242000D03*
X128600Y251400D03*
X129200Y245600D03*
X124300Y254282D03*
X125600Y250000D03*
X128912Y248119D03*
X120000Y263500D03*
X114000Y265000D03*
X122000Y265500D03*
X118000Y265000D03*
X123910Y263590D03*
X116000Y263500D03*
X144000Y167500D03*
X145743Y189077D03*
X139308Y215028D03*
X139379Y210432D03*
X142844Y230906D03*
X130500Y234000D03*
Y237000D03*
X131500Y240300D03*
X143480Y255318D03*
X155500Y80500D03*
X152000Y83500D03*
X160352Y81648D03*
X150216Y191159D03*
Y188008D03*
X153366Y181710D03*
X161653Y193108D03*
X150216Y181709D03*
Y184860D03*
X153366Y191158D03*
X156516Y181709D03*
X153366Y184860D03*
X156516Y191158D03*
X153366Y188009D03*
X159584Y191076D03*
X160168Y187522D03*
X150216Y194307D03*
X156516Y200608D03*
X150216Y206906D03*
X153366Y200608D03*
X150216Y197458D03*
Y200608D03*
X153366Y194308D03*
X156516Y197458D03*
Y194307D03*
Y206906D03*
X153366Y206907D03*
Y197457D03*
Y219508D03*
X153365Y216358D03*
X150216Y222658D03*
X153366Y213207D03*
X150216Y216356D03*
X153366Y210058D03*
X156516Y216358D03*
X153366Y222657D03*
X160097Y222099D03*
X156545Y222682D03*
X148715Y211703D03*
X156516Y210057D03*
Y213207D03*
X149349Y228605D03*
X149300Y231604D03*
X149278Y225706D03*
X156516Y228953D03*
X153366Y228956D03*
Y225807D03*
X154655Y233060D03*
X146662Y248943D03*
X157976Y248884D03*
X149985Y255318D03*
X154794D03*
X161158D03*
X175417Y191156D03*
Y184857D03*
X172266Y184861D03*
X175845Y181235D03*
X171623Y177905D03*
X172331Y191200D03*
X172177Y188102D03*
X175416Y188007D03*
X175414Y203758D03*
X175416Y194306D03*
Y197455D03*
X172259Y203715D03*
X172266Y194306D03*
X175416Y200606D03*
X169007Y200320D03*
X165754Y199755D03*
X175416Y213205D03*
X175417Y210057D03*
X175416Y222655D03*
X172259Y222665D03*
X168314Y220276D03*
X175416Y219509D03*
X166107Y218352D03*
X172266Y210057D03*
Y213205D03*
X175417Y216356D03*
X172224Y225882D03*
X175416Y228954D03*
Y225805D03*
X165966Y232070D03*
X172047Y232352D03*
X169643Y248813D03*
X166390Y255460D03*
X172896Y255177D03*
X178058Y255248D03*
X186250Y88079D03*
X178566Y188006D03*
Y181707D03*
Y184857D03*
X178562Y203757D03*
X178566Y197455D03*
Y200605D03*
Y194305D03*
X178562Y222653D03*
X187745Y210432D03*
X178564Y219506D03*
X178566Y210057D03*
X180496Y228903D03*
Y232282D03*
X180391Y225761D03*
X181240Y248802D03*
X184351Y255460D03*
X206000Y170500D03*
X208605Y224362D03*
X204645Y225635D03*
X206506Y253000D03*
X197500D03*
X206506Y264000D03*
X209016Y262000D03*
X221500Y147000D03*
X224700Y147500D03*
X223700Y150318D03*
Y153782D03*
X221296Y176751D03*
X218146Y170452D03*
Y176752D03*
X214996Y170452D03*
X218146Y173602D03*
X211845Y170452D03*
X224445Y173602D03*
X214995D03*
X214996Y176752D03*
X224446D03*
X211846Y173602D03*
X224446Y170452D03*
X221296Y192501D03*
X211846Y179902D03*
X218146Y179901D03*
X214995Y179902D03*
Y192501D03*
X224446Y179901D03*
Y186202D03*
X214996D03*
X221296Y183051D03*
X224446Y192502D03*
X211845D03*
X211846Y183051D03*
X214995D03*
X218146Y192502D03*
X211845Y186202D03*
X218146D03*
X214995Y189352D03*
X211846D03*
X221296Y195652D03*
X215018Y208226D03*
X224445Y198802D03*
X214995D03*
X224446Y208252D03*
X221295Y201952D03*
X214996D03*
X218146Y198802D03*
X211846D03*
X224446Y201952D03*
X221296Y208251D03*
X214995Y195652D03*
X211845Y195651D03*
Y201952D03*
X218146D03*
Y208252D03*
X211846Y208251D03*
X221296Y198802D03*
X218146Y195651D03*
Y217702D03*
Y224002D03*
X224446Y217702D03*
X214995Y220852D03*
X224445Y214552D03*
X221296Y224001D03*
X214995Y214552D03*
X224446Y220851D03*
X211845Y211402D03*
X218146D03*
X221296Y214552D03*
X211845Y217702D03*
X214996D03*
X224446Y211402D03*
X221296D03*
X218146Y220851D03*
X211846Y214552D03*
X218146D03*
X214996Y211402D03*
X214995Y224001D03*
X211846D03*
X221296Y217701D03*
X224446Y227152D03*
X221296Y233451D03*
X224445Y230302D03*
X221296Y236602D03*
X214995Y239752D03*
X224446Y233452D03*
X214995Y233451D03*
X214996Y227152D03*
X221296Y230302D03*
X218146Y236601D03*
X211846Y240000D03*
X224446Y236601D03*
X211845Y227152D03*
Y236601D03*
X211846Y230302D03*
X218146Y227152D03*
X211845Y233452D03*
X218146D03*
X214995Y236602D03*
Y230302D03*
X218146Y239752D03*
X219282Y252434D03*
X216100Y252788D03*
X222727Y252400D03*
X211050Y252801D03*
X210984Y264000D03*
X220000Y262000D03*
X213494D03*
X221984Y264000D03*
X217506D03*
X224494Y262000D03*
X240000Y64000D03*
X230750D03*
X228250D03*
X235441Y64500D03*
X237150Y129650D03*
X230746Y164152D03*
Y173602D03*
X237045Y170452D03*
X237046Y173602D03*
X233896Y176752D03*
X241000Y166000D03*
X230746Y170452D03*
Y176751D03*
X240195Y173602D03*
X240196Y176752D03*
X237045D03*
X227595Y170452D03*
X227596Y173602D03*
X233895D03*
X233896Y170452D03*
X230746Y189352D03*
Y192501D03*
X227595Y186202D03*
X237046Y189352D03*
X233896Y183052D03*
X237045Y186202D03*
X230746Y179902D03*
Y186202D03*
X240195Y183051D03*
X230746D03*
X233896Y179901D03*
X237046Y179902D03*
X240195D03*
X237046Y183051D03*
X240196Y192502D03*
X227596Y183051D03*
X227595Y192502D03*
Y179901D03*
Y195651D03*
X233896Y201952D03*
X227595Y208252D03*
X240195Y198802D03*
X237045Y201952D03*
X240195Y208251D03*
X237046Y195652D03*
X230746Y208251D03*
X227595Y201952D03*
X240196D03*
X237046Y198802D03*
X240196Y195651D03*
X237046Y208251D03*
X233896Y198802D03*
Y208252D03*
X227595Y217702D03*
X230746Y211402D03*
Y220852D03*
X233901Y220847D03*
X227595Y220851D03*
X240196Y217702D03*
X240195Y220852D03*
X233895Y214552D03*
X240201Y214547D03*
X237045Y211402D03*
X227596Y224001D03*
X230746Y217701D03*
X237046Y214552D03*
X233896Y224002D03*
X227595Y211402D03*
X230746Y214552D03*
X237045Y217702D03*
X240195Y224001D03*
X227595Y227152D03*
Y233452D03*
X237045Y227152D03*
X230746Y236602D03*
X227596Y230302D03*
X230746Y233451D03*
X240195Y230302D03*
X240196Y236601D03*
X233896D03*
X237046Y233451D03*
X233896Y233452D03*
X240196D03*
X230746Y230302D03*
X233896Y230301D03*
X227595Y236601D03*
X237046Y230302D03*
X230746Y227152D03*
X237046Y236602D03*
X240196Y227152D03*
X228474Y251500D03*
X233604Y252829D03*
X241202Y252434D03*
X238374D03*
X226483Y253013D03*
X232995Y264008D03*
X231000Y262500D03*
X235494D03*
X228506Y264000D03*
X239506D03*
X254250Y64000D03*
X251750D03*
X242500D03*
X247252Y64500D03*
X249000Y91500D03*
X256000Y88500D03*
X243050Y141800D03*
X257500Y157000D03*
X243000Y155350D03*
X243346Y173602D03*
X245428Y165000D03*
X252796Y173602D03*
X249645D03*
X255946Y176752D03*
Y170452D03*
X255945Y173602D03*
X252795Y176752D03*
X249646D03*
Y170452D03*
X252795D03*
X243345Y176752D03*
X249646Y186202D03*
Y183052D03*
X252796Y189352D03*
X255945Y192501D03*
X252796Y179902D03*
X255945Y183051D03*
X249645Y189352D03*
X252796Y183051D03*
X243345Y192502D03*
X255945Y189352D03*
X255946Y186202D03*
X243356Y183062D03*
X255945Y179902D03*
X249646Y179901D03*
X243345Y186202D03*
X249646Y192502D03*
X243345Y179901D03*
X255945Y208251D03*
X252795Y195651D03*
Y201952D03*
X255945Y198802D03*
X243345Y201952D03*
Y195651D03*
X249645Y198802D03*
X249636Y208242D03*
X249646Y201952D03*
Y195651D03*
X243346Y198802D03*
X255945Y195652D03*
X255946Y201952D03*
X252796Y198802D03*
X243345Y208252D03*
X252796Y208251D03*
X249646Y217702D03*
X252795D03*
X255945Y214552D03*
X249645D03*
X252795Y211402D03*
X243345D03*
X255945Y220852D03*
X243346Y214552D03*
X249636Y211392D03*
X252791Y214547D03*
X255941Y211397D03*
X243345Y220851D03*
X255945Y224001D03*
X249646Y220851D03*
X243345Y224002D03*
X252796Y224001D03*
X252845Y239801D03*
X249646Y236601D03*
X252795Y227152D03*
X243345Y236601D03*
Y233452D03*
X243346Y230302D03*
X255945Y233451D03*
X252795Y233452D03*
X255941Y227147D03*
X249646Y230302D03*
X243346Y227152D03*
X252795Y236601D03*
X249646Y239752D03*
X255945Y236602D03*
X249646Y233452D03*
X255945Y230302D03*
X255694Y252827D03*
X244210Y252788D03*
X252162Y252829D03*
X248909Y252865D03*
X251000Y250500D03*
X256000Y241500D03*
X254500Y262500D03*
X253000Y266000D03*
X242016Y262540D03*
X256994Y266000D03*
X250100Y262500D03*
X246500Y262540D03*
X244024Y264030D03*
X266250Y64500D03*
X263750D03*
X259063D03*
X270874D03*
X269200Y140200D03*
X264500D03*
Y146100D03*
X269200D03*
X270500Y155500D03*
X271696Y176751D03*
X259096Y173602D03*
X271696D03*
X265395D03*
X265396Y176752D03*
X268545D03*
X259096Y170452D03*
X262246D03*
X259096Y176752D03*
X268546Y173602D03*
X271696Y170452D03*
X259096Y189351D03*
X271696Y186202D03*
X265396D03*
X271696Y192501D03*
X265396Y192502D03*
X271696Y183051D03*
X268546D03*
X271696Y189352D03*
X262246Y183051D03*
X259096Y186202D03*
X268545D03*
Y179901D03*
X262246Y179902D03*
X271696D03*
X268545Y192502D03*
X265396Y179901D03*
X259096Y183052D03*
Y179901D03*
X262245Y186202D03*
X265396Y201952D03*
X271696Y195652D03*
X262246Y208251D03*
X268546Y198802D03*
X265395D03*
X268545Y208252D03*
X271696Y198802D03*
X265396Y208252D03*
X271696Y201952D03*
X268545D03*
X259096D03*
X271696Y208251D03*
X262245Y201952D03*
X262241Y220847D03*
X265396Y220851D03*
X265391Y217697D03*
X262241D03*
X262246Y211402D03*
Y224001D03*
X268546Y214552D03*
X259091Y214547D03*
X268545Y220851D03*
X271696Y224001D03*
Y220852D03*
X268546Y224001D03*
X271696Y211402D03*
X265396D03*
X268545D03*
X265395Y214552D03*
X271696D03*
Y217701D03*
X259096Y217702D03*
Y211402D03*
X259091Y223997D03*
X271696Y239752D03*
X265396Y227152D03*
X259096Y236601D03*
Y230301D03*
X271696Y227152D03*
Y236602D03*
X268545Y227152D03*
X259096D03*
X268546Y230302D03*
X265396Y236601D03*
X268545Y233452D03*
X262246Y230302D03*
X265396Y233452D03*
X262241Y236597D03*
X262246Y239752D03*
X259096Y233453D03*
Y239752D03*
X265395D03*
X262246Y233451D03*
X268541Y239747D03*
X268545Y236601D03*
X265395Y230302D03*
X262241Y227147D03*
X267000Y251500D03*
X259000Y253000D03*
X263500Y253120D03*
X261500Y250500D03*
X263600Y263300D03*
X267200Y261500D03*
X271900Y260400D03*
X260800Y264300D03*
X259500Y257000D03*
X287000Y53500D03*
X281146Y176752D03*
X277995D03*
Y170452D03*
X274845Y173602D03*
X281145D03*
X277996D03*
X274846Y176752D03*
X281796Y170702D03*
X274846Y170452D03*
X281145Y179902D03*
X277996D03*
Y192501D03*
X277995Y186202D03*
X274846Y192502D03*
X281146D03*
X284273Y183075D03*
X274846Y186202D03*
X277996Y183051D03*
X281145D03*
X274846Y183052D03*
X277996Y189352D03*
X281145D03*
X274846Y189351D03*
X277996Y208251D03*
Y198802D03*
X274846Y201952D03*
X281145Y208251D03*
X274846Y208252D03*
Y198802D03*
X281145D03*
X277996Y195652D03*
X281146Y195651D03*
X277986Y205072D03*
X281137D03*
X274846Y195651D03*
X277996Y220852D03*
X274845Y214552D03*
X281146Y211402D03*
X277995D03*
X281145Y224001D03*
X274846Y224002D03*
X281145Y220852D03*
X281146Y217702D03*
X274846Y211402D03*
X281145Y214552D03*
X274846Y220851D03*
X277996Y214552D03*
X277995Y217702D03*
X274846D03*
X277996Y224001D03*
Y233451D03*
X277995Y227152D03*
X281145Y239752D03*
X274865D03*
X281146Y233452D03*
X277996Y239752D03*
X274846Y230301D03*
X281146Y227152D03*
X274846Y233452D03*
X281146Y236601D03*
X281145Y230302D03*
X274846Y227152D03*
X277996Y236602D03*
Y230302D03*
X276000Y249000D03*
X286100Y261000D03*
X281700Y260000D03*
X286100Y258100D03*
X289400Y262900D03*
X287000Y278500D03*
X286000Y283000D03*
X289500Y53500D03*
X290560Y64560D03*
X298434Y64566D03*
X303000Y64500D03*
X295500Y150900D03*
X296710Y217150D03*
X296357Y213685D03*
X303404Y217003D03*
X298500Y253000D03*
X296600Y258100D03*
X302290Y267073D03*
X301400Y271800D03*
X297144Y276148D03*
X314000Y64500D03*
X317000D03*
X306000D03*
X317500Y50500D03*
X314500D03*
X320000Y82500D03*
X314704Y191530D03*
X317854Y182081D03*
X314704D03*
Y188380D03*
X317854Y191530D03*
X321003D03*
X317854Y185231D03*
X314703Y194679D03*
X321003Y200979D03*
X314704Y207278D03*
X314812Y201028D03*
X314704Y197829D03*
X321003Y194679D03*
X317853Y200979D03*
X317854Y194679D03*
Y207278D03*
X321003D03*
X317853Y197829D03*
X321003D03*
X317854Y219879D03*
Y213579D03*
X313621Y222159D03*
X317853Y216729D03*
X314703Y216728D03*
X311554Y210428D03*
X317854Y210429D03*
X321004Y223025D03*
X317853Y223029D03*
X311554Y213579D03*
X321003Y210429D03*
Y213579D03*
X321004Y216729D03*
X314483Y229549D03*
X314502Y232678D03*
X314704Y226179D03*
X321003Y226175D03*
X317854Y226178D03*
X321083Y229405D03*
X317810Y229302D03*
X312290Y267573D03*
X315710D03*
X305710Y267073D03*
X329420Y64500D03*
X326500D03*
Y50500D03*
X330000D03*
X336754Y185232D03*
X326479Y181865D03*
X337015Y181794D03*
X336754Y188381D03*
X324712Y190704D03*
X324994Y186885D03*
X336754Y191531D03*
X328601Y195724D03*
X336754Y194677D03*
Y207278D03*
X324194Y197641D03*
X333656Y197882D03*
X330793Y197916D03*
X336754Y219878D03*
Y213577D03*
Y210428D03*
Y216727D03*
Y223026D03*
Y226177D03*
Y229325D03*
X324283Y229271D03*
X336754Y232475D03*
X325710Y268000D03*
X322290D03*
X334700Y267900D03*
X353000Y100500D03*
X339904Y191528D03*
X343429Y181703D03*
X343054Y188377D03*
X339904Y185229D03*
X343054Y185228D03*
X339904Y188378D03*
X340228Y181755D03*
X344500Y205946D03*
X339904Y207278D03*
X343054Y197826D03*
Y200977D03*
X339904Y194677D03*
X343053D03*
X352333Y198244D03*
X352293Y206822D03*
X339904Y197826D03*
Y200977D03*
Y213577D03*
X343054Y223026D03*
X339904Y210429D03*
X343054Y210428D03*
X339904Y223026D03*
Y219877D03*
Y216727D03*
X349506Y215006D03*
X343054Y229325D03*
X346703Y240979D03*
X343054Y232475D03*
X344500Y234500D03*
X343054Y226177D03*
X339904Y229325D03*
Y226176D03*
X340059Y232632D03*
X341500Y247800D03*
X340000Y252500D03*
X348000D03*
X368237Y83763D03*
X364475Y97975D03*
X360500Y112000D03*
X357500Y104500D03*
X368000Y117000D03*
X367500Y218000D03*
X364000Y244500D03*
X357500Y269000D03*
X368700Y268800D03*
X364000Y258500D03*
X364100Y279970D03*
X370500Y111000D03*
X377000Y127261D03*
X372500Y125500D03*
X380000Y123451D03*
X379500Y128870D03*
X376500Y142072D03*
X380899Y144582D03*
Y137593D03*
X379000Y140103D03*
X380546Y159077D03*
X377000Y152000D03*
X380500Y154593D03*
X375936Y157532D03*
X376387Y168387D03*
X380000Y166000D03*
X375000Y173000D03*
X380192Y170356D03*
X382500Y191545D03*
X377350Y199150D03*
X384000Y198500D03*
X371000Y203000D03*
X379500Y235000D03*
X382000Y269700D03*
X375500Y269200D03*
X379800Y282000D03*
X394516Y108500D03*
X400500Y110500D03*
X392006Y111000D03*
X397500Y110500D03*
X398860Y132249D03*
X399213Y139673D03*
Y155937D03*
X394986Y169087D03*
X393557Y170786D03*
X390000Y185500D03*
X397092D03*
X393500D03*
X400628Y185594D03*
X399000Y192000D03*
X396000Y197000D03*
X392844Y201955D03*
X396780Y201280D03*
X388908Y201500D03*
X390000Y198000D03*
X395000Y256000D03*
X417250Y131536D03*
X407345Y131542D03*
X411588D03*
X403810D03*
X414770Y163930D03*
X406285Y163715D03*
X409339Y175382D03*
X416891Y185635D03*
X408406D03*
X412649D03*
X404000Y185500D03*
X410556Y201556D03*
X404946Y248569D03*
X422659Y111000D03*
X426902D03*
X430237Y110021D03*
X429619Y131895D03*
X430326Y135431D03*
X426002Y131813D03*
X421487Y131542D03*
X430680Y142148D03*
X429729Y146634D03*
X430680Y156997D03*
X418332Y164068D03*
X421487D03*
X425023D03*
X431090Y161594D03*
X425730Y181039D03*
X426150Y188880D03*
X426430Y192030D03*
X429000Y197000D03*
X423000Y206000D03*
X425500Y217500D03*
X422500Y221500D03*
Y240790D03*
X420500Y242500D03*
X440844Y110021D03*
X437308D03*
X433773D03*
X444500Y118000D03*
X439500Y136500D03*
X441500Y144000D03*
Y140849D03*
X438542Y165500D03*
X441500Y173968D03*
X434000Y236500D03*
X442000Y226000D03*
X444500Y225000D03*
X447500Y227000D03*
X437000Y258500D03*
X447000Y272500D03*
X448000Y258100D03*
X444900Y258300D03*
X442000Y258500D03*
X462490Y105510D03*
X451000Y128450D03*
X450500Y139500D03*
Y144500D03*
X459000Y208000D03*
Y205500D03*
X449500Y195000D03*
X451290Y218500D03*
X461116Y220571D03*
X463616Y220595D03*
X453258Y236758D03*
X463000Y237000D03*
X460000D03*
X459500Y253600D03*
X460400Y258300D03*
X464000Y261800D03*
X460800Y266600D03*
X474500Y117000D03*
X468500D03*
X471500D03*
X465500Y136500D03*
X470500Y151000D03*
X479500Y167500D03*
Y164500D03*
X468000Y169500D03*
Y172000D03*
X465800Y170700D03*
X468500Y180500D03*
X476500Y179000D03*
X479000Y181500D03*
X473850Y180500D03*
X472000Y178000D03*
X465600Y266700D03*
X471500Y259000D03*
X481500Y135000D03*
X484500Y130500D03*
X486000Y135000D03*
X491000Y182000D03*
X484953Y181547D03*
X494795Y224000D03*
X484500Y226000D03*
X490500Y233000D03*
X493000D03*
X487000Y226000D03*
X486000Y252000D03*
X483500Y254414D03*
X486000Y272000D03*
Y262500D03*
X506000Y116500D03*
X512500Y143300D03*
X512000Y136500D03*
Y139500D03*
X510500Y141500D03*
X510000Y135000D03*
X512500Y147000D03*
X509000Y149500D03*
Y153000D03*
X512000Y155000D03*
Y158500D03*
X510000Y160000D03*
X512500Y149500D03*
X502000Y210000D03*
X497500Y224000D03*
X511000Y211500D03*
Y209000D03*
X521176Y94150D03*
X514000Y92000D03*
X522000Y111150D03*
X528500Y122000D03*
X528000Y147000D03*
Y150000D03*
X514700Y154000D03*
X524000Y159500D03*
X521000D03*
X515500Y191500D03*
X517000Y189000D03*
X520500Y205000D03*
X513500Y208500D03*
X521500Y197200D03*
Y194700D03*
X518000Y203500D03*
Y206500D03*
X513500Y213000D03*
X530500Y92500D03*
X539000Y109200D03*
Y106500D03*
X533500Y169000D03*
X553000Y127500D03*
Y149500D03*
X552500Y152700D03*
X561217Y138773D03*
X561000Y142000D03*
X571500Y159000D03*
X568300D03*
X591500Y136000D03*
X580167Y149773D03*
X583467D03*
X591717Y153273D03*
X589217D03*
X591717Y155773D03*
X589217D03*
G54D14*
X50402Y239417D03*
X95677Y92554D03*
X272500Y274100D03*
X473630Y92554D03*
X518906Y239417D03*
G54D23*
G01X287526Y173521D02*
X343167D01*
X347834Y178188D01*
Y201166D01*
X344500Y204500D01*
X471500Y269000D03*
X495500D03*
G54D24*
G01X49500Y163000D02*
X53000Y166500D01*
X73000D01*
X76000Y169500D01*
X94500D01*
X97000Y167000D01*
G01X138800Y112968D02*
X159932D01*
X164200Y108700D01*
G01X281145Y179902D02*
X287526Y173521D01*
G01X344500Y204500D02*
Y205946D01*
G01X457000Y136500D02*
X459500Y139000D01*
X492500D01*
X496500Y135000D01*
X498800D01*
G01D02*
X500500D01*
X511000Y124500D01*
X513000D01*
G54D15*
X66089Y57779D03*
X68094Y59774D03*
X68084Y55774D03*
X70089Y57768D03*
X108910Y236967D03*
X102877D03*
Y243000D03*
X108910D03*
X137859Y145481D03*
X135859Y148481D03*
X137859Y151481D03*
X139859Y148481D03*
X161352Y100200D03*
X159352Y98200D03*
X157352Y100200D03*
X159352Y102200D03*
X238000D03*
X236000Y100200D03*
X240000Y100199D03*
X238001Y98201D03*
X316700Y102200D03*
X314700Y100200D03*
X316700Y98200D03*
X318700Y100200D03*
X398690Y219690D03*
X392670D03*
Y213670D03*
X398690D03*
X392670Y225710D03*
X398690D03*
X392670Y231730D03*
X398690D03*
X416818Y139076D03*
X414652Y145572D03*
Y143407D03*
Y141242D03*
Y139076D03*
X412487D03*
X410323Y139077D03*
X408158D03*
X405993D03*
Y141242D03*
Y143407D03*
Y145571D03*
X414652Y154231D03*
X414653Y152067D03*
X414652Y149902D03*
X416818Y147737D03*
Y156396D03*
X414652D03*
X405993Y149902D03*
Y147736D03*
X408158D03*
X410323D03*
X412487Y147737D03*
X414652D03*
X412487Y156396D03*
X410323Y156397D03*
X408158D03*
X405993D03*
Y154232D03*
Y152067D03*
X404710Y219690D03*
X410730D03*
X404710Y213670D03*
X410730D03*
X404710Y225710D03*
X410730D03*
X404710Y231730D03*
X410730D03*
X418983Y139076D03*
X421147Y139077D03*
X423312D03*
Y141242D03*
X423313Y143407D03*
X423312Y145571D03*
X421147Y147736D03*
X418983Y147737D03*
X423312Y147736D03*
Y149902D03*
Y152067D03*
Y154232D03*
Y156397D03*
X421147D03*
X418983Y156396D03*
G54D25*
G01X240196Y176752D02*
X241196D01*
X242715Y175233D01*
X244711D01*
X245900Y174044D01*
Y169956D01*
X242520Y166576D01*
Y163576D01*
X240044Y161100D01*
X228456D01*
X225956Y163600D01*
X218544D01*
X216400Y161456D01*
Y153544D01*
X218444Y151500D01*
X222518D01*
X223700Y150318D01*
G01X243345Y179901D02*
Y178901D01*
X245121Y177125D01*
Y176379D01*
X247000Y174500D01*
Y169500D01*
X243620Y166120D01*
Y163120D01*
X240500Y160000D01*
X228000D01*
X225500Y162500D01*
X219000D01*
X217500Y161000D01*
Y154000D01*
X218900Y152600D01*
X222518D01*
X223700Y153782D01*
G54D16*
X291300Y267600D03*
Y276500D03*
X341700Y267600D03*
Y276500D03*
G54D26*
G01X41435Y11341D02*
X-16000D01*
G01X-26417Y97705D02*
X-27666Y98635D01*
X-28292Y99720D01*
X-28500Y100960D01*
X-28083Y102510D01*
X-27042Y103595D01*
X-25792Y103905D01*
X-24541Y103750D01*
X-23500Y103130D01*
X-21417Y100030D01*
X-19958Y98635D01*
X-17875Y97705D01*
X-16000Y97395D01*
Y103905D01*
G01Y112740D02*
X-18708Y113050D01*
X-21000Y113515D01*
X-23083Y114135D01*
X-25375Y114910D01*
X-28500Y116150D01*
Y109950D01*
G01X-17875Y122040D02*
X-16833Y122970D01*
X-16208Y124055D01*
X-16000Y125450D01*
X-16417Y126845D01*
X-17250Y127930D01*
X-18708Y128705D01*
X-20375Y128860D01*
X-22042Y128550D01*
X-23083Y127775D01*
X-23917Y126690D01*
X-24125Y125605D01*
X-23917Y124520D01*
X-23083Y123125D01*
X-28500Y123590D01*
Y127775D01*
G01X-18500Y134440D02*
X-17041Y135370D01*
X-16208Y136610D01*
X-16000Y138005D01*
X-16208Y139245D01*
X-17250Y140485D01*
X-18500Y141260D01*
X-19750Y141415D01*
X-21208Y141105D01*
X-22250Y140020D01*
X-22667Y138935D01*
Y137540D01*
G01Y138935D02*
X-23292Y139865D01*
X-24333Y140640D01*
X-25583Y140950D01*
X-26833Y140640D01*
X-27875Y139865D01*
X-28500Y138470D01*
X-28292Y137075D01*
X-27458Y135680D01*
G01X-15583Y150250D02*
X-15792Y149940D01*
X-16208D01*
X-16417Y150250D01*
X-16208Y150560D01*
X-15792D01*
X-15583Y150250D01*
G01X-26417Y159705D02*
X-27666Y160635D01*
X-28292Y161720D01*
X-28500Y162960D01*
X-28083Y164510D01*
X-27042Y165595D01*
X-25792Y165905D01*
X-24541Y165750D01*
X-23500Y165130D01*
X-21417Y162030D01*
X-19958Y160635D01*
X-17875Y159705D01*
X-16000Y159395D01*
Y165905D01*
G01X-28500Y175050D02*
X-28083Y173810D01*
X-27042Y172880D01*
X-25792Y172260D01*
X-24125Y171795D01*
X-22250Y171640D01*
X-20375Y171795D01*
X-18708Y172260D01*
X-17458Y172880D01*
X-16417Y173810D01*
X-16000Y175050D01*
X-16417Y176290D01*
X-17458Y177220D01*
X-18708Y177840D01*
X-20375Y178305D01*
X-22250Y178460D01*
X-24125Y178305D01*
X-25792Y177840D01*
X-27042Y177220D01*
X-28083Y176290D01*
X-28500Y175050D01*
G01X-21208Y205705D02*
X-22667Y206790D01*
X-23500Y207720D01*
X-23917Y208960D01*
X-23500Y210045D01*
X-22667Y210820D01*
X-21417Y211440D01*
X-19958Y211595D01*
X-18708Y211440D01*
X-17458Y210820D01*
X-16417Y209890D01*
X-16000Y208805D01*
X-16417Y207565D01*
X-17666Y206480D01*
X-19542Y205860D01*
X-21625Y205705D01*
X-24333Y206015D01*
X-25792Y206480D01*
X-27250Y207255D01*
X-28292Y208340D01*
X-28500Y209425D01*
X-28083Y210510D01*
X-27042Y211285D01*
G01X-17458Y218415D02*
X-16417Y219500D01*
X-16000Y220740D01*
X-16417Y221980D01*
X-17666Y223065D01*
X-19542Y223840D01*
X-21417Y224150D01*
X-23708D01*
X-25583Y223840D01*
X-27250Y223065D01*
X-28083Y222135D01*
X-28500Y221050D01*
X-28083Y219810D01*
X-27250Y218880D01*
X-26000Y218260D01*
X-24333Y217950D01*
X-22875Y218260D01*
X-21417Y219035D01*
X-20583Y219965D01*
X-20375Y221050D01*
X-20791Y222290D01*
X-21833Y223220D01*
X-23708Y224150D01*
G01X-15583Y233450D02*
X-15792Y233140D01*
X-16208D01*
X-16417Y233450D01*
X-16208Y233760D01*
X-15792D01*
X-15583Y233450D01*
G01X-17458Y243215D02*
X-16417Y244300D01*
X-16000Y245540D01*
X-16417Y246780D01*
X-17666Y247865D01*
X-19542Y248640D01*
X-21417Y248950D01*
X-23708D01*
X-25583Y248640D01*
X-27250Y247865D01*
X-28083Y246935D01*
X-28500Y245850D01*
X-28083Y244610D01*
X-27250Y243680D01*
X-26000Y243060D01*
X-24333Y242750D01*
X-22875Y243060D01*
X-21417Y243835D01*
X-20583Y244765D01*
X-20375Y245850D01*
X-20791Y247090D01*
X-21833Y248020D01*
X-23708Y248950D01*
G01X-18500Y254840D02*
X-17041Y255770D01*
X-16208Y257010D01*
X-16000Y258405D01*
X-16208Y259645D01*
X-17250Y260885D01*
X-18500Y261660D01*
X-19750Y261815D01*
X-21208Y261505D01*
X-22250Y260420D01*
X-22667Y259335D01*
Y257940D01*
G01Y259335D02*
X-23292Y260265D01*
X-24333Y261040D01*
X-25583Y261350D01*
X-26833Y261040D01*
X-27875Y260265D01*
X-28500Y258870D01*
X-28292Y257475D01*
X-27458Y256080D01*
G01X-15750Y199600D02*
Y194950D01*
X-28250D01*
Y199600D01*
G01X-15750Y267800D02*
Y272450D01*
X-28250D01*
Y267800D01*
G01X54558Y286661D02*
X-16000D01*
G01X-6000Y136375D02*
Y11341D01*
G01X-8500Y26341D02*
X-6000Y11341D01*
X-3500Y26341D01*
X-8500D01*
G01X-6000Y167625D02*
Y286661D01*
G01X-3500Y271661D02*
X-6000Y286661D01*
X-8500Y271661D01*
X-3500D01*
G01X13004Y172606D02*
G03X21617Y14692I835938J-33598D01*
G01X12350Y169400D02*
Y134550D01*
G01Y149400D02*
Y315100D01*
G01X13004Y251228D02*
Y172606D01*
G01X40563Y251228D02*
X13004D01*
G01X190675Y305100D02*
X12350D01*
G01X27350Y307600D02*
X12350Y305100D01*
X27350Y302600D01*
Y307600D01*
G01X25510Y11341D02*
X51441D01*
G01X21617Y14692D02*
G03X25510Y11340I3894J585D01*
G01X40563Y251228D02*
G03X60248Y270913I0J19685D01*
G01X84832Y13482D02*
G03X51441Y11341I-16713J-790D01*
G01X60248Y270913D02*
Y282724D01*
G01X64185Y286661D02*
X505130D01*
G01X64185D02*
G03X60248Y282724I0J-3937D01*
G01X84830Y13482D02*
X84796Y11341D01*
G01D02*
X195797D01*
G01X209851Y29217D02*
G03X195797Y11341I2624J-16525D01*
G01X201290Y300725D02*
X202220Y299683D01*
X203305Y299058D01*
X204700Y298850D01*
X206095Y299267D01*
X207180Y300100D01*
X207955Y301558D01*
X208110Y303225D01*
X207800Y304892D01*
X207025Y305933D01*
X205940Y306767D01*
X204855Y306975D01*
X203770Y306767D01*
X202375Y305933D01*
X202840Y311350D01*
X207025D01*
G01X214465Y300308D02*
X215550Y299267D01*
X216790Y298850D01*
X218030Y299267D01*
X219115Y300516D01*
X219890Y302392D01*
X220200Y304267D01*
Y306558D01*
X219890Y308433D01*
X219115Y310100D01*
X218185Y310933D01*
X217100Y311350D01*
X215860Y310933D01*
X214930Y310100D01*
X214310Y308850D01*
X214000Y307183D01*
X214310Y305725D01*
X215085Y304267D01*
X216015Y303433D01*
X217100Y303225D01*
X218340Y303641D01*
X219270Y304683D01*
X220200Y306558D01*
G01X226555Y309267D02*
X227485Y310516D01*
X228570Y311142D01*
X229810Y311350D01*
X231360Y310933D01*
X232445Y309892D01*
X232755Y308642D01*
X232600Y307391D01*
X231980Y306350D01*
X228880Y304267D01*
X227485Y302808D01*
X226555Y300725D01*
X226245Y298850D01*
X232755D01*
G01X243760D02*
Y311350D01*
X238025Y302392D01*
X245775D01*
G01X254300Y298433D02*
X253990Y298642D01*
Y299058D01*
X254300Y299267D01*
X254610Y299058D01*
Y298642D01*
X254300Y298433D01*
G01X263755Y304058D02*
X264840Y305517D01*
X265770Y306350D01*
X267010Y306767D01*
X268095Y306350D01*
X268870Y305517D01*
X269490Y304267D01*
X269645Y302808D01*
X269490Y301558D01*
X268870Y300308D01*
X267940Y299267D01*
X266855Y298850D01*
X265615Y299267D01*
X264530Y300516D01*
X263910Y302392D01*
X263755Y304475D01*
X264065Y307183D01*
X264530Y308642D01*
X265305Y310100D01*
X266390Y311142D01*
X267475Y311350D01*
X268560Y310933D01*
X269335Y309892D01*
G01X276155Y309267D02*
X277085Y310516D01*
X278170Y311142D01*
X279410Y311350D01*
X280960Y310933D01*
X282045Y309892D01*
X282355Y308642D01*
X282200Y307391D01*
X281580Y306350D01*
X278480Y304267D01*
X277085Y302808D01*
X276155Y300725D01*
X275845Y298850D01*
X282355D01*
G01X209851Y42837D02*
Y29217D01*
G01X359457Y42837D02*
X209851D01*
G01X304100Y298850D02*
X299450D01*
Y311350D01*
X304100D01*
G01X313400Y298850D02*
Y311350D01*
X311540Y308850D01*
G01Y298850D02*
X315260D01*
G01X322390Y300725D02*
X323320Y299683D01*
X324405Y299058D01*
X325800Y298850D01*
X327195Y299267D01*
X328280Y300100D01*
X329055Y301558D01*
X329210Y303225D01*
X328900Y304892D01*
X328125Y305933D01*
X327040Y306767D01*
X325955Y306975D01*
X324870Y306767D01*
X323475Y305933D01*
X323940Y311350D01*
X328125D01*
G01X338200D02*
X336960Y310933D01*
X336030Y309892D01*
X335410Y308642D01*
X334945Y306975D01*
X334790Y305100D01*
X334945Y303225D01*
X335410Y301558D01*
X336030Y300308D01*
X336960Y299267D01*
X338200Y298850D01*
X339440Y299267D01*
X340370Y300308D01*
X340990Y301558D01*
X341455Y303225D01*
X341610Y305100D01*
X341455Y306975D01*
X340990Y308642D01*
X340370Y309892D01*
X339440Y310933D01*
X338200Y311350D01*
G01X350600Y298433D02*
X350290Y298642D01*
Y299058D01*
X350600Y299267D01*
X350910Y299058D01*
Y298642D01*
X350600Y298433D01*
G01X364860Y298850D02*
Y311350D01*
X359125Y302392D01*
X366875D01*
G01X372765Y300308D02*
X373850Y299267D01*
X375090Y298850D01*
X376330Y299267D01*
X377415Y300516D01*
X378190Y302392D01*
X378500Y304267D01*
Y306558D01*
X378190Y308433D01*
X377415Y310100D01*
X376485Y310933D01*
X375400Y311350D01*
X374160Y310933D01*
X373230Y310100D01*
X372610Y308850D01*
X372300Y307183D01*
X372610Y305725D01*
X373385Y304267D01*
X374315Y303433D01*
X375400Y303225D01*
X376640Y303641D01*
X377570Y304683D01*
X378500Y306558D01*
G01X373510Y11340D02*
G03X359457Y29217I-16678J1352D01*
G01D02*
Y42837D01*
G01X373510Y11340D02*
X484512D01*
G01X384700Y298850D02*
X389350D01*
Y311350D01*
X384700D01*
G01X398725Y305100D02*
X604812D01*
G01X517903Y13481D02*
G03X484512Y11340I-16714J-789D01*
G01X509067Y270913D02*
G03X528752Y251228I19685J0D01*
G01X509067Y282724D02*
Y270913D01*
G01Y282724D02*
G03X505130Y286661I-3937J0D01*
G01X517867Y11340D02*
X536702D01*
G01X517901Y13481D02*
X517867Y11340D01*
G01X536702D02*
Y72364D01*
G01D02*
X581190D01*
G01X562214Y251228D02*
X528752D01*
G01X604812Y164803D02*
X562214D01*
G01D02*
Y251228D01*
G01X581190Y125514D02*
Y72364D01*
G01X604812Y125514D02*
X581190D01*
G01X589812Y302600D02*
X604812Y305100D01*
X589812Y307600D01*
Y302600D01*
G01X604812Y125514D02*
Y164803D01*
G01Y174803D02*
Y315100D01*
G54D17*
X351500Y87500D03*
X352000Y92000D03*
X349500Y90000D03*
X354000Y89500D03*
X375487Y92661D03*
Y87661D03*
X373862Y90161D03*
X377862D03*
G54D27*
G01X286000Y283000D02*
X284700Y284300D01*
X263500D01*
X260550Y281350D01*
X118743D01*
X115868Y284225D01*
X69725D01*
X63000Y277500D01*
Y262686D01*
X59955Y259641D01*
Y259455D01*
X59200Y258700D01*
Y250100D01*
X60645Y248655D01*
Y231245D01*
X57000Y227600D01*
X20600D01*
X19500Y226500D01*
G01X65000Y274000D02*
X66000Y273000D01*
Y257757D01*
X66949Y256808D01*
Y221692D01*
X66000Y220743D01*
Y216000D01*
X48824Y198824D01*
X45000D01*
G01X47000Y200792D02*
X61545Y215337D01*
Y219045D01*
X65000Y222500D01*
Y256000D01*
X62000Y259000D01*
X61500D01*
G01X47000Y208664D02*
X48664D01*
X63500Y223500D01*
Y253500D01*
X61500Y255500D01*
G01Y252000D02*
X62300Y250068D01*
Y224300D01*
X48955Y210955D01*
X45455D01*
X45000Y210500D01*
G01X155500Y80500D02*
X101500D01*
X77500Y56500D01*
Y49642D01*
X75358Y47500D01*
G01X297144Y276148D02*
Y279856D01*
X295600Y281400D01*
X283000D01*
X281200Y283200D01*
X264500D01*
X261500Y280200D01*
X144200D01*
X133300Y269300D01*
X109400D01*
X108251Y270449D01*
X96101D01*
X94050Y272500D01*
X78800D01*
X73000Y266700D01*
Y259800D01*
X74800Y258000D01*
Y208300D01*
X71500Y205000D01*
Y170000D01*
G01X287000Y278500D02*
X285400Y276900D01*
Y272900D01*
X277049Y264549D01*
X269428D01*
X268628Y265349D01*
X268551D01*
X257000Y276900D01*
X144843D01*
X135043Y267100D01*
X108574D01*
X107174Y268500D01*
X95293D01*
X93444Y270349D01*
X83892D01*
X78499Y264956D01*
Y263342D01*
X78500Y263341D01*
Y217000D01*
X83000Y212500D01*
X90500D01*
X94533Y208467D01*
Y207200D01*
G01X379800Y282000D02*
X377500D01*
X373200Y277700D01*
X361300D01*
X356800Y282200D01*
X307600D01*
X296900Y271500D01*
X289000D01*
X276300Y258800D01*
X270300D01*
X269400Y259700D01*
X266700D01*
X265600Y260800D01*
Y263500D01*
X257600Y271500D01*
X144000D01*
X133400Y260900D01*
X125785D01*
X123885Y259000D01*
X102036D01*
X92636Y268400D01*
X84700D01*
X80449Y264149D01*
Y227096D01*
X84545Y223000D01*
X105500D01*
X107000Y221500D01*
Y220000D01*
X108633Y218367D01*
Y218000D01*
G01X104300Y221300D02*
X98800D01*
X97000Y219500D01*
Y211500D01*
X100356Y208144D01*
X100682D01*
X101889Y206937D01*
Y206318D01*
X102851Y205356D01*
X103644D01*
X118551Y190449D01*
Y183808D01*
X118550Y183807D01*
Y182193D01*
X118551Y182192D01*
Y181793D01*
X173844Y126500D01*
X198500D01*
X204000Y121000D01*
X261000D01*
X275000Y135000D01*
X344000D01*
X369500Y160500D01*
Y185000D01*
X374000Y189500D01*
X396500D01*
X399000Y192000D01*
G01X262246Y233451D02*
X260696Y235001D01*
Y242696D01*
X269000Y251000D01*
Y252100D01*
X267100Y254000D01*
X265255D01*
X260300Y258955D01*
X139155D01*
X130000Y249800D01*
X128000D01*
X126500Y248300D01*
X115300D01*
X109100Y254500D01*
X91400D01*
X89400Y256500D01*
G01X265395Y230302D02*
Y231267D01*
X263850Y232812D01*
Y244435D01*
X270000Y250585D01*
Y252700D01*
X267400Y255300D01*
X265655D01*
X261000Y259955D01*
X138055D01*
X131045Y252945D01*
X127959D01*
X127214Y252200D01*
X113700D01*
X110400Y255500D01*
X93940D01*
X90740Y258700D01*
X87300D01*
X85600Y257000D01*
Y256700D01*
G01X265395Y239752D02*
Y244395D01*
X271000Y250000D01*
Y253400D01*
X267800Y256600D01*
X266255D01*
X261900Y260955D01*
X239944D01*
X234399Y266500D01*
X143185D01*
X131585Y254900D01*
X126200D01*
X124600Y256500D01*
X94355D01*
X90855Y260000D01*
X87600D01*
X84686Y262914D01*
Y263000D01*
X84676Y263010D01*
G01X94000Y262500D02*
X96354Y260145D01*
X99082D01*
X101227Y258000D01*
X124300D01*
X126200Y259900D01*
X134500D01*
X142600Y268000D01*
X244800D01*
X248400Y264400D01*
X255400D01*
X257700Y262100D01*
X262500D01*
X266600Y258000D01*
X268300D01*
X272000Y254300D01*
Y249585D01*
X267000Y244585D01*
Y240392D01*
X266996Y240388D01*
Y239106D01*
X267000Y239102D01*
Y238146D01*
X268545Y236601D01*
G01X396000Y197000D02*
X394500Y195500D01*
X373500D01*
X366000Y188000D01*
Y163549D01*
X341451Y139000D01*
X274000D01*
X259500Y124500D01*
X205500D01*
X200000Y130000D01*
X176000D01*
X123500Y182500D01*
Y195500D01*
X103500Y215500D01*
Y217100D01*
G01X100000Y219500D02*
Y213000D01*
X108500Y204500D01*
X111000D01*
X115250Y200250D01*
Y197750D01*
X120500Y192500D01*
Y183000D01*
X175051Y128449D01*
X199551D01*
X205000Y123000D01*
X260000D01*
X274500Y137500D01*
X342073D01*
X367500Y162927D01*
Y186500D01*
X374645Y193645D01*
X396145D01*
X398500Y196000D01*
Y199560D01*
X396780Y201280D01*
G01X105500Y218900D02*
Y217500D01*
X116500Y206500D01*
X121000D01*
X125000Y202500D01*
Y183000D01*
X177000Y131000D01*
X201000D01*
X206000Y126000D01*
X259000D01*
X276500Y143500D01*
X343829D01*
X364500Y164171D01*
Y189500D01*
X366500Y191500D01*
Y214000D01*
X369500Y217000D01*
Y220000D01*
X375000Y225500D01*
X378000D01*
G01X107862Y263702D02*
X110764Y260800D01*
X124270D01*
X125370Y261900D01*
X132600D01*
X144900Y274200D01*
X256900D01*
X267700Y263400D01*
X267820D01*
X268620Y262600D01*
X278100D01*
X288000Y272500D01*
X296485D01*
X307885Y283900D01*
X359600D01*
X362200Y281300D01*
X362600D01*
X363930Y279970D01*
X364100D01*
G01X259500Y257000D02*
X259000Y257500D01*
X140200D01*
X135000Y252300D01*
Y231500D01*
X127000Y223500D01*
Y208500D01*
X125300Y206800D01*
Y205300D01*
G01X379400Y228600D02*
X374600D01*
X365000Y219000D01*
Y192500D01*
X363000Y190500D01*
Y166000D01*
X342000Y145000D01*
X274000D01*
X273000Y144000D01*
X269500D01*
X267000Y141500D01*
Y136500D01*
X258000Y127500D01*
X220000D01*
X216500Y131000D01*
X209000D01*
X207500Y129500D01*
X204500D01*
X201500Y132500D01*
X179000D01*
X144000Y167500D01*
G01X156516Y216358D02*
X173874Y199000D01*
X176055D01*
X177022Y198033D01*
Y196815D01*
X177988Y195849D01*
X179351D01*
X180607Y194593D01*
X201463D01*
X204067Y197197D01*
X221934D01*
X222899Y198162D01*
Y199441D01*
X223806Y200347D01*
X225084D01*
X225999Y201262D01*
Y209806D01*
X227595Y211402D01*
G01X221296Y214552D02*
X219691Y216156D01*
Y221491D01*
X218785Y222397D01*
X218423D01*
X218363Y222456D01*
X217470D01*
X217411Y222398D01*
X214356D01*
X212573Y220614D01*
X198609D01*
X198214Y221009D01*
Y222200D01*
X197820Y222594D01*
X197258D01*
X196864Y222200D01*
Y221009D01*
X196469Y220614D01*
X195908D01*
X195513Y221009D01*
Y222200D01*
X195119Y222594D01*
X194557D01*
X194163Y222200D01*
Y221009D01*
X193768Y220614D01*
X192200D01*
X192129Y220685D01*
X187250D01*
X185836Y222099D01*
Y230443D01*
X181664Y234615D01*
X176856D01*
X163067Y220827D01*
X161370D01*
X160097Y222099D01*
G01X221296Y208251D02*
X219749Y209798D01*
X215635D01*
Y209797D01*
X211207D01*
X208801Y207392D01*
X186684D01*
X180037Y214038D01*
Y218794D01*
X180110Y218866D01*
Y220145D01*
X180037Y220217D01*
Y221944D01*
X180107Y222014D01*
Y223292D01*
X179179Y224221D01*
X171128D01*
X170138Y223231D01*
Y216018D01*
X167310Y213190D01*
X166037D01*
X156545Y222682D01*
G01X211845Y236601D02*
X207243Y231999D01*
X202948D01*
X201841Y233105D01*
Y233664D01*
X202697Y234520D01*
Y235078D01*
X202301Y235474D01*
X201742D01*
X200887Y234619D01*
X200328D01*
X199932Y235015D01*
Y235573D01*
X200788Y236429D01*
Y236987D01*
X200392Y237383D01*
X199833D01*
X198977Y236528D01*
X198419D01*
X198023Y236924D01*
Y237482D01*
X198878Y238338D01*
Y238897D01*
X198482Y239293D01*
X197924D01*
X197068Y238437D01*
X196510D01*
X196114Y238833D01*
Y239392D01*
X196969Y240247D01*
Y240806D01*
X196573Y241202D01*
X196015D01*
X195159Y240346D01*
X194600D01*
X194204Y240742D01*
Y241301D01*
X195060Y242156D01*
Y242715D01*
X194664Y243111D01*
X194105D01*
X193250Y242255D01*
X192691D01*
X192295Y242651D01*
Y243210D01*
X193151Y244066D01*
Y244624D01*
X192755Y245020D01*
X192196D01*
X191341Y244165D01*
X190782D01*
X190386Y244561D01*
Y245119D01*
X191242Y245975D01*
Y246533D01*
X190846Y246929D01*
X190287D01*
X189431Y246074D01*
X187433D01*
X183682Y242323D01*
X169886D01*
X156516Y228953D01*
G01X208605Y224362D02*
X204786Y228180D01*
X193331D01*
X192491Y229021D01*
Y229579D01*
X193983Y231071D01*
Y231630D01*
X193587Y232026D01*
X193028D01*
X191536Y230534D01*
X190978D01*
X190582Y230930D01*
Y231488D01*
X192074Y232980D01*
Y233539D01*
X191678Y233935D01*
X191119D01*
X189627Y232443D01*
X189069D01*
X188673Y232839D01*
Y233397D01*
X190165Y234889D01*
Y235448D01*
X189769Y235844D01*
X189210D01*
X187718Y234352D01*
X187159D01*
X186763Y234748D01*
Y235307D01*
X188255Y236799D01*
Y237357D01*
X187860Y237753D01*
X187301D01*
X185809Y236261D01*
X185250D01*
X183290Y238221D01*
X173037D01*
X168434Y233618D01*
Y231850D01*
X163990Y227407D01*
X154915D01*
X153366Y228956D01*
G01X224446Y211402D02*
X222786Y213061D01*
Y213857D01*
X222841Y213912D01*
Y221491D01*
X221935Y222398D01*
X220715D01*
X219750Y223362D01*
Y224583D01*
X218785Y225548D01*
X218679D01*
X218646Y225581D01*
X211241D01*
X210300Y224641D01*
Y223654D01*
X209453Y222806D01*
X204221D01*
X200614Y226413D01*
X192836D01*
X183283Y235966D01*
X172691D01*
X169784Y233060D01*
Y231221D01*
X164620Y226056D01*
X155802D01*
X155553Y225807D01*
X153366D01*
G01X218146Y233452D02*
X216601Y231907D01*
X214355D01*
X213451Y232811D01*
Y232812D01*
X213413Y232850D01*
Y236312D01*
X213390Y236336D01*
Y237241D01*
X212485Y238146D01*
X211205D01*
X211139Y238080D01*
X203220D01*
X192100Y249200D01*
X187339D01*
X182159Y244020D01*
X170179D01*
X168176Y246022D01*
X167618D01*
X167222Y245626D01*
Y245068D01*
X167723Y244567D01*
Y244008D01*
X167327Y243612D01*
X166768D01*
X166267Y244113D01*
X165709D01*
X165313Y243717D01*
Y243158D01*
X165813Y242658D01*
Y242099D01*
X165417Y241703D01*
X164859D01*
X164358Y242204D01*
X163799D01*
X163404Y241808D01*
Y241249D01*
X163904Y240749D01*
Y240190D01*
X163508Y239794D01*
X162950D01*
X162449Y240295D01*
X161890D01*
X161494Y239899D01*
Y239340D01*
X161995Y238839D01*
Y238281D01*
X161599Y237885D01*
X161040D01*
X160540Y238385D01*
X159981D01*
X159585Y237989D01*
Y237431D01*
X160086Y236930D01*
Y236372D01*
X159690Y235976D01*
X159131D01*
X158631Y236476D01*
X158072D01*
X157676Y236080D01*
Y235522D01*
X158177Y235021D01*
Y234462D01*
X157781Y234066D01*
X157222D01*
X156721Y234567D01*
X156163D01*
X154655Y233060D01*
G01X175416Y222655D02*
X173872Y221111D01*
Y215717D01*
X174777Y214811D01*
X176436D01*
X181989Y209258D01*
Y208700D01*
X181063Y207773D01*
Y207215D01*
X181459Y206819D01*
X182017D01*
X182944Y207745D01*
X183502D01*
X183898Y207349D01*
Y206790D01*
X182972Y205864D01*
Y205306D01*
X183368Y204910D01*
X183927D01*
X184853Y205836D01*
X185412D01*
X185807Y205440D01*
Y204881D01*
X184881Y203955D01*
Y203396D01*
X185277Y203000D01*
X185836D01*
X186762Y203927D01*
X190168D01*
X190562Y204321D01*
Y205088D01*
X190957Y205482D01*
X191518D01*
X191913Y205088D01*
Y204321D01*
X192307Y203927D01*
X192869D01*
X193263Y204321D01*
Y205088D01*
X193658Y205482D01*
X194219D01*
X194614Y205088D01*
Y204321D01*
X195008Y203927D01*
X195570D01*
X195964Y204321D01*
Y205088D01*
X196359Y205482D01*
X196920D01*
X197315Y205088D01*
Y204321D01*
X197710Y203927D01*
X198271D01*
X198666Y204321D01*
Y205088D01*
X199060Y205482D01*
X199622D01*
X200016Y205088D01*
Y204321D01*
X200411Y203927D01*
X200972D01*
X201367Y204321D01*
Y205088D01*
X201761Y205482D01*
X202323D01*
X202717Y205088D01*
Y204321D01*
X203112Y203927D01*
X203673D01*
X204068Y204321D01*
Y205088D01*
X204462Y205482D01*
X205024D01*
X205418Y205088D01*
Y204321D01*
X205813Y203927D01*
X206374D01*
X206769Y204321D01*
Y205088D01*
X207164Y205482D01*
X207725D01*
X208120Y205088D01*
Y204321D01*
X208514Y203927D01*
X209076D01*
X209470Y204321D01*
Y205088D01*
X209865Y205482D01*
X210426D01*
X210821Y205088D01*
Y204321D01*
X211215Y203927D01*
X211777D01*
X212171Y204321D01*
Y205088D01*
X212566Y205482D01*
X213127D01*
X213522Y205088D01*
Y204321D01*
X213916Y203927D01*
X214478D01*
X214872Y204321D01*
Y205088D01*
X215267Y205482D01*
X215828D01*
X216223Y205088D01*
Y204321D01*
X216618Y203927D01*
X217179D01*
X217574Y204321D01*
Y205088D01*
X217968Y205482D01*
X218530D01*
X218924Y205088D01*
Y204321D01*
X219320Y203927D01*
X221295Y201952D01*
G01X224446D02*
X223479D01*
X222841Y201314D01*
Y201313D01*
X221934Y200406D01*
X221933D01*
X221899Y200372D01*
X220646D01*
X220612Y200406D01*
X217521D01*
X217506Y200391D01*
X210160D01*
X209100Y199331D01*
X208226D01*
X207831Y199725D01*
Y200845D01*
X207436Y201240D01*
X206875D01*
X206480Y200845D01*
Y199725D01*
X206086Y199331D01*
X205524D01*
X205130Y199725D01*
Y200845D01*
X204735Y201240D01*
X204174D01*
X203779Y200845D01*
Y199725D01*
X203385Y199331D01*
X202823D01*
X202429Y199725D01*
Y200845D01*
X202034Y201240D01*
X201473D01*
X201078Y200845D01*
Y199725D01*
X200684Y199331D01*
X200122D01*
X199728Y199725D01*
Y200845D01*
X199333Y201240D01*
X198772D01*
X198377Y200845D01*
Y199725D01*
X197982Y199331D01*
X197421D01*
X197026Y199725D01*
Y200845D01*
X196632Y201240D01*
X196070D01*
X195676Y200845D01*
Y199725D01*
X195281Y199331D01*
X194720D01*
X194325Y199725D01*
Y200845D01*
X193931Y201240D01*
X193369D01*
X192975Y200845D01*
Y199725D01*
X192580Y199331D01*
X192019D01*
X191624Y199725D01*
Y200845D01*
X191230Y201240D01*
X190668D01*
X190274Y200845D01*
Y199725D01*
X189879Y199331D01*
X189318D01*
X188923Y199725D01*
Y200845D01*
X188528Y201240D01*
X187967D01*
X187572Y200845D01*
Y199725D01*
X187178Y199331D01*
X186189D01*
X176962Y208558D01*
Y210696D01*
X176056Y211602D01*
X174834D01*
X173812Y212624D01*
Y213845D01*
X172259Y215397D01*
Y222665D01*
G01X221296Y211402D02*
X219717Y212981D01*
X209574D01*
X209179Y212587D01*
Y210472D01*
X208785Y210078D01*
X208223D01*
X207829Y210472D01*
Y212587D01*
X207434Y212981D01*
X206873D01*
X206478Y212587D01*
Y210472D01*
X206084Y210078D01*
X205522D01*
X205128Y210472D01*
Y212587D01*
X204733Y212981D01*
X204172D01*
X203777Y212587D01*
Y210472D01*
X203383Y210078D01*
X202821D01*
X202427Y210472D01*
Y212587D01*
X202032Y212981D01*
X201471D01*
X201076Y212587D01*
Y210472D01*
X200681Y210078D01*
X200120D01*
X199725Y210472D01*
Y212587D01*
X199331Y212981D01*
X198769D01*
X198375Y212587D01*
Y210472D01*
X197980Y210078D01*
X197419D01*
X197024Y210472D01*
Y212587D01*
X196630Y212981D01*
X196068D01*
X195674Y212587D01*
Y210472D01*
X195279Y210078D01*
X194718D01*
X194323Y210472D01*
Y212587D01*
X193929Y212981D01*
X193367D01*
X192973Y212587D01*
Y210472D01*
X192578Y210078D01*
X192017D01*
X191622Y210472D01*
Y212587D01*
X191227Y212981D01*
X184206D01*
X181937Y215250D01*
Y226400D01*
X181030Y227306D01*
X179957D01*
X179895Y227369D01*
X178595D01*
X178558Y227332D01*
X177038D01*
X175416Y228954D01*
G01X218146Y220851D02*
X216599Y219305D01*
Y217120D01*
X215635Y216156D01*
X214828D01*
X214769Y216097D01*
X211207D01*
X209996Y214887D01*
X208828D01*
X208433Y215281D01*
Y216684D01*
X208039Y217079D01*
X207477D01*
X207083Y216684D01*
Y215281D01*
X206688Y214887D01*
X206127D01*
X205732Y215281D01*
Y216684D01*
X205338Y217079D01*
X204776D01*
X204382Y216684D01*
Y215281D01*
X203987Y214887D01*
X203426D01*
X203031Y215281D01*
Y216684D01*
X202637Y217079D01*
X202075D01*
X201681Y216684D01*
Y215281D01*
X201286Y214887D01*
X200725D01*
X200330Y215281D01*
Y216684D01*
X199935Y217079D01*
X199374D01*
X198979Y216684D01*
Y215281D01*
X198585Y214887D01*
X198023D01*
X197629Y215281D01*
Y216684D01*
X197234Y217079D01*
X196673D01*
X196278Y216684D01*
Y215281D01*
X195884Y214887D01*
X195322D01*
X194928Y215281D01*
Y216684D01*
X194533Y217079D01*
X193972D01*
X193577Y216684D01*
Y215281D01*
X193183Y214887D01*
X192621D01*
X192227Y215281D01*
Y216684D01*
X191832Y217079D01*
X191271D01*
X190876Y216684D01*
Y215281D01*
X190481Y214887D01*
X189920D01*
X189525Y215281D01*
Y216684D01*
X189131Y217079D01*
X188569D01*
X188175Y216684D01*
Y215281D01*
X187780Y214887D01*
X186260D01*
X183856Y217291D01*
Y229595D01*
X182937Y230514D01*
X177906D01*
X177482Y230938D01*
X175158D01*
X173603Y229383D01*
Y227618D01*
X175416Y225805D01*
G01X211845Y233452D02*
X207924Y229531D01*
X199617D01*
X198897Y230251D01*
Y230809D01*
X200036Y231948D01*
Y232507D01*
X199640Y232903D01*
X199081D01*
X197943Y231764D01*
X197384D01*
X196988Y232160D01*
Y232719D01*
X198127Y233857D01*
Y234416D01*
X197731Y234812D01*
X197172D01*
X196034Y233673D01*
X195475D01*
X195079Y234069D01*
Y234628D01*
X196218Y235766D01*
Y236325D01*
X195822Y236721D01*
X195263D01*
X194124Y235582D01*
X193566D01*
X193170Y235978D01*
Y236537D01*
X194308Y237675D01*
Y238234D01*
X193912Y238630D01*
X193354D01*
X192215Y237492D01*
X191657D01*
X191261Y237888D01*
Y238446D01*
X192399Y239585D01*
Y240143D01*
X192003Y240539D01*
X191445D01*
X190306Y239401D01*
X189747D01*
X189352Y239797D01*
Y240355D01*
X190490Y241494D01*
Y242052D01*
X190094Y242448D01*
X189535D01*
X187407Y240320D01*
X186848D01*
X186452Y240716D01*
Y241275D01*
X188581Y243403D01*
Y243962D01*
X188185Y244358D01*
X187626D01*
X183682Y240413D01*
X171870D01*
X165966Y234509D01*
Y232070D01*
G01X206506Y253000D02*
Y252994D01*
X212288Y247212D01*
X212946D01*
X219750Y240408D01*
Y235844D01*
X220597Y234997D01*
X221935D01*
X222888Y234044D01*
Y232765D01*
X223806Y231848D01*
X225084D01*
X225991Y230941D01*
Y229663D01*
X226956Y228697D01*
X234597D01*
X235441Y229542D01*
Y230882D01*
X236465Y231906D01*
X237806D01*
X238650Y232750D01*
Y234091D01*
X240196Y235637D01*
Y236601D01*
G01X224446Y233452D02*
Y234416D01*
X222900Y235962D01*
Y238139D01*
X222747Y238292D01*
Y242464D01*
X219848Y245363D01*
X217726D01*
X212143Y250946D01*
Y251707D01*
X211050Y252801D01*
G01X227595Y233452D02*
X226050Y234998D01*
Y237241D01*
X226141Y237332D01*
Y242181D01*
X219282Y249040D01*
Y252434D01*
G01X222727Y252400D02*
Y248282D01*
X225344Y245665D01*
Y245319D01*
X226308Y244354D01*
X226655D01*
X227595Y243414D01*
Y236601D01*
G01X422500Y240790D02*
X416210Y234500D01*
X388500D01*
X387455Y233455D01*
X376955D01*
X363500Y220000D01*
Y200000D01*
X357000Y193500D01*
Y168500D01*
X350000Y161500D01*
X291500D01*
X288500Y164500D01*
X276500D01*
X272092Y168908D01*
X271056D01*
X267002Y172962D01*
Y174179D01*
X266035Y175146D01*
X264818D01*
X261607Y178357D01*
X249006D01*
X245863Y181500D01*
X236000D01*
X235440Y180940D01*
Y175144D01*
X233898Y173602D01*
X233895D01*
G01X420500Y242500D02*
X415000Y237000D01*
X378500D01*
X362000Y220500D01*
Y200500D01*
X355500Y194000D01*
Y169000D01*
X349500Y163000D01*
X292500D01*
X289500Y166000D01*
X277500D01*
X274592Y168908D01*
X274206D01*
X273302Y169812D01*
Y171030D01*
X272336Y171996D01*
X271118D01*
X270152Y172962D01*
Y174180D01*
X269186Y175146D01*
X267967D01*
X267001Y176112D01*
Y177331D01*
X266036Y178296D01*
X264817D01*
X263852Y179261D01*
Y180480D01*
X262886Y181446D01*
X249554D01*
X249492Y181508D01*
X249006D01*
X245856Y184658D01*
X236405D01*
X236063Y185000D01*
X233500D01*
X232290Y183790D01*
Y172210D01*
X233896Y170604D01*
Y170452D01*
G01X227595Y179901D02*
Y180866D01*
X229202Y182473D01*
Y186842D01*
X230106Y187746D01*
X245918D01*
X249006Y184658D01*
X262823D01*
X266940Y180541D01*
Y179261D01*
X267905Y178296D01*
X269185D01*
X270089Y177392D01*
Y176113D01*
X271056Y175146D01*
X272336D01*
X273240Y174242D01*
Y172962D01*
X274206Y171996D01*
X275486D01*
X276390Y171092D01*
Y169610D01*
X277500Y168500D01*
X351500D01*
X354000Y171000D01*
Y194500D01*
X360500Y201000D01*
Y221500D01*
X378000Y239000D01*
X393000D01*
X398000Y244000D01*
Y246000D01*
X400500Y248500D01*
X404877D01*
X404946Y248569D01*
G01X230746Y233451D02*
X229141Y235056D01*
Y237241D01*
X229111Y237271D01*
Y246282D01*
X228474Y246919D01*
Y251500D01*
G01X237046Y233451D02*
X237650Y234055D01*
Y234750D01*
X238650Y235750D01*
Y237241D01*
X238727Y237318D01*
Y241615D01*
X244210Y247098D01*
Y252788D01*
G01X233896Y233452D02*
X235441Y234998D01*
Y237241D01*
X235404Y237278D01*
Y240838D01*
X241202Y246636D01*
Y252434D01*
G01X259000Y253000D02*
X256171Y250171D01*
X253647D01*
X241768Y238292D01*
Y235024D01*
X240196Y233452D01*
G01X238374Y252434D02*
X239545Y251263D01*
Y248045D01*
X232293Y240793D01*
Y231849D01*
X230746Y230302D01*
G01X262245Y186202D02*
X260701Y187746D01*
X249066D01*
X248101Y188712D01*
X247500Y189313D01*
Y225000D01*
X251257Y228757D01*
X266036D01*
X266940Y229661D01*
Y230940D01*
X267907Y231907D01*
X269186D01*
X270090Y232811D01*
Y246090D01*
X273000Y249000D01*
X276000D01*
G01X267000Y251500D02*
Y251000D01*
X260020Y244020D01*
X254820D01*
X251300Y240500D01*
Y238705D01*
X250249Y237654D01*
Y237205D01*
X249646Y236601D01*
G01X263500Y253120D02*
Y250000D01*
X261833Y248333D01*
X254920D01*
X248884Y242296D01*
X248592D01*
X247100Y240804D01*
Y240513D01*
X245233Y238646D01*
Y235339D01*
X243345Y233452D01*
G01X265396Y208252D02*
X267205Y206443D01*
X268996D01*
X271300Y204139D01*
X275780D01*
X277194Y202725D01*
X323716D01*
X336172Y215181D01*
X336409D01*
X336410Y215182D01*
X337582D01*
X338298Y215898D01*
Y217329D01*
X339301Y218333D01*
X340543D01*
X340800Y218589D01*
X341508Y219296D01*
Y224571D01*
X339904Y226176D01*
G01X268545Y211402D02*
X270150Y209797D01*
Y207612D01*
X271175Y206587D01*
X277238D01*
X277357Y206706D01*
X281794D01*
X283776Y204724D01*
X285131D01*
X285580Y205174D01*
Y205284D01*
X285599Y205303D01*
Y206797D01*
X283547Y208849D01*
Y209485D01*
X284348Y210286D01*
X285058D01*
X291270Y204075D01*
X323157D01*
X334045Y214963D01*
Y217150D01*
X335228Y218332D01*
X337232D01*
X337234Y218334D01*
X337394D01*
X338937Y219877D01*
X339904D01*
G01X265396Y211402D02*
X267000Y213006D01*
X269185D01*
X270092Y213912D01*
Y215133D01*
X271090Y216131D01*
X283820D01*
X292444Y207507D01*
X310782D01*
X312159Y208884D01*
X322244D01*
X327964Y214604D01*
Y216445D01*
X328042Y216523D01*
Y226759D01*
X327964Y226837D01*
Y228322D01*
X324811Y231475D01*
X323114D01*
X322176Y230537D01*
Y230498D01*
X321083Y229405D01*
G01X274846Y195651D02*
X276390Y197196D01*
Y200000D01*
X277029Y200639D01*
X311874D01*
X313109Y199405D01*
X322960D01*
X325607Y202051D01*
X326243D01*
X328072Y200223D01*
X328708D01*
X329345Y200859D01*
Y201496D01*
X327516Y203324D01*
Y203961D01*
X328318Y204763D01*
X328955D01*
X329663Y204055D01*
X330300D01*
X330936Y204691D01*
Y205327D01*
X330228Y206036D01*
Y206672D01*
X330864Y207309D01*
X331500D01*
X332209Y206600D01*
X332845D01*
X333482Y207237D01*
Y207873D01*
X332773Y208582D01*
Y209218D01*
X335580Y212024D01*
X337497D01*
X337517Y212005D01*
X343005D01*
X345000Y214000D01*
Y215725D01*
X344000Y216725D01*
X339906D01*
X339904Y216727D01*
G01X274846Y220851D02*
Y221819D01*
X273300Y223364D01*
Y230976D01*
X274206Y231881D01*
X281760D01*
X282692Y232813D01*
Y235295D01*
X284904Y237507D01*
X287453D01*
X287902Y237057D01*
Y236267D01*
X288352Y235817D01*
X289253D01*
X289703Y236267D01*
Y237057D01*
X290152Y237507D01*
X291053D01*
X291503Y237057D01*
Y236267D01*
X291953Y235817D01*
X292854D01*
X293303Y236267D01*
Y237057D01*
X293753Y237507D01*
X294654D01*
X295104Y237057D01*
Y236267D01*
X295553Y235817D01*
X296454D01*
X296904Y236267D01*
Y237057D01*
X297354Y237507D01*
X298254D01*
X298704Y237057D01*
Y236267D01*
X299154Y235817D01*
X300055D01*
X300504Y236267D01*
Y237057D01*
X300954Y237507D01*
X301855D01*
X302305Y237057D01*
Y236267D01*
X302754Y235817D01*
X303655D01*
X304105Y236267D01*
Y237057D01*
X304555Y237507D01*
X305456D01*
X305905Y237057D01*
Y236267D01*
X306355Y235817D01*
X307256D01*
X307706Y236267D01*
Y237057D01*
X308155Y237507D01*
X309056D01*
X309506Y237057D01*
Y236267D01*
X309956Y235817D01*
X310856D01*
X311306Y236267D01*
Y237057D01*
X311756Y237507D01*
X312657D01*
X313107Y237057D01*
Y236267D01*
X313556Y235817D01*
X314457D01*
X314907Y236267D01*
Y237057D01*
X315357Y237507D01*
X316257D01*
X316707Y237057D01*
Y236267D01*
X317157Y235817D01*
X318058D01*
X318507Y236267D01*
Y237057D01*
X318957Y237507D01*
X319833D01*
X320822Y236517D01*
Y234474D01*
X317810Y231461D01*
Y229302D01*
G01X339904Y223026D02*
X338357Y221480D01*
X336114D01*
X331376Y226218D01*
X330669D01*
X329873Y225423D01*
Y224716D01*
X334434Y220155D01*
Y219448D01*
X333515Y218528D01*
X332808D01*
X331712Y219624D01*
X331005D01*
X329873Y218493D01*
Y217786D01*
X331500Y216160D01*
Y215453D01*
X321671Y205624D01*
X292050D01*
X284693Y212981D01*
X279566D01*
X277996Y214552D01*
G01X274846Y227152D02*
Y226187D01*
X276450Y224583D01*
Y223362D01*
X277359Y222453D01*
X285548D01*
X285997Y222003D01*
Y220640D01*
X286447Y220190D01*
X287348D01*
X287798Y220640D01*
Y222003D01*
X288247Y222453D01*
X289148D01*
X289598Y222003D01*
Y220640D01*
X290048Y220190D01*
X290949D01*
X291398Y220640D01*
Y222003D01*
X291848Y222453D01*
X292749D01*
X293199Y222003D01*
Y218398D01*
X293528Y218069D01*
X294377D01*
X295013Y218705D01*
Y220626D01*
X294999Y220640D01*
Y222003D01*
X295449Y222453D01*
X296349D01*
X296799Y222003D01*
Y219606D01*
X297488Y218917D01*
X298054D01*
X299963Y220827D01*
X300811D01*
X301377Y220261D01*
Y219503D01*
X298291Y216417D01*
X298301Y216407D01*
Y215771D01*
X299464Y214608D01*
X300101D01*
X301409Y215916D01*
X302045D01*
X302682Y215279D01*
Y214643D01*
X301656Y213618D01*
Y212769D01*
X302862Y211563D01*
X303331D01*
X303933Y212165D01*
X304570D01*
X305890Y210844D01*
X306527D01*
X307163Y211481D01*
Y212117D01*
X305842Y213438D01*
Y214074D01*
X306479Y214711D01*
X307115D01*
X308436Y213390D01*
X309072D01*
X309709Y214026D01*
Y214663D01*
X308388Y215984D01*
Y216620D01*
X310132Y218364D01*
X310769D01*
X312647Y216486D01*
Y214672D01*
X311554Y213579D01*
G01X274846Y217702D02*
X276415Y219271D01*
X283558D01*
X286884Y215945D01*
X287521D01*
X289430Y217854D01*
X290066D01*
X290703Y217217D01*
Y216581D01*
X288793Y214672D01*
Y214036D01*
X289430Y213399D01*
X290066D01*
X291975Y215308D01*
X292612D01*
X293248Y214672D01*
Y214036D01*
X291339Y212126D01*
Y211490D01*
X293971Y208857D01*
X297549D01*
X297999Y209307D01*
X298000Y211395D01*
X298450Y211845D01*
X299350D01*
X299800Y211395D01*
X299799Y209307D01*
X300249Y208857D01*
X307793D01*
X310968Y212033D01*
X322989D01*
X326614Y215658D01*
Y226940D01*
X324283Y229271D01*
G01X321004Y216729D02*
X322167D01*
Y216725D01*
X322873Y216018D01*
Y215382D01*
X322449Y214958D01*
X321808D01*
X321643Y215123D01*
X320001D01*
X319999Y215124D01*
X317273D01*
X316249Y216148D01*
Y218400D01*
X315526Y219122D01*
X312203D01*
X310350Y220975D01*
Y225571D01*
X309727Y226195D01*
X308802D01*
X307953Y225346D01*
Y219624D01*
X307387Y219059D01*
X306822D01*
X306185Y219695D01*
Y225771D01*
X305761Y226195D01*
X304866D01*
X304231Y225560D01*
Y224315D01*
X303782Y223866D01*
X302881D01*
X302431Y224316D01*
X302430Y225559D01*
X301930Y226059D01*
X301130D01*
X300630Y225560D01*
Y224315D01*
X300181Y223866D01*
X299280D01*
X298831Y224316D01*
X298830Y225489D01*
X298331Y225988D01*
X297529D01*
X297030Y225489D01*
Y224315D01*
X296581Y223866D01*
X295680D01*
X295230Y224316D01*
X295229Y225185D01*
X294780Y225635D01*
X293879D01*
X293429Y225185D01*
Y224315D01*
X292980Y223866D01*
X292079D01*
X291630Y224316D01*
X291629Y225185D01*
X291179Y225635D01*
X290278D01*
X289829Y225185D01*
Y224315D01*
X289380Y223866D01*
X288479D01*
X288029Y224316D01*
X288028Y225185D01*
X287579Y225635D01*
X286678D01*
X286228Y225185D01*
Y224315D01*
X285779Y223866D01*
X284878D01*
X284428Y224316D01*
Y225185D01*
X283978Y225635D01*
X282692D01*
X282639Y225581D01*
X280496D01*
X280479Y225564D01*
X277378D01*
X276391Y226551D01*
Y228697D01*
X277996Y230302D01*
G01X281146Y233452D02*
X279566Y235032D01*
X277346D01*
X276425Y235952D01*
Y242827D01*
X277335Y243737D01*
X278540D01*
X278990Y243287D01*
Y242277D01*
X279440Y241828D01*
X280341D01*
X280790Y242277D01*
Y243287D01*
X281240Y243737D01*
X326065D01*
X326737Y243064D01*
X333106D01*
X334406Y241764D01*
Y228524D01*
X336754Y226177D01*
G01X321004Y223025D02*
X322590Y224611D01*
Y224786D01*
X323121Y225317D01*
X323757D01*
X324712Y224362D01*
Y222099D01*
X323297Y220685D01*
X320144D01*
X319404Y221425D01*
X317215D01*
X316263Y220473D01*
X312761D01*
X311701Y221534D01*
Y228619D01*
X310449Y229870D01*
X309561D01*
X309111Y229421D01*
Y227995D01*
X308662Y227545D01*
X307761D01*
X307311Y227995D01*
Y229421D01*
X306861Y229870D01*
X305960D01*
X305511Y229421D01*
Y227995D01*
X305061Y227545D01*
X304160D01*
X303710Y227995D01*
Y229421D01*
X303261Y229870D01*
X302360D01*
X301910Y229421D01*
Y227995D01*
X301460Y227545D01*
X300560D01*
X300110Y227995D01*
Y229421D01*
X299660Y229870D01*
X298759D01*
X298310Y229421D01*
Y227995D01*
X297860Y227545D01*
X296959D01*
X296509Y227995D01*
Y229421D01*
X296060Y229870D01*
X295159D01*
X294709Y229421D01*
Y227995D01*
X294259Y227545D01*
X293358D01*
X292909Y227995D01*
Y229421D01*
X292459Y229870D01*
X292446D01*
X292009Y230308D01*
X291303D01*
X290609Y229614D01*
X290629Y229595D01*
Y228180D01*
X289780Y227332D01*
X288038D01*
X287588Y227782D01*
Y231097D01*
X287604Y231112D01*
Y232666D01*
X287154Y233116D01*
X286231D01*
X285405Y232290D01*
X285404Y230805D01*
Y230294D01*
X285821Y229878D01*
Y229170D01*
X284274Y227623D01*
X283566D01*
X282945Y228245D01*
X282239D01*
X281146Y227152D01*
G01X339904Y229325D02*
X338612Y230617D01*
Y231546D01*
X338333Y231825D01*
Y242081D01*
X336000Y244414D01*
X327296D01*
X326559Y245151D01*
X274861D01*
X273275Y243566D01*
Y235022D01*
X274846Y233452D01*
G01X281146Y236601D02*
X281400Y236855D01*
X282343D01*
X284346Y238858D01*
X321780D01*
X322230Y238408D01*
Y235277D01*
X322679Y234827D01*
X323580D01*
X324030Y235277D01*
Y238408D01*
X324480Y238858D01*
X325380D01*
X325830Y238408D01*
Y235114D01*
X326329Y234615D01*
X327960D01*
X328459Y235114D01*
Y237579D01*
X327823Y238216D01*
Y239636D01*
X328295Y240108D01*
X330037D01*
X331139Y239006D01*
Y234042D01*
X330156Y233060D01*
X321787D01*
X319396Y230668D01*
Y227783D01*
X321003Y226175D01*
G01X281145Y230302D02*
X282992D01*
X284054Y231363D01*
Y234093D01*
X284503Y234542D01*
X285043D01*
Y234467D01*
X288505D01*
X288955Y234017D01*
Y231671D01*
X289404Y231221D01*
X290305D01*
X290755Y231671D01*
Y234017D01*
X291205Y234467D01*
X292105D01*
X292555Y234017D01*
Y231671D01*
X293005Y231221D01*
X293906D01*
X294355Y231671D01*
Y234017D01*
X294805Y234467D01*
X295706D01*
X296156Y234017D01*
Y231671D01*
X296605Y231221D01*
X297506D01*
X297956Y231671D01*
Y234017D01*
X298406Y234467D01*
X299307D01*
X299756Y234017D01*
Y231671D01*
X300206Y231221D01*
X301107D01*
X301557Y231671D01*
Y234017D01*
X302006Y234467D01*
X302907D01*
X303357Y234017D01*
Y231671D01*
X303807Y231221D01*
X304707D01*
X305157Y231671D01*
Y234017D01*
X305607Y234467D01*
X306508D01*
X306958Y234017D01*
Y231671D01*
X307407Y231221D01*
X308308D01*
X308758Y231671D01*
Y234017D01*
X309208Y234467D01*
X310108D01*
X310558Y234017D01*
Y231671D01*
X311008Y231221D01*
X311909D01*
X312358Y231671D01*
Y234017D01*
X312808Y234467D01*
X314898D01*
X316047Y233318D01*
Y228709D01*
X315448Y228110D01*
X315229D01*
X315122Y228003D01*
X314343D01*
X313158Y226818D01*
Y225450D01*
X314388Y224221D01*
X315166D01*
X317123Y226178D01*
X317854D01*
G01X277996Y236602D02*
X279566Y238172D01*
X280680D01*
X280714Y238206D01*
X281785D01*
X282691Y239112D01*
Y240183D01*
X284194Y241686D01*
X285662D01*
X286112Y241236D01*
Y240863D01*
X286562Y240413D01*
X287463D01*
X287912Y240863D01*
Y241236D01*
X288362Y241686D01*
X289263D01*
X289713Y241236D01*
Y240863D01*
X290162Y240413D01*
X291063D01*
X291513Y240863D01*
Y241236D01*
X291963Y241686D01*
X292863D01*
X293313Y241236D01*
Y240863D01*
X293763Y240413D01*
X294664D01*
X295113Y240863D01*
Y241236D01*
X295563Y241686D01*
X296464D01*
X296914Y241236D01*
Y240863D01*
X297363Y240413D01*
X298264D01*
X298714Y240863D01*
Y241236D01*
X299164Y241686D01*
X300065D01*
X300514Y241236D01*
Y240863D01*
X300964Y240413D01*
X301865D01*
X302315Y240863D01*
Y241236D01*
X302764Y241686D01*
X303665D01*
X304115Y241236D01*
Y240863D01*
X304565Y240413D01*
X305466D01*
X305915Y240863D01*
Y241236D01*
X306365Y241686D01*
X307266D01*
X307716Y241236D01*
Y240863D01*
X308165Y240413D01*
X309066D01*
X309516Y240863D01*
Y241236D01*
X309966Y241686D01*
X310866D01*
X311316Y241236D01*
Y240863D01*
X311766Y240413D01*
X312667D01*
X313116Y240863D01*
Y241236D01*
X313566Y241686D01*
X314467D01*
X314917Y241236D01*
Y240863D01*
X315366Y240413D01*
X316267D01*
X316717Y240863D01*
Y241236D01*
X317167Y241686D01*
X318068D01*
X318517Y241236D01*
Y240863D01*
X318967Y240413D01*
X319868D01*
X320318Y240863D01*
Y241236D01*
X320767Y241686D01*
X321668D01*
X322118Y241236D01*
Y240863D01*
X322568Y240413D01*
X323468D01*
X323918Y240863D01*
Y241236D01*
X324368Y241686D01*
X330439D01*
X332490Y239636D01*
Y227290D01*
X336754Y223026D01*
G01X290560Y64560D02*
X296500Y70500D01*
X377500D01*
X389500Y82500D01*
X464000D01*
X466000Y80500D01*
X484500D01*
X491500Y87500D01*
Y129500D01*
X486000Y135000D01*
G01X303000Y64500D02*
X303600Y65100D01*
Y66600D01*
X305000Y68000D01*
X379000D01*
X390950Y79950D01*
X462394D01*
X464344Y78000D01*
X487000D01*
X493500Y84500D01*
X498156D01*
X527050Y113394D01*
Y115894D01*
X531050Y119894D01*
Y151606D01*
X528156Y154500D01*
X520500D01*
X518000Y157000D01*
Y164344D01*
X520500Y166844D01*
Y190000D01*
X518050Y192450D01*
Y195394D01*
X519278Y196622D01*
X520922D01*
X521500Y197200D01*
G01X306000Y64500D02*
X304900D01*
X304550Y64850D01*
Y66206D01*
X305394Y67050D01*
X379394D01*
X391344Y79000D01*
X462000D01*
X463950Y77050D01*
X487394D01*
X493894Y83550D01*
X498550D01*
X528000Y113000D01*
Y115500D01*
X532000Y119500D01*
Y152000D01*
X528550Y155450D01*
X520894D01*
X518950Y157394D01*
Y163950D01*
X521450Y166450D01*
Y190394D01*
X519000Y192844D01*
Y195000D01*
X519672Y195672D01*
X520528D01*
X521500Y194700D01*
G01X302290Y267073D02*
X303050Y266313D01*
Y251606D01*
X304651Y250005D01*
X345651D01*
X348078Y247578D01*
Y242878D01*
X350306Y240650D01*
X359194D01*
X361000Y242456D01*
Y250500D01*
X362550Y252050D01*
X369106D01*
X370578Y250578D01*
Y246422D01*
X372500Y244500D01*
X386000D01*
X388028Y246528D01*
Y251184D01*
X389394Y252550D01*
X404394D01*
X406394Y254550D01*
X413106D01*
X414500Y253156D01*
Y249000D01*
X416000Y247500D01*
X430656D01*
X432000Y246156D01*
Y240344D01*
X431078Y239422D01*
X428422D01*
X427050Y238050D01*
Y231450D01*
X429000Y229500D01*
X458000D01*
X463000Y234500D01*
Y237000D01*
G01X305710Y267073D02*
X304000Y265363D01*
Y252000D01*
X305045Y250955D01*
X346045D01*
X349028Y247972D01*
Y243272D01*
X350700Y241600D01*
X358800D01*
X360050Y242850D01*
Y250894D01*
X362156Y253000D01*
X369500D01*
X371528Y250972D01*
Y246816D01*
X372894Y245450D01*
X385606D01*
X387078Y246922D01*
Y251578D01*
X389000Y253500D01*
X404000D01*
X406000Y255500D01*
X413500D01*
X415450Y253550D01*
Y249394D01*
X416394Y248450D01*
X431050D01*
X432950Y246550D01*
Y239950D01*
X431472Y238472D01*
X428816D01*
X428000Y237656D01*
Y231844D01*
X429394Y230450D01*
X457606D01*
X462050Y234894D01*
Y235525D01*
X461600Y235975D01*
X461025D01*
X460000Y237000D01*
G01X317500Y50500D02*
X317100D01*
X316450Y51150D01*
Y56106D01*
X319394Y59050D01*
X378394D01*
X394894Y75550D01*
X459606D01*
X461606Y73550D01*
X490394D01*
X496344Y79500D01*
X512344D01*
X532500Y99656D01*
Y107156D01*
X536000Y110656D01*
Y156844D01*
X527450Y165394D01*
Y197394D01*
X523894Y200950D01*
X516894D01*
X515500Y202344D01*
Y204050D01*
X516000Y204550D01*
X516950D01*
X518000Y203500D01*
G01Y206500D02*
X517000Y205500D01*
X515606D01*
X514550Y204444D01*
Y201950D01*
X516500Y200000D01*
X523500D01*
X526500Y197000D01*
Y165000D01*
X535050Y156450D01*
Y111050D01*
X531550Y107550D01*
Y100050D01*
X511950Y80450D01*
X495950D01*
X490000Y74500D01*
X462000D01*
X460000Y76500D01*
X394500D01*
X378000Y60000D01*
X319000D01*
X315500Y56500D01*
Y51500D01*
X314500Y50500D01*
G01X404900Y201700D02*
Y193400D01*
X399000Y187500D01*
X377500D01*
X372000Y182000D01*
Y159500D01*
X331500Y119000D01*
Y107500D01*
X320000Y96000D01*
Y82500D01*
G01X312290Y267573D02*
X314550Y265313D01*
Y258106D01*
X315606Y257050D01*
X319950D01*
X322950Y254050D01*
X345394D01*
X351394Y260050D01*
X355106D01*
X359606Y255550D01*
X365894D01*
X370394Y260050D01*
X376106D01*
X379106Y257050D01*
X386894D01*
X388594Y258750D01*
X429906D01*
X433606Y255050D01*
X446106D01*
X448705Y252451D01*
Y252324D01*
X449000Y252029D01*
Y245606D01*
X451356Y243250D01*
X454750D01*
X458500Y239500D01*
X464656D01*
X465550Y238606D01*
Y233894D01*
X457550Y225894D01*
Y218606D01*
X464050Y212106D01*
Y208394D01*
X462606Y206950D01*
X460050D01*
X459000Y208000D01*
G01X315710Y267573D02*
X315500Y267363D01*
Y258500D01*
X316000Y258000D01*
X320344D01*
X323344Y255000D01*
X345000D01*
X351000Y261000D01*
X355500D01*
X360000Y256500D01*
X365500D01*
X370000Y261000D01*
X376500D01*
X379500Y258000D01*
X386500D01*
X388200Y259700D01*
X430300D01*
X434000Y256000D01*
X446500D01*
X449655Y252845D01*
Y252718D01*
X449950Y252423D01*
Y246000D01*
X451750Y244200D01*
X455144D01*
X458894Y240450D01*
X465050D01*
X466500Y239000D01*
Y233500D01*
X458500Y225500D01*
Y219000D01*
X465000Y212500D01*
Y208000D01*
X463000Y206000D01*
X459500D01*
X459000Y205500D01*
G01X326500Y50500D02*
X327350Y49650D01*
Y48806D01*
X328606Y47550D01*
X332894D01*
X339894Y54550D01*
X379894D01*
X396894Y71550D01*
X457606D01*
X459106Y70050D01*
X493894D01*
X499394Y75550D01*
X521550D01*
X542950Y96950D01*
Y112894D01*
X540450Y115394D01*
Y158394D01*
X531450Y167394D01*
Y200894D01*
X521344Y211000D01*
X511500D01*
X511000Y211500D01*
G01X330000Y50500D02*
Y51500D01*
X329500Y52000D01*
X328800D01*
X328300Y51500D01*
Y49200D01*
X329000Y48500D01*
X332500D01*
X339500Y55500D01*
X379500D01*
X396500Y72500D01*
X458000D01*
X459500Y71000D01*
X493500D01*
X499000Y76500D01*
X521156D01*
X542000Y97344D01*
Y112500D01*
X539500Y115000D01*
Y158000D01*
X530500Y167000D01*
Y200500D01*
X520950Y210050D01*
X512050D01*
X511000Y209000D01*
G01X325710Y268000D02*
X324475Y269235D01*
Y271700D01*
X325275Y272500D01*
X330750D01*
X331550Y271700D01*
Y264106D01*
X333656Y262000D01*
X346000D01*
X346750Y262750D01*
X445906D01*
X460106Y248550D01*
X483450D01*
X486000Y246000D01*
Y237500D01*
X484000Y235500D01*
X472156D01*
X461870Y225214D01*
Y221339D01*
X461116Y220571D01*
G01X322290Y268000D02*
X323525Y269235D01*
Y272094D01*
X324881Y273450D01*
X331144D01*
X332500Y272094D01*
Y264500D01*
X334050Y262950D01*
X345606D01*
X346356Y263700D01*
X446300D01*
X460500Y249500D01*
X483844D01*
X486950Y246394D01*
Y237106D01*
X484394Y234550D01*
X472550D01*
X462820Y224820D01*
Y221375D01*
X463616Y220595D01*
G01X349506Y215006D02*
X347500Y213000D01*
Y212500D01*
X343884Y208884D01*
X342414D01*
X342413Y208885D01*
X338115D01*
X336754Y210246D01*
Y210428D01*
G01X470500Y151000D02*
X467500Y148000D01*
X450225D01*
X448723Y146498D01*
Y141792D01*
X448000Y141069D01*
Y141067D01*
X443434Y136501D01*
X439501D01*
X439500Y136500D01*
G01X450500Y139500D02*
X451000D01*
X453000Y141500D01*
X482000D01*
X486000Y145500D01*
X493878D01*
X507878Y131500D01*
X513000D01*
X524500Y143000D01*
Y146378D01*
X526061Y147939D01*
X527061D01*
X528000Y147000D01*
G01Y150000D02*
X527500Y149500D01*
X525500D01*
X523000Y147000D01*
Y143500D01*
X512500Y133000D01*
X508500D01*
X494500Y147000D01*
X485500D01*
X481500Y143000D01*
X452000D01*
X450500Y144500D01*
G01X561217Y138773D02*
X561894Y139450D01*
X563794D01*
X565500Y141156D01*
Y145844D01*
X542950Y168394D01*
Y201894D01*
X523844Y221000D01*
X511500D01*
X505050Y227450D01*
X496606D01*
X495550Y226394D01*
Y224755D01*
X494795Y224000D01*
G01X553000Y149500D02*
X552350Y150150D01*
X549350D01*
X547000Y152500D01*
Y157000D01*
X538000Y166000D01*
Y199000D01*
X521000Y216000D01*
X506156D01*
X502156Y220000D01*
X487000D01*
X485275Y221725D01*
Y225225D01*
X484500Y226000D01*
G01X552500Y152700D02*
X553300D01*
X553800Y152200D01*
Y151600D01*
X553300Y151100D01*
X549744D01*
X547950Y152894D01*
Y157394D01*
X538950Y166394D01*
Y199394D01*
X521394Y216950D01*
X506550D01*
X502550Y220950D01*
X487394D01*
X486225Y222119D01*
Y225225D01*
X487000Y226000D01*
G01X571500Y159000D02*
X570900Y158400D01*
Y156900D01*
X569000Y155000D01*
X561500D01*
X546000Y170500D01*
Y203156D01*
X525156Y224000D01*
X513000D01*
X507000Y230000D01*
X492500D01*
X491275Y231225D01*
Y232225D01*
X490500Y233000D01*
G01X568300Y159000D02*
Y159400D01*
X568700Y159800D01*
X569600D01*
X569950Y159450D01*
Y157294D01*
X568606Y155950D01*
X561894D01*
X546950Y170894D01*
Y203550D01*
X525550Y224950D01*
X513394D01*
X507394Y230950D01*
X492894D01*
X492225Y231619D01*
Y232225D01*
X493000Y233000D01*
G01X497500Y224000D02*
X496500Y225000D01*
Y226000D01*
X497000Y226500D01*
X504656D01*
X511106Y220050D01*
X523450D01*
X542000Y201500D01*
Y168000D01*
X564550Y145450D01*
Y141550D01*
X563400Y140400D01*
X559900D01*
X559400Y140900D01*
Y141600D01*
X559800Y142000D01*
X561000D01*
G54D18*
X364200Y270500D03*
X387800D03*
G54D19*
X449538Y107624D03*
X454460Y107620D03*
M02*
