M48
INCH
T01C.012
T02C.098
;LEADER: 12 
;HEADER: 
;CODE  : ASCII 
;FILE  : u-board-dvt-0513-1-2.drl for board u-board-dvt-0513.brd ... layers TOP and BOTTOM
;T01 Holesize 1. = 12.000000 Tolerance = +0.000000/-0.000000 PLATED MILS Quantity = 57
;T02 Holesize 2. = 98.000000 Tolerance = +0.000000/-0.000000 NON_PLATED MILS Quantity = 2
%
G90
T01
X000008000Y000002880
X000008000Y000002480
X000014720Y000006880
X000014720Y000006560
X000021440Y000002480
X000021440Y000002800
X000043360Y000006880
X000043360Y000006480
X000053920Y000005920
X000054320Y000005920
X000070160Y000006880
X000070160Y000006480
X000080400Y000006960
X000080400Y000006480
X000104250Y000003400
X000104650Y000003400
X000110560Y000006480
X000110560Y000006880
X000117280Y000002880
X000117280Y000002480
X000124480Y000003120
X000126080Y000004240
X000130550Y000002800
X000131300Y000008550
X000131300Y000008200
X000132000Y000008250
X000132000Y000008550
X000132400Y000008550
X000132400Y000008250
X000132650Y000007100
X000132800Y000007400
X000133050Y000007200
X000133050Y000007600
X000133550Y000008550
X000133550Y000008250
X000134000Y000008550
X000134000Y000008250
X000135600Y000009250
X000135100Y000009300
R03X-000000600
X000132700Y000009250
X000132100Y000009250
X000119200Y000019200
X000119150Y000018750
X000118620Y000018850
X000118382Y000019025
X000118112Y000018915
X000117000Y000019150
X000116700Y000019050
X000116400Y000019200
X000116212Y000020365
X000115850Y000019950
X000115350Y000020000
X000115300Y000019350
X000115250Y000018900
T02
X000056286Y000004329
X000069672Y000004329
M30
