M48
INCH
T01C.012
T02C.032
T03C.045
T04C.102
T05C.047
;LEADER: 12 
;HEADER: 
;CODE  : ASCII 
;FILE  : belt-box-002-119pm14-1-4.drl for board belt-box-002-119pm14.brd ... layers TOP and BOTTOM
;T01 Holesize 1. = 12.000000 Tolerance = +0.000000/-0.000000 PLATED MILS Quantity = 561
;T02 Holesize 2. = 32.000000 Tolerance = +0.000000/-0.000000 PLATED MILS Quantity = 9
;T03 Holesize 3. = 45.000000 Tolerance = +0.000000/-0.000000 PLATED MILS Quantity = 1
;T04 Holesize 4. = 102.000000 Tolerance = +0.000000/-0.000000 PLATED MILS Quantity = 2
;T05 Holesize 5. = 47.000000 Tolerance = +0.000000/-0.000000 NON_PLATED MILS Quantity = 1
%
G90
T01
X000001550Y000001750
X000001600Y000000350
X000003000Y000000350
X000003605Y000001443
X000005000Y000000350
X000006200Y000001400
X000007000Y000000350
X000009950Y000000350
X000006400Y000003350
X000006400Y000003000
X000006050Y000003000
X000006050Y000003350
X000003500Y000003150
X000003500Y000002850
X000003500Y000003450
X000003200Y000003450
X000003200Y000002850
X000003200Y000003150
X000002900Y000002850
X000002900Y000003450
X000002900Y000003150
X000002150Y000003400
X000002050Y000002350
X000000320Y000005550
X000000320Y000004320
X000001400Y000005300
X000001400Y000004650
X000001400Y000004350
X000001400Y000005900
X000001400Y000004950
X000001400Y000005600
X000001700Y000005900
X000001700Y000005300
X000001700Y000004650
X000001700Y000004350
X000001700Y000004950
X000001700Y000005600
X000003700Y000005100
X000003700Y000005450
X000003700Y000005770
X000003700Y000004800
X000004020Y000005770
X000004020Y000005450
X000004020Y000005100
X000004020Y000004800
X000007650Y000005700
X000007700Y000004700
X000008000Y000004700
X000008000Y000005700
X000008350Y000005500
X000008350Y000004800
X000008650Y000004800
X000008650Y000005500
X000008980Y000004800
X000008980Y000005470
X000009300Y000005150
X000009700Y000004800
X000009700Y000005600
X000010200Y000005200
X000011050Y000004300
X000012350Y000004300
X000013750Y000004300
X000015100Y000004300
X000016300Y000004300
X000017400Y000004300
X000020950Y000004300
X000022150Y000004300
R03X000001200
X000027200Y000005700
X000027200Y000007700
X000025150Y000007800
X000024809Y000007809
X000024415Y000007815
X000024350Y000007100
X000024021Y000007800
X000023600Y000007750
X000023450Y000006200
X000023300Y000007750
X000022250Y000006200
X000022150Y000007750
X000021800Y000007750
X000021500Y000007750
X000021150Y000007750
X000020950Y000007350
X000020631Y000007350
X000020550Y000006200
X000020300Y000007350
X000019950Y000007350
X000019450Y000007150
X000019150Y000007150
X000018800Y000007300
X000018600Y000006800
X000018250Y000006800
X000018150Y000006200
X000017950Y000006800
X000017300Y000006850
X000016300Y000006200
X000015753Y000007750
X000014550Y000007750
X000014500Y000007000
X000014500Y000006600
X000014500Y000006200
X000014200Y000007750
X000014100Y000007050
X000014100Y000006550
X000013800Y000007750
X000013500Y000007750
X000013300Y000006650
X000013300Y000006249
X000012998Y000007750
X000010600Y000006850
X000009700Y000006650
X000009500Y000006200
X000008400Y000006950
X000008300Y000006650
X000008100Y000006950
X000007950Y000006650
X000007850Y000007600
X000007850Y000007250
X000007800Y000006950
X000007550Y000007250
X000007300Y000007600
X000007250Y000007250
X000001700Y000006300
X000000350Y000006850
X000000350Y000009550
X000002350Y000009400
X000007100Y000008850
X000007300Y000008500
X000007300Y000008050
X000007500Y000008850
X000007850Y000008050
X000007850Y000008850
X000007850Y000008500
X000010800Y000008250
X000010800Y000008600
X000012550Y000009200
X000012900Y000009200
X000017100Y000008850
X000017600Y000009650
X000018116Y000008814
X000019297Y000008797
X000020478Y000008800
X000021600Y000008800
X000022600Y000009000
X000022600Y000009300
X000022950Y000009000
X000022950Y000009300
X000024000Y000009000
R03X000000300
X000027200Y000008900
X000027200Y000011700
X000023050Y000011150
X000022750Y000011150
X000021620Y000011550
X000021600Y000010850
X000021600Y000010550
X000019650Y000011100
X000019350Y000011100
X000018100Y000011450
X000017950Y000010400
X000016750Y000010300
X000015950Y000011750
X000015950Y000011200
X000015750Y000011450
X000015450Y000011450
X000015100Y000010600
X000014950Y000011450
X000014650Y000011450
X000014400Y000010600
X000014400Y000011200
X000014400Y000011750
X000014150Y000011450
X000013850Y000011450
X000013350Y000011450
X000013050Y000011450
X000012900Y000010600
X000012850Y000011200
X000012850Y000011800
X000010800Y000010700
X000007900Y000011950
X000003750Y000010800
X000002250Y000011350
X000002250Y000010950
X000000350Y000011550
X000000350Y000013550
X000002100Y000013150
X000002100Y000013450
X000002800Y000012800
R02X000000350
X000004550Y000012800
X000006050Y000013650
X000006050Y000012550
X000006050Y000012250
X000006050Y000013350
X000006050Y000012850
X000006350Y000013650
X000006750Y000012250
X000007100Y000012700
X000007650Y000013200
X000007800Y000013700
X000008300Y000012650
X000008600Y000012650
X000008800Y000013300
X000009650Y000012850
X000010050Y000013950
X000010600Y000012200
X000011550Y000012950
X000011550Y000013250
X000011800Y000013850
X000011800Y000012800
X000011800Y000013400
X000013000Y000013779
X000013750Y000013650
X000013750Y000013150
X000014325Y000013650
X000014325Y000013150
X000014875Y000013150
X000014875Y000013650
X000015550Y000013621
X000016170Y000012670
X000016780Y000012050
X000016850Y000013500
X000016850Y000013900
X000016850Y000012950
X000017850Y000013900
X000018100Y000012050
X000018100Y000012550
X000018350Y000013000
X000018670Y000013350
X000018670Y000012700
X000019400Y000013000
X000019550Y000013400
X000019800Y000013000
X000020100Y000012550
X000020400Y000012550
X000020730Y000012400
X000021030Y000012400
X000021620Y000012150
X000021800Y000013080
X000022500Y000012400
X000023150Y000013400
X000023200Y000012400
X000023400Y000012100
X000023650Y000012450
X000023650Y000012750
X000024000Y000012100
X000024000Y000012400
X000024800Y000013205
X000024800Y000012595
X000024900Y000013600
X000027200Y000013700
X000027200Y000015700
X000026500Y000014150
X000026500Y000015350
X000026500Y000015750
X000024350Y000015550
X000024350Y000015000
X000023700Y000015700
X000023700Y000015050
X000023400Y000014400
X000023000Y000015050
X000023000Y000015700
X000022350Y000015800
X000022050Y000015200
X000020950Y000014350
X000020900Y000015850
X000020900Y000015350
X000020500Y000015750
X000019650Y000015720
X000019550Y000014050
X000019380Y000014520
X000019029Y000014520
X000018900Y000014850
X000018200Y000014500
X000017650Y000015150
X000016850Y000015200
X000016850Y000014900
X000016850Y000014300
X000016170Y000015510
X000015720Y000015320
X000015600Y000015600
X000015300Y000015600
X000014875Y000014250
X000014800Y000015735
X000014469Y000015735
X000014325Y000014250
X000014100Y000015750
X000013800Y000015750
X000013750Y000014250
X000013350Y000015640
X000013050Y000015640
X000012900Y000015250
X000012750Y000015900
X000012150Y000015250
X000011850Y000015250
X000011800Y000014350
X000011800Y000014850
X000011400Y000014450
X000010700Y000015150
X000010250Y000015850
X000010250Y000015500
X000010050Y000014750
X000010050Y000014350
X000009900Y000015950
X000009100Y000015350
X000009050Y000014700
X000007520Y000014650
X000006900Y000014650
X000006850Y000015850
X000006400Y000015800
X000006350Y000014650
X000005900Y000015800
X000004950Y000015700
X000004550Y000014300
X000003300Y000015350
X000003300Y000014320
X000000350Y000015550
X000000350Y000017550
X000001750Y000017750
X000002000Y000016700
X000002800Y000016700
X000003225Y000017975
X000004900Y000016750
X000004950Y000016200
X000005000Y000017300
X000005050Y000017730
X000005900Y000016800
X000006050Y000016150
X000006155Y000017700
X000006350Y000016870
X000006400Y000016400
X000006650Y000017700
X000007100Y000016800
X000007100Y000016400
X000007422Y000017700
X000007600Y000016870
X000007750Y000016500
X000007950Y000017700
X000008900Y000017550
X000008950Y000016100
R02Y000000450
X000009650Y000016300
X000009900Y000016750
X000013300Y000017850
X000013650Y000017850
X000013650Y000016050
X000014300Y000016050
X000014650Y000017600
X000014750Y000017900
X000015900Y000016000
X000017900Y000017850
X000018000Y000016050
X000018000Y000016650
X000019650Y000016830
X000019650Y000017500
X000020300Y000016980
X000021400Y000017450
X000021600Y000017900
X000021950Y000016850
X000022100Y000017900
X000022350Y000016300
X000022550Y000017900
X000022750Y000016850
X000022950Y000017900
X000023000Y000016300
X000023300Y000017900
X000023700Y000016300
X000024350Y000016300
X000024375Y000017900
X000024700Y000017900
X000025150Y000017900
X000025400Y000016450
X000025450Y000017480
X000026500Y000016050
X000027200Y000017700
X000027200Y000018150
X000027200Y000018550
X000026600Y000018550
X000025500Y000018220
X000024900Y000018580
X000023750Y000019000
X000023150Y000018900
X000022850Y000018580
X000022700Y000019800
R02X-000000450
X000021150Y000018950
X000020750Y000018300
X000020000Y000019650
X000015500Y000019300
X000015500Y000019000
X000015200Y000019450
X000015150Y000018450
X000015150Y000019800
X000015150Y000018750
X000014850Y000019250
X000014850Y000018600
X000014750Y000018200
X000013900Y000019800
X000013650Y000018200
X000013550Y000019800
X000013300Y000018200
X000009800Y000018500
R02X-000000500
X000006250Y000019800
X000005950Y000019450
X000005600Y000018100
X000005500Y000018400
X000005200Y000018400
X000004450Y000018450
X000004250Y000018850
X000003900Y000018850
X000003700Y000018450
X000003465Y000019700
X000003100Y000019700
X000002750Y000019700
X000002700Y000018450
X000000350Y000018550
X000000350Y000021550
X000002010Y000020500
X000003700Y000021900
X000003700Y000020900
X000004700Y000020100
X000005000Y000020100
X000005200Y000021700
X000005500Y000021700
X000005800Y000020150
X000006250Y000020500
X000006350Y000021500
X000006350Y000021900
X000006550Y000020500
X000006550Y000020150
X000006600Y000021700
X000007800Y000020800
X000011050Y000021150
X000011550Y000021150
X000012100Y000021150
X000013550Y000020150
X000013900Y000020150
X000014100Y000021050
X000014400Y000021050
X000014600Y000020700
X000014750Y000020350
X000014850Y000020050
X000015150Y000020150
X000017250Y000021000
X000017580Y000020850
X000017900Y000020050
X000017950Y000020850
X000018050Y000021850
X000018050Y000021549
X000018700Y000021150
X000018950Y000020100
X000019050Y000021450
X000019050Y000021820
X000019150Y000021000
X000019450Y000021000
R02X000000300
X000021020Y000021650
X000021500Y000021300
X000023705Y000021100
X000024080Y000020150
X000024450Y000020850
X000024450Y000021150
X000026250Y000021300
X000027150Y000021300
X000026700Y000022150
X000026150Y000022000
X000025100Y000022150
X000023800Y000022150
X000022400Y000022150
X000021380Y000022250
X000021150Y000023100
X000020250Y000023650
X000020150Y000022300
X000020100Y000022750
X000020100Y000023100
X000018950Y000022200
X000018950Y000022500
X000018650Y000022500
X000017700Y000023200
X000013750Y000022750
X000013250Y000022750
X000012850Y000022750
X000011850Y000022750
X000011550Y000022750
X000011350Y000023800
X000011200Y000023350
X000011050Y000023800
X000010900Y000023350
X000010750Y000023800
X000010600Y000023350
X000010450Y000023800
X000010300Y000023350
X000010150Y000023800
X000009330Y000023000
X000008950Y000023000
X000008650Y000022700
X000008650Y000023000
X000008650Y000023950
X000000350Y000023550
X000000350Y000025900
X000001200Y000025900
X000007350Y000024000
X000008600Y000025650
X000010300Y000024750
X000010950Y000025600
X000011850Y000025300
X000011850Y000025600
X000012150Y000025300
X000012150Y000025600
X000012450Y000025600
X000012450Y000025300
X000013171Y000025300
X000013850Y000024050
X000014156Y000025300
X000014700Y000024050
X000015337Y000025300
X000015350Y000024050
X000015927Y000025300
X000016250Y000024050
X000016518Y000025300
X000016800Y000024050
X000017108Y000025300
X000017699Y000024250
X000018289Y000024250
X000020250Y000024800
X000020750Y000024300
X000021150Y000025350
X000021450Y000025850
X000026800Y000024600
X000027200Y000024250
X000027200Y000025450
X000026750Y000026050
X000021300Y000027200
X000020750Y000026300
X000020250Y000027200
X000018750Y000026050
X000018250Y000027200
X000017450Y000026583
X000016764Y000026050
X000016250Y000027200
X000016100Y000026583
X000014250Y000027200
X000013800Y000026583
X000013122Y000026050
X000012450Y000026583
X000012250Y000027200
X000010950Y000027200
X000008250Y000027200
X000007350Y000027200
X000007350Y000026250
T02
X000002697Y000022382
X000002894Y000022972
X000003484Y000022382
X000003878Y000022972
X000004271Y000022382
X000004665Y000022972
X000005059Y000022382
X000005650Y000022972
X000005846Y000022382
T03
X000008425Y000004271
T04
X000001378Y000007717
X000019016Y000018701
T05
X000000839Y000009196
M30
