M48
INCH
T01C.008
T02C.01
T03C.012
T04C.036
T05C.053
T06C.102
T07C.047
;LEADER: 12 
;HEADER: 
;CODE  : ASCII 
;FILE  : belt-box-dvt3-0706pm14-1-6.drl for board belt-box-dvt3-0706pm14.brd ... layers TOP and BOTTOM
;T01 Holesize 1. = 8.000000 Tolerance = +0.000000/-0.000000 PLATED MILS Quantity = 4
;T02 Holesize 2. = 10.000000 Tolerance = +0.000000/-0.000000 PLATED MILS Quantity = 6
;T03 Holesize 3. = 12.000000 Tolerance = +0.000000/-0.000000 PLATED MILS Quantity = 629
;T04 Holesize 4. = 36.000000 Tolerance = +0.000000/-0.000000 PLATED MILS Quantity = 9
;T05 Holesize 5. = 53.000000 Tolerance = +0.000000/-0.000000 PLATED MILS Quantity = 1
;T06 Holesize 6. = 102.000000 Tolerance = +0.000000/-0.000000 PLATED MILS Quantity = 2
;T07 Holesize 7. = 47.000000 Tolerance = +0.000000/-0.000000 NON_PLATED MILS Quantity = 1
%
G90
T01
X000014250Y000023250
X000014580Y000023260
X000014880Y000023270
X000015130Y000023270
T02
X000013150Y000023150
X000013650Y000023150
X000015750Y000023200
X000016100Y000023200
X000016400Y000023200
X000016755Y000023200
T03
X000000350Y000001550
X000001400Y000000350
X000001450Y000001750
X000002650Y000000350
X000003150Y000001450
X000004100Y000000350
X000004600Y000000750
X000008250Y000000350
X000009100Y000000350
X000009100Y000001350
X000009950Y000000350
X000017200Y000000350
X000018000Y000001200
X000018150Y000000350
X000019000Y000000350
X000019400Y000001200
X000019700Y000000350
X000021400Y000000492
X000022250Y000001050
X000022350Y000000492
X000022591Y000001130
X000023100Y000001500
X000023500Y000000492
X000023800Y000001500
X000025000Y000000800
X000026000Y000001800
X000027200Y000001600
X000025500Y000002400
X000025400Y000003200
X000024716Y000002150
X000024700Y000003150
X000023800Y000002250
X000023650Y000002949
X000023650Y000003300
X000023250Y000002850
X000023150Y000003976
X000023150Y000003624
X000023100Y000002250
X000021650Y000003450
X000021300Y000003450
X000020500Y000002350
X000020000Y000002000
X000019400Y000002800
X000018800Y000002000
X000018650Y000003550
X000018300Y000003550
X000017650Y000003000
X000015800Y000003650
X000009900Y000003700
X000009100Y000002500
X000008300Y000002100
X000008000Y000003700
X000004200Y000003250
X000003800Y000002100
X000003400Y000003250
X000002200Y000003250
X000000320Y000004320
X000000320Y000005550
X000001700Y000005400
X000001700Y000004000
X000003470Y000004750
X000004300Y000005250
X000004300Y000005700
X000004300Y000004800
X000004700Y000005700
X000004700Y000004800
X000004700Y000005250
X000006900Y000005500
X000006900Y000005200
X000007200Y000005500
X000007200Y000005200
X000007500Y000005200
X000007500Y000005500
X000010850Y000005800
X000011950Y000005700
X000013500Y000005000
X000015300Y000005000
X000015950Y000005800
X000015950Y000005450
X000016000Y000004400
X000016000Y000004000
X000016250Y000005800
X000016250Y000005450
X000016750Y000005450
X000016750Y000005800
X000016750Y000005100
X000017100Y000005100
R02Y000000350
X000017600Y000004000
X000019600Y000005950
X000019600Y000005600
X000019900Y000005950
X000019900Y000005600
X000020850Y000005000
X000021200Y000005000
R02X000000350
X000022350Y000004950
X000022700Y000004950
X000023200Y000005050
X000023880Y000004570
X000024320Y000004570
X000024850Y000005650
X000024850Y000005950
X000025050Y000005050
X000025900Y000004000
X000025950Y000004980
X000025950Y000004599
X000027200Y000004350
X000027200Y000007700
X000027200Y000006500
X000026850Y000006850
X000026850Y000006550
X000025850Y000007050
X000025850Y000006400
X000025850Y000007450
X000025100Y000007850
X000024850Y000007153
X000024850Y000006250
X000024850Y000006850
X000024850Y000007450
X000024850Y000006550
X000024600Y000007700
X000024500Y000006992
X000024498Y000006402
X000022200Y000007050
X000022200Y000006700
X000022200Y000007800
X000022190Y000007430
X000021700Y000006700
X000021700Y000007050
X000021700Y000007800
X000021690Y000007430
X000021200Y000006700
X000021200Y000007800
X000021200Y000007050
X000021190Y000007430
X000013500Y000006100
X000012800Y000006700
X000012300Y000006700
X000011950Y000006050
X000011800Y000006700
X000010850Y000006150
X000010600Y000006850
X000009700Y000006650
X000009400Y000006200
X000008400Y000006950
X000008300Y000006650
X000008100Y000006950
X000007950Y000006650
X000007850Y000007250
X000007850Y000007600
X000007800Y000006950
X000007550Y000007250
X000007300Y000007600
X000007250Y000007250
X000004600Y000007250
X000004600Y000007600
X000004300Y000007600
X000004300Y000007250
X000004000Y000007250
X000004000Y000007600
X000003700Y000007600
X000003700Y000007250
X000001800Y000006400
X000000350Y000006650
X000000350Y000009550
X000001450Y000009100
X000001700Y000009300
X000001900Y000009000
X000002000Y000009300
X000007100Y000008850
X000007300Y000008500
X000007300Y000008050
X000007500Y000008850
X000007850Y000008500
X000007850Y000008850
X000007850Y000008050
X000010800Y000008850
X000010800Y000008250
X000011800Y000008400
X000012400Y000008750
X000012700Y000008750
X000018620Y000009750
X000019350Y000008900
X000019350Y000009250
X000019650Y000009250
X000019650Y000008900
X000020200Y000008800
X000020700Y000009250
X000020700Y000009600
X000021100Y000009250
X000021100Y000009600
X000021200Y000008150
X000021500Y000009600
X000021500Y000009250
X000021700Y000008150
X000022200Y000008150
X000022650Y000008550
X000022650Y000009500
X000022950Y000008550
X000022950Y000009500
R02X000000300
X000023795Y000008680
X000023950Y000008400
X000024050Y000009330
R02X000000300
X000024800Y000008050
X000024950Y000009330
X000027200Y000008900
X000027200Y000011700
X000026100Y000010700
X000026100Y000010350
X000026100Y000011050
X000025750Y000010350
X000025750Y000010700
X000025750Y000011050
X000023050Y000011150
X000022750Y000011150
X000021620Y000011550
X000021600Y000010550
X000021600Y000010850
X000019920Y000010600
X000019650Y000011100
X000019350Y000011100
X000016600Y000011380
X000016350Y000010550
X000016350Y000010250
X000016000Y000011020
X000015250Y000011750
X000015150Y000010900
X000014850Y000011750
X000014450Y000011750
X000014250Y000011000
X000013150Y000011350
X000013100Y000010900
X000013100Y000010500
X000012830Y000011270
X000012150Y000011150
X000012150Y000011550
X000009850Y000011100
X000009480Y000011120
X000009120Y000011120
X000005700Y000011150
X000002200Y000011109
X000002200Y000011400
X000000350Y000011550
X000000350Y000013550
X000002100Y000013150
X000002100Y000013450
X000002800Y000012800
X000003150Y000012800
X000003500Y000012800
X000004550Y000012800
X000005570Y000013500
X000005750Y000012550
X000005860Y000013500
X000006150Y000013500
X000006450Y000013500
X000006550Y000012550
X000006950Y000012550
X000006950Y000012250
X000007550Y000013250
X000007820Y000013550
X000008550Y000012650
X000008800Y000012970
X000008850Y000013400
X000009000Y000013650
X000009850Y000012700
X000010150Y000013800
X000011145Y000013750
X000012150Y000012900
X000012150Y000013800
X000012150Y000012100
X000012150Y000012500
X000012150Y000013500
X000013450Y000012221
X000013550Y000013650
X000014125Y000012850
X000014125Y000012250
X000014150Y000013750
X000014675Y000012850
X000014675Y000012250
X000015150Y000013700
X000015250Y000012850
X000015250Y000012250
X000016050Y000012350
X000016150Y000013750
X000016850Y000013470
X000017000Y000013900
X000017200Y000012950
X000017200Y000012150
X000017200Y000012450
X000017350Y000013900
X000018100Y000012550
X000018350Y000013000
X000018500Y000012350
X000018670Y000012700
X000018670Y000013350
X000019400Y000013000
X000019550Y000013400
X000019800Y000013000
X000020100Y000012550
X000020400Y000012550
X000020730Y000012400
X000021030Y000012400
X000021620Y000012150
X000021800Y000013080
X000022500Y000012400
X000023150Y000013400
X000023300Y000012400
X000023650Y000012450
X000023650Y000012750
X000024000Y000012400
X000024050Y000012100
X000024800Y000013205
X000024800Y000012595
X000024900Y000013600
X000026200Y000013400
X000026600Y000012100
X000027200Y000013100
X000027200Y000015700
X000027200Y000014400
X000026500Y000015350
X000026500Y000014150
X000026500Y000015750
X000024350Y000015000
X000024350Y000015550
X000023700Y000015050
X000023700Y000015700
X000023400Y000014400
X000023000Y000015050
X000023000Y000015700
X000022350Y000015800
X000022050Y000015200
X000020950Y000014350
X000020900Y000015850
X000020900Y000015350
X000020500Y000015750
X000019650Y000015720
X000019550Y000014050
X000019380Y000014520
X000019029Y000014520
X000018900Y000014850
X000018200Y000014500
X000017150Y000015450
X000016806Y000015450
X000016424Y000015450
X000016200Y000015700
X000015956Y000015450
X000015574Y000015450
X000015350Y000015700
X000015106Y000015450
X000014724Y000015450
X000014550Y000015750
X000014281Y000015900
X000013900Y000015900
X000013400Y000015900
X000013300Y000014450
X000013100Y000015900
X000012850Y000014450
X000012830Y000014110
X000012650Y000015900
X000010300Y000015550
X000010150Y000014200
X000010150Y000014600
X000010000Y000015550
X000009400Y000014870
X000009300Y000015400
X000009150Y000014660
X000007350Y000014650
X000007050Y000014650
X000006850Y000015850
X000006750Y000014650
X000006455Y000014655
X000005900Y000015800
X000004800Y000015700
X000004550Y000014300
X000003300Y000015350
X000003300Y000014320
X000002200Y000015950
X000000350Y000015450
X000000350Y000016750
X000002200Y000016250
X000002950Y000016400
X000002950Y000016100
X000003000Y000017250
X000003000Y000016950
X000003225Y000017975
X000004800Y000016200
X000004800Y000016695
X000005000Y000017350
X000005900Y000016800
X000006155Y000017850
X000006350Y000016870
X000006400Y000016400
X000006650Y000017850
X000007100Y000016400
X000007100Y000016800
X000007450Y000017850
X000007750Y000016500
X000007950Y000017850
X000008750Y000017900
X000008750Y000017600
X000009150Y000016068
X000009150Y000017100
X000009180Y000016600
X000009500Y000016200
X000009500Y000016800
X000009500Y000017700
X000009500Y000016500
X000009500Y000017400
X000009500Y000017100
X000010500Y000016950
X000011200Y000017400
X000012350Y000016150
X000012900Y000016150
X000013650Y000016150
X000018000Y000016650
X000018000Y000016050
X000019650Y000016830
X000019650Y000017500
X000020300Y000016980
X000021400Y000017450
X000021600Y000017900
X000021950Y000016850
X000022100Y000017900
X000022350Y000016300
X000022550Y000017900
X000022750Y000016850
X000022950Y000017900
X000023000Y000016300
X000023300Y000017900
X000023700Y000016300
X000024350Y000016300
X000024375Y000017900
X000024700Y000017900
X000025150Y000017900
X000025400Y000016450
X000025450Y000017480
X000026500Y000016050
X000027200Y000017700
X000027200Y000018150
X000027200Y000018550
X000026600Y000018550
X000025500Y000018220
X000024900Y000018580
X000023750Y000019000
X000023150Y000018900
X000022850Y000018580
X000022700Y000019800
X000022250Y000019800
X000021800Y000019800
X000021150Y000018950
X000020800Y000018300
X000020000Y000019650
X000015150Y000018700
X000014750Y000018200
X000013950Y000018200
X000013450Y000018700
X000013100Y000018200
X000012550Y000018700
X000012300Y000018200
X000011800Y000018700
X000010450Y000018650
X000010450Y000018050
X000010450Y000018350
X000009100Y000018350
X000008500Y000018500
X000005500Y000018400
X000005200Y000018400
X000004300Y000018500
X000004250Y000018850
X000003900Y000018850
X000003700Y000018450
X000003465Y000019700
X000003100Y000019700
X000003100Y000019250
X000001200Y000018300
X000000350Y000018550
X000000350Y000021550
X000002050Y000020550
X000003700Y000021900
X000003700Y000020900
X000004700Y000020100
X000005000Y000020100
X000005200Y000021700
X000005500Y000021700
X000005750Y000020100
X000006230Y000020530
X000006950Y000020700
X000007250Y000020700
X000007550Y000020700
X000009300Y000021650
X000010800Y000021900
X000011200Y000020150
X000011550Y000020150
X000011850Y000020150
X000012250Y000020150
X000012631Y000020150
X000012850Y000020400
X000013069Y000020150
X000013450Y000020150
X000013650Y000020400
X000013899Y000020150
X000014280Y000020150
X000014500Y000020400
X000014724Y000020150
X000015106Y000020150
X000015700Y000020150
X000015900Y000020700
X000015900Y000021000
X000016200Y000020700
X000016200Y000021000
X000016900Y000021000
X000017200Y000021000
X000017600Y000021000
X000017600Y000020700
X000018024Y000021724
X000018426Y000021724
X000018550Y000021400
X000018750Y000021000
X000019200Y000021350
X000019500Y000021150
X000019820Y000021150
X000019950Y000020850
X000021020Y000021705
X000021500Y000021300
X000022400Y000021950
X000023705Y000021100
X000023850Y000021950
X000024080Y000020150
X000024450Y000020850
X000024450Y000021150
X000024950Y000021950
X000026200Y000021950
X000026250Y000021300
X000027150Y000021300
X000026850Y000022100
X000021380Y000022280
X000021150Y000023100
X000020270Y000023250
X000020270Y000022950
X000020250Y000022550
X000019150Y000022350
X000018850Y000022650
X000018850Y000022350
X000017700Y000023150
X000013950Y000023250
X000013650Y000022200
X000013150Y000022200
X000012550Y000023950
X000011625Y000022480
X000011600Y000023300
X000011600Y000022800
X000011600Y000023600
X000010400Y000023850
X000010400Y000023250
X000010400Y000023550
X000008250Y000023400
X000008100Y000022250
X000006700Y000022250
X000006450Y000022450
X000006450Y000022050
X000000350Y000023550
X000000350Y000025900
X000001200Y000025900
X000007350Y000024000
X000008000Y000025150
X000008600Y000025650
X000009150Y000024300
X000009300Y000025450
X000011050Y000025450
X000012000Y000025800
X000012000Y000025500
X000012300Y000025500
X000012300Y000025800
X000012600Y000025800
X000012600Y000025500
X000013150Y000025550
X000013350Y000024200
X000013450Y000025550
X000013650Y000024200
X000013959Y000025400
X000014550Y000025400
X000014700Y000024250
X000015670Y000024200
X000015700Y000025350
X000016300Y000024200
X000016800Y000025350
X000016800Y000025950
X000017150Y000024150
X000017700Y000024150
X000017900Y000025400
X000018300Y000024200
X000019050Y000025350
X000019800Y000024450
X000020750Y000024300
X000021150Y000025350
X000021450Y000025850
X000026800Y000024600
X000027200Y000024250
X000027200Y000025450
X000026750Y000026050
X000021300Y000027200
X000020750Y000026300
X000020250Y000027200
X000019200Y000027200
X000019050Y000026250
X000018250Y000026250
X000017900Y000027200
X000017450Y000026600
X000016800Y000027200
X000016006Y000026550
X000014720Y000027200
X000014000Y000026600
X000013600Y000027200
X000013122Y000027200
X000012300Y000026600
X000012250Y000027200
X000010950Y000026350
X000010950Y000027200
X000009350Y000027200
X000008200Y000027200
X000007350Y000027200
X000007350Y000026250
T04
X000002697Y000022382
X000002894Y000022972
X000003484Y000022382
X000003878Y000022972
X000004271Y000022382
X000004665Y000022972
X000005059Y000022382
X000005650Y000022972
X000005846Y000022382
T05
X000006014Y000004334
T06
X000001378Y000007717
X000019016Y000018701
T07
X000000839Y000009196
M30
