M48
INCH
T01C.012
T02C.087
T03C.173
T04C.047
;LEADER: 12 
;HEADER: 
;CODE  : ASCII 
;FILE  : ir_pcb_back-dvt-0514pm14-1-2.drl for board ir_pcb_back-dvt-0514pm14.brd ... layers TOP and BOTTOM
;T01 Holesize 1. = 12.000000 Tolerance = +0.000000/-0.000000 PLATED MILS Quantity = 72
;T02 Holesize 2. = 87.000000 Tolerance = +0.000000/-0.000000 PLATED MILS Quantity = 2
;T03 Holesize 3. = 173.000000 Tolerance = +0.000000/-0.000000 PLATED MILS Quantity = 4
;T04 Holesize 4. = 47.000000 Tolerance = +0.000000/-0.000000 NON_PLATED MILS Quantity = 2
%
G90
T01
X000005300Y000000350
R02X-000001000
X000006300Y000000350
X000002300Y000000350
X000001300Y000000350
X000007300Y000000350
X000000450Y000000750
X000000350Y000001400
X000003617Y000002583
X000003083Y000002583
X000000350Y000005000
R02Y000001000
X000006000Y000007953
X000007800Y000007953
X000000350Y000008000
R05Y000001000
X000002900Y000013700
X000001400Y000013700
X000000350Y000014000
X000001650Y000017400
X000001350Y000017400
X000001350Y000017750
X000001650Y000017750
X000000350Y000018050
X000001882Y000018418
X000005800Y000018418
X000004850Y000018550
X000003200Y000018550
X000004000Y000018550
X000002400Y000018550
X000006150Y000018950
X000006250Y000019800
X000006250Y000020550
X000007350Y000021300
X000006350Y000021300
X000009350Y000021300
X000010350Y000021300
X000008350Y000021300
X000010850Y000020900
X000008000Y000020787
X000008000Y000020400
X000013250Y000018100
X000013450Y000017400
R03Y-000001000
X000011400Y000014200
X000011000Y000014200
X000013450Y000013400
R08Y-000001000
X000010200Y000002600
X000010600Y000002600
X000013450Y000001400
X000013100Y000000500
X000011300Y000000350
X000009300Y000000350
X000008300Y000000350
X000012300Y000000350
X000010300Y000000350
T02
X000002087Y000010039
X000011693Y000010039
T03
X000001181Y000003543
X000012598Y000003543
X000011220Y000019291
X000001181Y000015748
T04
X000006890Y000001969
X000006890Y000017717
M30
