M48
INCH
T01C.012
T02C.032
;LEADER: 12 
;HEADER: 
;CODE  : ASCII 
;FILE  : ir_board-dvt-0514-1-4.drl for board ir_board-dvt-0514.brd ... layers TOP and BOTTOM
;T01 Holesize 1. = 12.000000 Tolerance = +0.000000/-0.000000 PLATED MILS Quantity = 310
;T02 Holesize 2. = 32.000000 Tolerance = +0.000000/-0.000000 PLATED MILS Quantity = 8
%
G90
T01
X000000820Y-000000320
X000000320Y-000000600
X000001850Y-000000650
X000001850Y-000000950
X000001550Y-000001100
X000001000Y-000001300
X000000700Y-000001300
X000001850Y-000001300
X000001550Y-000001450
X000001850Y-000001600
X000000700Y-000001650
X000001000Y-000001650
X000000320Y-000002270
X000000320Y-000003580
X000000650Y-000004980
X000001850Y-000004980
X000001250Y-000004980
X000001550Y-000004980
X000000950Y-000004980
X000000320Y-000005190
X000000950Y-000005280
X000001250Y-000005280
X000001850Y-000005280
X000000650Y-000005280
X000001550Y-000005280
X000001100Y-000005580
X000003100Y-000005580
X000003950Y-000005200
X000002450Y-000004850
X000002150Y-000004850
X000002600Y-000003900
X000002800Y-000003700
X000002400Y-000003700
X000002600Y-000003500
X000002522Y-000002702
X000002500Y-000001800
X000002800Y-000001600
X000002800Y-000001300
X000002800Y-000000950
X000002800Y-000000650
X000002820Y-000000320
X000004820Y-000000320
X000004750Y-000000650
X000005050Y-000000650
X000004150Y-000000650
X000004450Y-000000650
X000004280Y-000001980
X000005100Y-000005580
X000007100Y-000005580
X000006820Y-000000320
X000008820Y-000000320
X000008300Y-000002100
X000009500Y-000002100
X000009800Y-000002100
X000009200Y-000002100
X000008600Y-000002100
X000008900Y-000002100
X000009100Y-000004200
X000008400Y-000005200
X000008700Y-000005200
X000009300Y-000005200
X000008100Y-000005200
X000009000Y-000005200
X000009600Y-000005200
X000009900Y-000005200
X000009100Y-000005580
X000010470Y-000009520
X000010170Y-000008930
X000010170Y-000007930
X000010920Y-000007230
X000011520Y-000007230
X000011220Y-000007230
X000010170Y-000006930
X000011240Y-000006910
X000011540Y-000006910
X000010940Y-000006910
X000010475Y-000006640
X000011650Y-000005950
X000011000Y-000005950
X000011300Y-000005950
X000010170Y-000005930
X000010950Y-000004450
X000011350Y-000004450
X000010950Y-000003850
X000011850Y-000003850
X000011350Y-000003850
X000010950Y-000003300
X000011350Y-000003300
X000011950Y-000002400
X000010700Y-000002200
X000010100Y-000002100
X000010700Y-000001850
X000011900Y-000001100
X000011300Y-000001100
X000011000Y-000001100
X000011600Y-000001100
X000011000Y-000000780
X000011600Y-000000780
X000011900Y-000000780
X000011300Y-000000780
X000010820Y-000000320
X000012820Y-000000320
X000012200Y-000000780
X000012200Y-000001100
X000013200Y-000001700
X000013900Y-000001800
X000013600Y-000001800
X000013000Y-000001950
X000013300Y-000002000
X000013600Y-000002150
X000013900Y-000002150
X000012700Y-000002250
X000012400Y-000002250
X000013000Y-000002250
X000013300Y-000002300
X000013900Y-000002500
X000012400Y-000002550
X000013000Y-000002550
X000012700Y-000002550
X000013450Y-000003600
X000013150Y-000003600
X000013900Y-000003850
X000013150Y-000005150
X000012850Y-000005150
X000013500Y-000005150
X000013600Y-000006800
X000012950Y-000007300
X000012650Y-000007300
X000013700Y-000007500
X000012650Y-000008300
X000013110Y-000008350
X000013410Y-000008350
X000012650Y-000009520
X000014650Y-000009520
X000014200Y-000008300
X000014500Y-000008300
X000014898Y-000007650
X000015528Y-000007650
X000015213Y-000007650
X000015842Y-000007650
X000015890Y-000006740
X000015890Y-000006440
X000014950Y-000006400
X000015528Y-000006000
X000015213Y-000006000
X000015842Y-000005998
X000014898Y-000006000
X000015600Y-000004250
X000015300Y-000004250
X000014700Y-000003850
X000014400Y-000003850
X000014950Y-000003650
X000015512Y-000003500
X000015850Y-000003470
X000014800Y-000002500
X000014200Y-000002500
X000014500Y-000002500
X000015750Y-000002150
X000014200Y-000002150
X000015750Y-000001850
X000014200Y-000001800
X000014820Y-000000320
X000016820Y-000000320
X000017150Y-000001050
X000017500Y-000001050
X000016350Y-000001850
X000016650Y-000001850
X000016050Y-000001850
X000016650Y-000002150
R02X-000000300
X000016350Y-000002500
X000016050Y-000002500
X000016550Y-000002850
X000016850Y-000002850
X000017400Y-000003700
X000017400Y-000004000
X000017102Y-000005982
X000016472Y-000005992
X000016158Y-000005998
X000016650Y-000006400
X000016650Y-000006865
X000017150Y-000006900
X000016472Y-000007650
R02X000000315
X000016158Y-000007658
X000016650Y-000009520
X000018650Y-000009520
X000018760Y-000008480
X000019080Y-000008480
X000018330Y-000008350
X000019080Y-000007680
X000019750Y-000004800
X000018200Y-000004350
R02Y000000400
X000019650Y-000002950
X000019200Y-000002000
X000018300Y-000002000
X000018900Y-000002000
X000018600Y-000002000
X000018900Y-000001650
X000018600Y-000001650
X000019200Y-000001650
X000018300Y-000001650
X000019200Y-000001300
X000018300Y-000001300
X000018900Y-000001300
X000018600Y-000001300
X000019650Y-000000650
X000019940Y-000000650
X000018820Y-000000320
X000020820Y-000000320
X000021150Y-000000650
X000020850Y-000000650
X000020550Y-000000650
X000020230Y-000000650
X000020860Y-000001500
X000021160Y-000001500
X000020560Y-000001500
X000021450Y-000001550
X000021740Y-000001550
X000021950Y-000002150
X000021600Y-000002150
X000021600Y-000002450
X000021950Y-000002450
X000020550Y-000004160
X000020700Y-000004450
X000020550Y-000004750
X000021050Y-000004800
X000021250Y-000005050
X000020600Y-000005150
X000020800Y-000006500
X000020300Y-000006500
X000021250Y-000006500
X000021250Y-000006970
X000020300Y-000006970
X000020800Y-000006970
X000021250Y-000007440
X000020800Y-000007440
X000020300Y-000007440
X000020150Y-000008950
X000020650Y-000009520
X000022650Y-000009520
X000022360Y-000009120
X000022040Y-000009120
X000022840Y-000008640
X000022600Y-000008400
X000023000Y-000008175
X000023000Y-000007550
X000023000Y-000007050
X000023000Y-000006600
X000022080Y-000005200
X000022400Y-000005200
X000022640Y-000003440
R02X000000480
X000023100Y-000002200
X000023700Y-000001850
X000023400Y-000001850
X000022030Y-000001550
X000022310Y-000001450
X000022600Y-000001450
X000022600Y-000000750
X000022300Y-000000750
X000022950Y-000000750
X000023300Y-000000750
X000022820Y-000000320
X000024820Y-000000320
X000024900Y-000000800
X000024400Y-000000800
X000024900Y-000001400
X000024400Y-000001400
X000024080Y-000003440
X000024560Y-000003440
X000025400Y-000003950
X000024900Y-000004100
X000025400Y-000004250
X000025400Y-000004550
X000025950Y-000004750
X000025650Y-000004750
X000024650Y-000006500
X000025100Y-000006500
X000024150Y-000006500
X000025100Y-000007100
X000024150Y-000007100
X000024650Y-000007100
X000024650Y-000007650
X000024150Y-000007650
X000025100Y-000007650
X000024000Y-000009050
X000025900Y-000009150
X000024650Y-000009520
X000026650Y-000009520
X000026200Y-000009150
X000027240Y-000008730
X000026280Y-000008050
X000026500Y-000007600
X000026500Y-000007300
X000027240Y-000006730
X000026600Y-000004750
X000026250Y-000004750
X000027240Y-000004730
X000026850Y-000004550
R02Y000000300
X000027240Y-000002730
X000027240Y-000000730
X000026820Y-000000320
T02
X000010709Y-000008960
R03X000000787
X000014119Y-000008950
R03X000000787
M30
