G04 ================== begin FILE IDENTIFICATION RECORD ==================*
G04 Layout Name:  F:/work/Eileen/hmd/dvt/hmd-dvt-323am11.brd*
G04 Film Name:    hmd_dvt_PMCS*
G04 File Format:  Gerber RS274X*
G04 File Origin:  Cadence Allegro 16.3-S053*
G04 Origin Date:  Mon Mar 23 11:22:05 2015*
G04 *
G04 Layer:  PIN/PASTEMASK_TOP*
G04 Layer:  PACKAGE GEOMETRY/PASTEMASK_TOP*
G04 Layer:  BOARD GEOMETRY/OUTLINE*
G04 *
G04 Offset:    (0.00 0.00)*
G04 Mirror:    No*
G04 Mode:      Positive*
G04 Rotation:  0*
G04 FullContactRelief:  No*
G04 UndefLineWidth:     1.00*
G04 ================== end FILE IDENTIFICATION RECORD ====================*
%FSLAX55Y55*MOIN*%
%IR0*IPPOS*OFA0.00000B0.00000*MIA0B0*SFA1.00000B1.00000*%
%AMMACRO41*
21,1,.055,.075,0.0,0.0,89.849*%
%ADD41MACRO41*%
%ADD83R,.05X.1*%
%ADD67R,.012X.103*%
%AMMACRO98*
21,1,.024,.061,0.0,0.0,150.*%
%ADD98MACRO98*%
%ADD58R,.032X.106*%
%ADD92R,.04X.108*%
%ADD47R,.128X.04*%
%AMMACRO94*
21,1,.047,.071,0.0,0.0,150.*%
%ADD94MACRO94*%
%AMMACRO72*
4,1,21,-.01125,-.00452,
-.012035,-.004451,
-.012796,-.004247,
-.01351,-.003914,
-.014155,-.003463,
-.014713,-.002905,
-.015164,-.00226,
-.015497,-.001546,
-.015701,-.000785,
-.01577,0.0,
-.015701,.000785,
-.015497,.001546,
-.015164,.00226,
-.014713,.002905,
-.014155,.003463,
-.01351,.003914,
-.012796,.004247,
-.012035,.004451,
-.01125,.00452,
.01577,.00452,
.01577,-.00452,
-.01125,-.00452,
0.0*
%
%ADD72MACRO72*%
%AMMACRO68*
4,1,21,-.00452,.01125,
-.004451,.012035,
-.004247,.012796,
-.003914,.01351,
-.003463,.014155,
-.002905,.014713,
-.00226,.015164,
-.001546,.015497,
-.000785,.015701,
0.0,.01577,
.000785,.015701,
.001546,.015497,
.00226,.015164,
.002905,.014713,
.003463,.014155,
.003914,.01351,
.004247,.012796,
.004451,.012035,
.00452,.01125,
.00452,-.01577,
-.00452,-.01577,
-.00452,.01125,
0.0*
%
%ADD68MACRO68*%
%ADD61R,.076X.11*%
%ADD89C,.04*%
%ADD50R,.009X.021*%
%ADD118R,.095X.122*%
%ADD71C,.014*%
%AMMACRO22*
21,1,.04646,.17087,0.0,0.0,179.849*%
%ADD22MACRO22*%
%ADD10C,.06*%
%ADD109R,.027X.008*%
%ADD55R,.028X.008*%
%ADD54R,.008X.028*%
%ADD46R,.031X.031*%
%AMMACRO27*
4,1,32,-.01204,.006,
-.013082,.005909,
-.014092,.005638,
-.015039,.005196,
-.015896,.004597,
-.016635,.003857,
-.017235,.003001,
-.017677,.002053,
-.017948,.001043,
-.01796,.00097,
-.01714,-.0015,
-.01364,-.005,
-.01064,-.006,
.01196,-.006,
.013002,-.005909,
.014012,-.005638,
.01496,-.005196,
.015817,-.004596,
.016556,-.003857,
.017156,-.003,
.017598,-.002052,
.017869,-.001042,
.01796,0.0,
.017869,.001042,
.017598,.002052,
.017156,.003,
.016556,.003857,
.015817,.004596,
.01496,.005196,
.014012,.005638,
.013002,.005909,
.01196,.006,
-.01204,.006,
0.0*
%
%ADD27MACRO27*%
%AMMACRO60*
21,1,.044,.026,0.0,0.0,.045*%
%ADD60MACRO60*%
%ADD121R,.06X.06*%
%ADD12R,.024X.024*%
%ADD79R,.016X.016*%
%ADD123R,.138X.098*%
%ADD73R,.071X.071*%
%ADD38R,.069X.197*%
%ADD30R,.069X.069*%
%ADD62R,.04646X.17087*%
%AMMACRO36*
4,1,21,.00449,-.01126,
.00442,-.012045,
.004214,-.012805,
.00388,-.013519,
.003426,-.014163,
.002868,-.014719,
.002222,-.015169,
.001507,-.015501,
.000745,-.015703,
-.00004,-.01577,
-.000824,-.0157,
-.001585,-.015494,
-.002298,-.015159,
-.002943,-.014706,
-.003499,-.014148,
-.003949,-.013501,
-.00428,-.012786,
-.004483,-.012025,
-.00455,-.01124,
-.00448,.01578,
.00456,.01576,
.00449,-.01126,
0.0*
%
%ADD36MACRO36*%
%AMMACRO35*
4,1,21,-.01126,-.00449,
-.012045,-.00442,
-.012805,-.004214,
-.013519,-.00388,
-.014163,-.003426,
-.014719,-.002868,
-.015169,-.002222,
-.015501,-.001507,
-.015703,-.000745,
-.01577,.00004,
-.0157,.000824,
-.015494,.001585,
-.015159,.002298,
-.014706,.002943,
-.014148,.003499,
-.013501,.003949,
-.012786,.00428,
-.012025,.004483,
-.01124,.00455,
.01578,.00448,
.01576,-.00456,
-.01126,-.00449,
0.0*
%
%ADD35MACRO35*%
%AMMACRO34*
4,1,21,-.00449,.01126,
-.00442,.012045,
-.004214,.012805,
-.00388,.013519,
-.003426,.014163,
-.002868,.014719,
-.002222,.015169,
-.001507,.015501,
-.000745,.015703,
.00004,.01577,
.000824,.0157,
.001585,.015494,
.002298,.015159,
.002943,.014706,
.003499,.014148,
.003949,.013501,
.00428,.012786,
.004483,.012025,
.00455,.01124,
.00448,-.01578,
-.00456,-.01576,
-.00449,.01126,
0.0*
%
%ADD34MACRO34*%
%AMMACRO65*
4,1,21,-.0165,.0055,
-.0165,-.0055,
.011,-.0055,
.011955,-.005416,
.012881,-.005168,
.01375,-.004763,
.014535,-.004213,
.015213,-.003535,
.015763,-.00275,
.016168,-.001881,
.016416,-.000955,
.0165,0.0,
.016416,.000955,
.016168,.001881,
.015763,.00275,
.015213,.003535,
.014535,.004213,
.01375,.004763,
.012881,.005168,
.011955,.005416,
.011,.0055,
-.0165,.0055,
0.0*
%
%ADD65MACRO65*%
%AMMACRO56*
21,1,.024,.024,0.0,0.0,89.874*%
%ADD56MACRO56*%
%AMMACRO31*
21,1,.024,.024,0.0,0.0,89.849*%
%ADD31MACRO31*%
%ADD95R,.02X.01*%
%ADD111O,.032X.011*%
%ADD74R,.01X.02*%
%ADD115O,.011X.032*%
%ADD97R,.03X.011*%
%ADD106R,.03X.012*%
%ADD102R,.011X.03*%
%ADD105R,.012X.03*%
%ADD59R,.01X.033*%
%ADD52O,.015X.03*%
%ADD20R,.02X.04*%
%ADD15R,.022X.022*%
%ADD63R,.012X.051*%
%ADD42R,.02X.016*%
%ADD39R,.01X.026*%
%ADD25R,.051X.012*%
%ADD19O,.036X.012*%
%ADD14R,.022X.022*%
%ADD82R,.012X.051*%
%ADD28O,.012X.036*%
%ADD116R,.022X.024*%
%ADD87R,.028X.01*%
%ADD40R,.04X.043*%
%ADD120R,.041X.052*%
%ADD51R,.043X.04*%
%ADD49R,.034X.04*%
%ADD16R,.035X.04*%
%ADD17R,.04X.035*%
%ADD122R,.028X.012*%
%ADD110R,.061X.016*%
%ADD45R,.031X.09*%
%ADD93R,.065X.05*%
%AMMACRO70*
4,1,21,.01125,.00452,
.012035,.004451,
.012796,.004247,
.01351,.003914,
.014155,.003463,
.014713,.002905,
.015164,.00226,
.015497,.001546,
.015701,.000785,
.01577,0.0,
.015701,-.000785,
.015497,-.001546,
.015164,-.00226,
.014713,-.002905,
.014155,-.003463,
.01351,-.003914,
.012796,-.004247,
.012035,-.004451,
.01125,-.00452,
-.01577,-.00452,
-.01577,.00452,
.01125,.00452,
0.0*
%
%ADD70MACRO70*%
%ADD44R,.026X.044*%
%ADD119R,.05X.065*%
%ADD108R,.031X.094*%
%ADD101R,.0335X.0114*%
%ADD85R,.043X.028*%
%AMMACRO69*
4,1,21,.00452,-.01125,
.004451,-.012035,
.004247,-.012796,
.003914,-.01351,
.003463,-.014155,
.002905,-.014713,
.00226,-.015164,
.001546,-.015497,
.000785,-.015701,
0.0,-.01577,
-.000785,-.015701,
-.001546,-.015497,
-.00226,-.015164,
-.002905,-.014713,
-.003463,-.014155,
-.003914,-.01351,
-.004247,-.012796,
-.004451,-.012035,
-.00452,-.01125,
-.00452,.01577,
.00452,.01577,
.00452,-.01125,
0.0*
%
%ADD69MACRO69*%
%ADD24R,.055X.043*%
%ADD117R,.067X.032*%
%ADD100R,.0114X.0335*%
%ADD76R,.028X.035*%
%ADD48R,.043X.055*%
%ADD99R,.055X.045*%
%ADD86R,.039X.016*%
%ADD78R,.035X.028*%
%ADD77R,.031X.059*%
%ADD64R,.039X.034*%
%ADD113R,.057X.053*%
%ADD107R,.043X.075*%
%ADD53R,.059X.051*%
%ADD43R,.034X.039*%
%ADD32R,.048X.044*%
%ADD26R,.079X.031*%
%ADD96R,.02X.02098*%
%ADD91R,.066X.071*%
%ADD90R,.044X.048*%
%ADD80R,.024X.059*%
%ADD33R,.051X.059*%
%AMMACRO29*
4,1,33,-.006,-.012,
-.005909,-.013042,
-.005638,-.014052,
-.005196,-.015,
-.004596,-.015857,
-.003857,-.016596,
-.003,-.017196,
-.002052,-.017638,
-.001042,-.017909,
0.0,-.018,
.001042,-.017909,
.002052,-.017638,
.003,-.017196,
.003857,-.016596,
.004596,-.015857,
.005196,-.015,
.005638,-.014052,
.005909,-.013042,
.006,-.012,
.006,.0081,
.0045,.0136,
.001,.0176,
.00063,.01797,
-.000416,.017988,
-.00145,.017824,
-.002439,.017484,
-.003354,.016976,
-.004167,.016318,
-.004854,.015528,
-.005393,.014631,
-.005768,.013654,
-.005967,.012627,
-.006,.012,
-.006,-.012,
0.0*
%
%ADD29MACRO29*%
%ADD18R,.031X.079*%
%ADD112R,.085X.018*%
%ADD103R,.055X.047*%
%ADD88R,.024X.087*%
%ADD81R,.039X.055*%
%ADD75R,.02098X.02*%
%ADD11R,.075X.055*%
%ADD13R,.087X.071*%
%ADD21R,.047X.067*%
%ADD104R,.075X.095*%
%ADD124R,.087X.085*%
%ADD84R,.085X.087*%
%AMMACRO23*
21,1,.076,.11,0.0,0.0,179.849*%
%ADD23MACRO23*%
%AMMACRO57*
21,1,.034,.039,0.0,0.0,89.923*%
%ADD57MACRO57*%
%AMMACRO114*
21,1,.043,.04,0.0,0.0,89.989*%
%ADD114MACRO114*%
%AMMACRO37*
4,1,21,.01126,.00449,
.012045,.00442,
.012805,.004214,
.013519,.00388,
.014163,.003426,
.014719,.002868,
.015169,.002222,
.015501,.001507,
.015703,.000745,
.01577,-.00004,
.0157,-.000824,
.015494,-.001585,
.015159,-.002298,
.014706,-.002943,
.014148,-.003499,
.013501,-.003949,
.012786,-.00428,
.012025,-.004483,
.01124,-.00455,
-.01578,-.00448,
-.01576,.00456,
.01126,.00449,
0.0*
%
%ADD37MACRO37*%
%AMMACRO66*
4,1,21,.0165,-.0055,
.0165,.0055,
-.011,.0055,
-.011955,.005416,
-.012881,.005168,
-.01375,.004763,
-.014535,.004213,
-.015213,.003535,
-.015763,.00275,
-.016168,.001881,
-.016416,.000955,
-.0165,0.0,
-.016416,-.000955,
-.016168,-.001881,
-.015763,-.00275,
-.015213,-.003535,
-.014535,-.004213,
-.01375,-.004763,
-.012881,-.005168,
-.011955,-.005416,
-.011,-.0055,
.0165,-.0055,
0.0*
%
%ADD66MACRO66*%
%ADD125C,.001*%
G75*
%LPD*%
G75*
G36*
G01X45243Y57371D02*
X45235Y54613D01*
X42475Y54619D01*
X42482Y57380D01*
X45243Y57371D01*
G37*
G36*
G01X41695Y57381D02*
X41687Y54621D01*
X38927Y54628D01*
X38935Y57389D01*
X41695Y57381D01*
G37*
G36*
G01X41705Y60930D02*
X41696Y58169D01*
X38937Y58176D01*
X38944Y60937D01*
X41705Y60930D01*
G37*
G36*
G01X45251Y60920D02*
X45247Y58160D01*
X42484Y58167D01*
X42492Y60928D01*
X45251Y60920D01*
G37*
G36*
G01X46356Y117876D02*
X44100D01*
Y114726D01*
X46356D01*
Y117876D01*
G37*
G36*
G01X42900D02*
X40644D01*
Y114726D01*
X42900D01*
Y117876D01*
G37*
G36*
G01X99900Y188400D02*
Y185400D01*
X104400D01*
Y188400D01*
X99900D01*
G37*
G36*
G01X105300D02*
Y185400D01*
X109800D01*
Y188400D01*
X105300D01*
G37*
G36*
G01Y191800D02*
Y188800D01*
X109800D01*
Y191800D01*
X105300D01*
G37*
G36*
G01X99900D02*
Y188800D01*
X104400D01*
Y191800D01*
X99900D01*
G37*
G36*
G01X109410Y237467D02*
X109409Y242501D01*
X114444D01*
Y237468D01*
X109410Y237467D01*
G37*
G36*
G01X103377D02*
X103376Y242501D01*
X108411D01*
Y237468D01*
X103377Y237467D01*
G37*
G36*
G01X97344D02*
X97343Y242501D01*
X102378D01*
Y237468D01*
X97344Y237467D01*
G37*
G36*
G01Y231434D02*
X97343Y236468D01*
X102378D01*
Y231435D01*
X97344Y231434D01*
G37*
G36*
G01X103377D02*
X103376Y236468D01*
X108411D01*
Y231435D01*
X103377Y231434D01*
G37*
G36*
G01X109410D02*
X109409Y236468D01*
X114444D01*
Y231435D01*
X109410Y231434D01*
G37*
G36*
G01X97344Y243500D02*
X97343Y248534D01*
X102378D01*
Y243501D01*
X97344Y243500D01*
G37*
G36*
G01X103377D02*
X103376Y248534D01*
X108411D01*
Y243501D01*
X103377Y243500D01*
G37*
G36*
G01X109410D02*
X109409Y248534D01*
X114444D01*
Y243501D01*
X109410Y243500D01*
G37*
G36*
G01X139355Y143048D02*
Y141079D01*
X138331D01*
Y143048D01*
X139355D01*
G37*
G36*
G01X137387D02*
Y141079D01*
X136363D01*
Y143048D01*
X137387D01*
G37*
G36*
G01X137426Y148048D02*
Y143914D01*
X134749D01*
Y148048D01*
X137426D01*
G37*
G36*
G01X140969D02*
Y143914D01*
X138292D01*
Y148048D01*
X140969D01*
G37*
G36*
G01X137387Y155883D02*
Y153914D01*
X136363D01*
Y155883D01*
X137387D01*
G37*
G36*
G01X139355D02*
Y153914D01*
X138331D01*
Y155883D01*
X139355D01*
G37*
G36*
G01X137426Y153048D02*
Y148914D01*
X134749D01*
Y153048D01*
X137426D01*
G37*
G36*
G01X140969D02*
Y148914D01*
X138292D01*
Y153048D01*
X140969D01*
G37*
G36*
G01X162506Y99806D02*
Y97046D01*
X159746D01*
Y99806D01*
X162506D01*
G37*
G36*
G01X158958D02*
Y97046D01*
X156198D01*
Y99806D01*
X158958D01*
G37*
G36*
G01Y103354D02*
Y100594D01*
X156198D01*
Y103354D01*
X158958D01*
G37*
G36*
G01X162506D02*
Y100594D01*
X159746D01*
Y103354D01*
X162506D01*
G37*
G36*
G01X241154Y99806D02*
Y97046D01*
X238394D01*
Y99806D01*
X241154D01*
G37*
G36*
G01X237606D02*
Y97046D01*
X234846D01*
Y99806D01*
X237606D01*
G37*
G36*
G01Y103354D02*
Y100594D01*
X234846D01*
Y103354D01*
X237606D01*
G37*
G36*
G01X241154D02*
Y100594D01*
X238394D01*
Y103354D01*
X241154D01*
G37*
G36*
G01X319854Y99806D02*
Y97046D01*
X317094D01*
Y99806D01*
X319854D01*
G37*
G36*
G01X316306D02*
Y97046D01*
X313546D01*
Y99806D01*
X316306D01*
G37*
G36*
G01Y103354D02*
Y100594D01*
X313546D01*
Y103354D01*
X316306D01*
G37*
G36*
G01X319854D02*
Y100594D01*
X317094D01*
Y103354D01*
X319854D01*
G37*
G36*
G01X351163Y90889D02*
Y94246D01*
X349413D01*
Y90889D01*
X351163D01*
G37*
G36*
G01Y86032D02*
Y89389D01*
X349413D01*
Y86032D01*
X351163D01*
G37*
G36*
G01X347913Y94839D02*
Y93239D01*
X345913D01*
Y94839D01*
X347913D01*
G37*
G36*
G01Y92239D02*
Y90639D01*
X345913D01*
Y92239D01*
X347913D01*
G37*
G36*
G01Y89639D02*
Y88039D01*
X345913D01*
Y89639D01*
X347913D01*
G37*
G36*
G01Y87039D02*
Y85439D01*
X345913D01*
Y87039D01*
X347913D01*
G37*
G36*
G01X354413Y90889D02*
Y94246D01*
X352663D01*
Y90889D01*
X354413D01*
G37*
G36*
G01Y86032D02*
Y89389D01*
X352663D01*
Y86032D01*
X354413D01*
G37*
G36*
G01X372987Y89411D02*
Y86054D01*
X374737D01*
Y89411D01*
X372987D01*
G37*
G36*
G01X376237D02*
Y86054D01*
X377987D01*
Y89411D01*
X376237D01*
G37*
G36*
G01Y94268D02*
Y90911D01*
X377987D01*
Y94268D01*
X376237D01*
G37*
G36*
G01X372987D02*
Y90911D01*
X374737D01*
Y94268D01*
X372987D01*
G37*
G36*
G01X379487Y85461D02*
Y87061D01*
X381487D01*
Y85461D01*
X379487D01*
G37*
G36*
G01Y88061D02*
Y89661D01*
X381487D01*
Y88061D01*
X379487D01*
G37*
G36*
G01Y90661D02*
Y92261D01*
X381487D01*
Y90661D01*
X379487D01*
G37*
G36*
G01Y93261D02*
Y94861D01*
X381487D01*
Y93261D01*
X379487D01*
G37*
G36*
G01X399190Y208150D02*
Y213170D01*
X404210D01*
Y208150D01*
X399190D01*
G37*
G36*
G01X387150D02*
Y213170D01*
X392170D01*
Y208150D01*
X387150D01*
G37*
G36*
G01X393170D02*
Y213170D01*
X398190D01*
Y208150D01*
X393170D01*
G37*
G36*
G01X399190Y214170D02*
Y219190D01*
X404210D01*
Y214170D01*
X399190D01*
G37*
G36*
G01X387150D02*
Y219190D01*
X392170D01*
Y214170D01*
X387150D01*
G37*
G36*
G01X393170D02*
Y219190D01*
X398190D01*
Y214170D01*
X393170D01*
G37*
G36*
G01X399190Y220190D02*
Y225210D01*
X404210D01*
Y220190D01*
X399190D01*
G37*
G36*
G01X387150D02*
Y225210D01*
X392170D01*
Y220190D01*
X387150D01*
G37*
G36*
G01X393170D02*
Y225210D01*
X398190D01*
Y220190D01*
X393170D01*
G37*
G36*
G01X399190Y226210D02*
Y231230D01*
X404210D01*
Y226210D01*
X399190D01*
G37*
G36*
G01X387150D02*
Y231230D01*
X392170D01*
Y226210D01*
X387150D01*
G37*
G36*
G01X393170D02*
Y231230D01*
X398190D01*
Y226210D01*
X393170D01*
G37*
G36*
G01X399190Y232230D02*
Y237250D01*
X404210D01*
Y232230D01*
X399190D01*
G37*
G36*
G01X393170D02*
Y237250D01*
X398190D01*
Y232230D01*
X393170D01*
G37*
G36*
G01X387150D02*
Y237250D01*
X392170D01*
Y232230D01*
X387150D01*
G37*
G36*
G01X412883Y145967D02*
Y140846D01*
X407762Y140847D01*
Y145967D01*
X412883D01*
G37*
G36*
G01Y154626D02*
Y149507D01*
X407762Y149506D01*
Y154627D01*
X412883Y154626D01*
G37*
G36*
G01X411230Y208150D02*
Y213170D01*
X416250D01*
Y208150D01*
X411230D01*
G37*
G36*
G01X405210D02*
Y213170D01*
X410230D01*
Y208150D01*
X405210D01*
G37*
G36*
G01X411230Y214170D02*
Y219190D01*
X416250D01*
Y214170D01*
X411230D01*
G37*
G36*
G01X405210D02*
Y219190D01*
X410230D01*
Y214170D01*
X405210D01*
G37*
G36*
G01X411230Y220190D02*
Y225210D01*
X416250D01*
Y220190D01*
X411230D01*
G37*
G36*
G01X405210D02*
Y225210D01*
X410230D01*
Y220190D01*
X405210D01*
G37*
G36*
G01X411230Y226210D02*
Y231230D01*
X416250D01*
Y226210D01*
X411230D01*
G37*
G36*
G01X405210D02*
Y231230D01*
X410230D01*
Y226210D01*
X405210D01*
G37*
G36*
G01X411230Y232230D02*
Y237250D01*
X416250D01*
Y232230D01*
X411230D01*
G37*
G36*
G01X405210D02*
Y237250D01*
X410230D01*
Y232230D01*
X405210D01*
G37*
G36*
G01X421543Y145967D02*
Y140847D01*
X416422Y140846D01*
Y145967D01*
X421543D01*
G37*
G36*
G01Y154627D02*
Y149506D01*
X416422Y149507D01*
Y154626D01*
X421543Y154627D01*
G37*
G36*
G01X481500Y202500D02*
X470500D01*
Y191500D01*
X481500D01*
Y202500D01*
G37*
G36*
G01Y214500D02*
X470500D01*
Y203500D01*
X481500D01*
Y214500D01*
G37*
G36*
G01X493500Y202500D02*
X482500D01*
Y191500D01*
X493500D01*
Y202500D01*
G37*
G36*
G01Y214500D02*
X482500D01*
Y203500D01*
X493500D01*
Y214500D01*
G37*
G54D100*
X399892Y127952D03*
X397924D03*
Y167522D03*
X399892D03*
X415636Y127952D03*
X413668D03*
X411700D03*
X409732D03*
X407764D03*
X405796D03*
X403828D03*
X401860D03*
Y167522D03*
X403828D03*
X405796D03*
X407764D03*
X409732D03*
X411700D03*
X413668D03*
X415636D03*
X431380Y127952D03*
X429412D03*
X427444D03*
X425476D03*
X423508D03*
X421540D03*
X419572D03*
X417604D03*
Y167522D03*
X419572D03*
X421540D03*
X423508D03*
X425476D03*
X427444D03*
X429412D03*
X431380D03*
G54D101*
X394867Y131009D03*
Y132977D03*
Y134945D03*
Y136913D03*
Y138881D03*
Y140849D03*
Y142817D03*
Y144785D03*
Y146753D03*
Y148721D03*
Y150689D03*
Y152657D03*
Y154625D03*
Y156593D03*
Y158561D03*
Y160529D03*
Y162497D03*
Y164465D03*
X434437Y131009D03*
Y132977D03*
Y134945D03*
Y136913D03*
Y138881D03*
Y140849D03*
Y142817D03*
Y144785D03*
Y146753D03*
Y148721D03*
Y150689D03*
Y152657D03*
Y154625D03*
Y156593D03*
Y158561D03*
Y160529D03*
Y162497D03*
Y164465D03*
G54D110*
X458500Y145000D03*
Y161500D03*
G54D120*
X493800Y242950D03*
Y252050D03*
X501200D03*
Y242950D03*
G54D102*
X386940Y205050D03*
X388908D03*
X390876D03*
X392844D03*
X394812D03*
X396780D03*
X398748D03*
X400716D03*
Y240350D03*
X398748D03*
X396780D03*
X394812D03*
X392844D03*
X390876D03*
X388908D03*
X386940D03*
X402684Y205050D03*
X404652D03*
X406620D03*
X408588D03*
X410556D03*
X412524D03*
X414492D03*
X416460D03*
Y240350D03*
X414492D03*
X412524D03*
X410556D03*
X408588D03*
X406620D03*
X404652D03*
X402684D03*
G54D111*
X464638Y188236D03*
Y190205D03*
Y192173D03*
Y194142D03*
Y196110D03*
Y198079D03*
Y200047D03*
Y202016D03*
Y203984D03*
Y205953D03*
Y207921D03*
Y209890D03*
Y211858D03*
Y213827D03*
Y215795D03*
Y217764D03*
X499362Y192173D03*
Y190205D03*
Y188236D03*
Y207921D03*
Y205953D03*
Y203984D03*
Y202016D03*
Y200047D03*
Y198079D03*
Y196110D03*
Y194142D03*
Y217764D03*
Y215795D03*
Y213827D03*
Y211858D03*
Y209890D03*
G54D103*
X415139Y109575D03*
X406479D03*
Y103275D03*
X415139D03*
G54D112*
X473681Y34500D03*
Y39500D03*
Y44500D03*
Y49500D03*
X496319D03*
Y44500D03*
Y39500D03*
Y34500D03*
G54D121*
X508500Y97000D03*
X518000Y99500D03*
X517000Y110500D03*
X546000Y115000D03*
X536000D03*
X546000Y105500D03*
X533500Y163000D03*
G54D10*
X-12000Y280000D03*
X-6000Y24000D03*
X188100Y246300D03*
X364000Y164000D03*
X524000Y21000D03*
X548000Y274000D03*
G54D104*
X409920Y269500D03*
X426080D03*
G54D11*
X1000Y68900D03*
Y81100D03*
X117852Y105100D03*
Y117300D03*
X177900Y97468D03*
Y109668D03*
X196500Y105100D03*
Y117300D03*
X256548Y97468D03*
Y109668D03*
X275200Y105100D03*
Y117300D03*
X335248Y97468D03*
Y109668D03*
X460500Y118400D03*
Y130600D03*
X479500Y111400D03*
Y123600D03*
X490000Y111400D03*
Y123600D03*
G54D113*
X471000Y65950D03*
Y58050D03*
G54D122*
X505039Y194417D03*
Y196583D03*
X509961Y194417D03*
Y196583D03*
G54D20*
X14827Y34000D03*
X17976D03*
X21126D03*
X24276D03*
X27425D03*
X30575D03*
X33724D03*
X43173D03*
X36874D03*
X40024D03*
G54D114*
X469999Y122654D03*
X470001Y129346D03*
G54D21*
X9709Y26323D03*
X48291D03*
G54D105*
X447353Y221458D03*
X445384D03*
X443416D03*
X441447D03*
X439479D03*
X437510D03*
X435542D03*
Y233742D03*
X437510D03*
X439479D03*
X441447D03*
X443416D03*
X445384D03*
X447353D03*
X453258Y221458D03*
X451290D03*
X449321D03*
Y233742D03*
X451290D03*
X453258D03*
G54D30*
X8000Y255500D03*
G54D123*
X519000Y37295D03*
Y61705D03*
G54D12*
X-1350Y110500D03*
X2350D03*
X24722Y70583D03*
X28422D03*
X42353Y41921D03*
Y45621D03*
X46802Y45602D03*
Y41902D03*
X42077Y70692D03*
Y74392D03*
X48859Y125850D03*
Y129550D03*
X43500D03*
Y125850D03*
X38400Y125950D03*
Y129650D03*
X43600Y133850D03*
Y137550D03*
X55155Y45208D03*
X51455D03*
X65500Y118350D03*
Y114650D03*
X59600Y129450D03*
Y125750D03*
X56400Y116450D03*
Y120150D03*
X51400D03*
Y116450D03*
X53900Y125950D03*
Y129650D03*
X59500Y134150D03*
Y137850D03*
X54700Y138350D03*
Y134650D03*
X65000Y158450D03*
Y154750D03*
X63150Y225000D03*
Y221000D03*
Y233000D03*
Y237000D03*
Y241200D03*
Y229000D03*
X75000Y102350D03*
Y98650D03*
X66850Y225000D03*
X81500Y213150D03*
Y216850D03*
X77000Y213150D03*
Y216850D03*
X73000Y213150D03*
Y216850D03*
X68000Y213150D03*
Y216850D03*
X66850Y221000D03*
Y233000D03*
Y237000D03*
Y241200D03*
Y229000D03*
X96000Y133650D03*
Y137350D03*
X97500Y154650D03*
Y158350D03*
X86900Y200450D03*
Y196750D03*
X91400D03*
Y200450D03*
X95900Y196750D03*
Y200450D03*
X85800Y210250D03*
Y213950D03*
X94433Y213952D03*
Y210252D03*
X90133D03*
Y213952D03*
X91452Y260633D03*
X87752D03*
X108500Y127850D03*
Y124150D03*
X101000Y133650D03*
Y137350D03*
X111000Y135150D03*
Y138850D03*
X106000Y143650D03*
X108000Y160150D03*
X107150Y155000D03*
X110850D03*
X103500Y154650D03*
Y158350D03*
X106000Y147350D03*
X108000Y163850D03*
X103750Y203100D03*
X107450D03*
Y199100D03*
X103750D03*
X113900Y200450D03*
Y196750D03*
X103533Y210252D03*
Y213952D03*
X99033Y210252D03*
Y213952D03*
X108633D03*
Y210252D03*
X113500Y210050D03*
Y213750D03*
X116650Y64000D03*
X120350D03*
X125150D03*
X128850D03*
X123750Y130500D03*
X120050D03*
X117500Y150050D03*
Y153750D03*
X122500D03*
Y150050D03*
X118700Y200550D03*
Y196850D03*
X125800Y197050D03*
Y200750D03*
X118615Y214652D03*
Y218352D03*
X126982Y214931D03*
X123282D03*
X121950Y209900D03*
X118250D03*
X144650Y82500D03*
X141950Y112968D03*
X145650D03*
X141950Y116968D03*
X145650D03*
X141050Y135400D03*
X144750D03*
X131550Y161400D03*
X135250D03*
X148350Y82500D03*
X160352Y84350D03*
Y88050D03*
X152502Y87700D03*
X156202D03*
X159300Y113118D03*
X150300Y112618D03*
X154800Y113118D03*
X159300Y116818D03*
X150300Y116318D03*
X154800Y116818D03*
X149550Y135400D03*
X153250D03*
X150400Y140050D03*
Y143750D03*
X155900Y140050D03*
Y143750D03*
X161400D03*
Y140050D03*
X150400Y149050D03*
Y152750D03*
Y157550D03*
Y161250D03*
X155900Y149050D03*
Y152750D03*
X151247Y242252D03*
X154947D03*
X174150Y87968D03*
X170450D03*
X165302Y87944D03*
Y84244D03*
X168300Y113118D03*
X170700Y97918D03*
Y101618D03*
X163800Y113118D03*
X168300Y116818D03*
X163800D03*
X189100Y232000D03*
Y235700D03*
X208200Y128750D03*
Y132450D03*
X220598Y112968D03*
X224298D03*
X220598Y116968D03*
X224298D03*
X223900Y136050D03*
Y132350D03*
X230150Y83300D03*
X233850D03*
X238500Y84150D03*
Y87850D03*
X230150Y87700D03*
X233850D03*
X237948Y113118D03*
X228948Y112618D03*
X233448Y113118D03*
X237948Y116818D03*
X228948Y116318D03*
X233448Y116818D03*
X232500Y149650D03*
Y153350D03*
X238850Y158500D03*
X235150D03*
X252798Y87968D03*
X249098D03*
X249150Y83800D03*
X252850D03*
X243950Y87944D03*
Y84244D03*
X247000Y111650D03*
X242500Y113150D03*
X249348Y97918D03*
Y101618D03*
X247000Y115350D03*
X242500Y116850D03*
X267000Y159850D03*
Y156150D03*
X299298Y112968D03*
X302998D03*
X299298Y116968D03*
X302998D03*
X292650Y194900D03*
X296350D03*
X291000Y239650D03*
Y243350D03*
X317700Y84350D03*
Y88050D03*
X309850Y87700D03*
X313550D03*
X316648Y113118D03*
X307648Y112618D03*
X312148Y113118D03*
X321500Y113150D03*
X316648Y116818D03*
X307648Y116318D03*
X312148Y116818D03*
X321500Y116850D03*
X331498Y87968D03*
X327798D03*
X322650Y87944D03*
Y84244D03*
X326000Y113150D03*
X328048Y97918D03*
Y101618D03*
X326000Y116850D03*
X332350Y242200D03*
X336050D03*
X350850Y115000D03*
X347150D03*
X352500Y209650D03*
Y213350D03*
X355650Y114900D03*
X359350D03*
X366650Y212000D03*
X367350Y225500D03*
X363650D03*
X359350Y243000D03*
X355650D03*
X382150Y103700D03*
X378450D03*
X373900Y112650D03*
X373800Y104250D03*
Y107950D03*
X373900Y116350D03*
X377350Y208000D03*
X373650D03*
X377350Y203000D03*
X373650D03*
X370350Y212000D03*
X373650D03*
X377350D03*
X374850Y225500D03*
X371150D03*
X399000Y106350D03*
Y102650D03*
X400650Y189000D03*
X399000Y194650D03*
Y198350D03*
X387000D03*
Y194650D03*
X393000Y198350D03*
Y194650D03*
X395850Y248200D03*
X399550D03*
X392350Y248000D03*
X388650D03*
X414138Y121578D03*
X410438D03*
X413828Y116919D03*
X417528D03*
X409443Y117061D03*
X405743D03*
X412649Y182535D03*
Y178835D03*
X416891Y182535D03*
Y178835D03*
X404000Y182350D03*
Y178650D03*
X408406Y182535D03*
Y178835D03*
X404350Y189000D03*
X416000Y194650D03*
Y198350D03*
X411000Y194650D03*
Y198350D03*
X403650Y251500D03*
X407350D03*
X415000Y250850D03*
Y247150D03*
X406350Y256000D03*
X402650D03*
X411150D03*
X414850D03*
X422500Y102650D03*
Y106350D03*
X422659Y113935D03*
Y117635D03*
X426902Y113935D03*
Y117635D03*
X422902Y174239D03*
X427290Y174250D03*
X422902Y177939D03*
X430750Y182010D03*
X431240Y191300D03*
X427290Y177950D03*
X425400Y225250D03*
Y228950D03*
X425000Y240650D03*
Y236950D03*
X431150Y239500D03*
X419500Y250850D03*
Y247150D03*
X425000Y247350D03*
Y251050D03*
X434650Y105000D03*
X438350D03*
X447186Y123963D03*
X443486D03*
X447186Y128913D03*
X443486D03*
Y133863D03*
X447186D03*
X434650Y174000D03*
X438350D03*
X434450Y182010D03*
X434940Y191300D03*
X446500Y215350D03*
Y211650D03*
X441500D03*
Y215350D03*
X442350Y239500D03*
X438650D03*
X446150D03*
X434850D03*
X456350Y198500D03*
X452650D03*
X456350Y202500D03*
X452650D03*
X451500Y215350D03*
Y211650D03*
X459500Y228650D03*
Y232350D03*
X463500Y228650D03*
Y232350D03*
X449850Y239500D03*
X467000Y113350D03*
Y109650D03*
X472000D03*
Y113350D03*
X480850Y130500D03*
X477150D03*
X471500Y174850D03*
Y171150D03*
X475500Y174850D03*
Y171150D03*
X465500Y177150D03*
Y180850D03*
X491850Y130500D03*
X488150D03*
X481500Y172650D03*
Y176350D03*
X490500Y172650D03*
Y176350D03*
X486000Y172650D03*
Y176350D03*
X495000Y172650D03*
Y176350D03*
X494000Y226650D03*
Y230350D03*
X490000Y226650D03*
Y230350D03*
X493150Y237000D03*
X496850D03*
X498000Y111650D03*
Y124150D03*
Y127850D03*
Y115350D03*
X512350Y171000D03*
X508650D03*
X499000Y172650D03*
Y176350D03*
X504500Y166850D03*
Y163150D03*
X509000Y166850D03*
Y163150D03*
X508650Y175500D03*
X512350D03*
Y180000D03*
X508650D03*
X510850Y189000D03*
X507150D03*
Y184500D03*
X510850D03*
X509350Y197500D03*
X505650D03*
X509350Y193500D03*
X505650D03*
X511850Y205500D03*
X508150D03*
X511850Y201500D03*
X508150D03*
X506000Y215850D03*
Y212150D03*
X503500Y219150D03*
Y222850D03*
X504350Y237000D03*
X500650D03*
X517500Y182150D03*
Y185850D03*
G54D124*
X545008Y176115D03*
Y231823D03*
G54D13*
X2522Y119033D03*
Y202895D03*
G54D40*
X49000Y152654D03*
Y159346D03*
X58000Y152654D03*
Y159346D03*
X78900Y182754D03*
Y189446D03*
X132400Y190146D03*
Y183454D03*
G54D106*
X435542Y224647D03*
Y226616D03*
Y228584D03*
Y230553D03*
X453258Y224647D03*
Y230553D03*
Y228584D03*
Y226616D03*
G54D115*
X479047Y185638D03*
X477079D03*
X475110D03*
X473142D03*
X471173D03*
X469205D03*
X467236D03*
Y220362D03*
X469205D03*
X471173D03*
X473142D03*
X475110D03*
X477079D03*
X479047D03*
X494795Y185638D03*
X492827D03*
X490858D03*
X488890D03*
X486921D03*
X484953D03*
X482984D03*
X481016D03*
Y220362D03*
X482984D03*
X484953D03*
X486921D03*
X488890D03*
X490858D03*
X492827D03*
X494795D03*
X496764Y185638D03*
Y220362D03*
G54D31*
X34407Y45292D03*
X33005Y74350D03*
X32995Y70650D03*
X24731Y74688D03*
X28431Y74678D03*
X38107Y45282D03*
X46495Y70650D03*
X46505Y74350D03*
X37581Y74404D03*
X37571Y70704D03*
X53432Y55461D03*
X53442Y59161D03*
X50995Y70650D03*
X51005Y74350D03*
G54D22*
X12467Y55252D03*
X25499Y55218D03*
G54D125*
G01X-56417Y117705D02*
X-57666Y118635D01*
X-58292Y119720D01*
X-58500Y120960D01*
X-58083Y122510D01*
X-57042Y123595D01*
X-55792Y123905D01*
X-54541Y123750D01*
X-53500Y123130D01*
X-51417Y120030D01*
X-49958Y118635D01*
X-47875Y117705D01*
X-46000Y117395D01*
Y123905D01*
G01Y132740D02*
X-48708Y133050D01*
X-51000Y133515D01*
X-53083Y134135D01*
X-55375Y134910D01*
X-58500Y136150D01*
Y129950D01*
G01X-47875Y142040D02*
X-46833Y142970D01*
X-46208Y144055D01*
X-46000Y145450D01*
X-46417Y146845D01*
X-47250Y147930D01*
X-48708Y148705D01*
X-50375Y148860D01*
X-52042Y148550D01*
X-53083Y147775D01*
X-53917Y146690D01*
X-54125Y145605D01*
X-53917Y144520D01*
X-53083Y143125D01*
X-58500Y143590D01*
Y147775D01*
G01X-48500Y154440D02*
X-47041Y155370D01*
X-46208Y156610D01*
X-46000Y158005D01*
X-46208Y159245D01*
X-47250Y160485D01*
X-48500Y161260D01*
X-49750Y161415D01*
X-51208Y161105D01*
X-52250Y160020D01*
X-52667Y158935D01*
Y157540D01*
G01Y158935D02*
X-53292Y159865D01*
X-54333Y160640D01*
X-55583Y160950D01*
X-56833Y160640D01*
X-57875Y159865D01*
X-58500Y158470D01*
X-58292Y157075D01*
X-57458Y155680D01*
G01X-45583Y170250D02*
X-45792Y169940D01*
X-46208D01*
X-46417Y170250D01*
X-46208Y170560D01*
X-45792D01*
X-45583Y170250D01*
G01X-56417Y179705D02*
X-57666Y180635D01*
X-58292Y181720D01*
X-58500Y182960D01*
X-58083Y184510D01*
X-57042Y185595D01*
X-55792Y185905D01*
X-54541Y185750D01*
X-53500Y185130D01*
X-51417Y182030D01*
X-49958Y180635D01*
X-47875Y179705D01*
X-46000Y179395D01*
Y185905D01*
G01X-58500Y195050D02*
X-58083Y193810D01*
X-57042Y192880D01*
X-55792Y192260D01*
X-54125Y191795D01*
X-52250Y191640D01*
X-50375Y191795D01*
X-48708Y192260D01*
X-47458Y192880D01*
X-46417Y193810D01*
X-46000Y195050D01*
X-46417Y196290D01*
X-47458Y197220D01*
X-48708Y197840D01*
X-50375Y198305D01*
X-52250Y198460D01*
X-54125Y198305D01*
X-55792Y197840D01*
X-57042Y197220D01*
X-58083Y196290D01*
X-58500Y195050D01*
G01X-53208Y221705D02*
X-54667Y222790D01*
X-55500Y223720D01*
X-55917Y224960D01*
X-55500Y226045D01*
X-54667Y226820D01*
X-53417Y227440D01*
X-51958Y227595D01*
X-50708Y227440D01*
X-49458Y226820D01*
X-48417Y225890D01*
X-48000Y224805D01*
X-48417Y223565D01*
X-49666Y222480D01*
X-51542Y221860D01*
X-53625Y221705D01*
X-56333Y222015D01*
X-57792Y222480D01*
X-59250Y223255D01*
X-60292Y224340D01*
X-60500Y225425D01*
X-60083Y226510D01*
X-59042Y227285D01*
G01X-49458Y234415D02*
X-48417Y235500D01*
X-48000Y236740D01*
X-48417Y237980D01*
X-49666Y239065D01*
X-51542Y239840D01*
X-53417Y240150D01*
X-55708D01*
X-57583Y239840D01*
X-59250Y239065D01*
X-60083Y238135D01*
X-60500Y237050D01*
X-60083Y235810D01*
X-59250Y234880D01*
X-58000Y234260D01*
X-56333Y233950D01*
X-54875Y234260D01*
X-53417Y235035D01*
X-52583Y235965D01*
X-52375Y237050D01*
X-52791Y238290D01*
X-53833Y239220D01*
X-55708Y240150D01*
G01X-47583Y249450D02*
X-47792Y249140D01*
X-48208D01*
X-48417Y249450D01*
X-48208Y249760D01*
X-47792D01*
X-47583Y249450D01*
G01X-49458Y259215D02*
X-48417Y260300D01*
X-48000Y261540D01*
X-48417Y262780D01*
X-49666Y263865D01*
X-51542Y264640D01*
X-53417Y264950D01*
X-55708D01*
X-57583Y264640D01*
X-59250Y263865D01*
X-60083Y262935D01*
X-60500Y261850D01*
X-60083Y260610D01*
X-59250Y259680D01*
X-58000Y259060D01*
X-56333Y258750D01*
X-54875Y259060D01*
X-53417Y259835D01*
X-52583Y260765D01*
X-52375Y261850D01*
X-52791Y263090D01*
X-53833Y264020D01*
X-55708Y264950D01*
G01X-50500Y270840D02*
X-49041Y271770D01*
X-48208Y273010D01*
X-48000Y274405D01*
X-48208Y275645D01*
X-49250Y276885D01*
X-50500Y277660D01*
X-51750Y277815D01*
X-53208Y277505D01*
X-54250Y276420D01*
X-54667Y275335D01*
Y273940D01*
G01Y275335D02*
X-55292Y276265D01*
X-56333Y277040D01*
X-57583Y277350D01*
X-58833Y277040D01*
X-59875Y276265D01*
X-60500Y274870D01*
X-60292Y273475D01*
X-59458Y272080D01*
G01X-47750Y215600D02*
Y210950D01*
X-60250D01*
Y215600D01*
G01X-47750Y283800D02*
Y288450D01*
X-60250D01*
Y283800D01*
G01X27602Y11341D02*
X-44000D01*
G01X-34000Y150375D02*
Y11341D01*
G01X-36500Y26341D02*
X-34000Y11341D01*
X-31500Y26341D01*
X-36500D01*
G01X-34000Y181625D02*
Y286661D01*
G01X-31500Y271661D02*
X-34000Y286661D01*
X-36500Y271661D01*
X-31500D01*
G01X-17789Y286661D02*
X-44000D01*
G01X-18492Y19215D02*
G03X-10618Y11341I7874J0D01*
G01X-18492Y111535D02*
Y19215D01*
G01X-12924Y117103D02*
X-18492Y111535D01*
G01Y210354D02*
X-12924Y204787D01*
G01X-18492Y278787D02*
Y210354D01*
G01Y230174D02*
Y320000D01*
G01X-10618Y286661D02*
G03X-18492Y278787I0J-7874D01*
G01X195975Y310000D02*
X-18492D01*
G01X-3492Y312500D02*
X-18492Y310000D01*
X-3492Y307500D01*
Y312500D01*
G01X-10618Y11341D02*
X201977D01*
G01X-12924Y117103D02*
G03X-10618Y122671I-5568J5568D01*
G01D02*
Y199219D01*
G01D02*
G03X-12924Y204787I-7874J0D01*
G01X554340Y286661D02*
X-10618D01*
G01X201977Y11341D02*
G03X209851Y19215I0J7874D01*
G01X207055Y308958D02*
X208140Y310417D01*
X209070Y311250D01*
X210310Y311667D01*
X211395Y311250D01*
X212170Y310417D01*
X212790Y309167D01*
X212945Y307708D01*
X212790Y306458D01*
X212170Y305208D01*
X211240Y304167D01*
X210155Y303750D01*
X208915Y304167D01*
X207830Y305416D01*
X207210Y307292D01*
X207055Y309375D01*
X207365Y312083D01*
X207830Y313542D01*
X208605Y315000D01*
X209690Y316042D01*
X210775Y316250D01*
X211860Y315833D01*
X212635Y314792D01*
G01X219455Y314167D02*
X220385Y315416D01*
X221470Y316042D01*
X222710Y316250D01*
X224260Y315833D01*
X225345Y314792D01*
X225655Y313542D01*
X225500Y312291D01*
X224880Y311250D01*
X221780Y309167D01*
X220385Y307708D01*
X219455Y305625D01*
X219145Y303750D01*
X225655D01*
G01X231390Y306250D02*
X232320Y304791D01*
X233560Y303958D01*
X234955Y303750D01*
X236195Y303958D01*
X237435Y305000D01*
X238210Y306250D01*
X238365Y307500D01*
X238055Y308958D01*
X236970Y310000D01*
X235885Y310417D01*
X234490D01*
G01X235885D02*
X236815Y311042D01*
X237590Y312083D01*
X237900Y313333D01*
X237590Y314583D01*
X236815Y315625D01*
X235420Y316250D01*
X234025Y316042D01*
X232630Y315208D01*
G01X243790Y306250D02*
X244720Y304791D01*
X245960Y303958D01*
X247355Y303750D01*
X248595Y303958D01*
X249835Y305000D01*
X250610Y306250D01*
X250765Y307500D01*
X250455Y308958D01*
X249370Y310000D01*
X248285Y310417D01*
X246890D01*
G01X248285D02*
X249215Y311042D01*
X249990Y312083D01*
X250300Y313333D01*
X249990Y314583D01*
X249215Y315625D01*
X247820Y316250D01*
X246425Y316042D01*
X245030Y315208D01*
G01X259600Y303333D02*
X259290Y303542D01*
Y303958D01*
X259600Y304167D01*
X259910Y303958D01*
Y303542D01*
X259600Y303333D01*
G01X272000Y316250D02*
X270760Y315833D01*
X269830Y314792D01*
X269210Y313542D01*
X268745Y311875D01*
X268590Y310000D01*
X268745Y308125D01*
X269210Y306458D01*
X269830Y305208D01*
X270760Y304167D01*
X272000Y303750D01*
X273240Y304167D01*
X274170Y305208D01*
X274790Y306458D01*
X275255Y308125D01*
X275410Y310000D01*
X275255Y311875D01*
X274790Y313542D01*
X274170Y314792D01*
X273240Y315833D01*
X272000Y316250D01*
G01X286260Y303750D02*
Y316250D01*
X280525Y307292D01*
X288275D01*
G01X209851Y42837D02*
Y19215D01*
G01X359457Y42837D02*
X209851D01*
G01X318700Y303750D02*
Y316250D01*
X316840Y313750D01*
G01Y303750D02*
X320560D01*
G01X327690Y305625D02*
X328620Y304583D01*
X329705Y303958D01*
X331100Y303750D01*
X332495Y304167D01*
X333580Y305000D01*
X334355Y306458D01*
X334510Y308125D01*
X334200Y309792D01*
X333425Y310833D01*
X332340Y311667D01*
X331255Y311875D01*
X330170Y311667D01*
X328775Y310833D01*
X329240Y316250D01*
X333425D01*
G01X343500Y303750D02*
X344585Y303958D01*
X345825Y304583D01*
X346600Y305625D01*
X346910Y307083D01*
X346600Y308541D01*
X345670Y309792D01*
X344275Y310417D01*
X342725D01*
X341795Y310833D01*
X341020Y311875D01*
X340710Y313333D01*
X341175Y314792D01*
X342260Y315833D01*
X343500Y316250D01*
X344740Y315833D01*
X345825Y314792D01*
X346290Y313333D01*
X345980Y311875D01*
X345205Y310833D01*
X344275Y310417D01*
X342725D01*
X341330Y309792D01*
X340400Y308541D01*
X340090Y307083D01*
X340400Y305625D01*
X341175Y304583D01*
X342415Y303958D01*
X343500Y303750D01*
G01X355900Y303333D02*
X355590Y303542D01*
Y303958D01*
X355900Y304167D01*
X356210Y303958D01*
Y303542D01*
X355900Y303333D01*
G01X364890Y306250D02*
X365820Y304791D01*
X367060Y303958D01*
X368455Y303750D01*
X369695Y303958D01*
X370935Y305000D01*
X371710Y306250D01*
X371865Y307500D01*
X371555Y308958D01*
X370470Y310000D01*
X369385Y310417D01*
X367990D01*
G01X369385D02*
X370315Y311042D01*
X371090Y312083D01*
X371400Y313333D01*
X371090Y314583D01*
X370315Y315625D01*
X368920Y316250D01*
X367525Y316042D01*
X366130Y315208D01*
G01X377755Y314167D02*
X378685Y315416D01*
X379770Y316042D01*
X381010Y316250D01*
X382560Y315833D01*
X383645Y314792D01*
X383955Y313542D01*
X383800Y312291D01*
X383180Y311250D01*
X380080Y309167D01*
X378685Y307708D01*
X377755Y305625D01*
X377445Y303750D01*
X383955D01*
G01X309400D02*
X304750D01*
Y316250D01*
X309400D01*
G01X367331Y11341D02*
X528828D01*
G01X359457Y19215D02*
G03X367331Y11341I7874J0D01*
G01X359457Y19215D02*
Y42837D01*
G01X390000Y303750D02*
X394650D01*
Y316250D01*
X390000D01*
G01X404025Y310000D02*
X604812D01*
G01X528828Y11341D02*
G03X536702Y19215I0J7874D01*
G01D02*
Y64490D01*
G01X544576Y72364D02*
G03X536702Y64490I0J-7874D01*
G01X544576Y72364D02*
X573316D01*
G01X562214Y278787D02*
G03X554340Y286661I-7874J0D01*
G01X573316Y72364D02*
G03X581190Y80238I0J7874D01*
G01X596938Y164803D02*
X570088D01*
G01X562214Y278787D02*
Y172677D01*
G01D02*
G03X570088Y164803I7874J0D01*
G01X581190Y117640D02*
Y80238D01*
G01X589064Y125514D02*
G03X581190Y117640I0J-7874D01*
G01X596938Y125514D02*
X589064D01*
G01X589812Y307500D02*
X604812Y310000D01*
X589812Y312500D01*
Y307500D01*
G01X596938Y125514D02*
G03X604812Y133388I0J7874D01*
G01D02*
Y156929D01*
G01D02*
G03X596938Y164803I-7874J0D01*
G01X604812Y158023D02*
Y320000D01*
G54D23*
X10983Y55256D03*
X26983Y55214D03*
G54D32*
X25900Y95950D03*
Y109650D03*
G54D107*
X435579Y248000D03*
X445421D03*
G54D116*
X472827Y233500D03*
X476173D03*
X484673D03*
X481327D03*
X518827Y192000D03*
X522173D03*
X518827Y200000D03*
X522173D03*
G54D14*
X800Y226500D03*
X-2800D03*
X-8800Y271500D03*
X-5200D03*
X15300Y245000D03*
X11700D03*
X12700Y271000D03*
X16300D03*
X5700D03*
X9300D03*
X12700Y267000D03*
X16300D03*
X28600Y230500D03*
X25000D03*
X50600Y253000D03*
Y268500D03*
Y263000D03*
Y258500D03*
Y273000D03*
Y278500D03*
X54200Y253000D03*
D03*
X57800D03*
X54200Y268500D03*
Y263000D03*
Y258500D03*
Y273000D03*
D03*
X57800D03*
X54200Y268500D03*
X57800D03*
X54200Y263000D03*
X57800D03*
X54200Y258500D03*
X57800D03*
X54200Y278500D03*
D03*
X57800D03*
X248800Y121000D03*
X245200D03*
X449200Y180000D03*
Y185500D03*
X455700Y44000D03*
X459300D03*
X461700Y54500D03*
X465300D03*
Y58500D03*
X461700D03*
X452800Y180000D03*
Y185500D03*
X456200Y180000D03*
X459800D03*
X456200Y185500D03*
X459800D03*
X480200Y68500D03*
X476600D03*
G54D50*
X72843Y271201D03*
X74418D03*
X75993D03*
X77568D03*
X79143D03*
X80717D03*
X71269D03*
X72843Y278485D03*
X74418D03*
X75993D03*
X77568D03*
X79143D03*
X80717D03*
X71269D03*
X88591Y271201D03*
X90166D03*
X91741D03*
X93316D03*
X94891D03*
X96465D03*
X82292D03*
X83867D03*
X85442D03*
X87017D03*
Y278485D03*
X88591D03*
X90166D03*
X91741D03*
X93316D03*
X94891D03*
X96465D03*
X82292D03*
X83867D03*
X85442D03*
X98040Y271201D03*
X99615D03*
X101190D03*
X102765D03*
X104339D03*
X98040Y278485D03*
X99615D03*
X101190D03*
X102765D03*
X104339D03*
G54D41*
X60631Y54993D03*
X60663Y67193D03*
G54D33*
X31737Y119100D03*
X23863D03*
X31737Y127600D03*
X23863D03*
G54D117*
X471500Y262300D03*
Y275700D03*
X495500Y262300D03*
Y275700D03*
G54D24*
X9683Y78877D03*
Y71577D03*
X16735Y78792D03*
Y71492D03*
X71500Y155850D03*
Y163150D03*
X94900Y189250D03*
Y181950D03*
X126900Y113918D03*
Y121218D03*
X133952Y113851D03*
Y121151D03*
X205548Y113918D03*
Y121218D03*
X212600Y113851D03*
Y121151D03*
X284248Y113918D03*
Y121218D03*
X291300Y113851D03*
Y121151D03*
G54D108*
X437000Y264823D03*
X442000D03*
X447000D03*
X437000Y280177D03*
X442000D03*
X447000D03*
X452000Y264823D03*
X457000D03*
X452000Y280177D03*
X457000D03*
G54D51*
X94154Y116500D03*
X100846D03*
X125554Y174400D03*
X132246D03*
G54D42*
X62478Y96509D03*
Y101627D03*
Y99068D03*
X69958Y96509D03*
Y101627D03*
Y99068D03*
X95760Y128559D03*
Y126000D03*
Y123441D03*
X103240Y128559D03*
Y126000D03*
Y123441D03*
G54D15*
X-9500Y238700D03*
Y242300D03*
X18000Y220900D03*
Y224500D03*
X25350Y257700D03*
Y261300D03*
X64000Y256200D03*
Y252600D03*
Y256200D03*
Y259800D03*
X69500Y256200D03*
Y252600D03*
X73500Y256200D03*
Y252600D03*
X79000Y256200D03*
Y252600D03*
Y256200D03*
X73500D03*
X69500D03*
X79000Y259800D03*
X73500D03*
X69500D03*
X117000Y277300D03*
Y273700D03*
X429500Y218700D03*
Y222300D03*
X463500Y44700D03*
Y48300D03*
X458000Y175300D03*
Y171700D03*
X461700Y175300D03*
Y171700D03*
X479500Y64800D03*
Y61200D03*
X490500Y162700D03*
Y166300D03*
X486000Y162700D03*
Y166300D03*
X495000Y162700D03*
Y166300D03*
X503000Y41700D03*
Y45300D03*
X499500Y162700D03*
Y166300D03*
G54D60*
X118396Y78228D03*
X118399Y74488D03*
X118402Y70748D03*
X128796Y78236D03*
X128802Y70756D03*
G54D43*
X51450Y111100D03*
X57950D03*
X59350Y144800D03*
X52850D03*
X81750Y138500D03*
X94750Y109000D03*
X88250Y138500D03*
X101250Y109000D03*
X129150Y135400D03*
X135650D03*
X457750Y191000D03*
X451250D03*
X520750Y165000D03*
X514250D03*
G54D70*
X153543Y103152D03*
Y101184D03*
Y99216D03*
Y97248D03*
X232191Y103152D03*
Y101184D03*
Y99216D03*
Y97248D03*
X310891Y103152D03*
Y101184D03*
Y99216D03*
Y97248D03*
G54D16*
X-4500Y237950D03*
Y244050D03*
X11500Y218950D03*
Y225050D03*
X24500Y219450D03*
Y225550D03*
X21000Y254450D03*
X29700Y255950D03*
X21000Y260550D03*
X29700Y262050D03*
G54D25*
X15300Y126524D03*
Y128492D03*
Y130460D03*
Y132428D03*
Y134396D03*
Y136364D03*
Y138332D03*
Y140300D03*
Y142268D03*
Y144236D03*
Y146204D03*
Y148172D03*
Y150140D03*
Y152108D03*
Y154076D03*
Y156044D03*
Y158012D03*
Y159980D03*
Y161948D03*
Y163916D03*
Y165884D03*
Y167852D03*
Y169820D03*
Y171788D03*
Y173756D03*
Y175724D03*
Y177692D03*
Y179660D03*
Y181628D03*
Y183596D03*
Y185564D03*
Y187532D03*
Y189500D03*
Y191468D03*
Y193436D03*
Y195404D03*
X533000Y191174D03*
Y189205D03*
Y187237D03*
Y185268D03*
Y206922D03*
Y204953D03*
Y202985D03*
Y201016D03*
Y199048D03*
Y197079D03*
Y195111D03*
Y193142D03*
Y222670D03*
Y220701D03*
Y218733D03*
Y216764D03*
Y214796D03*
Y212827D03*
Y210859D03*
Y208890D03*
G54D52*
X96441Y143260D03*
Y150740D03*
X101559Y143260D03*
X99000Y150740D03*
X101559D03*
G54D34*
X39122Y51973D03*
X41090Y51968D03*
X43058Y51962D03*
X45026Y51957D03*
G54D109*
X456778Y141063D03*
Y143032D03*
X460222D03*
Y141063D03*
X456778Y145000D03*
Y146968D03*
Y148937D03*
X460222D03*
Y146968D03*
X456778Y157563D03*
Y159532D03*
X460222D03*
Y157563D03*
X456778Y161500D03*
Y163468D03*
Y165437D03*
X460222D03*
Y163468D03*
G54D118*
X485000Y42000D03*
G54D61*
X128252Y97600D03*
X144252D03*
X206900D03*
X222900D03*
X285600D03*
X301600D03*
G54D80*
X239378Y69705D03*
X235441D03*
X231504D03*
X227567D03*
X255126D03*
X251189D03*
X247252D03*
X243315D03*
X270874D03*
X266937D03*
X263000D03*
X259063D03*
X286623D03*
X282685D03*
X278748D03*
X274811D03*
X302371D03*
X298434D03*
X294497D03*
X290560D03*
X318119D03*
X314182D03*
X310245D03*
X306308D03*
X337804D03*
X333867D03*
X329930D03*
X325993D03*
X322056D03*
X341741D03*
G54D26*
X21500Y241060D03*
Y248940D03*
G54D53*
X87300Y189037D03*
Y181163D03*
X115400Y189037D03*
Y181163D03*
X123900Y190537D03*
Y182663D03*
G54D119*
X498500Y85000D03*
X509500D03*
G54D44*
X66760Y126300D03*
Y136700D03*
X74240Y126300D03*
Y136700D03*
X70500D03*
G54D17*
X2050Y231500D03*
X-4050D03*
X-10050Y260000D03*
X-3950D03*
X-10050Y266000D03*
X-3950D03*
X30050Y235500D03*
X23950D03*
X456450Y34000D03*
X462550D03*
X452450Y50100D03*
X458550D03*
X456450Y39500D03*
X462550D03*
X523950Y80000D03*
X530050D03*
G54D35*
X47890Y54807D03*
X47895Y56775D03*
X47901Y58743D03*
X47906Y60711D03*
G54D62*
X129736Y97600D03*
X142768D03*
X208384D03*
X221416D03*
X287084D03*
X300116D03*
G54D71*
X158092Y183284D03*
X154942D03*
X151793D03*
X158092Y186434D03*
X154942D03*
X151793D03*
X158092Y189583D03*
X154942D03*
X151793D03*
X158092Y192733D03*
X154942D03*
X151793D03*
X158092Y195882D03*
X154942D03*
X151793D03*
X158092Y199032D03*
X154942D03*
X151793D03*
X158092Y202182D03*
X154942D03*
X151793D03*
X158092Y205331D03*
X154942D03*
X151793D03*
X158092Y208481D03*
X154942D03*
X151793D03*
X158092Y211630D03*
X154942D03*
X151793D03*
X158092Y214780D03*
X154942D03*
X151793D03*
X158092Y217930D03*
X154942D03*
X151793D03*
X158092Y221079D03*
X154942D03*
X151793D03*
X158092Y224229D03*
X154942D03*
X151793D03*
X158092Y227378D03*
X154942D03*
X151793D03*
X158092Y230528D03*
X154942D03*
X151793D03*
X176989Y183284D03*
X173840D03*
X170690D03*
X176989Y186434D03*
X173840D03*
X170690D03*
X176989Y189583D03*
X173840D03*
X170690D03*
X176989Y192733D03*
X173840D03*
X170690D03*
X176989Y195882D03*
X173840D03*
X170690D03*
X176989Y199032D03*
X173840D03*
X170690D03*
X176989Y202182D03*
X173840D03*
X170690D03*
X176989Y205331D03*
X173840D03*
X170690D03*
X176989Y208481D03*
X173840D03*
X170690D03*
X176989Y211630D03*
X173840D03*
X170690D03*
X176989Y214780D03*
X173840D03*
X170690D03*
X176989Y217930D03*
X173840D03*
X170690D03*
X176989Y221079D03*
X173840D03*
X170690D03*
X176989Y224229D03*
X173840D03*
X170690D03*
X176989Y227378D03*
X173840D03*
X170690D03*
X176989Y230528D03*
X173840D03*
X170690D03*
X319430Y183656D03*
X316281D03*
X319430Y186806D03*
X316281D03*
X319430Y189955D03*
X316281D03*
X319430Y193105D03*
X316281D03*
X319430Y196254D03*
X316281D03*
X319430Y199404D03*
X316281D03*
X319430Y202554D03*
X316281D03*
X319430Y205703D03*
X316281D03*
X319430Y208853D03*
X316281D03*
X319430Y212002D03*
X316281D03*
X319430Y215152D03*
X316281D03*
X319430Y218302D03*
X316281D03*
X319430Y221451D03*
X316281D03*
X319430Y224601D03*
X316281D03*
X319430Y227750D03*
X316281D03*
X319430Y230900D03*
X316281D03*
X335178Y183656D03*
X322580D03*
X335178Y186806D03*
X322580D03*
X335178Y189955D03*
X322580D03*
X335178Y193105D03*
X322580D03*
X335178Y196254D03*
X322580D03*
X335178Y199404D03*
X322580D03*
X335178Y202554D03*
X322580D03*
X335178Y205703D03*
X322580D03*
X335178Y208853D03*
X322580D03*
X335178Y212002D03*
X322580D03*
X335178Y215152D03*
X322580D03*
X335178Y218302D03*
X322580D03*
X335178Y221451D03*
X322580D03*
X335178Y224601D03*
X322580D03*
X335178Y227750D03*
X322580D03*
X335178Y230900D03*
X322580D03*
X341477Y183656D03*
X338328D03*
X341477Y186806D03*
X338328D03*
X341477Y189955D03*
X338328D03*
X341477Y193105D03*
X338328D03*
X341477Y196254D03*
X338328D03*
X341477Y199404D03*
X338328D03*
X341477Y202554D03*
X338328D03*
X341477Y205703D03*
X338328D03*
X341477Y208853D03*
X338328D03*
X341477Y212002D03*
X338328D03*
X341477Y215152D03*
X338328D03*
X341477Y218302D03*
X338328D03*
X341477Y221451D03*
X338328D03*
X341477Y224601D03*
X338328D03*
X341477Y227750D03*
X338328D03*
X341477Y230900D03*
X338328D03*
G54D81*
X237150Y133469D03*
Y142131D03*
X230850D03*
Y133469D03*
G54D18*
X-10940Y252000D03*
X-3060D03*
X7060Y233500D03*
X14940D03*
G54D90*
X359650Y234000D03*
X373350D03*
G54D45*
X75252Y43110D03*
X79189D03*
X83126D03*
X91000D03*
X98874D03*
X94937D03*
X87063D03*
X106748D03*
X102811D03*
G54D63*
X117532Y136950D03*
X119500D03*
X121468D03*
Y143250D03*
X119500D03*
X117532D03*
G54D36*
X45056Y63575D03*
X43088Y63580D03*
X41120Y63586D03*
X39152Y63591D03*
G54D27*
X13914Y252550D03*
G54D54*
X96451Y224384D03*
X94877D03*
X93303D03*
Y255584D03*
X96451D03*
X94877D03*
X110617Y224384D03*
X112191D03*
X107469D03*
X109043D03*
X105895D03*
X104321D03*
X102747D03*
X101173D03*
X99599D03*
X98025D03*
Y255584D03*
X101173D03*
X99599D03*
X104321D03*
X102747D03*
X105895D03*
X107469D03*
X109043D03*
X110617D03*
X112191D03*
X118487Y224384D03*
X113765D03*
X115339D03*
X116913D03*
X113765Y255584D03*
X115339D03*
X116913D03*
X118487D03*
G54D72*
X165161Y97248D03*
Y99216D03*
Y101184D03*
Y103152D03*
X243809Y97248D03*
Y99216D03*
Y101184D03*
Y103152D03*
X322509Y97248D03*
Y99216D03*
Y101184D03*
Y103152D03*
G54D37*
X36288Y60741D03*
X36283Y58773D03*
X36277Y56805D03*
X36272Y54837D03*
G54D91*
X360550Y251000D03*
X371450D03*
G54D64*
X136799Y77665D03*
Y71165D03*
X161900Y149650D03*
Y156150D03*
X167400Y143150D03*
Y136650D03*
X173900Y143150D03*
Y136650D03*
X174900Y149650D03*
Y156150D03*
X168400Y149650D03*
Y156150D03*
X218700Y144050D03*
Y137550D03*
X379707Y109275D03*
Y115775D03*
G54D28*
X5050Y249590D03*
X7020D03*
X8980D03*
X10950Y261410D03*
X8980D03*
X7020D03*
X5050D03*
G54D82*
X305205Y257000D03*
X307173D03*
X309142D03*
X311110D03*
X313079D03*
X315047D03*
X317016D03*
X318984D03*
X320953D03*
X322921D03*
X324890D03*
X326858D03*
X328827D03*
X330795D03*
X575201Y154635D03*
X573233D03*
X571264D03*
X569296D03*
X567327D03*
X565359D03*
X563390D03*
X561422D03*
X587012D03*
X585044D03*
X583075D03*
X581107D03*
X579138D03*
X577170D03*
G54D19*
X2090Y256480D03*
Y254520D03*
Y252550D03*
Y258450D03*
X13910Y254520D03*
Y256480D03*
Y258450D03*
G54D73*
X208571Y57500D03*
X360737D03*
G54D46*
X73953Y87500D03*
X68047D03*
X81047Y105500D03*
X86953D03*
X97547Y163500D03*
X111000Y143047D03*
Y148953D03*
X103453Y163500D03*
X185453Y84500D03*
X179547D03*
X227200Y159853D03*
Y153947D03*
X257847Y84900D03*
X263753D03*
X286953Y250500D03*
X281047D03*
X422047Y255500D03*
X427953D03*
X502500Y110547D03*
Y116453D03*
G54D55*
X90295Y239984D03*
Y238410D03*
Y236836D03*
Y235262D03*
Y233688D03*
Y232114D03*
Y230540D03*
Y228966D03*
Y227392D03*
Y241558D03*
Y243132D03*
Y244706D03*
Y246280D03*
Y247854D03*
Y249428D03*
Y251002D03*
Y252576D03*
X121495Y239984D03*
Y238410D03*
Y236836D03*
Y235262D03*
Y233688D03*
Y232114D03*
Y230540D03*
Y228966D03*
Y227392D03*
Y252576D03*
Y247854D03*
Y249428D03*
Y251002D03*
Y244706D03*
Y246280D03*
Y241558D03*
Y243132D03*
G54D29*
X10950Y249590D03*
G54D74*
X209016Y255728D03*
Y259272D03*
X220016Y255728D03*
X221984D03*
X210984D03*
X221984Y259272D03*
X220016D03*
X210984D03*
X231016Y255728D03*
X232984D03*
Y259272D03*
X231016D03*
X252516Y255728D03*
X254484D03*
X242016D03*
X243984D03*
X254484Y259272D03*
X252516D03*
X243984D03*
X242016D03*
X264516Y255728D03*
X266484D03*
Y259272D03*
X264516D03*
X396484Y117772D03*
X394516D03*
Y114228D03*
X396484D03*
X394694Y178913D03*
X396662D03*
Y182457D03*
X394694D03*
X436524Y117804D03*
X434556D03*
Y114260D03*
X436524D03*
G54D56*
X109496Y64150D03*
X109504Y67850D03*
G54D65*
X132052Y144544D03*
Y146513D03*
Y148481D03*
Y150449D03*
Y152418D03*
G54D38*
X38802Y95000D03*
X51598D03*
G54D47*
X86000Y123600D03*
Y132400D03*
X83500Y156100D03*
Y164900D03*
G54D92*
X360252Y262139D03*
X368126D03*
Y278861D03*
X360252D03*
X376000Y262139D03*
X383874D03*
Y278861D03*
X376000D03*
X391748Y262139D03*
Y278861D03*
G54D83*
X299500Y247000D03*
X312500D03*
G54D66*
X143666Y144544D03*
Y152418D03*
Y150449D03*
Y148481D03*
Y146513D03*
G54D57*
X108848Y79759D03*
X108840Y73259D03*
G54D84*
X296051Y269008D03*
X339949D03*
X552268Y142627D03*
X596166D03*
G54D75*
X206506Y255728D03*
Y259272D03*
X217506Y255728D03*
X224494D03*
X213494D03*
X224494Y259272D03*
X217506D03*
X213494D03*
X239506Y255728D03*
X228506D03*
X235494D03*
X239506Y259272D03*
X235494D03*
X228506D03*
X250006Y255728D03*
X256994D03*
X246494D03*
X256994Y259272D03*
X250006D03*
X246494D03*
X262006Y255728D03*
X268994D03*
Y259272D03*
X262006D03*
X398994Y117772D03*
X392006D03*
Y114228D03*
X398994D03*
X392184Y178913D03*
X399172D03*
Y182457D03*
X392184D03*
X432046Y117804D03*
Y114260D03*
X439034Y117804D03*
Y114260D03*
G54D48*
X71350Y116500D03*
X78650D03*
X71850Y201000D03*
X79150D03*
G54D93*
X372000Y65500D03*
Y76500D03*
X415000Y74000D03*
Y85000D03*
X429000Y74000D03*
Y85000D03*
X496500Y57500D03*
X486500D03*
X496500Y68500D03*
X486500D03*
G54D39*
X40941Y112166D03*
X43500D03*
X46059D03*
Y120434D03*
X43500D03*
X40941D03*
G54D76*
X213000Y72440D03*
Y77560D03*
G54D85*
X353000Y103547D03*
Y109453D03*
X347000D03*
Y103547D03*
G54D49*
X71550Y147000D03*
X84450D03*
G54D94*
X383506Y62737D03*
X416238Y43839D03*
G54D58*
X100600Y173600D03*
X109200D03*
G54D67*
X151783Y39988D03*
X153752D03*
X155720D03*
X157689D03*
X159657D03*
X161626D03*
X163594D03*
X165563D03*
X167531D03*
X169500D03*
X171469D03*
X173437D03*
X175406D03*
X177374D03*
X179343D03*
X181311D03*
X183280D03*
X185248D03*
X187217D03*
G54D77*
X223630Y69705D03*
X345678D03*
G54D86*
X359163Y86239D03*
Y88839D03*
Y91439D03*
Y94039D03*
X368237Y94061D03*
Y91461D03*
Y88861D03*
Y86261D03*
G54D59*
X100963Y182694D03*
X102932D03*
X104900D03*
X106868D03*
X108837D03*
Y194506D03*
X106868D03*
X104900D03*
X102932D03*
X100963D03*
G54D95*
X382592Y127929D03*
Y125961D03*
X383299Y142072D03*
Y140104D03*
X382946Y156567D03*
Y154599D03*
X382592Y170356D03*
Y168388D03*
X386136Y125961D03*
Y127929D03*
X386843Y140104D03*
Y142072D03*
X386490Y154599D03*
Y156567D03*
X386136Y168388D03*
Y170356D03*
G54D68*
X156400Y94391D03*
X158368D03*
X160336D03*
X162304D03*
X235048D03*
X237016D03*
X238984D03*
X240952D03*
X313748D03*
X315716D03*
X317684D03*
X319652D03*
G54D96*
X382592Y123451D03*
X383299Y144582D03*
Y137594D03*
X382592Y130439D03*
X382946Y159077D03*
Y152089D03*
X382592Y172866D03*
Y165878D03*
X386136Y123451D03*
X386843Y137594D03*
Y144582D03*
X386136Y130439D03*
X386490Y152089D03*
Y159077D03*
X386136Y165878D03*
Y172866D03*
G54D78*
X218660Y132000D03*
X213540D03*
X385940Y253000D03*
X391060D03*
X542560Y143500D03*
X537440D03*
G54D69*
X160336Y106009D03*
X158368D03*
X156400D03*
X162304D03*
X240952D03*
X238984D03*
X237016D03*
X235048D03*
X319652D03*
X317684D03*
X315716D03*
X313748D03*
G54D87*
X368040Y103847D03*
Y105816D03*
Y107784D03*
Y109753D03*
X360560D03*
Y107784D03*
Y105816D03*
Y103847D03*
G54D88*
X364300Y106800D03*
G54D97*
X384050Y207940D03*
Y223684D03*
Y221716D03*
Y219748D03*
Y217780D03*
Y215812D03*
Y213844D03*
Y211876D03*
Y209908D03*
Y237460D03*
Y235492D03*
Y233524D03*
Y231556D03*
Y229588D03*
Y227620D03*
Y225652D03*
X419350Y207940D03*
Y209908D03*
Y211876D03*
Y213844D03*
Y215812D03*
Y217780D03*
Y219748D03*
Y221716D03*
Y223684D03*
Y225652D03*
Y227620D03*
Y229588D03*
Y231556D03*
Y233524D03*
Y235492D03*
Y237460D03*
G54D79*
X213426Y175182D03*
X216576D03*
X219726D03*
X222876D03*
X213426Y172032D03*
X216576D03*
X219726D03*
X222876D03*
X213426Y190932D03*
X216576D03*
X219726D03*
X222876D03*
X213426Y187782D03*
X216576D03*
X219726D03*
X222876D03*
X213426Y184632D03*
X216576D03*
X219726D03*
X222876D03*
X213426Y181482D03*
X216576D03*
X219726D03*
X222876D03*
X213426Y178332D03*
X216576D03*
X219726D03*
X222876D03*
X213426Y206672D03*
X216576D03*
X219726D03*
X222876D03*
X213426Y203532D03*
X216576D03*
X219726D03*
X222876D03*
X213426Y200382D03*
X216576D03*
X219726D03*
X222876D03*
X213426Y197232D03*
X216576D03*
X219726D03*
X222876D03*
X213426Y194082D03*
X216576D03*
X219726D03*
X222876D03*
X213426Y222422D03*
X216576D03*
X219726D03*
X222876D03*
X213426Y219272D03*
X216576D03*
X219726D03*
X222876D03*
X213426Y216122D03*
X216576D03*
X219726D03*
X222876D03*
X213426Y212972D03*
X216576D03*
X219726D03*
X222876D03*
X213426Y209822D03*
X216576D03*
X219726D03*
X222876D03*
X213426Y238172D03*
X216576D03*
X219726D03*
X222876D03*
X213426Y235022D03*
X216576D03*
X219726D03*
X222876D03*
X213426Y231872D03*
X216576D03*
X219726D03*
X222876D03*
X213426Y228722D03*
X216576D03*
X219726D03*
X222876D03*
X213426Y225572D03*
X216576D03*
X219726D03*
X222876D03*
X226026Y175182D03*
X229176D03*
X232326D03*
X235476D03*
X238626D03*
X226026Y172032D03*
X229176D03*
X232326D03*
X235476D03*
X238626D03*
X226026Y190932D03*
X229176D03*
X232326D03*
X235476D03*
X238626D03*
X226026Y187782D03*
X229176D03*
X232326D03*
X235476D03*
X238626D03*
X226026Y184632D03*
X229176D03*
X232326D03*
X235476D03*
X238626D03*
X226026Y181482D03*
X229176D03*
X232326D03*
X235476D03*
X238626D03*
X226026Y178332D03*
X229176D03*
X232326D03*
X235476D03*
X238626D03*
X226026Y206672D03*
X229176D03*
X232326D03*
X235476D03*
X238626D03*
X226026Y203532D03*
X229176D03*
X232326D03*
X235476D03*
X238626D03*
X226026Y200382D03*
X229176D03*
X232326D03*
X235476D03*
X238626D03*
X226026Y197232D03*
X229176D03*
X232326D03*
X235476D03*
X238626D03*
X226026Y194082D03*
X229176D03*
X232326D03*
X235476D03*
X238626D03*
X226026Y222422D03*
X229176D03*
X232326D03*
X235476D03*
X238626D03*
X226026Y219272D03*
X229176D03*
X232326D03*
X235476D03*
X238626D03*
X226026Y216122D03*
X229176D03*
X232326D03*
X235476D03*
X238626D03*
X226026Y212972D03*
X229176D03*
X232326D03*
X235476D03*
X238626D03*
X226026Y209822D03*
X229176D03*
X232326D03*
X235476D03*
X238626D03*
X226026Y238172D03*
X229176D03*
X232326D03*
X235476D03*
X238626D03*
X226026Y235022D03*
X229176D03*
X232326D03*
X235476D03*
X238626D03*
X226026Y231872D03*
X229176D03*
X232326D03*
X235476D03*
X238626D03*
X226026Y228722D03*
X229176D03*
X232326D03*
X235476D03*
X238626D03*
X226026Y225572D03*
X229176D03*
X232326D03*
X235476D03*
X238626D03*
X241776Y175182D03*
X244926D03*
X248066D03*
X251216D03*
X254366D03*
X241776Y172032D03*
X244926D03*
X248066D03*
X251216D03*
X254366D03*
X241776Y190932D03*
X244926D03*
X248066D03*
X251216D03*
X254366D03*
X241776Y187782D03*
X244926D03*
X248066D03*
X251216D03*
X254366D03*
X241776Y184632D03*
X244926D03*
X248066D03*
X251216D03*
X254366D03*
X241776Y181482D03*
X244926D03*
X248066D03*
X251216D03*
X254366D03*
X241776Y178332D03*
X244926D03*
X248066D03*
X251216D03*
X254366D03*
X241776Y206672D03*
X244926D03*
X248066D03*
X251216D03*
X254366D03*
X241776Y203532D03*
X244926D03*
X248066D03*
X251216D03*
X254366D03*
X241776Y200382D03*
X244926D03*
X248066D03*
X251216D03*
X254366D03*
X241776Y197232D03*
X244926D03*
X248066D03*
X251216D03*
X254366D03*
X241776Y194082D03*
X244926D03*
X248066D03*
X251216D03*
X254366D03*
X241776Y222422D03*
X244926D03*
X248066D03*
X251216D03*
X254366D03*
X241776Y219272D03*
X244926D03*
X248066D03*
X251216D03*
X254366D03*
X241776Y216122D03*
X244926D03*
X248066D03*
X251216D03*
X254366D03*
X241776Y212972D03*
X244926D03*
X248066D03*
X251216D03*
X254366D03*
X241776Y209822D03*
X244926D03*
X248066D03*
X251216D03*
X254366D03*
X241776Y238172D03*
X244926D03*
X248066D03*
X251216D03*
X254366D03*
X241776Y235022D03*
X244926D03*
X248066D03*
X251216D03*
X254366D03*
X241776Y231872D03*
X244926D03*
X248066D03*
X251216D03*
X254366D03*
X241776Y228722D03*
X244926D03*
X248066D03*
X251216D03*
X254366D03*
X241776Y225572D03*
X244926D03*
X248066D03*
X251216D03*
X254366D03*
X257516Y175182D03*
X260666D03*
X263816D03*
X266966D03*
X270116D03*
X273266D03*
X257516Y172032D03*
X260666D03*
X263816D03*
X266966D03*
X270116D03*
X273266D03*
X257516Y190932D03*
X260666D03*
X263816D03*
X266966D03*
X270116D03*
X273266D03*
X257516Y187782D03*
X260666D03*
X263816D03*
X266966D03*
X270116D03*
X273266D03*
X257516Y184632D03*
X260666D03*
X263816D03*
X266966D03*
X270116D03*
X273266D03*
X257516Y181482D03*
X260666D03*
X263816D03*
X266966D03*
X270116D03*
X273266D03*
X257516Y178332D03*
X260666D03*
X263816D03*
X266966D03*
X270116D03*
X273266D03*
X257516Y206672D03*
X260666D03*
X263816D03*
X266966D03*
X270116D03*
X273266D03*
X257516Y203532D03*
X260666D03*
X263816D03*
X266966D03*
X270116D03*
X273266D03*
X257516Y200382D03*
X260666D03*
X263816D03*
X266966D03*
X270116D03*
X273266D03*
X257516Y197232D03*
X260666D03*
X263816D03*
X266966D03*
X270116D03*
X273266D03*
X257516Y194082D03*
X260666D03*
X263816D03*
X266966D03*
X270116D03*
X273266D03*
X257516Y222422D03*
X260666D03*
X263816D03*
X266966D03*
X270116D03*
X273266D03*
X257516Y219272D03*
X260666D03*
X263816D03*
X266966D03*
X270116D03*
X273266D03*
X257516Y216122D03*
X260666D03*
X263816D03*
X266966D03*
X270116D03*
X273266D03*
X257516Y212972D03*
X260666D03*
X263816D03*
X266966D03*
X270116D03*
X273266D03*
X257516Y209822D03*
X260666D03*
X263816D03*
X266966D03*
X270116D03*
X273266D03*
X257516Y238172D03*
X260666D03*
X263816D03*
X266966D03*
X270116D03*
X273266D03*
X257516Y235022D03*
X260666D03*
X263816D03*
X266966D03*
X270116D03*
X273266D03*
X257516Y231872D03*
X260666D03*
X263816D03*
X266966D03*
X270116D03*
X273266D03*
X257516Y228722D03*
X260666D03*
X263816D03*
X266966D03*
X270116D03*
X273266D03*
X257516Y225572D03*
X260666D03*
X263816D03*
X266966D03*
X270116D03*
X273266D03*
X276416Y175182D03*
X279566D03*
X276416Y172032D03*
X279566D03*
X276416Y190932D03*
X279566D03*
X276416Y187782D03*
X279566D03*
X276416Y184632D03*
X279566D03*
X276416Y181482D03*
X279566D03*
X276416Y178332D03*
X279566D03*
X276416Y206672D03*
X279566D03*
X276416Y203532D03*
X279566D03*
X276416Y200382D03*
X279566D03*
X276416Y197232D03*
X279566D03*
X276416Y194082D03*
X279566D03*
X276416Y222422D03*
X279566D03*
X276416Y219272D03*
X279566D03*
X276416Y216122D03*
X279566D03*
X276416Y212972D03*
X279566D03*
X276416Y209822D03*
X279566D03*
X276416Y238172D03*
X279566D03*
X276416Y235022D03*
X279566D03*
X276416Y231872D03*
X279566D03*
X276416Y228722D03*
X279566D03*
X276416Y225572D03*
X279566D03*
G54D89*
X364000Y219000D03*
X370500Y242500D03*
X377000D03*
X429000Y208000D03*
Y214000D03*
X435000Y208000D03*
Y214000D03*
G54D98*
X395566Y73390D03*
X398976Y71422D03*
X402385Y69453D03*
X405795Y67485D03*
X416024Y61578D03*
X412615Y63547D03*
X409205Y65515D03*
X419434Y59610D03*
G54D99*
X394000Y93750D03*
Y86250D03*
M02*
