G04 ================== begin FILE IDENTIFICATION RECORD ==================*
G04 Layout Name:  F:/work/Eileen/hmd/dvt/hmd-dvt-323am11.brd*
G04 Film Name:    hmd_dvt_L8*
G04 File Format:  Gerber RS274X*
G04 File Origin:  Cadence Allegro 16.3-S053*
G04 Origin Date:  Mon Mar 23 11:22:04 2015*
G04 *
G04 Layer:  VIA CLASS/L8*
G04 Layer:  PIN/L8*
G04 Layer:  ETCH/L8*
G04 Layer:  BOARD GEOMETRY/OUTLINE*
G04 *
G04 Offset:    (0.00 0.00)*
G04 Mirror:    No*
G04 Mode:      Positive*
G04 Rotation:  0*
G04 FullContactRelief:  No*
G04 UndefLineWidth:     5.00*
G04 ================== end FILE IDENTIFICATION RECORD ====================*
%FSLAX55Y55*MOIN*%
%IR0*IPPOS*OFA0.00000B0.00000*MIA0B0*SFA1.00000B1.00000*%
%ADD20O,.059X.13*%
%ADD11C,.02*%
%ADD29C,.03*%
%ADD24C,.04*%
%ADD15C,.022*%
%ADD19O,.059X.106*%
%ADD12C,.024*%
%ADD23C,.026*%
%ADD21C,.063*%
%ADD14C,.018*%
%ADD13C,.028*%
%ADD26C,.065*%
%ADD17C,.047*%
%ADD10C,.056*%
%ADD27R,.065X.065*%
%AMMACRO25*
21,1,.034,.014,0.0,0.0,179.96*
1,1,.034,.000005,.007*
1,1,.034,-.000005,-.007*%
%ADD25MACRO25*%
%ADD22C,.2*%
%ADD28O,.034X.048*%
%ADD16O,.052X.095*%
%ADD18C,.197*%
%ADD30C,.015*%
%ADD31C,.005*%
%ADD44C,.03004*%
%ADD41C,.034*%
%ADD38C,.03104*%
%ADD43C,.05004*%
%ADD40C,.03162*%
%ADD33C,.02704*%
%ADD37C,.03704*%
%ADD36C,.02804*%
%ADD35C,.02904*%
%ADD34C,.08304*%
%ADD39C,.07604*%
%ADD32C,.06708*%
%ADD42C,.21704*%
G75*
%LPD*%
G75*
G36*
G01X284890Y283772D02*
G03X287110I1110J-772D01*
G02X287439Y284400I329J228D01*
G01X288900D01*
X289000Y284500D01*
X298389D01*
G02X298694Y283841I0J-400D01*
G03X300906I1106J-941D01*
G02X301211Y284500I305J259D01*
G01X554900D01*
X555995Y284335D01*
X556445Y284185D01*
X557365Y283719D01*
X558300Y283000D01*
X559100Y282000D01*
X559800Y280600D01*
X560100Y279400D01*
Y172300D01*
X560199Y171500D01*
X560600Y169500D01*
X561700Y167200D01*
X563400Y165200D01*
X565400Y163800D01*
X568403Y162799D01*
X596300D01*
X599000Y162300D01*
X600400Y161600D01*
X601700Y160300D01*
X602400Y158900D01*
X602750Y157409D01*
Y133600D01*
X602688Y132603D01*
X601900Y130500D01*
X601000Y129500D01*
X599900Y128600D01*
X598800Y127900D01*
X596500Y127601D01*
X587200D01*
X585100Y126950D01*
X583500Y126000D01*
X583100Y125800D01*
X582800Y125550D01*
X581800Y124650D01*
X581200Y123900D01*
X580000Y122100D01*
X579650Y121050D01*
X579389Y120203D01*
X579100Y118550D01*
Y79900D01*
X579000Y79500D01*
X578500Y78000D01*
X578000Y77000D01*
X576500Y75500D01*
X575500Y75000D01*
X573986Y74547D01*
X573687Y74500D01*
X543000D01*
X540000Y73500D01*
X539000Y73000D01*
X536500Y70500D01*
X535500Y68500D01*
X534599Y66000D01*
Y18900D01*
X534478Y17989D01*
X533900Y16500D01*
X532600Y14900D01*
X530900Y13900D01*
X529880Y13561D01*
X529450Y13449D01*
X446000D01*
Y47500D01*
X446500Y48000D01*
X450877D01*
X455073Y43803D01*
X460378Y38498D01*
X490622D01*
X500122Y47998D01*
X529122D01*
X529123Y48000D01*
X530000D01*
X532500Y50500D01*
Y51377D01*
X532502Y51378D01*
Y69878D01*
X539122Y76498D01*
X556122D01*
X558002Y78378D01*
Y89622D01*
X556122Y91502D01*
X555498D01*
X554000Y93000D01*
Y123447D01*
G03Y125553I-1000J1053D01*
G01Y126590D01*
G03Y128410I-1000J910D01*
G01Y148590D01*
G03Y150410I-1000J910D01*
G01Y226000D01*
X498000Y282000D01*
X381163D01*
X381141Y282174D01*
G03X378459I-1341J-174D01*
G01X378437Y282000D01*
X350500D01*
X349000Y280500D01*
X279400D01*
X277000Y282900D01*
X265400D01*
X264800Y282300D01*
X263323D01*
X263122Y282502D01*
X143878D01*
X143877Y282500D01*
X113000D01*
X112400Y281900D01*
X106000D01*
X104500Y283400D01*
X98070D01*
G03X97930I-70J-1400D01*
G01X95570D01*
G03X95430I-70J-1400D01*
G01X93070D01*
G03X92930I-70J-1400D01*
G01X90570D01*
G03X90430I-70J-1400D01*
G01X88070D01*
G03X87930I-70J-1400D01*
G01X85570D01*
G03X85430I-70J-1400D01*
G01X83070D01*
G03X82930I-70J-1400D01*
G01X80570D01*
G03X80430I-70J-1400D01*
G01X75468D01*
G03X73532I-968J-1400D01*
G01X72468D01*
G03X70532I-968J-1400D01*
G01X69500D01*
X68000Y281900D01*
X-11500D01*
X-13000Y281400D01*
X-14500Y277900D01*
Y266900D01*
X-15000Y266400D01*
Y260400D01*
X-14500Y259900D01*
Y244900D01*
X-14000Y244400D01*
Y212900D01*
X-6500Y205400D01*
Y116400D01*
X-14000Y108900D01*
Y39800D01*
X-9200Y35000D01*
X21896D01*
X21900Y34996D01*
G02X21953Y35000I57J-396D01*
G01X37000D01*
X47937Y45937D01*
X92037D01*
X137140Y72380D01*
X137484Y72495D01*
X138288Y72762D01*
X138290Y72763D01*
X151000Y77000D01*
X331877D01*
X341878Y66998D01*
X384001D01*
X386000Y65000D01*
Y14500D01*
X384950Y13450D01*
X366710D01*
X365513Y13765D01*
X364758Y14062D01*
X363698Y14768D01*
X363143Y15496D01*
X363129Y15518D01*
X362700Y15900D01*
X362400Y16300D01*
X361856Y17592D01*
X361600Y18550D01*
X361500Y19600D01*
Y44400D01*
X361000Y44900D01*
X208250D01*
X207800Y44450D01*
Y18700D01*
X207677Y18358D01*
X207390Y17096D01*
X206900Y16100D01*
X206662Y15742D01*
X206200Y15250D01*
X205830Y14880D01*
X205315Y14516D01*
X205300Y14500D01*
X205261Y14478D01*
X204588Y14002D01*
X204000Y13750D01*
X203978Y13744D01*
X203900Y13700D01*
X203700Y13675D01*
X202800Y13450D01*
X202050Y13400D01*
X-11200D01*
X-11671Y13571D01*
X-16300Y18200D01*
Y110600D01*
X-8500Y118400D01*
Y201233D01*
X-9500Y203900D01*
X-9900Y204500D01*
X-11300Y206250D01*
X-16400Y211300D01*
Y267350D01*
X-16407Y267357D01*
X-16400Y271500D01*
Y279200D01*
X-16300Y279600D01*
X-16000Y280400D01*
X-15000Y282400D01*
X-14500Y282900D01*
X-13000Y283900D01*
X-11500Y284400D01*
X284561D01*
G02X284890Y283772I0J-400D01*
G37*
G36*
G01X333500Y168000D02*
X356002Y190501D01*
Y190502D01*
X366982Y201482D01*
G02X367266Y201481I142J-141D01*
G03X369576Y201806I1034J1019D01*
G02X370172Y201931I351J-191D01*
G03X370872Y204346I828J1069D01*
G02X370438Y204796I-38J398D01*
G03X370447Y204879I-1439J198D01*
G01X370453Y204953D01*
X390634Y225134D01*
G02X391276Y225027I283J-283D01*
G03X393353Y227104I1394J683D01*
G02X393246Y227746I176J359D01*
G01X396654Y231154D01*
G02X397296Y231047I283J-283D01*
G03X399373Y233124I1394J683D01*
G02X399266Y233766I176J359D01*
G01X400500Y235000D01*
X429447D01*
G03X431553I1053J1000D01*
G01X485000D01*
X492800Y227200D01*
Y216700D01*
X493898Y215602D01*
Y215601D01*
X496625Y212875D01*
X508700Y200800D01*
Y187600D01*
X504600Y183500D01*
X495500D01*
X491500Y187500D01*
X446032D01*
Y195492D01*
X437373D01*
X437319Y195608D01*
G03X436180Y196441I-1319J-608D01*
G02X435854Y196975I50J397D01*
G03X435790Y198166I-1354J524D01*
G03X433262Y198258I-1290J-666D01*
G03X433182Y196890I1238J-759D01*
G02X432977Y196355I-363J-168D01*
G03X432492Y196045I524J-1354D01*
G03X432176Y195595I1009J-1044D01*
G03X432955Y193654I1324J-595D01*
G03X434492Y193940I545J1346D01*
G02X435008I258J-306D01*
G03X435400Y193678I992J1060D01*
G03X436891Y193853I601J1322D01*
G02X437528Y193532I237J-322D01*
G01Y187500D01*
X427602D01*
G02X427271Y188124I0J400D01*
G03X425029I-1121J756D01*
G02X424698Y187500I-331J-224D01*
G01X418000D01*
X417396Y186896D01*
X417281Y186930D01*
G03X415596Y185246I-390J-1295D01*
G01X415630Y185131D01*
X408788Y178289D01*
G03X408770Y178270I1371J-1317D01*
G03X408764Y178264I1341J-1347D01*
G01X406457Y175957D01*
G03X406451Y175951I1341J-1347D01*
G03X406432Y175933I1298J-1389D01*
G01X376000Y145500D01*
X292000D01*
X271930Y125430D01*
X271835Y125455D01*
G03X269968Y124903I-487J-1787D01*
G02X269416I-276J290D01*
G03X266542Y122599I-1316J-1303D01*
G03X267108Y122036I1558J1001D01*
G02X267192Y121433I-215J-337D01*
G03X267071Y121283I1379J-1236D01*
G03X266804Y120745I1504J-1081D01*
G03X266725Y120297I1770J-543D01*
G01X266721Y120221D01*
X248500Y102000D01*
Y92763D01*
X248390Y92707D01*
G03Y90293I610J-1207D01*
G01X248500Y90237D01*
Y87000D01*
X243953Y82453D01*
X243880Y82447D01*
G03X242553Y81120I120J-1447D01*
G01X242547Y81047D01*
X241600Y80100D01*
X210928D01*
X210884Y80239D01*
G03X208116I-1384J-439D01*
G01X208072Y80100D01*
X167712D01*
G03X165288I-1212J-600D01*
G01X161675D01*
G02X161670I-3J400D01*
G01X160921D01*
Y80416D01*
X161022Y80474D01*
G03X159331Y80762I-670J1174D01*
G02X159029Y80100I-302J-262D01*
G01X157252D01*
G02X157224Y80101I0J400D01*
G01X154268D01*
X154211Y80044D01*
X148051Y78861D01*
X143000Y77000D01*
X137691Y74146D01*
X137503Y74083D01*
X137009Y73920D01*
X136792Y73847D01*
X136516Y73755D01*
X134060Y72315D01*
X133956Y72382D01*
G03X131716Y71069I-791J-1217D01*
G01X131724Y70946D01*
X131599Y70872D01*
X109342Y58909D01*
X107911Y57895D01*
X107824Y57915D01*
G03X106277Y57282I-324J-1415D01*
G02X105611Y57270I-337J216D01*
G03X103624Y55470I-1111J-770D01*
G02X103596Y54839I-259J-305D01*
G01X101000Y53000D01*
X34000D01*
X13000Y74000D01*
Y101251D01*
G02X13423Y101650I400J0D01*
G03Y104350I77J1350D01*
G02X13000Y104749I-23J399D01*
G01Y202010D01*
G02X13638Y202332I400J0D01*
G03Y204668I862J1168D01*
G02X13000Y204990I-238J322D01*
G01Y213000D01*
X15000Y215000D01*
X27700D01*
X38200Y225500D01*
Y249200D01*
X40000Y251000D01*
X59361D01*
G03X61639I1139J900D01*
G01X74000D01*
X75500Y249500D01*
Y210500D01*
X70502Y205502D01*
X61413D01*
X61391Y205676D01*
G03X58609I-1391J-176D01*
G01X58587Y205502D01*
X50378D01*
X48498Y203622D01*
Y191622D01*
X47378Y190502D01*
X31378D01*
X28498Y187622D01*
Y183378D01*
X31407Y180470D01*
X31310Y180333D01*
G03X33333Y178310I1190J-833D01*
G01X33470Y178407D01*
X37909Y173968D01*
X37813Y173830D01*
G03X39077Y171550I1191J-830D01*
G02X39496Y171150I19J-399D01*
G01Y147049D01*
G03Y144951I1004J-1049D01*
G01Y127603D01*
X51998Y115102D01*
Y115101D01*
X54823Y112277D01*
X60298Y106802D01*
G02X60084Y106125I-283J-283D01*
G03X62225Y103984I316J-1825D01*
G02X62902Y104198I394J-69D01*
G01X63432Y103668D01*
X66101Y100998D01*
X66102D01*
X66293Y100807D01*
G02X66310Y100260I-283J-283D01*
G03X68360Y98210I1090J-960D01*
G02X68907Y98193I264J-300D01*
G01X77577Y89523D01*
G02X77341Y88843I-283J-283D01*
G03X78843Y87341I159J-1343D01*
G02X79523Y87577I397J-47D01*
G01X85400Y81700D01*
X93872D01*
X93888Y81697D01*
G03X97466I1789J10857D01*
G01X97482Y81700D01*
X103939D01*
G02X104295Y81118I0J-400D01*
G03X104261Y81046I1205J-613D01*
G02X103804Y80817I-366J161D01*
G03X103806Y78183I-304J-1317D01*
G02X104263Y77955I91J-390D01*
G03X106533Y79373I1237J545D01*
G02X106532Y79630I153J129D01*
G03X106701Y81118I-1034J871D01*
G02X107057Y81700I356J182D01*
G01X121301D01*
X134350Y94750D01*
X135650D01*
X135800Y94900D01*
X156500D01*
X158497Y96897D01*
X158601Y96842D01*
G03X160332Y96996I752J1358D01*
G03X160904Y98239I-980J1204D01*
G02X161313Y98648I400J9D01*
G03X162556Y99220I39J1552D01*
G03X162650Y101050I-1204J979D01*
G01X177800Y116200D01*
X177900D01*
X184500Y122800D01*
Y138000D01*
X210000Y163500D01*
X217500D01*
X223493Y169493D01*
G03X225405Y171405I953J959D01*
G01X226643Y172643D01*
G03X228903Y173256I953J959D01*
G03X227235Y174905I-1307J346D01*
G02X226750Y175296I-85J391D01*
G01Y178206D01*
G02X227252Y178593I400J0D01*
G03Y181209I343J1308D01*
G02X226750Y181596I-102J387D01*
G01Y181840D01*
X226994D01*
X227033Y181822D01*
G03X227449Y181707I564J1229D01*
G03X227744I148J1344D01*
G03X228852Y183552I-148J1344D01*
G03X227235Y184354I-1256J-501D01*
G02X226750Y184745I-85J391D01*
G01Y184990D01*
X226994D01*
X227033Y184972D01*
G03X228571Y185266I562J1230D01*
G03X228403Y187286I-976J936D01*
G03X227252Y187510I-808J-1084D01*
G02X226750Y187897I-102J387D01*
G01Y190807D01*
G02X227252Y191194I400J0D01*
G03Y193810I343J1308D01*
G02X226750Y194197I-102J387D01*
G01Y194439D01*
X226994D01*
X227033Y194421D01*
G03Y196881I562J1230D01*
G01X226994Y196863D01*
X226750D01*
Y197250D01*
X231866Y202366D01*
G02X232549Y202071I283J-283D01*
G03X233777Y203299I1347J-119D01*
G02X233482Y203982I-12J400D01*
G01X233500Y204000D01*
Y206500D01*
G02X233899Y206900I400J0D01*
G03Y209604I-3J1352D01*
G02X233500Y210004I1J400D01*
G01Y211500D01*
X232500Y212500D01*
Y215500D01*
X233764Y216764D01*
G03X233789Y216789I-1332J1357D01*
G01X234238Y217238D01*
X234807Y217806D01*
G03X234825Y217825I-1371J1317D01*
G03X234830Y217830I-1342J1347D01*
G01X234831Y217831D01*
X235000Y218000D01*
X235296D01*
G02X235695Y217623I0J-400D01*
G03X238352Y217356I1350J78D01*
G03X238355Y217368I-1310J334D01*
G03X238394Y217786I-1310J333D01*
G01Y218000D01*
X238847D01*
Y217786D01*
G03X238886Y217368I1349J-85D01*
G03X238889Y217356I1313J322D01*
G03X241546Y217623I1307J345D01*
G02X241945Y218000I399J-23D01*
G01X247897D01*
G02X248296Y217623I0J-400D01*
G03X250953Y217356I1350J78D01*
G03X250956Y217368I-1310J334D01*
G03X250995Y217786I-1310J333D01*
G01Y218000D01*
X251446D01*
Y217786D01*
G03X251485Y217368I1349J-85D01*
G03X251488Y217356I1313J322D01*
G03X254145Y217623I1307J345D01*
G02X254544Y218000I399J-23D01*
G01X256000D01*
X256062Y217938D01*
X256459Y217541D01*
G03X256484Y217516I1357J1332D01*
G01X258037Y215963D01*
G02X258072Y215435I-282J-284D01*
G03X258200Y213530I1019J-888D01*
G03X259484Y213253I891J1017D01*
G02X260000Y212871I116J-383D01*
G01Y212585D01*
X259752D01*
X259709Y212607D01*
G03X258210Y210380I-614J-1205D01*
G03X259485Y210107I886J1022D01*
G02X260000Y209724I115J-383D01*
G01Y207000D01*
X262911Y204089D01*
X264276Y202724D01*
X264205Y202593D01*
G03X264598Y200861I1191J-640D01*
G03X265748Y200647I798J1091D01*
G01X265774Y200654D01*
X266000D01*
Y200100D01*
X265773D01*
X265748Y200107D01*
G03X264916Y197538I-352J-1305D01*
G03X265553Y197459I480J1264D01*
G02X266000Y197062I47J-397D01*
G01Y194242D01*
G02X265553Y193845I-400J0D01*
G03Y191159I-157J-1343D01*
G02X266000Y190762I47J-397D01*
G01Y187942D01*
G02X265553Y187545I-400J0D01*
G03Y184859I-157J-1343D01*
G02X266000Y184462I47J-397D01*
G01Y181641D01*
G02X265553Y181244I-400J0D01*
G03X264198Y179274I-157J-1343D01*
G03X264548Y178848I1198J627D01*
G03X265748Y178596I848J1053D01*
G01X265774Y178603D01*
X266000D01*
Y178050D01*
X265774D01*
X265748Y178057D01*
G03Y175447I-352J-1305D01*
G01X265774Y175454D01*
X266000D01*
Y174900D01*
X265773D01*
X265748Y174907D01*
G03X264916Y172338I-352J-1305D01*
G03X265553Y172259I480J1264D01*
G02X266000Y171862I47J-397D01*
G01Y171500D01*
X269500Y168000D01*
X293945D01*
G02X294280Y167380I1J-400D01*
G03X296590I1155J-880D01*
G02X296925Y168000I334J220D01*
G01X310510D01*
G02X310845Y167380I1J-400D01*
G03X313155I1155J-880D01*
G02X313490Y168000I334J220D01*
G01X333500D01*
G37*
G36*
G01X66723Y102500D02*
X61675Y107549D01*
G02X61838Y108214I283J283D01*
G03X62489Y111460I-488J1786D01*
G02X62453Y112039I257J307D01*
G03X62897Y113731I-1357J1260D01*
G03X61500Y115107I-1801J-431D01*
G02X61220Y115588I109J385D01*
G03X58661Y117717I-1799J440D01*
G03X59017Y114221I760J-1689D01*
G02X59297Y113740I-109J-385D01*
G03X59256Y113515I1798J-444D01*
G03X59957Y111840I1840J-214D01*
G02X59993Y111261I-257J-307D01*
G03X59667Y110772I1358J-1259D01*
G03X59564Y110488I1683J-771D01*
G02X58899Y110325I-382J120D01*
G01X53500Y115723D01*
X40998Y128225D01*
Y144630D01*
X41113Y144684D01*
G03Y147316I-613J1316D01*
G01X40998Y147370D01*
Y173002D01*
X40244Y173756D01*
X40232Y173775D01*
G03X39779Y174228I-1228J-775D01*
G01X39760Y174240D01*
X33733Y180267D01*
X33722Y180285D01*
G03X33285Y180722I-1222J-785D01*
G01X33267Y180733D01*
X30000Y184000D01*
Y187000D01*
X32000Y189000D01*
X48000D01*
X50000Y191000D01*
Y203000D01*
X51000Y204000D01*
X77000D01*
X82500Y198500D01*
Y185000D01*
X75000Y177500D01*
Y176732D01*
G03Y173268I1000J-1732D01*
G01Y152000D01*
X94500D01*
X98000Y155500D01*
X111000D01*
X112000Y154500D01*
Y152500D01*
X109000Y149500D01*
Y110000D01*
X106119Y107119D01*
X106000Y107163D01*
G03X104137Y105300I-500J-1363D01*
G01X104181Y105181D01*
X101500Y102500D01*
X100381D01*
X100340Y102519D01*
G03X90974Y102500I-4663J-9965D01*
G01X66723D01*
G37*
G36*
G01X93423Y216628D02*
G02X93094Y216000I-329J-228D01*
G01X91706D01*
G02X91333Y216545I0J400D01*
G03X91362Y217585I-1233J555D01*
G03X89062Y217967I-1262J-484D01*
G02X88468Y217944I-307J256D01*
G03X87283Y218334I-967J-944D01*
G01X87182Y218318D01*
X87000Y218500D01*
X79500D01*
X77002Y220998D01*
Y228500D01*
Y253751D01*
G02X77424Y254150I400J0D01*
G03Y256850I76J1350D01*
G02X77002Y257249I-22J399D01*
G01Y258585D01*
G03X77032Y260168I-1202J815D01*
G01X77002Y260217D01*
Y260701D01*
G02X77424Y261100I400J0D01*
G03X78059Y263786I76J1400D01*
G02X77936Y264435I160J366D01*
G01X79307Y265807D01*
X79397Y265801D01*
G03X80715Y266308I103J1699D01*
G02X81285I285J-281D01*
G03X83264Y269021I1215J1192D01*
G02X83161Y269661I180J357D01*
G01X85298Y271798D01*
X128702D01*
X132400Y268100D01*
Y248300D01*
X130688Y246588D01*
G02X130139Y246573I-282J283D01*
G03X130022Y246673I-935J-976D01*
G03X130016Y246678I-868J-1035D01*
G02X129943Y247245I241J319D01*
G03X128591Y249432I-1031J874D01*
G03X128096Y247041I321J-1313D01*
G02X128169Y246474I-241J-319D01*
G03X128227Y244661I1031J-874D01*
G02X128212Y244112I-298J-267D01*
G01X127159Y243059D01*
G03X126943Y242843I842J-1058D01*
G01X117500Y233400D01*
Y223000D01*
X117318Y222818D01*
X117217Y222834D01*
G03X115666Y221283I-217J-1334D01*
G01X115682Y221182D01*
X110500Y216000D01*
X105106D01*
G02X104733Y216545I0J400D01*
G03X104851Y217156I-1233J555D01*
G02X105294Y217564I400J10D01*
G03X106428Y219883I206J1336D01*
G03X105815Y220215I-929J-983D01*
G02X105541Y220763I93J389D01*
G03X103985Y219985I-1241J537D01*
G02X104259Y219437I-93J-389D01*
G03X104149Y218944I1241J-536D01*
G03Y218844I1351J-50D01*
G02X103706Y218436I-400J-10D01*
G03X102267Y216545I-206J-1336D01*
G02X101894Y216000I-373J-145D01*
G01X95972D01*
G02X95643Y216628I0J400D01*
G03X93423I-1110J772D01*
G37*
G36*
G01X103298Y83202D02*
X102853Y83647D01*
G02X102874Y84233I283J283D01*
G03X103429Y100361I-7197J8321D01*
G02X103428Y100928I282J284D01*
G01X110500Y108000D01*
Y109377D01*
X110502Y109378D01*
Y148002D01*
X119527Y157027D01*
G02X120169Y156921I283J-283D01*
G03X122079Y158831I1331J579D01*
G02X121973Y159473I177J359D01*
G01X125004Y162504D01*
G02X125662Y162360I283J-283D01*
G03X125915Y161893I1738J640D01*
G03X126103Y161678I1484J1108D01*
G02X126129Y161145I-285J-281D01*
G03X127868Y158085I1371J-1245D01*
G03X128996Y160991I-368J1815D01*
G03X128797Y161222I-1498J-1089D01*
G02X128771Y161755I285J281D01*
G03X128493Y164495I-1371J1245D01*
G03X128040Y164738I-1093J-1495D01*
G02X127896Y165396I139J375D01*
G01X132000Y169500D01*
Y192231D01*
G02X132595Y192580I400J0D01*
G03X134256Y192505I905J1616D01*
G02X134788Y192293I163J-365D01*
G03X134944Y191995I1712J706D01*
G03X134948Y191990I1441J1149D01*
G02X134858Y191458I-336J-217D01*
G03X135757Y188164I1142J-1458D01*
G03X137552Y191010I243J1836D01*
G02X137642Y191542I336J217D01*
G03X135744Y194691I-1142J1458D01*
G02X135212Y194903I-163J365D01*
G03X132595Y195812I-1712J-707D01*
G02X132000Y196161I-195J349D01*
G01Y239037D01*
X132110Y239093D01*
G03Y241507I-610J1207D01*
G01X132000Y241563D01*
Y245000D01*
X133688Y246688D01*
X136378Y243998D01*
X183122D01*
X202122Y262998D01*
X205598D01*
G03X207362Y262953I908J1002D01*
G01X207417Y262998D01*
X207678D01*
G02X207870Y262745I-1J-200D01*
G01X207857Y262697D01*
X207845Y262675D01*
G03X209027Y260648I1171J-675D01*
G03X210353Y262204I-11J1352D01*
G02X210802Y262660I395J60D01*
G03X211840Y262953I182J1340D01*
G01X211895Y262998D01*
X212156D01*
G02X212348Y262745I-1J-200D01*
G01X212335Y262697D01*
X212323Y262675D01*
G03X213449Y260649I1171J-675D01*
G03X214765Y262462I45J1351D01*
G02X215141Y262998I376J136D01*
G01X216598D01*
G03X218362Y262953I908J1002D01*
G01X218417Y262998D01*
X218662D01*
G02X218854Y262745I-1J-200D01*
G01X218841Y262697D01*
X218829Y262675D01*
G03X218648Y262017I1171J-676D01*
G03X220341Y260692I1352J-17D01*
G03X221335Y262217I-341J1308D01*
G02X221789Y262662I397J49D01*
G03X222840Y262953I195J1338D01*
G01X222895Y262998D01*
X223156D01*
G02X223348Y262745I-1J-200D01*
G01X223335Y262697D01*
X223323Y262675D01*
G03X224449Y260649I1171J-675D01*
G03X225765Y262462I45J1351D01*
G02X226141Y262998I376J136D01*
G01X227598D01*
G03X228610Y262652I908J1002D01*
G03X229087Y262779I-104J1348D01*
G02X229649Y262449I163J-365D01*
G03X231962Y261550I1351J51D01*
G03X232341Y262326I-962J950D01*
G02X232784Y262673I397J-50D01*
G03X233492Y262751I211J1335D01*
G03X233842Y262954I-496J1258D01*
G01X233897Y262998D01*
X234171D01*
Y262779D01*
X234167Y262760D01*
G03X234193Y262131I1327J-260D01*
G03X236812Y262200I1301J369D01*
G03X236844Y262576I-1318J302D01*
G02X237243Y262998I399J22D01*
G01X238578D01*
X247853Y253724D01*
X247767Y253589D01*
G03X249761Y251815I1142J-724D01*
G01X250074Y251502D01*
X249958Y251362D01*
G03X252185Y249848I1042J-862D01*
G01X260315D01*
G03X262685I1185J652D01*
G01X274306D01*
G02X274693Y249346I0J-400D01*
G03X277307I1307J-346D01*
G02X277694Y249848I387J102D01*
G01X296928D01*
X299489Y247288D01*
X300206Y247048D01*
X307828D01*
X316378Y238498D01*
X354500D01*
Y191123D01*
X332878Y169502D01*
X283354D01*
G02X282999Y170084I1J400D01*
G03X282243Y171978I-1203J618D01*
G02X282095Y172640I133J377D01*
G03X282439Y173993I-950J962D01*
G03X281571Y174885I-1294J-391D01*
G03X280698Y172326I-426J-1283D01*
G02X280846Y171664I-133J-377D01*
G03X280593Y170084I950J-962D01*
G02X280238Y169502I-356J-182D01*
G01X279658D01*
G02X279279Y170027I0J400D01*
G03X276711I-1284J425D01*
G02X276332Y169502I-379J-125D01*
G01X276005D01*
Y169754D01*
X276030Y169799D01*
G03X274905Y171803I-1184J653D01*
G03X273562Y170027I-59J-1351D01*
G02X273183Y169502I-379J-125D01*
G01X272855D01*
Y169754D01*
X272880Y169799D01*
G03X270512I-1184J653D01*
G01X270537Y169754D01*
Y169502D01*
X270122D01*
X267502Y172122D01*
Y172291D01*
G02X267758Y172483I200J0D01*
G01X267809Y172468D01*
X267832Y172454D01*
G03X268523Y172250I714J1148D01*
G03X269898Y173595I23J1352D01*
G03X268036Y174854I-1352J7D01*
G02X267502Y175231I-134J377D01*
G01Y175440D01*
G02X267758Y175632I200J0D01*
G01X267809Y175617D01*
X267832Y175603D01*
G03X269892Y176634I713J1149D01*
G03X268036Y178004I-1347J118D01*
G02X267502Y178381I-134J377D01*
G01Y178589D01*
G02X267758Y178781I200J0D01*
G01X267809Y178766D01*
X267832Y178752D01*
G03X269892Y179783I713J1149D01*
G03X268036Y181153I-1347J118D01*
G02X267502Y181530I-134J377D01*
G01Y181740D01*
G02X267758Y181932I200J0D01*
G01X267809Y181917D01*
X267832Y181903D01*
G03X268523Y181699I714J1148D01*
G03X269898Y183044I23J1352D01*
G03X268036Y184303I-1352J7D01*
G02X267502Y184680I-134J377D01*
G01Y190873D01*
G02X268036Y191250I400J0D01*
G03Y193754I509J1252D01*
G02X267502Y194131I-134J377D01*
G01Y200323D01*
G02X268036Y200700I400J0D01*
G03X267322Y202529I509J1253D01*
G02X266687Y202436I-352J190D01*
G01X266640Y202483D01*
X266625Y202516D01*
G03X265960Y203181I-1229J-564D01*
G01X265927Y203196D01*
X261502Y207622D01*
Y209684D01*
G02X261980Y210076I400J0D01*
G03Y212728I266J1326D01*
G02X261502Y213120I-78J392D01*
G01Y214622D01*
X259996Y216127D01*
G02X260003Y216699I283J283D01*
G03X258093Y218609I-907J1003D01*
G02X257521Y218602I-289J276D01*
G01X256622Y219502D01*
X251118D01*
G02X250779Y220114I0J400D01*
G03X248513I-1133J737D01*
G02X248174Y219502I-339J-212D01*
G01X244817D01*
G02X244478Y220114I0J400D01*
G03X242212I-1133J737D01*
G02X241873Y219502I-339J-212D01*
G01X241667D01*
G02X241331Y220118I0J400D01*
G03X239059I-1136J734D01*
G02X238723Y219502I-336J-216D01*
G01X235376D01*
G02X235039Y220117I0J400D01*
G03X235111Y220243I-1136J733D01*
G03X233643Y222174I-1210J604D01*
G03X233562Y219538I258J-1327D01*
G02X233745Y218868I-100J-387D01*
G01X232727Y217850D01*
G02X232060Y218020I-283J283D01*
G03X230791Y216350I-1314J-319D01*
G02X230998Y216150I7J-200D01*
G01Y216103D01*
G02X230791Y215903I-200J0D01*
G03Y213201I-45J-1351D01*
G02X230998Y213001I7J-200D01*
G01Y212953D01*
G02X230791Y212753I-200J0D01*
G03X229503Y211933I-45J-1351D01*
G03X230939Y210064I1243J-531D01*
G03X231409Y210224I-193J1338D01*
G02X231998Y209871I189J-352D01*
G01Y204622D01*
X229554Y202178D01*
G02X228889Y202344I-283J283D01*
G03X227203Y200658I-1294J-392D01*
G02X227369Y199993I-117J-382D01*
G01X225248Y197872D01*
Y194207D01*
G02X224757Y193818I-400J0D01*
G03Y191186I-311J-1316D01*
G02X225248Y190797I91J-389D01*
G01Y178457D01*
G02X224757Y178068I-400J0D01*
G03Y175436I-311J-1316D01*
G02X225248Y175047I91J-389D01*
G01Y174833D01*
X225008D01*
X224970Y174848D01*
G03X223162Y174028I-525J-1246D01*
G03X223700Y172474I1283J-426D01*
G02X223745Y171869I-238J-322D01*
G01X216878Y165002D01*
X209378D01*
X182998Y138622D01*
Y124498D01*
X161350Y102850D01*
G02X160725Y102924I-283J282D01*
G03X158661Y103590I-1373J-724D01*
G03X157800Y102161I691J-1390D01*
G02X157391Y101752I-400J-9D01*
G03X155962Y100891I-39J-1552D01*
G03X156628Y98827I1390J-691D01*
G02X156702Y98202I-208J-342D01*
G01X154902Y96402D01*
X135178D01*
X135028Y96252D01*
X133728D01*
X120679Y83202D01*
X103298D01*
G37*
G36*
G01X317000Y240000D02*
X308450Y248550D01*
X300450D01*
X300301Y248600D01*
X299420Y249480D01*
X297550Y251350D01*
X296834D01*
G02X296460Y251890I0J400D01*
G03X296490Y252819I-1360J509D01*
G03X296363Y253116I-1390J-419D01*
G02X296412Y253370I174J98D01*
G03X295799Y255921I-912J1130D01*
G03X294237Y253784I-299J-1421D01*
G02X294188Y253530I-174J-98D01*
G03X293740Y251890I912J-1130D01*
G02X293366Y251350I-374J-140D01*
G01X268358D01*
X268352Y251521D01*
G03X265648I-1352J-21D01*
G01X265642Y251350D01*
X262551D01*
G03X261839Y251809I-1052J-850D01*
G03X260504Y251415I-339J-1309D01*
G01X260444Y251350D01*
X260228D01*
G02X259947Y252035I0J400D01*
G03X258053I-947J965D01*
G02X257772Y251350I-281J-285D01*
G01X257076D01*
G02X256751Y251984I0J400D01*
G03X254637I-1057J843D01*
G02X254312Y251350I-325J-234D01*
G01X253542D01*
G02X253227Y251996I0J400D01*
G03X252221Y254180I-1065J833D01*
G03X250964Y253456I-59J-1351D01*
G02X250332Y253368I-349J195D01*
G01X249767Y253933D01*
Y253934D01*
X244818Y258882D01*
X242818Y260882D01*
G02X242838Y261467I283J283D01*
G03X243356Y262363I-822J1073D01*
G02X243814Y262694I395J-64D01*
G03X244434Y262742I208J1336D01*
G03X244592Y262803I-407J1289D01*
G02X245150Y262460I159J-367D01*
G03X247712Y261941I1350J80D01*
G03X245932Y263767I-1212J599D01*
G02X245374Y264110I-159J367D01*
G03X242818Y264640I-1350J-80D01*
G03X242684Y264207I1206J-610D01*
G02X242226Y263876I-395J64D01*
G03X241814Y263877I-209J-1336D01*
G03X241414Y263751I201J-1337D01*
G02X240855Y264091I-160J367D01*
G03X238299Y264610I-1349J-91D01*
G01X238243Y264500D01*
X234260D01*
X234205Y264611D01*
G03X231785I-1210J-603D01*
G01X231730Y264500D01*
X229769D01*
X229713Y264610D01*
G03X227299I-1207J-610D01*
G01X227243Y264500D01*
X223247D01*
X223191Y264610D01*
G03X220777I-1207J-610D01*
G01X220721Y264500D01*
X218769D01*
X218713Y264610D01*
G03X216299I-1207J-610D01*
G01X216243Y264500D01*
X212247D01*
X212191Y264610D01*
G03X209777I-1207J-610D01*
G01X209721Y264500D01*
X207769D01*
X207713Y264610D01*
G03X205299I-1207J-610D01*
G01X205243Y264500D01*
X201500D01*
X182500Y245500D01*
X137000D01*
X135000Y247500D01*
Y271500D01*
X144500Y281000D01*
X262500D01*
X263325Y280175D01*
X263238Y280039D01*
G03X282971Y277477I9262J-5941D01*
G02X283352Y278000I381J123D01*
G01X285738D01*
X285793Y277890D01*
G03X288207I1207J610D01*
G01X288262Y278000D01*
X305637D01*
X305659Y277826D01*
G03X308158Y277301I1341J174D01*
G02X308842I342J-206D01*
G03X311341Y277826I1158J699D01*
G01X311363Y278000D01*
X313137D01*
X313159Y277826D01*
G03X315465Y277053I1341J174D01*
G02X316035I285J-281D01*
G03X318341Y277826I965J947D01*
G01X318363Y278000D01*
X320637D01*
X320659Y277826D01*
G03X322965Y277053I1341J174D01*
G02X323535I285J-281D01*
G03X325841Y277826I965J947D01*
G01X325863Y278000D01*
X344000D01*
X350500Y271500D01*
Y270504D01*
X350498Y270502D01*
Y267378D01*
X355000Y262877D01*
Y253963D01*
X354849Y253944D01*
G03X353903Y253451I151J-1444D01*
G02X353235Y253550I-303J262D01*
G03X352990Y252079I-1235J-550D01*
G02X353654Y251956I293J-272D01*
G03X354824Y251059I1346J544D01*
G01X355000Y251037D01*
Y240000D01*
X317000D01*
G37*
G36*
G01X265783Y84108D02*
G02X265441Y83500I-342J-208D01*
G01X254500D01*
X250500Y87500D01*
Y101500D01*
X267611Y118611D01*
X267740Y118546D01*
G03X270228Y121034I834J1654D01*
G01X270163Y121163D01*
X270874Y121874D01*
X270980Y121853D01*
G03X271482Y121821I368J1815D01*
G01X271484D01*
G03X272746Y122453I-136J1847D01*
G02X273350I302J-262D01*
G03X275455Y121956I1398J1215D01*
G03X276013Y122315I-707J1712D01*
G03X276069Y122370I-1269J1349D01*
G02X276627I279J-287D01*
G03Y124966I1321J1298D01*
G02X276069I-279J287D01*
G03X275403Y125400I-1321J-1298D01*
G03X275277Y125443I-661J-1730D01*
G02X275109Y126109I115J383D01*
G01X289561Y140561D01*
G02X290209Y140443I283J-282D01*
G03X292107Y142341I1341J557D01*
G02X291989Y142989I164J365D01*
G01X292999Y143998D01*
X376622D01*
X407494Y174871D01*
G02X408131Y174774I283J-283D01*
G03X409947Y176590I1208J608D01*
G02X409850Y177227I186J354D01*
G01X416904Y184281D01*
X416979Y184286D01*
G03X418240Y185547I-88J1349D01*
G01X418245Y185622D01*
X418622Y185998D01*
X435509D01*
G02X435840Y185373I0J-400D01*
G03X435666Y183927I1160J-873D01*
G03X437280Y183075I1334J573D01*
G02X437744Y182577I78J-392D01*
G03X445501Y179182I4036J-1337D01*
G03X439112Y184550I-3721J2058D01*
G03X439067Y184514I2633J-3338D01*
G02X438429Y184759I-244J317D01*
G03X438353Y185028I-1429J-258D01*
G03X438160Y185373I-1352J-530D01*
G02X438491Y185998I331J225D01*
G01X490002D01*
X495000Y181000D01*
X509000D01*
X512000Y178000D01*
Y159863D01*
X511825Y159841D01*
G03X511797Y159837I177J-1341D01*
G02X511341Y160172I-61J395D01*
G03X508983Y160891I-1341J-172D01*
G03X510203Y158663I1017J-891D01*
G02X510659Y158328I61J-395D01*
G03X510866Y157764I1341J172D01*
G03X511053Y157535I1134J735D01*
G02Y156965I-281J-285D01*
G03X511826Y154659I947J-965D01*
G01X512000Y154636D01*
Y150763D01*
X511891Y150707D01*
G03X511728Y150610I608J-1207D01*
G03X511552Y150464I772J-1110D01*
G02X510891Y150700I-266J300D01*
G03X510439Y151744I-1891J-199D01*
G02Y152256I307J256D01*
G03X507561I-1439J1244D01*
G02Y151744I-307J-256D01*
G03X510497Y149327I1439J-1244D01*
G02X511188Y149174I305J-259D01*
G03X511390Y148728I1312J326D01*
G03X511553Y148535I1110J772D01*
G02Y147965I-281J-285D01*
G03X511890Y145793I947J-965D01*
G01X512000Y145737D01*
Y145263D01*
X511890Y145207D01*
G03Y142793I610J-1207D01*
G01X512000Y142737D01*
Y140118D01*
G03Y136882I1000J-1618D01*
G01Y125553D01*
G03X511881Y125425I1002J-1051D01*
G03X511689Y123877I1119J-925D01*
G01X511749Y123749D01*
X509500Y121500D01*
X499369D01*
X499327Y121591D01*
G03X496673I-1327J-591D01*
G01X496631Y121500D01*
X452900D01*
X452070Y120670D01*
X451970Y120686D01*
G03X450605Y120142I-219J-1435D01*
G03X450315Y119030I1145J-892D01*
G01X450330Y118930D01*
X449900Y118500D01*
X449500D01*
X447281Y116281D01*
X447152Y116401D01*
G03X446067Y116800I-1002J-1051D01*
G02X445703Y117382I-8J400D01*
G03X445336Y119063I-1203J618D01*
G03X443181Y118298I-836J-1063D01*
G03X443421Y117185I1319J-298D01*
G03X444524Y116648I1079J815D01*
G02X444880Y116054I6J-400D01*
G03X444849Y115994I1274J-696D01*
G03X444804Y115895I1298J-650D01*
G03X444698Y115372I1346J-545D01*
G02X444299Y115000I-399J28D01*
G01X418752D01*
G03X416304I-1224J-781D01*
G01X406982D01*
G03X404504I-1239J-757D01*
G01X385089D01*
G02X384697Y115481I0J400D01*
G03X381853I-1422J294D01*
G02X381461Y115000I-392J-81D01*
G01X363858D01*
X363828Y115164D01*
G03X360972I-1428J-264D01*
G01X360942Y115000D01*
X354000D01*
X334501Y95502D01*
X334378D01*
X330998Y92122D01*
Y91998D01*
X329923Y90923D01*
G02X329245Y91143I-283J283D01*
G03X327673Y89571I-1447J-125D01*
G02X327893Y88893I-63J-395D01*
G01X322500Y83500D01*
X321693D01*
G02X321307Y84003I0J400D01*
G03X318693I-1307J347D01*
G02X318307Y83500I-386J-103D01*
G01X268559D01*
G02X268217Y84108I0J400D01*
G03X265783I-1217J792D01*
G37*
G36*
G01X469000Y67000D02*
X472000Y64000D01*
Y53500D01*
X473000Y52500D01*
X484000D01*
X493000Y61500D01*
X502000D01*
X512500D01*
X519000Y68000D01*
Y81000D01*
X528000Y90000D01*
X555500D01*
X556500Y89000D01*
Y79000D01*
X555500Y78000D01*
X538500D01*
X531000Y70500D01*
Y65500D01*
Y52000D01*
X528500Y49500D01*
X513500D01*
X499500D01*
X490000Y40000D01*
X461000D01*
X430000Y71000D01*
X394500D01*
X392000Y68500D01*
X342500D01*
X332500Y78500D01*
Y91500D01*
X335000Y94000D01*
X343000D01*
X344500Y92500D01*
Y83500D01*
X347500Y80500D01*
X386000D01*
X388500Y83000D01*
X442000D01*
X458000Y67000D01*
X469000D01*
G37*
G36*
G01X439800Y105000D02*
X449877Y115077D01*
G02X450515Y114979I283J-283D01*
G03X452421Y116885I1335J571D01*
G02X452323Y117523I185J355D01*
G01X452800Y118000D01*
X466854D01*
G02X467235Y117478I0J-400D01*
G03X467278Y116422I1265J-477D01*
G03X469658Y116301I1222J577D01*
G02X470342I342J-206D01*
G03X472658I1158J699D01*
G02X473342I342J-206D01*
G03X475722Y116422I1158J698D01*
G03X475765Y117478I-1222J579D01*
G02X476146Y118000I381J122D01*
G01X504636D01*
G02X504948Y117349I1J-400D01*
G03X507052I1052J-849D01*
G02X507364Y118000I311J251D01*
G01X510000D01*
X515000Y123000D01*
Y136200D01*
G02X515417Y136600I400J0D01*
G03Y140400I83J1900D01*
G02X515000Y140800I-17J400D01*
G01Y144238D01*
X515110Y144293D01*
G03Y146707I-610J1207D01*
G01X515000Y146762D01*
Y147137D01*
X515174Y147159D01*
G03Y149841I-174J1341D01*
G01X515000Y149863D01*
Y152674D01*
X515136Y152720D01*
G03Y155280I-436J1280D01*
G01X515000Y155326D01*
Y177151D01*
G02X515422Y177550I400J0D01*
G03Y180450I78J1450D01*
G02X515000Y180849I-22J399D01*
G01Y183447D01*
G03X515055Y185498I-1000J1053D01*
G01X515000Y185556D01*
Y185944D01*
X515055Y186002D01*
G03X515000Y188053I-1055J998D01*
G01Y189751D01*
G02X515423Y190150I400J0D01*
G03Y192850I77J1350D01*
G02X515000Y193249I-23J399D01*
G01Y196000D01*
X510202Y200798D01*
Y201422D01*
X503047Y208577D01*
G02X503011Y209103I282J284D01*
G03X501103Y211011I-1011J897D01*
G02X500577Y211047I-242J318D01*
G01X495400Y216223D01*
Y222791D01*
G03Y225209I-605J1209D01*
G01Y234100D01*
X488150Y241350D01*
Y252650D01*
X480300Y260500D01*
X465503D01*
G02X465160Y261105I0J400D01*
G03X462840I-1160J695D01*
G02X462497Y260500I-343J-205D01*
G01X359500D01*
X356502Y263498D01*
Y263499D01*
X354073Y265927D01*
X352000Y268000D01*
Y269881D01*
X352002Y269882D01*
Y272122D01*
X351000Y273123D01*
Y279000D01*
X352498Y280498D01*
X362353D01*
G02X362752Y280069I0J-400D01*
G03X365448I1348J-99D01*
G02X365847Y280498I399J29D01*
G01X382002D01*
X382500Y280000D01*
X469695D01*
G02X470075Y279474I0J-400D01*
G03X472925I1425J-474D01*
G02X473305Y280000I380J126D01*
G01X497877D01*
X500210Y277666D01*
G02X500094Y277020I-283J-283D01*
G03X502020Y275094I606J-1320D01*
G02X502666Y275210I363J-167D01*
G01X512834Y265043D01*
Y249166D01*
G02X512774Y248552I-283J-282D01*
G03X516095Y228780I6132J-9135D01*
G03X528906Y244004I2811J10637D01*
G02X529558Y244442I369J156D01*
G01X551000Y223000D01*
Y93000D01*
X549502Y91502D01*
X532147D01*
G02X531771Y92038I0J400D01*
G03X529229I-1271J462D01*
G02X528853Y91502I-376J-136D01*
G01X527378D01*
X517498Y81622D01*
Y68622D01*
X517379Y68502D01*
X516466D01*
G02X516117Y69097I0J400D01*
G03X512761Y70638I-1617J902D01*
G02X512140Y70460I-375J137D01*
G03X509561Y70166I-1140J-1460D01*
G02X508939I-311J251D01*
G03X505650Y68919I-1439J-1166D01*
G02X505250Y68502I-400J-17D01*
G01X458899D01*
X443400Y84000D01*
X443123D01*
X443025Y84098D01*
X442902Y84222D01*
X442622Y84502D01*
X387878D01*
X387598Y84222D01*
X387475Y84098D01*
X387377Y84000D01*
X385500D01*
X384000Y85500D01*
Y101948D01*
G02X384530Y102326I400J0D01*
G03X386269Y104406I470J1374D01*
G02X386619Y105000I350J194D01*
G01X403998D01*
Y100998D01*
X417502D01*
Y105000D01*
X424814D01*
X424848Y104988D01*
G03X425852I502J1362D01*
G01X425886Y105000D01*
X430137D01*
X430159Y104824D01*
G03X433045Y104854I1441J176D01*
G01X433063Y105000D01*
X439800D01*
G37*
G36*
G01X431484Y56144D02*
X444000Y48441D01*
Y13404D01*
X388000D01*
Y53157D01*
X390989Y57000D01*
X402535D01*
X409202Y67000D01*
X413111D01*
X431484Y56144D01*
G37*
%LPC*%
G75*
G36*
G01X74321Y29128D02*
G02X73630Y35606I-1136J3155D01*
G02X74321Y29128I-442J-3323D01*
G37*
G36*
G01X591752Y154326D02*
G03X591182I-285J-281D01*
G02X589270Y156238I-965J947D01*
G03Y156808I-281J285D01*
G02X591182Y158720I947J965D01*
G03X591752I285J281D01*
G02X593664Y156808I965J-947D01*
G03Y156238I281J-285D01*
G02X591752Y154326I-947J-965D01*
G37*
G36*
G01X582535Y149053D02*
G03X581965I-285J-281D01*
G02Y150947I-965J947D01*
G03X582535I285J281D01*
G02Y149053I965J-947D01*
G37*
G36*
G01X568535Y148053D02*
G03X567965I-285J-281D01*
G02Y149947I-965J947D01*
G03X568535I285J281D01*
G02Y148053I965J-947D01*
G37*
G36*
G01X279031Y75375D02*
G03X279652Y75389I305J259D01*
G02Y73611I1148J-889D01*
G03X279031Y73625I-316J-245D01*
G02X277035Y73553I-1031J875D01*
G03X276465I-285J-281D01*
G02Y75447I-965J947D01*
G03X277035I285J281D01*
G02X279031Y75375I965J-947D01*
G37*
G36*
G01X345535Y63053D02*
G03X344965I-285J-281D01*
G02Y64947I-965J947D01*
G03X345535I285J281D01*
G02Y63053I965J-947D01*
G37*
G36*
G01X158035Y57553D02*
G03X157465I-285J-281D01*
G02Y59447I-965J947D01*
G03X158035I285J281D01*
G02Y57553I965J-947D01*
G37*
G36*
G01X241570Y48246D02*
G03X240968I-301J-263D01*
G02Y50754I-1430J1254D01*
G03X241570I301J263D01*
G02Y48246I1430J-1254D01*
G37*
G36*
G01X277035Y46053D02*
G03X276465I-285J-281D01*
G02Y47947I-965J947D01*
G03X277035I285J281D01*
G02Y46053I965J-947D01*
G37*
G36*
G01X265570Y46246D02*
G03X264968I-301J-263D01*
G02Y48754I-1430J1254D01*
G03X265570I301J263D01*
G02Y46246I1430J-1254D01*
G37*
G36*
G01X173437Y33974D02*
G03X174000Y33982I277J289D01*
G02X176148Y33805I1000J-982D01*
G03X176727Y33724I327J230D01*
G02X175241Y31143I2616J-3224D01*
G03X174880Y31603I-395J62D01*
G02X174000Y32018I121J1397D01*
G03X173437Y32026I-286J-281D01*
G02Y33974I-937J974D01*
G37*
G36*
G01X575658Y149301D02*
G02Y150699I-1158J699D01*
G03X576342I342J206D01*
G02Y149301I1158J-699D01*
G03X575658I-342J-206D01*
G37*
G36*
G01X285723Y74218D02*
G02Y75782I-1223J782D01*
G03X286389Y75770I337J216D01*
G02Y74230I1111J-770D01*
G03X285723Y74218I-329J-228D01*
G37*
G36*
G01X327658Y73801D02*
G02Y75199I-1158J699D01*
G03X328342I342J206D01*
G02Y73801I1158J-699D01*
G03X327658I-342J-206D01*
G37*
G36*
G01X315658D02*
G02Y75199I-1158J699D01*
G03X316342I342J206D01*
G02Y73801I1158J-699D01*
G03X315658I-342J-206D01*
G37*
G36*
G01X291158Y61301D02*
G02Y62699I-1158J699D01*
G03X291842I342J206D01*
G02X292473Y63245I1157J-700D01*
G03X292671Y63800I-156J368D01*
G02X294479Y63077I1329J700D01*
G03X294240Y62538I128J-379D01*
G02X291842Y61301I-1240J-539D01*
G03X291158I-342J-206D01*
G37*
G36*
G01X299645Y61181D02*
G02X299593Y62696I-1145J719D01*
G03X300255Y62719I323J236D01*
G02X300307Y61204I1145J-719D01*
G03X299645Y61181I-323J-236D01*
G37*
G36*
G01X150768Y57531D02*
G02X150547Y58855I-1268J469D01*
G03X151232Y58969I310J253D01*
G02X151453Y57645I1268J-469D01*
G03X150768Y57531I-310J-253D01*
G37*
G36*
G01X41676Y29148D02*
G02Y30852I-1176J852D01*
G03X42324I324J234D01*
G02Y29148I1176J-852D01*
G03X41676I-324J-234D01*
G37*
G36*
G01X60947Y231535D02*
G03Y230965I281J-285D01*
G02X59053I-947J-965D01*
G03Y231535I-281J285D01*
G02Y233465I947J965D01*
G03Y234035I-281J285D01*
G02Y235965I947J965D01*
G03Y236535I-281J285D01*
G02Y238465I947J965D01*
G03Y239035I-281J285D01*
G02X60947I947J965D01*
G03Y238465I281J-285D01*
G02Y236535I-947J-965D01*
G03Y235965I281J-285D01*
G02Y234035I-947J-965D01*
G03Y233465I281J-285D01*
G02Y231535I-947J-965D01*
G37*
G36*
G01X486035Y225053D02*
G03X485465I-285J-281D01*
G02Y226947I-965J947D01*
G03X486035I285J281D01*
G02Y225053I965J-947D01*
G37*
G36*
G01X443286Y226417D02*
G03X443857Y226189I380J124D01*
G02X443214Y224583I643J-1189D01*
G03X442643Y224811I-380J-124D01*
G02X443286Y226417I-643J1189D01*
G37*
G36*
G01X424200Y220845D02*
G03X423624Y220749I-243J-318D01*
G02X423263Y222616I-1124J751D01*
G03X423832Y222742I225J331D01*
G02X424200Y220845I1248J-742D01*
G37*
G36*
G01X60947Y223035D02*
G03Y222465I281J-285D01*
G02X59053I-947J-965D01*
G03Y223035I-281J285D01*
G02X60947I947J965D01*
G37*
G36*
G01X379775Y210242D02*
G03X379814Y210824I-254J309D01*
G02X381797Y210688I1064J988D01*
G03X381758Y210106I254J-309D01*
G02X379775Y210242I-1064J-988D01*
G37*
G36*
G01X37264Y208748D02*
G03X36876Y208271I4J-400D01*
G02X35424Y209400I-1376J-271D01*
G03X35791Y209894I-22J399D01*
G02X37264Y208748I1459J356D01*
G37*
G36*
G01X33071Y201520D02*
G03Y200980I295J-270D01*
G02X30929I-1071J-980D01*
G03Y201520I-295J270D01*
G02X33071I1071J980D01*
G37*
G36*
G01X23571Y194520D02*
G03Y193980I295J-270D01*
G02X21429I-1071J-980D01*
G03Y194520I-295J270D01*
G02Y196480I1071J980D01*
G03Y197020I-295J270D01*
G02X23571I1071J980D01*
G03Y196480I295J-270D01*
G02Y194520I-1071J-980D01*
G37*
G36*
G01X394909Y170804D02*
G03X395235Y170416I400J5D01*
G02X393634Y169069I-249J-1329D01*
G03X393308Y169457I-400J-5D01*
G02X394909Y170804I249J1329D01*
G37*
G36*
G01X21947Y170535D02*
G03Y169965I281J-285D01*
G02X20053I-947J-965D01*
G03Y170535I-281J285D01*
G02X21947I947J965D01*
G37*
G36*
G01X188533Y118566D02*
G03Y119170I-262J302D01*
G02X188925Y122227I1215J1398D01*
G03X189059Y122837I-177J359D01*
G02X191939Y125166I1441J1163D01*
G03X192561I311J251D01*
G02X195439I1439J-1166D01*
G03X196061I311J251D01*
G02Y122834I1439J-1166D01*
G03X195439I-311J-251D01*
G02X192561I-1439J1166D01*
G03X191939I-311J-251D01*
G02X191323Y122341I-1439J1166D01*
G03X191189Y121731I177J-359D01*
G02X190963Y119170I-1441J-1163D01*
G03Y118566I262J-302D01*
G02X188533I-1215J-1398D01*
G37*
G36*
G01X242110Y108667D02*
G03X241905Y109222I-355J184D01*
G02X243738Y109901I544J1346D01*
G03X243943Y109346I355J-184D01*
G02X242110Y108667I-544J-1346D01*
G37*
G36*
G01X48097Y107761D02*
G03X47751Y107351I54J-396D01*
G02X46103Y108739I-1451J-51D01*
G03X46449Y109149I-54J396D01*
G02X48097Y107761I1451J51D01*
G37*
G36*
G01X236449Y98239D02*
G03X236039Y98649I-400J10D01*
G02Y101752I-39J1552D01*
G03X236448Y102161I9J400D01*
G02X239551I1552J39D01*
G03X239961Y101751I400J-10D01*
G02X239962Y98647I39J-1552D01*
G03X239553Y98238I-9J-400D01*
G02X236449Y98239I-1552J-37D01*
G37*
G36*
G01X191118Y95712D02*
G03X190595Y95558I-179J-357D01*
G02X187619Y97734I-1594J942D01*
G03Y98266I-299J266D01*
G02Y100734I1381J1234D01*
G03Y101266I-299J266D01*
G02X190847Y102642I1381J1234D01*
G03X191388Y102298I399J30D01*
G02X193309Y99211I660J-1730D01*
G03X193291Y98643I272J-293D01*
G02X191118Y95712I-1343J-1275D01*
G37*
G36*
G01X180561Y88334D02*
G03X179939I-311J-251D01*
G02X177334Y90939I-1439J1166D01*
G03Y91561I-251J311D01*
G02X179939Y94166I1166J1439D01*
G03X180561I311J251D01*
G02X183166Y91561I1439J-1166D01*
G03Y90939I251J-311D01*
G02X180561Y88334I-1166J-1439D01*
G37*
G36*
G01X129561Y80334D02*
G03X128939I-311J-251D01*
G02Y82666I-1439J1166D01*
G03X129561I311J251D01*
G02Y80334I1439J-1166D01*
G37*
G36*
G01X114020Y72429D02*
G03X113480I-270J-295D01*
G02Y74571I-980J1071D01*
G03X114020I270J295D01*
G02Y72429I980J-1071D01*
G37*
G36*
G01X63061Y58334D02*
G03X62439I-311J-251D01*
G02Y60666I-1439J1166D01*
G03X63061I311J251D01*
G02X65939I1439J-1166D01*
G03X66561I311J251D01*
G02Y58334I1439J-1166D01*
G03X65939I-311J-251D01*
G02X63061I-1439J1166D01*
G37*
G36*
G01X40533Y55817D02*
G03X40124Y56227I-400J10D01*
G02X40132Y59330I-35J1552D01*
G03X40542Y59739I10J400D01*
G02X43645Y59731I1552J35D01*
G03X44054Y59320I400J-11D01*
G02X44046Y56217I35J-1552D01*
G03X43636Y55808I-10J-400D01*
G02X40533Y55817I-1552J-34D01*
G37*
G36*
G01X61147Y208283D02*
G02X59325Y210171I-1146J717D01*
G03Y210865I-200J347D01*
G02X59279Y213180I675J1171D01*
G03Y213856I-213J338D01*
G02X59145Y216047I721J1144D01*
G03X59031Y216732I-253J310D01*
G02X60355Y216953I469J1268D01*
G03X60469Y216268I253J-310D01*
G02X60721Y213856I-469J-1268D01*
G03Y213180I213J-338D01*
G02X60675Y210865I-721J-1144D01*
G03Y210171I200J-347D01*
G02X60783Y210102I-673J-1172D01*
G03X61353Y210217I231J327D01*
G02X61717Y208398I1147J-716D01*
G03X61147Y208283I-231J-327D01*
G37*
G36*
G01X404032Y199843D02*
G02X401161Y199791I-1432J-243D01*
G03X400761Y200244I-397J53D01*
G02X402187Y201505I-13J1452D01*
G03X402587Y201052I397J-53D01*
G02X402972Y201004I14J-1452D01*
G03X403468Y201457I102J386D01*
G02X404528Y200296I1432J243D01*
G03X404032Y199843I-102J-386D01*
G37*
G36*
G01X384146Y199844D02*
G02X382745Y199003I-146J-1344D01*
G03X382401Y199551I-371J149D01*
G02X383825Y200405I99J1449D01*
G03X384146Y199844I365J-164D01*
G37*
G36*
G01X41852Y199676D02*
G02X40148I-852J-1176D01*
G03Y200324I-234J324D01*
G02X41852I852J1176D01*
G03Y199676I234J-324D01*
G37*
G36*
G01X451277Y195782D02*
G02Y194218I1223J-782D01*
G03X450611Y194230I-337J-216D01*
G02Y195770I-1111J770D01*
G03X451277Y195782I329J228D01*
G37*
G36*
G01X427777Y192143D02*
G02X426610Y193370I-1347J-113D01*
G03X427060Y193817I53J397D01*
G02X427956Y195346I1440J183D01*
G03X428079Y196010I-149J371D01*
G02X429550Y195765I921J990D01*
G03X429451Y195097I163J-365D01*
G02X428246Y192570I-951J-1097D01*
G03X427777Y192143I-70J-394D01*
G37*
G36*
G01X27199Y183158D02*
G02X25801I-699J-1158D01*
G03Y183842I-206J342D01*
G02X27199I699J1158D01*
G03Y183158I206J-342D01*
G37*
G36*
G01X384436Y176214D02*
G02X383524Y177354I-1436J-214D01*
G03X384064Y177786I144J373D01*
G02X384976Y176646I1436J214D01*
G03X384436Y176214I-144J-373D01*
G37*
G36*
G01X224978Y148823D02*
G02X223650Y148352I-278J-1323D01*
G03X223422Y148995I-311J252D01*
G02X224750Y149466I278J1323D01*
G03X224978Y148823I311J-252D01*
G37*
G36*
G01X222594Y145396D02*
G02X221057Y145109I-544J-1346D01*
G03X220947Y145766I-273J292D01*
G02X222460Y146048I553J1234D01*
G03X222594Y145396I284J-281D01*
G37*
G36*
G01X22645Y133149D02*
G02Y134851I-1645J851D01*
G03X23355I355J184D01*
G02Y133149I1645J-851D01*
G03X22645I-355J-184D01*
G37*
G36*
G01X37773Y134934D02*
G02X35698Y134709I-873J-1634D01*
G03X35627Y135366I-259J304D01*
G02X37702Y135591I873J1634D01*
G03X37773Y134934I259J-304D01*
G37*
G36*
G01X184352Y102676D02*
G02X182648I-852J-1176D01*
G03Y103324I-234J324D01*
G02Y105676I852J1176D01*
G03Y106324I-234J324D01*
G02X184352I852J1176D01*
G03Y105676I234J-324D01*
G02Y103324I-852J-1176D01*
G03Y102676I234J-324D01*
G37*
G36*
G01X103223Y70368D02*
G02Y71932I-1223J782D01*
G03X103889Y71920I337J216D01*
G02Y70380I1111J-770D01*
G03X103223Y70368I-329J-228D01*
G37*
G36*
G01X99223Y55718D02*
G02Y57282I-1223J782D01*
G03X99889Y57270I337J216D01*
G02Y55730I1111J-770D01*
G03X99223Y55718I-329J-228D01*
G37*
G36*
G01X68571Y199020D02*
G03Y198480I295J-270D01*
G02X66429I-1071J-980D01*
G03Y199020I-295J270D01*
G02X68571I1071J980D01*
G37*
G36*
G01X54927Y150883D02*
G03Y150267I256J-308D01*
G02X53073I-927J-1117D01*
G03Y150883I-256J308D01*
G02X54927I927J1117D01*
G37*
G36*
G01X45980Y149571D02*
G03X46520I270J295D01*
G02X48480I980J-1071D01*
G03X49020I270J295D01*
G02Y147429I980J-1071D01*
G03X48480I-270J-295D01*
G02X46520I-980J1071D01*
G03X45980I-270J-295D01*
G02Y149571I-980J1071D01*
G37*
G36*
G01X61852Y198176D02*
G02X60148I-852J-1176D01*
G03Y198824I-234J324D01*
G02X61852I852J1176D01*
G03Y198176I234J-324D01*
G37*
G36*
G01X72199Y189658D02*
G02X70801I-699J-1158D01*
G03Y190342I-206J342D01*
G02X72199I699J1158D01*
G03Y189658I206J-342D01*
G37*
G36*
G01X72282Y182723D02*
G02X70718I-782J-1223D01*
G03X70730Y183389I-216J337D01*
G02X72270I770J1111D01*
G03X72282Y182723I228J-329D01*
G37*
G36*
G01X54325Y157415D02*
G02X52891Y156937I-325J-1415D01*
G03X52675Y157585I-306J258D01*
G02X51929Y159980I325J1415D01*
G03Y160520I-295J270D01*
G02X54071I1071J980D01*
G03Y159980I295J-270D01*
G02X54109Y158063I-1071J-980D01*
G03X54325Y157415I306J-258D01*
G37*
G36*
G01X105176Y139648D02*
G02Y141352I-1176J852D01*
G03X105824I324J234D01*
G02Y139648I1176J-852D01*
G03X105176I-324J-234D01*
G37*
G36*
G01X51443Y138789D02*
G02X50512Y137696I407J-1289D01*
G03X49983Y138131I-396J58D01*
G02X50929Y139242I-483J1369D01*
G03X51443Y138789I394J-72D01*
G37*
G36*
G01X97192Y266285D02*
G03Y265715I281J-285D01*
G02X94808I-1192J-1215D01*
G03Y266285I-281J285D01*
G02X97192I1192J1215D01*
G37*
G36*
G01X92692D02*
G03Y265715I281J-285D01*
G02X90308I-1192J-1215D01*
G03Y266285I-281J285D01*
G02X92692I1192J1215D01*
G37*
G36*
G01X89710Y257080D02*
G03X89111Y257065I-293J-273D01*
G02Y258935I-1111J935D01*
G03X89710Y258920I306J258D01*
G02Y257080I990J-920D01*
G37*
G36*
G01X95520Y250929D02*
G03X94980I-270J-295D01*
G02Y253071I-980J1071D01*
G03X95520I270J295D01*
G02Y250929I980J-1071D01*
G37*
G36*
G01X101719Y260241D02*
G02Y261759I-1119J759D01*
G03X102381I331J224D01*
G02X104465Y261947I1119J-759D01*
G03X105035I285J281D01*
G02X105974Y262352I965J-947D01*
G03X106362Y262808I-8J400D01*
G02X108150Y264275I1338J192D01*
G03X108675Y264732I133J377D01*
G02X108660Y264821I1325J269D01*
G03X108203Y265163I-396J-53D01*
G02X107074Y265515I-203J1337D01*
G03X106526I-274J-291D01*
G02X104663Y265526I-926J985D01*
G03X104100Y265518I-277J-289D01*
G02X102127Y265490I-1001J982D01*
G03X101573I-277J-288D01*
G02Y267510I-973J1010D01*
G03X102127I277J288D01*
G02X104100Y267482I972J-1010D01*
G03X104663Y267474I286J281D01*
G02X106526Y267485I937J-974D01*
G03X107074I274J291D01*
G02X109340Y266679I926J-985D01*
G03X109797Y266337I396J53D01*
G02X111340Y265179I203J-1337D01*
G03X111797Y264837I396J53D01*
G02X112203I203J-1337D01*
G03X112660Y265179I61J395D01*
G02X115340I1340J-179D01*
G03X115797Y264837I396J53D01*
G02X116203I203J-1337D01*
G03X116660Y265179I61J395D01*
G02X119340I1340J-179D01*
G03X119797Y264837I396J53D01*
G02X120207Y264836I202J-1337D01*
G03X120664Y265293I62J395D01*
G02X123346Y265372I1336J207D01*
G03X123782Y264936I398J-38D01*
G02X122564Y263718I128J-1346D01*
G03X122128Y264154I-398J38D01*
G02X121793Y264164I-127J1346D01*
G03X121336Y263707I-62J-395D01*
G02X118660Y263321I-1336J-207D01*
G03X118203Y263663I-396J-53D01*
G02X117797I-203J1337D01*
G03X117340Y263321I-61J-395D01*
G02X114660I-1340J179D01*
G03X114203Y263663I-396J-53D01*
G02X113797I-203J1337D01*
G03X113340Y263321I-61J-395D01*
G02X110660I-1340J179D01*
G03X110203Y263663I-396J-53D01*
G02X109550Y263725I-203J1337D01*
G03X109025Y263268I-133J-377D01*
G02X107726Y261648I-1325J-268D01*
G03X107338Y261192I8J-400D01*
G02X105035Y260053I-1338J-192D01*
G03X104465I-285J-281D01*
G02X102381Y260241I-965J947D01*
G03X101719I-331J-224D01*
G37*
G36*
G01X105391Y243312D02*
G02Y244688I-1391J688D01*
G03X106109I359J177D01*
G02Y243312I1391J-688D01*
G03X105391I-359J-177D01*
G37*
G36*
G01X114188Y233891D02*
G02X112812I-688J-1391D01*
G03Y234609I-177J359D01*
G02X114188I688J1391D01*
G03Y233891I177J-359D01*
G37*
G36*
G01X187447Y234035D02*
G03Y233465I281J-285D01*
G02X185553I-947J-965D01*
G03Y234035I-281J285D01*
G02X187447I947J965D01*
G37*
G36*
G01X178098Y150483D02*
G03X178382Y150945I-108J385D01*
G02X180702Y149517I1818J355D01*
G03X180418Y149055I108J-385D01*
G02X178098Y150483I-1818J-355D01*
G37*
G36*
G01X129625Y130156D02*
G03X129075I-275J-290D01*
G02Y132844I-1275J1344D01*
G03X129625I275J290D01*
G02Y130156I1275J-1344D01*
G37*
G36*
G01X116002Y122453D02*
G03X115398I-302J-262D01*
G02Y124883I-1398J1215D01*
G03X116002I302J262D01*
G02X118716Y124971I1398J-1215D01*
G03X119284I284J282D01*
G02Y122365I1316J-1303D01*
G03X118716I-284J-282D01*
G02X116002Y122453I-1316J1303D01*
G37*
G36*
G01X111958Y101642D02*
G03X112491Y101553I315J246D01*
G02X114881Y98766I1009J-1553D01*
G03Y98234I299J-266D01*
G02X112266Y95619I-1381J-1234D01*
G03X111734I-266J-299D01*
G02X109334Y98439I-1233J1382D01*
G03Y99061I-251J311D01*
G02Y101939I1166J1439D01*
G03Y102561I-251J311D01*
G02X111666I1166J1439D01*
G03Y101939I251J-311D01*
G02X111958Y101642I-1166J-1439D01*
G37*
G36*
G01X239465Y251636D02*
G02Y253232I-1091J798D01*
G03X240111I323J236D01*
G02X242283Y253246I1091J-798D01*
G03X242970Y253327I320J240D01*
G02X243129Y251976I1240J-539D01*
G03X242442Y251895I-320J-240D01*
G02X240111Y251636I-1240J539D01*
G03X239465I-323J-236D01*
G37*
G36*
G01X234002Y250983D02*
G02X232325Y251440I-1144J-894D01*
G03X232503Y252044I-147J372D01*
G02X234155Y251594I1101J785D01*
G03X234002Y250983I163J-365D01*
G37*
G36*
G01X227662Y249757D02*
G02X226889Y250898I-1445J-146D01*
G03X227174Y251130I92J178D01*
G02X227133Y251330I1300J371D01*
G03X226678Y251675I-397J-51D01*
G02X227824Y253183I-195J1338D01*
G03X228279Y252838I397J51D01*
G02X228154Y250186I195J-1338D01*
G03X227662Y249757I-94J-388D01*
G37*
G36*
G01X344387Y232703D02*
G02X341862Y231837I-1333J-228D01*
G03X341178Y231873I-353J-188D01*
G02X341251Y233270I-1119J759D01*
G03X341935Y233234I353J188D01*
G02X342837Y233810I1119J-759D01*
G03X343167Y234272I-64J395D01*
G02X344717Y233165I1333J228D01*
G03X344387Y232703I64J-395D01*
G37*
G36*
G01X349013Y224540D02*
G02X347379Y224812I-1013J-1040D01*
G03X347487Y225460I-171J362D01*
G02X349121Y225188I1013J1040D01*
G03X349013Y224540I171J-362D01*
G37*
G36*
G01X167447Y218535D02*
G02X166471Y219654I-1340J-183D01*
G03X166974Y220093I107J385D01*
G02X167950Y218974I1340J183D01*
G03X167447Y218535I-107J-385D01*
G37*
G36*
G01X316690Y201669D02*
G02X316669Y200327I1163J-689D01*
G03X315975Y200338I-350J-193D01*
G02X315996Y201680I-1163J689D01*
G03X316690Y201669I350J193D01*
G37*
G36*
G01X341077Y201650D02*
G02X338731I-1173J-673D01*
G03X338384Y202248I-347J198D01*
G01X332275D01*
X327248Y207275D01*
Y216775D01*
X325896Y218128D01*
X322444D01*
G03X322115Y217500I0J-400D01*
G02X319893I-1111J-771D01*
G03X319564Y218128I-329J228D01*
G01X319293D01*
G03X318964Y217500I0J-400D01*
G02X316971Y217754I-1111J-771D01*
G03X316923Y218396I-261J303D01*
G02Y221362I931J1483D01*
G03X316971Y222004I-213J339D01*
G02X318964Y222258I882J1025D01*
G03X319293Y221630I329J-228D01*
G01X319562D01*
G03X319891Y222258I0J400D01*
G02X322117I1113J767D01*
G03X322446Y221630I329J-228D01*
G01X327346D01*
X330752Y218225D01*
Y208725D01*
X333725Y205752D01*
X335412D01*
G03X335719Y206409I1J400D01*
G02X337789I1035J869D01*
G03X338096Y205752I306J-257D01*
G01X341829D01*
X343262Y207184D01*
G02X345738Y204708I1238J-1238D01*
G01X343746Y202715D01*
G03X343807Y202100I283J-282D01*
G02X341881Y201650I-753J-1123D01*
G03X341534Y202248I-347J198D01*
G01X341424D01*
G03X341077Y201650I0J-400D01*
G37*
G36*
G01X291465Y196553D02*
G02Y198447I-965J947D01*
G03X292035I285J281D01*
G02X294158Y198199I965J-947D01*
G03X294842I342J206D01*
G02X296965Y198447I1158J-699D01*
G03X297535I285J281D01*
G02Y196553I965J-947D01*
G03X296965I-285J-281D01*
G02X294842Y196801I-965J947D01*
G03X294158I-342J-206D01*
G02X292035Y196553I-1158J699D01*
G03X291465I-285J-281D01*
G37*
G36*
G01X329892Y196124D02*
G02X329001Y197015I-1291J-400D01*
G03X329502Y197516I119J382D01*
G02X331907Y198682I1291J400D01*
G03X332561Y198674I330J227D01*
G02X332542Y197116I1095J-792D01*
G03X331888Y197124I-330J-227D01*
G02X330393Y196625I-1095J792D01*
G03X329892Y196124I-119J-382D01*
G37*
G36*
G01X160914Y191319D02*
G02X158383Y190456I-1330J-243D01*
G03X157682Y190474I-355J-184D01*
G02X157717Y191778I-1166J684D01*
G03X158418Y191760I355J184D01*
G02X159851Y192401I1166J-684D01*
G03X160323Y192865I78J392D01*
G02X161386Y191783I1330J243D01*
G03X160914Y191319I-78J-392D01*
G37*
G36*
G01X172865Y189266D02*
G02X171608Y189329I-688J-1164D01*
G03X171643Y190036I-168J363D01*
G02X172900Y189973I688J1164D01*
G03X172865Y189266I168J-363D01*
G37*
G36*
G01X169748Y177258D02*
G02X169791Y178665I-1248J742D01*
G03X170484Y178633I356J183D01*
G02X170441Y177248I1139J-729D01*
G03X169748Y177258I-349J-195D01*
G37*
G36*
G01X141924Y172442D02*
G02X141351Y170992I1276J-1342D01*
G03X140676Y171258I-399J-24D01*
G02X141249Y172708I-1276J1342D01*
G03X141924Y172442I399J24D01*
G37*
G36*
G01X309035Y267053D02*
G03X308465I-285J-281D01*
G02Y268947I-965J947D01*
G03X309035I285J281D01*
G02Y267053I965J-947D01*
G37*
G36*
G01X314350Y266701D02*
G02X312566Y267358I-1271J-701D01*
G03X312785Y267908I-141J375D01*
G02X315158Y269199I1215J593D01*
G03X315842I342J206D01*
G02X318244Y267971I1158J-698D01*
G03X318692Y267422I368J-157D01*
G02X318897Y267449I292J-1422D01*
G03X319245Y267997I-23J399D01*
G02X321627Y269247I1255J503D01*
G03X322293I333J221D01*
G02X324674Y267995I1127J-747D01*
G03X325012Y267447I371J-149D01*
G02X323566Y266597I-122J-1447D01*
G03X323252Y267159I-364J165D01*
G02X322293Y267753I167J1341D01*
G03X321627I-333J-221D01*
G02X320635Y267155I-1127J747D01*
G03X320309Y266593I39J-398D01*
G02X317665Y266607I-1325J-593D01*
G03X317233Y267168I-363J167D01*
G02X315842Y267801I-233J1332D01*
G03X315158I-342J-206D01*
G02X314541Y267261I-1157J700D01*
G03X314350Y266701I160J-367D01*
G37*
G36*
G01X262760Y264360D02*
G02X262279Y263012I840J-1060D01*
G03X261640Y263240I-391J-85D01*
G02X262121Y264588I-840J1060D01*
G03X262760Y264360I391J85D01*
G37*
G36*
G01X286859Y259219D02*
G02X285341I-759J-1119D01*
G03Y259881I-224J331D01*
G02X286859I759J1119D01*
G03Y259219I224J-331D01*
G37*
G36*
G01X468947Y171035D02*
G03Y170465I281J-285D01*
G02X466699Y169133I-947J-965D01*
G03X466196Y169407I-385J-108D01*
G02X466178Y171998I-396J1293D01*
G03X466681Y172295I112J384D01*
G02X468947Y171035I1319J-295D01*
G37*
G36*
G01X471542Y152504D02*
G03X471493Y151917I245J-316D01*
G02X469616Y152023I-993J-917D01*
G03X469635Y152612I-261J303D01*
G02X471542Y152504I1015J1038D01*
G37*
G36*
G01X322667Y109615D02*
G03X322710Y109032I294J-271D01*
G02X320733Y108885I-910J-1132D01*
G03X320690Y109468I-294J271D01*
G02X322667Y109615I910J1132D01*
G37*
G36*
G01X318661Y98648D02*
G03X318252Y98239I-9J-400D01*
G02X315148I-1552J-39D01*
G03X314739Y98648I-400J9D01*
G02Y101752I-39J1552D01*
G03X315148Y102161I9J400D01*
G02X318252I1552J39D01*
G03X318661Y101752I400J-9D01*
G02Y98648I39J-1552D01*
G37*
G36*
G01X271866Y95973D02*
G03X271848Y95387I263J-301D01*
G02X268761Y93583I-1300J-1319D01*
G03X268281Y93867I-386J-105D01*
G02X266633Y97066I-433J1801D01*
G03Y97670I-262J302D01*
G02X268454Y100818I1215J1398D01*
G03X268969Y101084I131J378D01*
G02X272009Y99211I1779J-516D01*
G03X271991Y98643I272J-293D01*
G02X271866Y95973I-1343J-1275D01*
G37*
G36*
G01X261469Y90627D02*
G02X258460Y90529I-1469J-1127D01*
G03X258105Y91151I-332J223D01*
G02X256766Y91619I-105J1849D01*
G03X256234I-266J-299D01*
G02Y94381I-1234J1381D01*
G03X256766I266J299D01*
G02X259298Y94322I1235J-1381D01*
G03X259866Y94330I280J285D01*
G02X261682Y91257I1334J-1285D01*
G03X261469Y90627I104J-386D01*
G37*
G36*
G01X378352Y127280D02*
G02X377577Y128484I-1352J-19D01*
G03X378148Y128851I171J361D01*
G02X378923Y127647I1352J19D01*
G03X378352Y127280I-171J-361D01*
G37*
G36*
G01X487777Y135782D02*
G02Y134218I1223J-782D01*
G03X487111Y134230I-337J-216D01*
G02Y135770I-1111J770D01*
G03X487777Y135782I329J228D01*
G37*
G36*
G01X430927Y162936D02*
G02X429795Y161983I163J-1342D01*
G03X429350Y162493I-383J115D01*
G02X430499Y163461I-226J1434D01*
G03X430927Y162936I379J-128D01*
G37*
G36*
G01X480199Y165658D02*
G02X478801I-699J-1158D01*
G03Y166342I-206J342D01*
G02X479628Y168846I698J1158D01*
G03X480062Y169299I38J398D01*
G02X481299Y168062I1438J201D01*
G03X480846Y167628I-55J-396D01*
G02X480199Y166342I-1346J-129D01*
G03Y165658I206J-342D01*
G37*
G36*
G01X497676Y168648D02*
G02Y170352I-1176J852D01*
G03X498324I324J234D01*
G02Y168648I1176J-852D01*
G03X497676I-324J-234D01*
G37*
G36*
G01X463425Y179120D02*
G02X461732Y179232I-924J-1120D01*
G03X461775Y179880I-211J339D01*
G02X463468Y179768I924J1120D01*
G03X463425Y179120I211J-339D01*
G37*
G36*
G01X475807Y180161D02*
G02X475148Y178997I693J-1161D01*
G03X474543Y179339I-400J-1D01*
G02X475202Y180503I-693J1161D01*
G03X475807Y180161I400J1D01*
G37*
G36*
G01X413570Y137964D02*
G02X411404I-1083J1112D01*
G02X409240Y137965I-1081J1113D01*
G02X407076I-1082J1112D01*
G02X404881Y140160I-1083J1112D01*
G02Y142324I1112J1082D01*
G02X404880Y144489I1112J1083D01*
G02X404881Y146654I1113J1082D01*
G02Y148819I1112J1083D01*
G02Y150984I1112J1083D01*
G02Y153150I1112J1083D01*
G02Y155314I1112J1082D01*
G02X407076Y157509I1112J1083D01*
G02X409240I1082J-1112D01*
G02X411406I1083J-1112D01*
G02X413570Y157508I1081J-1113D01*
G02X415735I1082J-1112D01*
G02X417900I1083J-1112D01*
G02X420064Y157509I1083J-1112D01*
G02X422230I1083J-1112D01*
G02X424424Y155314I1082J-1112D01*
G02Y153150I-1112J-1082D01*
G02Y150984I-1112J-1083D01*
G02Y148819I-1112J-1082D01*
G02Y146654I-1112J-1083D01*
G02X424425Y144490I-1112J-1083D01*
G02Y142324I-1112J-1083D01*
G02X424424Y140160I-1113J-1081D01*
G02X422230Y137965I-1112J-1083D01*
G02X420066Y137964I-1083J1112D01*
G02X417900I-1083J1112D01*
G02X415735I-1082J1112D01*
G02X413570I-1083J1112D01*
G37*
G36*
G01X533995Y227054D02*
G03X534223Y227556I-150J371D01*
G02X536005Y226746I1277J444D01*
G03X535777Y226244I150J-371D01*
G02X533995Y227054I-1277J-444D01*
G37*
G36*
G01X511947Y210535D02*
G03Y209965I281J-285D01*
G02X510053I-947J-965D01*
G03Y210535I-281J285D01*
G02X511947I947J965D01*
G37*
G36*
G01X523382Y194686D02*
G03X522821Y194410I-170J-362D01*
G02X520553Y195665I-1321J290D01*
G03Y196235I-281J285D01*
G02X522804Y197559I947J965D01*
G03X523364Y197305I386J106D01*
G02X523382Y194686I636J-1305D01*
G37*
G36*
G01X524947Y173535D02*
G03Y172965I281J-285D01*
G02X523053I-947J-965D01*
G03Y173535I-281J285D01*
G02X524947I947J965D01*
G37*
G36*
G01X519947D02*
G03Y172965I281J-285D01*
G02X518053I-947J-965D01*
G03Y173535I-281J285D01*
G02X519947I947J965D01*
G37*
G36*
G01X539862Y108158D02*
G03Y107542I255J-308D01*
G02X538138I-862J-1042D01*
G03Y108158I-255J308D01*
G02X539862I862J1042D01*
G37*
G36*
G01X454462Y111021D02*
G02X457162Y108318I-1J-2701D01*
G01X457161Y106918D01*
G02X454460Y104219I-2701J2D01*
G01X454458D01*
G02X452315Y105278I2J2701D01*
G03X451680I-317J-243D01*
G02X449538Y104223I-2142J1646D01*
G01X449536D01*
G02X446836Y106926I1J2701D01*
G01X446837Y108326D01*
G02X449538Y111025I2701J-2D01*
G01X449540D01*
G02X451683Y109966I-2J-2701D01*
G03X452318I318J243D01*
G02X454460Y111021I2142J-1646D01*
G01X454462D01*
G37*
G36*
G01X356723Y269218D02*
G02Y270782I-1223J782D01*
G03X357389Y270770I337J216D01*
G02Y269230I1111J-770D01*
G03X356723Y269218I-329J-228D01*
G37*
G36*
G01X385008Y272068D02*
G02X384598Y270431I2792J-1569D01*
G03X383925Y270714I-400J-9D01*
G02X383862Y270658I-929J982D01*
G03Y270042I255J-308D01*
G02X382138I-862J-1042D01*
G03Y270658I-255J308D01*
G02X382010Y270780I867J1037D01*
G03X381411Y270765I-293J-273D01*
G02Y272635I-1111J935D01*
G03X382010Y272620I306J258D01*
G02X384280Y272135I990J-920D01*
G03X385008Y272068I379J129D01*
G37*
G36*
G01X367394Y270261D02*
G02X367032Y271995I-3194J238D01*
G03X367754Y272026I354J187D01*
G02X370347Y271385I1246J-526D01*
G03X370757Y270951I399J-34D01*
G02X369361Y269695I43J-1451D01*
G03X368973Y270148I-396J53D01*
G02X368068Y270520I27J1352D01*
G03X367394Y270261I-275J-290D01*
G37*
G36*
G01X538699Y220158D02*
G02X537301I-699J-1158D01*
G03Y220842I-206J342D01*
G02X538699I699J1158D01*
G03Y220158I206J-342D01*
G37*
G36*
G01X519350Y203436D02*
G02X517301Y204658I-1351J64D01*
G03Y205342I-206J342D01*
G02X519350Y206564I698J1158D01*
G03X519921Y206222I400J19D01*
G02Y203778I579J-1222D01*
G03X519350Y203436I-171J-361D01*
G37*
G36*
G01X538571Y182980D02*
G02X536429I-1071J-980D01*
G03Y183520I-295J270D01*
G02Y185480I1071J980D01*
G03Y186020I-295J270D01*
G02X536648Y188176I1071J980D01*
G03Y188824I-234J324D01*
G02X536402Y190951I852J1176D01*
G03X536394Y191483I-302J262D01*
G02X536577Y193685I1106J1017D01*
G03Y194315I-246J315D01*
G02X536394Y196517I923J1185D01*
G03X536402Y197049I-294J270D01*
G02X536447Y199000I1098J951D01*
G02X536429Y200980I1053J1000D01*
G03Y201520I-295J270D01*
G02X538571I1071J980D01*
G03Y200980I295J-270D01*
G02X538553Y199000I-1071J-980D01*
G02X538598Y197049I-1053J-1000D01*
G03X538606Y196517I302J-262D01*
G02X538423Y194315I-1106J-1017D01*
G03Y193685I246J-315D01*
G02X538606Y191483I-923J-1185D01*
G03X538598Y190951I294J-270D01*
G02X538352Y188824I-1098J-951D01*
G03Y188176I234J-324D01*
G02X538571Y186020I-852J-1176D01*
G03Y185480I295J-270D01*
G02Y183520I-1071J-980D01*
G03Y182980I295J-270D01*
G37*
G36*
G01X547199Y152158D02*
G02X545801I-699J-1158D01*
G03Y152842I-206J342D01*
G02X547199I699J1158D01*
G03Y152158I206J-342D01*
G37*
G36*
G01X528782Y145223D02*
G02X527218I-782J-1223D01*
G03X527230Y145889I-216J337D01*
G02X527301Y148158I770J1112D01*
G03Y148842I-206J342D01*
G02X528699I699J1158D01*
G03Y148158I206J-342D01*
G02X528770Y145889I-699J-1157D01*
G03X528782Y145223I228J-329D01*
G37*
G36*
G01X523152Y115676D02*
G02X521448I-852J-1176D01*
G03Y116324I-234J324D01*
G02X523152I852J1176D01*
G03Y115676I234J-324D01*
G37*
G36*
G01X443704Y102889D02*
G02X443648Y104589I-1204J811D01*
G03X444296Y104611I316J245D01*
G02X444352Y102911I1204J-811D01*
G03X443704Y102889I-316J-245D01*
G37*
G36*
G01X387351Y94145D02*
G02X385649I-851J-1645D01*
G03Y94855I-184J355D01*
G02X387351I851J1645D01*
G03Y94145I184J-355D01*
G37*
G36*
G01X414349Y50105D02*
G02X411649Y51645I-1849J-105D01*
G03Y52355I-184J355D01*
G02Y55645I851J1645D01*
G03Y56355I-184J355D01*
G02X414349Y57895I851J1645D01*
G03X414971Y57540I399J-23D01*
G02X417849Y56101I1029J-1540D01*
G03X418382Y55746I399J22D01*
G02Y52254I618J-1746D01*
G03X417849Y51899I-134J-377D01*
G02X414971Y50460I-1849J101D01*
G03X414349Y50105I-223J-332D01*
G37*
G54D44*
X519000Y179000D03*
G54D41*
X462500Y51500D03*
G54D38*
X398690Y213670D03*
X392670D03*
Y219690D03*
X398690D03*
Y225710D03*
X410730Y213670D03*
X404710D03*
X410730Y219690D03*
X404710D03*
X410730Y231730D03*
X404710D03*
X410730Y225710D03*
X404710D03*
X98169Y229000D03*
X99500Y244000D03*
X137859Y145481D03*
X139859Y148481D03*
X137859Y151481D03*
X135859Y148481D03*
G54D43*
X471500Y269000D03*
X495500D03*
G54D40*
X458000Y53500D03*
G54D33*
X17976Y30000D03*
X14827D03*
X30575Y30075D03*
X27425Y30000D03*
X24276D03*
X21126D03*
X79189Y36500D03*
X168000Y33000D03*
X175000Y48500D03*
X171536D03*
X177536Y51500D03*
X169464D03*
X166000D03*
X185500Y33000D03*
X192000Y33500D03*
X187000Y49000D03*
X183536D03*
X181000Y51500D03*
X231500Y49500D03*
X228038D03*
X226750Y62000D03*
X232350D03*
X238650D03*
X228036Y74500D03*
X231500D03*
X240000D03*
X255000Y49500D03*
X251538D03*
X244250Y62000D03*
X243464Y74500D03*
X251536D03*
X255000D03*
X263536D03*
X267000D03*
X273900Y62000D03*
X279600D03*
X286000D03*
X302500Y49000D03*
X290560Y74440D03*
X298434Y74434D03*
X302580Y74500D03*
X314580Y49000D03*
X318000D03*
X306000D03*
X307250Y62000D03*
X313300D03*
X319000D03*
X306000Y74500D03*
X329685Y49000D03*
X326265D03*
X325150Y62000D03*
X330800D03*
X352500Y63500D03*
X569500Y140000D03*
X566000D03*
X574000D03*
X577500D03*
X581500D03*
X585000D03*
X46505Y77495D03*
X37000Y146000D03*
X116000Y66500D03*
X152000Y83500D03*
X186250Y88079D03*
X223700Y153782D03*
X237150Y129650D03*
X230746Y164152D03*
Y173602D03*
X237045Y170452D03*
X237046Y173602D03*
X233896Y176752D03*
X241000Y166000D03*
X230746Y170452D03*
Y176751D03*
X240195Y173602D03*
X240196Y176752D03*
X237045D03*
X227595Y170452D03*
X233895Y173602D03*
X233896Y170452D03*
X230746Y189352D03*
Y192501D03*
X237046Y189352D03*
X233896Y183052D03*
X237045Y186202D03*
X240195Y183051D03*
X230746Y186202D03*
Y179902D03*
Y183051D03*
X233896Y179901D03*
X237046Y179902D03*
X240195D03*
X237046Y183051D03*
X240196Y192502D03*
X237046Y208251D03*
X240196Y195651D03*
X237046Y198802D03*
X240196Y201952D03*
X233896Y198802D03*
X237046Y214552D03*
X243050Y141800D03*
X257500Y157000D03*
X243000Y155350D03*
X243346Y173602D03*
X252796D03*
X245428Y165000D03*
X249645Y173602D03*
X255946Y176752D03*
Y170452D03*
X255945Y173602D03*
X252795Y176752D03*
X249646D03*
Y170452D03*
X252795D03*
X243345Y176752D03*
X249646Y186202D03*
Y183052D03*
X252796Y189352D03*
Y179902D03*
X249645Y189352D03*
X255945Y183051D03*
X252796D03*
X243345Y192502D03*
X255945Y189352D03*
X255946Y186202D03*
X243356Y183062D03*
X255945Y179902D03*
X249646Y179901D03*
X243345Y186202D03*
X249646Y192502D03*
X243345Y179901D03*
X252796Y208251D03*
X243345Y208252D03*
X252796Y198802D03*
X255946Y201952D03*
X255945Y195652D03*
X243346Y198802D03*
X249646Y195651D03*
Y201952D03*
X255941Y211397D03*
X252791Y214547D03*
X249636Y211392D03*
X243346Y214552D03*
X264500Y140200D03*
X269200D03*
Y146100D03*
X264500D03*
X270500Y155500D03*
X259096Y173602D03*
Y170452D03*
X262246D03*
X259096Y176752D03*
Y189351D03*
X262246Y183051D03*
X259096Y186202D03*
X262246Y179902D03*
X259096Y183052D03*
Y179901D03*
X262245Y186202D03*
X259096Y201952D03*
X262245D03*
X295500Y150900D03*
X380546Y159077D03*
X377000Y152000D03*
X380500Y154593D03*
X375936Y157532D03*
X376387Y168387D03*
X380000Y166000D03*
X375000Y173000D03*
X380192Y170356D03*
X382500Y191545D03*
X377350Y199150D03*
X390000Y185500D03*
X397092D03*
X393500D03*
X400628Y185594D03*
X399000Y192000D03*
X396000Y197000D03*
X392844Y201955D03*
X396780Y201280D03*
X388908Y201500D03*
X390000Y198000D03*
X408406Y185635D03*
X412649D03*
X404000Y185500D03*
X410556Y201556D03*
X423000Y206000D03*
X425500Y217500D03*
X447500Y227000D03*
X459000Y208000D03*
Y204500D03*
X451290Y218500D03*
X461116Y220571D03*
X464500Y220500D03*
X46150Y125850D03*
X65500Y122500D03*
X61500Y159000D03*
X71500Y170000D03*
Y195000D03*
X101000Y126000D03*
X87495Y239984D03*
X93500Y235262D03*
X87400Y244706D03*
X86000Y250200D03*
X108633Y218000D03*
X109071Y221489D03*
X100000Y219500D03*
X124681Y243160D03*
X128600Y251400D03*
X124300Y254282D03*
X125600Y250000D03*
X144000Y167500D03*
X145743Y189077D03*
X139379Y210432D03*
X139308Y215028D03*
X153366Y191158D03*
X150216Y184860D03*
Y181709D03*
X156516D03*
X153366Y184860D03*
Y188009D03*
X160168Y187522D03*
X153366Y194308D03*
X150216Y200608D03*
Y197458D03*
X153366Y200608D03*
X156516Y197458D03*
Y194307D03*
Y206906D03*
X153366Y206907D03*
Y197457D03*
Y219508D03*
X153365Y216358D03*
X153366Y210058D03*
X150216Y216356D03*
X156516Y216358D03*
X153366Y222657D03*
X160097Y222099D03*
X156545Y222682D03*
X148715Y211703D03*
X156516Y210057D03*
Y213207D03*
X149278Y225706D03*
X149300Y231604D03*
X156516Y228953D03*
X153366Y228956D03*
Y225807D03*
X154655Y233060D03*
X172266Y184861D03*
X175845Y181235D03*
X175416Y188007D03*
Y194306D03*
Y197455D03*
X172259Y203715D03*
X172266Y194306D03*
X175416Y200606D03*
X169007Y200320D03*
X165754Y199755D03*
X175417Y210057D03*
X175416Y222655D03*
X172259Y222665D03*
X175416Y219509D03*
X172266Y210057D03*
Y213205D03*
X175417Y216356D03*
X172224Y225882D03*
X175416Y228954D03*
Y225805D03*
X165966Y232070D03*
X172047Y232352D03*
X178566Y184857D03*
X178562Y203757D03*
X178566Y194305D03*
Y200605D03*
X178564Y219506D03*
X187745Y210432D03*
X178566Y210057D03*
X180391Y225761D03*
X180496Y232282D03*
X206000Y170500D03*
X208605Y224362D03*
X204645Y225635D03*
X206506Y253000D03*
X221296Y176751D03*
X218146Y170452D03*
Y176752D03*
X214996Y170452D03*
X211845D03*
X214995Y173602D03*
X214996Y176752D03*
X211846Y173602D03*
X221296Y192501D03*
X211846Y179902D03*
X218146Y179901D03*
X221296Y183051D03*
X214996Y186202D03*
X211845Y192502D03*
X211846Y183051D03*
X214995D03*
X218146Y192502D03*
X211845Y186202D03*
X218146D03*
X214995Y189352D03*
X211846D03*
X221296Y195652D03*
X224446Y208252D03*
X214995Y198802D03*
X221295Y201952D03*
X214996D03*
X218146Y198802D03*
X211846D03*
X224446Y201952D03*
X221296Y208251D03*
X214995Y195652D03*
X211845Y195651D03*
Y201952D03*
X218146D03*
Y208252D03*
X211846Y208251D03*
X221296Y198802D03*
X218146Y195651D03*
Y217702D03*
Y224002D03*
X224446Y217702D03*
Y220851D03*
X214995Y214552D03*
X211845Y211402D03*
X218146D03*
X221296Y214552D03*
X211845Y217702D03*
X214996D03*
X224446Y211402D03*
X221296D03*
X218146Y220851D03*
X211846Y214552D03*
X218146D03*
X214996Y211402D03*
X214995Y224001D03*
X211846D03*
X221296Y217701D03*
X224446Y227152D03*
X221296Y233451D03*
X224445Y230302D03*
X221296Y236602D03*
X214995Y239752D03*
X224446Y233452D03*
Y236601D03*
X211846Y240000D03*
X218146Y236601D03*
X221296Y230302D03*
X214996Y227152D03*
X211845D03*
Y236601D03*
X211846Y230302D03*
X218146Y227152D03*
X211845Y233452D03*
X218146D03*
X214995Y236602D03*
Y230302D03*
X218146Y239752D03*
X219282Y252434D03*
X216100Y252788D03*
X222727Y252400D03*
X211050Y252801D03*
X227595Y208252D03*
Y217702D03*
X230746Y220852D03*
X227595Y220851D03*
X233896Y224002D03*
X227595Y211402D03*
X240195Y224001D03*
X227595Y227152D03*
Y233452D03*
X237045Y227152D03*
X230746Y236602D03*
X227596Y230302D03*
X230746Y233451D03*
X240195Y230302D03*
X240196Y236601D03*
X233896D03*
X237046Y233451D03*
X233896Y233452D03*
X240196D03*
X230746Y230302D03*
X233896Y230301D03*
X227595Y236601D03*
X237046Y230302D03*
Y236602D03*
X230746Y227152D03*
X240196D03*
X255945Y224001D03*
X243345Y224002D03*
X252796Y224001D03*
X252845Y239801D03*
X249646Y236601D03*
X252795Y227152D03*
X243345Y236601D03*
Y233452D03*
X243346Y230302D03*
X255945Y233451D03*
X252795Y233452D03*
X255941Y227147D03*
X252795Y236601D03*
X243346Y227152D03*
X249646Y230302D03*
Y239752D03*
X255945Y236602D03*
X249646Y233452D03*
X255945Y230302D03*
X256000Y241500D03*
X271696Y176751D03*
Y186202D03*
Y192501D03*
Y183051D03*
Y189352D03*
Y179902D03*
Y195652D03*
X268545Y208252D03*
X271696Y198802D03*
X265396Y208252D03*
X271696Y201952D03*
Y208251D03*
X262241Y220847D03*
X265396Y220851D03*
X265391Y217697D03*
X262241D03*
X262246Y224001D03*
X268545Y220851D03*
X271696Y224001D03*
Y220852D03*
X268546Y224001D03*
X271696Y211402D03*
X265396D03*
X268545D03*
X265395Y214552D03*
X271696D03*
Y217701D03*
X259091Y223997D03*
X271696Y239752D03*
X265396Y227152D03*
X259096Y236601D03*
Y230301D03*
X268545Y227152D03*
X265396Y236601D03*
X268546Y230302D03*
X259096Y227152D03*
X268545Y233452D03*
X262246Y230302D03*
X265396Y233452D03*
X262241Y236597D03*
X262246Y239752D03*
X259096Y233453D03*
Y239752D03*
X265395D03*
X262246Y233451D03*
X268541Y239747D03*
X268545Y236601D03*
X265395Y230302D03*
X262241Y227147D03*
X281146Y176752D03*
X277995D03*
X274845Y173602D03*
X277996D03*
X274846Y176752D03*
X281145Y179902D03*
X277995Y186202D03*
X274846Y192502D03*
X281146D03*
X284273Y183075D03*
X274846Y186202D03*
X277996Y183051D03*
X281145D03*
X274846Y183052D03*
X277996Y189352D03*
X281145D03*
X274846Y189351D03*
X277996Y198802D03*
X274846Y201952D03*
X281145Y208251D03*
X274846Y208252D03*
Y198802D03*
X281145D03*
X277996Y195652D03*
X281146Y195651D03*
X277986Y205072D03*
X281137D03*
X274846Y195651D03*
X274845Y214552D03*
X281146Y211402D03*
X277995D03*
X281145Y224001D03*
X274846Y224002D03*
X281145Y220852D03*
X281146Y217702D03*
X274846Y211402D03*
X281145Y214552D03*
X274846Y220851D03*
X277996Y214552D03*
X277995Y217702D03*
X274846D03*
X277996Y224001D03*
X274865Y239752D03*
X281145D03*
X277995Y227152D03*
X281146Y233452D03*
X277996Y239752D03*
X274846Y230301D03*
X281146Y227152D03*
X274846Y233452D03*
X281146Y236601D03*
X281145Y230302D03*
X274846Y227152D03*
X277996Y236602D03*
Y230302D03*
X303404Y217003D03*
X296357Y213685D03*
X314704Y188380D03*
Y182081D03*
X317854Y191530D03*
X321003D03*
X317854Y185231D03*
Y194679D03*
X321003D03*
X314704Y197829D03*
X317854Y207278D03*
X321003D03*
X317853Y197829D03*
X321003D03*
X317854Y210429D03*
X311554Y210428D03*
X314703Y216728D03*
X311554Y213579D03*
X321003Y210429D03*
Y213579D03*
X314704Y226179D03*
X314502Y232678D03*
X321003Y226175D03*
X317854Y226178D03*
X321083Y229405D03*
X317810Y229302D03*
X336754Y185232D03*
X326479Y181865D03*
X337015Y181794D03*
X336754Y188381D03*
X324712Y190704D03*
X324994Y186885D03*
X336754Y191531D03*
Y194677D03*
X324194Y197641D03*
X336754Y219878D03*
Y213577D03*
Y210428D03*
Y216727D03*
Y223026D03*
Y226177D03*
Y229325D03*
X324283Y229271D03*
X336754Y232475D03*
X343054Y185228D03*
X339904Y188378D03*
X340228Y181755D03*
X352293Y206822D03*
X343053Y194677D03*
X339904D03*
X352333Y198244D03*
X339904Y197826D03*
Y210429D03*
X343054Y210428D03*
X339904Y223026D03*
Y219877D03*
Y216727D03*
X349506Y215006D03*
X343054Y226177D03*
X339904Y229325D03*
Y226176D03*
X143480Y255318D03*
X161158D03*
X154794D03*
X149985D03*
X178058Y255248D03*
X172896Y255177D03*
X166390Y255460D03*
X184351D03*
X254500Y262500D03*
X253000Y266000D03*
X256994D03*
X250100Y262500D03*
X263500Y253120D03*
X267200Y261500D03*
X271900Y260400D03*
X259500Y257000D03*
X281700Y260000D03*
X296600Y258100D03*
X290500Y263000D03*
X302000Y269000D03*
X297144Y276148D03*
X333500Y258000D03*
X332500Y268500D03*
X256000Y88500D03*
X368000Y117000D03*
X372500Y125500D03*
X380000Y123451D03*
X376500Y142072D03*
X380899Y144582D03*
Y137593D03*
X379000Y140103D03*
X398860Y132249D03*
X399213Y139673D03*
Y155937D03*
X417250Y131536D03*
X407345Y131542D03*
X411588D03*
X403810D03*
X414770Y163930D03*
X406285Y163715D03*
X429619Y131895D03*
X430326Y135431D03*
X430680Y142148D03*
X421487Y131542D03*
X426002Y131813D03*
X429729Y146634D03*
X430680Y156997D03*
X418332Y164068D03*
X421487D03*
X425023D03*
X425730Y181039D03*
X439500Y136500D03*
X441500Y144000D03*
Y140849D03*
X438542Y165500D03*
X441500Y173968D03*
X451000Y128450D03*
X450500Y139500D03*
Y144500D03*
X465500Y136500D03*
X468500Y180500D03*
X479000Y181500D03*
X472000Y178000D03*
X481500Y135000D03*
X484500Y130500D03*
X491000Y182000D03*
X484953Y181547D03*
X374500Y269500D03*
X395000D03*
X447000Y272500D03*
X462490Y105510D03*
X460800Y266600D03*
X465600Y266700D03*
X486000Y272000D03*
Y262500D03*
X498500Y224000D03*
X521176Y94150D03*
X514000Y92000D03*
X522000Y111150D03*
X528500Y122000D03*
X524000Y159500D03*
X518000Y213500D03*
X533500Y169000D03*
X537000Y206922D03*
X542200Y212500D03*
X538500Y215000D03*
X539500Y208890D03*
X537000Y210859D03*
X542000Y216000D03*
G54D37*
X32500Y135500D03*
X136000Y81265D03*
X70500Y111000D03*
Y121500D03*
Y132500D03*
X68000Y152000D03*
G54D36*
X250350Y62000D03*
X255950D03*
X262250D03*
X267850D03*
X87000Y227500D03*
G54D35*
X155720Y49220D03*
X33114Y62065D03*
X21571Y70596D03*
X32000Y165500D03*
X31000Y173000D03*
X24500Y175000D03*
X21000Y185564D03*
X24500Y178500D03*
X19500Y203500D03*
Y200000D03*
X46400Y66500D03*
X35300Y109592D03*
X39000Y109800D03*
X43000Y108300D03*
X43500Y116300D03*
X36000Y169500D03*
X41000Y194500D03*
X48000Y206500D03*
X64500Y87500D03*
X79000Y55000D03*
X69958Y93542D03*
X70000Y228500D03*
X69700Y236550D03*
X112500Y65500D03*
X122500Y74000D03*
X141500Y82500D03*
X176000Y84500D03*
X168200Y84868D03*
X170450Y91018D03*
X205500Y132000D03*
X217448Y112968D03*
X223800Y129300D03*
X211000Y128750D03*
X223800Y139700D03*
X215100Y135200D03*
Y144700D03*
X221250Y157750D03*
X241000Y84500D03*
X229013Y104468D03*
X227200Y129800D03*
X238946Y155054D03*
X235666Y146355D03*
X243000Y132000D03*
Y137000D03*
Y151500D03*
X256046Y160450D03*
X260000Y160500D03*
X271500Y160501D03*
X280500Y160415D03*
X291500Y151000D03*
X392500Y192000D03*
X407000Y196000D03*
X431000Y203000D03*
X426500D03*
X418500Y201000D03*
X423000Y209500D03*
X425200Y212100D03*
X430500Y225000D03*
X422600Y231556D03*
X437300Y203000D03*
X446500Y208500D03*
X441500D03*
X438250Y210250D03*
X438650Y225150D03*
X451500Y208500D03*
X477500Y203000D03*
X473000D03*
X467950Y223680D03*
X473000Y230500D03*
X482000Y193500D03*
Y203000D03*
Y208000D03*
Y198500D03*
X491500Y203000D03*
X486500D03*
X482000Y212000D03*
X486000Y230500D03*
X502000Y193500D03*
X46300Y137550D03*
X48900Y133000D03*
X43000Y180500D03*
X56750Y128750D03*
X60500Y122500D03*
X53308Y122708D03*
X63350Y130650D03*
X58047Y176900D03*
X61300Y179900D03*
X61000Y186000D03*
X51500Y179900D03*
X90500Y107000D03*
Y111000D03*
X92500Y143000D03*
X96441Y140100D03*
X107000Y135500D03*
X99000Y147500D03*
X106000Y151121D03*
X94350Y227650D03*
X94500Y244000D03*
X98400Y258500D03*
X107500Y251500D03*
X115000Y228500D03*
X117000Y250500D03*
X126000Y258000D03*
X128550Y142550D03*
X123650Y143250D03*
X116500Y132600D03*
X128900Y147400D03*
Y151400D03*
X138800Y112968D03*
X142800Y175600D03*
X143692Y234686D03*
X150365Y104468D03*
X151000Y170600D03*
X156700Y174200D03*
X164200Y108700D03*
X163800Y119518D03*
X181700Y157400D03*
X205000Y164500D03*
X202222Y241880D03*
X195250Y249750D03*
X226989Y246000D03*
X347500Y208500D03*
X188000Y255500D03*
X337000Y257800D03*
X261000Y105000D03*
X285150Y133000D03*
X288850Y132850D03*
X296148Y112968D03*
X307713Y104468D03*
X418689Y172798D03*
X430710Y177920D03*
X445645Y168000D03*
X441500Y163500D03*
Y168000D03*
X449200Y182800D03*
X450963Y123963D03*
X455000Y123500D03*
X457000Y136500D03*
X454500Y133500D03*
X463000Y145000D03*
X450663Y133663D03*
X460500Y134500D03*
X454000Y161500D03*
X456000Y168000D03*
X456200Y182900D03*
X474000Y128500D03*
X470001Y132999D03*
X472496Y145000D03*
X478500Y156500D03*
X467500Y165000D03*
X471500Y168000D03*
X475500D03*
X488800Y143350D03*
X495100Y130500D03*
X497250Y160000D03*
X488250D03*
X490500Y169500D03*
X486000D03*
X506500Y125000D03*
X498700Y135000D03*
X500500Y130350D03*
X506000Y160000D03*
X501800Y177500D03*
X399000Y100000D03*
X439500Y272500D03*
X434000D03*
X452000D03*
X457000D03*
X467000Y106500D03*
X476500Y107000D03*
X472000Y106800D03*
X476000Y265500D03*
X477553Y275553D03*
X486500Y85500D03*
X488500Y89000D03*
X494500Y105000D03*
X495311Y109500D03*
X488000Y106000D03*
X482000Y106500D03*
X495000Y116000D03*
X489500Y254500D03*
X490550Y242950D03*
X486000Y258000D03*
X504500Y73500D03*
X506000Y108740D03*
X513000Y118084D03*
X502500Y216000D03*
X507000Y221500D03*
X504350Y234150D03*
X504950Y252050D03*
X515700Y105500D03*
X524500Y106000D03*
X528000Y140500D03*
X521000Y147500D03*
X517000Y168500D03*
X524000Y165500D03*
Y189500D03*
X528000Y213500D03*
X525000Y216500D03*
X528000Y227500D03*
X535000Y103750D03*
X542500Y128000D03*
X532500Y155500D03*
X547000Y97150D03*
G54D34*
X159657Y30500D03*
G54D39*
X450000Y173000D03*
G54D32*
X108815Y32283D03*
G54D42*
X473630Y92554D03*
%LPD*%
G75*
G54D10*
X-12000Y32000D03*
X450000Y173000D03*
G54D11*
X-15000Y18500D03*
X-15400Y30100D03*
Y50100D03*
Y40100D03*
Y60100D03*
Y80100D03*
Y70100D03*
Y90100D03*
Y110100D03*
Y100100D03*
X-15300Y223500D03*
Y213500D03*
Y233500D03*
X-15400Y254000D03*
X-15300Y243500D03*
X-15400Y268500D03*
X-15300Y273500D03*
X1500Y14500D03*
X-8500D03*
X-7500Y123000D03*
X-10000Y115800D03*
X-4000Y115500D03*
X-7500Y143000D03*
Y133000D03*
Y153000D03*
Y173000D03*
Y163000D03*
Y193000D03*
Y183000D03*
X-3500Y193500D03*
X-500D03*
X2522Y208500D03*
X-8000Y203500D03*
X-2000Y196000D03*
X-3500Y283500D03*
X11500Y14500D03*
X9000Y119033D03*
X7800Y129264D03*
X10300Y125964D03*
X7800Y142464D03*
Y144964D03*
X11300Y142964D03*
X7800Y136964D03*
Y134464D03*
Y139464D03*
X11100Y145700D03*
X7800Y131764D03*
X11000Y159100D03*
Y156600D03*
Y168800D03*
X10500Y181000D03*
Y178500D03*
X4000Y187500D03*
X7000D03*
X5500Y190000D03*
X14500Y203500D03*
X14000Y283500D03*
X4000D03*
X21500Y14500D03*
X31500D03*
X33114Y62065D03*
X21571Y70596D03*
X32000Y165500D03*
X31000Y173000D03*
X24500Y175000D03*
X21000Y185564D03*
X22500Y193000D03*
X32500Y186500D03*
X24500Y178500D03*
X32500Y179500D03*
X32000Y200000D03*
Y202500D03*
X19500Y203500D03*
Y200000D03*
X22500Y195500D03*
Y198000D03*
X35000Y247000D03*
Y244500D03*
Y242000D03*
X34000Y283500D03*
X24000D03*
X41500Y14500D03*
X37000Y20000D03*
X41500D03*
X43500Y30000D03*
X40500D03*
X44500Y39500D03*
X39600Y41400D03*
X46400Y66500D03*
X46300Y107300D03*
X47900Y109200D03*
X35300Y109592D03*
X39000Y109800D03*
X43000Y108300D03*
X43500Y116300D03*
X49500Y139500D03*
X46300Y137550D03*
X48900Y133000D03*
X47500Y148500D03*
X50000D03*
X45000D03*
X40500Y146000D03*
X36000Y169500D03*
X39004Y173000D03*
X43000Y180500D03*
X41000Y194500D03*
X48000Y206500D03*
X41000Y198500D03*
Y201500D03*
X37250Y210250D03*
X51500Y14500D03*
X61500D03*
X60000Y20000D03*
X64500Y87500D03*
X56750Y128750D03*
X60500Y122500D03*
X53308Y122708D03*
X63350Y130650D03*
X54000Y156000D03*
X53000Y159000D03*
Y161500D03*
X54000Y149150D03*
Y152000D03*
X58047Y176900D03*
X61300Y179900D03*
X61000Y186000D03*
X51500Y179900D03*
X61000Y200000D03*
Y197000D03*
X65000Y215500D03*
Y218000D03*
X62500D03*
X60500Y251900D03*
Y263000D03*
X71500Y14500D03*
X81500D03*
X80000Y20000D03*
X79000Y55000D03*
X75300Y51500D03*
X69958Y93542D03*
X75000Y95500D03*
X67400Y99300D03*
X68500Y170000D03*
X71500Y181500D03*
X81500Y207000D03*
X67500Y200000D03*
Y197500D03*
X82500Y210000D03*
X81000Y225500D03*
X70000Y228500D03*
X69700Y236550D03*
X77800Y282000D03*
X69500Y275800D03*
X72000D03*
X82000D03*
X79500D03*
X91500Y14500D03*
X90000Y30000D03*
X95900Y50000D03*
X98000Y56500D03*
X90500Y107000D03*
Y111000D03*
X92500Y143000D03*
X96441Y140100D03*
X92000Y175000D03*
X97000Y167000D03*
X87500Y207000D03*
X91000D03*
X84000Y199500D03*
X84800Y217000D03*
X94350Y227650D03*
X94500Y244000D03*
X94000Y252000D03*
X96500D03*
X98400Y258500D03*
X88000Y258000D03*
X95350Y258500D03*
X92500Y275500D03*
X97300D03*
X87500D03*
X109000Y14500D03*
X99000D03*
X100000Y20000D03*
X112500Y65500D03*
X107500Y56500D03*
X102000Y71150D03*
X112500Y73500D03*
X105500Y105800D03*
X104000Y140500D03*
X107000D03*
Y135500D03*
X99000Y147500D03*
X100500Y158350D03*
X111000Y160150D03*
X110850Y152200D03*
X106000Y151121D03*
X103533Y207000D03*
X100000Y206500D03*
X108633Y207152D03*
X111050Y200450D03*
X101000Y202500D03*
X107500Y251500D03*
X108000Y279000D03*
X102500Y282000D03*
X108000Y282500D03*
X119000Y14500D03*
X120000Y20000D03*
X129000Y36500D03*
X125000D03*
X129000Y41000D03*
X125000D03*
X129000Y45000D03*
X125000D03*
X115000Y73500D03*
X122500Y74000D03*
X128550Y142550D03*
X123650Y143250D03*
X116500Y132600D03*
X121500Y157500D03*
X128900Y147400D03*
Y151400D03*
X121950Y200550D03*
X124900Y209900D03*
X129669Y214931D03*
X125000Y218000D03*
X121315Y218300D03*
X121355Y224500D03*
X115000Y228500D03*
X117000Y250500D03*
X126000Y258000D03*
X134500Y14500D03*
X133000Y36500D03*
Y41000D03*
Y45000D03*
X132000Y65500D03*
X133165Y71165D03*
X141500Y82500D03*
X138800Y112968D03*
X142800Y175600D03*
X143692Y234686D03*
X149000Y14500D03*
X159000D03*
X153000Y29000D03*
X160000Y20000D03*
X155720Y49220D03*
X150365Y104468D03*
X151000Y170600D03*
X156700Y174200D03*
X169000Y14500D03*
X170000Y30000D03*
X164000Y49000D03*
X176000Y84500D03*
X168200Y84868D03*
X170450Y91018D03*
X164200Y108700D03*
X163800Y119518D03*
X168500Y178000D03*
X179000Y14500D03*
X189000D03*
X180000Y20000D03*
X188500Y51500D03*
X184000Y52000D03*
X183500Y104500D03*
Y101500D03*
Y107500D03*
X181700Y157400D03*
X188000Y255500D03*
X204000Y15000D03*
X206500Y26000D03*
X197433Y26520D03*
X209000Y46000D03*
X206500Y36500D03*
X209500Y79800D03*
X205500Y132000D03*
X205000Y164500D03*
X202222Y241880D03*
X195250Y249750D03*
X219000Y46000D03*
X224500Y74500D03*
X217448Y112968D03*
X223800Y129300D03*
X211000Y128750D03*
X223800Y139700D03*
X222050Y144050D03*
X215100Y135200D03*
Y144700D03*
X221250Y157750D03*
X213696Y165672D03*
X226989Y246000D03*
X226217Y249611D03*
X239000Y46000D03*
X229000D03*
X241000Y84500D03*
X229013Y104468D03*
X227200Y129800D03*
X238946Y155054D03*
X235666Y146355D03*
X232858Y250089D03*
X257500Y46000D03*
X249000D03*
X252850Y81100D03*
X244000Y81000D03*
X243400Y108000D03*
X242448Y110568D03*
X243000Y132000D03*
Y137000D03*
Y151500D03*
X256046Y160450D03*
X249500Y283500D03*
X271500Y46500D03*
X272700Y74500D03*
X267000Y84900D03*
X261000Y105000D03*
X260000Y160500D03*
X271500Y160501D03*
X259500Y283500D03*
X287500Y46000D03*
X282500D03*
X284500Y75000D03*
X280800Y74500D03*
X285150Y133000D03*
X288850Y132850D03*
X280500Y160415D03*
X297500Y46000D03*
X294000Y64500D03*
X294500Y78700D03*
X296148Y112968D03*
X291550Y141000D03*
X291500Y151000D03*
X295435Y166500D03*
X299500D03*
X305000D03*
X295500Y254500D03*
X295100Y252400D03*
X299800Y282900D03*
X305000Y283500D03*
X322000Y48500D03*
X307500Y46000D03*
X321000D03*
X322056Y74444D03*
X321800Y107900D03*
X307713Y104468D03*
X321600Y110600D03*
X312000Y166500D03*
X318984Y266000D03*
X313079D03*
X315000Y283500D03*
X327500Y46000D03*
X337500D03*
X325500Y84244D03*
X327798Y91018D03*
X337000Y257800D03*
X324890Y266000D03*
X335000Y283500D03*
X325000D03*
X347500Y46000D03*
X349500Y63500D03*
X350500Y84500D03*
X353500D03*
X347500Y208500D03*
X348000Y223500D03*
X348500Y226500D03*
X352000Y277500D03*
X364500Y15500D03*
X362500Y29000D03*
Y21500D03*
X365000Y31500D03*
X368000D03*
X362500Y32500D03*
Y37000D03*
Y41000D03*
X357500Y46000D03*
X355500Y63500D03*
X358500D03*
X364300Y106800D03*
Y112300D03*
X362400Y114900D03*
X368300Y202500D03*
Y208000D03*
Y205000D03*
X357200Y203800D03*
X363750Y228850D03*
X359500Y238000D03*
X367500Y232500D03*
X355000Y252500D03*
X355500Y270000D03*
X370500Y14500D03*
X383000D03*
X377000D03*
X380000D03*
Y17000D03*
X383000D03*
X372500Y26500D03*
X376000Y20500D03*
Y24500D03*
X385500Y111500D03*
X371000Y102000D03*
X385000Y103700D03*
X383275Y115775D03*
X383000Y176000D03*
X385500Y178000D03*
X371000Y208000D03*
X382500Y201000D03*
X380694Y209118D03*
X380878Y211812D03*
X377500Y215000D03*
X372500Y219500D03*
X378000D03*
X370500Y215500D03*
X378000Y225500D03*
X379400Y228600D03*
X379544Y231556D03*
X377000Y250500D03*
X383000Y242000D03*
X384000Y248000D03*
X381000Y250000D03*
X380300Y271700D03*
X370800Y269500D03*
X372000Y258250D03*
X379900D03*
X377200Y269500D03*
X399000Y100000D03*
X389500Y100500D03*
X387000Y101500D03*
X389000Y104000D03*
X391500Y103000D03*
X392500Y192000D03*
X400748Y201696D03*
X394500Y244000D03*
X400000Y256000D03*
X401000Y244200D03*
X392000Y269500D03*
X401000Y283000D03*
X396000Y276500D03*
X417528Y114219D03*
X405743Y114243D03*
X416113Y171988D03*
X402600Y199600D03*
X407000Y196000D03*
X404900Y201700D03*
X402980Y246500D03*
X414500Y244000D03*
X411000Y248000D03*
X410700Y244200D03*
X406549Y246521D03*
X404720Y244056D03*
X411000Y283000D03*
X425350Y106350D03*
X431600Y105000D03*
X429124Y163927D03*
X418689Y172798D03*
X430710Y177920D03*
X420285Y183938D03*
X423000Y209500D03*
X433500Y195000D03*
X418500Y201000D03*
X426500Y203000D03*
X431000D03*
X428500Y194000D03*
X425200Y212100D03*
X430500Y225000D03*
X425080Y222000D03*
X422600Y231556D03*
X430500Y236000D03*
X430000Y252500D03*
Y242200D03*
X418000Y256000D03*
X431000Y283000D03*
X421000D03*
X447500Y15000D03*
Y22500D03*
Y29500D03*
Y35500D03*
Y41500D03*
Y47000D03*
X442500Y103700D03*
X445500Y103800D03*
X440500Y123500D03*
X438500Y125107D03*
X446150Y115350D03*
X441500Y168000D03*
Y163500D03*
X445645Y168000D03*
X449200Y182800D03*
X437000Y184500D03*
X446500Y208500D03*
X436000Y195000D03*
X434500Y197500D03*
X437300Y203000D03*
X441500Y208500D03*
X438250Y210250D03*
X438650Y225150D03*
X437000Y236500D03*
X443500Y236742D03*
X439500Y272500D03*
X434000D03*
X455000Y14500D03*
X464000D03*
X464500Y21000D03*
X455500D03*
X452500Y39500D03*
Y44000D03*
X462500Y51500D03*
X458000Y53500D03*
X450963Y123963D03*
X451850Y115550D03*
X451750Y119250D03*
X455000Y123500D03*
X457000Y136500D03*
X454500Y133500D03*
X463000Y145000D03*
X450663Y133663D03*
X460500Y134500D03*
X454000Y161500D03*
X456000Y168000D03*
X462700Y181000D03*
X461500Y190000D03*
X462500Y178000D03*
X456200Y182900D03*
X451500Y208500D03*
X461500Y196000D03*
X461508Y209580D03*
X452500Y195000D03*
X453000Y239500D03*
X451300Y253400D03*
X452000Y272500D03*
X457000D03*
X471000Y14500D03*
X479000D03*
X471500Y21000D03*
X478500D03*
X467000Y106500D03*
X476500Y107000D03*
X472000Y106800D03*
X474000Y128500D03*
X470001Y132999D03*
X472496Y145000D03*
X478500Y156500D03*
X470650Y153650D03*
X467500Y165000D03*
X471500Y168000D03*
X481500Y169500D03*
X475500Y168000D03*
X477500Y203000D03*
X473000D03*
X467950Y223680D03*
X473112Y223280D03*
X473000Y230500D03*
X478000Y258500D03*
X476000Y265500D03*
X477000Y283000D03*
X467000D03*
X477553Y275553D03*
X471500Y279000D03*
X489000Y14500D03*
X492500Y31500D03*
X488000Y32500D03*
X489000Y21000D03*
X482000Y30000D03*
X485000D03*
X488000D03*
X485000Y32500D03*
X482000D03*
Y35000D03*
X485000D03*
X488000D03*
X482000Y37500D03*
X485000D03*
X488000D03*
X482000Y63500D03*
X485000D03*
X488000D03*
X494000D03*
X491000D03*
X497000D03*
X486500Y85500D03*
X488500Y89000D03*
X494500Y105000D03*
X495311Y109500D03*
X488000Y106000D03*
X482000Y106500D03*
X495000Y116000D03*
X488800Y143350D03*
X495100Y130500D03*
X489000Y135000D03*
X497250Y160000D03*
X488250D03*
X490500Y169500D03*
X486000D03*
X496500D03*
X482000Y193500D03*
Y203000D03*
Y208000D03*
Y198500D03*
X491500Y203000D03*
X486500D03*
X482970Y223242D03*
X488860D03*
X482000Y212000D03*
X486000Y230500D03*
X489500Y254500D03*
X490550Y242950D03*
X486000Y258000D03*
X497000Y283000D03*
X487000D03*
X499000Y14500D03*
X509000D03*
X499500Y21000D03*
X502500Y64500D03*
X500000Y63500D03*
X504500Y73500D03*
X506000Y108740D03*
X513000Y124500D03*
X506500Y125000D03*
X513000Y118084D03*
X498000Y121000D03*
X498700Y135000D03*
X500500Y130350D03*
X506000Y160000D03*
X499500Y169500D03*
X501800Y177500D03*
X502000Y193500D03*
X504000Y190000D03*
X502000Y204000D03*
X502500Y216000D03*
X507000Y221500D03*
X504350Y234150D03*
X504950Y252050D03*
X507000Y283000D03*
X500700Y275700D03*
X529000Y15000D03*
X519000Y14500D03*
X515700Y105500D03*
X524500Y106000D03*
X522300Y114500D03*
Y117500D03*
X528000Y144000D03*
Y140500D03*
X521000Y147500D03*
X517000Y168500D03*
X524000Y165500D03*
X515500Y179000D03*
X514000Y184500D03*
Y187000D03*
X524000Y189500D03*
X519000Y179000D03*
X524000Y196000D03*
X525000Y216500D03*
X528000Y213500D03*
Y227500D03*
X517000Y283000D03*
X527000D03*
X533500Y20500D03*
Y32000D03*
Y49000D03*
Y59000D03*
X543000Y75500D03*
X536500Y72500D03*
X535000Y103750D03*
X542500Y128000D03*
X532500Y155500D03*
X537500Y192500D03*
Y190000D03*
Y187000D03*
Y184500D03*
Y182000D03*
Y202500D03*
Y195500D03*
Y198000D03*
Y200000D03*
X531500Y248000D03*
X541500D03*
X537000Y283000D03*
X561000Y75500D03*
X547000Y97150D03*
X559000Y91000D03*
X553000Y124500D03*
X559000Y128000D03*
X554000Y121500D03*
X557500Y118000D03*
X559000Y168000D03*
Y178000D03*
Y186000D03*
Y198000D03*
Y218000D03*
Y238000D03*
Y228000D03*
X551500Y248000D03*
X559000D03*
Y258000D03*
Y268000D03*
X547000Y283000D03*
X555000D03*
X559000Y278000D03*
X575000Y76000D03*
X563000Y140000D03*
X570000Y161500D03*
X562500Y164500D03*
X578000Y108500D03*
X581000Y125500D03*
X578000Y116000D03*
X589500Y129000D03*
X592500Y161362D03*
X583500Y161500D03*
X601500Y136000D03*
X600000Y130000D03*
X601500Y155000D03*
X597000Y161500D03*
G54D20*
X140957Y36996D03*
X198043D03*
G54D30*
G01X344500Y205946D02*
X342554Y204000D01*
X333000D01*
X329000Y208000D01*
Y217500D01*
X326621Y219879D01*
X317854D01*
G54D21*
X159657Y30500D03*
X179343D03*
G54D12*
X-13000Y262500D03*
Y265500D03*
X2000Y218000D03*
Y221000D03*
Y224000D03*
X-3500Y220500D03*
Y223500D03*
X-9500Y235500D03*
Y232500D03*
X-7500Y238500D03*
X-9500Y229500D03*
X-11000Y245500D03*
X-8000D03*
Y249000D03*
Y252000D03*
Y255000D03*
X2500Y271500D03*
Y268500D03*
X2000Y264500D03*
Y261500D03*
X2500Y274500D03*
X-4000Y275000D03*
Y278000D03*
X18000Y218000D03*
X15000D03*
X8000D03*
X5000D03*
X18500Y233500D03*
Y237000D03*
Y230000D03*
X6000Y253500D03*
Y257000D03*
X9000Y253500D03*
Y257000D03*
X8500Y274500D03*
X5500D03*
X11500D03*
X14500D03*
X17500D03*
X31000Y224500D03*
X21000Y218000D03*
X21500Y233500D03*
Y237000D03*
Y230000D03*
X31000Y231000D03*
Y228000D03*
X19500Y271000D03*
Y268000D03*
X29500Y269000D03*
Y266000D03*
X21000Y274500D03*
X75500Y267500D03*
X72500D03*
X79500D03*
X82500D03*
X74500Y282000D03*
X71500D03*
X96000Y267500D03*
Y264500D03*
X91500D03*
Y267500D03*
X123500Y273500D03*
X120500D03*
X123500Y277300D03*
X120500D03*
G54D31*
G01X-56417Y117705D02*
X-57666Y118635D01*
X-58292Y119720D01*
X-58500Y120960D01*
X-58083Y122510D01*
X-57042Y123595D01*
X-55792Y123905D01*
X-54541Y123750D01*
X-53500Y123130D01*
X-51417Y120030D01*
X-49958Y118635D01*
X-47875Y117705D01*
X-46000Y117395D01*
Y123905D01*
G01Y132740D02*
X-48708Y133050D01*
X-51000Y133515D01*
X-53083Y134135D01*
X-55375Y134910D01*
X-58500Y136150D01*
Y129950D01*
G01X-47875Y142040D02*
X-46833Y142970D01*
X-46208Y144055D01*
X-46000Y145450D01*
X-46417Y146845D01*
X-47250Y147930D01*
X-48708Y148705D01*
X-50375Y148860D01*
X-52042Y148550D01*
X-53083Y147775D01*
X-53917Y146690D01*
X-54125Y145605D01*
X-53917Y144520D01*
X-53083Y143125D01*
X-58500Y143590D01*
Y147775D01*
G01X-48500Y154440D02*
X-47041Y155370D01*
X-46208Y156610D01*
X-46000Y158005D01*
X-46208Y159245D01*
X-47250Y160485D01*
X-48500Y161260D01*
X-49750Y161415D01*
X-51208Y161105D01*
X-52250Y160020D01*
X-52667Y158935D01*
Y157540D01*
G01Y158935D02*
X-53292Y159865D01*
X-54333Y160640D01*
X-55583Y160950D01*
X-56833Y160640D01*
X-57875Y159865D01*
X-58500Y158470D01*
X-58292Y157075D01*
X-57458Y155680D01*
G01X-45583Y170250D02*
X-45792Y169940D01*
X-46208D01*
X-46417Y170250D01*
X-46208Y170560D01*
X-45792D01*
X-45583Y170250D01*
G01X-56417Y179705D02*
X-57666Y180635D01*
X-58292Y181720D01*
X-58500Y182960D01*
X-58083Y184510D01*
X-57042Y185595D01*
X-55792Y185905D01*
X-54541Y185750D01*
X-53500Y185130D01*
X-51417Y182030D01*
X-49958Y180635D01*
X-47875Y179705D01*
X-46000Y179395D01*
Y185905D01*
G01X-58500Y195050D02*
X-58083Y193810D01*
X-57042Y192880D01*
X-55792Y192260D01*
X-54125Y191795D01*
X-52250Y191640D01*
X-50375Y191795D01*
X-48708Y192260D01*
X-47458Y192880D01*
X-46417Y193810D01*
X-46000Y195050D01*
X-46417Y196290D01*
X-47458Y197220D01*
X-48708Y197840D01*
X-50375Y198305D01*
X-52250Y198460D01*
X-54125Y198305D01*
X-55792Y197840D01*
X-57042Y197220D01*
X-58083Y196290D01*
X-58500Y195050D01*
G01X-53208Y221705D02*
X-54667Y222790D01*
X-55500Y223720D01*
X-55917Y224960D01*
X-55500Y226045D01*
X-54667Y226820D01*
X-53417Y227440D01*
X-51958Y227595D01*
X-50708Y227440D01*
X-49458Y226820D01*
X-48417Y225890D01*
X-48000Y224805D01*
X-48417Y223565D01*
X-49666Y222480D01*
X-51542Y221860D01*
X-53625Y221705D01*
X-56333Y222015D01*
X-57792Y222480D01*
X-59250Y223255D01*
X-60292Y224340D01*
X-60500Y225425D01*
X-60083Y226510D01*
X-59042Y227285D01*
G01X-49458Y234415D02*
X-48417Y235500D01*
X-48000Y236740D01*
X-48417Y237980D01*
X-49666Y239065D01*
X-51542Y239840D01*
X-53417Y240150D01*
X-55708D01*
X-57583Y239840D01*
X-59250Y239065D01*
X-60083Y238135D01*
X-60500Y237050D01*
X-60083Y235810D01*
X-59250Y234880D01*
X-58000Y234260D01*
X-56333Y233950D01*
X-54875Y234260D01*
X-53417Y235035D01*
X-52583Y235965D01*
X-52375Y237050D01*
X-52791Y238290D01*
X-53833Y239220D01*
X-55708Y240150D01*
G01X-47583Y249450D02*
X-47792Y249140D01*
X-48208D01*
X-48417Y249450D01*
X-48208Y249760D01*
X-47792D01*
X-47583Y249450D01*
G01X-49458Y259215D02*
X-48417Y260300D01*
X-48000Y261540D01*
X-48417Y262780D01*
X-49666Y263865D01*
X-51542Y264640D01*
X-53417Y264950D01*
X-55708D01*
X-57583Y264640D01*
X-59250Y263865D01*
X-60083Y262935D01*
X-60500Y261850D01*
X-60083Y260610D01*
X-59250Y259680D01*
X-58000Y259060D01*
X-56333Y258750D01*
X-54875Y259060D01*
X-53417Y259835D01*
X-52583Y260765D01*
X-52375Y261850D01*
X-52791Y263090D01*
X-53833Y264020D01*
X-55708Y264950D01*
G01X-50500Y270840D02*
X-49041Y271770D01*
X-48208Y273010D01*
X-48000Y274405D01*
X-48208Y275645D01*
X-49250Y276885D01*
X-50500Y277660D01*
X-51750Y277815D01*
X-53208Y277505D01*
X-54250Y276420D01*
X-54667Y275335D01*
Y273940D01*
G01Y275335D02*
X-55292Y276265D01*
X-56333Y277040D01*
X-57583Y277350D01*
X-58833Y277040D01*
X-59875Y276265D01*
X-60500Y274870D01*
X-60292Y273475D01*
X-59458Y272080D01*
G01X-47750Y215600D02*
Y210950D01*
X-60250D01*
Y215600D01*
G01X-47750Y283800D02*
Y288450D01*
X-60250D01*
Y283800D01*
G01X27602Y11341D02*
X-44000D01*
G01X-34000Y150375D02*
Y11341D01*
G01X-36500Y26341D02*
X-34000Y11341D01*
X-31500Y26341D01*
X-36500D01*
G01X-34000Y181625D02*
Y286661D01*
G01X-31500Y271661D02*
X-34000Y286661D01*
X-36500Y271661D01*
X-31500D01*
G01X-17789Y286661D02*
X-44000D01*
G01X-18492Y19215D02*
G03X-10618Y11341I7874J0D01*
G01X-18492Y111535D02*
Y19215D01*
G01X-12924Y117103D02*
X-18492Y111535D01*
G01Y210354D02*
X-12924Y204787D01*
G01X-18492Y278787D02*
Y210354D01*
G01Y230174D02*
Y320000D01*
G01X-10618Y286661D02*
G03X-18492Y278787I0J-7874D01*
G01X195975Y310000D02*
X-18492D01*
G01X-3492Y312500D02*
X-18492Y310000D01*
X-3492Y307500D01*
Y312500D01*
G01X-10618Y11341D02*
X201977D01*
G01X-12924Y117103D02*
G03X-10618Y122671I-5568J5568D01*
G01D02*
Y199219D01*
G01D02*
G03X-12924Y204787I-7874J0D01*
G01X554340Y286661D02*
X-10618D01*
G01X201977Y11341D02*
G03X209851Y19215I0J7874D01*
G01X207055Y308958D02*
X208140Y310417D01*
X209070Y311250D01*
X210310Y311667D01*
X211395Y311250D01*
X212170Y310417D01*
X212790Y309167D01*
X212945Y307708D01*
X212790Y306458D01*
X212170Y305208D01*
X211240Y304167D01*
X210155Y303750D01*
X208915Y304167D01*
X207830Y305416D01*
X207210Y307292D01*
X207055Y309375D01*
X207365Y312083D01*
X207830Y313542D01*
X208605Y315000D01*
X209690Y316042D01*
X210775Y316250D01*
X211860Y315833D01*
X212635Y314792D01*
G01X219455Y314167D02*
X220385Y315416D01*
X221470Y316042D01*
X222710Y316250D01*
X224260Y315833D01*
X225345Y314792D01*
X225655Y313542D01*
X225500Y312291D01*
X224880Y311250D01*
X221780Y309167D01*
X220385Y307708D01*
X219455Y305625D01*
X219145Y303750D01*
X225655D01*
G01X231390Y306250D02*
X232320Y304791D01*
X233560Y303958D01*
X234955Y303750D01*
X236195Y303958D01*
X237435Y305000D01*
X238210Y306250D01*
X238365Y307500D01*
X238055Y308958D01*
X236970Y310000D01*
X235885Y310417D01*
X234490D01*
G01X235885D02*
X236815Y311042D01*
X237590Y312083D01*
X237900Y313333D01*
X237590Y314583D01*
X236815Y315625D01*
X235420Y316250D01*
X234025Y316042D01*
X232630Y315208D01*
G01X243790Y306250D02*
X244720Y304791D01*
X245960Y303958D01*
X247355Y303750D01*
X248595Y303958D01*
X249835Y305000D01*
X250610Y306250D01*
X250765Y307500D01*
X250455Y308958D01*
X249370Y310000D01*
X248285Y310417D01*
X246890D01*
G01X248285D02*
X249215Y311042D01*
X249990Y312083D01*
X250300Y313333D01*
X249990Y314583D01*
X249215Y315625D01*
X247820Y316250D01*
X246425Y316042D01*
X245030Y315208D01*
G01X259600Y303333D02*
X259290Y303542D01*
Y303958D01*
X259600Y304167D01*
X259910Y303958D01*
Y303542D01*
X259600Y303333D01*
G01X272000Y316250D02*
X270760Y315833D01*
X269830Y314792D01*
X269210Y313542D01*
X268745Y311875D01*
X268590Y310000D01*
X268745Y308125D01*
X269210Y306458D01*
X269830Y305208D01*
X270760Y304167D01*
X272000Y303750D01*
X273240Y304167D01*
X274170Y305208D01*
X274790Y306458D01*
X275255Y308125D01*
X275410Y310000D01*
X275255Y311875D01*
X274790Y313542D01*
X274170Y314792D01*
X273240Y315833D01*
X272000Y316250D01*
G01X286260Y303750D02*
Y316250D01*
X280525Y307292D01*
X288275D01*
G01X209851Y42837D02*
Y19215D01*
G01X359457Y42837D02*
X209851D01*
G01X318700Y303750D02*
Y316250D01*
X316840Y313750D01*
G01Y303750D02*
X320560D01*
G01X327690Y305625D02*
X328620Y304583D01*
X329705Y303958D01*
X331100Y303750D01*
X332495Y304167D01*
X333580Y305000D01*
X334355Y306458D01*
X334510Y308125D01*
X334200Y309792D01*
X333425Y310833D01*
X332340Y311667D01*
X331255Y311875D01*
X330170Y311667D01*
X328775Y310833D01*
X329240Y316250D01*
X333425D01*
G01X343500Y303750D02*
X344585Y303958D01*
X345825Y304583D01*
X346600Y305625D01*
X346910Y307083D01*
X346600Y308541D01*
X345670Y309792D01*
X344275Y310417D01*
X342725D01*
X341795Y310833D01*
X341020Y311875D01*
X340710Y313333D01*
X341175Y314792D01*
X342260Y315833D01*
X343500Y316250D01*
X344740Y315833D01*
X345825Y314792D01*
X346290Y313333D01*
X345980Y311875D01*
X345205Y310833D01*
X344275Y310417D01*
X342725D01*
X341330Y309792D01*
X340400Y308541D01*
X340090Y307083D01*
X340400Y305625D01*
X341175Y304583D01*
X342415Y303958D01*
X343500Y303750D01*
G01X355900Y303333D02*
X355590Y303542D01*
Y303958D01*
X355900Y304167D01*
X356210Y303958D01*
Y303542D01*
X355900Y303333D01*
G01X364890Y306250D02*
X365820Y304791D01*
X367060Y303958D01*
X368455Y303750D01*
X369695Y303958D01*
X370935Y305000D01*
X371710Y306250D01*
X371865Y307500D01*
X371555Y308958D01*
X370470Y310000D01*
X369385Y310417D01*
X367990D01*
G01X369385D02*
X370315Y311042D01*
X371090Y312083D01*
X371400Y313333D01*
X371090Y314583D01*
X370315Y315625D01*
X368920Y316250D01*
X367525Y316042D01*
X366130Y315208D01*
G01X377755Y314167D02*
X378685Y315416D01*
X379770Y316042D01*
X381010Y316250D01*
X382560Y315833D01*
X383645Y314792D01*
X383955Y313542D01*
X383800Y312291D01*
X383180Y311250D01*
X380080Y309167D01*
X378685Y307708D01*
X377755Y305625D01*
X377445Y303750D01*
X383955D01*
G01X309400D02*
X304750D01*
Y316250D01*
X309400D01*
G01X367331Y11341D02*
X528828D01*
G01X359457Y19215D02*
G03X367331Y11341I7874J0D01*
G01X359457Y19215D02*
Y42837D01*
G01X390000Y303750D02*
X394650D01*
Y316250D01*
X390000D01*
G01X404025Y310000D02*
X604812D01*
G01X528828Y11341D02*
G03X536702Y19215I0J7874D01*
G01D02*
Y64490D01*
G01X544576Y72364D02*
G03X536702Y64490I0J-7874D01*
G01X544576Y72364D02*
X573316D01*
G01X562214Y278787D02*
G03X554340Y286661I-7874J0D01*
G01X573316Y72364D02*
G03X581190Y80238I0J7874D01*
G01X596938Y164803D02*
X570088D01*
G01X562214Y278787D02*
Y172677D01*
G01D02*
G03X570088Y164803I7874J0D01*
G01X581190Y117640D02*
Y80238D01*
G01X589064Y125514D02*
G03X581190Y117640I0J-7874D01*
G01X596938Y125514D02*
X589064D01*
G01X589812Y307500D02*
X604812Y310000D01*
X589812Y312500D01*
Y307500D01*
G01X596938Y125514D02*
G03X604812Y133388I0J7874D01*
G01D02*
Y156929D01*
G01D02*
G03X596938Y164803I-7874J0D01*
G01X604812Y158023D02*
Y320000D01*
G54D22*
X272500Y274100D03*
G54D13*
X-2000Y59000D03*
X2000Y63000D03*
X-2000D03*
X-6000Y61000D03*
X2000Y59000D03*
X-5000Y86000D03*
X-9000D03*
X-5000Y94000D03*
X-9000D03*
X-5000Y90000D03*
X-9000D03*
X2500Y87000D03*
X6000D03*
X9500D03*
X7000Y91000D03*
X3000D03*
X32500Y135500D03*
X21000Y134000D03*
X25000D03*
X36500Y137000D03*
X36900Y133300D03*
X61000Y59500D03*
X64500D03*
X61350Y110000D03*
X61096Y113300D03*
X60400Y104300D03*
X59421Y116028D03*
X68000Y59500D03*
X70500Y111000D03*
Y121500D03*
Y132500D03*
X68000Y152000D03*
X76000Y175000D03*
X79000Y173500D03*
Y177000D03*
X78000Y193500D03*
X80000Y196600D03*
X76000D03*
X91000Y36000D03*
X102811D03*
X113500Y87500D03*
X110000D03*
Y91000D03*
X113500D03*
X110500Y97000D03*
X113500D03*
X107000Y113000D03*
X110500Y100500D03*
X113500Y100000D03*
X110500Y104000D03*
X114000Y123668D03*
X107000Y116500D03*
Y120000D03*
X127500Y81500D03*
X123000Y87500D03*
X117400Y123668D03*
X120600D03*
X127800Y131500D03*
X127500Y159900D03*
X127400Y163000D03*
X121000Y171000D03*
X121100Y174400D03*
X131000Y81500D03*
X136000Y81265D03*
X130900Y131500D03*
X143200Y171100D03*
X139400Y172600D03*
X136000Y190000D03*
X136500Y193000D03*
X133500Y194196D03*
X157800Y166600D03*
X154400Y166700D03*
X177900Y143400D03*
X182000Y89500D03*
Y93000D03*
X178500D03*
Y89500D03*
X189000Y86000D03*
X192000Y84000D03*
Y88000D03*
X191948Y97368D03*
X189000Y96500D03*
X192048Y100568D03*
X189000Y99500D03*
Y102500D03*
X189748Y117168D03*
X190500Y124000D03*
X189748Y120568D03*
X194000Y124000D03*
X179800Y140500D03*
X180200Y151300D03*
X178600Y148700D03*
X199500Y84000D03*
X195500D03*
X197500Y124000D03*
X255000Y93000D03*
X258000D03*
X260000Y89500D03*
X261200Y93045D03*
X271000Y89000D03*
X270500Y85000D03*
X267500Y89000D03*
X270548Y94068D03*
X267848Y95668D03*
X270648Y97368D03*
X267848Y99068D03*
X270748Y100568D03*
X268100Y123600D03*
X268574Y120200D03*
X271348Y123668D03*
X277500Y85000D03*
X274000D03*
X274748Y123668D03*
X277948D03*
X336000Y85500D03*
Y92500D03*
Y89000D03*
X339500Y85500D03*
Y89000D03*
Y92500D03*
X363000Y63500D03*
X366500D03*
X359163Y83500D03*
X398000Y15500D03*
X391500D03*
X390000Y48500D03*
Y52500D03*
X393500Y55500D03*
X397000Y52000D03*
Y55500D03*
X393500Y51000D03*
X386500Y92500D03*
Y96500D03*
X411000Y15500D03*
X405500D03*
X416000Y20500D03*
X411000D03*
X416000Y52000D03*
Y56000D03*
X412500Y50000D03*
Y58000D03*
Y54000D03*
X417000Y69000D03*
X426500Y16500D03*
X421000Y20500D03*
X426500D03*
X419000Y54000D03*
X424000Y69000D03*
X420500D03*
X420639Y181039D03*
X478500Y55000D03*
X475000D03*
Y58500D03*
X478500D03*
X482000Y55000D03*
Y58500D03*
X511000Y65500D03*
X507500D03*
Y69000D03*
X511000D03*
X515500Y28500D03*
X519000D03*
X522500D03*
X526000D03*
X514500Y66500D03*
Y70000D03*
X529500Y28500D03*
X554500Y79500D03*
X551000D03*
X547000D03*
X554500Y83000D03*
X551000D03*
X547000D03*
G54D14*
X14827Y30000D03*
X17976D03*
X7000Y110500D03*
X11500Y104000D03*
Y101500D03*
X13500Y103000D03*
X11000Y174500D03*
X10500Y184000D03*
X21126Y30000D03*
X24276D03*
X27425D03*
X30575Y30075D03*
X21000Y171500D03*
Y169000D03*
X26500Y182000D03*
Y185000D03*
X21700Y265500D03*
X49358Y47500D03*
X46505Y77495D03*
X46150Y125850D03*
X37000Y146000D03*
X35500Y208000D03*
X65500Y122500D03*
X51850Y137500D03*
X61500Y159000D03*
X60000Y205500D03*
X59500Y218000D03*
X62500Y209500D03*
X60000Y209000D03*
Y212036D03*
Y215000D03*
Y221500D03*
Y224000D03*
Y235000D03*
Y230000D03*
Y232500D03*
Y237500D03*
Y240000D03*
X54200Y254500D03*
X65500Y256200D03*
X60500Y254500D03*
X52000Y265800D03*
X54200Y264500D03*
Y267000D03*
Y257000D03*
X60500D03*
X66000Y262500D03*
Y272000D03*
X63500D03*
X51800Y275800D03*
X54200Y274500D03*
Y277000D03*
X60500D03*
Y274500D03*
X79189Y36500D03*
X81500Y51500D03*
X78000D03*
X77500Y87500D03*
X71500Y170000D03*
Y184500D03*
Y191500D03*
Y188500D03*
Y195000D03*
X77500Y255500D03*
X75000D03*
X68000Y256200D03*
X75000Y262500D03*
X68500D03*
X77500D03*
X80500Y282000D03*
X89500Y50000D03*
X92000D03*
X82500Y100000D03*
X95000Y178000D03*
X84000Y202500D03*
X84500Y207000D03*
X94533Y217400D03*
X87500Y217000D03*
X90100Y217100D03*
X87000Y227500D03*
X87495Y239984D03*
X93500Y235262D03*
X87000Y235000D03*
Y230000D03*
X87400Y244706D03*
X86000Y250200D03*
X90700Y258000D03*
X90500Y282000D03*
X93000D03*
X95500D03*
X83000D03*
X98000D03*
X88000D03*
X85500D03*
X104500Y56500D03*
X101000D03*
X103500Y79500D03*
X105500Y78500D03*
X105498Y80501D03*
X105000Y71150D03*
X101000Y126000D03*
X104900Y188600D03*
X108400D03*
X101400D03*
X104900Y191100D03*
Y186100D03*
X111000Y182500D03*
X101100Y199100D03*
X98450Y200450D03*
X108633Y218000D03*
X109071Y221489D03*
X113500Y216500D03*
X103500Y217100D03*
X100000Y219500D03*
X104300Y221300D03*
X105500Y218900D03*
X105600Y266500D03*
X108000D03*
X106000Y261000D03*
X103500D03*
X100600D03*
X112000Y263500D03*
X110000Y265000D03*
X105895Y258500D03*
X107700Y263000D03*
X100600Y266500D03*
X103100D03*
X99500Y274000D03*
X104700D03*
X102700Y275600D03*
X116000Y66500D03*
X125300Y205300D03*
X117000Y221500D03*
X124957Y224143D03*
X114200Y221500D03*
X128500Y227233D03*
X127338Y235453D03*
X128500Y230545D03*
X124800Y236882D03*
X125584Y227316D03*
X124681Y243160D03*
X128000Y242000D03*
X128600Y251400D03*
X129200Y245600D03*
X124300Y254282D03*
X125600Y250000D03*
X128912Y248119D03*
X120000Y263500D03*
X114000Y265000D03*
X122000Y265500D03*
X118000Y265000D03*
X123910Y263590D03*
X116000Y263500D03*
X144000Y167500D03*
X145743Y189077D03*
X139379Y210432D03*
X139308Y215028D03*
X142844Y230906D03*
X130500Y234000D03*
Y237000D03*
X131500Y240300D03*
X143480Y255318D03*
X159000Y58500D03*
X156500D03*
X149500Y58000D03*
X152500Y58500D03*
X152000Y83500D03*
X160352Y81648D03*
X153366Y181710D03*
X150216Y188008D03*
Y191159D03*
X161653Y193108D03*
X153366Y191158D03*
X150216Y184860D03*
Y181709D03*
X156516D03*
X153366Y184860D03*
X156516Y191158D03*
X153366Y188009D03*
X159584Y191076D03*
X160168Y187522D03*
X150216Y206906D03*
X156516Y200608D03*
X150216Y194307D03*
X153366Y194308D03*
X150216Y200608D03*
Y197458D03*
X153366Y200608D03*
X156516Y197458D03*
Y194307D03*
Y206906D03*
X153366Y206907D03*
Y197457D03*
Y219508D03*
X153365Y216358D03*
X153366Y213207D03*
X150216Y222658D03*
X153366Y210058D03*
X150216Y216356D03*
X156516Y216358D03*
X153366Y222657D03*
X160097Y222099D03*
X156545Y222682D03*
X148715Y211703D03*
X156516Y210057D03*
Y213207D03*
X149349Y228605D03*
X149278Y225706D03*
X149300Y231604D03*
X156516Y228953D03*
X153366Y228956D03*
Y225807D03*
X154655Y233060D03*
X146662Y248943D03*
X157976Y248884D03*
X161158Y255318D03*
X154794D03*
X149985D03*
X175000Y33000D03*
X168000D03*
X172500D03*
X175000Y48500D03*
X171536D03*
X177536Y51500D03*
X169464D03*
X166000D03*
X166500Y79500D03*
X175417Y184857D03*
Y191156D03*
X172266Y184861D03*
X175845Y181235D03*
X171623Y177905D03*
X172331Y191200D03*
X172177Y188102D03*
X175416Y188007D03*
X175414Y203758D03*
X175416Y194306D03*
Y197455D03*
X172259Y203715D03*
X172266Y194306D03*
X175416Y200606D03*
X169007Y200320D03*
X165754Y199755D03*
X175416Y213205D03*
X175417Y210057D03*
X175416Y222655D03*
X172259Y222665D03*
X168314Y220276D03*
X175416Y219509D03*
X166107Y218352D03*
X172266Y210057D03*
Y213205D03*
X175417Y216356D03*
X172224Y225882D03*
X175416Y228954D03*
Y225805D03*
X165966Y232070D03*
X172047Y232352D03*
X169643Y248813D03*
X178058Y255248D03*
X172896Y255177D03*
X166390Y255460D03*
X185500Y33000D03*
X192000Y33500D03*
X187000Y49000D03*
X183536D03*
X181000Y51500D03*
X186250Y88079D03*
X178566Y181707D03*
Y188006D03*
Y184857D03*
X178562Y203757D03*
X178566Y197455D03*
Y194305D03*
Y200605D03*
X178562Y222653D03*
X178564Y219506D03*
X187745Y210432D03*
X178566Y210057D03*
X180496Y228903D03*
X180391Y225761D03*
X180496Y232282D03*
X186500Y232500D03*
Y235000D03*
X181240Y248802D03*
X184351Y255460D03*
X206000Y170500D03*
X208605Y224362D03*
X204645Y225635D03*
X206506Y253000D03*
X197500D03*
X206506Y264000D03*
X209016Y262000D03*
X221500Y147000D03*
X224700Y147500D03*
X223700Y150318D03*
Y153782D03*
X221296Y176751D03*
X218146Y170452D03*
Y176752D03*
X214996Y170452D03*
X218146Y173602D03*
X224445D03*
X211845Y170452D03*
X214995Y173602D03*
X214996Y176752D03*
X224446D03*
X211846Y173602D03*
X224446Y170452D03*
X221296Y192501D03*
X211846Y179902D03*
X218146Y179901D03*
X224446Y186202D03*
Y179901D03*
X214995Y192501D03*
Y179902D03*
X224446Y192502D03*
X221296Y183051D03*
X214996Y186202D03*
X211845Y192502D03*
X211846Y183051D03*
X214995D03*
X218146Y192502D03*
X211845Y186202D03*
X218146D03*
X214995Y189352D03*
X211846D03*
X221296Y195652D03*
X224445Y198802D03*
X215018Y208226D03*
X224446Y208252D03*
X214995Y198802D03*
X221295Y201952D03*
X214996D03*
X218146Y198802D03*
X211846D03*
X224446Y201952D03*
X221296Y208251D03*
X214995Y195652D03*
X211845Y195651D03*
Y201952D03*
X218146D03*
Y208252D03*
X211846Y208251D03*
X221296Y198802D03*
X218146Y195651D03*
Y217702D03*
Y224002D03*
X224446Y217702D03*
X221296Y224001D03*
X224445Y214552D03*
X214995Y220852D03*
X224446Y220851D03*
X214995Y214552D03*
X211845Y211402D03*
X218146D03*
X221296Y214552D03*
X211845Y217702D03*
X214996D03*
X224446Y211402D03*
X221296D03*
X218146Y220851D03*
X211846Y214552D03*
X218146D03*
X214996Y211402D03*
X214995Y224001D03*
X211846D03*
X221296Y217701D03*
X224446Y227152D03*
X221296Y233451D03*
X224445Y230302D03*
X221296Y236602D03*
X214995Y239752D03*
X224446Y233452D03*
X214995Y233451D03*
X224446Y236601D03*
X211846Y240000D03*
X218146Y236601D03*
X221296Y230302D03*
X214996Y227152D03*
X211845D03*
Y236601D03*
X211846Y230302D03*
X218146Y227152D03*
X211845Y233452D03*
X218146D03*
X214995Y236602D03*
Y230302D03*
X218146Y239752D03*
X219282Y252434D03*
X216100Y252788D03*
X222727Y252400D03*
X211050Y252801D03*
X210984Y264000D03*
X220000Y262000D03*
X213494D03*
X221984Y264000D03*
X217506D03*
X224494Y262000D03*
X239538Y49500D03*
X231500D03*
X228038D03*
X226750Y62000D03*
X232350D03*
X238650D03*
X228036Y74500D03*
X231500D03*
X240000D03*
X237150Y129650D03*
X230746Y164152D03*
Y173602D03*
X237045Y170452D03*
X237046Y173602D03*
X233896Y176752D03*
X241000Y166000D03*
X230746Y170452D03*
Y176751D03*
X240195Y173602D03*
X240196Y176752D03*
X237045D03*
X227595Y170452D03*
X227596Y173602D03*
X233895D03*
X233896Y170452D03*
X230746Y189352D03*
Y192501D03*
X227595Y186202D03*
X237046Y189352D03*
X233896Y183052D03*
X237045Y186202D03*
X240195Y183051D03*
X230746Y186202D03*
Y179902D03*
Y183051D03*
X233896Y179901D03*
X237046Y179902D03*
X240195D03*
X237046Y183051D03*
X240196Y192502D03*
X227596Y183051D03*
X227595Y192502D03*
Y179901D03*
Y195651D03*
X233896Y201952D03*
X227595Y208252D03*
X237046Y195652D03*
X240195Y208251D03*
X237045Y201952D03*
X240195Y198802D03*
X230746Y208251D03*
X237046D03*
X240196Y195651D03*
X237046Y198802D03*
X240196Y201952D03*
X227595D03*
X233896Y198802D03*
Y208252D03*
X227595Y217702D03*
X230746Y211402D03*
Y220852D03*
X233901Y220847D03*
X227595Y220851D03*
X240196Y217702D03*
X240195Y220852D03*
X240201Y214547D03*
X237045Y211402D03*
X233895Y214552D03*
X227596Y224001D03*
X233896Y224002D03*
X237046Y214552D03*
X230746Y217701D03*
X227595Y211402D03*
X230746Y214552D03*
X237045Y217702D03*
X240195Y224001D03*
X227595Y227152D03*
Y233452D03*
X237045Y227152D03*
X230746Y236602D03*
X227596Y230302D03*
X230746Y233451D03*
X240195Y230302D03*
X240196Y236601D03*
X233896D03*
X237046Y233451D03*
X233896Y233452D03*
X240196D03*
X230746Y230302D03*
X233896Y230301D03*
X227595Y236601D03*
X237046Y230302D03*
Y236602D03*
X230746Y227152D03*
X240196D03*
X228474Y251500D03*
X233604Y252829D03*
X241202Y252434D03*
X238374D03*
X226483Y253013D03*
X232995Y264008D03*
X231000Y262500D03*
X235494D03*
X228506Y264000D03*
X239506D03*
X255000Y49500D03*
X251538D03*
X243000D03*
X244250Y62000D03*
X250350D03*
X255950D03*
X243464Y74500D03*
X251536D03*
X255000D03*
X249000Y91500D03*
X256000Y88500D03*
X243050Y141800D03*
X257500Y157000D03*
X243000Y155350D03*
X243346Y173602D03*
X252796D03*
X245428Y165000D03*
X249645Y173602D03*
X255946Y176752D03*
Y170452D03*
X255945Y173602D03*
X252795Y176752D03*
X249646D03*
Y170452D03*
X252795D03*
X243345Y176752D03*
X249646Y186202D03*
Y183052D03*
X252796Y189352D03*
X255945Y192501D03*
X252796Y179902D03*
X249645Y189352D03*
X255945Y183051D03*
X252796D03*
X243345Y192502D03*
X255945Y189352D03*
X255946Y186202D03*
X243356Y183062D03*
X255945Y179902D03*
X249646Y179901D03*
X243345Y186202D03*
X249646Y192502D03*
X243345Y179901D03*
X249636Y208242D03*
X249645Y198802D03*
X243345Y195651D03*
Y201952D03*
X255945Y198802D03*
X252795Y201952D03*
Y195651D03*
X255945Y208251D03*
X252796D03*
X243345Y208252D03*
X252796Y198802D03*
X255946Y201952D03*
X255945Y195652D03*
X243346Y198802D03*
X249646Y195651D03*
Y201952D03*
Y217702D03*
X252795D03*
X249645Y214552D03*
X255945D03*
X243345Y211402D03*
X252795D03*
X255945Y220852D03*
Y224001D03*
X243345Y220851D03*
X255941Y211397D03*
X252791Y214547D03*
X249636Y211392D03*
X243346Y214552D03*
X249646Y220851D03*
X243345Y224002D03*
X252796Y224001D03*
X252845Y239801D03*
X249646Y236601D03*
X252795Y227152D03*
X243345Y236601D03*
Y233452D03*
X243346Y230302D03*
X255945Y233451D03*
X252795Y233452D03*
X255941Y227147D03*
X252795Y236601D03*
X243346Y227152D03*
X249646Y230302D03*
Y239752D03*
X255945Y236602D03*
X249646Y233452D03*
X255945Y230302D03*
X255694Y252827D03*
X244210Y252788D03*
X252162Y252829D03*
X248909Y252865D03*
X251000Y250500D03*
X256000Y241500D03*
X254500Y262500D03*
X253000Y266000D03*
X242016Y262540D03*
X256994Y266000D03*
X250100Y262500D03*
X246500Y262540D03*
X244024Y264030D03*
X267000Y47500D03*
X263538D03*
X262250Y62000D03*
X267850D03*
X263536Y74500D03*
X267000D03*
X264500Y140200D03*
X269200D03*
Y146100D03*
X264500D03*
X270500Y155500D03*
X271696Y176751D03*
X259096Y173602D03*
X271696D03*
X265395D03*
X265396Y176752D03*
X268545D03*
X259096Y170452D03*
X262246D03*
X259096Y176752D03*
X268546Y173602D03*
X271696Y170452D03*
X259096Y189351D03*
X271696Y186202D03*
X265396D03*
X271696Y192501D03*
X265396Y192502D03*
X271696Y183051D03*
X268546D03*
X271696Y189352D03*
X262246Y183051D03*
X259096Y186202D03*
X268545D03*
Y179901D03*
Y192502D03*
X271696Y179902D03*
X262246D03*
X265396Y179901D03*
X259096Y183052D03*
Y179901D03*
X262245Y186202D03*
X265396Y201952D03*
X271696Y195652D03*
X268546Y198802D03*
X262246Y208251D03*
X268545Y208252D03*
X265395Y198802D03*
X271696D03*
X265396Y208252D03*
X271696Y201952D03*
X268545D03*
X259096D03*
X271696Y208251D03*
X262245Y201952D03*
X262241Y220847D03*
X265396Y220851D03*
X265391Y217697D03*
X262241D03*
X262246Y211402D03*
Y224001D03*
X268546Y214552D03*
X268545Y220851D03*
X259091Y214547D03*
X271696Y224001D03*
Y220852D03*
X268546Y224001D03*
X271696Y211402D03*
X265396D03*
X268545D03*
X265395Y214552D03*
X271696D03*
Y217701D03*
X259096Y217702D03*
Y211402D03*
X259091Y223997D03*
X271696Y239752D03*
X265396Y227152D03*
X259096Y236601D03*
Y230301D03*
X271696Y236602D03*
Y227152D03*
X268545D03*
X265396Y236601D03*
X268546Y230302D03*
X259096Y227152D03*
X268545Y233452D03*
X262246Y230302D03*
X265396Y233452D03*
X262241Y236597D03*
X262246Y239752D03*
X259096Y233453D03*
Y239752D03*
X265395D03*
X262246Y233451D03*
X268541Y239747D03*
X268545Y236601D03*
X265395Y230302D03*
X262241Y227147D03*
X267000Y251500D03*
X259000Y253000D03*
X263500Y253120D03*
X261500Y250500D03*
X263600Y263300D03*
X267200Y261500D03*
X271900Y260400D03*
X260800Y264300D03*
X259500Y257000D03*
X278000Y47000D03*
X275500D03*
X273900Y62000D03*
X279600D03*
X286000D03*
X275500Y74500D03*
X278000D03*
X287500Y75000D03*
X281146Y176752D03*
X277995D03*
Y170452D03*
X274845Y173602D03*
X281145D03*
X277996D03*
X274846Y176752D03*
X281796Y170702D03*
X274846Y170452D03*
X281145Y179902D03*
X277996Y192501D03*
Y179902D03*
X277995Y186202D03*
X274846Y192502D03*
X281146D03*
X284273Y183075D03*
X274846Y186202D03*
X277996Y183051D03*
X281145D03*
X274846Y183052D03*
X277996Y189352D03*
X281145D03*
X274846Y189351D03*
X277996Y208251D03*
Y198802D03*
X274846Y201952D03*
X281145Y208251D03*
X274846Y208252D03*
Y198802D03*
X281145D03*
X277996Y195652D03*
X281146Y195651D03*
X277986Y205072D03*
X281137D03*
X274846Y195651D03*
X277996Y220852D03*
X274845Y214552D03*
X281146Y211402D03*
X277995D03*
X281145Y224001D03*
X274846Y224002D03*
X281145Y220852D03*
X281146Y217702D03*
X274846Y211402D03*
X281145Y214552D03*
X274846Y220851D03*
X277996Y214552D03*
X277995Y217702D03*
X274846D03*
X277996Y224001D03*
Y233451D03*
X274865Y239752D03*
X281145D03*
X277995Y227152D03*
X281146Y233452D03*
X277996Y239752D03*
X274846Y230301D03*
X281146Y227152D03*
X274846Y233452D03*
X281146Y236601D03*
X281145Y230302D03*
X274846Y227152D03*
X277996Y236602D03*
Y230302D03*
X276000Y249000D03*
X286100Y261000D03*
X281700Y260000D03*
X286100Y258100D03*
X287000Y278500D03*
X286000Y283000D03*
X302500Y49000D03*
X293000Y62000D03*
X298500Y61900D03*
X301400Y62000D03*
X290000D03*
X290560Y74440D03*
X298434Y74434D03*
X302580Y74500D03*
X295500Y150900D03*
X290500Y197500D03*
X298500D03*
X293000D03*
X296000D03*
X296710Y217150D03*
X303404Y217003D03*
X296357Y213685D03*
X298500Y254000D03*
X296600Y258100D03*
X290500Y263000D03*
X302000Y269000D03*
X297144Y276148D03*
X314580Y49000D03*
X318000D03*
X306000D03*
X307250Y62000D03*
X313300D03*
X319000D03*
X310245Y74500D03*
X306000D03*
X314500D03*
X317500D03*
X320000Y84350D03*
X317854Y182081D03*
X314704Y191530D03*
Y188380D03*
Y182081D03*
X317854Y191530D03*
X321003D03*
X317854Y185231D03*
X314704Y207278D03*
X321003Y200979D03*
X314703Y194679D03*
X317854D03*
X317853Y200979D03*
X321003Y194679D03*
X314704Y197829D03*
X314812Y201028D03*
X317854Y207278D03*
X321003D03*
X317853Y197829D03*
X321003D03*
X317854Y219879D03*
X313621Y222159D03*
X317854Y213579D03*
X317853Y216729D03*
X317854Y210429D03*
X311554Y210428D03*
X314703Y216728D03*
X321004Y223025D03*
X317853Y223029D03*
X311554Y213579D03*
X321003Y210429D03*
Y213579D03*
X321004Y216729D03*
X314483Y229549D03*
X314704Y226179D03*
X314502Y232678D03*
X321003Y226175D03*
X317854Y226178D03*
X321083Y229405D03*
X317810Y229302D03*
X307500Y268000D03*
X310000D03*
X314000Y268500D03*
X317000D03*
X320500D03*
X307000Y278000D03*
X310000D03*
X317000D03*
X314500D03*
X329685Y49000D03*
X326265D03*
X325150Y62000D03*
X330800D03*
X326500Y74500D03*
X329500D03*
X336754Y185232D03*
X326479Y181865D03*
X337015Y181794D03*
X336754Y188381D03*
X324712Y190704D03*
X324994Y186885D03*
X336754Y191531D03*
X328601Y195724D03*
X336754Y194677D03*
Y207278D03*
X324194Y197641D03*
X333656Y197882D03*
X330793Y197916D03*
X336754Y219878D03*
Y213577D03*
Y210428D03*
Y216727D03*
Y223026D03*
Y226177D03*
Y229325D03*
X324283Y229271D03*
X336754Y232475D03*
X333500Y258000D03*
X332500Y268500D03*
X323420D03*
X324500Y278000D03*
X322000D03*
X346500Y64000D03*
X344000D03*
X352500Y63500D03*
X353000Y100500D03*
X339904Y185229D03*
X343054Y188377D03*
X343429Y181703D03*
X339904Y191528D03*
X343054Y185228D03*
X339904Y188378D03*
X340228Y181755D03*
X344500Y205946D03*
X343054Y197826D03*
X339904Y207278D03*
X352293Y206822D03*
X343053Y194677D03*
X339904D03*
X343054Y200977D03*
X352333Y198244D03*
X339904Y197826D03*
Y200977D03*
X343054Y223026D03*
X339904Y213577D03*
Y210429D03*
X343054Y210428D03*
X339904Y223026D03*
Y219877D03*
Y216727D03*
X349506Y215006D03*
X343054Y229325D03*
X346703Y240979D03*
X343054Y226177D03*
X344500Y234500D03*
X343054Y232475D03*
X339904Y229325D03*
Y226176D03*
X340059Y232632D03*
X341500Y247800D03*
X352000Y253000D03*
X368237Y83763D03*
X364475Y97975D03*
X360500Y112000D03*
X357500Y104500D03*
X368000Y117000D03*
X367500Y218000D03*
X364000Y244500D03*
X369000Y271500D03*
X358500Y270000D03*
X364000Y258500D03*
X364100Y279970D03*
X370500Y111000D03*
X377000Y127261D03*
X372500Y125500D03*
X380000Y123451D03*
X379500Y128870D03*
X376500Y142072D03*
X380899Y144582D03*
Y137593D03*
X379000Y140103D03*
X380546Y159077D03*
X377000Y152000D03*
X380500Y154593D03*
X375936Y157532D03*
X376387Y168387D03*
X380000Y166000D03*
X375000Y173000D03*
X380192Y170356D03*
X382500Y191545D03*
X377350Y199150D03*
X384000Y198500D03*
X371000Y203000D03*
X379500Y235000D03*
X383000Y269000D03*
X374500Y269500D03*
X383000Y271700D03*
X379800Y282000D03*
X394516Y108500D03*
X400500Y110500D03*
X392006Y111000D03*
X397500Y110500D03*
X398860Y132249D03*
X399213Y139673D03*
Y155937D03*
X393557Y170786D03*
X394986Y169087D03*
X390000Y185500D03*
X397092D03*
X393500D03*
X400628Y185594D03*
X399000Y192000D03*
X396000Y197000D03*
X392844Y201955D03*
X396780Y201280D03*
X388908Y201500D03*
X390000Y198000D03*
X390500Y244000D03*
X395000Y269500D03*
X417250Y131536D03*
X407345Y131542D03*
X411588D03*
X403810D03*
X414770Y163930D03*
X406285Y163715D03*
X409339Y175382D03*
X416891Y185635D03*
X408406D03*
X412649D03*
X404000Y185500D03*
X410556Y201556D03*
X404946Y248569D03*
X422659Y111000D03*
X426902D03*
X430237Y110021D03*
X429619Y131895D03*
X430326Y135431D03*
X430680Y142148D03*
X421487Y131542D03*
X426002Y131813D03*
X429729Y146634D03*
X430680Y156997D03*
X418332Y164068D03*
X421487D03*
X425023D03*
X431090Y161594D03*
X425730Y181039D03*
X426150Y188880D03*
X426430Y192030D03*
X429000Y197000D03*
X423000Y206000D03*
X425500Y217500D03*
X422500Y221500D03*
Y240790D03*
X420500Y242500D03*
X440844Y110021D03*
X437308D03*
X433773D03*
X444500Y118000D03*
X439500Y136500D03*
X441500Y144000D03*
Y140849D03*
X438542Y165500D03*
X441500Y173968D03*
X434000Y236500D03*
X442000Y226000D03*
X444500Y225000D03*
X447500Y227000D03*
X437000Y258500D03*
X447000Y272500D03*
X448000Y258100D03*
X444900Y258300D03*
X442000Y258500D03*
X462490Y105510D03*
X451000Y128450D03*
X450500Y139500D03*
Y144500D03*
X459000Y208000D03*
Y204500D03*
X449500Y195000D03*
X451290Y218500D03*
X461116Y220571D03*
X464500Y220500D03*
X453258Y236758D03*
X463000Y237000D03*
X460000D03*
X459500Y253600D03*
X460400Y258300D03*
X464000Y261800D03*
X460800Y266600D03*
X474500Y117000D03*
X468500D03*
X471500D03*
X465500Y136500D03*
X470500Y151000D03*
X479500Y167500D03*
Y164500D03*
X468000Y169500D03*
Y172000D03*
X465800Y170700D03*
X468500Y180500D03*
X476500Y179000D03*
X479000Y181500D03*
X473850Y180500D03*
X472000Y178000D03*
X465600Y266700D03*
X471500Y259000D03*
X481500Y135000D03*
X484500Y130500D03*
X486000Y135000D03*
X491000Y182000D03*
X484953Y181547D03*
X494795Y224000D03*
X484500Y226000D03*
X490500Y233000D03*
X493000D03*
X487000Y226000D03*
X486000Y252000D03*
X483500Y254414D03*
X486000Y272000D03*
Y262500D03*
X506000Y116500D03*
X512500Y144000D03*
Y147000D03*
X509000Y150500D03*
Y153500D03*
X512000Y156000D03*
Y158500D03*
X512500Y149500D03*
X510000Y160000D03*
X511000Y209000D03*
Y211500D03*
X502000Y210000D03*
X498500Y224000D03*
X521176Y94150D03*
X514000Y92000D03*
X522000Y111150D03*
X528500Y122000D03*
X513000Y138500D03*
X515500D03*
X528000Y147000D03*
Y150000D03*
X514700Y154000D03*
X515000Y148500D03*
X514500Y145500D03*
X524000Y159500D03*
X519000Y172000D03*
Y174500D03*
X524000Y172000D03*
Y174500D03*
X515500Y191500D03*
X520500Y205000D03*
X518000Y206500D03*
Y203500D03*
X521500Y197200D03*
Y194700D03*
X518000Y213500D03*
X530500Y92500D03*
X539000Y109200D03*
Y106500D03*
X533500Y169000D03*
X537000Y206922D03*
X538000Y222000D03*
Y219000D03*
X539500Y208890D03*
X537000Y210859D03*
X542200Y212500D03*
X538500Y215000D03*
X542000Y216000D03*
X534500Y225800D03*
X535500Y228000D03*
X553000Y127500D03*
X546500Y151000D03*
Y154000D03*
X572000Y138500D03*
X569500Y140000D03*
X566000D03*
X574000D03*
X574500Y150000D03*
X569500Y149000D03*
X567000D03*
X579500Y138000D03*
X577500Y140000D03*
X581500D03*
X585000D03*
X590217Y155273D03*
Y157773D03*
X583500Y150000D03*
X581000D03*
X577500D03*
X592717Y155273D03*
Y157773D03*
G54D23*
X351500Y87500D03*
X352000Y92000D03*
X349500Y90000D03*
X354000Y89500D03*
X375487Y92661D03*
Y87661D03*
X373862Y90161D03*
X377862D03*
G54D15*
X44089Y57768D03*
X42084Y55774D03*
X40089Y57779D03*
X42094Y59774D03*
X98169Y229000D03*
X113500Y236000D03*
Y232500D03*
X107500Y244000D03*
X104000D03*
X99500D03*
X137859Y145481D03*
X139859Y148481D03*
X137859Y151481D03*
X135859Y148481D03*
X159352Y102200D03*
X157352Y100200D03*
X159352Y98200D03*
X161352Y100200D03*
X238001Y98201D03*
X240000Y100199D03*
X236000Y100200D03*
X238000Y102200D03*
X318700Y100200D03*
X316700Y98200D03*
X314700Y100200D03*
X316700Y102200D03*
X398690Y213670D03*
X392670D03*
Y219690D03*
X398690D03*
Y231730D03*
X392670D03*
X398690Y225710D03*
X392670D03*
X405993Y145571D03*
Y143407D03*
Y141242D03*
Y139077D03*
X408158D03*
X410323D03*
X412487Y139076D03*
X414652D03*
Y141242D03*
Y143407D03*
Y145572D03*
X416818Y139076D03*
X405993Y152067D03*
Y154232D03*
Y156397D03*
X408158D03*
X410323D03*
X412487Y156396D03*
X414652Y147737D03*
X412487D03*
X410323Y147736D03*
X408158D03*
X405993D03*
Y149902D03*
X414652Y156396D03*
X416818D03*
Y147737D03*
X414652Y149902D03*
X414653Y152067D03*
X414652Y154231D03*
X410730Y213670D03*
X404710D03*
X410730Y219690D03*
X404710D03*
X410730Y231730D03*
X404710D03*
X410730Y225710D03*
X404710D03*
X423312Y145571D03*
X423313Y143407D03*
X423312Y141242D03*
Y139077D03*
X421147D03*
X418983Y139076D03*
Y156396D03*
X421147Y156397D03*
X423312D03*
Y154232D03*
Y152067D03*
Y149902D03*
Y147736D03*
X418983Y147737D03*
X421147Y147736D03*
G54D24*
X364200Y270500D03*
X387800D03*
G54D16*
X65803Y36811D03*
X116197D03*
G54D25*
X449538Y107624D03*
X454460Y107620D03*
G54D17*
X73185Y32283D03*
X108815D03*
G54D26*
X441780Y181240D03*
G54D18*
X95677Y92554D03*
X473630D03*
X518906Y239417D03*
G54D27*
X441780Y191240D03*
G54D28*
X462157Y244000D03*
X476921D03*
X471999D03*
X467078D03*
X481842D03*
G54D19*
X140957Y13768D03*
X198043D03*
G54D29*
X471500Y269000D03*
X495500D03*
M02*
