G04 ================== begin FILE IDENTIFICATION RECORD ==================*
G04 Layout Name:  F:/work/Eileen/hmd/dvt/hmd-dvt-323am11.brd*
G04 Film Name:    hmd_dvt_L3*
G04 File Format:  Gerber RS274X*
G04 File Origin:  Cadence Allegro 16.3-S053*
G04 Origin Date:  Mon Mar 23 11:22:04 2015*
G04 *
G04 Layer:  VIA CLASS/L3*
G04 Layer:  PIN/L3*
G04 Layer:  ETCH/L3*
G04 Layer:  BOARD GEOMETRY/OUTLINE*
G04 *
G04 Offset:    (0.00 0.00)*
G04 Mirror:    No*
G04 Mode:      Positive*
G04 Rotation:  0*
G04 FullContactRelief:  No*
G04 UndefLineWidth:     5.00*
G04 ================== end FILE IDENTIFICATION RECORD ====================*
%FSLAX55Y55*MOIN*%
%IR0*IPPOS*OFA0.00000B0.00000*MIA0B0*SFA1.00000B1.00000*%
%ADD20O,.059X.13*%
%ADD11C,.02*%
%ADD29C,.03*%
%ADD24C,.04*%
%ADD15C,.022*%
%ADD19O,.059X.106*%
%ADD12C,.024*%
%ADD23C,.026*%
%ADD21C,.063*%
%ADD14C,.018*%
%ADD13C,.028*%
%ADD26C,.065*%
%ADD17C,.047*%
%ADD10C,.056*%
%ADD27R,.065X.065*%
%AMMACRO25*
21,1,.034,.014,0.0,0.0,179.96*
1,1,.034,.000005,.007*
1,1,.034,-.000005,-.007*%
%ADD25MACRO25*%
%ADD22C,.16*%
%ADD28O,.034X.048*%
%ADD16O,.052X.095*%
%ADD18C,.197*%
%ADD30C,.01*%
%ADD31C,.012*%
%ADD32C,.015*%
%ADD33C,.025*%
%ADD34C,.004*%
%ADD35C,.005*%
%ADD36C,.0045*%
%ADD40C,.05004*%
%ADD39C,.02704*%
%ADD37C,.03704*%
%ADD38C,.02904*%
G75*
%LPD*%
G75*
G36*
G01X361690Y18430D02*
X361600Y44300D01*
X360999Y44901D01*
X220000D01*
X219901Y45000D01*
X208350D01*
X207750Y44400D01*
Y18780D01*
X207390Y17196D01*
X206900Y16200D01*
X206500Y15600D01*
X206000Y15100D01*
X204486Y14030D01*
X204200Y13900D01*
X202600Y13500D01*
X-11500D01*
X-16300Y18300D01*
Y110700D01*
X-8500Y118500D01*
Y201762D01*
X-9600Y204300D01*
X-9800Y204500D01*
X-10850Y205650D01*
X-11850Y206700D01*
X-16400Y211250D01*
Y274200D01*
X-16100Y274500D01*
X-15000D01*
X-14500Y274000D01*
Y267000D01*
X-15000Y266500D01*
Y260500D01*
X-14500Y260000D01*
Y245000D01*
X-14000Y244500D01*
Y213000D01*
X-6500Y205500D01*
Y116500D01*
X-14000Y109000D01*
Y20500D01*
X-9000Y15500D01*
X201500D01*
X205500Y19500D01*
Y45500D01*
X207500Y47500D01*
X261627D01*
X261645Y47319D01*
G03X265056Y46354I1893J181D01*
G01X265065Y46365D01*
X265277Y46578D01*
X265431Y46424D01*
X265441Y46410D01*
G03X268893Y47319I1559J1090D01*
G01X268911Y47500D01*
X273751D01*
G02X274150Y47077I0J-400D01*
G03X276465Y46053I1350J-77D01*
G02X277035I285J-281D01*
G03X279350Y47077I965J947D01*
G02X279749Y47500I399J23D01*
G01X384500D01*
X386000Y46000D01*
Y15000D01*
X384500Y13500D01*
X367000D01*
X365000Y14000D01*
X363500Y15000D01*
X362000Y17500D01*
X361690Y18430D01*
G37*
G36*
G01X-4500Y284500D02*
X-4000D01*
X52000D01*
X52500Y284000D01*
Y282500D01*
X52000Y282000D01*
X-4500D01*
X-12500D01*
X-14500Y280000D01*
Y273500D01*
X-16400D01*
Y278975D01*
X-16284Y279765D01*
X-16000Y280900D01*
X-15300Y282200D01*
X-14370Y283223D01*
X-14126Y283411D01*
X-14136Y283405D01*
X-13387Y283881D01*
X-12902Y284119D01*
X-12485Y284286D01*
X-12049Y284402D01*
X-4500Y284500D01*
G37*
G36*
G01X23500Y126000D02*
X19500Y130000D01*
Y132035D01*
G02X20095Y132384I400J0D01*
G03X22645Y133149I905J1616D01*
G02X23355I355J-184D01*
G03Y134851I1645J851D01*
G02X22645I-355J184D01*
G03X20095Y135616I-1645J-851D01*
G02X19500Y135965I-195J349D01*
G01Y167636D01*
G02X20151Y167948I400J1D01*
G03X21947Y169965I849J1052D01*
G02Y170535I281J285D01*
G03X20151Y172552I-947J965D01*
G02X19500Y172864I-251J311D01*
G01Y184074D01*
G02X20138Y184396I400J0D01*
G03Y186732I862J1168D01*
G02X19500Y187054I-238J322D01*
G01Y198537D01*
X19676Y198559D01*
G03X20811Y200623I-176J1441D01*
G01X20751Y200751D01*
X23500Y203500D01*
X30248D01*
G02X30626Y202970I0J-400D01*
G03X30929Y201520I1374J-470D01*
G02Y200980I-295J-270D01*
G03X33071I1071J-980D01*
G02Y201520I295J270D01*
G03X33374Y202970I-1071J980D01*
G02X33752Y203500I378J130D01*
G01X38000D01*
X42500Y208000D01*
X50000D01*
X59500Y198500D01*
Y173000D01*
X56500Y170000D01*
Y140000D01*
X64000Y132500D01*
Y129000D01*
X61000Y126000D01*
X47503D01*
X47467Y126155D01*
G03X44833I-1317J-305D01*
G01X44797Y126000D01*
X23500D01*
G37*
G36*
G01X92816Y81502D02*
G02X96184I1684J10798D01*
G01X92816D01*
G37*
G36*
G01X118000Y156000D02*
X111500Y162500D01*
Y181078D01*
X111618Y181131D01*
G03X112502Y182500I-618J1369D01*
G01Y191002D01*
X120968Y199468D01*
X121105Y199369D01*
G03X123131Y201395I845J1181D01*
G01X123032Y201532D01*
X125455Y203955D01*
X125519Y203966D01*
G03X126634Y205081I-219J1334D01*
G01X126645Y205145D01*
X146000Y224500D01*
Y229500D01*
X147504Y231004D01*
G02X148132Y230923I283J-283D01*
G03X148620Y230435I1168J680D01*
G02X148631Y229751I-201J-345D01*
G03X148563Y227505I718J-1146D01*
G02X148547Y226843I-233J-326D01*
G03X150064Y226806I731J-1137D01*
G02X150080Y227468I233J326D01*
G03X150029Y229774I-731J1137D01*
G02X150018Y230458I201J345D01*
G03X148947Y232909I-718J1146D01*
G02X148442Y233295I-105J386D01*
G01Y241558D01*
X155944Y249060D01*
G02X156627Y248802I284J-283D01*
G03X158059Y250233I1349J82D01*
G02X157800Y250916I24J400D01*
G01X160877Y253992D01*
X160975Y253978D01*
G03X162498Y255501I183J1340D01*
G01X162484Y255599D01*
X164609Y257724D01*
X205224D01*
X208448Y254500D01*
X210298D01*
X210370Y254457D01*
G03X210388Y254446I648J1041D01*
G01X210391Y254445D01*
X210671Y254281D01*
X210539Y254054D01*
X210482Y254028D01*
G03X212119Y253629I568J-1227D01*
G02X212435Y254274I316J245D01*
G01X214725D01*
G02X215039Y253626I0J-400D01*
G03X217440Y252606I1061J-838D01*
G01X217449Y252673D01*
X217638Y252862D01*
X217934Y252566D01*
X217931Y252480D01*
G03X219328Y251083I1351J-46D01*
G01X219414Y251086D01*
X219750Y250750D01*
Y246750D01*
X227912Y238588D01*
Y238351D01*
G02X227531Y237952I-400J0D01*
G03X227697Y235253I64J-1351D01*
G02X227912Y235053I15J-199D01*
G01Y235000D01*
G02X227697Y234800I-200J-1D01*
G03Y232104I-102J-1348D01*
G02X227912Y231904I15J-199D01*
G01Y231850D01*
G02X227698Y231650I-200J-1D01*
G03X227977Y229005I-102J-1348D01*
G01X228091Y229038D01*
X228608Y228522D01*
X228362Y228275D01*
X228231Y228345D01*
G03X228788Y227788I-636J-1193D01*
G01X228718Y227919D01*
X228965Y228165D01*
X229482Y227647D01*
X229449Y227533D01*
G03X231358Y225947I1297J-381D01*
G01X231488Y226012D01*
X232756Y224744D01*
X232691Y224614D01*
G03X235102Y223390I1205J-612D01*
G01X235157Y223500D01*
X238765D01*
X239491Y222774D01*
X239625D01*
X239662Y222758D01*
G03X241401Y223390I533J1243D01*
G01X241457Y223500D01*
X242084D01*
X242139Y223390D01*
G03X244551I1206J612D01*
G01X244606Y223500D01*
X248000D01*
X249500Y225000D01*
X251150D01*
G02X251525Y224463I-1J-400D01*
G03X254067I1271J-462D01*
G02X254442Y225000I376J137D01*
G01X254615D01*
G02X254786Y224697I0J-200D01*
G03X257188Y224532I1159J-696D01*
G01X257135Y224656D01*
X257372Y224893D01*
X257813Y224453D01*
X257784Y224341D01*
G03X260442Y223936I1307J-344D01*
G02X260841Y224318I399J-18D01*
G01X263331D01*
X264013Y225000D01*
X266000D01*
X267209Y223791D01*
X267221Y223732D01*
G03X268277Y222676I1325J269D01*
G01X268336Y222664D01*
X268500Y222500D01*
Y222213D01*
X268332Y222186D01*
G03Y219516I213J-1335D01*
G01X268500Y219489D01*
Y215914D01*
X268332Y215887D01*
G03Y213217I214J-1335D01*
G01X268500Y213190D01*
Y212764D01*
X268332Y212737D01*
G03X267708Y210340I213J-1335D01*
G02X267743Y209743I-248J-314D01*
G01X267054Y209054D01*
G02X266457Y209089I-283J283D01*
G03X264559Y207191I-1061J-837D01*
G02X264594Y206594I-248J-314D01*
G01X260754Y202754D01*
G02X260157Y202789I-283J283D01*
G03X258259Y200891I-1061J-837D01*
G02X258294Y200294I-248J-314D01*
G01X257604Y199604D01*
G02X257007Y199639I-283J283D01*
G03X255108Y197740I-1062J-837D01*
G02X255143Y197143I-248J-314D01*
G01X254453Y196453D01*
G02X253856Y196488I-283J283D01*
G03X251958Y194590I-1061J-837D01*
G02X251993Y193993I-248J-314D01*
G01X251304Y193304D01*
G02X250707Y193339I-283J283D01*
G03X248809Y191441I-1061J-837D01*
G02X248844Y190844I-248J-314D01*
G01X245217Y187217D01*
X244238D01*
G03X242452I-893J-1015D01*
G01X237938D01*
G03X236152I-893J-1015D01*
G01X232717D01*
X232447Y186947D01*
G02X231841Y186995I-282J283D01*
G03X229953Y185107I-1095J-793D01*
G02X230001Y184501I-235J-324D01*
G01X229297Y183797D01*
G02X228690Y183845I-283J283D01*
G03X227338Y181724I-1094J-794D01*
G01X227500Y181692D01*
Y181260D01*
X227338Y181228D01*
G03X226649Y178935I257J-1327D01*
G02X226651Y178651I-140J-143D01*
G01X225696Y177696D01*
G02X225412Y177698I-141J142D01*
G03X223883Y175523I-966J-946D01*
G01X224000Y175469D01*
Y174885D01*
X223883Y174832D01*
G03Y172372I562J-1230D01*
G01X224000Y172319D01*
Y171735D01*
X223883Y171681D01*
G03Y169223I563J-1229D01*
G01X224000Y169169D01*
Y168500D01*
X222657Y167157D01*
X216171D01*
X213979Y169349D01*
Y170905D01*
X215379Y172305D01*
X215423Y172320D01*
G03X216277Y173174I-428J1282D01*
G01X216292Y173218D01*
X216312Y173238D01*
Y173296D01*
X216317Y173316D01*
G03Y173888I-1322J286D01*
G01X216312Y173908D01*
Y176441D01*
X216317Y176462D01*
G03Y177042I-1321J290D01*
G01X216312Y177063D01*
Y179596D01*
X216317Y179616D01*
G03Y180188I-1322J286D01*
G01X216312Y180208D01*
Y182148D01*
X222464Y188300D01*
Y191818D01*
X222488Y191862D01*
G03Y193140I-1192J639D01*
G01X222464Y193184D01*
Y194969D01*
X222488Y195013D01*
G03Y196291I-1192J639D01*
G01X222464Y196335D01*
Y198119D01*
X222488Y198163D01*
G03X222528Y198245I-1195J634D01*
G01X222543Y198278D01*
X222586Y198321D01*
G02X223228Y198212I282J-283D01*
G03X225035Y200019I1217J590D01*
G02X224926Y200661I174J360D01*
G01X224970Y200705D01*
X225003Y200720D01*
G03X225306Y202995I-557J1232D01*
G01X225299Y203001D01*
X224102Y204198D01*
Y206501D01*
G02X224489Y206901I400J0D01*
G03X224312Y209597I-43J1351D01*
G02X224092Y209796I-20J199D01*
G01Y209858D01*
G02X224312Y210057I200J0D01*
G03Y212747I134J1345D01*
G02X224092Y212946I-20J199D01*
G01Y213008D01*
G02X224312Y213207I200J0D01*
G03X224089Y215856I134J1345D01*
G01X223977Y215826D01*
X223807Y215996D01*
Y216693D01*
X222640Y217860D01*
X222630Y217923D01*
G03X221518Y219035I-1334J-222D01*
G01X221455Y219045D01*
X219490Y221010D01*
X219480Y221073D01*
G03X216829Y221155I-1334J-222D01*
G01X216793Y221000D01*
X216348D01*
X216313Y221155D01*
G03X215174Y222192I-1318J-303D01*
G01X215000Y222215D01*
Y222638D01*
X215174Y222661D01*
G03Y225341I-179J1340D01*
G01X215000Y225364D01*
Y225789D01*
X215174Y225812D01*
G03Y228492I-178J1340D01*
G01X215000Y228515D01*
Y228939D01*
X215174Y228962D01*
G03X215497Y231557I-179J1340D01*
G01X215459Y231573D01*
X215087Y231945D01*
X215267Y232126D01*
X215321Y232139D01*
G03X215174Y234791I-326J1312D01*
G01X215000Y234814D01*
Y235239D01*
X215174Y235262D01*
G03X215497Y237857I-179J1340D01*
G01X215459Y237872D01*
X213900Y239432D01*
X213568D01*
X213188Y239812D01*
X213195Y239903D01*
G03X212049Y241337I-1349J97D01*
G01X211985Y241346D01*
X210173Y243158D01*
X202913D01*
X202871Y243179D01*
G03X201573I-649J-1299D01*
G01X201531Y243158D01*
X169842D01*
X156929Y230245D01*
X156821Y230270D01*
G03X156320Y227615I-304J-1317D01*
G01X156491Y227590D01*
Y224044D01*
X156324Y224016D01*
G03Y221348I221J-1334D01*
G01X156491Y221320D01*
Y220756D01*
X156368Y220632D01*
Y218368D01*
X155082Y217082D01*
G02X154472Y217135I-283J283D01*
G03X152588Y215251I-1107J-777D01*
G02X152641Y214641I-230J-327D01*
G01X152000Y214000D01*
Y211000D01*
X148500Y207500D01*
Y164500D01*
X140000Y156000D01*
X122990D01*
G02X122668Y156638I0J400D01*
G03X120332I-1168J862D01*
G02X120010Y156000I-322J-238D01*
G01X118000D01*
G37*
G36*
G01X204448Y133001D02*
G03X206501Y130948I1052J-1001D01*
G02X207059Y130941I275J-290D01*
G01X209000Y129000D01*
X209154D01*
G02X209552Y128643I0J-400D01*
G03X212448I1448J107D01*
G02X212846Y129000I398J-43D01*
G01X222372D01*
X222416Y128861D01*
G03X225184I1384J439D01*
G01X225228Y129000D01*
X225988D01*
G03X228412I1212J800D01*
G01X235965D01*
G03X238335I1185J650D01*
G01X248000D01*
X252000Y125000D01*
X266082D01*
G02X266449Y124439I1J-400D01*
G03X266862Y122223I1651J-839D01*
G03X267108Y122036I1240J1375D01*
G02X267192Y121433I-215J-337D01*
G03X269566Y121764I1382J-1233D01*
G02X269482Y122367I215J337D01*
G03X269520Y122412I-1395J1217D01*
G03X269590Y122500I-1413J1196D01*
G01X269648Y122578D01*
X269844Y122583D01*
X269906Y122506D01*
G03X270630Y121961I1442J1162D01*
G03X272746Y122453I718J1707D01*
G02X273350I302J-262D01*
G03X275455Y121956I1398J1215D01*
G03X276068Y122369I-708J1712D01*
G02X276628I280J-286D01*
G03X279630Y124444I1320J1299D01*
G02X279998Y125000I368J156D01*
G01X362000D01*
X367990Y119010D01*
G02X367774Y118333I-283J-283D01*
G03X369333Y116774I226J-1333D01*
G02X370010Y116990I394J-67D01*
G01X372500Y114500D01*
X381500D01*
X384100Y111900D01*
X384078Y111794D01*
G03X385794Y110078I1422J-294D01*
G01X385900Y110100D01*
X394500Y101500D01*
Y98000D01*
X392500Y96000D01*
X388750D01*
G02X388350Y96418I0J400D01*
G03X384650I-1850J82D01*
G02X384250Y96000I-400J-18D01*
G01X345500D01*
X325500Y116000D01*
X283500D01*
X278500Y111000D01*
X257500D01*
X251000Y117500D01*
X194500D01*
X186500Y109500D01*
Y103000D01*
X184000Y100500D01*
X180500D01*
X176500Y104500D01*
Y124000D01*
X187500Y135000D01*
X203000D01*
X204441Y133559D01*
G02X204448Y133001I-283J-283D01*
G37*
G36*
G01X250000Y281500D02*
X249000Y282500D01*
Y284000D01*
X249500Y284500D01*
X263500D01*
X264000Y284000D01*
Y282000D01*
X263500Y281500D01*
X250000D01*
G37*
G36*
G01X283529Y273300D02*
G02I-10929J0D01*
G37*
G36*
G01X302500Y284000D02*
X303000Y284500D01*
X335000D01*
X335500Y284000D01*
Y283000D01*
X335000Y282500D01*
X303000D01*
X302500Y283000D01*
Y284000D01*
G37*
G36*
G01X431484Y56144D02*
X444000Y48441D01*
Y13404D01*
X388000D01*
Y53157D01*
X390989Y57000D01*
X402535D01*
X409202Y67000D01*
X413111D01*
X431484Y56144D01*
G37*
G36*
G01X412224Y128077D02*
X417033Y132885D01*
X418305D01*
X420002Y131188D01*
Y128925D01*
X416077Y125000D01*
X402148D01*
X395324Y131824D01*
Y156099D01*
Y159768D01*
X402423Y166867D01*
X406092D01*
X407098D01*
X408648Y165317D01*
Y163750D01*
X406932Y162033D01*
X404803D01*
X404564Y161794D01*
X403725D01*
X399532Y157602D01*
Y156762D01*
X399526Y156756D01*
X399532Y156750D01*
Y153940D01*
X399578Y153894D01*
Y141716D01*
X399532Y141670D01*
Y137018D01*
X403212Y133339D01*
G02X403130Y132711I-283J-282D01*
G03X404742Y130562I681J-1168D01*
G02X405368Y130464I275J-290D01*
G03X407388Y129291I1977J1078D01*
G01X407473Y129293D01*
X408689Y128077D01*
X412224D01*
G37*
G36*
G01X560100Y279000D02*
X560150Y171900D01*
X560199Y171000D01*
X561000Y168000D01*
X562500Y166000D01*
X564000Y164500D01*
X567600Y162500D01*
X598400D01*
X601100Y160700D01*
X602500Y157600D01*
X602700Y157400D01*
X602800Y157120D01*
Y133850D01*
X602705Y132949D01*
X602400Y131500D01*
X601600Y129900D01*
X600100Y128600D01*
X599100Y128000D01*
X598500Y127800D01*
X598202Y127740D01*
X597450Y127650D01*
X597268Y127600D01*
X596800Y127601D01*
X587600D01*
X585886Y127111D01*
X585250Y126950D01*
X584340Y126420D01*
X583900Y126200D01*
X582300Y125100D01*
X582090Y124860D01*
X581700Y124550D01*
X581250Y123900D01*
X580900Y123500D01*
X579900Y121800D01*
X579199Y119633D01*
Y119200D01*
X579100Y118550D01*
X579051Y79650D01*
X578700Y78100D01*
X577400Y76200D01*
X576100Y75300D01*
X575000Y74750D01*
X574387Y74559D01*
X574048Y74514D01*
X573100Y74450D01*
X570750Y74401D01*
X542900D01*
X540300Y73600D01*
X539100Y72900D01*
X537100Y71300D01*
X535500Y69000D01*
X534599Y66215D01*
Y19500D01*
X534500Y18000D01*
X533500Y16000D01*
X532500Y15000D01*
X531000Y14000D01*
X529000Y13500D01*
X447000D01*
X446000Y14500D01*
Y60500D01*
X449500Y64000D01*
X502000D01*
X505658Y67658D01*
G02X506218Y67664I283J-283D01*
G03X506334Y67561I1286J1332D01*
G02Y66939I-251J-311D01*
G03X508939Y64334I1166J-1439D01*
G02X509561I311J-251D01*
G03X512739Y64862I1439J1166D01*
G02X513360Y65040I375J-137D01*
G03X515666Y67939I1140J1460D01*
G02Y68561I251J311D01*
G03X512761Y70638I-1166J1439D01*
G02X512140Y70460I-375J137D01*
G03X509561Y70166I-1140J-1460D01*
G02X508939I-311J251D01*
G03X508836Y70282I-1435J-1170D01*
G02X508842Y70842I289J277D01*
G01X529000Y91000D01*
X533000D01*
X537000Y95000D01*
Y119000D01*
X540000Y122000D01*
X554000D01*
X555000Y123000D01*
Y131000D01*
X532000Y154000D01*
Y158000D01*
X525000Y165000D01*
X521235D01*
X519008Y167226D01*
X518633D01*
G02X518280Y167815I0J400D01*
G03X515720I-1280J685D01*
G02X515367Y167226I-353J-189D01*
G01X502774D01*
X500900Y169100D01*
X500922Y169206D01*
G03X499206Y170922I-1422J294D01*
G01X499100Y170900D01*
X491000Y179000D01*
Y180636D01*
X491174Y180659D01*
G03Y183341I-174J1341D01*
G01X491000Y183364D01*
Y231737D01*
X491110Y231793D01*
G03X491465Y232053I-611J1206D01*
G02X492035I285J-281D01*
G03Y233947I965J947D01*
G02X491465I-285J281D01*
G03X491110Y234207I-966J-946D01*
G01X491000Y234263D01*
Y236000D01*
X490000Y237000D01*
Y252000D01*
X491000Y253000D01*
Y270000D01*
X487000Y274000D01*
X470000D01*
X466000Y270000D01*
X457000D01*
X456000Y271000D01*
Y279000D01*
X453500Y281500D01*
X400000D01*
X399500Y282000D01*
Y284000D01*
X400000Y284500D01*
X555000D01*
X556600Y284100D01*
X557150Y283850D01*
X559150Y281850D01*
X559600Y281150D01*
X560113Y279354D01*
X560100Y279000D01*
G37*
G36*
G01X411000Y130500D02*
X410000Y131500D01*
Y135500D01*
X411500Y137000D01*
X423693D01*
X428698Y142005D01*
G02X429369Y141819I283J-283D01*
G03X429788Y143164I1311J329D01*
G02X429124Y143464I-264J300D01*
G01Y143990D01*
G02X429555Y144389I400J0D01*
G03X431321Y148226I174J2245D01*
G01X429124Y150424D01*
Y155681D01*
G02X429788Y155981I400J0D01*
G03Y158013I892J1016D01*
G02X429124Y158313I-264J300D01*
G01Y162230D01*
X429393Y162499D01*
X429449Y162512D01*
G03X430539Y163602I-325J1415D01*
G01X430552Y163658D01*
X430892Y163998D01*
X433437D01*
X436973Y160462D01*
Y138542D01*
X431966Y133534D01*
X419779D01*
X418927Y134386D01*
X416411D01*
X412524Y130500D01*
X411000D01*
G37*
G36*
G01X470770Y82000D02*
G02X476830I3030J10500D01*
G01X470770D01*
G37*
%LPC*%
G75*
G36*
G01X54927Y150883D02*
G03Y150267I256J-308D01*
G02X53073I-927J-1117D01*
G03Y150883I-256J308D01*
G02X54927I927J1117D01*
G37*
G36*
G01X45980Y149571D02*
G03X46520I270J295D01*
G02X48480I980J-1071D01*
G03X49020I270J295D01*
G02Y147429I980J-1071D01*
G03X48480I-270J-295D01*
G02X46520I-980J1071D01*
G03X45980I-270J-295D01*
G02Y149571I-980J1071D01*
G37*
G36*
G01X27199Y183158D02*
G02X25801I-699J-1158D01*
G03Y183842I-206J342D01*
G02X27199I699J1158D01*
G03Y183158I206J-342D01*
G37*
G36*
G01X51443Y138789D02*
G02X50512Y137696I407J-1289D01*
G03X49983Y138131I-396J58D01*
G02X50929Y139242I-483J1369D01*
G03X51443Y138789I394J-72D01*
G37*
G36*
G01X37773Y134934D02*
G02X35698Y134709I-873J-1634D01*
G03X35627Y135366I-259J304D01*
G02X37702Y135591I873J1634D01*
G03X37773Y134934I259J-304D01*
G37*
G36*
G01X134858Y191458D02*
G03X134947Y191991I-246J315D01*
G02X134788Y192293I1552J1010D01*
G03X134256Y192505I-369J-153D01*
G02X135212Y194903I-756J1691D01*
G03X135744Y194691I369J153D01*
G02X137642Y191542I756J-1691D01*
G03X137553Y191009I246J-315D01*
G02X134858Y191458I-1553J-1009D01*
G37*
G36*
G01X119828Y172434D02*
G03X119845Y173038I-253J309D01*
G02X122272Y172966I1255J1362D01*
G03X122255Y172362I253J-309D01*
G02X119828Y172434I-1255J-1362D01*
G37*
G36*
G01X141924Y172442D02*
G02X141351Y170992I1276J-1342D01*
G03X140676Y171258I-399J-24D01*
G02X141249Y172708I-1276J1342D01*
G03X141924Y172442I399J24D01*
G37*
G36*
G01X364134Y113743D02*
G02X362976Y112896I166J-1443D01*
G03X362566Y113457I-365J164D01*
G02X363724Y114304I-166J1443D01*
G03X364134Y113743I365J-164D01*
G37*
G36*
G01X188925Y122227D02*
G03X189059Y122837I-177J359D01*
G02X191939Y125166I1441J1163D01*
G03X192561I311J251D01*
G02X195439I1439J-1166D01*
G03X196061I311J251D01*
G02Y122834I1439J-1166D01*
G03X195439I-311J-251D01*
G02X192561I-1439J1166D01*
G03X191939I-311J-251D01*
G02X191323Y122341I-1439J1166D01*
G03X191189Y121731I177J-359D01*
G02X190963Y119170I-1441J-1163D01*
G03Y118566I262J-302D01*
G02X188533I-1215J-1398D01*
G03Y119170I-262J302D01*
G02X188925Y122227I1215J1398D01*
G37*
G36*
G01X414349Y50105D02*
G02X411649Y51645I-1849J-105D01*
G03Y52355I-184J355D01*
G02Y55645I851J1645D01*
G03Y56355I-184J355D01*
G02X414349Y57895I851J1645D01*
G03X414971Y57540I399J-23D01*
G02X417849Y56101I1029J-1540D01*
G03X418382Y55746I399J22D01*
G02Y52254I618J-1746D01*
G03X417849Y51899I-134J-377D01*
G02X414971Y50460I-1849J101D01*
G03X414349Y50105I-223J-332D01*
G37*
G36*
G01X548645Y78649D02*
G02X545834Y80939I-1645J851D01*
G03Y81561I-251J311D01*
G02X548645Y83851I1166J1439D01*
G03X549355I355J184D01*
G02X552439Y84166I1645J-851D01*
G03X553061I311J251D01*
G02X555666Y81561I1439J-1166D01*
G03Y80939I251J-311D01*
G02X553061Y78334I-1166J-1439D01*
G03X552439I-311J-251D01*
G02X549355Y78649I-1439J1166D01*
G03X548645I-355J-184D01*
G37*
G36*
G01X575658Y149301D02*
G02Y150699I-1158J699D01*
G03X576342I342J206D01*
G02Y149301I1158J-699D01*
G03X575658I-342J-206D01*
G37*
G36*
G01X547199Y152158D02*
G02X545801I-699J-1158D01*
G03Y152842I-206J342D01*
G02X547199I699J1158D01*
G03Y152158I206J-342D01*
G37*
G36*
G01X538571Y182980D02*
G02X536429I-1071J-980D01*
G03Y183520I-295J270D01*
G02Y185480I1071J980D01*
G03Y186020I-295J270D01*
G02X536648Y188176I1071J980D01*
G03Y188824I-234J324D01*
G02X536402Y190951I852J1176D01*
G03X536394Y191483I-302J262D01*
G02X538606I1106J1017D01*
G03X538598Y190951I294J-270D01*
G02X538352Y188824I-1098J-951D01*
G03Y188176I234J-324D01*
G02X538571Y186020I-852J-1176D01*
G03Y185480I295J-270D01*
G02Y183520I-1071J-980D01*
G03Y182980I295J-270D01*
G37*
G36*
G01X518699Y204658D02*
G02X517301I-699J-1158D01*
G03Y205342I-206J342D01*
G02X518699I699J1158D01*
G03Y204658I206J-342D01*
G37*
G36*
G01X477061Y53834D02*
G03X476439I-311J-251D01*
G02X473834Y56439I-1439J1166D01*
G03Y57061I-251J311D01*
G02X476439Y59666I1166J1439D01*
G03X477061I311J251D01*
G02X479939I1439J-1166D01*
G03X480561I311J251D01*
G02X483166Y57061I1439J-1166D01*
G03Y56439I251J-311D01*
G02X480561Y53834I-1166J-1439D01*
G03X479939I-311J-251D01*
G02X477061I-1439J1166D01*
G37*
G36*
G01X539862Y108158D02*
G03Y107542I255J-308D01*
G02X538138I-862J-1042D01*
G03Y108158I-255J308D01*
G02X539862I862J1042D01*
G37*
G36*
G01X568535Y148053D02*
G03X567965I-285J-281D01*
G02Y149947I-965J947D01*
G03X568535I285J281D01*
G02Y148053I965J-947D01*
G37*
G36*
G01X582535Y149053D02*
G03X581965I-285J-281D01*
G02Y150947I-965J947D01*
G03X582535I285J281D01*
G02Y149053I965J-947D01*
G37*
G36*
G01X591752Y154326D02*
G03X591182I-285J-281D01*
G02X589270Y156238I-965J947D01*
G03Y156808I-281J285D01*
G02X591182Y158720I947J965D01*
G03X591752I285J281D01*
G02X593664Y156808I965J-947D01*
G03Y156238I281J-285D01*
G02X591752Y154326I-947J-965D01*
G37*
G36*
G01X519947Y173535D02*
G03Y172965I281J-285D01*
G02X518053I-947J-965D01*
G03Y173535I-281J285D01*
G02X519947I947J965D01*
G37*
G36*
G01X524947D02*
G03Y172965I281J-285D01*
G02X523053I-947J-965D01*
G03Y173535I-281J285D01*
G02X524947I947J965D01*
G37*
G36*
G01X522447Y196235D02*
G03Y195665I281J-285D01*
G02X520553I-947J-965D01*
G03Y196235I-281J285D01*
G02X522447I947J965D01*
G37*
G36*
G01X511947Y210535D02*
G03Y209965I281J-285D01*
G02X510053I-947J-965D01*
G03Y210535I-281J285D01*
G02X511947I947J965D01*
G37*
G36*
G01X538699Y220842D02*
G03Y220158I206J-342D01*
G02X537301I-699J-1158D01*
G03Y220842I-206J342D01*
G02X538699I699J1158D01*
G37*
G36*
G01X533995Y227054D02*
G03X534223Y227556I-150J371D01*
G02X536005Y226746I1277J444D01*
G03X535777Y226244I150J-371D01*
G02X533995Y227054I-1277J-444D01*
G37*
G54D40*
X495500Y269000D03*
G54D39*
X37000Y146000D03*
X144000Y167500D03*
X145743Y189077D03*
X139308Y215028D03*
X139379Y210432D03*
X150216Y222658D03*
Y216356D03*
X153366Y222657D03*
X148715Y211703D03*
X153366Y228956D03*
Y225807D03*
X154655Y233060D03*
X169643Y248813D03*
X166390Y255460D03*
X172896Y255177D03*
X178058Y255248D03*
X181240Y248802D03*
X184351Y255460D03*
X206506Y253000D03*
X197500D03*
X221296Y176751D03*
X218146Y170452D03*
Y176752D03*
Y173602D03*
Y179901D03*
X224446D03*
Y186202D03*
X221296Y183051D03*
X224446Y192502D03*
X218146Y224002D03*
X221296Y224001D03*
X224446Y220851D03*
Y227152D03*
X221296Y233451D03*
X224445Y230302D03*
X221296Y236602D03*
X224446Y233452D03*
X221296Y230302D03*
X218146Y236601D03*
X224446D03*
X218146Y227152D03*
Y233452D03*
Y239752D03*
X230746Y189352D03*
Y192501D03*
X227595Y186202D03*
X237046Y189352D03*
X240196Y192502D03*
X227595D03*
Y195651D03*
X233896Y201952D03*
X237046Y195652D03*
X240195Y208251D03*
X237045Y201952D03*
X240195Y198802D03*
X230746Y208251D03*
X227595Y201952D03*
X240196D03*
X237046Y198802D03*
X240196Y195651D03*
X237046Y208251D03*
X233896Y198802D03*
Y208252D03*
X227595Y217702D03*
X230746Y211402D03*
Y220852D03*
X233901Y220847D03*
X227595Y220851D03*
X240196Y217702D03*
X240195Y220852D03*
X237045Y211402D03*
X240201Y214547D03*
X233895Y214552D03*
X227596Y224001D03*
X230746Y217701D03*
X237046Y214552D03*
X227595Y211402D03*
X230746Y214552D03*
X237045Y217702D03*
X243345Y192502D03*
X249636Y208242D03*
X249645Y198802D03*
X243345Y195651D03*
Y201952D03*
X252795D03*
X255945Y208251D03*
X249646Y201952D03*
Y195651D03*
X243346Y198802D03*
X255946Y201952D03*
X252796Y198802D03*
X243345Y208252D03*
X252796Y208251D03*
X249646Y217702D03*
X252795D03*
X243345Y211402D03*
X252795D03*
X249645Y214552D03*
X255945D03*
Y220852D03*
X243346Y214552D03*
X249636Y211392D03*
X252791Y214547D03*
X255941Y211397D03*
X243345Y220851D03*
X249646D03*
X262246Y208251D03*
X262241Y220847D03*
X265396Y220851D03*
X265391Y217697D03*
X262241D03*
X259091Y214547D03*
X265396Y211402D03*
X265395Y214552D03*
X259096Y217702D03*
Y211402D03*
X370500Y111000D03*
X357500Y104500D03*
X360500Y112000D03*
X364475Y97975D03*
X353000Y100500D03*
X585000Y140000D03*
X581500D03*
X577500D03*
X574000D03*
X566000D03*
X569500D03*
X542000Y216000D03*
X537000Y210859D03*
X539500Y208890D03*
X538500Y215000D03*
X542200Y212500D03*
X537000Y206922D03*
X533500Y169000D03*
X518000Y213500D03*
X498500Y224000D03*
X502000Y210000D03*
X494795Y224000D03*
G54D37*
X32500Y135500D03*
G54D38*
X32000Y165500D03*
X31000Y173000D03*
X24500Y175000D03*
X32500Y186500D03*
X24500Y178500D03*
X32500Y179500D03*
X46300Y137550D03*
X48900Y133000D03*
X40500Y146000D03*
X36000Y169500D03*
X39004Y173000D03*
X43000Y180500D03*
X41000Y194500D03*
X56750Y128750D03*
X54000Y156000D03*
X51500Y179900D03*
X142800Y175600D03*
X188000Y255500D03*
X195250Y249750D03*
X371000Y102000D03*
X385000Y103700D03*
X364300Y106800D03*
X515500Y179000D03*
X502500Y216000D03*
X502000Y204000D03*
X504000Y190000D03*
X502000Y193500D03*
X501800Y177500D03*
X458000Y53500D03*
%LPD*%
G75*
G36*
G01X529829Y239600D02*
G02I-10929J0D01*
G37*
G54D10*
X-12000Y32000D03*
X450000Y173000D03*
G54D11*
X-15000Y18500D03*
X-15400Y30100D03*
Y50100D03*
Y40100D03*
Y60100D03*
Y80100D03*
Y70100D03*
Y90100D03*
Y110100D03*
Y100100D03*
X-15300Y223500D03*
Y213500D03*
Y233500D03*
X-15400Y254000D03*
X-15300Y243500D03*
X-15400Y268500D03*
X-15300Y273500D03*
X1500Y14500D03*
X-8500D03*
X-7500Y123000D03*
X-10000Y115800D03*
X-4000Y115500D03*
X-7500Y143000D03*
Y133000D03*
Y153000D03*
Y173000D03*
Y163000D03*
Y193000D03*
Y183000D03*
X-3500Y193500D03*
X-500D03*
X2522Y208500D03*
X-8000Y203500D03*
X-2000Y196000D03*
X-3500Y283500D03*
X11500Y14500D03*
X9000Y119033D03*
X7800Y129264D03*
X10300Y125964D03*
X7800Y142464D03*
Y144964D03*
X11300Y142964D03*
X7800Y136964D03*
Y134464D03*
Y139464D03*
X11100Y145700D03*
X7800Y131764D03*
X11000Y159100D03*
Y156600D03*
Y168800D03*
X10500Y181000D03*
Y178500D03*
X4000Y187500D03*
X7000D03*
X5500Y190000D03*
X14500Y203500D03*
X14000Y283500D03*
X4000D03*
X21500Y14500D03*
X31500D03*
X33114Y62065D03*
X21571Y70596D03*
X32000Y165500D03*
X31000Y173000D03*
X24500Y175000D03*
X21000Y185564D03*
X22500Y193000D03*
X32500Y186500D03*
X24500Y178500D03*
X32500Y179500D03*
X32000Y200000D03*
Y202500D03*
X19500Y203500D03*
Y200000D03*
X22500Y195500D03*
Y198000D03*
X35000Y247000D03*
Y244500D03*
Y242000D03*
X34000Y283500D03*
X24000D03*
X41500Y14500D03*
X37000Y20000D03*
X41500D03*
X43500Y30000D03*
X40500D03*
X44500Y39500D03*
X39600Y41400D03*
X46400Y66500D03*
X46300Y107300D03*
X47900Y109200D03*
X35300Y109592D03*
X39000Y109800D03*
X43000Y108300D03*
X43500Y116300D03*
X49500Y139500D03*
X46300Y137550D03*
X48900Y133000D03*
X47500Y148500D03*
X50000D03*
X45000D03*
X40500Y146000D03*
X36000Y169500D03*
X39004Y173000D03*
X43000Y180500D03*
X41000Y194500D03*
X48000Y206500D03*
X41000Y198500D03*
Y201500D03*
X37250Y210250D03*
X51500Y14500D03*
X61500D03*
X60000Y20000D03*
X64500Y87500D03*
X56750Y128750D03*
X60500Y122500D03*
X53308Y122708D03*
X63350Y130650D03*
X54000Y156000D03*
X53000Y159000D03*
Y161500D03*
X54000Y149150D03*
Y152000D03*
X58047Y176900D03*
X61300Y179900D03*
X61000Y186000D03*
X51500Y179900D03*
X61000Y200000D03*
Y197000D03*
X65000Y215500D03*
Y218000D03*
X62500D03*
X60500Y251900D03*
Y263000D03*
X71500Y14500D03*
X81500D03*
X80000Y20000D03*
X79000Y55000D03*
X75300Y51500D03*
X69958Y93542D03*
X75000Y95500D03*
X67400Y99300D03*
X68500Y170000D03*
X71500Y181500D03*
X81500Y207000D03*
X67500Y200000D03*
Y197500D03*
X82500Y210000D03*
X81000Y225500D03*
X70000Y228500D03*
X69700Y236550D03*
X77800Y282000D03*
X69500Y275800D03*
X72000D03*
X82000D03*
X79500D03*
X91500Y14500D03*
X90000Y30000D03*
X95900Y50000D03*
X98000Y56500D03*
X90500Y107000D03*
Y111000D03*
X92500Y143000D03*
X96441Y140100D03*
X92000Y175000D03*
X97000Y167000D03*
X87500Y207000D03*
X91000D03*
X84000Y199500D03*
X84800Y217000D03*
X94350Y227650D03*
X94500Y244000D03*
X94000Y252000D03*
X96500D03*
X98400Y258500D03*
X88000Y258000D03*
X95350Y258500D03*
X92500Y275500D03*
X97300D03*
X87500D03*
X109000Y14500D03*
X99000D03*
X100000Y20000D03*
X112500Y65500D03*
X107500Y56500D03*
X102000Y71150D03*
X112500Y73500D03*
X105500Y105800D03*
X104000Y140500D03*
X107000D03*
Y135500D03*
X99000Y147500D03*
X100500Y158350D03*
X111000Y160150D03*
X110850Y152200D03*
X106000Y151121D03*
X103533Y207000D03*
X100000Y206500D03*
X108633Y207152D03*
X111050Y200450D03*
X101000Y202500D03*
X107500Y251500D03*
X108000Y279000D03*
X102500Y282000D03*
X108000Y282500D03*
X119000Y14500D03*
X120000Y20000D03*
X129000Y36500D03*
X125000D03*
X129000Y41000D03*
X125000D03*
X129000Y45000D03*
X125000D03*
X115000Y73500D03*
X122500Y74000D03*
X128550Y142550D03*
X123650Y143250D03*
X116500Y132600D03*
X121500Y157500D03*
X128900Y147400D03*
Y151400D03*
X121950Y200550D03*
X124900Y209900D03*
X129669Y214931D03*
X125000Y218000D03*
X121315Y218300D03*
X121355Y224500D03*
X115000Y228500D03*
X117000Y250500D03*
X126000Y258000D03*
X134500Y14500D03*
X133000Y36500D03*
Y41000D03*
Y45000D03*
X132000Y65500D03*
X133165Y71165D03*
X141500Y82500D03*
X138800Y112968D03*
X142800Y175600D03*
X143692Y234686D03*
X149000Y14500D03*
X159000D03*
X153000Y29000D03*
X160000Y20000D03*
X155720Y49220D03*
X150365Y104468D03*
X151000Y170600D03*
X156700Y174200D03*
X169000Y14500D03*
X170000Y30000D03*
X164000Y49000D03*
X176000Y84500D03*
X168200Y84868D03*
X170450Y91018D03*
X164200Y108700D03*
X163800Y119518D03*
X168500Y178000D03*
X179000Y14500D03*
X189000D03*
X180000Y20000D03*
X188500Y51500D03*
X184000Y52000D03*
X183500Y104500D03*
Y101500D03*
Y107500D03*
X181700Y157400D03*
X188000Y255500D03*
X204000Y15000D03*
X206500Y26000D03*
X197433Y26520D03*
X209000Y46000D03*
X206500Y36500D03*
X209500Y79800D03*
X205500Y132000D03*
X205000Y164500D03*
X202222Y241880D03*
X195250Y249750D03*
X219000Y46000D03*
X224500Y74500D03*
X217448Y112968D03*
X223800Y129300D03*
X211000Y128750D03*
X223800Y139700D03*
X222050Y144050D03*
X215100Y135200D03*
Y144700D03*
X221250Y157750D03*
X213696Y165672D03*
X226989Y246000D03*
X226217Y249611D03*
X239000Y46000D03*
X229000D03*
X241000Y84500D03*
X229013Y104468D03*
X227200Y129800D03*
X238946Y155054D03*
X235666Y146355D03*
X232858Y250089D03*
X257500Y46000D03*
X249000D03*
X252850Y81100D03*
X244000Y81000D03*
X243400Y108000D03*
X242448Y110568D03*
X243000Y132000D03*
Y137000D03*
Y151500D03*
X256046Y160450D03*
X249500Y283500D03*
X271500Y46500D03*
X272700Y74500D03*
X267000Y84900D03*
X261000Y105000D03*
X260000Y160500D03*
X271500Y160501D03*
X259500Y283500D03*
X287500Y46000D03*
X282500D03*
X284500Y75000D03*
X280800Y74500D03*
X285150Y133000D03*
X288850Y132850D03*
X280500Y160415D03*
X297500Y46000D03*
X294000Y64500D03*
X294500Y78700D03*
X296148Y112968D03*
X291550Y141000D03*
X291500Y151000D03*
X295435Y166500D03*
X299500D03*
X305000D03*
X295500Y254500D03*
X295100Y252400D03*
X299800Y282900D03*
X305000Y283500D03*
X322000Y48500D03*
X307500Y46000D03*
X321000D03*
X322056Y74444D03*
X321800Y107900D03*
X307713Y104468D03*
X321600Y110600D03*
X312000Y166500D03*
X318984Y266000D03*
X313079D03*
X315000Y283500D03*
X327500Y46000D03*
X337500D03*
X325500Y84244D03*
X327798Y91018D03*
X337000Y257800D03*
X324890Y266000D03*
X335000Y283500D03*
X325000D03*
X347500Y46000D03*
X349500Y63500D03*
X350500Y84500D03*
X353500D03*
X347500Y208500D03*
X348000Y223500D03*
X348500Y226500D03*
X352000Y277500D03*
X364500Y15500D03*
X362500Y29000D03*
Y21500D03*
X365000Y31500D03*
X368000D03*
X362500Y32500D03*
Y37000D03*
Y41000D03*
X357500Y46000D03*
X355500Y63500D03*
X358500D03*
X364300Y106800D03*
Y112300D03*
X362400Y114900D03*
X368300Y202500D03*
Y208000D03*
Y205000D03*
X357200Y203800D03*
X363750Y228850D03*
X359500Y238000D03*
X367500Y232500D03*
X355000Y252500D03*
X355500Y270000D03*
X370500Y14500D03*
X383000D03*
X377000D03*
X380000D03*
Y17000D03*
X383000D03*
X372500Y26500D03*
X376000Y20500D03*
Y24500D03*
X385500Y111500D03*
X371000Y102000D03*
X385000Y103700D03*
X383275Y115775D03*
X383000Y176000D03*
X385500Y178000D03*
X371000Y208000D03*
X382500Y201000D03*
X380694Y209118D03*
X380878Y211812D03*
X377500Y215000D03*
X372500Y219500D03*
X378000D03*
X370500Y215500D03*
X378000Y225500D03*
X379400Y228600D03*
X379544Y231556D03*
X377000Y250500D03*
X383000Y242000D03*
X384000Y248000D03*
X381000Y250000D03*
X380300Y271700D03*
X370800Y269500D03*
X372000Y258250D03*
X379900D03*
X377200Y269500D03*
X399000Y100000D03*
X389500Y100500D03*
X387000Y101500D03*
X389000Y104000D03*
X391500Y103000D03*
X392500Y192000D03*
X400748Y201696D03*
X394500Y244000D03*
X400000Y256000D03*
X401000Y244200D03*
X392000Y269500D03*
X401000Y283000D03*
X396000Y276500D03*
X417528Y114219D03*
X405743Y114243D03*
X416113Y171988D03*
X402600Y199600D03*
X407000Y196000D03*
X404900Y201700D03*
X402980Y246500D03*
X414500Y244000D03*
X411000Y248000D03*
X410700Y244200D03*
X406549Y246521D03*
X404720Y244056D03*
X411000Y283000D03*
X425350Y106350D03*
X431600Y105000D03*
X429124Y163927D03*
X418689Y172798D03*
X430710Y177920D03*
X420285Y183938D03*
X423000Y209500D03*
X433500Y195000D03*
X418500Y201000D03*
X426500Y203000D03*
X431000D03*
X428500Y194000D03*
X425200Y212100D03*
X430500Y225000D03*
X425080Y222000D03*
X422600Y231556D03*
X430500Y236000D03*
X430000Y252500D03*
Y242200D03*
X418000Y256000D03*
X431000Y283000D03*
X421000D03*
X447500Y15000D03*
Y22500D03*
Y29500D03*
Y35500D03*
Y41500D03*
Y47000D03*
X442500Y103700D03*
X445500Y103800D03*
X440500Y123500D03*
X438500Y125107D03*
X446150Y115350D03*
X441500Y168000D03*
Y163500D03*
X445645Y168000D03*
X449200Y182800D03*
X437000Y184500D03*
X446500Y208500D03*
X436000Y195000D03*
X434500Y197500D03*
X437300Y203000D03*
X441500Y208500D03*
X438250Y210250D03*
X438650Y225150D03*
X437000Y236500D03*
X443500Y236742D03*
X439500Y272500D03*
X434000D03*
X455000Y14500D03*
X464000D03*
X464500Y21000D03*
X455500D03*
X452500Y39500D03*
Y44000D03*
X462500Y51500D03*
X458000Y53500D03*
X450963Y123963D03*
X451850Y115550D03*
X451750Y119250D03*
X455000Y123500D03*
X457000Y136500D03*
X454500Y133500D03*
X463000Y145000D03*
X450663Y133663D03*
X460500Y134500D03*
X454000Y161500D03*
X456000Y168000D03*
X462700Y181000D03*
X461500Y190000D03*
X462500Y178000D03*
X456200Y182900D03*
X451500Y208500D03*
X461500Y196000D03*
X461508Y209580D03*
X452500Y195000D03*
X453000Y239500D03*
X451300Y253400D03*
X452000Y272500D03*
X457000D03*
X471000Y14500D03*
X479000D03*
X471500Y21000D03*
X478500D03*
X467000Y106500D03*
X476500Y107000D03*
X472000Y106800D03*
X474000Y128500D03*
X470001Y132999D03*
X472496Y145000D03*
X478500Y156500D03*
X470650Y153650D03*
X467500Y165000D03*
X471500Y168000D03*
X481500Y169500D03*
X475500Y168000D03*
X477500Y203000D03*
X473000D03*
X467950Y223680D03*
X473112Y223280D03*
X473000Y230500D03*
X478000Y258500D03*
X476000Y265500D03*
X477000Y283000D03*
X467000D03*
X477553Y275553D03*
X471500Y279000D03*
X489000Y14500D03*
X492500Y31500D03*
X488000Y32500D03*
X489000Y21000D03*
X482000Y30000D03*
X485000D03*
X488000D03*
X485000Y32500D03*
X482000D03*
Y35000D03*
X485000D03*
X488000D03*
X482000Y37500D03*
X485000D03*
X488000D03*
X482000Y63500D03*
X485000D03*
X488000D03*
X494000D03*
X491000D03*
X497000D03*
X486500Y85500D03*
X488500Y89000D03*
X494500Y105000D03*
X495311Y109500D03*
X488000Y106000D03*
X482000Y106500D03*
X495000Y116000D03*
X488800Y143350D03*
X495100Y130500D03*
X489000Y135000D03*
X497250Y160000D03*
X488250D03*
X490500Y169500D03*
X486000D03*
X496500D03*
X482000Y193500D03*
Y203000D03*
Y208000D03*
Y198500D03*
X491500Y203000D03*
X486500D03*
X482970Y223242D03*
X488860D03*
X482000Y212000D03*
X486000Y230500D03*
X489500Y254500D03*
X490550Y242950D03*
X486000Y258000D03*
X497000Y283000D03*
X487000D03*
X499000Y14500D03*
X509000D03*
X499500Y21000D03*
X502500Y64500D03*
X500000Y63500D03*
X504500Y73500D03*
X506000Y108740D03*
X513000Y124500D03*
X506500Y125000D03*
X513000Y118084D03*
X498000Y121000D03*
X498700Y135000D03*
X500500Y130350D03*
X506000Y160000D03*
X499500Y169500D03*
X501800Y177500D03*
X502000Y193500D03*
X504000Y190000D03*
X502000Y204000D03*
X502500Y216000D03*
X507000Y221500D03*
X504350Y234150D03*
X504950Y252050D03*
X507000Y283000D03*
X500700Y275700D03*
X529000Y15000D03*
X519000Y14500D03*
X515700Y105500D03*
X524500Y106000D03*
X522300Y114500D03*
Y117500D03*
X528000Y144000D03*
Y140500D03*
X521000Y147500D03*
X517000Y168500D03*
X524000Y165500D03*
X515500Y179000D03*
X514000Y184500D03*
Y187000D03*
X524000Y189500D03*
X519000Y179000D03*
X524000Y196000D03*
X525000Y216500D03*
X528000Y213500D03*
Y227500D03*
X517000Y283000D03*
X527000D03*
X533500Y20500D03*
Y32000D03*
Y49000D03*
Y59000D03*
X543000Y75500D03*
X536500Y72500D03*
X535000Y103750D03*
X542500Y128000D03*
X532500Y155500D03*
X537500Y192500D03*
Y190000D03*
Y187000D03*
Y184500D03*
Y182000D03*
Y202500D03*
Y195500D03*
Y198000D03*
Y200000D03*
X531500Y248000D03*
X541500D03*
X537000Y283000D03*
X561000Y75500D03*
X547000Y97150D03*
X559000Y91000D03*
X553000Y124500D03*
X559000Y128000D03*
X554000Y121500D03*
X557500Y118000D03*
X559000Y168000D03*
Y178000D03*
Y186000D03*
Y198000D03*
Y218000D03*
Y238000D03*
Y228000D03*
X551500Y248000D03*
X559000D03*
Y258000D03*
Y268000D03*
X547000Y283000D03*
X555000D03*
X559000Y278000D03*
X575000Y76000D03*
X563000Y140000D03*
X570000Y161500D03*
X562500Y164500D03*
X578000Y108500D03*
X581000Y125500D03*
X578000Y116000D03*
X589500Y129000D03*
X592500Y161362D03*
X583500Y161500D03*
X601500Y136000D03*
X600000Y130000D03*
X601500Y155000D03*
X597000Y161500D03*
G54D20*
X140957Y36996D03*
X198043D03*
G54D30*
G01X46505Y77495D02*
X7495D01*
X-6000Y64000D01*
Y61000D01*
G01X39600Y41400D02*
X40700Y42500D01*
X58500D01*
X85000Y69000D01*
X113000D01*
X115000Y71000D01*
X124000D01*
X128000Y75000D01*
X143500D01*
X152000Y83500D01*
G01X113500Y100000D02*
X113400Y100100D01*
Y111400D01*
X121518Y119518D01*
X163800D01*
G01X111000Y182500D02*
Y192000D01*
X103900Y199100D01*
X101100D01*
G01X170450Y91018D02*
X162018D01*
X154500Y83500D01*
X152000D01*
G01X170450Y91018D02*
Y91950D01*
X174500Y96000D01*
X184000D01*
X188000Y92000D01*
X196500D01*
X204000Y84500D01*
X241000D01*
G01X242448Y110568D02*
X202568D01*
X192588Y100588D01*
X192068D01*
X192048Y100568D01*
G54D21*
X159657Y30500D03*
X179343D03*
G54D12*
X-13000Y262500D03*
Y265500D03*
X2000Y218000D03*
Y221000D03*
Y224000D03*
X-3500Y220500D03*
Y223500D03*
X-9500Y235500D03*
Y232500D03*
X-7500Y238500D03*
X-9500Y229500D03*
X-11000Y245500D03*
X-8000D03*
Y249000D03*
Y252000D03*
Y255000D03*
X2500Y271500D03*
Y268500D03*
X2000Y264500D03*
Y261500D03*
X2500Y274500D03*
X-4000Y275000D03*
Y278000D03*
X18000Y218000D03*
X15000D03*
X8000D03*
X5000D03*
X18500Y233500D03*
Y237000D03*
Y230000D03*
X6000Y253500D03*
Y257000D03*
X9000Y253500D03*
Y257000D03*
X8500Y274500D03*
X5500D03*
X11500D03*
X14500D03*
X17500D03*
X31000Y224500D03*
X21000Y218000D03*
X21500Y233500D03*
Y237000D03*
Y230000D03*
X31000Y231000D03*
Y228000D03*
X19500Y271000D03*
Y268000D03*
X29500Y269000D03*
Y266000D03*
X21000Y274500D03*
X75500Y267500D03*
X72500D03*
X79500D03*
X82500D03*
X74500Y282000D03*
X71500D03*
X96000Y267500D03*
Y264500D03*
X91500D03*
Y267500D03*
X123500Y273500D03*
X120500D03*
X123500Y277300D03*
X120500D03*
G54D31*
G01X270748Y100568D02*
X273768D01*
X283200Y110000D01*
X321000D01*
X321600Y110600D01*
G54D22*
X272500Y274100D03*
G54D13*
X-2000Y59000D03*
X2000Y63000D03*
X-2000D03*
X-6000Y61000D03*
X2000Y59000D03*
X-5000Y86000D03*
X-9000D03*
X-5000Y94000D03*
X-9000D03*
X-5000Y90000D03*
X-9000D03*
X2500Y87000D03*
X6000D03*
X9500D03*
X7000Y91000D03*
X3000D03*
X32500Y135500D03*
X21000Y134000D03*
X25000D03*
X36500Y137000D03*
X36900Y133300D03*
X61000Y59500D03*
X64500D03*
X61350Y110000D03*
X61096Y113300D03*
X60400Y104300D03*
X59421Y116028D03*
X68000Y59500D03*
X70500Y111000D03*
Y121500D03*
Y132500D03*
X68000Y152000D03*
X76000Y175000D03*
X79000Y173500D03*
Y177000D03*
X78000Y193500D03*
X80000Y196600D03*
X76000D03*
X91000Y36000D03*
X102811D03*
X113500Y87500D03*
X110000D03*
Y91000D03*
X113500D03*
X110500Y97000D03*
X113500D03*
X107000Y113000D03*
X110500Y100500D03*
X113500Y100000D03*
X110500Y104000D03*
X114000Y123668D03*
X107000Y116500D03*
Y120000D03*
X127500Y81500D03*
X123000Y87500D03*
X117400Y123668D03*
X120600D03*
X127800Y131500D03*
X127500Y159900D03*
X127400Y163000D03*
X121000Y171000D03*
X121100Y174400D03*
X131000Y81500D03*
X136000Y81265D03*
X130900Y131500D03*
X143200Y171100D03*
X139400Y172600D03*
X136000Y190000D03*
X136500Y193000D03*
X133500Y194196D03*
X157800Y166600D03*
X154400Y166700D03*
X177900Y143400D03*
X182000Y89500D03*
Y93000D03*
X178500D03*
Y89500D03*
X189000Y86000D03*
X192000Y84000D03*
Y88000D03*
X191948Y97368D03*
X189000Y96500D03*
X192048Y100568D03*
X189000Y99500D03*
Y102500D03*
X189748Y117168D03*
X190500Y124000D03*
X189748Y120568D03*
X194000Y124000D03*
X179800Y140500D03*
X180200Y151300D03*
X178600Y148700D03*
X199500Y84000D03*
X195500D03*
X197500Y124000D03*
X255000Y93000D03*
X258000D03*
X260000Y89500D03*
X261200Y93045D03*
X271000Y89000D03*
X270500Y85000D03*
X267500Y89000D03*
X270548Y94068D03*
X267848Y95668D03*
X270648Y97368D03*
X267848Y99068D03*
X270748Y100568D03*
X268100Y123600D03*
X268574Y120200D03*
X271348Y123668D03*
X277500Y85000D03*
X274000D03*
X274748Y123668D03*
X277948D03*
X336000Y85500D03*
Y92500D03*
Y89000D03*
X339500Y85500D03*
Y89000D03*
Y92500D03*
X363000Y63500D03*
X366500D03*
X359163Y83500D03*
X398000Y15500D03*
X391500D03*
X390000Y48500D03*
Y52500D03*
X393500Y55500D03*
X397000Y52000D03*
Y55500D03*
X393500Y51000D03*
X386500Y92500D03*
Y96500D03*
X411000Y15500D03*
X405500D03*
X416000Y20500D03*
X411000D03*
X416000Y52000D03*
Y56000D03*
X412500Y50000D03*
Y58000D03*
Y54000D03*
X417000Y69000D03*
X426500Y16500D03*
X421000Y20500D03*
X426500D03*
X419000Y54000D03*
X424000Y69000D03*
X420500D03*
X420639Y181039D03*
X478500Y55000D03*
X475000D03*
Y58500D03*
X478500D03*
X482000Y55000D03*
Y58500D03*
X511000Y65500D03*
X507500D03*
Y69000D03*
X511000D03*
X515500Y28500D03*
X519000D03*
X522500D03*
X526000D03*
X514500Y66500D03*
Y70000D03*
X529500Y28500D03*
X554500Y79500D03*
X551000D03*
X547000D03*
X554500Y83000D03*
X551000D03*
X547000D03*
G54D32*
G01X46400Y66500D02*
X42304Y70596D01*
X21571D01*
G01X95000Y178000D02*
Y197000D01*
X98450Y200450D01*
G01X110000Y91000D02*
X107593Y93408D01*
X105500Y99149D01*
Y105800D01*
G01X243400Y108000D02*
X245400Y110000D01*
Y111700D01*
X244132Y112968D01*
X217448D01*
G01X321800Y107900D02*
X323700D01*
X324940Y109140D01*
Y111660D01*
X323632Y112968D01*
X296148D01*
G01X441500Y173968D02*
Y173000D01*
X439215Y170715D01*
X431670D01*
X425023Y164068D01*
G54D14*
X14827Y30000D03*
X17976D03*
X7000Y110500D03*
X11500Y104000D03*
Y101500D03*
X13500Y103000D03*
X11000Y174500D03*
X10500Y184000D03*
X21126Y30000D03*
X24276D03*
X27425D03*
X30575Y30075D03*
X21000Y171500D03*
Y169000D03*
X26500Y182000D03*
Y185000D03*
X21700Y265500D03*
X49358Y47500D03*
X46505Y77495D03*
X46150Y125850D03*
X37000Y146000D03*
X35500Y208000D03*
X65500Y122500D03*
X51850Y137500D03*
X61500Y159000D03*
X60000Y205500D03*
X59500Y218000D03*
X62500Y209500D03*
X60000Y209000D03*
Y212036D03*
Y215000D03*
Y221500D03*
Y224000D03*
Y235000D03*
Y230000D03*
Y232500D03*
Y237500D03*
Y240000D03*
X54200Y254500D03*
X65500Y256200D03*
X60500Y254500D03*
X52000Y265800D03*
X54200Y264500D03*
Y267000D03*
Y257000D03*
X60500D03*
X66000Y262500D03*
Y272000D03*
X63500D03*
X51800Y275800D03*
X54200Y274500D03*
Y277000D03*
X60500D03*
Y274500D03*
X79189Y36500D03*
X81500Y51500D03*
X78000D03*
X77500Y87500D03*
X71500Y170000D03*
Y184500D03*
Y191500D03*
Y188500D03*
Y195000D03*
X77500Y255500D03*
X75000D03*
X68000Y256200D03*
X75000Y262500D03*
X68500D03*
X77500D03*
X80500Y282000D03*
X89500Y50000D03*
X92000D03*
X82500Y100000D03*
X95000Y178000D03*
X84000Y202500D03*
X84500Y207000D03*
X94533Y217400D03*
X87500Y217000D03*
X90100Y217100D03*
X87000Y227500D03*
X87495Y239984D03*
X93500Y235262D03*
X87000Y235000D03*
Y230000D03*
X87400Y244706D03*
X86000Y250200D03*
X90700Y258000D03*
X90500Y282000D03*
X93000D03*
X95500D03*
X83000D03*
X98000D03*
X88000D03*
X85500D03*
X104500Y56500D03*
X101000D03*
X103500Y79500D03*
X105500Y78500D03*
X105498Y80501D03*
X105000Y71150D03*
X101000Y126000D03*
X104900Y188600D03*
X108400D03*
X101400D03*
X104900Y191100D03*
Y186100D03*
X111000Y182500D03*
X101100Y199100D03*
X98450Y200450D03*
X108633Y218000D03*
X109071Y221489D03*
X113500Y216500D03*
X103500Y217100D03*
X100000Y219500D03*
X104300Y221300D03*
X105500Y218900D03*
X105600Y266500D03*
X108000D03*
X106000Y261000D03*
X103500D03*
X100600D03*
X112000Y263500D03*
X110000Y265000D03*
X105895Y258500D03*
X107700Y263000D03*
X100600Y266500D03*
X103100D03*
X99500Y274000D03*
X104700D03*
X102700Y275600D03*
X116000Y66500D03*
X125300Y205300D03*
X117000Y221500D03*
X124957Y224143D03*
X114200Y221500D03*
X128500Y227233D03*
X127338Y235453D03*
X128500Y230545D03*
X124800Y236882D03*
X125584Y227316D03*
X124681Y243160D03*
X128000Y242000D03*
X128600Y251400D03*
X129200Y245600D03*
X124300Y254282D03*
X125600Y250000D03*
X128912Y248119D03*
X120000Y263500D03*
X114000Y265000D03*
X122000Y265500D03*
X118000Y265000D03*
X123910Y263590D03*
X116000Y263500D03*
X144000Y167500D03*
X145743Y189077D03*
X139379Y210432D03*
X139308Y215028D03*
X142844Y230906D03*
X130500Y234000D03*
Y237000D03*
X131500Y240300D03*
X143480Y255318D03*
X159000Y58500D03*
X156500D03*
X149500Y58000D03*
X152500Y58500D03*
X152000Y83500D03*
X160352Y81648D03*
X153366Y181710D03*
X150216Y188008D03*
Y191159D03*
X161653Y193108D03*
X153366Y191158D03*
X150216Y184860D03*
Y181709D03*
X156516D03*
X153366Y184860D03*
X156516Y191158D03*
X153366Y188009D03*
X159584Y191076D03*
X160168Y187522D03*
X150216Y206906D03*
X156516Y200608D03*
X150216Y194307D03*
X153366Y194308D03*
X150216Y200608D03*
Y197458D03*
X153366Y200608D03*
X156516Y197458D03*
Y194307D03*
Y206906D03*
X153366Y206907D03*
Y197457D03*
Y219508D03*
X153365Y216358D03*
X153366Y213207D03*
X150216Y222658D03*
X153366Y210058D03*
X150216Y216356D03*
X156516Y216358D03*
X153366Y222657D03*
X160097Y222099D03*
X156545Y222682D03*
X148715Y211703D03*
X156516Y210057D03*
Y213207D03*
X149349Y228605D03*
X149278Y225706D03*
X149300Y231604D03*
X156516Y228953D03*
X153366Y228956D03*
Y225807D03*
X154655Y233060D03*
X146662Y248943D03*
X157976Y248884D03*
X161158Y255318D03*
X154794D03*
X149985D03*
X175000Y33000D03*
X168000D03*
X172500D03*
X175000Y48500D03*
X171536D03*
X177536Y51500D03*
X169464D03*
X166000D03*
X166500Y79500D03*
X175417Y184857D03*
Y191156D03*
X172266Y184861D03*
X175845Y181235D03*
X171623Y177905D03*
X172331Y191200D03*
X172177Y188102D03*
X175416Y188007D03*
X175414Y203758D03*
X175416Y194306D03*
Y197455D03*
X172259Y203715D03*
X172266Y194306D03*
X175416Y200606D03*
X169007Y200320D03*
X165754Y199755D03*
X175416Y213205D03*
X175417Y210057D03*
X175416Y222655D03*
X172259Y222665D03*
X168314Y220276D03*
X175416Y219509D03*
X166107Y218352D03*
X172266Y210057D03*
Y213205D03*
X175417Y216356D03*
X172224Y225882D03*
X175416Y228954D03*
Y225805D03*
X165966Y232070D03*
X172047Y232352D03*
X169643Y248813D03*
X178058Y255248D03*
X172896Y255177D03*
X166390Y255460D03*
X185500Y33000D03*
X192000Y33500D03*
X187000Y49000D03*
X183536D03*
X181000Y51500D03*
X186250Y88079D03*
X178566Y181707D03*
Y188006D03*
Y184857D03*
X178562Y203757D03*
X178566Y197455D03*
Y194305D03*
Y200605D03*
X178562Y222653D03*
X178564Y219506D03*
X187745Y210432D03*
X178566Y210057D03*
X180496Y228903D03*
X180391Y225761D03*
X180496Y232282D03*
X186500Y232500D03*
Y235000D03*
X181240Y248802D03*
X184351Y255460D03*
X206000Y170500D03*
X208605Y224362D03*
X204645Y225635D03*
X206506Y253000D03*
X197500D03*
X206506Y264000D03*
X209016Y262000D03*
X221500Y147000D03*
X224700Y147500D03*
X223700Y150318D03*
Y153782D03*
X221296Y176751D03*
X218146Y170452D03*
Y176752D03*
X214996Y170452D03*
X218146Y173602D03*
X224445D03*
X211845Y170452D03*
X214995Y173602D03*
X214996Y176752D03*
X224446D03*
X211846Y173602D03*
X224446Y170452D03*
X221296Y192501D03*
X211846Y179902D03*
X218146Y179901D03*
X224446Y186202D03*
Y179901D03*
X214995Y192501D03*
Y179902D03*
X224446Y192502D03*
X221296Y183051D03*
X214996Y186202D03*
X211845Y192502D03*
X211846Y183051D03*
X214995D03*
X218146Y192502D03*
X211845Y186202D03*
X218146D03*
X214995Y189352D03*
X211846D03*
X221296Y195652D03*
X224445Y198802D03*
X215018Y208226D03*
X224446Y208252D03*
X214995Y198802D03*
X221295Y201952D03*
X214996D03*
X218146Y198802D03*
X211846D03*
X224446Y201952D03*
X221296Y208251D03*
X214995Y195652D03*
X211845Y195651D03*
Y201952D03*
X218146D03*
Y208252D03*
X211846Y208251D03*
X221296Y198802D03*
X218146Y195651D03*
Y217702D03*
Y224002D03*
X224446Y217702D03*
X221296Y224001D03*
X224445Y214552D03*
X214995Y220852D03*
X224446Y220851D03*
X214995Y214552D03*
X211845Y211402D03*
X218146D03*
X221296Y214552D03*
X211845Y217702D03*
X214996D03*
X224446Y211402D03*
X221296D03*
X218146Y220851D03*
X211846Y214552D03*
X218146D03*
X214996Y211402D03*
X214995Y224001D03*
X211846D03*
X221296Y217701D03*
X224446Y227152D03*
X221296Y233451D03*
X224445Y230302D03*
X221296Y236602D03*
X214995Y239752D03*
X224446Y233452D03*
X214995Y233451D03*
X224446Y236601D03*
X211846Y240000D03*
X218146Y236601D03*
X221296Y230302D03*
X214996Y227152D03*
X211845D03*
Y236601D03*
X211846Y230302D03*
X218146Y227152D03*
X211845Y233452D03*
X218146D03*
X214995Y236602D03*
Y230302D03*
X218146Y239752D03*
X219282Y252434D03*
X216100Y252788D03*
X222727Y252400D03*
X211050Y252801D03*
X210984Y264000D03*
X220000Y262000D03*
X213494D03*
X221984Y264000D03*
X217506D03*
X224494Y262000D03*
X239538Y49500D03*
X231500D03*
X228038D03*
X226750Y62000D03*
X232350D03*
X238650D03*
X228036Y74500D03*
X231500D03*
X240000D03*
X237150Y129650D03*
X230746Y164152D03*
Y173602D03*
X237045Y170452D03*
X237046Y173602D03*
X233896Y176752D03*
X241000Y166000D03*
X230746Y170452D03*
Y176751D03*
X240195Y173602D03*
X240196Y176752D03*
X237045D03*
X227595Y170452D03*
X227596Y173602D03*
X233895D03*
X233896Y170452D03*
X230746Y189352D03*
Y192501D03*
X227595Y186202D03*
X237046Y189352D03*
X233896Y183052D03*
X237045Y186202D03*
X240195Y183051D03*
X230746Y186202D03*
Y179902D03*
Y183051D03*
X233896Y179901D03*
X237046Y179902D03*
X240195D03*
X237046Y183051D03*
X240196Y192502D03*
X227596Y183051D03*
X227595Y192502D03*
Y179901D03*
Y195651D03*
X233896Y201952D03*
X227595Y208252D03*
X237046Y195652D03*
X240195Y208251D03*
X237045Y201952D03*
X240195Y198802D03*
X230746Y208251D03*
X237046D03*
X240196Y195651D03*
X237046Y198802D03*
X240196Y201952D03*
X227595D03*
X233896Y198802D03*
Y208252D03*
X227595Y217702D03*
X230746Y211402D03*
Y220852D03*
X233901Y220847D03*
X227595Y220851D03*
X240196Y217702D03*
X240195Y220852D03*
X240201Y214547D03*
X237045Y211402D03*
X233895Y214552D03*
X227596Y224001D03*
X233896Y224002D03*
X237046Y214552D03*
X230746Y217701D03*
X227595Y211402D03*
X230746Y214552D03*
X237045Y217702D03*
X240195Y224001D03*
X227595Y227152D03*
Y233452D03*
X237045Y227152D03*
X230746Y236602D03*
X227596Y230302D03*
X230746Y233451D03*
X240195Y230302D03*
X240196Y236601D03*
X233896D03*
X237046Y233451D03*
X233896Y233452D03*
X240196D03*
X230746Y230302D03*
X233896Y230301D03*
X227595Y236601D03*
X237046Y230302D03*
Y236602D03*
X230746Y227152D03*
X240196D03*
X228474Y251500D03*
X233604Y252829D03*
X241202Y252434D03*
X238374D03*
X226483Y253013D03*
X232995Y264008D03*
X231000Y262500D03*
X235494D03*
X228506Y264000D03*
X239506D03*
X255000Y49500D03*
X251538D03*
X243000D03*
X244250Y62000D03*
X250350D03*
X255950D03*
X243464Y74500D03*
X251536D03*
X255000D03*
X249000Y91500D03*
X256000Y88500D03*
X243050Y141800D03*
X257500Y157000D03*
X243000Y155350D03*
X243346Y173602D03*
X252796D03*
X245428Y165000D03*
X249645Y173602D03*
X255946Y176752D03*
Y170452D03*
X255945Y173602D03*
X252795Y176752D03*
X249646D03*
Y170452D03*
X252795D03*
X243345Y176752D03*
X249646Y186202D03*
Y183052D03*
X252796Y189352D03*
X255945Y192501D03*
X252796Y179902D03*
X249645Y189352D03*
X255945Y183051D03*
X252796D03*
X243345Y192502D03*
X255945Y189352D03*
X255946Y186202D03*
X243356Y183062D03*
X255945Y179902D03*
X249646Y179901D03*
X243345Y186202D03*
X249646Y192502D03*
X243345Y179901D03*
X249636Y208242D03*
X249645Y198802D03*
X243345Y195651D03*
Y201952D03*
X255945Y198802D03*
X252795Y201952D03*
Y195651D03*
X255945Y208251D03*
X252796D03*
X243345Y208252D03*
X252796Y198802D03*
X255946Y201952D03*
X255945Y195652D03*
X243346Y198802D03*
X249646Y195651D03*
Y201952D03*
Y217702D03*
X252795D03*
X249645Y214552D03*
X255945D03*
X243345Y211402D03*
X252795D03*
X255945Y220852D03*
Y224001D03*
X243345Y220851D03*
X255941Y211397D03*
X252791Y214547D03*
X249636Y211392D03*
X243346Y214552D03*
X249646Y220851D03*
X243345Y224002D03*
X252796Y224001D03*
X252845Y239801D03*
X249646Y236601D03*
X252795Y227152D03*
X243345Y236601D03*
Y233452D03*
X243346Y230302D03*
X255945Y233451D03*
X252795Y233452D03*
X255941Y227147D03*
X252795Y236601D03*
X243346Y227152D03*
X249646Y230302D03*
Y239752D03*
X255945Y236602D03*
X249646Y233452D03*
X255945Y230302D03*
X255694Y252827D03*
X244210Y252788D03*
X252162Y252829D03*
X248909Y252865D03*
X251000Y250500D03*
X256000Y241500D03*
X254500Y262500D03*
X253000Y266000D03*
X242016Y262540D03*
X256994Y266000D03*
X250100Y262500D03*
X246500Y262540D03*
X244024Y264030D03*
X267000Y47500D03*
X263538D03*
X262250Y62000D03*
X267850D03*
X263536Y74500D03*
X267000D03*
X264500Y140200D03*
X269200D03*
Y146100D03*
X264500D03*
X270500Y155500D03*
X271696Y176751D03*
X259096Y173602D03*
X271696D03*
X265395D03*
X265396Y176752D03*
X268545D03*
X259096Y170452D03*
X262246D03*
X259096Y176752D03*
X268546Y173602D03*
X271696Y170452D03*
X259096Y189351D03*
X271696Y186202D03*
X265396D03*
X271696Y192501D03*
X265396Y192502D03*
X271696Y183051D03*
X268546D03*
X271696Y189352D03*
X262246Y183051D03*
X259096Y186202D03*
X268545D03*
Y179901D03*
Y192502D03*
X271696Y179902D03*
X262246D03*
X265396Y179901D03*
X259096Y183052D03*
Y179901D03*
X262245Y186202D03*
X265396Y201952D03*
X271696Y195652D03*
X268546Y198802D03*
X262246Y208251D03*
X268545Y208252D03*
X265395Y198802D03*
X271696D03*
X265396Y208252D03*
X271696Y201952D03*
X268545D03*
X259096D03*
X271696Y208251D03*
X262245Y201952D03*
X262241Y220847D03*
X265396Y220851D03*
X265391Y217697D03*
X262241D03*
X262246Y211402D03*
Y224001D03*
X268546Y214552D03*
X268545Y220851D03*
X259091Y214547D03*
X271696Y224001D03*
Y220852D03*
X268546Y224001D03*
X271696Y211402D03*
X265396D03*
X268545D03*
X265395Y214552D03*
X271696D03*
Y217701D03*
X259096Y217702D03*
Y211402D03*
X259091Y223997D03*
X271696Y239752D03*
X265396Y227152D03*
X259096Y236601D03*
Y230301D03*
X271696Y236602D03*
Y227152D03*
X268545D03*
X265396Y236601D03*
X268546Y230302D03*
X259096Y227152D03*
X268545Y233452D03*
X262246Y230302D03*
X265396Y233452D03*
X262241Y236597D03*
X262246Y239752D03*
X259096Y233453D03*
Y239752D03*
X265395D03*
X262246Y233451D03*
X268541Y239747D03*
X268545Y236601D03*
X265395Y230302D03*
X262241Y227147D03*
X267000Y251500D03*
X259000Y253000D03*
X263500Y253120D03*
X261500Y250500D03*
X263600Y263300D03*
X267200Y261500D03*
X271900Y260400D03*
X260800Y264300D03*
X259500Y257000D03*
X278000Y47000D03*
X275500D03*
X273900Y62000D03*
X279600D03*
X286000D03*
X275500Y74500D03*
X278000D03*
X287500Y75000D03*
X281146Y176752D03*
X277995D03*
Y170452D03*
X274845Y173602D03*
X281145D03*
X277996D03*
X274846Y176752D03*
X281796Y170702D03*
X274846Y170452D03*
X281145Y179902D03*
X277996Y192501D03*
Y179902D03*
X277995Y186202D03*
X274846Y192502D03*
X281146D03*
X284273Y183075D03*
X274846Y186202D03*
X277996Y183051D03*
X281145D03*
X274846Y183052D03*
X277996Y189352D03*
X281145D03*
X274846Y189351D03*
X277996Y208251D03*
Y198802D03*
X274846Y201952D03*
X281145Y208251D03*
X274846Y208252D03*
Y198802D03*
X281145D03*
X277996Y195652D03*
X281146Y195651D03*
X277986Y205072D03*
X281137D03*
X274846Y195651D03*
X277996Y220852D03*
X274845Y214552D03*
X281146Y211402D03*
X277995D03*
X281145Y224001D03*
X274846Y224002D03*
X281145Y220852D03*
X281146Y217702D03*
X274846Y211402D03*
X281145Y214552D03*
X274846Y220851D03*
X277996Y214552D03*
X277995Y217702D03*
X274846D03*
X277996Y224001D03*
Y233451D03*
X274865Y239752D03*
X281145D03*
X277995Y227152D03*
X281146Y233452D03*
X277996Y239752D03*
X274846Y230301D03*
X281146Y227152D03*
X274846Y233452D03*
X281146Y236601D03*
X281145Y230302D03*
X274846Y227152D03*
X277996Y236602D03*
Y230302D03*
X276000Y249000D03*
X286100Y261000D03*
X281700Y260000D03*
X286100Y258100D03*
X287000Y278500D03*
X286000Y283000D03*
X302500Y49000D03*
X293000Y62000D03*
X298500Y61900D03*
X301400Y62000D03*
X290000D03*
X290560Y74440D03*
X298434Y74434D03*
X302580Y74500D03*
X295500Y150900D03*
X290500Y197500D03*
X298500D03*
X293000D03*
X296000D03*
X296710Y217150D03*
X303404Y217003D03*
X296357Y213685D03*
X298500Y254000D03*
X296600Y258100D03*
X290500Y263000D03*
X302000Y269000D03*
X297144Y276148D03*
X314580Y49000D03*
X318000D03*
X306000D03*
X307250Y62000D03*
X313300D03*
X319000D03*
X310245Y74500D03*
X306000D03*
X314500D03*
X317500D03*
X320000Y84350D03*
X317854Y182081D03*
X314704Y191530D03*
Y188380D03*
Y182081D03*
X317854Y191530D03*
X321003D03*
X317854Y185231D03*
X314704Y207278D03*
X321003Y200979D03*
X314703Y194679D03*
X317854D03*
X317853Y200979D03*
X321003Y194679D03*
X314704Y197829D03*
X314812Y201028D03*
X317854Y207278D03*
X321003D03*
X317853Y197829D03*
X321003D03*
X317854Y219879D03*
X313621Y222159D03*
X317854Y213579D03*
X317853Y216729D03*
X317854Y210429D03*
X311554Y210428D03*
X314703Y216728D03*
X321004Y223025D03*
X317853Y223029D03*
X311554Y213579D03*
X321003Y210429D03*
Y213579D03*
X321004Y216729D03*
X314483Y229549D03*
X314704Y226179D03*
X314502Y232678D03*
X321003Y226175D03*
X317854Y226178D03*
X321083Y229405D03*
X317810Y229302D03*
X307500Y268000D03*
X310000D03*
X314000Y268500D03*
X317000D03*
X320500D03*
X307000Y278000D03*
X310000D03*
X317000D03*
X314500D03*
X329685Y49000D03*
X326265D03*
X325150Y62000D03*
X330800D03*
X326500Y74500D03*
X329500D03*
X336754Y185232D03*
X326479Y181865D03*
X337015Y181794D03*
X336754Y188381D03*
X324712Y190704D03*
X324994Y186885D03*
X336754Y191531D03*
X328601Y195724D03*
X336754Y194677D03*
Y207278D03*
X324194Y197641D03*
X333656Y197882D03*
X330793Y197916D03*
X336754Y219878D03*
Y213577D03*
Y210428D03*
Y216727D03*
Y223026D03*
Y226177D03*
Y229325D03*
X324283Y229271D03*
X336754Y232475D03*
X333500Y258000D03*
X332500Y268500D03*
X323420D03*
X324500Y278000D03*
X322000D03*
X346500Y64000D03*
X344000D03*
X352500Y63500D03*
X353000Y100500D03*
X339904Y185229D03*
X343054Y188377D03*
X343429Y181703D03*
X339904Y191528D03*
X343054Y185228D03*
X339904Y188378D03*
X340228Y181755D03*
X344500Y205946D03*
X343054Y197826D03*
X339904Y207278D03*
X352293Y206822D03*
X343053Y194677D03*
X339904D03*
X343054Y200977D03*
X352333Y198244D03*
X339904Y197826D03*
Y200977D03*
X343054Y223026D03*
X339904Y213577D03*
Y210429D03*
X343054Y210428D03*
X339904Y223026D03*
Y219877D03*
Y216727D03*
X349506Y215006D03*
X343054Y229325D03*
X346703Y240979D03*
X343054Y226177D03*
X344500Y234500D03*
X343054Y232475D03*
X339904Y229325D03*
Y226176D03*
X340059Y232632D03*
X341500Y247800D03*
X352000Y253000D03*
X368237Y83763D03*
X364475Y97975D03*
X360500Y112000D03*
X357500Y104500D03*
X368000Y117000D03*
X367500Y218000D03*
X364000Y244500D03*
X369000Y271500D03*
X358500Y270000D03*
X364000Y258500D03*
X364100Y279970D03*
X370500Y111000D03*
X377000Y127261D03*
X372500Y125500D03*
X380000Y123451D03*
X379500Y128870D03*
X376500Y142072D03*
X380899Y144582D03*
Y137593D03*
X379000Y140103D03*
X380546Y159077D03*
X377000Y152000D03*
X380500Y154593D03*
X375936Y157532D03*
X376387Y168387D03*
X380000Y166000D03*
X375000Y173000D03*
X380192Y170356D03*
X382500Y191545D03*
X377350Y199150D03*
X384000Y198500D03*
X371000Y203000D03*
X379500Y235000D03*
X383000Y269000D03*
X374500Y269500D03*
X383000Y271700D03*
X379800Y282000D03*
X394516Y108500D03*
X400500Y110500D03*
X392006Y111000D03*
X397500Y110500D03*
X398860Y132249D03*
X399213Y139673D03*
Y155937D03*
X393557Y170786D03*
X394986Y169087D03*
X390000Y185500D03*
X397092D03*
X393500D03*
X400628Y185594D03*
X399000Y192000D03*
X396000Y197000D03*
X392844Y201955D03*
X396780Y201280D03*
X388908Y201500D03*
X390000Y198000D03*
X390500Y244000D03*
X395000Y269500D03*
X417250Y131536D03*
X407345Y131542D03*
X411588D03*
X403810D03*
X414770Y163930D03*
X406285Y163715D03*
X409339Y175382D03*
X416891Y185635D03*
X408406D03*
X412649D03*
X404000Y185500D03*
X410556Y201556D03*
X404946Y248569D03*
X422659Y111000D03*
X426902D03*
X430237Y110021D03*
X429619Y131895D03*
X430326Y135431D03*
X430680Y142148D03*
X421487Y131542D03*
X426002Y131813D03*
X429729Y146634D03*
X430680Y156997D03*
X418332Y164068D03*
X421487D03*
X425023D03*
X431090Y161594D03*
X425730Y181039D03*
X426150Y188880D03*
X426430Y192030D03*
X429000Y197000D03*
X423000Y206000D03*
X425500Y217500D03*
X422500Y221500D03*
Y240790D03*
X420500Y242500D03*
X440844Y110021D03*
X437308D03*
X433773D03*
X444500Y118000D03*
X439500Y136500D03*
X441500Y144000D03*
Y140849D03*
X438542Y165500D03*
X441500Y173968D03*
X434000Y236500D03*
X442000Y226000D03*
X444500Y225000D03*
X447500Y227000D03*
X437000Y258500D03*
X447000Y272500D03*
X448000Y258100D03*
X444900Y258300D03*
X442000Y258500D03*
X462490Y105510D03*
X451000Y128450D03*
X450500Y139500D03*
Y144500D03*
X459000Y208000D03*
Y204500D03*
X449500Y195000D03*
X451290Y218500D03*
X461116Y220571D03*
X464500Y220500D03*
X453258Y236758D03*
X463000Y237000D03*
X460000D03*
X459500Y253600D03*
X460400Y258300D03*
X464000Y261800D03*
X460800Y266600D03*
X474500Y117000D03*
X468500D03*
X471500D03*
X465500Y136500D03*
X470500Y151000D03*
X479500Y167500D03*
Y164500D03*
X468000Y169500D03*
Y172000D03*
X465800Y170700D03*
X468500Y180500D03*
X476500Y179000D03*
X479000Y181500D03*
X473850Y180500D03*
X472000Y178000D03*
X465600Y266700D03*
X471500Y259000D03*
X481500Y135000D03*
X484500Y130500D03*
X486000Y135000D03*
X491000Y182000D03*
X484953Y181547D03*
X494795Y224000D03*
X484500Y226000D03*
X490500Y233000D03*
X493000D03*
X487000Y226000D03*
X486000Y252000D03*
X483500Y254414D03*
X486000Y272000D03*
Y262500D03*
X506000Y116500D03*
X512500Y144000D03*
Y147000D03*
X509000Y150500D03*
Y153500D03*
X512000Y156000D03*
Y158500D03*
X512500Y149500D03*
X510000Y160000D03*
X511000Y209000D03*
Y211500D03*
X502000Y210000D03*
X498500Y224000D03*
X521176Y94150D03*
X514000Y92000D03*
X522000Y111150D03*
X528500Y122000D03*
X513000Y138500D03*
X515500D03*
X528000Y147000D03*
Y150000D03*
X514700Y154000D03*
X515000Y148500D03*
X514500Y145500D03*
X524000Y159500D03*
X519000Y172000D03*
Y174500D03*
X524000Y172000D03*
Y174500D03*
X515500Y191500D03*
X520500Y205000D03*
X518000Y206500D03*
Y203500D03*
X521500Y197200D03*
Y194700D03*
X518000Y213500D03*
X530500Y92500D03*
X539000Y109200D03*
Y106500D03*
X533500Y169000D03*
X537000Y206922D03*
X538000Y222000D03*
Y219000D03*
X539500Y208890D03*
X537000Y210859D03*
X542200Y212500D03*
X538500Y215000D03*
X542000Y216000D03*
X534500Y225800D03*
X535500Y228000D03*
X553000Y127500D03*
X546500Y151000D03*
Y154000D03*
X572000Y138500D03*
X569500Y140000D03*
X566000D03*
X574000D03*
X574500Y150000D03*
X569500Y149000D03*
X567000D03*
X579500Y138000D03*
X577500Y140000D03*
X581500D03*
X585000D03*
X590217Y155273D03*
Y157773D03*
X583500Y150000D03*
X581000D03*
X577500D03*
X592717Y155273D03*
Y157773D03*
G54D23*
X351500Y87500D03*
X352000Y92000D03*
X349500Y90000D03*
X354000Y89500D03*
X375487Y92661D03*
Y87661D03*
X373862Y90161D03*
X377862D03*
G54D33*
G01X421487Y164068D02*
Y163361D01*
X418447Y160321D01*
X411659D01*
X410881Y159543D01*
X404658D01*
X401784Y156669D01*
Y154873D01*
X401830Y154827D01*
Y140783D01*
X401784Y140737D01*
Y137951D01*
X407345Y132390D01*
Y131542D01*
G01X425023Y164068D02*
X426579Y162513D01*
Y149785D01*
X429729Y146634D01*
G54D15*
X44089Y57768D03*
X42084Y55774D03*
X40089Y57779D03*
X42094Y59774D03*
X98169Y229000D03*
X113500Y236000D03*
Y232500D03*
X107500Y244000D03*
X104000D03*
X99500D03*
X137859Y145481D03*
X139859Y148481D03*
X137859Y151481D03*
X135859Y148481D03*
X159352Y102200D03*
X157352Y100200D03*
X159352Y98200D03*
X161352Y100200D03*
X238001Y98201D03*
X240000Y100199D03*
X236000Y100200D03*
X238000Y102200D03*
X318700Y100200D03*
X316700Y98200D03*
X314700Y100200D03*
X316700Y102200D03*
X398690Y213670D03*
X392670D03*
Y219690D03*
X398690D03*
Y231730D03*
X392670D03*
X398690Y225710D03*
X392670D03*
X405993Y145571D03*
Y143407D03*
Y141242D03*
Y139077D03*
X408158D03*
X410323D03*
X412487Y139076D03*
X414652D03*
Y141242D03*
Y143407D03*
Y145572D03*
X416818Y139076D03*
X405993Y152067D03*
Y154232D03*
Y156397D03*
X408158D03*
X410323D03*
X412487Y156396D03*
X414652Y147737D03*
X412487D03*
X410323Y147736D03*
X408158D03*
X405993D03*
Y149902D03*
X414652Y156396D03*
X416818D03*
Y147737D03*
X414652Y149902D03*
X414653Y152067D03*
X414652Y154231D03*
X410730Y213670D03*
X404710D03*
X410730Y219690D03*
X404710D03*
X410730Y231730D03*
X404710D03*
X410730Y225710D03*
X404710D03*
X423312Y145571D03*
X423313Y143407D03*
X423312Y141242D03*
Y139077D03*
X421147D03*
X418983Y139076D03*
Y156396D03*
X421147Y156397D03*
X423312D03*
Y154232D03*
Y152067D03*
Y149902D03*
Y147736D03*
X418983Y147737D03*
X421147Y147736D03*
G54D24*
X364200Y270500D03*
X387800D03*
G54D34*
G01X54200Y274500D02*
X54600Y274900D01*
X56044D01*
X56400Y274544D01*
Y271956D01*
X55444Y271000D01*
X51944D01*
X43900Y262956D01*
Y224600D01*
X55900Y212600D01*
X59436D01*
X60000Y212036D01*
G01X54200Y277000D02*
X55200Y276000D01*
X56500D01*
X57500Y275000D01*
Y271500D01*
X55900Y269900D01*
X52400D01*
X45000Y262500D01*
Y225056D01*
X56356Y213700D01*
X59400D01*
X60000Y214300D01*
Y215000D01*
G01Y221500D02*
X60472Y221972D01*
X62528D01*
X63900Y223344D01*
Y226300D01*
X62400Y227800D01*
X57844D01*
X56500Y226456D01*
Y221556D01*
X55944Y221000D01*
X54500D01*
X54000Y221500D01*
Y226100D01*
X52600Y227500D01*
X49500D01*
X49100Y227900D01*
Y230044D01*
X49456Y230400D01*
X52356D01*
X53500Y231544D01*
Y234500D01*
X52500Y235500D01*
X49556D01*
X49100Y235956D01*
Y238000D01*
X49600Y238500D01*
X52000D01*
X53600Y240100D01*
Y241900D01*
X52000Y243500D01*
X50000D01*
X49100Y244400D01*
Y246044D01*
X49956Y246900D01*
X52400D01*
X53600Y248100D01*
Y250900D01*
X52400Y252100D01*
X49956D01*
X48500Y253556D01*
Y258444D01*
X49256Y259200D01*
X50244D01*
X50900Y258544D01*
Y256544D01*
X52044Y255400D01*
X53300D01*
X54200Y254500D01*
G01Y257000D02*
X53700Y256500D01*
X52500D01*
X52000Y257000D01*
Y259000D01*
X50700Y260300D01*
X48800D01*
X47400Y258900D01*
Y253100D01*
X49500Y251000D01*
X51944D01*
X52500Y250444D01*
Y248556D01*
X51944Y248000D01*
X49500D01*
X48000Y246500D01*
Y243944D01*
X49544Y242400D01*
X51544D01*
X52500Y241444D01*
Y240556D01*
X51544Y239600D01*
X49144D01*
X48000Y238456D01*
Y235500D01*
X49100Y234400D01*
X52044D01*
X52400Y234044D01*
Y232000D01*
X51900Y231500D01*
X49000D01*
X48000Y230500D01*
Y227444D01*
X49044Y226400D01*
X52144D01*
X52900Y225644D01*
Y221044D01*
X54044Y219900D01*
X56400D01*
X57600Y221100D01*
Y226000D01*
X58300Y226700D01*
X61944D01*
X62800Y225844D01*
Y223800D01*
X62072Y223072D01*
X60928D01*
X60000Y224000D01*
G01X77500Y255500D02*
X76800Y254800D01*
Y254000D01*
X77200Y253600D01*
X81456D01*
X84100Y250956D01*
Y222100D01*
X75500Y213500D01*
X69500D01*
X68500Y212500D01*
Y210444D01*
X64156Y206100D01*
X60600D01*
X60000Y205500D01*
G01X75000Y255500D02*
X75700Y254800D01*
Y253544D01*
X76744Y252500D01*
X81000D01*
X83000Y250500D01*
Y222556D01*
X75044Y214600D01*
X69044D01*
X67400Y212956D01*
Y210900D01*
X63700Y207200D01*
X59900D01*
X59400Y207700D01*
Y208400D01*
X60000Y209000D01*
G01X54200Y264500D02*
X54700Y265000D01*
X56000D01*
X56900Y264100D01*
Y250600D01*
X59100Y248400D01*
X68044D01*
X71044Y245400D01*
X75000D01*
X75900Y244500D01*
Y236900D01*
X75000Y236000D01*
X74000D01*
X73000Y237000D01*
Y241500D01*
X72000Y242500D01*
X69500D01*
X68500Y241500D01*
Y240500D01*
X68000Y240000D01*
X66500D01*
X66000Y240500D01*
Y243500D01*
X64000Y245500D01*
X58144D01*
X56000Y243356D01*
Y232500D01*
X57600Y230900D01*
X59100D01*
X60000Y230000D01*
G01X54200Y267000D02*
Y266600D01*
X54700Y266100D01*
X56456D01*
X58000Y264556D01*
Y251056D01*
X59556Y249500D01*
X68500D01*
X71500Y246500D01*
X75456D01*
X77000Y244956D01*
Y236444D01*
X75456Y234900D01*
X73544D01*
X71900Y236544D01*
Y241044D01*
X71544Y241400D01*
X69956D01*
X69600Y241044D01*
Y240044D01*
X68456Y238900D01*
X66044D01*
X64900Y240044D01*
Y243044D01*
X63544Y244400D01*
X58600D01*
X57100Y242900D01*
Y232956D01*
X58056Y232000D01*
X59500D01*
X60000Y232500D01*
G01Y237500D02*
X60300Y237800D01*
X62144D01*
X66900Y233044D01*
Y220044D01*
X69944Y217000D01*
X73000D01*
X74500Y218500D01*
Y220500D01*
X73400Y221600D01*
X72456D01*
X71600Y222456D01*
Y223544D01*
X72456Y224400D01*
X76900D01*
X78000Y225500D01*
Y228000D01*
X77000Y229000D01*
X73600D01*
X73100Y229500D01*
Y231044D01*
X73456Y231400D01*
X77456D01*
X80600Y234544D01*
Y246900D01*
X77400Y250100D01*
X73900D01*
X70500Y253500D01*
X68556D01*
X67300Y254756D01*
Y255500D01*
X68000Y256200D01*
G01X60000Y240000D02*
X61100Y238900D01*
X62600D01*
X68000Y233500D01*
Y220500D01*
X70400Y218100D01*
X72544D01*
X73400Y218956D01*
Y220044D01*
X72944Y220500D01*
X72000D01*
X70500Y222000D01*
Y224000D01*
X72000Y225500D01*
X76444D01*
X76900Y225956D01*
Y227544D01*
X76544Y227900D01*
X73144D01*
X72000Y229044D01*
Y231500D01*
X73000Y232500D01*
X77000D01*
X79500Y235000D01*
Y246444D01*
X76944Y249000D01*
X73444D01*
X70044Y252400D01*
X68100D01*
X66200Y254300D01*
Y255500D01*
X65500Y256200D01*
G01X60500Y254500D02*
X61200Y255200D01*
X62556D01*
X63500Y256144D01*
Y264500D01*
X68400Y269400D01*
X85400D01*
X90500Y274500D01*
Y276200D01*
X93500Y279200D01*
Y280756D01*
X93000Y281256D01*
Y282000D01*
G01X60500Y257000D02*
X61200Y256300D01*
X62100D01*
X62400Y256600D01*
Y264956D01*
X67944Y270500D01*
X84944D01*
X89400Y274956D01*
Y276656D01*
X92400Y279656D01*
Y280300D01*
X91700Y281000D01*
X91000D01*
X90500Y281500D01*
Y282000D01*
G01X85500D02*
X84700Y281200D01*
Y280800D01*
X85100Y280400D01*
X86600D01*
X86900Y280100D01*
Y279399D01*
X83900Y276399D01*
Y274500D01*
X83500Y274100D01*
X78100D01*
X77800Y274400D01*
Y275456D01*
X76756Y276500D01*
X74744D01*
X73700Y275456D01*
Y274400D01*
X73400Y274100D01*
X68400D01*
X67500Y275000D01*
X65800D01*
X64600Y273800D01*
Y273000D01*
X63600Y272000D01*
X63500D01*
G01X60500Y277000D02*
X61000Y276500D01*
X61944D01*
X62400Y276956D01*
Y278544D01*
X61444Y279500D01*
X55900D01*
X54700Y280700D01*
Y282956D01*
X55844Y284100D01*
X67700D01*
X69000Y282800D01*
Y280000D01*
X70000Y279000D01*
X72000D01*
X73100Y280100D01*
X78456D01*
X79956Y278600D01*
X81044D01*
X81900Y279456D01*
Y280100D01*
X81500Y280500D01*
X80500D01*
X80000Y281000D01*
Y281500D01*
X80500Y282000D01*
G01X83000D02*
Y279000D01*
X81500Y277500D01*
X79500D01*
X78000Y279000D01*
X73556D01*
X72456Y277900D01*
X69544D01*
X67900Y279544D01*
Y282344D01*
X67244Y283000D01*
X56300D01*
X55800Y282500D01*
Y281156D01*
X56356Y280600D01*
X61900D01*
X63500Y279000D01*
Y276500D01*
X62400Y275400D01*
X61400D01*
X60500Y274500D01*
G01X66000Y262500D02*
X66599Y263099D01*
Y263755D01*
X66600Y263756D01*
Y264156D01*
X67944Y265500D01*
X80500D01*
X81500Y264500D01*
Y263000D01*
X82000Y262500D01*
X83500D01*
X84000Y263000D01*
Y264500D01*
X90200Y270700D01*
X95544D01*
X96200Y271356D01*
Y272600D01*
X94400Y274400D01*
Y276600D01*
X96900Y279100D01*
Y280600D01*
X95500Y282000D01*
G01X104700Y274000D02*
X104100Y273400D01*
Y272456D01*
X105000Y271556D01*
Y269500D01*
X103900Y268400D01*
X99800D01*
X99000Y267600D01*
Y261844D01*
X97656Y260500D01*
X88056D01*
X85456Y257900D01*
X76094D01*
X74950Y259044D01*
Y261006D01*
X75000Y261056D01*
Y262500D01*
G01X98000Y282000D02*
Y278644D01*
X95500Y276144D01*
Y274856D01*
X97300Y273056D01*
Y270900D01*
X96000Y269600D01*
X90656D01*
X85100Y264044D01*
Y262544D01*
X83956Y261400D01*
X81544D01*
X80400Y262544D01*
Y264044D01*
X80044Y264400D01*
X68400D01*
X67700Y263700D01*
Y263300D01*
X68500Y262500D01*
G01X88000Y282000D02*
Y278943D01*
X85000Y275943D01*
Y274044D01*
X83956Y273000D01*
X77644D01*
X76700Y273944D01*
Y275000D01*
X76300Y275400D01*
X75200D01*
X74800Y275000D01*
Y273944D01*
X73856Y273000D01*
X67944D01*
X67044Y273900D01*
X66256D01*
X65700Y273344D01*
Y272300D01*
X66000Y272000D01*
G01X102700Y275600D02*
Y276100D01*
X102300Y276500D01*
X101400D01*
X101033Y276133D01*
Y274467D01*
X101600Y273900D01*
X102400D01*
X103000Y273300D01*
Y272000D01*
X103900Y271100D01*
Y269956D01*
X103444Y269500D01*
X99344D01*
X97900Y268056D01*
Y262300D01*
X97200Y261600D01*
X87600D01*
X85000Y259000D01*
X76550D01*
X76050Y259500D01*
Y260250D01*
X76600Y260800D01*
X78100D01*
X78467Y261167D01*
Y262033D01*
X78000Y262500D01*
X77500D01*
G01X159584Y191076D02*
X162129D01*
X164481Y188724D01*
Y187134D01*
X163769Y186422D01*
Y185687D01*
X164156Y185300D01*
X164909D01*
X166185Y186576D01*
X167624D01*
X168873Y185327D01*
Y183889D01*
X167234Y182250D01*
Y181587D01*
X167702Y181119D01*
X168365D01*
X170053Y182807D01*
X171530D01*
X174914Y179423D01*
Y179421D01*
X175001Y179334D01*
X175003D01*
X181437Y172900D01*
X189527D01*
X207315Y190687D01*
X210938D01*
X210939Y190688D01*
X211032D01*
X211217Y190872D01*
X212475D01*
X212667Y190680D01*
X212746D01*
X212749Y190678D01*
X213670D01*
X214995Y189352D01*
G01X211846D02*
X211658Y189540D01*
X210529D01*
X210482Y189587D01*
X207771D01*
X189983Y171800D01*
X180981D01*
X174548Y178233D01*
X174546D01*
X173814Y178966D01*
Y178967D01*
X171074Y181707D01*
X170509D01*
X168821Y180019D01*
X167247D01*
X166134Y181132D01*
Y182706D01*
X167773Y184345D01*
Y184871D01*
X167168Y185476D01*
X166641D01*
X165365Y184200D01*
X163700D01*
X162669Y185231D01*
Y186878D01*
X163381Y187590D01*
Y188269D01*
X161674Y189975D01*
X160633D01*
X160213Y189555D01*
X159939D01*
X159249Y188865D01*
Y188849D01*
X159000Y188600D01*
Y188198D01*
X159676Y187522D01*
X160168D01*
G01X187000Y49000D02*
Y49800D01*
X186500Y50300D01*
X185700D01*
X185200Y49800D01*
Y45644D01*
X183456Y43900D01*
X168400D01*
X167700Y43200D01*
Y41900D01*
X168500Y41100D01*
X186544D01*
X192444Y47000D01*
X200500D01*
X201000Y47500D01*
Y49000D01*
X200500Y49500D01*
X192688D01*
X191500Y50688D01*
Y52556D01*
X192944Y54000D01*
X222944D01*
X229000Y60056D01*
Y61600D01*
X228600Y62000D01*
X226750D01*
G01X183536Y49000D02*
X184100Y48436D01*
Y46100D01*
X183000Y45000D01*
X167944D01*
X166600Y43656D01*
Y41444D01*
X168044Y40000D01*
X187000D01*
X192900Y45900D01*
X200956D01*
X202100Y47044D01*
Y49456D01*
X200956Y50600D01*
X193144D01*
X192600Y51144D01*
Y52100D01*
X193400Y52900D01*
X223400D01*
X230100Y59600D01*
Y61600D01*
X230500Y62000D01*
X232350D01*
G01X175000Y48500D02*
X173600D01*
X173100Y49000D01*
Y56100D01*
X177900Y60900D01*
X192356D01*
X193500Y62044D01*
Y64500D01*
X192400Y65600D01*
X185000D01*
X184600Y66000D01*
Y67500D01*
X185100Y68000D01*
X250244D01*
X252700Y65544D01*
Y62700D01*
X252000Y62000D01*
X250350D01*
G01X171536Y48500D02*
X172000Y48964D01*
Y56556D01*
X177444Y62000D01*
X191900D01*
X192400Y62500D01*
Y64044D01*
X191944Y64500D01*
X184544D01*
X183500Y65544D01*
Y67956D01*
X184644Y69100D01*
X250700D01*
X253800Y66000D01*
Y62700D01*
X254500Y62000D01*
X255950D01*
G01X169464Y51500D02*
Y50464D01*
X169000Y50000D01*
X168200D01*
X167600Y50600D01*
Y56544D01*
X182556Y71500D01*
X256444D01*
X264400Y63544D01*
Y62400D01*
X264000Y62000D01*
X262250D01*
G01X166000Y51500D02*
X166500Y52000D01*
Y57000D01*
X182100Y72600D01*
X256900D01*
X265500Y64000D01*
Y62500D01*
X266000Y62000D01*
X267850D01*
G01X218146Y208252D02*
X216268Y206375D01*
X210589D01*
X209626Y205412D01*
X207473D01*
X206090Y206795D01*
Y208413D01*
X206766Y209089D01*
Y209760D01*
X205993Y210534D01*
X205383D01*
X201887Y207038D01*
X200361D01*
X198539Y208860D01*
Y210478D01*
X199624Y211563D01*
Y212271D01*
X198988Y212907D01*
X198281D01*
X197195Y211822D01*
X195578D01*
X192905Y214494D01*
X192403D01*
X192054Y214144D01*
Y212948D01*
X191058Y211952D01*
X189648D01*
X188653Y212948D01*
Y214144D01*
X187274Y215523D01*
X186614D01*
X186048Y214958D01*
Y214250D01*
X186808Y213490D01*
Y212041D01*
X185783Y211015D01*
X184333D01*
X182742Y212606D01*
X182035D01*
X181187Y211758D01*
Y211051D01*
X182128Y210110D01*
Y208492D01*
X178933Y205297D01*
X177915D01*
X177896Y205278D01*
X175787D01*
X174169Y206897D01*
X173461D01*
X172573Y206008D01*
X170311D01*
X168370Y204068D01*
Y203361D01*
X168653Y203078D01*
Y201947D01*
X169007Y201593D01*
Y200320D01*
G01X211846Y208251D02*
X210910D01*
X209170Y206512D01*
X207929D01*
X207190Y207250D01*
Y207957D01*
X207866Y208633D01*
Y210216D01*
X206448Y211634D01*
X204928D01*
X201432Y208138D01*
X200817D01*
X199639Y209316D01*
Y210023D01*
X200725Y211108D01*
Y212726D01*
X199443Y214007D01*
X197825D01*
X196740Y212922D01*
X196033D01*
X193361Y215594D01*
X191948D01*
X190954Y214600D01*
Y213403D01*
X190603Y213053D01*
X190104D01*
X189753Y213403D01*
Y214600D01*
X187729Y216624D01*
X186158D01*
X184948Y215413D01*
Y213795D01*
X185708Y213035D01*
Y212496D01*
X185327Y212116D01*
X184789D01*
X183198Y213707D01*
X181580D01*
X180086Y212213D01*
Y210595D01*
X181027Y209654D01*
Y208947D01*
X178478Y206397D01*
X177459D01*
X177440Y206378D01*
X176242D01*
X174624Y207997D01*
X173006D01*
X172118Y207109D01*
X169855D01*
X167270Y204524D01*
Y202906D01*
X167553Y202623D01*
Y201695D01*
X166829Y200971D01*
Y200830D01*
X165754Y199755D01*
G01X181000Y51500D02*
Y50600D01*
X180500Y50100D01*
X179700D01*
X179300Y50500D01*
Y55044D01*
X181156Y56900D01*
X216400D01*
X217500Y58000D01*
Y60500D01*
X216400Y61600D01*
X198400D01*
X197778Y62222D01*
Y63678D01*
X198500Y64400D01*
X240544D01*
X240900Y64044D01*
Y62400D01*
X240500Y62000D01*
X238650D01*
G01X177536Y51500D02*
X178200Y52164D01*
Y55500D01*
X180700Y58000D01*
X215944D01*
X216400Y58456D01*
Y60044D01*
X215944Y60500D01*
X197944D01*
X196678Y61766D01*
Y64134D01*
X198044Y65500D01*
X241000D01*
X242000Y64500D01*
Y62400D01*
X242400Y62000D01*
X244250D01*
G01X509000Y153500D02*
X508500Y153000D01*
X506200D01*
X503900Y150700D01*
Y136600D01*
X515400Y125100D01*
Y114900D01*
X512500Y112000D01*
Y102500D01*
X506000Y96000D01*
Y90056D01*
X489444Y73500D01*
X455556D01*
X454000Y75056D01*
Y78500D01*
X452500Y80000D01*
X450444D01*
X449000Y78556D01*
Y74500D01*
X448000Y73500D01*
X447000D01*
X446000Y74500D01*
Y78456D01*
X444456Y80000D01*
X442500D01*
X441000Y78500D01*
Y74500D01*
X440100Y73600D01*
X438900D01*
X438000Y74500D01*
Y78000D01*
X436000Y80000D01*
X398000D01*
X391600Y73600D01*
X387600D01*
X370800Y56800D01*
X338756D01*
X336056Y59500D01*
X297944D01*
X295244Y56800D01*
X251800D01*
X248500Y53500D01*
X242500D01*
X240200Y51200D01*
Y50100D01*
X239600Y49500D01*
X239538D01*
G01X512000Y156000D02*
X511500Y156500D01*
X505056D01*
X501500Y152944D01*
Y134500D01*
X509500Y126500D01*
Y105000D01*
X503100Y98600D01*
Y90544D01*
X488456Y75900D01*
X460600D01*
X454100Y82400D01*
X396956D01*
X391056Y76500D01*
X386056D01*
X368756Y59200D01*
X339800D01*
X334100Y64900D01*
X298956D01*
X296600Y62544D01*
Y61600D01*
X294200Y59200D01*
X250256D01*
X246956Y55900D01*
X233956D01*
X229600Y51544D01*
Y49400D01*
X230000Y49000D01*
X231000D01*
X231500Y49500D01*
G01X512000Y158500D02*
X511100Y157600D01*
X504600D01*
X500400Y153400D01*
Y134044D01*
X508400Y126044D01*
Y105456D01*
X502000Y99056D01*
Y91000D01*
X488000Y77000D01*
X461056D01*
X454556Y83500D01*
X396500D01*
X390600Y77600D01*
X385600D01*
X368300Y60300D01*
X340256D01*
X334556Y66000D01*
X298500D01*
X295500Y63000D01*
Y62056D01*
X293744Y60300D01*
X249800D01*
X246500Y57000D01*
X233500D01*
X228500Y52000D01*
Y49962D01*
X228038Y49500D01*
G01X512500Y144000D02*
X511300Y145200D01*
X509500D01*
X508600Y144300D01*
Y138956D01*
X514956Y132600D01*
X517244D01*
X517900Y133256D01*
Y135956D01*
X519044Y137100D01*
X521456D01*
X522600Y135956D01*
Y130544D01*
X520100Y128044D01*
Y126456D01*
X520456Y126100D01*
X525400D01*
X526500Y125000D01*
Y122500D01*
X525400Y121400D01*
X521456D01*
X520100Y120044D01*
Y102544D01*
X511600Y94044D01*
Y88600D01*
X491900Y68900D01*
X436044D01*
X429544Y75400D01*
X400456D01*
X393556Y68500D01*
X389556D01*
X373256Y52200D01*
X336800D01*
X334100Y54900D01*
X299956D01*
X297256Y52200D01*
X254500D01*
X253300Y51000D01*
Y50100D01*
X253900Y49500D01*
X255000D01*
G01X512500Y147000D02*
X511800Y146300D01*
X509044D01*
X507500Y144756D01*
Y138500D01*
X514500Y131500D01*
X517700D01*
X519000Y132800D01*
Y135500D01*
X519500Y136000D01*
X521000D01*
X521500Y135500D01*
Y131000D01*
X519000Y128500D01*
Y126000D01*
X520000Y125000D01*
X524944D01*
X525400Y124544D01*
Y122956D01*
X524944Y122500D01*
X521000D01*
X519000Y120500D01*
Y103000D01*
X510500Y94500D01*
Y89056D01*
X491444Y70000D01*
X436500D01*
X430000Y76500D01*
X400000D01*
X393100Y69600D01*
X389100D01*
X372800Y53300D01*
X337256D01*
X334556Y56000D01*
X299500D01*
X296800Y53300D01*
X254044D01*
X252200Y51456D01*
Y50162D01*
X251538Y49500D01*
G01X509000Y150500D02*
Y151300D01*
X508400Y151900D01*
X506656D01*
X505000Y150244D01*
Y137056D01*
X516500Y125556D01*
Y114444D01*
X513600Y111544D01*
Y102044D01*
X507100Y95544D01*
Y89600D01*
X489900Y72400D01*
X455100D01*
X452900Y74600D01*
Y78044D01*
X452044Y78900D01*
X450900D01*
X450100Y78100D01*
Y74044D01*
X448456Y72400D01*
X446544D01*
X444900Y74044D01*
Y78000D01*
X444000Y78900D01*
X442956D01*
X442100Y78044D01*
Y74044D01*
X440556Y72500D01*
X438444D01*
X436900Y74044D01*
Y77544D01*
X435544Y78900D01*
X398456D01*
X392056Y72500D01*
X388056D01*
X371256Y55700D01*
X338300D01*
X335600Y58400D01*
X298400D01*
X295700Y55700D01*
X252256D01*
X248956Y52400D01*
X242956D01*
X241300Y50744D01*
Y50000D01*
X241800Y49500D01*
X243000D01*
G01X513000Y138500D02*
X513900Y139400D01*
Y140400D01*
X515600Y142100D01*
X522456D01*
X533100Y131456D01*
Y118600D01*
X531500Y117000D01*
X526033D01*
X525533Y116500D01*
Y115000D01*
X526033Y114500D01*
X532100D01*
X533100Y113500D01*
Y111100D01*
X532000Y110000D01*
X528000D01*
X527500Y109500D01*
Y108000D01*
X528000Y107500D01*
X531500D01*
X533100Y105900D01*
Y103600D01*
X531400Y101900D01*
X526956D01*
X525600Y100544D01*
Y98044D01*
X524056Y96500D01*
X520256D01*
X517600Y93844D01*
Y85544D01*
X513456Y81400D01*
X509456D01*
X493456Y65400D01*
X433544D01*
X427044Y71900D01*
X402456D01*
X394456Y63900D01*
X390456D01*
X375275Y48719D01*
X334781D01*
X332500Y51000D01*
X301056D01*
X298775Y48719D01*
X267519D01*
X267000Y48200D01*
Y47500D01*
G01X515500Y138500D02*
X515000Y139000D01*
Y139944D01*
X516056Y141000D01*
X522000D01*
X532000Y131000D01*
Y119056D01*
X531044Y118100D01*
X525577D01*
X524433Y116956D01*
Y114544D01*
X525577Y113400D01*
X531644D01*
X532000Y113044D01*
Y111556D01*
X531544Y111100D01*
X527544D01*
X526400Y109956D01*
Y107544D01*
X527544Y106400D01*
X531044D01*
X532000Y105444D01*
Y104056D01*
X530944Y103000D01*
X526500D01*
X524500Y101000D01*
Y98500D01*
X523600Y97600D01*
X519800D01*
X516500Y94300D01*
Y86000D01*
X513000Y82500D01*
X509000D01*
X493000Y66500D01*
X434000D01*
X427500Y73000D01*
X402000D01*
X394000Y65000D01*
X390000D01*
X374819Y49819D01*
X335237D01*
X332956Y52100D01*
X300600D01*
X298319Y49819D01*
X266819D01*
X264500Y47500D01*
X263538D01*
G01X324712Y190704D02*
X325786Y189629D01*
X327045D01*
X327657Y190241D01*
X329276D01*
X332812Y186705D01*
Y185086D01*
X330793Y183067D01*
X328105D01*
X327367Y183805D01*
X324036D01*
X322537Y182307D01*
Y181811D01*
X324167Y180181D01*
Y178562D01*
X323101Y177496D01*
X322191D01*
X322190Y177497D01*
X321088D01*
X319762Y178824D01*
X319055D01*
X318372Y178142D01*
Y178141D01*
X317728Y177497D01*
X315581D01*
X312330Y180748D01*
X310719D01*
X310368Y180398D01*
Y178491D01*
X309704Y177829D01*
X309374Y177499D01*
X309372Y177498D01*
X308461Y177499D01*
X307961D01*
X306368Y179092D01*
X305661D01*
X304066Y177497D01*
X301856D01*
X300630Y178723D01*
Y180340D01*
X301430Y181140D01*
Y181847D01*
X300652Y182625D01*
X299945D01*
X298509Y181189D01*
X296891D01*
X294761Y183319D01*
Y184937D01*
X295720Y185895D01*
Y186603D01*
X294377Y187946D01*
X293670D01*
X291972Y186249D01*
X290346D01*
X289073Y187522D01*
X283629D01*
X283487Y187663D01*
X279684D01*
X277996Y189352D01*
G01X324994Y186885D02*
X324570Y186461D01*
X322539D01*
X322300Y186700D01*
Y187919D01*
X323565Y189184D01*
X324676D01*
X325331Y188529D01*
X327500D01*
X328113Y189141D01*
X328820D01*
X331712Y186249D01*
Y185542D01*
X330337Y184167D01*
X328561D01*
X327823Y184905D01*
X323580D01*
X321437Y182763D01*
Y181355D01*
X323067Y179725D01*
Y179018D01*
X322646Y178597D01*
X321544D01*
X320218Y179924D01*
X318599D01*
X317272Y178599D01*
Y178597D01*
X316037D01*
X312786Y181848D01*
X310264D01*
X309268Y180855D01*
Y178948D01*
X308918Y178599D01*
X308416D01*
X306823Y180192D01*
X305205D01*
X303611Y178597D01*
X302311D01*
X301731Y179178D01*
Y179885D01*
X302530Y180685D01*
Y182303D01*
X301108Y183725D01*
X299490D01*
X298054Y182289D01*
X297347D01*
X295862Y183774D01*
Y184481D01*
X296820Y185440D01*
Y187058D01*
X294832Y189046D01*
X293214D01*
X291517Y187349D01*
X290802D01*
X289529Y188622D01*
X284084D01*
X283943Y188764D01*
X281949D01*
X281493Y189227D01*
X281270D01*
X281145Y189352D01*
G01X333656Y197882D02*
Y198375D01*
X334439Y199158D01*
Y200634D01*
X332521Y202552D01*
X330903D01*
X330054Y201704D01*
X329551D01*
X327752Y203502D01*
Y204210D01*
X329489Y205946D01*
Y207564D01*
X328601Y208452D01*
Y210161D01*
X329448Y211008D01*
X329451Y212459D01*
X328570Y213340D01*
Y214733D01*
X329449Y215612D01*
Y217512D01*
X328965Y217996D01*
X328946Y219711D01*
X329449Y220214D01*
Y221664D01*
X328671Y222442D01*
Y224036D01*
X329449Y224814D01*
Y226600D01*
X329450Y226601D01*
Y227967D01*
X329257Y228160D01*
Y228161D01*
X321207Y236211D01*
X304280D01*
X288296Y220226D01*
Y210433D01*
X283981Y206118D01*
X282240D01*
X281767Y206591D01*
X279505D01*
X277986Y205072D01*
G01X281137D02*
X281191Y205018D01*
X284437D01*
X289396Y209977D01*
Y219770D01*
X304736Y235111D01*
X320751D01*
X328350Y227512D01*
Y227057D01*
X328349Y227056D01*
Y225270D01*
X327571Y224492D01*
Y221986D01*
X328349Y221208D01*
Y220670D01*
X327841Y220162D01*
X327869Y217536D01*
X328349Y217056D01*
Y216068D01*
X327469Y215188D01*
Y212884D01*
X328350Y212004D01*
X328349Y211464D01*
X327500Y210616D01*
Y207997D01*
X328388Y207109D01*
Y206402D01*
X326652Y204665D01*
Y203047D01*
X329096Y200603D01*
X330510D01*
X331358Y201452D01*
X332065D01*
X333338Y200179D01*
Y199613D01*
X333126Y199401D01*
X332278D01*
X330793Y197916D01*
G54D16*
X65803Y36811D03*
X116197D03*
G54D25*
X449538Y107624D03*
X454460Y107620D03*
G54D35*
G01X-56417Y117705D02*
X-57666Y118635D01*
X-58292Y119720D01*
X-58500Y120960D01*
X-58083Y122510D01*
X-57042Y123595D01*
X-55792Y123905D01*
X-54541Y123750D01*
X-53500Y123130D01*
X-51417Y120030D01*
X-49958Y118635D01*
X-47875Y117705D01*
X-46000Y117395D01*
Y123905D01*
G01Y132740D02*
X-48708Y133050D01*
X-51000Y133515D01*
X-53083Y134135D01*
X-55375Y134910D01*
X-58500Y136150D01*
Y129950D01*
G01X-47875Y142040D02*
X-46833Y142970D01*
X-46208Y144055D01*
X-46000Y145450D01*
X-46417Y146845D01*
X-47250Y147930D01*
X-48708Y148705D01*
X-50375Y148860D01*
X-52042Y148550D01*
X-53083Y147775D01*
X-53917Y146690D01*
X-54125Y145605D01*
X-53917Y144520D01*
X-53083Y143125D01*
X-58500Y143590D01*
Y147775D01*
G01X-48500Y154440D02*
X-47041Y155370D01*
X-46208Y156610D01*
X-46000Y158005D01*
X-46208Y159245D01*
X-47250Y160485D01*
X-48500Y161260D01*
X-49750Y161415D01*
X-51208Y161105D01*
X-52250Y160020D01*
X-52667Y158935D01*
Y157540D01*
G01Y158935D02*
X-53292Y159865D01*
X-54333Y160640D01*
X-55583Y160950D01*
X-56833Y160640D01*
X-57875Y159865D01*
X-58500Y158470D01*
X-58292Y157075D01*
X-57458Y155680D01*
G01X-45583Y170250D02*
X-45792Y169940D01*
X-46208D01*
X-46417Y170250D01*
X-46208Y170560D01*
X-45792D01*
X-45583Y170250D01*
G01X-56417Y179705D02*
X-57666Y180635D01*
X-58292Y181720D01*
X-58500Y182960D01*
X-58083Y184510D01*
X-57042Y185595D01*
X-55792Y185905D01*
X-54541Y185750D01*
X-53500Y185130D01*
X-51417Y182030D01*
X-49958Y180635D01*
X-47875Y179705D01*
X-46000Y179395D01*
Y185905D01*
G01X-58500Y195050D02*
X-58083Y193810D01*
X-57042Y192880D01*
X-55792Y192260D01*
X-54125Y191795D01*
X-52250Y191640D01*
X-50375Y191795D01*
X-48708Y192260D01*
X-47458Y192880D01*
X-46417Y193810D01*
X-46000Y195050D01*
X-46417Y196290D01*
X-47458Y197220D01*
X-48708Y197840D01*
X-50375Y198305D01*
X-52250Y198460D01*
X-54125Y198305D01*
X-55792Y197840D01*
X-57042Y197220D01*
X-58083Y196290D01*
X-58500Y195050D01*
G01X-53208Y221705D02*
X-54667Y222790D01*
X-55500Y223720D01*
X-55917Y224960D01*
X-55500Y226045D01*
X-54667Y226820D01*
X-53417Y227440D01*
X-51958Y227595D01*
X-50708Y227440D01*
X-49458Y226820D01*
X-48417Y225890D01*
X-48000Y224805D01*
X-48417Y223565D01*
X-49666Y222480D01*
X-51542Y221860D01*
X-53625Y221705D01*
X-56333Y222015D01*
X-57792Y222480D01*
X-59250Y223255D01*
X-60292Y224340D01*
X-60500Y225425D01*
X-60083Y226510D01*
X-59042Y227285D01*
G01X-49458Y234415D02*
X-48417Y235500D01*
X-48000Y236740D01*
X-48417Y237980D01*
X-49666Y239065D01*
X-51542Y239840D01*
X-53417Y240150D01*
X-55708D01*
X-57583Y239840D01*
X-59250Y239065D01*
X-60083Y238135D01*
X-60500Y237050D01*
X-60083Y235810D01*
X-59250Y234880D01*
X-58000Y234260D01*
X-56333Y233950D01*
X-54875Y234260D01*
X-53417Y235035D01*
X-52583Y235965D01*
X-52375Y237050D01*
X-52791Y238290D01*
X-53833Y239220D01*
X-55708Y240150D01*
G01X-47583Y249450D02*
X-47792Y249140D01*
X-48208D01*
X-48417Y249450D01*
X-48208Y249760D01*
X-47792D01*
X-47583Y249450D01*
G01X-49458Y259215D02*
X-48417Y260300D01*
X-48000Y261540D01*
X-48417Y262780D01*
X-49666Y263865D01*
X-51542Y264640D01*
X-53417Y264950D01*
X-55708D01*
X-57583Y264640D01*
X-59250Y263865D01*
X-60083Y262935D01*
X-60500Y261850D01*
X-60083Y260610D01*
X-59250Y259680D01*
X-58000Y259060D01*
X-56333Y258750D01*
X-54875Y259060D01*
X-53417Y259835D01*
X-52583Y260765D01*
X-52375Y261850D01*
X-52791Y263090D01*
X-53833Y264020D01*
X-55708Y264950D01*
G01X-50500Y270840D02*
X-49041Y271770D01*
X-48208Y273010D01*
X-48000Y274405D01*
X-48208Y275645D01*
X-49250Y276885D01*
X-50500Y277660D01*
X-51750Y277815D01*
X-53208Y277505D01*
X-54250Y276420D01*
X-54667Y275335D01*
Y273940D01*
G01Y275335D02*
X-55292Y276265D01*
X-56333Y277040D01*
X-57583Y277350D01*
X-58833Y277040D01*
X-59875Y276265D01*
X-60500Y274870D01*
X-60292Y273475D01*
X-59458Y272080D01*
G01X-47750Y215600D02*
Y210950D01*
X-60250D01*
Y215600D01*
G01X-47750Y283800D02*
Y288450D01*
X-60250D01*
Y283800D01*
G01X27602Y11341D02*
X-44000D01*
G01X-34000Y150375D02*
Y11341D01*
G01X-36500Y26341D02*
X-34000Y11341D01*
X-31500Y26341D01*
X-36500D01*
G01X-34000Y181625D02*
Y286661D01*
G01X-31500Y271661D02*
X-34000Y286661D01*
X-36500Y271661D01*
X-31500D01*
G01X-17789Y286661D02*
X-44000D01*
G01X-18492Y19215D02*
G03X-10618Y11341I7874J0D01*
G01X-18492Y111535D02*
Y19215D01*
G01X-12924Y117103D02*
X-18492Y111535D01*
G01Y210354D02*
X-12924Y204787D01*
G01X-18492Y278787D02*
Y210354D01*
G01Y230174D02*
Y320000D01*
G01X-10618Y286661D02*
G03X-18492Y278787I0J-7874D01*
G01X195975Y310000D02*
X-18492D01*
G01X-3492Y312500D02*
X-18492Y310000D01*
X-3492Y307500D01*
Y312500D01*
G01X-10618Y11341D02*
X201977D01*
G01X-12924Y117103D02*
G03X-10618Y122671I-5568J5568D01*
G01D02*
Y199219D01*
G01D02*
G03X-12924Y204787I-7874J0D01*
G01X554340Y286661D02*
X-10618D01*
G01X201977Y11341D02*
G03X209851Y19215I0J7874D01*
G01X207055Y308958D02*
X208140Y310417D01*
X209070Y311250D01*
X210310Y311667D01*
X211395Y311250D01*
X212170Y310417D01*
X212790Y309167D01*
X212945Y307708D01*
X212790Y306458D01*
X212170Y305208D01*
X211240Y304167D01*
X210155Y303750D01*
X208915Y304167D01*
X207830Y305416D01*
X207210Y307292D01*
X207055Y309375D01*
X207365Y312083D01*
X207830Y313542D01*
X208605Y315000D01*
X209690Y316042D01*
X210775Y316250D01*
X211860Y315833D01*
X212635Y314792D01*
G01X219455Y314167D02*
X220385Y315416D01*
X221470Y316042D01*
X222710Y316250D01*
X224260Y315833D01*
X225345Y314792D01*
X225655Y313542D01*
X225500Y312291D01*
X224880Y311250D01*
X221780Y309167D01*
X220385Y307708D01*
X219455Y305625D01*
X219145Y303750D01*
X225655D01*
G01X231390Y306250D02*
X232320Y304791D01*
X233560Y303958D01*
X234955Y303750D01*
X236195Y303958D01*
X237435Y305000D01*
X238210Y306250D01*
X238365Y307500D01*
X238055Y308958D01*
X236970Y310000D01*
X235885Y310417D01*
X234490D01*
G01X235885D02*
X236815Y311042D01*
X237590Y312083D01*
X237900Y313333D01*
X237590Y314583D01*
X236815Y315625D01*
X235420Y316250D01*
X234025Y316042D01*
X232630Y315208D01*
G01X243790Y306250D02*
X244720Y304791D01*
X245960Y303958D01*
X247355Y303750D01*
X248595Y303958D01*
X249835Y305000D01*
X250610Y306250D01*
X250765Y307500D01*
X250455Y308958D01*
X249370Y310000D01*
X248285Y310417D01*
X246890D01*
G01X248285D02*
X249215Y311042D01*
X249990Y312083D01*
X250300Y313333D01*
X249990Y314583D01*
X249215Y315625D01*
X247820Y316250D01*
X246425Y316042D01*
X245030Y315208D01*
G01X259600Y303333D02*
X259290Y303542D01*
Y303958D01*
X259600Y304167D01*
X259910Y303958D01*
Y303542D01*
X259600Y303333D01*
G01X272000Y316250D02*
X270760Y315833D01*
X269830Y314792D01*
X269210Y313542D01*
X268745Y311875D01*
X268590Y310000D01*
X268745Y308125D01*
X269210Y306458D01*
X269830Y305208D01*
X270760Y304167D01*
X272000Y303750D01*
X273240Y304167D01*
X274170Y305208D01*
X274790Y306458D01*
X275255Y308125D01*
X275410Y310000D01*
X275255Y311875D01*
X274790Y313542D01*
X274170Y314792D01*
X273240Y315833D01*
X272000Y316250D01*
G01X286260Y303750D02*
Y316250D01*
X280525Y307292D01*
X288275D01*
G01X209851Y42837D02*
Y19215D01*
G01X359457Y42837D02*
X209851D01*
G01X318700Y303750D02*
Y316250D01*
X316840Y313750D01*
G01Y303750D02*
X320560D01*
G01X327690Y305625D02*
X328620Y304583D01*
X329705Y303958D01*
X331100Y303750D01*
X332495Y304167D01*
X333580Y305000D01*
X334355Y306458D01*
X334510Y308125D01*
X334200Y309792D01*
X333425Y310833D01*
X332340Y311667D01*
X331255Y311875D01*
X330170Y311667D01*
X328775Y310833D01*
X329240Y316250D01*
X333425D01*
G01X343500Y303750D02*
X344585Y303958D01*
X345825Y304583D01*
X346600Y305625D01*
X346910Y307083D01*
X346600Y308541D01*
X345670Y309792D01*
X344275Y310417D01*
X342725D01*
X341795Y310833D01*
X341020Y311875D01*
X340710Y313333D01*
X341175Y314792D01*
X342260Y315833D01*
X343500Y316250D01*
X344740Y315833D01*
X345825Y314792D01*
X346290Y313333D01*
X345980Y311875D01*
X345205Y310833D01*
X344275Y310417D01*
X342725D01*
X341330Y309792D01*
X340400Y308541D01*
X340090Y307083D01*
X340400Y305625D01*
X341175Y304583D01*
X342415Y303958D01*
X343500Y303750D01*
G01X355900Y303333D02*
X355590Y303542D01*
Y303958D01*
X355900Y304167D01*
X356210Y303958D01*
Y303542D01*
X355900Y303333D01*
G01X364890Y306250D02*
X365820Y304791D01*
X367060Y303958D01*
X368455Y303750D01*
X369695Y303958D01*
X370935Y305000D01*
X371710Y306250D01*
X371865Y307500D01*
X371555Y308958D01*
X370470Y310000D01*
X369385Y310417D01*
X367990D01*
G01X369385D02*
X370315Y311042D01*
X371090Y312083D01*
X371400Y313333D01*
X371090Y314583D01*
X370315Y315625D01*
X368920Y316250D01*
X367525Y316042D01*
X366130Y315208D01*
G01X377755Y314167D02*
X378685Y315416D01*
X379770Y316042D01*
X381010Y316250D01*
X382560Y315833D01*
X383645Y314792D01*
X383955Y313542D01*
X383800Y312291D01*
X383180Y311250D01*
X380080Y309167D01*
X378685Y307708D01*
X377755Y305625D01*
X377445Y303750D01*
X383955D01*
G01X309400D02*
X304750D01*
Y316250D01*
X309400D01*
G01X367331Y11341D02*
X528828D01*
G01X359457Y19215D02*
G03X367331Y11341I7874J0D01*
G01X359457Y19215D02*
Y42837D01*
G01X390000Y303750D02*
X394650D01*
Y316250D01*
X390000D01*
G01X404025Y310000D02*
X604812D01*
G01X528828Y11341D02*
G03X536702Y19215I0J7874D01*
G01D02*
Y64490D01*
G01X544576Y72364D02*
G03X536702Y64490I0J-7874D01*
G01X544576Y72364D02*
X573316D01*
G01X562214Y278787D02*
G03X554340Y286661I-7874J0D01*
G01X573316Y72364D02*
G03X581190Y80238I0J7874D01*
G01X596938Y164803D02*
X570088D01*
G01X562214Y278787D02*
Y172677D01*
G01D02*
G03X570088Y164803I7874J0D01*
G01X581190Y117640D02*
Y80238D01*
G01X589064Y125514D02*
G03X581190Y117640I0J-7874D01*
G01X596938Y125514D02*
X589064D01*
G01X589812Y307500D02*
X604812Y310000D01*
X589812Y312500D01*
Y307500D01*
G01X596938Y125514D02*
G03X604812Y133388I0J7874D01*
G01D02*
Y156929D01*
G01D02*
G03X596938Y164803I-7874J0D01*
G01X604812Y158023D02*
Y320000D01*
G54D17*
X73185Y32283D03*
X108815D03*
G54D26*
X441780Y181240D03*
G54D36*
G01X43000Y108300D02*
Y110500D01*
X53308Y120808D01*
Y122708D01*
G01X240196Y227152D02*
X239229D01*
X237685Y228696D01*
X233317D01*
X232352Y229661D01*
Y242148D01*
X229000Y245500D01*
Y247000D01*
X228034Y247966D01*
X225535D01*
X224500Y249001D01*
Y254000D01*
X222000Y256500D01*
X212000D01*
X207000Y261500D01*
X144000D01*
X141000Y258500D01*
Y223000D01*
X139000Y221000D01*
X121000D01*
X112500Y212500D01*
X99000D01*
X91000Y204500D01*
X88500D01*
X86000Y202000D01*
Y193000D01*
X65500Y172500D01*
Y128000D01*
X61645Y124145D01*
X59818D01*
X58381Y122708D01*
X53308D01*
G01X240195Y224001D02*
X239999D01*
X238500Y225500D01*
X235000D01*
X231742Y228758D01*
X230106D01*
X229140Y229724D01*
Y230942D01*
X229139Y230943D01*
Y240861D01*
X221182Y248818D01*
Y253817D01*
X219500Y255500D01*
X211016D01*
X211004Y255507D01*
X210997Y255511D01*
X210839Y255605D01*
X206500Y259944D01*
X151444D01*
X144000Y252500D01*
Y236705D01*
X145337Y235368D01*
Y234004D01*
X144389Y233056D01*
Y224889D01*
X138500Y219000D01*
X129000D01*
X126000Y216000D01*
X121500D01*
X116000Y210500D01*
X99000D01*
X91500Y203000D01*
X88500D01*
X87500Y202000D01*
Y192500D01*
X73500Y178500D01*
Y173500D01*
X75000Y172000D01*
Y106900D01*
X67400Y99300D01*
G01X256994Y266000D02*
Y272506D01*
X246550Y282950D01*
X119053D01*
X118003Y284000D01*
X113197D01*
X112392Y283195D01*
X110745D01*
X110000Y282450D01*
Y267900D01*
X110500Y267400D01*
X115200D01*
X115700Y266900D01*
Y266000D01*
X116200Y265500D01*
X117500D01*
X118000Y265000D01*
G01X254500Y262500D02*
Y264016D01*
X254984Y264500D01*
Y272516D01*
X245900Y281600D01*
X113927D01*
X113682Y281845D01*
X112145D01*
X111355Y281055D01*
Y279518D01*
X111400Y279473D01*
Y273000D01*
X111755Y272645D01*
X113155D01*
X113800Y272000D01*
Y269250D01*
X114300Y268750D01*
X115760D01*
X116810Y267700D01*
X119500D01*
X120000Y267200D01*
Y263500D01*
G01X253000Y266000D02*
X253016Y266016D01*
Y272574D01*
X245340Y280250D01*
X117000D01*
X115750Y279000D01*
X114500D01*
X112900Y277400D01*
Y274810D01*
X114210Y273500D01*
X115000D01*
X115500Y273000D01*
Y270900D01*
X116300Y270100D01*
X116320D01*
X117020Y269400D01*
X121500D01*
X122000Y268900D01*
Y265500D01*
G01X124957Y224143D02*
X125870D01*
X126813Y223200D01*
X138800D01*
X139300Y223700D01*
Y265100D01*
X139800Y265600D01*
X144651D01*
X145101Y265150D01*
Y264450D01*
X145551Y264000D01*
X146451D01*
X146901Y264450D01*
Y265150D01*
X147351Y265600D01*
X148251D01*
X148701Y265150D01*
Y264450D01*
X149151Y264000D01*
X150051D01*
X150501Y264450D01*
Y265150D01*
X150951Y265600D01*
X151851D01*
X152301Y265150D01*
Y264450D01*
X152751Y264000D01*
X153651D01*
X154101Y264450D01*
Y265150D01*
X154551Y265600D01*
X155451D01*
X155901Y265150D01*
Y264450D01*
X156351Y264000D01*
X157251D01*
X157701Y264450D01*
Y265150D01*
X158151Y265600D01*
X159051D01*
X159501Y265150D01*
Y264450D01*
X159951Y264000D01*
X160851D01*
X161301Y264450D01*
Y265150D01*
X161751Y265600D01*
X162651D01*
X163101Y265150D01*
Y264450D01*
X163551Y264000D01*
X164451D01*
X164901Y264450D01*
Y265150D01*
X165351Y265600D01*
X166251D01*
X166701Y265150D01*
Y264450D01*
X167151Y264000D01*
X168051D01*
X168501Y264450D01*
Y265150D01*
X168951Y265600D01*
X169851D01*
X170301Y265150D01*
Y264450D01*
X170751Y264000D01*
X171651D01*
X172101Y264450D01*
Y265150D01*
X172551Y265600D01*
X173451D01*
X173901Y265150D01*
Y264450D01*
X174351Y264000D01*
X175251D01*
X175701Y264450D01*
Y265150D01*
X176151Y265600D01*
X177051D01*
X177501Y265150D01*
Y264450D01*
X177951Y264000D01*
X178851D01*
X179301Y264450D01*
Y265150D01*
X179751Y265600D01*
X180651D01*
X181101Y265150D01*
Y264450D01*
X181551Y264000D01*
X182451D01*
X182901Y264450D01*
Y265150D01*
X183351Y265600D01*
X184251D01*
X184701Y265150D01*
Y264450D01*
X185151Y264000D01*
X186051D01*
X186501Y264450D01*
Y265150D01*
X186951Y265600D01*
X187851D01*
X188301Y265150D01*
Y264450D01*
X188751Y264000D01*
X189651D01*
X190101Y264450D01*
Y265150D01*
X190551Y265600D01*
X191451D01*
X191901Y265150D01*
Y264450D01*
X192351Y264000D01*
X193251D01*
X193701Y264450D01*
Y265150D01*
X194151Y265600D01*
X195051D01*
X195501Y265150D01*
Y264450D01*
X195951Y264000D01*
X196851D01*
X197301Y264450D01*
Y265150D01*
X197751Y265600D01*
X198651D01*
X199101Y265150D01*
Y264450D01*
X199551Y264000D01*
X200451D01*
X200901Y264450D01*
Y265150D01*
X201351Y265600D01*
X202251D01*
X202701Y265150D01*
Y264450D01*
X203151Y264000D01*
X204051D01*
X204501Y264450D01*
Y265150D01*
X204951Y265600D01*
X206006D01*
X206506Y265100D01*
Y264000D01*
G01X210984D02*
Y265400D01*
X211484Y265900D01*
X224600D01*
X225100Y266400D01*
Y270200D01*
X224600Y270700D01*
X222871D01*
X222421Y270250D01*
Y268550D01*
X221971Y268100D01*
X221071D01*
X220621Y268550D01*
Y270250D01*
X220171Y270700D01*
X219271D01*
X218821Y270250D01*
Y268550D01*
X218371Y268100D01*
X217471D01*
X217021Y268550D01*
Y270250D01*
X216571Y270700D01*
X215671D01*
X215221Y270250D01*
Y268550D01*
X214771Y268100D01*
X213871D01*
X213421Y268550D01*
Y270250D01*
X212971Y270700D01*
X212071D01*
X211621Y270250D01*
Y268550D01*
X211171Y268100D01*
X210271D01*
X209821Y268550D01*
Y269189D01*
X208360Y270650D01*
X137200D01*
X136600Y270050D01*
Y226700D01*
X136150Y226250D01*
X135200D01*
X134700Y226750D01*
Y228800D01*
X134200Y229300D01*
X133100D01*
X132600Y228800D01*
Y226750D01*
X132100Y226250D01*
X129026D01*
X128500Y226776D01*
Y227233D01*
G01X213494Y262000D02*
X215500D01*
X216000Y261500D01*
Y258600D01*
X216500Y258100D01*
X225400D01*
X226600Y259300D01*
Y271550D01*
X226100Y272050D01*
X136370D01*
X135250Y270930D01*
Y231400D01*
X134750Y230900D01*
X131200D01*
X130700Y230400D01*
Y229278D01*
X130200Y228778D01*
X126386D01*
X126303Y228861D01*
X117800D01*
X117300Y229361D01*
Y230700D01*
X117800Y231200D01*
X128000D01*
X128500Y230700D01*
Y230545D01*
G01X228506Y264000D02*
Y269500D01*
X229006Y270000D01*
X238800D01*
X239300Y270500D01*
Y272900D01*
X238800Y273400D01*
X137020D01*
X137019Y273401D01*
X135901D01*
X135900Y273400D01*
X135810D01*
X133900Y271490D01*
Y232800D01*
X133400Y232300D01*
X129300D01*
X128400Y233200D01*
X122800D01*
X122300Y233700D01*
Y238500D01*
X122800Y239000D01*
X128400D01*
X128900Y239500D01*
Y239800D01*
X129400Y240300D01*
X131500D01*
G01X125584Y227316D02*
X126050D01*
X128466Y224900D01*
X137450D01*
X137950Y225400D01*
Y268800D01*
X138450Y269300D01*
X141600D01*
X142100Y268800D01*
Y267600D01*
X142600Y267100D01*
X144200D01*
X144700Y267600D01*
Y268800D01*
X145200Y269300D01*
X146366D01*
X146816Y268850D01*
Y267550D01*
X147266Y267100D01*
X148166D01*
X148616Y267550D01*
Y268850D01*
X149066Y269300D01*
X149966D01*
X150416Y268850D01*
Y267550D01*
X150866Y267100D01*
X151766D01*
X152216Y267550D01*
Y268850D01*
X152666Y269300D01*
X153566D01*
X154016Y268850D01*
Y267550D01*
X154466Y267100D01*
X155366D01*
X155816Y267550D01*
Y268850D01*
X156266Y269300D01*
X157166D01*
X157616Y268850D01*
Y267550D01*
X158066Y267100D01*
X158966D01*
X159416Y267550D01*
Y268850D01*
X159866Y269300D01*
X160766D01*
X161216Y268850D01*
Y267550D01*
X161666Y267100D01*
X162566D01*
X163016Y267550D01*
Y268850D01*
X163466Y269300D01*
X164366D01*
X164816Y268850D01*
Y267550D01*
X165266Y267100D01*
X166166D01*
X166616Y267550D01*
Y268850D01*
X167066Y269300D01*
X167966D01*
X168416Y268850D01*
Y267550D01*
X168866Y267100D01*
X169766D01*
X170216Y267550D01*
Y268850D01*
X170666Y269300D01*
X171566D01*
X172016Y268850D01*
Y267550D01*
X172466Y267100D01*
X173366D01*
X173816Y267550D01*
Y268850D01*
X174266Y269300D01*
X175166D01*
X175616Y268850D01*
Y267550D01*
X176066Y267100D01*
X176966D01*
X177416Y267550D01*
Y268850D01*
X177866Y269300D01*
X178766D01*
X179216Y268850D01*
Y267550D01*
X179666Y267100D01*
X180566D01*
X181016Y267550D01*
Y268850D01*
X181466Y269300D01*
X182366D01*
X182816Y268850D01*
Y267550D01*
X183266Y267100D01*
X184166D01*
X184616Y267550D01*
Y268850D01*
X185066Y269300D01*
X185966D01*
X186416Y268850D01*
Y267550D01*
X186866Y267100D01*
X187766D01*
X188216Y267550D01*
Y268850D01*
X188666Y269300D01*
X189566D01*
X190016Y268850D01*
Y267550D01*
X190466Y267100D01*
X191366D01*
X191816Y267550D01*
Y268850D01*
X192266Y269300D01*
X193166D01*
X193616Y268850D01*
Y267550D01*
X194066Y267100D01*
X194966D01*
X195416Y267550D01*
Y268850D01*
X195866Y269300D01*
X196766D01*
X197216Y268850D01*
Y267550D01*
X197666Y267100D01*
X198566D01*
X199016Y267550D01*
Y268850D01*
X199466Y269300D01*
X200366D01*
X200816Y268850D01*
Y267550D01*
X201266Y267100D01*
X202166D01*
X202616Y267550D01*
Y268850D01*
X203066Y269300D01*
X203966D01*
X204416Y268850D01*
Y267550D01*
X204866Y267100D01*
X205766D01*
X206216Y267550D01*
Y268850D01*
X206666Y269300D01*
X207800D01*
X208300Y268800D01*
Y265216D01*
X209016Y264500D01*
Y262000D01*
G01X124681Y243160D02*
Y244219D01*
X123900Y245000D01*
X120500D01*
X119500Y246000D01*
Y258000D01*
X119000Y258500D01*
X118000D01*
X117500Y258000D01*
Y253000D01*
X117000Y252500D01*
X116000D01*
X115500Y253000D01*
Y259500D01*
X116400Y260400D01*
X129300D01*
X129800Y260900D01*
Y272200D01*
X133750Y276150D01*
X240860D01*
X242150Y274860D01*
Y268000D01*
X241300Y267150D01*
X233495D01*
X232995Y266650D01*
Y264008D01*
G01X128000Y242000D02*
X128222Y242222D01*
X129722D01*
X132000Y244500D01*
Y249000D01*
X131200Y249800D01*
X127645D01*
X127200Y249355D01*
Y248200D01*
X125800Y246800D01*
X122700D01*
X121500Y248000D01*
Y250000D01*
X122000Y250500D01*
X123500D01*
X124000Y251000D01*
Y252000D01*
X123500Y252500D01*
X122000D01*
X121500Y253000D01*
Y258500D01*
X122000Y259000D01*
X123000D01*
X123500Y258500D01*
Y257000D01*
X124145Y256355D01*
X128145D01*
X129000Y255500D01*
Y254000D01*
X129500Y253500D01*
X130500D01*
X131150Y254150D01*
Y270650D01*
X135300Y274800D01*
X240300D01*
X240800Y274300D01*
Y269100D01*
X240300Y268600D01*
X230600D01*
X230000Y268000D01*
Y267000D01*
X231000Y266000D01*
Y262500D01*
G01X235494D02*
Y265300D01*
X235994Y265800D01*
X241900D01*
X243300Y267200D01*
Y267240D01*
X243500Y267440D01*
Y275420D01*
X241419Y277501D01*
X240301D01*
X240300Y277500D01*
X133000D01*
X128450Y272950D01*
Y262300D01*
X127950Y261800D01*
X115300D01*
X114000Y260500D01*
Y245500D01*
X114500Y245000D01*
X115500D01*
X116000Y245500D01*
Y247500D01*
X116500Y248000D01*
X117500D01*
X118000Y247500D01*
Y241700D01*
X118700Y241000D01*
X125600D01*
X126455Y241855D01*
Y245100D01*
X126955Y245600D01*
X129200D01*
G01X123910Y263590D02*
X124000Y263680D01*
Y267000D01*
X123500Y267500D01*
Y270600D01*
X124000Y271100D01*
X124900D01*
X125300Y270700D01*
Y269800D01*
X125700Y269400D01*
X126600D01*
X127000Y269800D01*
Y272500D01*
X125795Y273705D01*
Y278295D01*
X126400Y278900D01*
X127500D01*
X128000Y278400D01*
Y277000D01*
X128500Y276500D01*
X129500D01*
X130000Y277000D01*
Y278000D01*
X130900Y278900D01*
X243500D01*
X246000Y276400D01*
Y266500D01*
X246500Y266000D01*
X247500D01*
X248000Y266500D01*
Y272500D01*
X248500Y273000D01*
X249500D01*
X250011Y272489D01*
Y262589D01*
X250100Y262500D01*
G01X160352Y81648D02*
X169352D01*
X170500Y80500D01*
X206545D01*
X208000Y81955D01*
X241500D01*
X243045Y83500D01*
X254000D01*
X255000Y82500D01*
X305500D01*
X306000Y83000D01*
Y90518D01*
X306500Y91018D01*
X327798D01*
G01X211846Y183051D02*
X208110Y179315D01*
Y178329D01*
X205491Y175711D01*
X204506D01*
X202029Y173234D01*
Y171683D01*
X195389Y165043D01*
X173183D01*
X172261Y165964D01*
X171625D01*
X171443Y165782D01*
X170806D01*
X170170Y166418D01*
Y167055D01*
X170352Y167237D01*
Y167873D01*
X169716Y168510D01*
X169079D01*
X168897Y168327D01*
X168261D01*
X167624Y168964D01*
Y169600D01*
X167807Y169783D01*
Y170419D01*
X167170Y171055D01*
X166534D01*
X166351Y170873D01*
X165715D01*
X165079Y171509D01*
Y172146D01*
X165261Y172328D01*
Y172965D01*
X164625Y173601D01*
X163988D01*
X163806Y173419D01*
X163169D01*
X162533Y174055D01*
Y174691D01*
X162715Y174874D01*
Y175510D01*
X162079Y176147D01*
X161443D01*
X161260Y175964D01*
X160624D01*
X159987Y176601D01*
Y177237D01*
X160170Y177419D01*
Y178056D01*
X159534Y178692D01*
X158897D01*
X158715Y178510D01*
X158078D01*
X157442Y179146D01*
Y179783D01*
X157624Y179965D01*
Y180601D01*
X156516Y181709D01*
G01X214995Y183051D02*
X213392Y181448D01*
Y179263D01*
X212427Y178298D01*
X211206D01*
X211167Y178259D01*
X210726D01*
X195665Y163197D01*
X171482D01*
X154942Y179737D01*
Y182362D01*
X154935Y182368D01*
Y183290D01*
X153366Y184860D01*
G01X211845Y186202D02*
X209901D01*
X191988Y168289D01*
X175441D01*
X174550Y169179D01*
X173914D01*
X173879Y169144D01*
X173242D01*
X172606Y169781D01*
Y170417D01*
X172641Y170452D01*
Y171089D01*
X172005Y171725D01*
X171368D01*
X171333Y171690D01*
X170697D01*
X170060Y172326D01*
Y172962D01*
X170096Y172998D01*
Y173634D01*
X169459Y174271D01*
X168823D01*
X168787Y174235D01*
X168151D01*
X167515Y174872D01*
Y175508D01*
X167550Y175543D01*
Y176180D01*
X166914Y176816D01*
X166277D01*
X166242Y176781D01*
X165605D01*
X164969Y177417D01*
Y178054D01*
X165004Y178089D01*
Y178725D01*
X164368Y179362D01*
X163732D01*
X163696Y179326D01*
X163060D01*
X162423Y179963D01*
Y180599D01*
X162459Y180635D01*
Y181271D01*
X161414Y182316D01*
X160777D01*
X160742Y182281D01*
X160106D01*
X159469Y182917D01*
Y184261D01*
X156516Y187214D01*
Y191158D01*
G01X153366Y188009D02*
X156303Y185072D01*
Y184174D01*
X173737Y166740D01*
X192978D01*
X210864Y184626D01*
X216570D01*
X218146Y186202D01*
G01X211845Y211402D02*
X210018D01*
X209998Y211422D01*
X209382D01*
X208373Y212431D01*
Y212432D01*
X207246Y213560D01*
X207245D01*
X206483Y214321D01*
X205776D01*
X205015Y213560D01*
X204134D01*
X203513Y214180D01*
Y214887D01*
X204354Y215728D01*
Y216435D01*
X203930Y216859D01*
X203223D01*
X202001Y215637D01*
X201294D01*
X200276Y216655D01*
X195099D01*
X193055Y218698D01*
X183849D01*
X176786Y211635D01*
X170563D01*
X163360Y204432D01*
Y203725D01*
X164350Y202735D01*
Y202028D01*
X162855Y200533D01*
Y199825D01*
X164128Y198553D01*
Y197846D01*
X163633Y197351D01*
X162926D01*
X161865Y198411D01*
X161158D01*
X160733Y197987D01*
Y197280D01*
X161653Y196361D01*
Y195654D01*
X160309Y194310D01*
X159602D01*
X159147Y194765D01*
Y195897D01*
X158789Y196255D01*
X157720D01*
X156516Y197458D01*
G01X211845Y217702D02*
X208168Y221380D01*
X207486D01*
X206413Y222453D01*
X199907D01*
X197857Y224504D01*
X181319D01*
X181030Y224215D01*
X179752D01*
X179741Y224226D01*
X174876D01*
X174852Y224201D01*
X174777D01*
X173870Y223294D01*
Y222091D01*
X172899Y221119D01*
X171986D01*
X167239Y216372D01*
X161865D01*
X157155Y211662D01*
X156736D01*
X156678Y211603D01*
X155877D01*
X154971Y210697D01*
Y209477D01*
X154005Y208512D01*
X152786D01*
X151820Y207546D01*
Y206921D01*
X151796Y206897D01*
Y196808D01*
X152716Y195887D01*
X154914D01*
X155202Y195598D01*
X155225D01*
X156516Y194307D01*
G01Y206906D02*
Y204608D01*
X157233Y203891D01*
X157870D01*
X159036Y205058D01*
Y205765D01*
X158683Y206119D01*
Y206826D01*
X159178Y207321D01*
X159885D01*
X160239Y206967D01*
X160946D01*
X161936Y207957D01*
Y208664D01*
X160309Y210291D01*
Y210998D01*
X160733Y211422D01*
X161299D01*
X163279Y209442D01*
X163986D01*
X164481Y209937D01*
Y210644D01*
X162721Y212404D01*
Y213111D01*
X163216Y213606D01*
X163923D01*
X165860Y211670D01*
X166567D01*
X172824Y217926D01*
X176066D01*
X177238Y216754D01*
X178087D01*
X180532Y219200D01*
Y220402D01*
X181579Y221449D01*
X189267D01*
X189274Y221456D01*
X194187D01*
X195205Y220438D01*
X195912D01*
X196725Y221251D01*
X197234D01*
X199129Y219356D01*
X201901D01*
X202271Y219726D01*
X205039D01*
X206086Y218678D01*
X207050D01*
X208605Y217124D01*
Y216160D01*
X210213Y214552D01*
X211846D01*
G01X218146D02*
Y213877D01*
X217161Y212891D01*
X215691D01*
X215635Y212947D01*
X214415D01*
X213450Y213912D01*
Y215238D01*
X212531Y216156D01*
X211206D01*
X210300Y217063D01*
Y217338D01*
X207609Y220029D01*
X206927D01*
X205880Y221076D01*
X199375D01*
X197644Y222806D01*
X188717D01*
X188709Y222799D01*
X181020D01*
X179297Y221076D01*
X176069D01*
X176066Y221079D01*
X174947D01*
X174922Y221054D01*
X174777D01*
X173135Y219412D01*
X172401D01*
X166602Y213614D01*
X165895D01*
X164488Y215021D01*
X162423D01*
X158062Y210660D01*
Y209418D01*
X157156Y208512D01*
X156033D01*
X155973Y208452D01*
X155877D01*
X154971Y207546D01*
Y207390D01*
X154935Y207355D01*
Y204068D01*
X154370Y203502D01*
X153688D01*
X153238Y203952D01*
Y205482D01*
X153366Y205610D01*
Y206907D01*
G01Y197457D02*
X155070Y199162D01*
X155777D01*
X155877Y199062D01*
X157141D01*
X157955Y198249D01*
X158662D01*
X159567Y199154D01*
Y199861D01*
X158400Y201028D01*
Y201735D01*
X159178Y202512D01*
X159885D01*
X161052Y201346D01*
X161759D01*
X162395Y201982D01*
Y202689D01*
X160875Y204210D01*
Y204917D01*
X161514Y205556D01*
X162363D01*
X172613Y215806D01*
X173781D01*
X174777Y214810D01*
X176032D01*
X176096Y214745D01*
X177987D01*
X183340Y220098D01*
X189827D01*
X189834Y220105D01*
X193628D01*
X195728Y218005D01*
X202460D01*
X202664Y218210D01*
X204575D01*
X209803Y212981D01*
X212207D01*
X212241Y212947D01*
X212485D01*
X214030Y211402D01*
X214996D01*
G01X166107Y218352D02*
X159000Y225459D01*
Y228286D01*
X164835Y234120D01*
X166744D01*
X170704Y230160D01*
X173108D01*
X177419Y234474D01*
X182526D01*
X184000Y233000D01*
Y231500D01*
X185000Y230500D01*
X188500D01*
X189064Y231064D01*
Y234079D01*
X189459Y234474D01*
X190020D01*
X190415Y234079D01*
Y233595D01*
X190810Y233201D01*
X191371D01*
X191766Y233595D01*
Y234079D01*
X192160Y234474D01*
X192722D01*
X193116Y234079D01*
Y233595D01*
X193511Y233201D01*
X194072D01*
X194467Y233595D01*
Y234079D01*
X194861Y234474D01*
X195423D01*
X195817Y234079D01*
Y233595D01*
X196212Y233201D01*
X196773D01*
X197168Y233595D01*
Y234079D01*
X197562Y234474D01*
X198124D01*
X198518Y234079D01*
Y233595D01*
X198913Y233201D01*
X199474D01*
X199869Y233595D01*
Y234079D01*
X200264Y234474D01*
X200825D01*
X201220Y234079D01*
Y233595D01*
X201614Y233201D01*
X202176D01*
X202570Y233595D01*
Y234079D01*
X202965Y234474D01*
X203526D01*
X203921Y234079D01*
Y233595D01*
X204315Y233201D01*
X209911D01*
X211206Y231906D01*
X212940D01*
X212965Y231881D01*
X213416D01*
X214995Y230302D01*
G01X218146Y192502D02*
X219716Y190931D01*
Y188701D01*
X218795Y187781D01*
X212997D01*
X212750Y187534D01*
X212698D01*
X212485Y187747D01*
X211206D01*
X211011Y187552D01*
X210923D01*
X210861Y187614D01*
X208721D01*
X190880Y169773D01*
X176219D01*
X175592Y170401D01*
Y171037D01*
X176865Y172310D01*
Y172946D01*
X176228Y173583D01*
X175592D01*
X174319Y172310D01*
X173683D01*
X173046Y172946D01*
Y173583D01*
X174319Y174855D01*
Y175492D01*
X173683Y176128D01*
X173046D01*
X171774Y174855D01*
X171137D01*
X170209Y175784D01*
Y176491D01*
X171623Y177905D01*
G01X211845Y192502D02*
X211734Y192613D01*
X206519D01*
X205324Y191418D01*
X204765D01*
X204069Y192114D01*
X203510D01*
X203114Y191719D01*
Y191160D01*
X203810Y190463D01*
Y189905D01*
X203414Y189509D01*
X202856D01*
X202159Y190205D01*
X201601D01*
X201205Y189809D01*
Y189251D01*
X201901Y188554D01*
Y187996D01*
X201505Y187600D01*
X200947D01*
X200250Y188296D01*
X199692D01*
X199296Y187900D01*
Y187342D01*
X199992Y186645D01*
Y186086D01*
X199596Y185690D01*
X199037D01*
X198341Y186387D01*
X197782D01*
X197386Y185991D01*
Y185432D01*
X198083Y184736D01*
Y184177D01*
X197687Y183781D01*
X197128D01*
X196432Y184478D01*
X195873D01*
X195477Y184082D01*
Y183523D01*
X196174Y182827D01*
Y182268D01*
X195778Y181872D01*
X195219D01*
X194523Y182569D01*
X193964D01*
X193568Y182173D01*
Y181614D01*
X194264Y180917D01*
Y180359D01*
X193869Y179963D01*
X193310D01*
X192613Y180659D01*
X192055D01*
X191659Y180263D01*
Y179705D01*
X192355Y179008D01*
Y178450D01*
X191959Y178054D01*
X191401D01*
X190704Y178750D01*
X190146D01*
X189750Y178354D01*
Y177796D01*
X190446Y177099D01*
Y176540D01*
X189831Y175925D01*
X188099D01*
X187144Y176880D01*
X186585D01*
X185435Y175729D01*
X184547D01*
X184068Y176208D01*
Y176915D01*
X184704Y177552D01*
Y178259D01*
X183997Y178966D01*
X183290D01*
X182230Y177905D01*
Y176632D01*
X181692Y176095D01*
X180985D01*
X179924Y177156D01*
Y177863D01*
X181522Y179461D01*
Y180168D01*
X181067Y180623D01*
X180431D01*
X178762Y178955D01*
X178125D01*
X175845Y181235D01*
G01X214996Y217702D02*
X214998D01*
X216569Y216131D01*
X221937D01*
X222866Y215202D01*
Y208901D01*
X222875Y208892D01*
Y201312D01*
X221945Y200381D01*
X220969D01*
X220935Y200347D01*
X220657D01*
X219750Y199441D01*
Y199162D01*
X219716Y199128D01*
Y198152D01*
X218795Y197231D01*
X211196D01*
X210764Y196799D01*
X202396D01*
X195184Y189587D01*
X186698D01*
X186697Y189585D01*
X173946D01*
X172331Y191200D01*
G01X172177Y188102D02*
X167544Y192735D01*
Y194069D01*
X165856Y195756D01*
X165149D01*
X163580Y194186D01*
Y193479D01*
X165577Y191482D01*
X166249D01*
X171200Y186530D01*
X171907D01*
X171964Y186474D01*
X172838D01*
X173811Y185500D01*
Y185364D01*
X173846Y185330D01*
Y184207D01*
X174775Y183278D01*
X180569D01*
X183000Y180847D01*
X184096D01*
X186030Y178913D01*
X188399D01*
X193260Y183774D01*
Y183845D01*
X203513Y194098D01*
X211178D01*
X211195Y194081D01*
X213424D01*
X214995Y195652D01*
G01X211845Y195651D02*
X211642Y195448D01*
X202955D01*
X191910Y184403D01*
Y184333D01*
X187840Y180263D01*
X186589D01*
X183821Y183032D01*
Y183739D01*
X185199Y185118D01*
X185906D01*
X187816Y183208D01*
X188947D01*
X191775Y186037D01*
Y186744D01*
X190283Y188236D01*
X189308D01*
X188735Y187663D01*
Y186956D01*
X189725Y185966D01*
Y185542D01*
X189159Y184976D01*
X188330D01*
X185779Y187527D01*
X185072D01*
X184621Y187076D01*
Y186885D01*
X184171Y186436D01*
X183270D01*
X182821Y186885D01*
Y187783D01*
X182371Y188233D01*
X181470D01*
X181020Y187783D01*
Y186885D01*
X181027D01*
X182618Y185294D01*
Y184658D01*
X182371Y184411D01*
X181709D01*
X179684Y186436D01*
X176987D01*
X175416Y188007D01*
G01X214996Y201952D02*
X213450Y200406D01*
X211206D01*
X210827Y200785D01*
X205559D01*
X204044Y202300D01*
X200968D01*
X198564Y199896D01*
X197857D01*
X194392Y203361D01*
X193826D01*
X191252Y200787D01*
Y200229D01*
X191922Y199559D01*
Y198911D01*
X191463Y198452D01*
X190815D01*
X190220Y199048D01*
X189513D01*
X189124Y198659D01*
Y197952D01*
X190043Y197032D01*
Y196396D01*
X188091Y194444D01*
X187546D01*
X187179Y194078D01*
X186280D01*
X184209Y196149D01*
X183502D01*
X182017Y194664D01*
X181310D01*
X180745Y195229D01*
Y195936D01*
X182230Y197421D01*
Y198128D01*
X181560Y198798D01*
X180853D01*
X180112Y198057D01*
Y196815D01*
X179205Y195909D01*
X177927D01*
X177831Y196004D01*
X177124D01*
X176971Y195852D01*
X174607D01*
X173886Y196573D01*
X173263D01*
X172542Y195852D01*
X171627D01*
X170784Y195008D01*
X170076D01*
X168441Y196644D01*
Y197351D01*
X169132Y198041D01*
X169839D01*
X170829Y197052D01*
X171536D01*
X172116Y197631D01*
Y198338D01*
X171126Y199328D01*
Y200035D01*
X171941Y200851D01*
X172578D01*
X173037Y200391D01*
Y199834D01*
X175416Y197455D01*
G01X218146Y198802D02*
X216600Y200348D01*
Y202591D01*
X217506Y203497D01*
X218785D01*
X219172Y203110D01*
X219879D01*
X220838Y204068D01*
Y204775D01*
X219468Y206145D01*
X218761D01*
X217065Y204449D01*
X214713D01*
X213477Y203213D01*
X212769D01*
X211780Y204202D01*
X211139D01*
X210423Y203486D01*
X206676D01*
X204221Y205942D01*
X203513D01*
X202684Y205113D01*
X199820D01*
X198493Y203785D01*
X197786D01*
X197362Y204210D01*
Y204917D01*
X198287Y205842D01*
Y206390D01*
X197649Y207027D01*
X197102D01*
X196102Y206028D01*
X195544D01*
X195148Y206423D01*
Y206982D01*
X196142Y207976D01*
Y208535D01*
X195945Y208732D01*
X195237D01*
X192907Y206402D01*
X192200D01*
X191634Y206967D01*
Y207674D01*
X193919Y209959D01*
Y210622D01*
X193451Y211090D01*
X192919D01*
X191855Y210027D01*
X191724D01*
X190715Y209018D01*
X190008D01*
X189796Y209230D01*
X189088D01*
X188169Y208311D01*
X187462D01*
X186683Y209090D01*
X185696D01*
X180391Y203785D01*
Y203149D01*
X179473Y202231D01*
X178837D01*
X178757Y202151D01*
X177927D01*
X177345Y201569D01*
X176638D01*
X176055Y202152D01*
X174777D01*
X174441Y201816D01*
X173734D01*
X173353Y202197D01*
Y202621D01*
X172259Y203715D01*
G01X211846Y198802D02*
X210299D01*
X209666Y199434D01*
X204954D01*
X204150Y198630D01*
X203506D01*
X203054Y199083D01*
Y199719D01*
X203231Y199896D01*
Y200462D01*
X202743Y200950D01*
X201526D01*
X200225Y199649D01*
Y198987D01*
X200637Y198575D01*
Y197868D01*
X199660Y196891D01*
X198953D01*
X194427Y201416D01*
X193791D01*
X193272Y200898D01*
Y199955D01*
X197503Y195724D01*
Y195017D01*
X194620Y192134D01*
X193913D01*
X193418Y192629D01*
Y193336D01*
X195382Y195300D01*
Y196007D01*
X193663Y197726D01*
X192999D01*
X192531Y197258D01*
Y196595D01*
X193331Y195795D01*
Y195088D01*
X192573Y194330D01*
X191866D01*
X191230Y194966D01*
X190522D01*
X190126Y194570D01*
Y194012D01*
X191477Y192661D01*
Y192102D01*
X191081Y191706D01*
X190522D01*
X189172Y193057D01*
X188613D01*
X188284Y192728D01*
X187804D01*
X187410Y192333D01*
Y191947D01*
X187015Y191552D01*
X186454D01*
X186059Y191947D01*
Y192333D01*
X185665Y192728D01*
X185103D01*
X184709Y192333D01*
Y191947D01*
X184314Y191552D01*
X183753D01*
X183358Y191947D01*
Y192924D01*
X182969Y193313D01*
X182396D01*
X182007Y192924D01*
Y191947D01*
X181613Y191552D01*
X181051D01*
X180657Y191947D01*
Y192333D01*
X180262Y192728D01*
X179701D01*
X179306Y192333D01*
Y191947D01*
X178912Y191552D01*
X178350D01*
X177956Y191947D01*
Y192333D01*
X177561Y192728D01*
X173913D01*
X172334Y194306D01*
X172266D01*
G01X211845Y201952D02*
X211661Y202136D01*
X206118D01*
X204491Y203762D01*
X200379D01*
X198493Y201876D01*
X197786D01*
X194392Y205270D01*
X193686D01*
X193467Y205051D01*
X193465D01*
X192907Y204492D01*
X192200D01*
X189690Y207003D01*
X188982D01*
X188593Y206614D01*
Y205907D01*
X191070Y203430D01*
Y202726D01*
X190572Y202228D01*
X189868D01*
X185624Y206472D01*
X184987D01*
X184407Y205892D01*
Y205256D01*
X188795Y200868D01*
Y200310D01*
X188399Y199914D01*
X187840D01*
X183453Y204301D01*
X182816D01*
X182159Y203644D01*
Y203007D01*
X188099Y197068D01*
Y196361D01*
X187533Y195795D01*
X186826D01*
X181240Y201381D01*
X180532D01*
X180112Y200960D01*
Y199966D01*
X179180Y199035D01*
X176987D01*
X175416Y200606D01*
G01X211846Y230302D02*
X210802D01*
X209800Y229300D01*
Y226800D01*
X209400Y226400D01*
X208700D01*
X208300Y226800D01*
Y229800D01*
X207900Y230200D01*
X207199D01*
X206782Y229782D01*
Y228787D01*
X206387Y228393D01*
X205826D01*
X205431Y228787D01*
Y229907D01*
X205037Y230302D01*
X204475D01*
X204081Y229907D01*
Y228787D01*
X203686Y228393D01*
X203125D01*
X202730Y228787D01*
Y229907D01*
X202335Y230302D01*
X201774D01*
X201379Y229907D01*
Y228787D01*
X200985Y228393D01*
X200423D01*
X200029Y228787D01*
Y229907D01*
X199634Y230302D01*
X199073D01*
X198678Y229907D01*
Y228787D01*
X198284Y228393D01*
X197722D01*
X197328Y228787D01*
Y229907D01*
X196933Y230302D01*
X196372D01*
X195977Y229907D01*
Y228787D01*
X195583Y228393D01*
X195021D01*
X194627Y228787D01*
Y229907D01*
X194232Y230302D01*
X193671D01*
X193276Y229907D01*
Y227776D01*
X192500Y227000D01*
X183000D01*
X182500Y227500D01*
Y229678D01*
X181452Y230726D01*
X179408D01*
X176066Y227384D01*
X174766D01*
X173757Y228393D01*
X171694D01*
X169714Y226413D01*
X169077D01*
X164905Y230585D01*
X164198D01*
X161455Y227842D01*
Y227135D01*
X168314Y220276D01*
G01X214995Y236602D02*
X213392Y238206D01*
X211207D01*
X209455Y236454D01*
X208581D01*
X208186Y236848D01*
Y238180D01*
X207791Y238575D01*
X207230D01*
X206835Y238180D01*
Y236848D01*
X206441Y236454D01*
X205879D01*
X205485Y236848D01*
Y238180D01*
X205090Y238575D01*
X204529D01*
X204134Y238180D01*
Y236848D01*
X203740Y236454D01*
X203178D01*
X202784Y236848D01*
Y238180D01*
X202389Y238575D01*
X201828D01*
X201433Y238180D01*
Y236848D01*
X201039Y236454D01*
X200477D01*
X200083Y236848D01*
Y238180D01*
X199688Y238575D01*
X199127D01*
X198732Y238180D01*
Y236848D01*
X198337Y236454D01*
X197776D01*
X197381Y236848D01*
Y238180D01*
X196987Y238575D01*
X196425D01*
X196031Y238180D01*
Y236848D01*
X195636Y236454D01*
X195075D01*
X194680Y236848D01*
Y238180D01*
X194286Y238575D01*
X193724D01*
X193330Y238180D01*
Y236848D01*
X192935Y236454D01*
X192374D01*
X191979Y236848D01*
Y238180D01*
X191585Y238575D01*
X191023D01*
X190629Y238180D01*
Y236848D01*
X190234Y236454D01*
X189673D01*
X189278Y236848D01*
Y238180D01*
X188883Y238575D01*
X185621D01*
X185226Y238180D01*
Y236848D01*
X184832Y236454D01*
X184270D01*
X183876Y236848D01*
Y238180D01*
X183481Y238575D01*
X182920D01*
X182525Y238180D01*
Y236848D01*
X182131Y236454D01*
X181569D01*
X181175Y236848D01*
Y238180D01*
X180780Y238575D01*
X180219D01*
X179824Y238180D01*
Y236848D01*
X179429Y236454D01*
X178868D01*
X178473Y236848D01*
Y238180D01*
X178079Y238575D01*
X177517D01*
X177123Y238180D01*
Y236848D01*
X176728Y236454D01*
X176167D01*
X175772Y236848D01*
Y238180D01*
X175378Y238575D01*
X174816D01*
X174422Y238180D01*
Y236848D01*
X174027Y236454D01*
X173346D01*
X173000Y236800D01*
Y237400D01*
X172600Y237800D01*
X171900D01*
X171500Y237400D01*
Y232899D01*
X172047Y232352D01*
G01X394516Y108500D02*
X392000D01*
X388750Y111750D01*
Y112850D01*
X382950Y118650D01*
X371940D01*
X370590Y120000D01*
X370500D01*
X363000Y127500D01*
X261500D01*
X254750Y134250D01*
X252750D01*
X244595Y142405D01*
Y142441D01*
X242286Y144750D01*
X242250D01*
X241350Y145650D01*
X241340D01*
X227851Y159139D01*
Y159149D01*
X226000Y161000D01*
Y176101D01*
X229140Y179241D01*
Y181640D01*
X230551Y183051D01*
X230746D01*
G01X243356Y183062D02*
X241822Y184596D01*
X239554D01*
X238591Y183633D01*
Y179261D01*
X237687Y178357D01*
X236448D01*
X235500Y177409D01*
Y161100D01*
X241455Y155145D01*
Y154008D01*
X242318Y153145D01*
X245355D01*
X256500Y142000D01*
Y138820D01*
X260320Y135000D01*
X365500D01*
X375500Y125000D01*
X386000D01*
X400500Y110500D01*
G01X392006Y111000D02*
X392900Y111894D01*
Y114200D01*
X387100Y120000D01*
X372500D01*
X363500Y129000D01*
X262500D01*
X252250Y139250D01*
Y141250D01*
X246500Y147000D01*
X241900D01*
X229201Y159699D01*
Y177392D01*
X230165Y178356D01*
X231356D01*
X231357Y178357D01*
X231387D01*
X232931Y179901D01*
X233896D01*
G01X397500Y110500D02*
Y111400D01*
X394250Y114650D01*
Y114760D01*
X387660Y121350D01*
X387550D01*
X387400Y121500D01*
X373000D01*
X364000Y130500D01*
X262910D01*
X254955Y138455D01*
X255000Y138500D01*
Y141000D01*
X246750Y149250D01*
X241950D01*
X232350Y158850D01*
Y177392D01*
X233314Y178356D01*
X234537D01*
X235441Y179260D01*
Y181751D01*
X236741Y183051D01*
X237046D01*
G01X237045Y176752D02*
Y175789D01*
X238591Y174243D01*
Y171034D01*
X238590Y171033D01*
Y169811D01*
X237000Y168221D01*
Y162800D01*
X241198Y158602D01*
X242884D01*
X258500Y142986D01*
Y138730D01*
X260623Y136607D01*
X270690D01*
X272134Y138051D01*
X289416D01*
X290060Y137407D01*
X293040D01*
X293684Y138051D01*
X373696D01*
X385047Y126700D01*
X388692D01*
X398341Y117051D01*
X417949D01*
X419500Y115500D01*
Y105100D01*
X420000Y104600D01*
X428873D01*
X430237Y105964D01*
Y110021D01*
G01X379000Y140103D02*
Y142001D01*
X375300Y145700D01*
X362998D01*
X362548Y146150D01*
Y146750D01*
X362098Y147200D01*
X361198D01*
X360748Y146750D01*
Y146150D01*
X360298Y145700D01*
X359398D01*
X358948Y146150D01*
Y146750D01*
X358498Y147200D01*
X357598D01*
X357148Y146750D01*
Y146150D01*
X356698Y145700D01*
X355798D01*
X355348Y146150D01*
Y146750D01*
X354898Y147200D01*
X353998D01*
X353548Y146750D01*
Y146150D01*
X353098Y145700D01*
X352198D01*
X351748Y146150D01*
Y146750D01*
X351298Y147200D01*
X350398D01*
X349948Y146750D01*
Y146150D01*
X349498Y145700D01*
X348598D01*
X348148Y146150D01*
Y146750D01*
X347698Y147200D01*
X346798D01*
X346348Y146750D01*
Y146150D01*
X345898Y145700D01*
X344998D01*
X344548Y146150D01*
Y146750D01*
X344098Y147200D01*
X343198D01*
X342748Y146750D01*
Y146150D01*
X342298Y145700D01*
X341398D01*
X340948Y146150D01*
Y146750D01*
X340498Y147200D01*
X339598D01*
X339148Y146750D01*
Y146150D01*
X338698Y145700D01*
X337798D01*
X337348Y146150D01*
Y146750D01*
X336898Y147200D01*
X335998D01*
X335548Y146750D01*
Y146150D01*
X335098Y145700D01*
X334198D01*
X333748Y146150D01*
Y146750D01*
X333298Y147200D01*
X332398D01*
X331948Y146750D01*
Y146150D01*
X331498Y145700D01*
X330598D01*
X330148Y146150D01*
Y146750D01*
X329698Y147200D01*
X328798D01*
X328348Y146750D01*
Y146150D01*
X327898Y145700D01*
X326998D01*
X326548Y146150D01*
Y146750D01*
X326098Y147200D01*
X325198D01*
X324748Y146750D01*
Y146150D01*
X324298Y145700D01*
X323398D01*
X322948Y146150D01*
Y146750D01*
X322498Y147200D01*
X321598D01*
X321148Y146750D01*
Y146150D01*
X320698Y145700D01*
X319798D01*
X319348Y146150D01*
Y146750D01*
X318898Y147200D01*
X317998D01*
X317548Y146750D01*
Y146150D01*
X317098Y145700D01*
X316198D01*
X315748Y146150D01*
Y146750D01*
X315298Y147200D01*
X314398D01*
X313948Y146750D01*
Y146150D01*
X313498Y145700D01*
X312598D01*
X312148Y146150D01*
Y146750D01*
X311698Y147200D01*
X310798D01*
X310348Y146750D01*
Y146150D01*
X309898Y145700D01*
X308998D01*
X308548Y146150D01*
Y146750D01*
X308098Y147200D01*
X307198D01*
X306748Y146750D01*
Y146150D01*
X306298Y145700D01*
X305398D01*
X304948Y146150D01*
Y146750D01*
X304498Y147200D01*
X303598D01*
X303148Y146750D01*
Y146150D01*
X302698Y145700D01*
X301798D01*
X301348Y146150D01*
Y146750D01*
X300898Y147200D01*
X299998D01*
X299548Y146750D01*
Y146150D01*
X299098Y145700D01*
X298198D01*
X297748Y146150D01*
Y146750D01*
X297298Y147200D01*
X296398D01*
X295948Y146750D01*
Y146150D01*
X295498Y145700D01*
X294598D01*
X294148Y146150D01*
Y146750D01*
X293698Y147200D01*
X292798D01*
X292348Y146750D01*
Y146150D01*
X291898Y145700D01*
X290998D01*
X290548Y146150D01*
Y146750D01*
X290098Y147200D01*
X289198D01*
X288748Y146750D01*
Y146150D01*
X288298Y145700D01*
X287398D01*
X286948Y146150D01*
Y146750D01*
X286498Y147200D01*
X285598D01*
X285148Y146750D01*
Y146150D01*
X284698Y145700D01*
X283798D01*
X283348Y146150D01*
Y146750D01*
X282898Y147200D01*
X281998D01*
X281548Y146750D01*
Y146150D01*
X281098Y145700D01*
X280198D01*
X279748Y146150D01*
Y146750D01*
X279298Y147200D01*
X278398D01*
X277948Y146750D01*
Y146150D01*
X277498Y145700D01*
X276598D01*
X276148Y146150D01*
Y146750D01*
X275698Y147200D01*
X274798D01*
X274348Y146750D01*
Y146150D01*
X273898Y145700D01*
X272900D01*
X270687Y147913D01*
X261912D01*
X247500Y162325D01*
Y166000D01*
X244890Y168610D01*
Y171093D01*
X244889Y171094D01*
Y172959D01*
X244891Y172961D01*
Y174243D01*
X244889Y174245D01*
Y177392D01*
X243925Y178356D01*
X242704D01*
X242680Y178380D01*
X240859D01*
X240836Y178357D01*
X239597D01*
X238651Y177411D01*
Y176093D01*
X239941Y174803D01*
Y174059D01*
X240195Y173805D01*
Y173602D01*
G01X243345Y176752D02*
X241802Y175209D01*
Y170266D01*
X239000Y167464D01*
Y164243D01*
X242691Y160552D01*
X243691D01*
X260449Y143794D01*
Y143793D01*
X262856Y141386D01*
Y139518D01*
X263818Y138556D01*
X269882D01*
X271326Y140000D01*
X290224D01*
X290868Y139356D01*
X292232D01*
X292876Y140000D01*
X374850D01*
X380750Y134100D01*
X383200D01*
X383700Y134600D01*
Y145500D01*
X384200Y146000D01*
X388743D01*
X390100Y144643D01*
Y140730D01*
X389650Y140280D01*
X389050D01*
X388600Y139830D01*
Y138930D01*
X389050Y138480D01*
X389650D01*
X390100Y138030D01*
Y128049D01*
X399149Y119000D01*
X422743D01*
X424900Y116843D01*
Y111500D01*
X424400Y111000D01*
X422659D01*
G01X380899Y137593D02*
Y142101D01*
X373700Y149300D01*
X354238D01*
X353788Y149750D01*
Y150450D01*
X353338Y150900D01*
X352438D01*
X351988Y150450D01*
Y149750D01*
X351538Y149300D01*
X350638D01*
X350188Y149750D01*
Y150450D01*
X349738Y150900D01*
X348838D01*
X348388Y150450D01*
Y149750D01*
X347938Y149300D01*
X347038D01*
X346588Y149750D01*
Y150450D01*
X346138Y150900D01*
X345238D01*
X344788Y150450D01*
Y149750D01*
X344338Y149300D01*
X343438D01*
X342988Y149750D01*
Y150450D01*
X342538Y150900D01*
X341638D01*
X341188Y150450D01*
Y149750D01*
X340738Y149300D01*
X339838D01*
X339388Y149750D01*
Y150450D01*
X338938Y150900D01*
X338038D01*
X337588Y150450D01*
Y149750D01*
X337138Y149300D01*
X336238D01*
X335788Y149750D01*
Y150450D01*
X335338Y150900D01*
X334438D01*
X333988Y150450D01*
Y149750D01*
X333538Y149300D01*
X332638D01*
X332188Y149750D01*
Y150450D01*
X331738Y150900D01*
X330838D01*
X330388Y150450D01*
Y149750D01*
X329938Y149300D01*
X329038D01*
X328588Y149750D01*
Y150450D01*
X328138Y150900D01*
X327238D01*
X326788Y150450D01*
Y149750D01*
X326338Y149300D01*
X325438D01*
X324988Y149750D01*
Y150450D01*
X324538Y150900D01*
X323638D01*
X323188Y150450D01*
Y149750D01*
X322738Y149300D01*
X321838D01*
X321388Y149750D01*
Y150450D01*
X320938Y150900D01*
X320038D01*
X319588Y150450D01*
Y149750D01*
X319138Y149300D01*
X318238D01*
X317788Y149750D01*
Y150450D01*
X317338Y150900D01*
X316438D01*
X315988Y150450D01*
Y149750D01*
X315538Y149300D01*
X314638D01*
X314188Y149750D01*
Y150450D01*
X313738Y150900D01*
X312838D01*
X312388Y150450D01*
Y149750D01*
X311938Y149300D01*
X311038D01*
X310588Y149750D01*
Y150450D01*
X310138Y150900D01*
X309238D01*
X308788Y150450D01*
Y149750D01*
X308338Y149300D01*
X307438D01*
X306988Y149750D01*
Y150450D01*
X306538Y150900D01*
X305638D01*
X305188Y150450D01*
Y149750D01*
X304738Y149300D01*
X303838D01*
X303388Y149750D01*
Y150450D01*
X302938Y150900D01*
X302038D01*
X301588Y150450D01*
Y149750D01*
X301138Y149300D01*
X300238D01*
X299788Y149750D01*
Y150450D01*
X299338Y150900D01*
X298438D01*
X297988Y150450D01*
Y149750D01*
X297538Y149300D01*
X287685D01*
X287235Y149750D01*
Y150900D01*
X286785Y151350D01*
X285885D01*
X285435Y150900D01*
Y149750D01*
X284985Y149300D01*
X284085D01*
X283635Y149750D01*
Y150900D01*
X283185Y151350D01*
X282285D01*
X281835Y150900D01*
Y149750D01*
X281385Y149300D01*
X280485D01*
X280035Y149750D01*
Y150900D01*
X279585Y151350D01*
X278685D01*
X278235Y150900D01*
Y149750D01*
X277785Y149300D01*
X276885D01*
X276435Y149750D01*
Y150900D01*
X275985Y151350D01*
X275085D01*
X274635Y150900D01*
Y149750D01*
X274185Y149300D01*
X273285D01*
X272835Y149750D01*
Y150900D01*
X272385Y151350D01*
X271485D01*
X271035Y150900D01*
Y149750D01*
X270585Y149300D01*
X269685D01*
X269235Y149750D01*
Y150900D01*
X268785Y151350D01*
X267885D01*
X267435Y150900D01*
Y149750D01*
X266985Y149300D01*
X266085D01*
X265635Y149750D01*
Y150900D01*
X265185Y151350D01*
X264285D01*
X263835Y150900D01*
Y149750D01*
X263385Y149300D01*
X262435D01*
X248850Y162885D01*
Y166560D01*
X246240Y169170D01*
Y172400D01*
X246241Y172401D01*
Y174803D01*
X246239Y174805D01*
Y180261D01*
X245000Y181500D01*
X242000D01*
X240402Y179902D01*
X240195D01*
G01X255694Y252827D02*
Y251371D01*
X241800Y237477D01*
Y231906D01*
X240195Y230302D01*
G01X233896Y236601D02*
Y238149D01*
X235758Y240010D01*
Y250675D01*
X233604Y252829D01*
G01X233896Y230301D02*
X235500Y231906D01*
Y237241D01*
X235758Y237499D01*
Y237939D01*
X246518Y248699D01*
Y252942D01*
X248521Y254944D01*
X250047D01*
X252162Y252829D01*
G01X248909Y252865D02*
X248910Y252864D01*
Y248262D01*
X238657Y238009D01*
Y237247D01*
X238650Y237241D01*
Y231906D01*
X237046Y230302D01*
G01X455000Y123500D02*
Y124500D01*
X453500Y126000D01*
X449000D01*
X448000Y127000D01*
Y168699D01*
X446000Y170699D01*
Y177500D01*
X446550Y178050D01*
Y200100D01*
X444600Y202050D01*
Y215400D01*
X447200Y218000D01*
Y224800D01*
X446400Y225600D01*
Y225916D01*
X445956Y226360D01*
Y227640D01*
X446400Y228084D01*
Y235443D01*
X446351Y235492D01*
Y252508D01*
X446400Y252557D01*
Y253584D01*
X449810Y256994D01*
X450394D01*
X454400Y261000D01*
Y274900D01*
X450100Y279200D01*
X400300D01*
X395400Y284100D01*
X344101D01*
X341250Y281249D01*
X296951D01*
X295922Y282278D01*
X288422D01*
X284900Y278756D01*
Y267700D01*
X276029Y258829D01*
X236329D01*
X231600Y254100D01*
Y251400D01*
X232858Y250142D01*
Y250089D01*
G01X241000Y166000D02*
Y165000D01*
X242900Y163100D01*
X243900D01*
X264355Y142645D01*
X265364D01*
X265814Y143095D01*
Y143900D01*
X266264Y144350D01*
X267164D01*
X267614Y143900D01*
Y143095D01*
X268064Y142645D01*
X268964D01*
X269414Y143095D01*
Y143900D01*
X269864Y144350D01*
X270764D01*
X271214Y143900D01*
Y143095D01*
X271664Y142645D01*
X272564D01*
X273014Y143095D01*
Y143900D01*
X273464Y144350D01*
X274364D01*
X274814Y143900D01*
Y143095D01*
X275264Y142645D01*
X276164D01*
X276614Y143095D01*
Y143900D01*
X277064Y144350D01*
X277964D01*
X278414Y143900D01*
Y143095D01*
X278864Y142645D01*
X279764D01*
X280214Y143095D01*
Y143900D01*
X280664Y144350D01*
X281564D01*
X282014Y143900D01*
Y143095D01*
X282464Y142645D01*
X283364D01*
X283814Y143095D01*
Y143900D01*
X284264Y144350D01*
X285164D01*
X285614Y143900D01*
Y143095D01*
X286064Y142645D01*
X286964D01*
X287414Y143095D01*
Y143900D01*
X287864Y144350D01*
X288764D01*
X289214Y143900D01*
Y143095D01*
X289664Y142645D01*
X290564D01*
X291014Y143095D01*
Y143900D01*
X291464Y144350D01*
X292364D01*
X292814Y143900D01*
Y143095D01*
X293264Y142645D01*
X294164D01*
X294614Y143095D01*
Y143900D01*
X295064Y144350D01*
X295964D01*
X296414Y143900D01*
Y143095D01*
X296864Y142645D01*
X297764D01*
X298214Y143095D01*
Y143900D01*
X298664Y144350D01*
X299564D01*
X300014Y143900D01*
Y143095D01*
X300464Y142645D01*
X301364D01*
X301814Y143095D01*
Y143900D01*
X302264Y144350D01*
X303164D01*
X303614Y143900D01*
Y143095D01*
X304064Y142645D01*
X304964D01*
X305414Y143095D01*
Y143900D01*
X305864Y144350D01*
X306764D01*
X307214Y143900D01*
Y143095D01*
X307664Y142645D01*
X308564D01*
X309014Y143095D01*
Y143900D01*
X309464Y144350D01*
X310364D01*
X310814Y143900D01*
Y143095D01*
X311264Y142645D01*
X312164D01*
X312614Y143095D01*
Y143900D01*
X313064Y144350D01*
X313964D01*
X314414Y143900D01*
Y143095D01*
X314864Y142645D01*
X315764D01*
X316214Y143095D01*
Y143900D01*
X316664Y144350D01*
X317564D01*
X318014Y143900D01*
Y143095D01*
X318464Y142645D01*
X319364D01*
X319814Y143095D01*
Y143900D01*
X320264Y144350D01*
X321164D01*
X321614Y143900D01*
Y143095D01*
X322064Y142645D01*
X322964D01*
X323414Y143095D01*
Y143900D01*
X323864Y144350D01*
X324764D01*
X325214Y143900D01*
Y143095D01*
X325664Y142645D01*
X326564D01*
X327014Y143095D01*
Y143900D01*
X327464Y144350D01*
X328364D01*
X328814Y143900D01*
Y143095D01*
X329264Y142645D01*
X330164D01*
X330614Y143095D01*
Y143900D01*
X331064Y144350D01*
X331964D01*
X332414Y143900D01*
Y143095D01*
X332864Y142645D01*
X333764D01*
X334214Y143095D01*
Y143900D01*
X334664Y144350D01*
X335564D01*
X336014Y143900D01*
Y143095D01*
X336464Y142645D01*
X337364D01*
X337814Y143095D01*
Y143900D01*
X338264Y144350D01*
X339164D01*
X339614Y143900D01*
Y143095D01*
X340064Y142645D01*
X340964D01*
X341414Y143095D01*
Y143900D01*
X341864Y144350D01*
X342764D01*
X343214Y143900D01*
Y143095D01*
X343664Y142645D01*
X344564D01*
X345014Y143095D01*
Y143900D01*
X345464Y144350D01*
X346364D01*
X346814Y143900D01*
Y143095D01*
X347264Y142645D01*
X348164D01*
X348614Y143095D01*
Y143900D01*
X349064Y144350D01*
X349964D01*
X350414Y143900D01*
Y143095D01*
X350864Y142645D01*
X351764D01*
X352214Y143095D01*
Y143900D01*
X352664Y144350D01*
X353564D01*
X354014Y143900D01*
Y143095D01*
X354464Y142645D01*
X355364D01*
X355814Y143095D01*
Y143900D01*
X356264Y144350D01*
X357164D01*
X357614Y143900D01*
Y143095D01*
X358064Y142645D01*
X358964D01*
X359414Y143095D01*
Y143900D01*
X359864Y144350D01*
X360764D01*
X361214Y143900D01*
Y143095D01*
X361664Y142645D01*
X375927D01*
X376500Y142072D01*
G01X404000Y185500D02*
Y187000D01*
X402500Y188500D01*
X377333D01*
X377316Y188483D01*
X371083D01*
X354300Y171700D01*
Y165467D01*
X353132Y164299D01*
X287368D01*
X284368Y167299D01*
X271701D01*
X270090Y168910D01*
Y183691D01*
X269186Y184595D01*
X267906D01*
X267000Y185501D01*
Y192900D01*
X266940Y192960D01*
Y193142D01*
X266036Y194046D01*
X265854D01*
X265780Y194120D01*
X256597D01*
X256585Y194108D01*
X255368D01*
X251252Y189992D01*
Y177393D01*
X251251Y177392D01*
Y175251D01*
X249645Y173645D01*
Y173602D01*
G01X380899Y144582D02*
Y144601D01*
X372800Y152700D01*
X367168D01*
X366718Y153150D01*
Y154150D01*
X366268Y154600D01*
X365368D01*
X364918Y154150D01*
Y153150D01*
X364468Y152700D01*
X363568D01*
X363118Y153150D01*
Y154150D01*
X362668Y154600D01*
X361768D01*
X361318Y154150D01*
Y153150D01*
X360868Y152700D01*
X359968D01*
X359518Y153150D01*
Y154150D01*
X359068Y154600D01*
X358168D01*
X357718Y154150D01*
Y153150D01*
X357268Y152700D01*
X356368D01*
X355918Y153150D01*
Y154150D01*
X355468Y154600D01*
X354568D01*
X354118Y154150D01*
Y153150D01*
X353668Y152700D01*
X352768D01*
X352318Y153150D01*
Y154150D01*
X351868Y154600D01*
X350968D01*
X350518Y154150D01*
Y153150D01*
X350068Y152700D01*
X349168D01*
X348718Y153150D01*
Y154150D01*
X348268Y154600D01*
X347368D01*
X346918Y154150D01*
Y153150D01*
X346468Y152700D01*
X345568D01*
X345118Y153150D01*
Y154150D01*
X344668Y154600D01*
X343768D01*
X343318Y154150D01*
Y153150D01*
X342868Y152700D01*
X341968D01*
X341518Y153150D01*
Y154150D01*
X341068Y154600D01*
X340168D01*
X339718Y154150D01*
Y153150D01*
X339268Y152700D01*
X338368D01*
X337918Y153150D01*
Y154150D01*
X337468Y154600D01*
X336568D01*
X336118Y154150D01*
Y153150D01*
X335668Y152700D01*
X334768D01*
X334318Y153150D01*
Y154150D01*
X333868Y154600D01*
X332968D01*
X332518Y154150D01*
Y153150D01*
X332068Y152700D01*
X331168D01*
X330718Y153150D01*
Y154150D01*
X330268Y154600D01*
X329368D01*
X328918Y154150D01*
Y153150D01*
X328468Y152700D01*
X327568D01*
X327118Y153150D01*
Y154150D01*
X326668Y154600D01*
X325768D01*
X325318Y154150D01*
Y153150D01*
X324868Y152700D01*
X323968D01*
X323518Y153150D01*
Y154150D01*
X323068Y154600D01*
X322168D01*
X321718Y154150D01*
Y153150D01*
X321268Y152700D01*
X320368D01*
X319918Y153150D01*
Y154150D01*
X319468Y154600D01*
X318568D01*
X318118Y154150D01*
Y153150D01*
X317668Y152700D01*
X316768D01*
X316318Y153150D01*
Y154150D01*
X315868Y154600D01*
X314968D01*
X314518Y154150D01*
Y153150D01*
X314068Y152700D01*
X313168D01*
X312718Y153150D01*
Y154150D01*
X312268Y154600D01*
X311368D01*
X310918Y154150D01*
Y153150D01*
X310468Y152700D01*
X309568D01*
X309118Y153150D01*
Y154150D01*
X308668Y154600D01*
X307768D01*
X307318Y154150D01*
Y153150D01*
X306868Y152700D01*
X305968D01*
X305518Y153150D01*
Y154150D01*
X305068Y154600D01*
X304168D01*
X303718Y154150D01*
Y153150D01*
X303268Y152700D01*
X302368D01*
X301918Y153150D01*
Y154150D01*
X301468Y154600D01*
X300568D01*
X300118Y154150D01*
Y153150D01*
X299668Y152700D01*
X298768D01*
X298318Y153150D01*
Y154150D01*
X297868Y154600D01*
X296968D01*
X296518Y154150D01*
Y153150D01*
X296068Y152700D01*
X295168D01*
X294718Y153150D01*
Y154150D01*
X294268Y154600D01*
X293368D01*
X292918Y154150D01*
Y153150D01*
X292468Y152700D01*
X291568D01*
X291118Y153150D01*
Y154150D01*
X290668Y154600D01*
X289768D01*
X289318Y154150D01*
Y153150D01*
X288868Y152700D01*
X287968D01*
X287518Y153150D01*
Y154150D01*
X287068Y154600D01*
X286168D01*
X285718Y154150D01*
Y153150D01*
X285268Y152700D01*
X284368D01*
X283918Y153150D01*
Y154150D01*
X283468Y154600D01*
X282568D01*
X282118Y154150D01*
Y153150D01*
X281668Y152700D01*
X280768D01*
X280318Y153150D01*
Y154150D01*
X279868Y154600D01*
X278968D01*
X278518Y154150D01*
Y153150D01*
X278068Y152700D01*
X277168D01*
X276718Y153150D01*
Y154150D01*
X276268Y154600D01*
X275368D01*
X274918Y154150D01*
Y153150D01*
X274468Y152700D01*
X264800D01*
X258000Y159500D01*
Y162000D01*
X256500Y163500D01*
X254000D01*
X250380Y167120D01*
X250200D01*
X247590Y169730D01*
Y171840D01*
X247591Y171841D01*
Y175363D01*
X247589Y175365D01*
Y177844D01*
X249646Y179901D01*
G01X408406Y185635D02*
X406171Y183400D01*
X402266D01*
X401816Y182950D01*
Y182350D01*
X401366Y181900D01*
X400466D01*
X400016Y182350D01*
Y182950D01*
X399566Y183400D01*
X398666D01*
X398216Y182950D01*
Y182350D01*
X397766Y181900D01*
X396866D01*
X396416Y182350D01*
Y182950D01*
X395966Y183400D01*
X395066D01*
X394616Y182950D01*
Y182350D01*
X394166Y181900D01*
X393266D01*
X392816Y182350D01*
Y182950D01*
X392366Y183400D01*
X391466D01*
X391016Y182950D01*
Y182350D01*
X390566Y181900D01*
X389666D01*
X389216Y182350D01*
Y182950D01*
X388766Y183400D01*
X385357D01*
X384907Y183850D01*
Y186050D01*
X384457Y186500D01*
X383557D01*
X383107Y186050D01*
Y183850D01*
X382657Y183400D01*
X381757D01*
X381307Y183850D01*
Y186050D01*
X380857Y186500D01*
X379957D01*
X379507Y186050D01*
Y183850D01*
X379057Y183400D01*
X378157D01*
X377707Y183850D01*
Y186050D01*
X377257Y186500D01*
X376357D01*
X375907Y186050D01*
Y183850D01*
X375457Y183400D01*
X374557D01*
X374107Y183850D01*
Y186050D01*
X373657Y186500D01*
X372757D01*
X372307Y186050D01*
Y183850D01*
X371857Y183400D01*
X368757D01*
X356249Y170892D01*
Y164659D01*
X353940Y162350D01*
X286560D01*
X283560Y165350D01*
X270150D01*
X266941Y168559D01*
Y182559D01*
X264843Y184657D01*
X264755D01*
X263851Y185561D01*
Y186782D01*
X262886Y187747D01*
X258514D01*
X256909Y189352D01*
X255945D01*
G01X255946Y186202D02*
X256910D01*
X258455Y184657D01*
X262826D01*
X263991Y183492D01*
Y180680D01*
X263850Y180539D01*
Y168650D01*
X268500Y164000D01*
X283000D01*
X286000Y161000D01*
X354500D01*
X357599Y164099D01*
Y170299D01*
X367300Y180000D01*
X369432D01*
X369882Y179550D01*
Y178750D01*
X370332Y178300D01*
X371232D01*
X371682Y178750D01*
Y179550D01*
X372132Y180000D01*
X373032D01*
X373482Y179550D01*
Y178750D01*
X373932Y178300D01*
X374832D01*
X375282Y178750D01*
Y179550D01*
X375732Y180000D01*
X376632D01*
X377082Y179550D01*
Y178750D01*
X377532Y178300D01*
X378432D01*
X378882Y178750D01*
Y179550D01*
X379332Y180000D01*
X380232D01*
X380682Y179550D01*
Y178750D01*
X381132Y178300D01*
X382032D01*
X382482Y178750D01*
Y179550D01*
X382932Y180000D01*
X388414D01*
X388864Y179550D01*
Y178350D01*
X389314Y177900D01*
X390214D01*
X390664Y178350D01*
Y179550D01*
X391114Y180000D01*
X392014D01*
X392464Y179550D01*
Y178350D01*
X392914Y177900D01*
X393814D01*
X394264Y178350D01*
Y179550D01*
X394714Y180000D01*
X395614D01*
X396064Y179550D01*
Y178350D01*
X396514Y177900D01*
X397414D01*
X397864Y178350D01*
Y179550D01*
X398314Y180000D01*
X399214D01*
X399664Y179550D01*
Y178350D01*
X400114Y177900D01*
X401014D01*
X401464Y178350D01*
Y179550D01*
X401914Y180000D01*
X402814D01*
X403264Y179550D01*
Y178350D01*
X403714Y177900D01*
X404614D01*
X405064Y178350D01*
Y179550D01*
X405514Y180000D01*
X407014D01*
X412649Y185635D01*
G01X249646Y239752D02*
Y241646D01*
X259456Y251456D01*
X259640D01*
X262000Y253816D01*
Y255200D01*
X263400Y256600D01*
X282200D01*
X284556Y258956D01*
Y262456D01*
X287400Y265300D01*
Y269000D01*
X287525Y269125D01*
Y269164D01*
X289736Y271375D01*
X293125D01*
X310000Y254500D01*
X350500D01*
X352000Y253000D01*
G01X296600Y258100D02*
X289700Y251200D01*
X274659D01*
X263851Y240392D01*
Y226573D01*
X262823Y225545D01*
X258455D01*
X257485Y226515D01*
Y228762D01*
X255945Y230302D01*
G01X440844Y110021D02*
Y116056D01*
X434400Y122500D01*
X402000D01*
X394000Y130500D01*
Y162800D01*
X393500Y163300D01*
X360000D01*
X359500Y162800D01*
Y159270D01*
X359000Y158770D01*
X269640D01*
X260641Y167769D01*
Y181359D01*
X259096Y182904D01*
Y183052D01*
G01X426902Y111000D02*
Y117598D01*
X423350Y121150D01*
X401350D01*
X392650Y129850D01*
Y156600D01*
X392150Y157100D01*
X380452D01*
X379952Y156600D01*
Y156231D01*
X379321Y155600D01*
X374440D01*
X373940Y156100D01*
Y156650D01*
X373440Y157150D01*
X340151D01*
X339701Y156700D01*
Y156400D01*
X339251Y155950D01*
X338351D01*
X337901Y156400D01*
Y156700D01*
X337451Y157150D01*
X336551D01*
X336101Y156700D01*
Y156400D01*
X335651Y155950D01*
X334751D01*
X334301Y156400D01*
Y156700D01*
X333851Y157150D01*
X332951D01*
X332501Y156700D01*
Y156400D01*
X332051Y155950D01*
X331151D01*
X330701Y156400D01*
Y156700D01*
X330251Y157150D01*
X329351D01*
X328901Y156700D01*
Y156400D01*
X328451Y155950D01*
X327551D01*
X327101Y156400D01*
Y156700D01*
X326651Y157150D01*
X325751D01*
X325301Y156700D01*
Y156400D01*
X324851Y155950D01*
X323951D01*
X323501Y156400D01*
Y156700D01*
X323051Y157150D01*
X322151D01*
X321701Y156700D01*
Y156400D01*
X321251Y155950D01*
X320351D01*
X319901Y156400D01*
Y156700D01*
X319451Y157150D01*
X318551D01*
X318101Y156700D01*
Y156400D01*
X317651Y155950D01*
X316751D01*
X316301Y156400D01*
Y156700D01*
X315851Y157150D01*
X314951D01*
X314501Y156700D01*
Y156400D01*
X314051Y155950D01*
X313151D01*
X312701Y156400D01*
Y156700D01*
X312251Y157150D01*
X311351D01*
X310901Y156700D01*
Y156400D01*
X310451Y155950D01*
X309551D01*
X309101Y156400D01*
Y156700D01*
X308651Y157150D01*
X307751D01*
X307301Y156700D01*
Y156400D01*
X306851Y155950D01*
X305951D01*
X305501Y156400D01*
Y156700D01*
X305051Y157150D01*
X304151D01*
X303701Y156700D01*
Y156400D01*
X303251Y155950D01*
X302351D01*
X301901Y156400D01*
Y156700D01*
X301451Y157150D01*
X300551D01*
X300101Y156700D01*
Y156400D01*
X299651Y155950D01*
X298751D01*
X298301Y156400D01*
Y156700D01*
X297851Y157150D01*
X296951D01*
X296501Y156700D01*
Y156400D01*
X296051Y155950D01*
X295151D01*
X294701Y156400D01*
Y156700D01*
X294251Y157150D01*
X293351D01*
X292901Y156700D01*
Y156400D01*
X292451Y155950D01*
X291551D01*
X291101Y156400D01*
Y156700D01*
X290651Y157150D01*
X289751D01*
X289301Y156700D01*
Y156400D01*
X288851Y155950D01*
X287951D01*
X287501Y156400D01*
Y156700D01*
X287051Y157150D01*
X286151D01*
X285701Y156700D01*
Y156400D01*
X285251Y155950D01*
X284351D01*
X283901Y156400D01*
Y156700D01*
X283451Y157150D01*
X282551D01*
X282101Y156700D01*
Y156400D01*
X281651Y155950D01*
X280751D01*
X280301Y156400D01*
Y156700D01*
X279851Y157150D01*
X278951D01*
X278501Y156700D01*
Y156400D01*
X278051Y155950D01*
X277151D01*
X276701Y156400D01*
Y156700D01*
X276251Y157150D01*
X275351D01*
X274901Y156700D01*
Y156400D01*
X274451Y155950D01*
X273551D01*
X273101Y156400D01*
Y156700D01*
X272651Y157150D01*
X266950D01*
X257551Y166549D01*
Y178551D01*
X258901Y179901D01*
X259096D01*
G01X274846Y192502D02*
X273241Y190898D01*
X273223Y190916D01*
X271017D01*
X270150Y190049D01*
Y188713D01*
X271057Y187805D01*
X275143D01*
X275167Y187781D01*
X275638D01*
X276401Y187018D01*
Y186264D01*
X276449Y186216D01*
Y185562D01*
X277356Y184656D01*
X278634D01*
X279716Y185738D01*
X282690D01*
X282832Y185596D01*
X287675D01*
X288948Y184324D01*
X290504D01*
X299326Y175501D01*
X324075D01*
X327045Y178471D01*
X327752D01*
X329166Y177057D01*
X329873D01*
X334193Y181376D01*
Y182071D01*
X333703Y182561D01*
X333009D01*
X329750Y179302D01*
X329043D01*
X326479Y181865D01*
G01X271696Y198802D02*
X273275Y200381D01*
X275495D01*
X275505Y200391D01*
X286386D01*
X294377Y208381D01*
Y218210D01*
X306532Y230365D01*
X309572D01*
X313158Y226780D01*
X313157Y225172D01*
X313657Y224673D01*
X314024D01*
X314065Y224633D01*
X315343D01*
X315383Y224673D01*
X315809D01*
X316308Y225172D01*
Y226817D01*
X317215Y227724D01*
X318493D01*
X319400Y226817D01*
Y225539D01*
X318436Y224575D01*
X317214D01*
X316308Y223668D01*
Y223595D01*
X316297Y223584D01*
Y222453D01*
X316308Y222442D01*
Y222390D01*
X317273Y221425D01*
X318493D01*
X319400Y220518D01*
Y219219D01*
X318514Y218333D01*
X317127D01*
X316297Y217503D01*
Y215735D01*
X316908Y215124D01*
X318493D01*
X319458Y214159D01*
Y213452D01*
X319400Y213393D01*
Y212939D01*
X318493Y212033D01*
X316837D01*
X316297Y211493D01*
Y209584D01*
X317075Y208806D01*
X317196D01*
X317215Y208824D01*
X318434D01*
X319400Y209790D01*
Y211131D01*
X320244Y211975D01*
X321643D01*
X322549Y211068D01*
Y208824D01*
X321003Y207278D01*
G01X271696Y208251D02*
X270125Y206681D01*
Y195370D01*
X270150Y195345D01*
Y195013D01*
X271116Y194047D01*
X272335D01*
X272355Y194027D01*
X274186D01*
X274206Y194048D01*
X275485D01*
X276450Y193083D01*
Y191862D01*
X277356Y190956D01*
X281508D01*
X281538Y190987D01*
X296569D01*
X305355Y182200D01*
X307891D01*
X308337Y182645D01*
X310173Y184481D01*
X310923D01*
X311630Y183774D01*
X313822D01*
X313944Y183652D01*
X319433D01*
X320170Y184389D01*
Y188511D01*
X322661Y191002D01*
Y191376D01*
X325525Y194239D01*
X327901D01*
X328357Y193783D01*
X329635D01*
X329674Y193744D01*
X331429D01*
X333642Y191531D01*
X336754D01*
G01X290500Y263000D02*
Y255800D01*
X287850Y253150D01*
X273150D01*
X260697Y240697D01*
Y228691D01*
X262241Y227147D01*
G01X339904Y188378D02*
X341015Y187267D01*
Y186303D01*
X341449Y185868D01*
Y185845D01*
X341508Y185787D01*
Y184589D01*
X342415Y183682D01*
X343613D01*
X344046Y183249D01*
X344069D01*
X344975Y182342D01*
Y181064D01*
X332334Y168423D01*
X292121D01*
X282188Y178356D01*
X280506D01*
X279600Y179263D01*
Y180503D01*
X278597Y181506D01*
X277357D01*
X276391Y182471D01*
Y183711D01*
X275051Y185052D01*
Y185705D01*
X275050Y185997D01*
X274846Y186202D01*
G01X277996Y183051D02*
X278960D01*
X280506Y181506D01*
X280742D01*
X280800Y181448D01*
X281785D01*
X282691Y180541D01*
Y179762D01*
X292680Y169773D01*
X330432D01*
X331037Y170378D01*
X331461D01*
X331641Y170198D01*
X332065D01*
X332702Y170834D01*
Y171258D01*
X332348Y171612D01*
Y171965D01*
X333055Y172673D01*
X333409D01*
X333830Y172252D01*
X334254D01*
X334749Y172747D01*
Y173171D01*
X334364Y173556D01*
Y173981D01*
X334894Y174511D01*
X335247D01*
X335668Y174090D01*
X336092D01*
X336587Y174585D01*
Y175010D01*
X336237Y175360D01*
Y175784D01*
X336732Y176279D01*
X337157D01*
X337507Y175929D01*
X337931D01*
X338426Y176424D01*
Y176848D01*
X338041Y177233D01*
Y177658D01*
X338500Y178117D01*
X338854D01*
X339274Y177697D01*
X339699D01*
X340194Y178192D01*
Y178616D01*
X339808Y179001D01*
Y179425D01*
X340233Y179850D01*
X340657D01*
X341042Y179464D01*
X341466D01*
X342092Y180090D01*
Y180797D01*
X341774Y181115D01*
Y182394D01*
X340868Y183300D01*
X339589D01*
X339246Y182957D01*
X338822D01*
X337955Y183824D01*
Y184249D01*
X338299Y184593D01*
Y185060D01*
X338357Y185118D01*
Y186778D01*
X336754Y188381D01*
G01X340228Y181755D02*
X330616Y172142D01*
X330192D01*
X327721Y174613D01*
X327367D01*
X326731Y173976D01*
Y173552D01*
X327045Y173238D01*
Y172814D01*
X326267Y172036D01*
X325843D01*
X325841Y172035D01*
X325417D01*
X324709Y172743D01*
X324147D01*
X323753Y172349D01*
Y171653D01*
X323358Y171258D01*
X322797D01*
X322402Y171653D01*
Y172349D01*
X322008Y172743D01*
X321446D01*
X321052Y172349D01*
Y171653D01*
X320657Y171258D01*
X320096D01*
X319701Y171653D01*
Y172349D01*
X319306Y172743D01*
X318745D01*
X318350Y172349D01*
Y171653D01*
X317956Y171258D01*
X317394D01*
X317000Y171653D01*
Y172349D01*
X316605Y172743D01*
X316044D01*
X315649Y172349D01*
Y171653D01*
X315255Y171258D01*
X314693D01*
X314299Y171653D01*
Y172349D01*
X313904Y172743D01*
X313343D01*
X312948Y172349D01*
Y171653D01*
X312554Y171258D01*
X311992D01*
X311598Y171653D01*
Y172349D01*
X311203Y172743D01*
X310642D01*
X310247Y172349D01*
Y171653D01*
X309852Y171258D01*
X309291D01*
X308896Y171653D01*
Y172349D01*
X308502Y172743D01*
X307940D01*
X307546Y172349D01*
Y171653D01*
X307151Y171258D01*
X306590D01*
X306195Y171653D01*
Y172349D01*
X305801Y172743D01*
X305239D01*
X304845Y172349D01*
Y171653D01*
X304450Y171258D01*
X303889D01*
X303494Y171653D01*
Y172349D01*
X303100Y172743D01*
X302538D01*
X302144Y172349D01*
Y171653D01*
X301749Y171258D01*
X301188D01*
X300793Y171653D01*
Y172349D01*
X300398Y172743D01*
X299837D01*
X299442Y172349D01*
Y171653D01*
X299048Y171258D01*
X295579D01*
X291866Y174971D01*
Y175041D01*
X291301Y175607D01*
X291230D01*
X289887Y176951D01*
X289462D01*
X288649Y176137D01*
X288225D01*
X287588Y176774D01*
Y177198D01*
X288402Y178011D01*
Y178436D01*
X287553Y179284D01*
X287129D01*
X286316Y178471D01*
X285891D01*
X284042Y180321D01*
Y181100D01*
X283516Y181625D01*
Y181646D01*
X282166Y182996D01*
X281200D01*
X281145Y183051D01*
G01X284273Y183075D02*
X286614Y180734D01*
X287351D01*
X287823Y181206D01*
Y181489D01*
X287030Y182282D01*
Y182862D01*
X287440Y183272D01*
X288020D01*
X288991Y182301D01*
X289273D01*
X289768Y182796D01*
X290051D01*
X290886Y181961D01*
Y181678D01*
X289398Y180190D01*
Y179631D01*
X289794Y179235D01*
X290353D01*
X291738Y180621D01*
X292297D01*
X292693Y180225D01*
Y179667D01*
X291307Y178281D01*
Y177722D01*
X291703Y177326D01*
X292262D01*
X293648Y178712D01*
X294206D01*
X294602Y178316D01*
Y177757D01*
X293216Y176371D01*
Y175813D01*
X293612Y175417D01*
X294171D01*
X295557Y176803D01*
X296115D01*
X297028Y175890D01*
Y175183D01*
X295862Y174016D01*
Y173309D01*
X296427Y172743D01*
X297134D01*
X298542Y174150D01*
X324634D01*
X327151Y176668D01*
X327575D01*
X330192Y174051D01*
X330616D01*
X331677Y175112D01*
Y175536D01*
X331217Y175996D01*
Y176420D01*
X331641Y176845D01*
X332065D01*
X332525Y176385D01*
X332949D01*
X333515Y176951D01*
Y177375D01*
X333020Y177870D01*
Y178294D01*
X333727Y179001D01*
X334151D01*
X334646Y178506D01*
X335071D01*
X335636Y179072D01*
Y179496D01*
X335141Y179991D01*
Y180415D01*
X335427Y180701D01*
X335922D01*
X337015Y181794D01*
G01X274846Y201952D02*
X276671D01*
X276881Y201742D01*
X285821D01*
X292821Y208742D01*
Y208770D01*
X292970Y208919D01*
Y218712D01*
X305973Y231716D01*
X310131D01*
X313844Y228003D01*
X315122D01*
X316029Y228909D01*
Y230034D01*
X317110Y231115D01*
X318182D01*
X319356Y229941D01*
Y228869D01*
X320366Y227859D01*
X321504D01*
X323220Y226144D01*
Y225140D01*
X322650Y224571D01*
X320365D01*
X319458Y223664D01*
Y222386D01*
X320365Y221479D01*
X321643D01*
X321871Y221707D01*
X322481D01*
X323220Y220968D01*
Y218627D01*
X322609Y218017D01*
X321901D01*
X321643Y218275D01*
X320365D01*
X319458Y217368D01*
Y216090D01*
X320365Y215183D01*
X323319Y215184D01*
X324139Y214364D01*
Y206783D01*
X323376Y206020D01*
Y205435D01*
X322363Y204422D01*
X321655D01*
X320800Y205277D01*
X319855D01*
X317854Y207278D01*
G01X317853Y197829D02*
X318946Y198923D01*
X319211D01*
X319690Y199401D01*
Y200108D01*
X319458Y200340D01*
Y201856D01*
X318256Y203058D01*
X317549D01*
X316543Y202051D01*
X315973D01*
X315451Y202573D01*
X315314D01*
X311808Y206080D01*
Y208476D01*
X313596Y210264D01*
Y213722D01*
X312193Y215124D01*
Y215144D01*
X311807Y215530D01*
Y219879D01*
X307674Y224012D01*
X306967D01*
X306351Y223396D01*
Y222689D01*
X310173Y218867D01*
Y218309D01*
X309777Y217913D01*
X309218D01*
X305287Y221844D01*
X304728D01*
X304332Y221448D01*
Y220889D01*
X308401Y216820D01*
Y216113D01*
X307882Y215594D01*
X307175D01*
X303180Y219589D01*
X302473D01*
X300705Y217821D01*
Y217114D01*
X303463Y214357D01*
Y213649D01*
X287265Y197451D01*
X283163D01*
X282922Y197209D01*
X281809D01*
X281795Y197223D01*
X276425D01*
X274846Y198802D01*
G01X281145D02*
X282971D01*
X283210Y199041D01*
X286945D01*
X297000Y209096D01*
Y209732D01*
X296364Y210368D01*
Y211005D01*
X297000Y211641D01*
X297636D01*
X298273Y211005D01*
X298909D01*
X301547Y213642D01*
Y214349D01*
X298935Y216962D01*
Y217960D01*
X299390Y218415D01*
Y218974D01*
X298499Y219865D01*
Y220424D01*
X298895Y220819D01*
X299454D01*
X300345Y219929D01*
X300903D01*
X301299Y220325D01*
Y220883D01*
X300408Y221774D01*
Y222333D01*
X300804Y222729D01*
X301363D01*
X302254Y221838D01*
X302812D01*
X303208Y222234D01*
Y222792D01*
X302317Y223683D01*
Y224242D01*
X302713Y224638D01*
X303272D01*
X304163Y223747D01*
X304722D01*
X305118Y224143D01*
Y224701D01*
X304227Y225592D01*
Y226151D01*
X304623Y226547D01*
X305181D01*
X306072Y225656D01*
X306631D01*
X307027Y226052D01*
Y226611D01*
X306136Y227502D01*
Y228060D01*
X307090Y229015D01*
X309014D01*
X311808Y226221D01*
X311807Y224573D01*
X311842Y224537D01*
Y221753D01*
X312981Y220614D01*
X314260D01*
X314572Y220926D01*
X315279D01*
X316156Y220049D01*
Y219342D01*
X315088Y218274D01*
X314064D01*
X313157Y217367D01*
Y216089D01*
X315519Y213727D01*
Y212624D01*
X314946Y212051D01*
Y209705D01*
X313158Y207917D01*
Y206638D01*
X314065Y205732D01*
X315343D01*
X316013Y206402D01*
X316546D01*
X317215Y205733D01*
X317491D01*
X319415Y203808D01*
X320360D01*
X321097Y203071D01*
X322527D01*
X323376Y202222D01*
Y200201D01*
X321003Y197829D01*
G01X277996Y195652D02*
X279576Y194072D01*
X281796D01*
X282024Y194301D01*
X300166D01*
X302965Y197100D01*
Y198874D01*
X301023Y200815D01*
Y201523D01*
X303428Y203927D01*
X304501Y205000D01*
X305500D01*
X306000Y204500D01*
Y203576D01*
X303337Y200913D01*
Y200354D01*
X303733Y199958D01*
X304292D01*
X305918Y201585D01*
X307333Y203000D01*
X308000D01*
X308300Y202700D01*
Y202058D01*
X305246Y199004D01*
Y198445D01*
X305642Y198049D01*
X306201D01*
X309452Y201300D01*
X310102D01*
X310452Y200950D01*
Y200391D01*
X308782Y198721D01*
X307155Y197095D01*
Y196536D01*
X307551Y196140D01*
X308110D01*
X310726Y198756D01*
X311285D01*
X311681Y198360D01*
Y197802D01*
X309065Y195185D01*
Y194627D01*
X309461Y194231D01*
X310019D01*
X311646Y195857D01*
X312204D01*
X313115Y194946D01*
Y194239D01*
X311842Y192967D01*
Y192259D01*
X313158Y190944D01*
Y190891D01*
X314065Y189985D01*
X316309D01*
X317854Y191530D01*
G01X321003D02*
X319432Y193101D01*
X317640D01*
X317608Y193133D01*
X317215D01*
X316308Y194040D01*
Y195259D01*
X315342Y196225D01*
X314123D01*
X313158Y197190D01*
Y201184D01*
X309342Y205000D01*
X308000D01*
X307500Y205500D01*
Y206000D01*
X308000Y206500D01*
X309000D01*
X309500Y207000D01*
Y207500D01*
X309000Y208000D01*
X308500D01*
X307812Y208688D01*
Y210432D01*
X306257Y211986D01*
X305550D01*
X305077Y211513D01*
Y210954D01*
X306001Y210029D01*
Y209470D01*
X305606Y209074D01*
X305047D01*
X304122Y209999D01*
X303563D01*
X303167Y209603D01*
Y209045D01*
X304517Y207696D01*
Y207137D01*
X304121Y206741D01*
X303562D01*
X302213Y208090D01*
X301654D01*
X301258Y207694D01*
Y207136D01*
X302607Y205786D01*
Y205228D01*
X302211Y204832D01*
X301653D01*
X300304Y206181D01*
X299745D01*
X299349Y205785D01*
Y205226D01*
X300698Y203877D01*
Y203319D01*
X300302Y202923D01*
X299744D01*
X298394Y204272D01*
X297836D01*
X297440Y203876D01*
Y203317D01*
X298011Y202746D01*
Y202187D01*
X297615Y201791D01*
X297057D01*
X296485Y202363D01*
X295927D01*
X295500Y201936D01*
Y201000D01*
X296500Y200000D01*
X299000D01*
X300500Y198500D01*
Y197000D01*
X299151Y195651D01*
X281146D01*
G01Y192502D02*
X299998D01*
X300000Y192500D01*
X301500D01*
X304726Y195726D01*
X305362D01*
X306000Y195088D01*
Y194638D01*
X302000Y190638D01*
Y189900D01*
X302600Y189300D01*
X303280D01*
X307479Y193500D01*
X307929D01*
X308379Y193050D01*
Y192469D01*
X304393Y188483D01*
X304388D01*
X303908Y188002D01*
Y187295D01*
X304314Y186888D01*
X305021D01*
X309794Y191661D01*
X310352D01*
X310748Y191265D01*
Y190706D01*
X307543Y187501D01*
Y186942D01*
X306799Y186198D01*
Y186164D01*
X306216Y185582D01*
Y184874D01*
X306892Y184198D01*
X307600D01*
X309579Y186178D01*
Y187310D01*
X311788Y189518D01*
X312495D01*
X312990Y189023D01*
Y188316D01*
X311347Y186673D01*
Y185966D01*
X312189Y185125D01*
X312691D01*
X313886Y186320D01*
X314246D01*
X315024Y185542D01*
X315731D01*
X316265Y186076D01*
Y188032D01*
X317444Y189210D01*
X318131D01*
X318819Y188522D01*
Y187743D01*
X317854Y186778D01*
Y185231D01*
G01X274846Y211402D02*
X273275Y209831D01*
Y207602D01*
X273305Y207573D01*
Y207001D01*
X277004Y203302D01*
X277215Y203092D01*
X285234D01*
X291619Y209477D01*
Y219271D01*
X305533Y233185D01*
X311363D01*
X313454Y231094D01*
X315180D01*
X317271Y233185D01*
X319487D01*
X322628Y230044D01*
Y228740D01*
X325489Y225880D01*
Y206225D01*
X324726Y205462D01*
Y202250D01*
X325812Y201165D01*
Y199258D01*
X324194Y197641D01*
G01X281145Y208251D02*
X281146Y208471D01*
X282163D01*
X282197Y208505D01*
X282344D01*
X284042Y210204D01*
Y210479D01*
X285392Y211829D01*
Y220044D01*
X303484Y238137D01*
X322109D01*
X331288Y228958D01*
Y228888D01*
X331563Y228612D01*
Y213061D01*
X332191Y212433D01*
Y211711D01*
X331563Y211083D01*
Y210360D01*
X332191Y209732D01*
Y209009D01*
X331563Y208381D01*
Y206465D01*
X336754Y201274D01*
Y199067D01*
X337039Y198782D01*
Y198506D01*
X338666Y196880D01*
Y195624D01*
X337719Y194677D01*
X336754D01*
G01X274846Y208252D02*
X276415Y209822D01*
X281604D01*
X281638Y209856D01*
X281785D01*
X282692Y210762D01*
Y211038D01*
X284042Y212388D01*
Y220603D01*
X302926Y239487D01*
X322668D01*
X332638Y229517D01*
Y229446D01*
X333543Y228541D01*
Y206409D01*
X333857Y206095D01*
Y206081D01*
X338105Y201833D01*
Y199625D01*
X339904Y197826D01*
G01X281146Y211402D02*
X282691Y212947D01*
Y221162D01*
X302579Y241050D01*
X323014D01*
X323630Y240435D01*
X324188D01*
X324266Y240512D01*
X324825D01*
X325221Y240116D01*
Y239558D01*
X325143Y239480D01*
Y238921D01*
X325539Y238525D01*
X326097D01*
X326175Y238603D01*
X326734D01*
X327130Y238207D01*
Y237649D01*
X327052Y237571D01*
Y237012D01*
X327448Y236616D01*
X328007D01*
X328084Y236694D01*
X328643D01*
X329039Y236298D01*
Y235739D01*
X328961Y235662D01*
Y235103D01*
X329357Y234707D01*
X329916D01*
X329994Y234785D01*
X330552D01*
X330948Y234389D01*
Y233830D01*
X330870Y233752D01*
Y233194D01*
X331266Y232798D01*
X331825D01*
X331903Y232876D01*
X332461D01*
X332857Y232480D01*
Y231921D01*
X332780Y231843D01*
Y231285D01*
X334894Y229170D01*
Y206967D01*
X335208Y206653D01*
Y206639D01*
X336114Y205733D01*
X338250D01*
X340997Y202986D01*
Y202071D01*
X339904Y200977D01*
G01X336754Y207278D02*
X338333Y208858D01*
Y233792D01*
X337157Y234969D01*
X334752D01*
X333743Y235978D01*
X333185D01*
X333107Y235900D01*
X332548D01*
X332152Y236296D01*
Y236855D01*
X332230Y236932D01*
Y237491D01*
X331834Y237887D01*
X331276D01*
X331198Y237809D01*
X330639D01*
X330243Y238205D01*
Y238764D01*
X330321Y238842D01*
Y239400D01*
X329925Y239796D01*
X329366D01*
X329289Y239718D01*
X328730D01*
X328334Y240114D01*
Y240673D01*
X328412Y240751D01*
Y241309D01*
X327186Y242535D01*
X302155D01*
X282018Y222398D01*
X280506D01*
X279598Y221490D01*
Y215192D01*
X279600Y215191D01*
Y213006D01*
X277995Y211402D01*
G01X287000Y278500D02*
X287401D01*
X289176Y280275D01*
X292864D01*
X293839Y279300D01*
X301000D01*
X304800Y275500D01*
X340000D01*
X346300Y281800D01*
X371200D01*
X372747Y280253D01*
Y266753D01*
X376500Y263000D01*
Y256500D01*
X381000Y252000D01*
Y250000D01*
G01X297144Y276148D02*
X300000D01*
X304048Y272100D01*
X346400D01*
X359500Y259000D01*
Y242000D01*
X361500Y240000D01*
Y226500D01*
X362500Y225500D01*
Y205000D01*
X371000Y196500D01*
X386000D01*
X387500Y198000D01*
X390000D01*
G01X423000Y206000D02*
X397000D01*
X394500Y203500D01*
Y199000D01*
X390500Y195000D01*
X370000D01*
X360500Y204500D01*
Y233000D01*
X357500Y236000D01*
Y254500D01*
X353300Y258700D01*
X341900D01*
X332500Y268100D01*
Y268500D01*
G01X528000Y147000D02*
X527000Y148000D01*
X525085D01*
X517500Y155585D01*
Y160085D01*
X515585Y162000D01*
X503415D01*
X496500Y155085D01*
Y133500D01*
X498000Y132000D01*
Y129415D01*
X502500Y124915D01*
Y104085D01*
X498000Y99585D01*
Y91500D01*
X486000Y79500D01*
X463000D01*
X455500Y87000D01*
X395915D01*
X388915Y80000D01*
X383915D01*
X370915Y67000D01*
X346415D01*
X345500Y66085D01*
Y65000D01*
X346500Y64000D01*
G01X344000D02*
X344500Y64500D01*
Y66500D01*
X346000Y68000D01*
X370500D01*
X383500Y81000D01*
X388500D01*
X395500Y88000D01*
X456000D01*
X463500Y80500D01*
X485500D01*
X497000Y92000D01*
Y100000D01*
X501500Y104500D01*
Y124500D01*
X497000Y129000D01*
Y131500D01*
X495500Y133000D01*
Y155500D01*
X503000Y163000D01*
X516000D01*
X518500Y160500D01*
Y156000D01*
X525500Y149000D01*
X527000D01*
X528000Y150000D01*
G01X364100Y279970D02*
Y279800D01*
X364200Y279700D01*
Y276100D01*
X360400Y272300D01*
Y267900D01*
X370000Y258300D01*
Y218000D01*
X368500Y216500D01*
Y214000D01*
X370000Y212500D01*
X376500D01*
X378500Y210500D01*
Y206500D01*
X380000Y205000D01*
X390000D01*
X392844Y202156D01*
Y201955D01*
G01X364000Y258500D02*
X362000Y256500D01*
Y243000D01*
X365500Y239500D01*
Y215000D01*
X369500Y211000D01*
X374500D01*
X376500Y209000D01*
Y205000D01*
X378046Y203454D01*
X386954D01*
X388908Y201500D01*
G01X367500Y232500D02*
Y240700D01*
X364000Y244200D01*
Y244500D01*
G01X437000Y258500D02*
X435500Y260000D01*
X400000D01*
X397000Y257000D01*
Y242500D01*
X390000Y235500D01*
Y230000D01*
X381500Y221500D01*
Y219000D01*
X377500Y215000D01*
G01X448000Y258100D02*
Y263400D01*
X447700Y263700D01*
X390700D01*
X386500Y259500D01*
Y246500D01*
X384000Y244000D01*
X377000D01*
X372500Y239500D01*
Y219500D01*
G01X444900Y258300D02*
X443100Y256500D01*
X440500D01*
X439500Y257500D01*
Y260500D01*
X438500Y261500D01*
X394500D01*
X392500Y259500D01*
Y242000D01*
X388000Y237500D01*
Y230500D01*
X378000Y220500D01*
Y219500D01*
G01X370500Y215500D02*
X372000Y217000D01*
X374500D01*
X375500Y218000D01*
Y235000D01*
X379000Y238500D01*
X384000D01*
X388000Y242500D01*
Y259000D01*
X391500Y262500D01*
X441000D01*
X442000Y261500D01*
Y258500D01*
G01X379800Y282000D02*
X378000Y280200D01*
Y271200D01*
X379000Y270200D01*
Y264500D01*
X384000Y259500D01*
Y248000D01*
G01X425200Y212100D02*
Y205700D01*
X423000Y203500D01*
Y172160D01*
X414770Y163930D01*
G01X407000Y196000D02*
X415346Y187654D01*
Y178654D01*
X418689Y175311D01*
Y172798D01*
G01X418332Y164068D02*
Y165625D01*
X424040Y171333D01*
Y203040D01*
X427290Y206290D01*
Y215710D01*
X425500Y217500D01*
G01X428500Y194000D02*
X430120Y192380D01*
Y182440D01*
X436970Y175590D01*
X442950D01*
X444000Y174540D01*
Y138000D01*
X442000Y136000D01*
Y126500D01*
X444500Y124000D01*
Y118000D01*
G01Y225000D02*
Y224500D01*
X428890Y208890D01*
Y200260D01*
X426240Y197610D01*
Y193850D01*
X426430Y193660D01*
Y192030D01*
G01X449500Y195000D02*
Y201700D01*
X449200Y202000D01*
Y235400D01*
X448300Y236300D01*
Y251700D01*
X449655Y253055D01*
Y254082D01*
X450618Y255045D01*
X451202D01*
X456349Y260192D01*
Y260776D01*
X457373Y261800D01*
X459400D01*
X460800Y263200D01*
Y266600D01*
G01X464000Y261800D02*
X463700Y261500D01*
Y257300D01*
X462000Y255600D01*
X458200D01*
X455300Y252700D01*
Y213900D01*
X456700Y212500D01*
Y186400D01*
X453500Y183200D01*
Y180500D01*
X456500Y177500D01*
Y175500D01*
X459000Y173000D01*
Y156000D01*
X456500Y153500D01*
Y146000D01*
X462490Y140010D01*
Y105510D01*
G01X460400Y258300D02*
X460300Y258400D01*
X457600D01*
X452945Y253745D01*
Y252718D01*
X451982Y251755D01*
X450955D01*
X450500Y251300D01*
Y235800D01*
X453000Y233300D01*
Y213300D01*
X454500Y211800D01*
Y188600D01*
X451500Y185600D01*
Y179000D01*
X454500Y176000D01*
Y169000D01*
X450500Y165000D01*
Y147187D01*
X452551Y145136D01*
Y132250D01*
X451000Y130699D01*
Y128450D01*
G01X465500Y136500D02*
Y147500D01*
X461000Y152000D01*
Y174000D01*
X459000Y176000D01*
Y184500D01*
X464500Y190000D01*
Y212300D01*
X457600Y219200D01*
Y248086D01*
X459500Y249986D01*
Y253600D01*
G01X465600Y266700D02*
X468300Y264000D01*
Y256800D01*
X459200Y247700D01*
Y241650D01*
X461050Y239800D01*
X464600D01*
X466500Y237900D01*
Y234500D01*
X465300Y233300D01*
Y223200D01*
X467000Y221500D01*
Y189000D01*
X460500Y182500D01*
Y177000D01*
X463000Y174500D01*
Y153500D01*
X467823Y148677D01*
Y117677D01*
X468500Y117000D01*
G01X486000Y272000D02*
X481000Y267000D01*
Y250000D01*
X485000Y246000D01*
Y239500D01*
X475500Y230000D01*
Y197000D01*
X471000Y192500D01*
Y179500D01*
X470000Y178500D01*
Y175500D01*
X473500Y172000D01*
Y149500D01*
X470000Y146000D01*
Y139146D01*
X471646Y137500D01*
Y117146D01*
X471500Y117000D01*
G01X486000Y252000D02*
X487500Y250500D01*
Y236500D01*
X480000Y229000D01*
Y222500D01*
X489000Y213500D01*
Y177000D01*
X493000Y173000D01*
Y168500D01*
X495500Y166000D01*
X518500D01*
X522000Y162500D01*
X525500D01*
X530500Y157500D01*
Y153000D01*
X553000Y130500D01*
Y127500D01*
G01X483500Y254414D02*
Y250000D01*
X486000Y247500D01*
Y237500D01*
X478000Y229500D01*
Y221000D01*
X484500Y214500D01*
Y200000D01*
X487000Y197500D01*
Y179000D01*
X484000Y176000D01*
Y146500D01*
X481500Y144000D01*
Y135000D01*
G54D18*
X95677Y92554D03*
X473630D03*
X518906Y239417D03*
G54D27*
X441780Y191240D03*
G54D28*
X462157Y244000D03*
X476921D03*
X471999D03*
X467078D03*
X481842D03*
G54D19*
X140957Y13768D03*
X198043D03*
G54D29*
X471500Y269000D03*
X495500D03*
M02*
