G04 ================== begin FILE IDENTIFICATION RECORD ==================*
G04 Layout Name:  F:/work/Eileen/hmd/dvt/hmd-dvt-323am11.brd*
G04 Film Name:    hmd_dvt_L10*
G04 File Format:  Gerber RS274X*
G04 File Origin:  Cadence Allegro 16.3-S053*
G04 Origin Date:  Mon Mar 23 11:22:04 2015*
G04 *
G04 Layer:  VIA CLASS/L10*
G04 Layer:  PIN/L10*
G04 Layer:  ETCH/L10*
G04 Layer:  BOARD GEOMETRY/OUTLINE*
G04 *
G04 Offset:    (0.00 0.00)*
G04 Mirror:    No*
G04 Mode:      Positive*
G04 Rotation:  0*
G04 FullContactRelief:  No*
G04 UndefLineWidth:     5.00*
G04 ================== end FILE IDENTIFICATION RECORD ====================*
%FSLAX55Y55*MOIN*%
%IR0*IPPOS*OFA0.00000B0.00000*MIA0B0*SFA1.00000B1.00000*%
%ADD20O,.059X.13*%
%ADD11C,.02*%
%ADD29C,.03*%
%ADD24C,.04*%
%ADD15C,.022*%
%ADD19O,.059X.106*%
%ADD12C,.024*%
%ADD23C,.026*%
%ADD21C,.063*%
%ADD14C,.018*%
%ADD13C,.028*%
%ADD26C,.065*%
%ADD17C,.047*%
%ADD10C,.056*%
%ADD27R,.065X.065*%
%AMMACRO25*
21,1,.034,.014,0.0,0.0,179.96*
1,1,.034,.000005,.007*
1,1,.034,-.000005,-.007*%
%ADD25MACRO25*%
%ADD22C,.16*%
%ADD28O,.034X.048*%
%ADD16O,.052X.095*%
%ADD18C,.197*%
%ADD30C,.015*%
%ADD31C,.004*%
%ADD32C,.005*%
%ADD33C,.0045*%
%ADD39C,.03104*%
%ADD41C,.05004*%
%ADD34C,.02704*%
%ADD36C,.03704*%
%ADD35C,.02904*%
%ADD38C,.07604*%
%ADD40R,.13504X.10504*%
%ADD37R,.08504X.08504*%
G75*
%LPD*%
G75*
G36*
G01X363500Y15000D02*
X362000Y17500D01*
X361690Y18430D01*
X361600Y44300D01*
X360999Y44901D01*
X220000D01*
X219901Y45000D01*
X208300D01*
X207700Y44400D01*
Y18560D01*
X207390Y17196D01*
X206900Y16200D01*
X206500Y15600D01*
X206000Y15100D01*
X204486Y14030D01*
X204200Y13900D01*
X202600Y13500D01*
X-11500D01*
X-16300Y18300D01*
Y110700D01*
X-8500Y118500D01*
Y201762D01*
X-9600Y204300D01*
X-10400Y205250D01*
X-16400Y211250D01*
Y274200D01*
X-16100Y274500D01*
X-15000D01*
X-14500Y274000D01*
Y267000D01*
X-15000Y266500D01*
Y260500D01*
X-14500Y260000D01*
Y245000D01*
X-14000Y244500D01*
Y213000D01*
X-6500Y205500D01*
Y116500D01*
X-14000Y109000D01*
Y20500D01*
X-9000Y15500D01*
X201500D01*
X205500Y19500D01*
Y45500D01*
X207000Y47000D01*
X261697D01*
X261745Y46867D01*
G03X264968Y46246I1793J633D01*
G02X265570I301J-263D01*
G03X268793Y46867I1430J1254D01*
G01X268841Y47000D01*
X274137D01*
X274159Y46826D01*
G03X276465Y46053I1341J174D01*
G02X277035I285J-281D01*
G03X279341Y46826I965J947D01*
G01X279363Y47000D01*
X331500D01*
X332000Y47500D01*
X384500D01*
X386000Y46000D01*
Y15000D01*
X384500Y13500D01*
X367000D01*
X365000Y14000D01*
X363500Y15000D01*
G37*
G36*
G01X-4500Y284500D02*
X35000D01*
X35500Y284000D01*
Y282500D01*
X35000Y282000D01*
X-4500D01*
X-13000D01*
X-14500Y280500D01*
Y273000D01*
X-14600Y272900D01*
X-16400D01*
Y279100D01*
X-16300Y279900D01*
X-16071Y280645D01*
X-15669Y281562D01*
X-15200Y282300D01*
X-14600Y282900D01*
X-14339Y283132D01*
X-12950Y284050D01*
X-11600Y284500D01*
X-4500D01*
G37*
G36*
G01X45599Y68000D02*
X32000D01*
X16000Y84000D01*
Y89500D01*
X10500Y95000D01*
X500D01*
X0Y95500D01*
Y105000D01*
X2000Y107000D01*
X20500D01*
X28000Y99500D01*
Y89500D01*
X34500Y83000D01*
X80000D01*
X83000Y80000D01*
X101000D01*
X104500Y83500D01*
X108500D01*
X110000Y82000D01*
Y68500D01*
X106500Y65000D01*
X52000D01*
X49000Y68000D01*
X47201D01*
X47159Y68021D01*
G03X45641I-759J-1521D01*
G01X45599Y68000D01*
G37*
G36*
G01X53300Y147500D02*
X52600Y148200D01*
Y149900D01*
X51000Y151500D01*
X26000D01*
X23500Y154000D01*
Y171500D01*
X24500Y172500D01*
X26000D01*
X26500Y173000D01*
Y177000D01*
X26000Y177500D01*
X25945D01*
G02X25770Y177797I0J200D01*
G03X24030Y179874I-1270J703D01*
G02X23500Y180252I-130J378D01*
G01Y188500D01*
X25000Y190000D01*
X46500D01*
X48000Y188500D01*
Y165500D01*
X47800Y165300D01*
X51546Y161554D01*
X51548Y161473D01*
G03X51571Y161244I1451J30D01*
G03X51940Y160508I1429J256D01*
G02Y159992I-306J-258D01*
G03X52693Y157581I1060J-992D01*
G02X52897Y156945I-108J-385D01*
G03X54469Y154626I1102J-945D01*
G03X54307Y157419I-469J1374D01*
G02X54103Y158055I108J385D01*
G03X54135Y158094I-1107J941D01*
G03X54215Y158204I-1133J908D01*
G02X54832Y158268I335J-219D01*
G01X57600Y155500D01*
Y148900D01*
X56200Y147500D01*
X53300D01*
G37*
G36*
G01X190218Y83496D02*
G02X189829Y83000I-388J-96D01*
G01X177490D01*
G02X177159Y83626I-1J400D01*
G03X174841I-1159J874D01*
G02X174510Y83000I-330J-226D01*
G01X153749D01*
G02X153350Y83423I0J400D01*
G03X150650I-1350J77D01*
G02X150251Y83000I-399J-23D01*
G01X142869D01*
X142827Y83091D01*
G03X140185Y83115I-1326J-591D01*
G01X140131Y83000D01*
X136649D01*
X136616Y83011D01*
G03X135384I-616J-1746D01*
G01X135351Y83000D01*
X132086D01*
G03X129914I-1086J-1500D01*
G01X128586D01*
G03X126414I-1086J-1500D01*
G01X125000D01*
X124119Y83881D01*
Y85381D01*
X124078Y85422D01*
G02X124119Y86024I282J283D01*
G03X121524Y88619I-1119J1476D01*
G02X120922Y88578I-319J241D01*
G01X114578Y94922D01*
G02X114619Y95524I282J283D01*
G03X114881Y98234I-1119J1476D01*
G02Y98766I299J266D01*
G03X115037Y101034I-1381J1234D01*
G03X112490Y101552I-1536J-1034D01*
G02X111958Y101642I-217J336D01*
G03X111666Y101939I-1458J-1142D01*
G02Y102561I251J311D01*
G03X109334I-1166J1439D01*
G02Y101939I-251J-311D01*
G03X108864Y101368I1166J-1439D01*
G02X108228Y101272I-353J187D01*
G01X105755Y103745D01*
G02X105908Y104407I283J283D01*
G03X104107Y106208I-408J1393D01*
G02X103445Y106055I-379J130D01*
G01X102000Y107500D01*
X91869D01*
X91827Y107591D01*
G03X89173I-1327J-591D01*
G01X89131Y107500D01*
X75000D01*
X72214Y110286D01*
X72254Y110404D01*
G03X69904Y112754I-1754J596D01*
G01X69786Y112714D01*
X61559Y120941D01*
G02X61552Y121499I283J283D01*
G03X59499Y123552I-1052J1001D01*
G02X58941Y123559I-275J290D01*
G01X50187Y132313D01*
X50239Y132437D01*
G03X48337Y134339I-1339J563D01*
G01X48213Y134287D01*
X46874Y135626D01*
G02X46964Y136259I283J283D01*
G03X45009Y138214I-664J1291D01*
G02X44376Y138124I-350J193D01*
G01X41500Y141000D01*
Y144947D01*
G03X41555Y146998I-1000J1053D01*
G01X41500Y147056D01*
Y147400D01*
X43998Y149898D01*
X48778D01*
X48828Y149848D01*
X50528D01*
X51098Y149278D01*
Y147578D01*
X52678Y145998D01*
X56822D01*
X59102Y148278D01*
Y151500D01*
X66211D01*
X66259Y151368D01*
G03X69741I1741J632D01*
G01X69789Y151500D01*
X104148D01*
G02X104548Y151105I0J-400D01*
G03X107142Y150224I1452J16D01*
G02X107740Y150260I315J-246D01*
G01X126011Y131989D01*
X125988Y131883D01*
G03X128183Y129688I1812J-383D01*
G01X128289Y129711D01*
X139000Y119000D01*
X162437D01*
X162492Y118887D01*
G03X165108I1308J631D01*
G01X165163Y119000D01*
X188010D01*
G02X188322Y118350I0J-400D01*
G03X191174I1426J-1182D01*
G02X191486Y119000I312J250D01*
G01X261500D01*
X281250Y99250D01*
Y83000D01*
X242490D01*
G02X242159Y83626I-1J400D01*
G03X239841I-1159J874D01*
G02X239510Y83000I-330J-226D01*
G01X201671D01*
G02X201282Y83496I-1J400D01*
G03X198488Y85551I-1782J504D01*
G03X197855Y84851I1012J-1551D01*
G02X197145I-355J184D01*
G03X194061Y85166I-1645J-851D01*
G02X193439I-311J251D01*
G03X192851Y85645I-1439J-1166D01*
G02Y86355I184J355D01*
G03X193003Y89557I-851J1645D01*
G03X190150Y88089I-1003J-1557D01*
G02X189618Y87746I-399J34D01*
G03X188178Y87660I-618J-1746D01*
G02X187601Y88022I-177J358D01*
G03X184985Y88556I-1351J57D01*
G03X186042Y86743I1265J-477D01*
G03X186669Y86794I207J1336D01*
G02X187179Y86338I117J-383D01*
G03X189618Y84254I1821J-338D01*
G02X190150Y83911I133J-377D01*
G03X190218Y83496I1850J90D01*
G37*
G36*
G01X105817Y92400D02*
G02I-10317J0D01*
G37*
G36*
G01X179896Y203007D02*
X178821Y201933D01*
G03X177512Y201452I-255J-1328D01*
G01X176471D01*
G03X174361I-1055J-846D01*
G01X173157D01*
X172749Y201860D01*
G02X172855Y202502I283J283D01*
G03X171046Y204311I-596J1213D01*
G02X170404Y204205I-359J177D01*
G01X157787Y216822D01*
X157771Y216860D01*
G03X156950Y217639I-1256J-501D01*
G01X156905Y217654D01*
X156844Y217715D01*
X152177D01*
X150480Y219412D01*
Y221109D01*
X150819Y221447D01*
X150845Y221461D01*
G03X151412Y222028I-630J1197D01*
G01X151426Y222054D01*
X151683Y222311D01*
X152052D01*
X152100Y222181D01*
G03X154632I1266J476D01*
G01X154680Y222311D01*
X155238D01*
X155288Y222185D01*
G03X156043Y221427I1257J497D01*
G01X156081Y221411D01*
X165529Y211964D01*
X166132D01*
X169431Y208664D01*
X175088D01*
X179896Y203856D01*
Y203007D01*
G37*
G36*
G01X279271Y172000D02*
G02X278980Y172674I0J400D01*
G03X276658Y173795I-984J928D01*
G01X276648Y173729D01*
X276460Y173540D01*
X276181Y173819D01*
X276169Y173878D01*
G03X275121Y174926I-1324J-276D01*
G01X275062Y174938D01*
X274784Y175216D01*
X274973Y175404D01*
X275039Y175414D01*
G03X273508Y176945I-193J1338D01*
G01X273498Y176879D01*
X273310Y176690D01*
X273032Y176968D01*
X273020Y177027D01*
G03X271972Y178075I-1324J-276D01*
G01X271913Y178087D01*
X271634Y178366D01*
X271823Y178554D01*
X271889Y178564D01*
G03X270358Y180095I-193J1338D01*
G01X270348Y180029D01*
X270160Y179840D01*
X269881Y180119D01*
X269868Y180178D01*
G03X268822Y181224I-1323J-277D01*
G01X268763Y181237D01*
X268485Y181515D01*
X268673Y181703D01*
X268739Y181713D01*
G03X267279Y183522I-193J1338D01*
G02X266621Y183379I-375J140D01*
G01X265723Y184277D01*
G02X265867Y184935I283J283D01*
G03X264058Y186395I-471J1267D01*
G01X264048Y186329D01*
X263860Y186140D01*
X263581Y186419D01*
X263569Y186478D01*
G03X262747Y187457I-1323J-277D01*
G01X262709Y187473D01*
X261209Y188972D01*
X261028D01*
X260432Y189568D01*
X260420Y189627D01*
G03X257779Y189655I-1324J-276D01*
G01X257743Y189500D01*
X257298D01*
X257263Y189655D01*
G03X255096Y190404I-1318J-303D01*
G01X252000Y193500D01*
Y193944D01*
G02X252490Y194334I400J0D01*
G03Y196968I305J1317D01*
G02X252000Y197358I-90J390D01*
G01Y197569D01*
X252240D01*
X252277Y197554D01*
G03X252490Y200119I519J1248D01*
G02X252000Y200509I-90J390D01*
G01Y200719D01*
X252240D01*
X252277Y200703D01*
G03X252490Y203269I518J1249D01*
G02X252000Y203659I-90J390D01*
G01Y206544D01*
G02X252490Y206934I400J0D01*
G03Y209568I306J1317D01*
G02X252000Y209958I-90J390D01*
G01Y210169D01*
X252240D01*
X252277Y210153D01*
G03X252490Y212719I518J1249D01*
G02X252000Y213109I-90J390D01*
G01Y213312D01*
X252240D01*
X252276Y213297D01*
G03X252489Y215865I515J1250D01*
G02X252000Y216255I-89J390D01*
G01Y216469D01*
X252240D01*
X252277Y216453D01*
G03X252490Y219019I518J1249D01*
G02X252000Y219409I-90J390D01*
G01Y222294D01*
G02X252490Y222684I400J0D01*
G03X253849Y224849I306J1317D01*
G01X254500Y225500D01*
X255096D01*
X255205Y225133D01*
G03X256998Y224849I740J-1132D01*
G02X257309Y225500I311J251D01*
G01X257730D01*
G02X258041Y224848I0J-400D01*
G03X260141I1050J-851D01*
G02X260452Y225500I311J252D01*
G01X264500D01*
X265000Y225000D01*
Y224500D01*
X264500Y224000D01*
Y221863D01*
G03Y219839I896J-1012D01*
G01Y218714D01*
G03Y216680I891J-1017D01*
G01Y215565D01*
G03Y213539I895J-1013D01*
G01Y212414D01*
G03Y210390I896J-1012D01*
G01Y209264D01*
G03Y207240I896J-1012D01*
G01Y202964D01*
G03X266037Y200762I897J-1011D01*
G01X266168Y200832D01*
X267426Y199574D01*
X267356Y199443D01*
G03X269187Y197612I1190J-641D01*
G01X269318Y197682D01*
X270576Y196424D01*
X270506Y196293D01*
G03X272404Y194500I1190J-641D01*
G01X274137D01*
G03X275555I709J1151D01*
G01X277288D01*
G03X278704I708J1152D01*
G01X280437D01*
G03X281855I709J1151D01*
G01X313354D01*
X313392Y194349D01*
G03X316014I1311J330D01*
G01X316052Y194500D01*
X316505D01*
X316543Y194349D01*
G03X319165I1311J330D01*
G01X319203Y194500D01*
X319654D01*
X319692Y194349D01*
G03X322314I1311J330D01*
G01X322352Y194500D01*
X328025D01*
X328063Y194484D01*
G03X329139I538J1240D01*
G01X329177Y194500D01*
X331700D01*
X333730Y196530D01*
X333800Y196538D01*
G03X335000Y197738I-144J1344D01*
G01X335008Y197808D01*
X337946Y200746D01*
G02X338611Y200581I283J-283D01*
G03X340300Y202270I1293J396D01*
G02X340135Y202935I118J382D01*
G01X343800Y206600D01*
X346100D01*
X349600Y203100D01*
Y178600D01*
X343100Y172100D01*
X291600D01*
X291500Y172000D01*
X282175D01*
X282150Y172007D01*
G03X281893Y172051I-356J-1305D01*
G02X281809Y172424I14J199D01*
G03X280161Y172674I-664J1178D01*
G02X279870Y172000I-291J-274D01*
G01X279271D01*
G37*
G36*
G01X302000Y283000D02*
Y283500D01*
Y284000D01*
X302500Y284500D01*
X303000D01*
X335500D01*
X336000Y284000D01*
Y283000D01*
X335500Y282500D01*
X302500D01*
X302000Y283000D01*
G37*
G36*
G01X374586Y157614D02*
G03X375854Y158882I1350J-82D01*
G02X375565Y159565I-7J400D01*
G01X400000Y184000D01*
X406600D01*
X407225Y184625D01*
G02X407500Y184632I141J-142D01*
G03X409665Y185143I906J1003D01*
G03X408749Y186943I-1259J492D01*
G01X408600Y186982D01*
Y201700D01*
X405800Y204500D01*
X393000D01*
X392000Y203500D01*
X379000D01*
X373500Y198000D01*
X368500D01*
X367726Y198774D01*
Y213492D01*
X368305Y214070D01*
X368812Y214577D01*
G02X369389Y214565I283J-283D01*
G03X370435Y214049I1111J935D01*
G03X371342Y216683I66J1451D01*
G02X371291Y217291I232J326D01*
G01X372100Y218100D01*
X372206Y218078D01*
G03X373922Y219794I294J1422D01*
G01X373900Y219900D01*
X377000Y223000D01*
X421136D01*
G02X421454Y222356I1J-400D01*
G03X421356Y222220I1046J-857D01*
G03X423494Y220584I1144J-720D01*
G03X423630Y220758I-994J917D01*
G02X424200Y220845I327J-231D01*
G03X426454Y222470I880J1155D01*
G02X426832Y223000I378J130D01*
G01X441500D01*
X441750Y222750D01*
X446750D01*
X449500Y220000D01*
Y206000D01*
X452500Y203000D01*
X464500D01*
X466000Y201500D01*
Y172252D01*
G02X465800Y172052I-200J0D01*
G03Y169348I0J-1352D01*
G02X466000Y169148I0J-200D01*
G01Y154000D01*
X462500Y150500D01*
X450000D01*
X447500Y148000D01*
Y147010D01*
X447496Y147006D01*
Y142300D01*
X447339Y142142D01*
X446774Y141577D01*
Y141575D01*
X445681Y140482D01*
X444723Y139525D01*
X442926Y137728D01*
X440069D01*
X440031Y137744D01*
G03X438618Y137525I-531J-1244D01*
G03X439421Y135150I882J-1025D01*
G02X439669Y134469I-35J-398D01*
G01X439600Y134400D01*
X449580Y124420D01*
X449553Y124310D01*
G03X451310Y122553I1410J-347D01*
G01X451420Y122580D01*
X459500Y114500D01*
X461000D01*
X462000Y113500D01*
Y106776D01*
X461889Y106721D01*
G03Y104299I601J-1211D01*
G01X462000Y104244D01*
Y94662D01*
X461996Y94643D01*
G03Y90157I11604J-2243D01*
G01X462000Y90138D01*
Y87000D01*
X459400Y84400D01*
X369430D01*
G03X367044I-1193J-637D01*
G01X360782D01*
G03X357544I-1619J-900D01*
G01X354961D01*
X354951Y84561D01*
G03X353357Y85945I-1451J-61D01*
G03X352324Y85352I143J-1445D01*
G02X351676I-324J234D01*
G03X351663Y85370I-1183J-841D01*
G03X351609Y85437I-1157J-877D01*
G02X351735Y85764I153J129D01*
G03X352508Y86067I-235J1736D01*
G03X353250Y87410I-1008J1433D01*
G02X353690Y87776I399J-32D01*
G03X355344Y88376I310J1724D01*
G03X354090Y91250I-1344J1124D01*
G02X353724Y91690I32J399D01*
G03X353124Y93344I-1724J310D01*
G03X350250Y92090I-1124J-1344D01*
G02X349810Y91724I-399J32D01*
G03X348156Y91124I-310J-1724D01*
G03X349410Y88250I1344J-1124D01*
G02X349776Y87810I-32J-399D01*
G03X350111Y86432I1724J-311D01*
G02X349936Y85838I-331J-225D01*
G03X349934Y85837I648J-1299D01*
G03X349245Y85230I566J-1337D01*
G03X349049Y84561I1255J-731D01*
G01X349039Y84400D01*
X335600D01*
X334600Y85400D01*
Y118600D01*
X373903Y157903D01*
G02X374586Y157614I283J-282D01*
G37*
G36*
G01X431484Y56144D02*
X444000Y48441D01*
Y13404D01*
X388000D01*
Y53157D01*
X390989Y57000D01*
X402535D01*
X409202Y67000D01*
X413111D01*
X431484Y56144D01*
G37*
G36*
G01X602742Y157147D02*
X602750Y133450D01*
X602705Y132949D01*
X602400Y131500D01*
X601600Y129900D01*
X600100Y128600D01*
X599100Y128000D01*
X598500Y127800D01*
X598250Y127750D01*
X597302Y127600D01*
X596800Y127601D01*
X587600D01*
X585500Y127000D01*
X584900Y126800D01*
X583926Y126213D01*
X583900Y126200D01*
X582300Y125100D01*
X581550Y124400D01*
X580900Y123500D01*
X579900Y121800D01*
X579199Y119633D01*
X579150Y119550D01*
X579100Y118900D01*
Y79864D01*
X578700Y78100D01*
X577400Y76200D01*
X576100Y75300D01*
X575300Y74900D01*
X574350Y74553D01*
X573950Y74500D01*
X573100Y74450D01*
X572904Y74401D01*
X542900D01*
X540300Y73600D01*
X539100Y72900D01*
X537100Y71300D01*
X535500Y69000D01*
X534599Y66215D01*
Y19500D01*
X534500Y18000D01*
X533500Y16000D01*
X532500Y15000D01*
X531000Y14000D01*
X529000Y13500D01*
X447000D01*
X446000Y14500D01*
Y60500D01*
X449500Y64000D01*
X502000D01*
X505658Y67658D01*
G02X506218Y67664I283J-283D01*
G03X506334Y67561I1286J1332D01*
G02Y66939I-251J-311D01*
G03X508939Y64334I1166J-1439D01*
G02X509561I311J-251D01*
G03X512739Y64862I1439J1166D01*
G02X513360Y65040I375J-137D01*
G03X515666Y67939I1140J1460D01*
G02Y68561I251J311D01*
G03X512761Y70638I-1166J1439D01*
G02X512140Y70460I-375J137D01*
G03X509561Y70166I-1140J-1460D01*
G02X508939I-311J251D01*
G03X508836Y70282I-1435J-1170D01*
G02X508842Y70842I289J277D01*
G01X510500Y72500D01*
X523500D01*
X546500Y95500D01*
Y114500D01*
X555000Y123000D01*
Y127000D01*
X575500D01*
X586000Y137500D01*
X588000D01*
X593000Y142500D01*
X597000D01*
X599500Y145000D01*
Y150500D01*
X597500Y152500D01*
X589500D01*
X581500Y160500D01*
X562500D01*
X556000Y167000D01*
Y217000D01*
X543000Y230000D01*
X513500D01*
X508000Y235500D01*
X495500D01*
X491000Y240000D01*
Y270000D01*
X487000Y274000D01*
X470000D01*
X466000Y270000D01*
X457000D01*
X456000Y271000D01*
Y279000D01*
X453500Y281500D01*
X400000D01*
X399500Y282000D01*
Y284000D01*
X400000Y284500D01*
X555000D01*
X556662Y284084D01*
X557350Y283650D01*
X558986Y282014D01*
X559657Y280952D01*
X560100Y279400D01*
Y278700D01*
X560150Y172200D01*
X560199Y171000D01*
X561000Y168000D01*
X562500Y166000D01*
X564000Y164500D01*
X567600Y162500D01*
X598400D01*
X601100Y160700D01*
X602500Y157600D01*
X602742Y157147D01*
G37*
G36*
G01X483917Y92400D02*
G02I-10317J0D01*
G37*
G36*
G01X529217Y239500D02*
G02I-10317J0D01*
G37*
%LPC*%
G75*
G36*
G01X103223Y70368D02*
G02Y71932I-1223J782D01*
G03X103889Y71920I337J216D01*
G02Y70380I1111J-770D01*
G03X103223Y70368I-329J-228D01*
G37*
G36*
G01X27199Y183158D02*
G02X25801I-699J-1158D01*
G03Y183842I-206J342D01*
G02X27199I699J1158D01*
G03Y183158I206J-342D01*
G37*
G36*
G01X159207Y111216D02*
X138800D01*
G02Y114720I0J1752D01*
G01X160657D01*
X165438Y109938D01*
G02X162962Y107462I-1238J-1238D01*
G01X159207Y111216D01*
G37*
G36*
G01X116002Y122453D02*
G03X115398I-302J-262D01*
G02Y124883I-1398J1215D01*
G03X116002I302J262D01*
G02X118716Y124971I1398J-1215D01*
G03X119284I284J282D01*
G02Y122365I1316J-1303D01*
G03X118716I-284J-282D01*
G02X116002Y122453I-1316J1303D01*
G37*
G36*
G01X108166Y115061D02*
G03Y114439I251J-311D01*
G02X105834I-1166J-1439D01*
G03Y115061I-251J311D01*
G02Y117939I1166J1439D01*
G03Y118561I-251J311D01*
G02X108166I1166J1439D01*
G03Y117939I251J-311D01*
G02Y115061I-1166J-1439D01*
G37*
G36*
G01X242110Y108667D02*
G03X241905Y109222I-355J184D01*
G02X243738Y109901I544J1346D01*
G03X243943Y109346I355J-184D01*
G02X242110Y108667I-544J-1346D01*
G37*
G36*
G01X236449Y98239D02*
G03X236039Y98649I-400J10D01*
G02Y101752I-39J1552D01*
G03X236448Y102161I9J400D01*
G02X239551I1552J39D01*
G03X239961Y101751I400J-10D01*
G02X239962Y98647I39J-1552D01*
G03X239553Y98238I-9J-400D01*
G02X236449Y98239I-1552J-37D01*
G37*
G36*
G01X161313Y98648D02*
G03X160904Y98239I-9J-400D01*
G02X157800I-1552J-39D01*
G03X157391Y98648I-400J9D01*
G02Y101752I-39J1552D01*
G03X157800Y102161I9J400D01*
G02X160904I1552J39D01*
G03X161313Y101752I400J-9D01*
G02Y98648I39J-1552D01*
G37*
G36*
G01X191118Y95712D02*
G03X190595Y95558I-179J-357D01*
G02X187619Y97734I-1594J942D01*
G03Y98266I-299J266D01*
G02Y100734I1381J1234D01*
G03Y101266I-299J266D01*
G02X190847Y102642I1381J1234D01*
G03X191388Y102298I399J30D01*
G02X193309Y99211I660J-1730D01*
G03X193291Y98643I272J-293D01*
G02X191118Y95712I-1343J-1275D01*
G37*
G36*
G01X271866Y95973D02*
G03X271848Y95387I263J-301D01*
G02X268761Y93583I-1300J-1319D01*
G03X268281Y93867I-386J-105D01*
G02X266633Y97066I-433J1801D01*
G03Y97670I-262J302D01*
G02X268454Y100818I1215J1398D01*
G03X268969Y101084I131J378D01*
G02X272009Y99211I1779J-516D01*
G03X271991Y98643I272J-293D01*
G02X271866Y95973I-1343J-1275D01*
G37*
G36*
G01X180561Y88334D02*
G03X179939I-311J-251D01*
G02X177334Y90939I-1439J1166D01*
G03Y91561I-251J311D01*
G02X179939Y94166I1166J1439D01*
G03X180561I311J251D01*
G02X183166Y91561I1439J-1166D01*
G03Y90939I251J-311D01*
G02X180561Y88334I-1166J-1439D01*
G37*
G36*
G01X105176Y139648D02*
G02Y141352I-1176J852D01*
G03X105824I324J234D01*
G02Y139648I1176J-852D01*
G03X105176I-324J-234D01*
G37*
G36*
G01X51443Y138789D02*
G02X50512Y137696I407J-1289D01*
G03X49983Y138131I-396J58D01*
G02X50929Y139242I-483J1369D01*
G03X51443Y138789I394J-72D01*
G37*
G36*
G01X184352Y102676D02*
G02X182648I-852J-1176D01*
G03Y103324I-234J324D01*
G02Y105676I852J1176D01*
G03Y106324I-234J324D01*
G02X184352I852J1176D01*
G03Y105676I234J-324D01*
G02Y103324I-852J-1176D01*
G03Y102676I234J-324D01*
G37*
G36*
G01X261469Y90627D02*
G02X258460Y90529I-1469J-1127D01*
G03X258105Y91151I-332J223D01*
G02X256766Y91619I-105J1849D01*
G03X256234I-266J-299D01*
G02Y94381I-1234J1381D01*
G03X256766I266J299D01*
G02X259298Y94322I1235J-1381D01*
G03X259866Y94330I280J285D01*
G02X261682Y91257I1334J-1285D01*
G03X261469Y90627I104J-386D01*
G37*
G36*
G01X413570Y137964D02*
G02X411404I-1083J1112D01*
G02X409240Y137965I-1081J1113D01*
G02X407076I-1082J1112D01*
G02X404881Y140160I-1083J1112D01*
G02Y142324I1112J1082D01*
G02X404880Y144489I1112J1083D01*
G02X404881Y146654I1113J1082D01*
G02Y148819I1112J1083D01*
G02Y150984I1112J1083D01*
G02Y153150I1112J1083D01*
G02Y155314I1112J1082D01*
G02X407076Y157509I1112J1083D01*
G02X409240I1082J-1112D01*
G02X411406I1083J-1112D01*
G02X413570Y157508I1081J-1113D01*
G02X415735I1082J-1112D01*
G02X417900I1083J-1112D01*
G02X420064Y157509I1083J-1112D01*
G02X422230I1083J-1112D01*
G02X424424Y155314I1082J-1112D01*
G02Y153150I-1112J-1082D01*
G02Y150984I-1112J-1083D01*
G02Y148819I-1112J-1082D01*
G02Y146654I-1112J-1083D01*
G02X424425Y144490I-1112J-1083D01*
G02Y142324I-1112J-1083D01*
G02X424424Y140160I-1113J-1081D01*
G02X422230Y137965I-1112J-1083D01*
G02X420066Y137964I-1083J1112D01*
G02X417900I-1083J1112D01*
G02X415735I-1082J1112D01*
G02X413570I-1083J1112D01*
G37*
G36*
G01X451277Y195782D02*
G02Y194218I1223J-782D01*
G03X450611Y194230I-337J-216D01*
G02Y195770I-1111J770D01*
G03X451277Y195782I329J228D01*
G37*
G36*
G01X427777Y192143D02*
G02X426610Y193370I-1347J-113D01*
G03X427060Y193817I53J397D01*
G02X427956Y195346I1440J183D01*
G03X428079Y196010I-149J371D01*
G02X429550Y195765I921J990D01*
G03X429451Y195097I163J-365D01*
G02X428246Y192570I-951J-1097D01*
G03X427777Y192143I-70J-394D01*
G37*
G36*
G01X439077Y184522D02*
G02X437738Y182559I2703J-3282D01*
G03X437280Y183075I-380J124D01*
G02X438429Y184759I-280J1425D01*
G03X439077Y184522I393J72D01*
G37*
G36*
G01X463425Y179120D02*
G02X461732Y179232I-924J-1120D01*
G03X461775Y179880I-211J339D01*
G02X463468Y179768I924J1120D01*
G03X463425Y179120I211J-339D01*
G37*
G36*
G01X430927Y162936D02*
G02X429795Y161983I163J-1342D01*
G03X429350Y162493I-383J115D01*
G02X430499Y163461I-226J1434D01*
G03X430927Y162936I379J-128D01*
G37*
G36*
G01X378352Y127280D02*
G02X377577Y128484I-1352J-19D01*
G03X378148Y128851I171J361D01*
G02X378923Y127647I1352J19D01*
G03X378352Y127280I-171J-361D01*
G37*
G36*
G01X446078Y116800D02*
G02X444880Y116054I72J-1450D01*
G03X444524Y116648I-350J194D01*
G02X445703Y117382I-24J1352D01*
G03X446078Y116800I356J-183D01*
G37*
G36*
G01X364134Y113743D02*
G02X362976Y112896I166J-1443D01*
G03X362566Y113457I-365J164D01*
G02X363724Y114304I-166J1443D01*
G03X364134Y113743I365J-164D01*
G37*
G36*
G01X398658Y109801D02*
G02Y111199I-1158J699D01*
G03X399342I342J206D01*
G02Y109801I1158J-699D01*
G03X398658I-342J-206D01*
G37*
G36*
G01X443704Y102889D02*
G02X443648Y104589I-1204J811D01*
G03X444296Y104611I316J245D01*
G02X444352Y102911I1204J-811D01*
G03X443704Y102889I-316J-245D01*
G37*
G36*
G01X390854Y101024D02*
G02X388150Y99966I-1354J-524D01*
G03X387610Y100182I-372J-147D01*
G02X385575Y101780I-610J1318D01*
G03X385143Y102255I-392J77D01*
G02X386425Y103420I-143J1445D01*
G03X386857Y102945I392J-77D01*
G02X387214Y102936I142J-1445D01*
G03X387646Y103476I59J396D01*
G02X390350Y104534I1354J524D01*
G03X390890Y104318I372J147D01*
G02X391286Y101564I610J-1318D01*
G03X390854Y101024I-59J-396D01*
G37*
G36*
G01X387351Y94145D02*
G02X385649I-851J-1645D01*
G03Y94855I-184J355D01*
G02X387351I851J1645D01*
G03Y94145I184J-355D01*
G37*
G36*
G01X373766Y87990D02*
G03X373464Y88455I-393J75D01*
G02Y91867I398J1706D01*
G03X373766Y92332I-91J390D01*
G02X377214Y92365I1721J329D01*
G03X377655Y91901I394J-67D01*
G02Y88421I207J-1740D01*
G03X377214Y87957I-47J-397D01*
G02X373766Y87990I-1727J-296D01*
G37*
G36*
G01X454462Y111021D02*
G02X457162Y108318I-1J-2701D01*
G01X457161Y106918D01*
G02X454460Y104219I-2701J2D01*
G01X454458D01*
G02X452315Y105278I2J2701D01*
G03X451680I-317J-243D01*
G02X449538Y104223I-2142J1646D01*
G01X449536D01*
G02X446836Y106926I1J2701D01*
G01X446837Y108326D01*
G02X449538Y111025I2701J-2D01*
G01X449540D01*
G02X451683Y109966I-2J-2701D01*
G03X452318I318J243D01*
G02X454460Y111021I2142J-1646D01*
G01X454462D01*
G37*
G36*
G01X439940Y125293D02*
G03X440372Y124946I397J52D01*
G02X439060Y123314I128J-1446D01*
G03X438628Y123661I-397J-52D01*
G02X439940Y125293I-128J1446D01*
G37*
G36*
G01X394909Y170804D02*
G03X395235Y170416I400J5D01*
G02X393634Y169069I-249J-1329D01*
G03X393308Y169457I-400J-5D01*
G02X394909Y170804I249J1329D01*
G37*
G36*
G01X419300Y182318D02*
G03X419286Y182885I-289J277D01*
G02X421508Y183156I999J1053D01*
G03X421631Y182603I337J-215D01*
G02X419300Y182318I-992J-1564D01*
G37*
G36*
G01X379775Y210242D02*
G03X379814Y210824I-254J309D01*
G02X381797Y210688I1064J988D01*
G03X381758Y210106I254J-309D01*
G02X379775Y210242I-1064J-988D01*
G37*
G36*
G01X417381Y173429D02*
G02X417977Y171532I1308J-631D01*
G03X417421Y171357I-196J-348D01*
G02X416825Y173254I-1308J631D01*
G03X417381Y173429I196J348D01*
G37*
G36*
G01X414349Y50105D02*
G02X411649Y51645I-1849J-105D01*
G03Y52355I-184J355D01*
G02Y55645I851J1645D01*
G03Y56355I-184J355D01*
G02X414349Y57895I851J1645D01*
G03X414971Y57540I399J-23D01*
G02X417849Y56101I1029J-1540D01*
G03X418382Y55746I399J22D01*
G02Y52254I618J-1746D01*
G03X417849Y51899I-134J-377D01*
G02X414971Y50460I-1849J101D01*
G03X414349Y50105I-223J-332D01*
G37*
G36*
G01X591752Y154326D02*
G03X591182I-285J-281D01*
G02X589270Y156238I-965J947D01*
G03Y156808I-281J285D01*
G02X591182Y158720I947J965D01*
G03X591752I285J281D01*
G02X593664Y156808I965J-947D01*
G03Y156238I281J-285D01*
G02X591752Y154326I-947J-965D01*
G37*
G36*
G01X477061Y53834D02*
G03X476439I-311J-251D01*
G02X473834Y56439I-1439J1166D01*
G03Y57061I-251J311D01*
G02X476439Y59666I1166J1439D01*
G03X477061I311J251D01*
G02X479939I1439J-1166D01*
G03X480561I311J251D01*
G02X483166Y57061I1439J-1166D01*
G03Y56439I251J-311D01*
G02X480561Y53834I-1166J-1439D01*
G03X479939I-311J-251D01*
G02X477061I-1439J1166D01*
G37*
G36*
G01X548645Y78649D02*
G02X545834Y80939I-1645J851D01*
G03Y81561I-251J311D01*
G02X548645Y83851I1166J1439D01*
G03X549355I355J184D01*
G02X552439Y84166I1645J-851D01*
G03X553061I311J251D01*
G02X555666Y81561I1439J-1166D01*
G03Y80939I251J-311D01*
G02X553061Y78334I-1166J-1439D01*
G03X552439I-311J-251D01*
G02X549355Y78649I-1439J1166D01*
G03X548645I-355J-184D01*
G37*
G54D39*
X404710Y219690D03*
X410730D03*
X404710Y213670D03*
X410730D03*
X398690Y219690D03*
X392670D03*
Y213670D03*
X398690D03*
G54D41*
X495500Y269000D03*
G54D34*
X46505Y77495D03*
X65500Y122500D03*
X101000Y126000D03*
X249000Y91500D03*
X256000Y88500D03*
X175414Y203758D03*
X255945Y192501D03*
Y198802D03*
Y208251D03*
Y195652D03*
X255946Y201952D03*
X255945Y214552D03*
Y220852D03*
X255941Y211397D03*
X271696Y186202D03*
Y192501D03*
X265396Y192502D03*
X271696Y183051D03*
Y189352D03*
X268545Y186202D03*
Y192502D03*
X262246Y208251D03*
X265395Y198802D03*
X259096Y201952D03*
X262245D03*
X262241Y220847D03*
Y217697D03*
X259091Y214547D03*
X259096Y217702D03*
Y211402D03*
X281146Y176752D03*
X277995D03*
X277996Y179902D03*
Y192501D03*
X277995Y186202D03*
X274846Y192502D03*
X281146D03*
X284273Y183075D03*
X274846Y186202D03*
X277996Y183051D03*
X281145D03*
X274846Y183052D03*
X277996Y189352D03*
X281145D03*
X274846Y189351D03*
X314704Y191530D03*
X317854Y182081D03*
X314704D03*
Y188380D03*
X317854Y191530D03*
X321003D03*
X317854Y185231D03*
X336754Y185232D03*
X326479Y181865D03*
X337015Y181794D03*
X336754Y188381D03*
X324712Y190704D03*
X324994Y186885D03*
X336754Y191531D03*
Y194677D03*
X339904Y191528D03*
X343429Y181703D03*
X343054Y188377D03*
X339904Y185229D03*
X343054Y185228D03*
X339904Y188378D03*
X340228Y181755D03*
X343054Y197826D03*
Y200977D03*
X339904Y194677D03*
X343053D03*
X339904Y197826D03*
X441500Y173968D03*
X438542Y165500D03*
X441500Y140849D03*
Y144000D03*
X433773Y110021D03*
X437308D03*
X440844D03*
X425500Y217500D03*
X423000Y206000D03*
X426150Y188880D03*
X425730Y181039D03*
X425023Y164068D03*
X421487D03*
X418332D03*
X430680Y156997D03*
X429729Y146634D03*
X426002Y131813D03*
X421487Y131542D03*
X430680Y142148D03*
X430326Y135431D03*
X429619Y131895D03*
X430237Y110021D03*
X426902Y111000D03*
X422659D03*
X410556Y201556D03*
X412649Y185635D03*
X416891D03*
X409339Y175382D03*
X406285Y163715D03*
X414770Y163930D03*
X403810Y131542D03*
X411588D03*
X407345D03*
X417250Y131536D03*
X399213Y155937D03*
Y139673D03*
X398860Y132249D03*
X392006Y111000D03*
X394516Y108500D03*
X371000Y203000D03*
X380500Y154593D03*
X377000Y152000D03*
X380546Y159077D03*
X379000Y140103D03*
X380899Y137593D03*
Y144582D03*
X376500Y142072D03*
X380000Y123451D03*
X372500Y125500D03*
X370500Y111000D03*
X368000Y117000D03*
X357500Y104500D03*
X360500Y112000D03*
X364475Y97975D03*
X353000Y100500D03*
G54D36*
X70500Y121500D03*
Y132500D03*
G54D35*
X32000Y165500D03*
X31000Y173000D03*
X32500Y186500D03*
X36000Y169500D03*
X39004Y173000D03*
X43000Y180500D03*
X56750Y128750D03*
X63350Y130650D03*
X90500Y111000D03*
X92500Y143000D03*
X96441Y140100D03*
X107000Y135500D03*
X99000Y147500D03*
X116500Y132600D03*
X150365Y104468D03*
X168200Y84868D03*
X170450Y91018D03*
X217448Y112968D03*
X229013Y104468D03*
X267000Y84900D03*
X261000Y105000D03*
X461500Y196000D03*
X456200Y182900D03*
X461500Y190000D03*
X456000Y168000D03*
X454000Y161500D03*
X451750Y119250D03*
X451850Y115550D03*
X438250Y210250D03*
X441500Y208500D03*
X446500D03*
X449200Y182800D03*
X425200Y212100D03*
X423000Y209500D03*
X431600Y105000D03*
X425350Y106350D03*
X405743Y114243D03*
X417528Y114219D03*
X399000Y100000D03*
X378000Y219500D03*
X377500Y215000D03*
X371000Y208000D03*
X383275Y115775D03*
X371000Y102000D03*
X385500Y111500D03*
X364300Y106800D03*
X458000Y53500D03*
G54D38*
X450000Y173000D03*
G54D40*
X410750Y106250D03*
G54D37*
X441780Y191240D03*
%LPD*%
G75*
G54D10*
X-12000Y32000D03*
X450000Y173000D03*
G54D11*
G01X40000Y166000D02*
X54000Y152000D01*
G01D02*
Y149150D01*
X-15000Y18500D03*
X-15400Y30100D03*
Y50100D03*
Y40100D03*
Y60100D03*
Y80100D03*
Y70100D03*
Y90100D03*
Y110100D03*
Y100100D03*
X-15300Y223500D03*
Y213500D03*
Y233500D03*
X-15400Y254000D03*
X-15300Y243500D03*
X-15400Y268500D03*
X-15300Y273500D03*
X1500Y14500D03*
X-8500D03*
X-7500Y123000D03*
X-10000Y115800D03*
X-4000Y115500D03*
X-7500Y143000D03*
Y133000D03*
Y153000D03*
Y173000D03*
Y163000D03*
Y193000D03*
Y183000D03*
X-3500Y193500D03*
X-500D03*
X2522Y208500D03*
X-8000Y203500D03*
X-2000Y196000D03*
X-3500Y283500D03*
X11500Y14500D03*
X9000Y119033D03*
X7800Y129264D03*
X10300Y125964D03*
X7800Y142464D03*
Y144964D03*
X11300Y142964D03*
X7800Y136964D03*
Y134464D03*
Y139464D03*
X11100Y145700D03*
X7800Y131764D03*
X11000Y159100D03*
Y156600D03*
Y168800D03*
X10500Y181000D03*
Y178500D03*
X4000Y187500D03*
X7000D03*
X5500Y190000D03*
X14500Y203500D03*
X14000Y283500D03*
X4000D03*
X21500Y14500D03*
X31500D03*
X33114Y62065D03*
X21571Y70596D03*
X32000Y165500D03*
X31000Y173000D03*
X24500Y175000D03*
X21000Y185564D03*
X22500Y193000D03*
X32500Y186500D03*
X24500Y178500D03*
X32500Y179500D03*
X32000Y200000D03*
Y202500D03*
X19500Y203500D03*
Y200000D03*
X22500Y195500D03*
Y198000D03*
X35000Y247000D03*
Y244500D03*
Y242000D03*
X34000Y283500D03*
X24000D03*
X41500Y14500D03*
X37000Y20000D03*
X41500D03*
X43500Y30000D03*
X40500D03*
X44500Y39500D03*
X39600Y41400D03*
X46400Y66500D03*
X46300Y107300D03*
X47900Y109200D03*
X35300Y109592D03*
X39000Y109800D03*
X43000Y108300D03*
X43500Y116300D03*
X49500Y139500D03*
X46300Y137550D03*
X48900Y133000D03*
X47500Y148500D03*
X50000D03*
X45000D03*
X40500Y146000D03*
X36000Y169500D03*
X39004Y173000D03*
X43000Y180500D03*
X41000Y194500D03*
X48000Y206500D03*
X41000Y198500D03*
Y201500D03*
X37250Y210250D03*
X51500Y14500D03*
X61500D03*
X60000Y20000D03*
X64500Y87500D03*
X56750Y128750D03*
X60500Y122500D03*
X53308Y122708D03*
X63350Y130650D03*
X54000Y156000D03*
X53000Y159000D03*
Y161500D03*
X54000Y149150D03*
Y152000D03*
X58047Y176900D03*
X61300Y179900D03*
X61000Y186000D03*
X51500Y179900D03*
X61000Y200000D03*
Y197000D03*
X65000Y215500D03*
Y218000D03*
X62500D03*
X60500Y251900D03*
Y263000D03*
X71500Y14500D03*
X81500D03*
X80000Y20000D03*
X79000Y55000D03*
X75300Y51500D03*
X69958Y93542D03*
X75000Y95500D03*
X67400Y99300D03*
X68500Y170000D03*
X71500Y181500D03*
X81500Y207000D03*
X67500Y200000D03*
Y197500D03*
X82500Y210000D03*
X81000Y225500D03*
X70000Y228500D03*
X69700Y236550D03*
X77800Y282000D03*
X69500Y275800D03*
X72000D03*
X82000D03*
X79500D03*
X91500Y14500D03*
X90000Y30000D03*
X95900Y50000D03*
X98000Y56500D03*
X90500Y107000D03*
Y111000D03*
X92500Y143000D03*
X96441Y140100D03*
X92000Y175000D03*
X97000Y167000D03*
X87500Y207000D03*
X91000D03*
X84000Y199500D03*
X84800Y217000D03*
X94350Y227650D03*
X94500Y244000D03*
X94000Y252000D03*
X96500D03*
X98400Y258500D03*
X88000Y258000D03*
X95350Y258500D03*
X92500Y275500D03*
X97300D03*
X87500D03*
X109000Y14500D03*
X99000D03*
X100000Y20000D03*
X112500Y65500D03*
X107500Y56500D03*
X102000Y71150D03*
X112500Y73500D03*
X105500Y105800D03*
X104000Y140500D03*
X107000D03*
Y135500D03*
X99000Y147500D03*
X100500Y158350D03*
X111000Y160150D03*
X110850Y152200D03*
X106000Y151121D03*
X103533Y207000D03*
X100000Y206500D03*
X108633Y207152D03*
X111050Y200450D03*
X101000Y202500D03*
X107500Y251500D03*
X108000Y279000D03*
X102500Y282000D03*
X108000Y282500D03*
X119000Y14500D03*
X120000Y20000D03*
X129000Y36500D03*
X125000D03*
X129000Y41000D03*
X125000D03*
X129000Y45000D03*
X125000D03*
X115000Y73500D03*
X122500Y74000D03*
X128550Y142550D03*
X123650Y143250D03*
X116500Y132600D03*
X121500Y157500D03*
X128900Y147400D03*
Y151400D03*
X121950Y200550D03*
X124900Y209900D03*
X129669Y214931D03*
X125000Y218000D03*
X121315Y218300D03*
X121355Y224500D03*
X115000Y228500D03*
X117000Y250500D03*
X126000Y258000D03*
X134500Y14500D03*
X133000Y36500D03*
Y41000D03*
Y45000D03*
X132000Y65500D03*
X133165Y71165D03*
X141500Y82500D03*
X138800Y112968D03*
X142800Y175600D03*
X143692Y234686D03*
X149000Y14500D03*
X159000D03*
X153000Y29000D03*
X160000Y20000D03*
X155720Y49220D03*
X150365Y104468D03*
X151000Y170600D03*
X156700Y174200D03*
X169000Y14500D03*
X170000Y30000D03*
X164000Y49000D03*
X176000Y84500D03*
X168200Y84868D03*
X170450Y91018D03*
X164200Y108700D03*
X163800Y119518D03*
X168500Y178000D03*
X179000Y14500D03*
X189000D03*
X180000Y20000D03*
X188500Y51500D03*
X184000Y52000D03*
X183500Y104500D03*
Y101500D03*
Y107500D03*
X181700Y157400D03*
X188000Y255500D03*
X204000Y15000D03*
X206500Y26000D03*
X197433Y26520D03*
X209000Y46000D03*
X206500Y36500D03*
X209500Y79800D03*
X205500Y132000D03*
X205000Y164500D03*
X202222Y241880D03*
X195250Y249750D03*
X219000Y46000D03*
X224500Y74500D03*
X217448Y112968D03*
X223800Y129300D03*
X211000Y128750D03*
X223800Y139700D03*
X222050Y144050D03*
X215100Y135200D03*
Y144700D03*
X221250Y157750D03*
X213696Y165672D03*
X226989Y246000D03*
X226217Y249611D03*
X239000Y46000D03*
X229000D03*
X241000Y84500D03*
X229013Y104468D03*
X227200Y129800D03*
X238946Y155054D03*
X235666Y146355D03*
X232858Y250089D03*
X257500Y46000D03*
X249000D03*
X252850Y81100D03*
X244000Y81000D03*
X243400Y108000D03*
X242448Y110568D03*
X243000Y132000D03*
Y137000D03*
Y151500D03*
X256046Y160450D03*
X249500Y283500D03*
X271500Y46500D03*
X272700Y74500D03*
X267000Y84900D03*
X261000Y105000D03*
X260000Y160500D03*
X271500Y160501D03*
X259500Y283500D03*
X287500Y46000D03*
X282500D03*
X284500Y75000D03*
X280800Y74500D03*
X285150Y133000D03*
X288850Y132850D03*
X280500Y160415D03*
X297500Y46000D03*
X294000Y64500D03*
X294500Y78700D03*
X296148Y112968D03*
X291550Y141000D03*
X291500Y151000D03*
X295435Y166500D03*
X299500D03*
X305000D03*
X295500Y254500D03*
X295100Y252400D03*
X299800Y282900D03*
X305000Y283500D03*
X322000Y48500D03*
X307500Y46000D03*
X321000D03*
X322056Y74444D03*
X321800Y107900D03*
X307713Y104468D03*
X321600Y110600D03*
X312000Y166500D03*
X318984Y266000D03*
X313079D03*
X315000Y283500D03*
X327500Y46000D03*
X337500D03*
X325500Y84244D03*
X327798Y91018D03*
X337000Y257800D03*
X324890Y266000D03*
X335000Y283500D03*
X325000D03*
X347500Y46000D03*
X349500Y63500D03*
X350500Y84500D03*
X353500D03*
X347500Y208500D03*
X348000Y223500D03*
X348500Y226500D03*
X352000Y277500D03*
X364500Y15500D03*
X362500Y29000D03*
Y21500D03*
X365000Y31500D03*
X368000D03*
X362500Y32500D03*
Y37000D03*
Y41000D03*
X357500Y46000D03*
X355500Y63500D03*
X358500D03*
X364300Y106800D03*
Y112300D03*
X362400Y114900D03*
X368300Y202500D03*
Y208000D03*
Y205000D03*
X357200Y203800D03*
X363750Y228850D03*
X359500Y238000D03*
X367500Y232500D03*
X355000Y252500D03*
X355500Y270000D03*
X370500Y14500D03*
X383000D03*
X377000D03*
X380000D03*
Y17000D03*
X383000D03*
X372500Y26500D03*
X376000Y20500D03*
Y24500D03*
X385500Y111500D03*
X371000Y102000D03*
X385000Y103700D03*
X383275Y115775D03*
X383000Y176000D03*
X385500Y178000D03*
X371000Y208000D03*
X382500Y201000D03*
X380694Y209118D03*
X380878Y211812D03*
X377500Y215000D03*
X372500Y219500D03*
X378000D03*
X370500Y215500D03*
X378000Y225500D03*
X379400Y228600D03*
X379544Y231556D03*
X377000Y250500D03*
X383000Y242000D03*
X384000Y248000D03*
X381000Y250000D03*
X380300Y271700D03*
X370800Y269500D03*
X372000Y258250D03*
X379900D03*
X377200Y269500D03*
X399000Y100000D03*
X389500Y100500D03*
X387000Y101500D03*
X389000Y104000D03*
X391500Y103000D03*
X392500Y192000D03*
X400748Y201696D03*
X394500Y244000D03*
X400000Y256000D03*
X401000Y244200D03*
X392000Y269500D03*
X401000Y283000D03*
X396000Y276500D03*
X417528Y114219D03*
X405743Y114243D03*
X416113Y171988D03*
X402600Y199600D03*
X407000Y196000D03*
X404900Y201700D03*
X402980Y246500D03*
X414500Y244000D03*
X411000Y248000D03*
X410700Y244200D03*
X406549Y246521D03*
X404720Y244056D03*
X411000Y283000D03*
X425350Y106350D03*
X431600Y105000D03*
X429124Y163927D03*
X418689Y172798D03*
X430710Y177920D03*
X420285Y183938D03*
X423000Y209500D03*
X433500Y195000D03*
X418500Y201000D03*
X426500Y203000D03*
X431000D03*
X428500Y194000D03*
X425200Y212100D03*
X430500Y225000D03*
X425080Y222000D03*
X422600Y231556D03*
X430500Y236000D03*
X430000Y252500D03*
Y242200D03*
X418000Y256000D03*
X431000Y283000D03*
X421000D03*
X447500Y15000D03*
Y22500D03*
Y29500D03*
Y35500D03*
Y41500D03*
Y47000D03*
X442500Y103700D03*
X445500Y103800D03*
X440500Y123500D03*
X438500Y125107D03*
X446150Y115350D03*
X441500Y168000D03*
Y163500D03*
X445645Y168000D03*
X449200Y182800D03*
X437000Y184500D03*
X446500Y208500D03*
X436000Y195000D03*
X434500Y197500D03*
X437300Y203000D03*
X441500Y208500D03*
X438250Y210250D03*
X438650Y225150D03*
X437000Y236500D03*
X443500Y236742D03*
X439500Y272500D03*
X434000D03*
X455000Y14500D03*
X464000D03*
X464500Y21000D03*
X455500D03*
X452500Y39500D03*
Y44000D03*
X462500Y51500D03*
X458000Y53500D03*
X450963Y123963D03*
X451850Y115550D03*
X451750Y119250D03*
X455000Y123500D03*
X457000Y136500D03*
X454500Y133500D03*
X463000Y145000D03*
X450663Y133663D03*
X460500Y134500D03*
X454000Y161500D03*
X456000Y168000D03*
X462700Y181000D03*
X461500Y190000D03*
X462500Y178000D03*
X456200Y182900D03*
X451500Y208500D03*
X461500Y196000D03*
X461508Y209580D03*
X452500Y195000D03*
X453000Y239500D03*
X451300Y253400D03*
X452000Y272500D03*
X457000D03*
X471000Y14500D03*
X479000D03*
X471500Y21000D03*
X478500D03*
X467000Y106500D03*
X476500Y107000D03*
X472000Y106800D03*
X474000Y128500D03*
X470001Y132999D03*
X472496Y145000D03*
X478500Y156500D03*
X470650Y153650D03*
X467500Y165000D03*
X471500Y168000D03*
X481500Y169500D03*
X475500Y168000D03*
X477500Y203000D03*
X473000D03*
X467950Y223680D03*
X473112Y223280D03*
X473000Y230500D03*
X478000Y258500D03*
X476000Y265500D03*
X477000Y283000D03*
X467000D03*
X477553Y275553D03*
X471500Y279000D03*
X489000Y14500D03*
X492500Y31500D03*
X488000Y32500D03*
X489000Y21000D03*
X482000Y30000D03*
X485000D03*
X488000D03*
X485000Y32500D03*
X482000D03*
Y35000D03*
X485000D03*
X488000D03*
X482000Y37500D03*
X485000D03*
X488000D03*
X482000Y63500D03*
X485000D03*
X488000D03*
X494000D03*
X491000D03*
X497000D03*
X486500Y85500D03*
X488500Y89000D03*
X494500Y105000D03*
X495311Y109500D03*
X488000Y106000D03*
X482000Y106500D03*
X495000Y116000D03*
X488800Y143350D03*
X495100Y130500D03*
X489000Y135000D03*
X497250Y160000D03*
X488250D03*
X490500Y169500D03*
X486000D03*
X496500D03*
X482000Y193500D03*
Y203000D03*
Y208000D03*
Y198500D03*
X491500Y203000D03*
X486500D03*
X482970Y223242D03*
X488860D03*
X482000Y212000D03*
X486000Y230500D03*
X489500Y254500D03*
X490550Y242950D03*
X486000Y258000D03*
X497000Y283000D03*
X487000D03*
X499000Y14500D03*
X509000D03*
X499500Y21000D03*
X502500Y64500D03*
X500000Y63500D03*
X504500Y73500D03*
X506000Y108740D03*
X513000Y124500D03*
X506500Y125000D03*
X513000Y118084D03*
X498000Y121000D03*
X498700Y135000D03*
X500500Y130350D03*
X506000Y160000D03*
X499500Y169500D03*
X501800Y177500D03*
X502000Y193500D03*
X504000Y190000D03*
X502000Y204000D03*
X502500Y216000D03*
X507000Y221500D03*
X504350Y234150D03*
X504950Y252050D03*
X507000Y283000D03*
X500700Y275700D03*
X529000Y15000D03*
X519000Y14500D03*
X515700Y105500D03*
X524500Y106000D03*
X522300Y114500D03*
Y117500D03*
X528000Y144000D03*
Y140500D03*
X521000Y147500D03*
X517000Y168500D03*
X524000Y165500D03*
X515500Y179000D03*
X514000Y184500D03*
Y187000D03*
X524000Y189500D03*
X519000Y179000D03*
X524000Y196000D03*
X525000Y216500D03*
X528000Y213500D03*
Y227500D03*
X517000Y283000D03*
X527000D03*
X533500Y20500D03*
Y32000D03*
Y49000D03*
Y59000D03*
X543000Y75500D03*
X536500Y72500D03*
X535000Y103750D03*
X542500Y128000D03*
X532500Y155500D03*
X537500Y192500D03*
Y190000D03*
Y187000D03*
Y184500D03*
Y182000D03*
Y202500D03*
Y195500D03*
Y198000D03*
Y200000D03*
X531500Y248000D03*
X541500D03*
X537000Y283000D03*
X561000Y75500D03*
X547000Y97150D03*
X559000Y91000D03*
X553000Y124500D03*
X559000Y128000D03*
X554000Y121500D03*
X557500Y118000D03*
X559000Y168000D03*
Y178000D03*
Y186000D03*
Y198000D03*
Y218000D03*
Y238000D03*
Y228000D03*
X551500Y248000D03*
X559000D03*
Y258000D03*
Y268000D03*
X547000Y283000D03*
X555000D03*
X559000Y278000D03*
X575000Y76000D03*
X563000Y140000D03*
X570000Y161500D03*
X562500Y164500D03*
X578000Y108500D03*
X581000Y125500D03*
X578000Y116000D03*
X589500Y129000D03*
X592500Y161362D03*
X583500Y161500D03*
X601500Y136000D03*
X600000Y130000D03*
X601500Y155000D03*
X597000Y161500D03*
G54D20*
X140957Y36996D03*
X198043D03*
G54D30*
G01X49500Y163000D02*
X53000Y166500D01*
X73000D01*
X76000Y169500D01*
X94500D01*
X97000Y167000D01*
G01X138800Y112968D02*
X159932D01*
X164200Y108700D01*
G01X281145Y179902D02*
X287526Y173521D01*
G01X344500Y204500D02*
Y205946D01*
G01X498700Y135000D02*
X496500D01*
X492500Y139000D01*
X459500D01*
X457000Y136500D01*
G01X513000Y124500D02*
X511000D01*
X500500Y135000D01*
X498700D01*
G54D21*
X159657Y30500D03*
X179343D03*
G54D12*
X-13000Y262500D03*
Y265500D03*
X2000Y218000D03*
Y221000D03*
Y224000D03*
X-3500Y220500D03*
Y223500D03*
X-9500Y235500D03*
Y232500D03*
X-7500Y238500D03*
X-9500Y229500D03*
X-11000Y245500D03*
X-8000D03*
Y249000D03*
Y252000D03*
Y255000D03*
X2500Y271500D03*
Y268500D03*
X2000Y264500D03*
Y261500D03*
X2500Y274500D03*
X-4000Y275000D03*
Y278000D03*
X18000Y218000D03*
X15000D03*
X8000D03*
X5000D03*
X18500Y233500D03*
Y237000D03*
Y230000D03*
X6000Y253500D03*
Y257000D03*
X9000Y253500D03*
Y257000D03*
X8500Y274500D03*
X5500D03*
X11500D03*
X14500D03*
X17500D03*
X31000Y224500D03*
X21000Y218000D03*
X21500Y233500D03*
Y237000D03*
Y230000D03*
X31000Y231000D03*
Y228000D03*
X19500Y271000D03*
Y268000D03*
X29500Y269000D03*
Y266000D03*
X21000Y274500D03*
X75500Y267500D03*
X72500D03*
X79500D03*
X82500D03*
X74500Y282000D03*
X71500D03*
X96000Y267500D03*
Y264500D03*
X91500D03*
Y267500D03*
X123500Y273500D03*
X120500D03*
X123500Y277300D03*
X120500D03*
G54D31*
G01X240196Y176752D02*
X241196D01*
X242715Y175233D01*
X244711D01*
X245900Y174044D01*
Y169956D01*
X242520Y166576D01*
Y163576D01*
X240044Y161100D01*
X228456D01*
X225956Y163600D01*
X218544D01*
X216400Y161456D01*
Y153544D01*
X218444Y151500D01*
X222518D01*
X223700Y150318D01*
G01X243345Y179901D02*
Y178901D01*
X245121Y177125D01*
Y176379D01*
X247000Y174500D01*
Y169500D01*
X243620Y166120D01*
Y163120D01*
X240500Y160000D01*
X228000D01*
X225500Y162500D01*
X219000D01*
X217500Y161000D01*
Y154000D01*
X218900Y152600D01*
X222518D01*
X223700Y153782D01*
G54D22*
X272500Y274100D03*
G54D13*
X-2000Y59000D03*
X2000Y63000D03*
X-2000D03*
X-6000Y61000D03*
X2000Y59000D03*
X-5000Y86000D03*
X-9000D03*
X-5000Y94000D03*
X-9000D03*
X-5000Y90000D03*
X-9000D03*
X2500Y87000D03*
X6000D03*
X9500D03*
X7000Y91000D03*
X3000D03*
X32500Y135500D03*
X21000Y134000D03*
X25000D03*
X36500Y137000D03*
X36900Y133300D03*
X61000Y59500D03*
X64500D03*
X61350Y110000D03*
X61096Y113300D03*
X60400Y104300D03*
X59421Y116028D03*
X68000Y59500D03*
X70500Y111000D03*
Y121500D03*
Y132500D03*
X68000Y152000D03*
X76000Y175000D03*
X79000Y173500D03*
Y177000D03*
X78000Y193500D03*
X80000Y196600D03*
X76000D03*
X91000Y36000D03*
X102811D03*
X113500Y87500D03*
X110000D03*
Y91000D03*
X113500D03*
X110500Y97000D03*
X113500D03*
X107000Y113000D03*
X110500Y100500D03*
X113500Y100000D03*
X110500Y104000D03*
X114000Y123668D03*
X107000Y116500D03*
Y120000D03*
X127500Y81500D03*
X123000Y87500D03*
X117400Y123668D03*
X120600D03*
X127800Y131500D03*
X127500Y159900D03*
X127400Y163000D03*
X121000Y171000D03*
X121100Y174400D03*
X131000Y81500D03*
X136000Y81265D03*
X130900Y131500D03*
X143200Y171100D03*
X139400Y172600D03*
X136000Y190000D03*
X136500Y193000D03*
X133500Y194196D03*
X157800Y166600D03*
X154400Y166700D03*
X177900Y143400D03*
X182000Y89500D03*
Y93000D03*
X178500D03*
Y89500D03*
X189000Y86000D03*
X192000Y84000D03*
Y88000D03*
X191948Y97368D03*
X189000Y96500D03*
X192048Y100568D03*
X189000Y99500D03*
Y102500D03*
X189748Y117168D03*
X190500Y124000D03*
X189748Y120568D03*
X194000Y124000D03*
X179800Y140500D03*
X180200Y151300D03*
X178600Y148700D03*
X199500Y84000D03*
X195500D03*
X197500Y124000D03*
X255000Y93000D03*
X258000D03*
X260000Y89500D03*
X261200Y93045D03*
X271000Y89000D03*
X270500Y85000D03*
X267500Y89000D03*
X270548Y94068D03*
X267848Y95668D03*
X270648Y97368D03*
X267848Y99068D03*
X270748Y100568D03*
X268100Y123600D03*
X268574Y120200D03*
X271348Y123668D03*
X277500Y85000D03*
X274000D03*
X274748Y123668D03*
X277948D03*
X336000Y85500D03*
Y92500D03*
Y89000D03*
X339500Y85500D03*
Y89000D03*
Y92500D03*
X363000Y63500D03*
X366500D03*
X359163Y83500D03*
X398000Y15500D03*
X391500D03*
X390000Y48500D03*
Y52500D03*
X393500Y55500D03*
X397000Y52000D03*
Y55500D03*
X393500Y51000D03*
X386500Y92500D03*
Y96500D03*
X411000Y15500D03*
X405500D03*
X416000Y20500D03*
X411000D03*
X416000Y52000D03*
Y56000D03*
X412500Y50000D03*
Y58000D03*
Y54000D03*
X417000Y69000D03*
X426500Y16500D03*
X421000Y20500D03*
X426500D03*
X419000Y54000D03*
X424000Y69000D03*
X420500D03*
X420639Y181039D03*
X478500Y55000D03*
X475000D03*
Y58500D03*
X478500D03*
X482000Y55000D03*
Y58500D03*
X511000Y65500D03*
X507500D03*
Y69000D03*
X511000D03*
X515500Y28500D03*
X519000D03*
X522500D03*
X526000D03*
X514500Y66500D03*
Y70000D03*
X529500Y28500D03*
X554500Y79500D03*
X551000D03*
X547000D03*
X554500Y83000D03*
X551000D03*
X547000D03*
G54D32*
G01X-56417Y117705D02*
X-57666Y118635D01*
X-58292Y119720D01*
X-58500Y120960D01*
X-58083Y122510D01*
X-57042Y123595D01*
X-55792Y123905D01*
X-54541Y123750D01*
X-53500Y123130D01*
X-51417Y120030D01*
X-49958Y118635D01*
X-47875Y117705D01*
X-46000Y117395D01*
Y123905D01*
G01Y132740D02*
X-48708Y133050D01*
X-51000Y133515D01*
X-53083Y134135D01*
X-55375Y134910D01*
X-58500Y136150D01*
Y129950D01*
G01X-47875Y142040D02*
X-46833Y142970D01*
X-46208Y144055D01*
X-46000Y145450D01*
X-46417Y146845D01*
X-47250Y147930D01*
X-48708Y148705D01*
X-50375Y148860D01*
X-52042Y148550D01*
X-53083Y147775D01*
X-53917Y146690D01*
X-54125Y145605D01*
X-53917Y144520D01*
X-53083Y143125D01*
X-58500Y143590D01*
Y147775D01*
G01X-48500Y154440D02*
X-47041Y155370D01*
X-46208Y156610D01*
X-46000Y158005D01*
X-46208Y159245D01*
X-47250Y160485D01*
X-48500Y161260D01*
X-49750Y161415D01*
X-51208Y161105D01*
X-52250Y160020D01*
X-52667Y158935D01*
Y157540D01*
G01Y158935D02*
X-53292Y159865D01*
X-54333Y160640D01*
X-55583Y160950D01*
X-56833Y160640D01*
X-57875Y159865D01*
X-58500Y158470D01*
X-58292Y157075D01*
X-57458Y155680D01*
G01X-45583Y170250D02*
X-45792Y169940D01*
X-46208D01*
X-46417Y170250D01*
X-46208Y170560D01*
X-45792D01*
X-45583Y170250D01*
G01X-56417Y179705D02*
X-57666Y180635D01*
X-58292Y181720D01*
X-58500Y182960D01*
X-58083Y184510D01*
X-57042Y185595D01*
X-55792Y185905D01*
X-54541Y185750D01*
X-53500Y185130D01*
X-51417Y182030D01*
X-49958Y180635D01*
X-47875Y179705D01*
X-46000Y179395D01*
Y185905D01*
G01X-58500Y195050D02*
X-58083Y193810D01*
X-57042Y192880D01*
X-55792Y192260D01*
X-54125Y191795D01*
X-52250Y191640D01*
X-50375Y191795D01*
X-48708Y192260D01*
X-47458Y192880D01*
X-46417Y193810D01*
X-46000Y195050D01*
X-46417Y196290D01*
X-47458Y197220D01*
X-48708Y197840D01*
X-50375Y198305D01*
X-52250Y198460D01*
X-54125Y198305D01*
X-55792Y197840D01*
X-57042Y197220D01*
X-58083Y196290D01*
X-58500Y195050D01*
G01X-53208Y221705D02*
X-54667Y222790D01*
X-55500Y223720D01*
X-55917Y224960D01*
X-55500Y226045D01*
X-54667Y226820D01*
X-53417Y227440D01*
X-51958Y227595D01*
X-50708Y227440D01*
X-49458Y226820D01*
X-48417Y225890D01*
X-48000Y224805D01*
X-48417Y223565D01*
X-49666Y222480D01*
X-51542Y221860D01*
X-53625Y221705D01*
X-56333Y222015D01*
X-57792Y222480D01*
X-59250Y223255D01*
X-60292Y224340D01*
X-60500Y225425D01*
X-60083Y226510D01*
X-59042Y227285D01*
G01X-49458Y234415D02*
X-48417Y235500D01*
X-48000Y236740D01*
X-48417Y237980D01*
X-49666Y239065D01*
X-51542Y239840D01*
X-53417Y240150D01*
X-55708D01*
X-57583Y239840D01*
X-59250Y239065D01*
X-60083Y238135D01*
X-60500Y237050D01*
X-60083Y235810D01*
X-59250Y234880D01*
X-58000Y234260D01*
X-56333Y233950D01*
X-54875Y234260D01*
X-53417Y235035D01*
X-52583Y235965D01*
X-52375Y237050D01*
X-52791Y238290D01*
X-53833Y239220D01*
X-55708Y240150D01*
G01X-47583Y249450D02*
X-47792Y249140D01*
X-48208D01*
X-48417Y249450D01*
X-48208Y249760D01*
X-47792D01*
X-47583Y249450D01*
G01X-49458Y259215D02*
X-48417Y260300D01*
X-48000Y261540D01*
X-48417Y262780D01*
X-49666Y263865D01*
X-51542Y264640D01*
X-53417Y264950D01*
X-55708D01*
X-57583Y264640D01*
X-59250Y263865D01*
X-60083Y262935D01*
X-60500Y261850D01*
X-60083Y260610D01*
X-59250Y259680D01*
X-58000Y259060D01*
X-56333Y258750D01*
X-54875Y259060D01*
X-53417Y259835D01*
X-52583Y260765D01*
X-52375Y261850D01*
X-52791Y263090D01*
X-53833Y264020D01*
X-55708Y264950D01*
G01X-50500Y270840D02*
X-49041Y271770D01*
X-48208Y273010D01*
X-48000Y274405D01*
X-48208Y275645D01*
X-49250Y276885D01*
X-50500Y277660D01*
X-51750Y277815D01*
X-53208Y277505D01*
X-54250Y276420D01*
X-54667Y275335D01*
Y273940D01*
G01Y275335D02*
X-55292Y276265D01*
X-56333Y277040D01*
X-57583Y277350D01*
X-58833Y277040D01*
X-59875Y276265D01*
X-60500Y274870D01*
X-60292Y273475D01*
X-59458Y272080D01*
G01X-47750Y215600D02*
Y210950D01*
X-60250D01*
Y215600D01*
G01X-47750Y283800D02*
Y288450D01*
X-60250D01*
Y283800D01*
G01X27602Y11341D02*
X-44000D01*
G01X-34000Y150375D02*
Y11341D01*
G01X-36500Y26341D02*
X-34000Y11341D01*
X-31500Y26341D01*
X-36500D01*
G01X-34000Y181625D02*
Y286661D01*
G01X-31500Y271661D02*
X-34000Y286661D01*
X-36500Y271661D01*
X-31500D01*
G01X-17789Y286661D02*
X-44000D01*
G01X-18492Y19215D02*
G03X-10618Y11341I7874J0D01*
G01X-18492Y111535D02*
Y19215D01*
G01X-12924Y117103D02*
X-18492Y111535D01*
G01Y210354D02*
X-12924Y204787D01*
G01X-18492Y278787D02*
Y210354D01*
G01Y230174D02*
Y320000D01*
G01X-10618Y286661D02*
G03X-18492Y278787I0J-7874D01*
G01X195975Y310000D02*
X-18492D01*
G01X-3492Y312500D02*
X-18492Y310000D01*
X-3492Y307500D01*
Y312500D01*
G01X-10618Y11341D02*
X201977D01*
G01X-12924Y117103D02*
G03X-10618Y122671I-5568J5568D01*
G01D02*
Y199219D01*
G01D02*
G03X-12924Y204787I-7874J0D01*
G01X554340Y286661D02*
X-10618D01*
G01X201977Y11341D02*
G03X209851Y19215I0J7874D01*
G01X207055Y308958D02*
X208140Y310417D01*
X209070Y311250D01*
X210310Y311667D01*
X211395Y311250D01*
X212170Y310417D01*
X212790Y309167D01*
X212945Y307708D01*
X212790Y306458D01*
X212170Y305208D01*
X211240Y304167D01*
X210155Y303750D01*
X208915Y304167D01*
X207830Y305416D01*
X207210Y307292D01*
X207055Y309375D01*
X207365Y312083D01*
X207830Y313542D01*
X208605Y315000D01*
X209690Y316042D01*
X210775Y316250D01*
X211860Y315833D01*
X212635Y314792D01*
G01X219455Y314167D02*
X220385Y315416D01*
X221470Y316042D01*
X222710Y316250D01*
X224260Y315833D01*
X225345Y314792D01*
X225655Y313542D01*
X225500Y312291D01*
X224880Y311250D01*
X221780Y309167D01*
X220385Y307708D01*
X219455Y305625D01*
X219145Y303750D01*
X225655D01*
G01X231390Y306250D02*
X232320Y304791D01*
X233560Y303958D01*
X234955Y303750D01*
X236195Y303958D01*
X237435Y305000D01*
X238210Y306250D01*
X238365Y307500D01*
X238055Y308958D01*
X236970Y310000D01*
X235885Y310417D01*
X234490D01*
G01X235885D02*
X236815Y311042D01*
X237590Y312083D01*
X237900Y313333D01*
X237590Y314583D01*
X236815Y315625D01*
X235420Y316250D01*
X234025Y316042D01*
X232630Y315208D01*
G01X243790Y306250D02*
X244720Y304791D01*
X245960Y303958D01*
X247355Y303750D01*
X248595Y303958D01*
X249835Y305000D01*
X250610Y306250D01*
X250765Y307500D01*
X250455Y308958D01*
X249370Y310000D01*
X248285Y310417D01*
X246890D01*
G01X248285D02*
X249215Y311042D01*
X249990Y312083D01*
X250300Y313333D01*
X249990Y314583D01*
X249215Y315625D01*
X247820Y316250D01*
X246425Y316042D01*
X245030Y315208D01*
G01X259600Y303333D02*
X259290Y303542D01*
Y303958D01*
X259600Y304167D01*
X259910Y303958D01*
Y303542D01*
X259600Y303333D01*
G01X272000Y316250D02*
X270760Y315833D01*
X269830Y314792D01*
X269210Y313542D01*
X268745Y311875D01*
X268590Y310000D01*
X268745Y308125D01*
X269210Y306458D01*
X269830Y305208D01*
X270760Y304167D01*
X272000Y303750D01*
X273240Y304167D01*
X274170Y305208D01*
X274790Y306458D01*
X275255Y308125D01*
X275410Y310000D01*
X275255Y311875D01*
X274790Y313542D01*
X274170Y314792D01*
X273240Y315833D01*
X272000Y316250D01*
G01X286260Y303750D02*
Y316250D01*
X280525Y307292D01*
X288275D01*
G01X209851Y42837D02*
Y19215D01*
G01X359457Y42837D02*
X209851D01*
G01X318700Y303750D02*
Y316250D01*
X316840Y313750D01*
G01Y303750D02*
X320560D01*
G01X327690Y305625D02*
X328620Y304583D01*
X329705Y303958D01*
X331100Y303750D01*
X332495Y304167D01*
X333580Y305000D01*
X334355Y306458D01*
X334510Y308125D01*
X334200Y309792D01*
X333425Y310833D01*
X332340Y311667D01*
X331255Y311875D01*
X330170Y311667D01*
X328775Y310833D01*
X329240Y316250D01*
X333425D01*
G01X343500Y303750D02*
X344585Y303958D01*
X345825Y304583D01*
X346600Y305625D01*
X346910Y307083D01*
X346600Y308541D01*
X345670Y309792D01*
X344275Y310417D01*
X342725D01*
X341795Y310833D01*
X341020Y311875D01*
X340710Y313333D01*
X341175Y314792D01*
X342260Y315833D01*
X343500Y316250D01*
X344740Y315833D01*
X345825Y314792D01*
X346290Y313333D01*
X345980Y311875D01*
X345205Y310833D01*
X344275Y310417D01*
X342725D01*
X341330Y309792D01*
X340400Y308541D01*
X340090Y307083D01*
X340400Y305625D01*
X341175Y304583D01*
X342415Y303958D01*
X343500Y303750D01*
G01X355900Y303333D02*
X355590Y303542D01*
Y303958D01*
X355900Y304167D01*
X356210Y303958D01*
Y303542D01*
X355900Y303333D01*
G01X364890Y306250D02*
X365820Y304791D01*
X367060Y303958D01*
X368455Y303750D01*
X369695Y303958D01*
X370935Y305000D01*
X371710Y306250D01*
X371865Y307500D01*
X371555Y308958D01*
X370470Y310000D01*
X369385Y310417D01*
X367990D01*
G01X369385D02*
X370315Y311042D01*
X371090Y312083D01*
X371400Y313333D01*
X371090Y314583D01*
X370315Y315625D01*
X368920Y316250D01*
X367525Y316042D01*
X366130Y315208D01*
G01X377755Y314167D02*
X378685Y315416D01*
X379770Y316042D01*
X381010Y316250D01*
X382560Y315833D01*
X383645Y314792D01*
X383955Y313542D01*
X383800Y312291D01*
X383180Y311250D01*
X380080Y309167D01*
X378685Y307708D01*
X377755Y305625D01*
X377445Y303750D01*
X383955D01*
G01X309400D02*
X304750D01*
Y316250D01*
X309400D01*
G01X367331Y11341D02*
X528828D01*
G01X359457Y19215D02*
G03X367331Y11341I7874J0D01*
G01X359457Y19215D02*
Y42837D01*
G01X390000Y303750D02*
X394650D01*
Y316250D01*
X390000D01*
G01X404025Y310000D02*
X604812D01*
G01X528828Y11341D02*
G03X536702Y19215I0J7874D01*
G01D02*
Y64490D01*
G01X544576Y72364D02*
G03X536702Y64490I0J-7874D01*
G01X544576Y72364D02*
X573316D01*
G01X562214Y278787D02*
G03X554340Y286661I-7874J0D01*
G01X573316Y72364D02*
G03X581190Y80238I0J7874D01*
G01X596938Y164803D02*
X570088D01*
G01X562214Y278787D02*
Y172677D01*
G01D02*
G03X570088Y164803I7874J0D01*
G01X581190Y117640D02*
Y80238D01*
G01X589064Y125514D02*
G03X581190Y117640I0J-7874D01*
G01X596938Y125514D02*
X589064D01*
G01X589812Y307500D02*
X604812Y310000D01*
X589812Y312500D01*
Y307500D01*
G01X596938Y125514D02*
G03X604812Y133388I0J7874D01*
G01D02*
Y156929D01*
G01D02*
G03X596938Y164803I-7874J0D01*
G01X604812Y158023D02*
Y320000D01*
G54D14*
X14827Y30000D03*
X17976D03*
X7000Y110500D03*
X11500Y104000D03*
Y101500D03*
X13500Y103000D03*
X11000Y174500D03*
X10500Y184000D03*
X21126Y30000D03*
X24276D03*
X27425D03*
X30575Y30075D03*
X21000Y171500D03*
Y169000D03*
X26500Y182000D03*
Y185000D03*
X21700Y265500D03*
X49358Y47500D03*
X46505Y77495D03*
X46150Y125850D03*
X37000Y146000D03*
X35500Y208000D03*
X65500Y122500D03*
X51850Y137500D03*
X61500Y159000D03*
X60000Y205500D03*
X59500Y218000D03*
X62500Y209500D03*
X60000Y209000D03*
Y212036D03*
Y215000D03*
Y221500D03*
Y224000D03*
Y235000D03*
Y230000D03*
Y232500D03*
Y237500D03*
Y240000D03*
X54200Y254500D03*
X65500Y256200D03*
X60500Y254500D03*
X52000Y265800D03*
X54200Y264500D03*
Y267000D03*
Y257000D03*
X60500D03*
X66000Y262500D03*
Y272000D03*
X63500D03*
X51800Y275800D03*
X54200Y274500D03*
Y277000D03*
X60500D03*
Y274500D03*
X79189Y36500D03*
X81500Y51500D03*
X78000D03*
X77500Y87500D03*
X71500Y170000D03*
Y184500D03*
Y191500D03*
Y188500D03*
Y195000D03*
X77500Y255500D03*
X75000D03*
X68000Y256200D03*
X75000Y262500D03*
X68500D03*
X77500D03*
X80500Y282000D03*
X89500Y50000D03*
X92000D03*
X82500Y100000D03*
X95000Y178000D03*
X84000Y202500D03*
X84500Y207000D03*
X94533Y217400D03*
X87500Y217000D03*
X90100Y217100D03*
X87000Y227500D03*
X87495Y239984D03*
X93500Y235262D03*
X87000Y235000D03*
Y230000D03*
X87400Y244706D03*
X86000Y250200D03*
X90700Y258000D03*
X90500Y282000D03*
X93000D03*
X95500D03*
X83000D03*
X98000D03*
X88000D03*
X85500D03*
X104500Y56500D03*
X101000D03*
X103500Y79500D03*
X105500Y78500D03*
X105498Y80501D03*
X105000Y71150D03*
X101000Y126000D03*
X104900Y188600D03*
X108400D03*
X101400D03*
X104900Y191100D03*
Y186100D03*
X111000Y182500D03*
X101100Y199100D03*
X98450Y200450D03*
X108633Y218000D03*
X109071Y221489D03*
X113500Y216500D03*
X103500Y217100D03*
X100000Y219500D03*
X104300Y221300D03*
X105500Y218900D03*
X105600Y266500D03*
X108000D03*
X106000Y261000D03*
X103500D03*
X100600D03*
X112000Y263500D03*
X110000Y265000D03*
X105895Y258500D03*
X107700Y263000D03*
X100600Y266500D03*
X103100D03*
X99500Y274000D03*
X104700D03*
X102700Y275600D03*
X116000Y66500D03*
X125300Y205300D03*
X117000Y221500D03*
X124957Y224143D03*
X114200Y221500D03*
X128500Y227233D03*
X127338Y235453D03*
X128500Y230545D03*
X124800Y236882D03*
X125584Y227316D03*
X124681Y243160D03*
X128000Y242000D03*
X128600Y251400D03*
X129200Y245600D03*
X124300Y254282D03*
X125600Y250000D03*
X128912Y248119D03*
X120000Y263500D03*
X114000Y265000D03*
X122000Y265500D03*
X118000Y265000D03*
X123910Y263590D03*
X116000Y263500D03*
X144000Y167500D03*
X145743Y189077D03*
X139379Y210432D03*
X139308Y215028D03*
X142844Y230906D03*
X130500Y234000D03*
Y237000D03*
X131500Y240300D03*
X143480Y255318D03*
X159000Y58500D03*
X156500D03*
X149500Y58000D03*
X152500Y58500D03*
X152000Y83500D03*
X160352Y81648D03*
X153366Y181710D03*
X150216Y188008D03*
Y191159D03*
X161653Y193108D03*
X153366Y191158D03*
X150216Y184860D03*
Y181709D03*
X156516D03*
X153366Y184860D03*
X156516Y191158D03*
X153366Y188009D03*
X159584Y191076D03*
X160168Y187522D03*
X150216Y206906D03*
X156516Y200608D03*
X150216Y194307D03*
X153366Y194308D03*
X150216Y200608D03*
Y197458D03*
X153366Y200608D03*
X156516Y197458D03*
Y194307D03*
Y206906D03*
X153366Y206907D03*
Y197457D03*
Y219508D03*
X153365Y216358D03*
X153366Y213207D03*
X150216Y222658D03*
X153366Y210058D03*
X150216Y216356D03*
X156516Y216358D03*
X153366Y222657D03*
X160097Y222099D03*
X156545Y222682D03*
X148715Y211703D03*
X156516Y210057D03*
Y213207D03*
X149349Y228605D03*
X149278Y225706D03*
X149300Y231604D03*
X156516Y228953D03*
X153366Y228956D03*
Y225807D03*
X154655Y233060D03*
X146662Y248943D03*
X157976Y248884D03*
X161158Y255318D03*
X154794D03*
X149985D03*
X175000Y33000D03*
X168000D03*
X172500D03*
X175000Y48500D03*
X171536D03*
X177536Y51500D03*
X169464D03*
X166000D03*
X166500Y79500D03*
X175417Y184857D03*
Y191156D03*
X172266Y184861D03*
X175845Y181235D03*
X171623Y177905D03*
X172331Y191200D03*
X172177Y188102D03*
X175416Y188007D03*
X175414Y203758D03*
X175416Y194306D03*
Y197455D03*
X172259Y203715D03*
X172266Y194306D03*
X175416Y200606D03*
X169007Y200320D03*
X165754Y199755D03*
X175416Y213205D03*
X175417Y210057D03*
X175416Y222655D03*
X172259Y222665D03*
X168314Y220276D03*
X175416Y219509D03*
X166107Y218352D03*
X172266Y210057D03*
Y213205D03*
X175417Y216356D03*
X172224Y225882D03*
X175416Y228954D03*
Y225805D03*
X165966Y232070D03*
X172047Y232352D03*
X169643Y248813D03*
X178058Y255248D03*
X172896Y255177D03*
X166390Y255460D03*
X185500Y33000D03*
X192000Y33500D03*
X187000Y49000D03*
X183536D03*
X181000Y51500D03*
X186250Y88079D03*
X178566Y181707D03*
Y188006D03*
Y184857D03*
X178562Y203757D03*
X178566Y197455D03*
Y194305D03*
Y200605D03*
X178562Y222653D03*
X178564Y219506D03*
X187745Y210432D03*
X178566Y210057D03*
X180496Y228903D03*
X180391Y225761D03*
X180496Y232282D03*
X186500Y232500D03*
Y235000D03*
X181240Y248802D03*
X184351Y255460D03*
X206000Y170500D03*
X208605Y224362D03*
X204645Y225635D03*
X206506Y253000D03*
X197500D03*
X206506Y264000D03*
X209016Y262000D03*
X221500Y147000D03*
X224700Y147500D03*
X223700Y150318D03*
Y153782D03*
X221296Y176751D03*
X218146Y170452D03*
Y176752D03*
X214996Y170452D03*
X218146Y173602D03*
X224445D03*
X211845Y170452D03*
X214995Y173602D03*
X214996Y176752D03*
X224446D03*
X211846Y173602D03*
X224446Y170452D03*
X221296Y192501D03*
X211846Y179902D03*
X218146Y179901D03*
X224446Y186202D03*
Y179901D03*
X214995Y192501D03*
Y179902D03*
X224446Y192502D03*
X221296Y183051D03*
X214996Y186202D03*
X211845Y192502D03*
X211846Y183051D03*
X214995D03*
X218146Y192502D03*
X211845Y186202D03*
X218146D03*
X214995Y189352D03*
X211846D03*
X221296Y195652D03*
X224445Y198802D03*
X215018Y208226D03*
X224446Y208252D03*
X214995Y198802D03*
X221295Y201952D03*
X214996D03*
X218146Y198802D03*
X211846D03*
X224446Y201952D03*
X221296Y208251D03*
X214995Y195652D03*
X211845Y195651D03*
Y201952D03*
X218146D03*
Y208252D03*
X211846Y208251D03*
X221296Y198802D03*
X218146Y195651D03*
Y217702D03*
Y224002D03*
X224446Y217702D03*
X221296Y224001D03*
X224445Y214552D03*
X214995Y220852D03*
X224446Y220851D03*
X214995Y214552D03*
X211845Y211402D03*
X218146D03*
X221296Y214552D03*
X211845Y217702D03*
X214996D03*
X224446Y211402D03*
X221296D03*
X218146Y220851D03*
X211846Y214552D03*
X218146D03*
X214996Y211402D03*
X214995Y224001D03*
X211846D03*
X221296Y217701D03*
X224446Y227152D03*
X221296Y233451D03*
X224445Y230302D03*
X221296Y236602D03*
X214995Y239752D03*
X224446Y233452D03*
X214995Y233451D03*
X224446Y236601D03*
X211846Y240000D03*
X218146Y236601D03*
X221296Y230302D03*
X214996Y227152D03*
X211845D03*
Y236601D03*
X211846Y230302D03*
X218146Y227152D03*
X211845Y233452D03*
X218146D03*
X214995Y236602D03*
Y230302D03*
X218146Y239752D03*
X219282Y252434D03*
X216100Y252788D03*
X222727Y252400D03*
X211050Y252801D03*
X210984Y264000D03*
X220000Y262000D03*
X213494D03*
X221984Y264000D03*
X217506D03*
X224494Y262000D03*
X239538Y49500D03*
X231500D03*
X228038D03*
X226750Y62000D03*
X232350D03*
X238650D03*
X228036Y74500D03*
X231500D03*
X240000D03*
X237150Y129650D03*
X230746Y164152D03*
Y173602D03*
X237045Y170452D03*
X237046Y173602D03*
X233896Y176752D03*
X241000Y166000D03*
X230746Y170452D03*
Y176751D03*
X240195Y173602D03*
X240196Y176752D03*
X237045D03*
X227595Y170452D03*
X227596Y173602D03*
X233895D03*
X233896Y170452D03*
X230746Y189352D03*
Y192501D03*
X227595Y186202D03*
X237046Y189352D03*
X233896Y183052D03*
X237045Y186202D03*
X240195Y183051D03*
X230746Y186202D03*
Y179902D03*
Y183051D03*
X233896Y179901D03*
X237046Y179902D03*
X240195D03*
X237046Y183051D03*
X240196Y192502D03*
X227596Y183051D03*
X227595Y192502D03*
Y179901D03*
Y195651D03*
X233896Y201952D03*
X227595Y208252D03*
X237046Y195652D03*
X240195Y208251D03*
X237045Y201952D03*
X240195Y198802D03*
X230746Y208251D03*
X237046D03*
X240196Y195651D03*
X237046Y198802D03*
X240196Y201952D03*
X227595D03*
X233896Y198802D03*
Y208252D03*
X227595Y217702D03*
X230746Y211402D03*
Y220852D03*
X233901Y220847D03*
X227595Y220851D03*
X240196Y217702D03*
X240195Y220852D03*
X240201Y214547D03*
X237045Y211402D03*
X233895Y214552D03*
X227596Y224001D03*
X233896Y224002D03*
X237046Y214552D03*
X230746Y217701D03*
X227595Y211402D03*
X230746Y214552D03*
X237045Y217702D03*
X240195Y224001D03*
X227595Y227152D03*
Y233452D03*
X237045Y227152D03*
X230746Y236602D03*
X227596Y230302D03*
X230746Y233451D03*
X240195Y230302D03*
X240196Y236601D03*
X233896D03*
X237046Y233451D03*
X233896Y233452D03*
X240196D03*
X230746Y230302D03*
X233896Y230301D03*
X227595Y236601D03*
X237046Y230302D03*
Y236602D03*
X230746Y227152D03*
X240196D03*
X228474Y251500D03*
X233604Y252829D03*
X241202Y252434D03*
X238374D03*
X226483Y253013D03*
X232995Y264008D03*
X231000Y262500D03*
X235494D03*
X228506Y264000D03*
X239506D03*
X255000Y49500D03*
X251538D03*
X243000D03*
X244250Y62000D03*
X250350D03*
X255950D03*
X243464Y74500D03*
X251536D03*
X255000D03*
X249000Y91500D03*
X256000Y88500D03*
X243050Y141800D03*
X257500Y157000D03*
X243000Y155350D03*
X243346Y173602D03*
X252796D03*
X245428Y165000D03*
X249645Y173602D03*
X255946Y176752D03*
Y170452D03*
X255945Y173602D03*
X252795Y176752D03*
X249646D03*
Y170452D03*
X252795D03*
X243345Y176752D03*
X249646Y186202D03*
Y183052D03*
X252796Y189352D03*
X255945Y192501D03*
X252796Y179902D03*
X249645Y189352D03*
X255945Y183051D03*
X252796D03*
X243345Y192502D03*
X255945Y189352D03*
X255946Y186202D03*
X243356Y183062D03*
X255945Y179902D03*
X249646Y179901D03*
X243345Y186202D03*
X249646Y192502D03*
X243345Y179901D03*
X249636Y208242D03*
X249645Y198802D03*
X243345Y195651D03*
Y201952D03*
X255945Y198802D03*
X252795Y201952D03*
Y195651D03*
X255945Y208251D03*
X252796D03*
X243345Y208252D03*
X252796Y198802D03*
X255946Y201952D03*
X255945Y195652D03*
X243346Y198802D03*
X249646Y195651D03*
Y201952D03*
Y217702D03*
X252795D03*
X249645Y214552D03*
X255945D03*
X243345Y211402D03*
X252795D03*
X255945Y220852D03*
Y224001D03*
X243345Y220851D03*
X255941Y211397D03*
X252791Y214547D03*
X249636Y211392D03*
X243346Y214552D03*
X249646Y220851D03*
X243345Y224002D03*
X252796Y224001D03*
X252845Y239801D03*
X249646Y236601D03*
X252795Y227152D03*
X243345Y236601D03*
Y233452D03*
X243346Y230302D03*
X255945Y233451D03*
X252795Y233452D03*
X255941Y227147D03*
X252795Y236601D03*
X243346Y227152D03*
X249646Y230302D03*
Y239752D03*
X255945Y236602D03*
X249646Y233452D03*
X255945Y230302D03*
X255694Y252827D03*
X244210Y252788D03*
X252162Y252829D03*
X248909Y252865D03*
X251000Y250500D03*
X256000Y241500D03*
X254500Y262500D03*
X253000Y266000D03*
X242016Y262540D03*
X256994Y266000D03*
X250100Y262500D03*
X246500Y262540D03*
X244024Y264030D03*
X267000Y47500D03*
X263538D03*
X262250Y62000D03*
X267850D03*
X263536Y74500D03*
X267000D03*
X264500Y140200D03*
X269200D03*
Y146100D03*
X264500D03*
X270500Y155500D03*
X271696Y176751D03*
X259096Y173602D03*
X271696D03*
X265395D03*
X265396Y176752D03*
X268545D03*
X259096Y170452D03*
X262246D03*
X259096Y176752D03*
X268546Y173602D03*
X271696Y170452D03*
X259096Y189351D03*
X271696Y186202D03*
X265396D03*
X271696Y192501D03*
X265396Y192502D03*
X271696Y183051D03*
X268546D03*
X271696Y189352D03*
X262246Y183051D03*
X259096Y186202D03*
X268545D03*
Y179901D03*
Y192502D03*
X271696Y179902D03*
X262246D03*
X265396Y179901D03*
X259096Y183052D03*
Y179901D03*
X262245Y186202D03*
X265396Y201952D03*
X271696Y195652D03*
X268546Y198802D03*
X262246Y208251D03*
X268545Y208252D03*
X265395Y198802D03*
X271696D03*
X265396Y208252D03*
X271696Y201952D03*
X268545D03*
X259096D03*
X271696Y208251D03*
X262245Y201952D03*
X262241Y220847D03*
X265396Y220851D03*
X265391Y217697D03*
X262241D03*
X262246Y211402D03*
Y224001D03*
X268546Y214552D03*
X268545Y220851D03*
X259091Y214547D03*
X271696Y224001D03*
Y220852D03*
X268546Y224001D03*
X271696Y211402D03*
X265396D03*
X268545D03*
X265395Y214552D03*
X271696D03*
Y217701D03*
X259096Y217702D03*
Y211402D03*
X259091Y223997D03*
X271696Y239752D03*
X265396Y227152D03*
X259096Y236601D03*
Y230301D03*
X271696Y236602D03*
Y227152D03*
X268545D03*
X265396Y236601D03*
X268546Y230302D03*
X259096Y227152D03*
X268545Y233452D03*
X262246Y230302D03*
X265396Y233452D03*
X262241Y236597D03*
X262246Y239752D03*
X259096Y233453D03*
Y239752D03*
X265395D03*
X262246Y233451D03*
X268541Y239747D03*
X268545Y236601D03*
X265395Y230302D03*
X262241Y227147D03*
X267000Y251500D03*
X259000Y253000D03*
X263500Y253120D03*
X261500Y250500D03*
X263600Y263300D03*
X267200Y261500D03*
X271900Y260400D03*
X260800Y264300D03*
X259500Y257000D03*
X278000Y47000D03*
X275500D03*
X273900Y62000D03*
X279600D03*
X286000D03*
X275500Y74500D03*
X278000D03*
X287500Y75000D03*
X281146Y176752D03*
X277995D03*
Y170452D03*
X274845Y173602D03*
X281145D03*
X277996D03*
X274846Y176752D03*
X281796Y170702D03*
X274846Y170452D03*
X281145Y179902D03*
X277996Y192501D03*
Y179902D03*
X277995Y186202D03*
X274846Y192502D03*
X281146D03*
X284273Y183075D03*
X274846Y186202D03*
X277996Y183051D03*
X281145D03*
X274846Y183052D03*
X277996Y189352D03*
X281145D03*
X274846Y189351D03*
X277996Y208251D03*
Y198802D03*
X274846Y201952D03*
X281145Y208251D03*
X274846Y208252D03*
Y198802D03*
X281145D03*
X277996Y195652D03*
X281146Y195651D03*
X277986Y205072D03*
X281137D03*
X274846Y195651D03*
X277996Y220852D03*
X274845Y214552D03*
X281146Y211402D03*
X277995D03*
X281145Y224001D03*
X274846Y224002D03*
X281145Y220852D03*
X281146Y217702D03*
X274846Y211402D03*
X281145Y214552D03*
X274846Y220851D03*
X277996Y214552D03*
X277995Y217702D03*
X274846D03*
X277996Y224001D03*
Y233451D03*
X274865Y239752D03*
X281145D03*
X277995Y227152D03*
X281146Y233452D03*
X277996Y239752D03*
X274846Y230301D03*
X281146Y227152D03*
X274846Y233452D03*
X281146Y236601D03*
X281145Y230302D03*
X274846Y227152D03*
X277996Y236602D03*
Y230302D03*
X276000Y249000D03*
X286100Y261000D03*
X281700Y260000D03*
X286100Y258100D03*
X287000Y278500D03*
X286000Y283000D03*
X302500Y49000D03*
X293000Y62000D03*
X298500Y61900D03*
X301400Y62000D03*
X290000D03*
X290560Y74440D03*
X298434Y74434D03*
X302580Y74500D03*
X295500Y150900D03*
X290500Y197500D03*
X298500D03*
X293000D03*
X296000D03*
X296710Y217150D03*
X303404Y217003D03*
X296357Y213685D03*
X298500Y254000D03*
X296600Y258100D03*
X290500Y263000D03*
X302000Y269000D03*
X297144Y276148D03*
X314580Y49000D03*
X318000D03*
X306000D03*
X307250Y62000D03*
X313300D03*
X319000D03*
X310245Y74500D03*
X306000D03*
X314500D03*
X317500D03*
X320000Y84350D03*
X317854Y182081D03*
X314704Y191530D03*
Y188380D03*
Y182081D03*
X317854Y191530D03*
X321003D03*
X317854Y185231D03*
X314704Y207278D03*
X321003Y200979D03*
X314703Y194679D03*
X317854D03*
X317853Y200979D03*
X321003Y194679D03*
X314704Y197829D03*
X314812Y201028D03*
X317854Y207278D03*
X321003D03*
X317853Y197829D03*
X321003D03*
X317854Y219879D03*
X313621Y222159D03*
X317854Y213579D03*
X317853Y216729D03*
X317854Y210429D03*
X311554Y210428D03*
X314703Y216728D03*
X321004Y223025D03*
X317853Y223029D03*
X311554Y213579D03*
X321003Y210429D03*
Y213579D03*
X321004Y216729D03*
X314483Y229549D03*
X314704Y226179D03*
X314502Y232678D03*
X321003Y226175D03*
X317854Y226178D03*
X321083Y229405D03*
X317810Y229302D03*
X307500Y268000D03*
X310000D03*
X314000Y268500D03*
X317000D03*
X320500D03*
X307000Y278000D03*
X310000D03*
X317000D03*
X314500D03*
X329685Y49000D03*
X326265D03*
X325150Y62000D03*
X330800D03*
X326500Y74500D03*
X329500D03*
X336754Y185232D03*
X326479Y181865D03*
X337015Y181794D03*
X336754Y188381D03*
X324712Y190704D03*
X324994Y186885D03*
X336754Y191531D03*
X328601Y195724D03*
X336754Y194677D03*
Y207278D03*
X324194Y197641D03*
X333656Y197882D03*
X330793Y197916D03*
X336754Y219878D03*
Y213577D03*
Y210428D03*
Y216727D03*
Y223026D03*
Y226177D03*
Y229325D03*
X324283Y229271D03*
X336754Y232475D03*
X333500Y258000D03*
X332500Y268500D03*
X323420D03*
X324500Y278000D03*
X322000D03*
X346500Y64000D03*
X344000D03*
X352500Y63500D03*
X353000Y100500D03*
X339904Y185229D03*
X343054Y188377D03*
X343429Y181703D03*
X339904Y191528D03*
X343054Y185228D03*
X339904Y188378D03*
X340228Y181755D03*
X344500Y205946D03*
X343054Y197826D03*
X339904Y207278D03*
X352293Y206822D03*
X343053Y194677D03*
X339904D03*
X343054Y200977D03*
X352333Y198244D03*
X339904Y197826D03*
Y200977D03*
X343054Y223026D03*
X339904Y213577D03*
Y210429D03*
X343054Y210428D03*
X339904Y223026D03*
Y219877D03*
Y216727D03*
X349506Y215006D03*
X343054Y229325D03*
X346703Y240979D03*
X343054Y226177D03*
X344500Y234500D03*
X343054Y232475D03*
X339904Y229325D03*
Y226176D03*
X340059Y232632D03*
X341500Y247800D03*
X352000Y253000D03*
X368237Y83763D03*
X364475Y97975D03*
X360500Y112000D03*
X357500Y104500D03*
X368000Y117000D03*
X367500Y218000D03*
X364000Y244500D03*
X369000Y271500D03*
X358500Y270000D03*
X364000Y258500D03*
X364100Y279970D03*
X370500Y111000D03*
X377000Y127261D03*
X372500Y125500D03*
X380000Y123451D03*
X379500Y128870D03*
X376500Y142072D03*
X380899Y144582D03*
Y137593D03*
X379000Y140103D03*
X380546Y159077D03*
X377000Y152000D03*
X380500Y154593D03*
X375936Y157532D03*
X376387Y168387D03*
X380000Y166000D03*
X375000Y173000D03*
X380192Y170356D03*
X382500Y191545D03*
X377350Y199150D03*
X384000Y198500D03*
X371000Y203000D03*
X379500Y235000D03*
X383000Y269000D03*
X374500Y269500D03*
X383000Y271700D03*
X379800Y282000D03*
X394516Y108500D03*
X400500Y110500D03*
X392006Y111000D03*
X397500Y110500D03*
X398860Y132249D03*
X399213Y139673D03*
Y155937D03*
X393557Y170786D03*
X394986Y169087D03*
X390000Y185500D03*
X397092D03*
X393500D03*
X400628Y185594D03*
X399000Y192000D03*
X396000Y197000D03*
X392844Y201955D03*
X396780Y201280D03*
X388908Y201500D03*
X390000Y198000D03*
X390500Y244000D03*
X395000Y269500D03*
X417250Y131536D03*
X407345Y131542D03*
X411588D03*
X403810D03*
X414770Y163930D03*
X406285Y163715D03*
X409339Y175382D03*
X416891Y185635D03*
X408406D03*
X412649D03*
X404000Y185500D03*
X410556Y201556D03*
X404946Y248569D03*
X422659Y111000D03*
X426902D03*
X430237Y110021D03*
X429619Y131895D03*
X430326Y135431D03*
X430680Y142148D03*
X421487Y131542D03*
X426002Y131813D03*
X429729Y146634D03*
X430680Y156997D03*
X418332Y164068D03*
X421487D03*
X425023D03*
X431090Y161594D03*
X425730Y181039D03*
X426150Y188880D03*
X426430Y192030D03*
X429000Y197000D03*
X423000Y206000D03*
X425500Y217500D03*
X422500Y221500D03*
Y240790D03*
X420500Y242500D03*
X440844Y110021D03*
X437308D03*
X433773D03*
X444500Y118000D03*
X439500Y136500D03*
X441500Y144000D03*
Y140849D03*
X438542Y165500D03*
X441500Y173968D03*
X434000Y236500D03*
X442000Y226000D03*
X444500Y225000D03*
X447500Y227000D03*
X437000Y258500D03*
X447000Y272500D03*
X448000Y258100D03*
X444900Y258300D03*
X442000Y258500D03*
X462490Y105510D03*
X451000Y128450D03*
X450500Y139500D03*
Y144500D03*
X459000Y208000D03*
Y204500D03*
X449500Y195000D03*
X451290Y218500D03*
X461116Y220571D03*
X464500Y220500D03*
X453258Y236758D03*
X463000Y237000D03*
X460000D03*
X459500Y253600D03*
X460400Y258300D03*
X464000Y261800D03*
X460800Y266600D03*
X474500Y117000D03*
X468500D03*
X471500D03*
X465500Y136500D03*
X470500Y151000D03*
X479500Y167500D03*
Y164500D03*
X468000Y169500D03*
Y172000D03*
X465800Y170700D03*
X468500Y180500D03*
X476500Y179000D03*
X479000Y181500D03*
X473850Y180500D03*
X472000Y178000D03*
X465600Y266700D03*
X471500Y259000D03*
X481500Y135000D03*
X484500Y130500D03*
X486000Y135000D03*
X491000Y182000D03*
X484953Y181547D03*
X494795Y224000D03*
X484500Y226000D03*
X490500Y233000D03*
X493000D03*
X487000Y226000D03*
X486000Y252000D03*
X483500Y254414D03*
X486000Y272000D03*
Y262500D03*
X506000Y116500D03*
X512500Y144000D03*
Y147000D03*
X509000Y150500D03*
Y153500D03*
X512000Y156000D03*
Y158500D03*
X512500Y149500D03*
X510000Y160000D03*
X511000Y209000D03*
Y211500D03*
X502000Y210000D03*
X498500Y224000D03*
X521176Y94150D03*
X514000Y92000D03*
X522000Y111150D03*
X528500Y122000D03*
X513000Y138500D03*
X515500D03*
X528000Y147000D03*
Y150000D03*
X514700Y154000D03*
X515000Y148500D03*
X514500Y145500D03*
X524000Y159500D03*
X519000Y172000D03*
Y174500D03*
X524000Y172000D03*
Y174500D03*
X515500Y191500D03*
X520500Y205000D03*
X518000Y206500D03*
Y203500D03*
X521500Y197200D03*
Y194700D03*
X518000Y213500D03*
X530500Y92500D03*
X539000Y109200D03*
Y106500D03*
X533500Y169000D03*
X537000Y206922D03*
X538000Y222000D03*
Y219000D03*
X539500Y208890D03*
X537000Y210859D03*
X542200Y212500D03*
X538500Y215000D03*
X542000Y216000D03*
X534500Y225800D03*
X535500Y228000D03*
X553000Y127500D03*
X546500Y151000D03*
Y154000D03*
X572000Y138500D03*
X569500Y140000D03*
X566000D03*
X574000D03*
X574500Y150000D03*
X569500Y149000D03*
X567000D03*
X579500Y138000D03*
X577500Y140000D03*
X581500D03*
X585000D03*
X590217Y155273D03*
Y157773D03*
X583500Y150000D03*
X581000D03*
X577500D03*
X592717Y155273D03*
Y157773D03*
G54D23*
X351500Y87500D03*
X352000Y92000D03*
X349500Y90000D03*
X354000Y89500D03*
X375487Y92661D03*
Y87661D03*
X373862Y90161D03*
X377862D03*
G54D33*
G01X49358Y47500D02*
X62500D01*
X78500Y63500D01*
X107500D01*
X113000Y69000D01*
X123000D01*
X130500Y76500D01*
X157000D01*
X160000Y79500D01*
X166500D01*
G01X35500Y208000D02*
Y212500D01*
X50000Y227000D01*
Y277000D01*
X57225Y284225D01*
X115868D01*
X118743Y281350D01*
X260550D01*
X263500Y284300D01*
X284700D01*
X286000Y283000D01*
G01X297144Y276148D02*
Y279856D01*
X295600Y281400D01*
X283000D01*
X281200Y283200D01*
X264500D01*
X261500Y280200D01*
X138200D01*
X129000Y271000D01*
X102500D01*
X101500Y272000D01*
X70000D01*
X63000Y265000D01*
Y250500D01*
X67500Y246000D01*
Y205000D01*
X64500Y202000D01*
Y183500D01*
X71500Y176500D01*
Y170000D01*
G01X81500Y51500D02*
Y51800D01*
X81100Y52200D01*
X80300D01*
X79700Y51600D01*
Y48300D01*
X81050Y46950D01*
X96556D01*
X99606Y50000D01*
X141156D01*
X144156Y53000D01*
X160000D01*
X162950Y55950D01*
X194050D01*
X197500Y52500D01*
X299000D01*
X302450Y55950D01*
X305450D01*
X309000Y59500D01*
X315000D01*
X315675Y60175D01*
Y61550D01*
X315225Y62000D01*
X313300D01*
G01X78000Y51500D02*
X78750Y50750D01*
Y47906D01*
X80656Y46000D01*
X96950D01*
X100000Y49050D01*
X141550D01*
X144550Y52050D01*
X160394D01*
X163344Y55000D01*
X193656D01*
X197106Y51550D01*
X299394D01*
X302844Y55000D01*
X305844D01*
X309394Y58550D01*
X315394D01*
X316625Y59781D01*
Y61550D01*
X317075Y62000D01*
X319000D01*
G01X265395Y239752D02*
Y244395D01*
X271000Y250000D01*
Y253400D01*
X267800Y256600D01*
X266255D01*
X261900Y260955D01*
X239944D01*
X234399Y266500D01*
X140000D01*
X129500Y256000D01*
X121000D01*
X119500Y254500D01*
X114000D01*
X113000Y253500D01*
X106500D01*
X103000Y250000D01*
X91500D01*
X89000Y247500D01*
X87000D01*
X85000Y245500D01*
Y224000D01*
X82500Y221500D01*
Y216500D01*
X84500Y214500D01*
X89500D01*
X94500Y209500D01*
Y205500D01*
X92500Y203500D01*
Y200378D01*
X80622Y188500D01*
X77000D01*
X72300Y193200D01*
X70200D01*
X68000Y191000D01*
Y186500D01*
X70000Y184500D01*
X71500D01*
G01Y191500D02*
X69500Y189500D01*
Y187500D01*
X70500Y186500D01*
X73500D01*
X74500Y185500D01*
X81866D01*
X95500Y199134D01*
Y202000D01*
X97500Y204000D01*
Y211500D01*
X92900Y216100D01*
Y225600D01*
X91500Y227000D01*
Y244500D01*
X94000Y247000D01*
X125200D01*
X128000Y249800D01*
X130000D01*
X139155Y258955D01*
X260300D01*
X265255Y254000D01*
X267100D01*
X269000Y252100D01*
Y251000D01*
X260696Y242696D01*
Y235001D01*
X262246Y233451D01*
G01X268545Y236601D02*
X267000Y238146D01*
Y239102D01*
X266996Y239106D01*
Y240388D01*
X267000Y240392D01*
Y244585D01*
X272000Y249585D01*
Y254300D01*
X268300Y258000D01*
X266600D01*
X262500Y262100D01*
X257700D01*
X255400Y264400D01*
X248400D01*
X244800Y268000D01*
X138500D01*
X130400Y259900D01*
X124900D01*
X122500Y257500D01*
X119000D01*
X117500Y256000D01*
X113500D01*
X112500Y255000D01*
X106000D01*
X105000Y254000D01*
X87000D01*
X78500Y245500D01*
Y218500D01*
X84000Y213000D01*
X88500D01*
X93000Y208500D01*
Y206000D01*
X91000Y204000D01*
Y201000D01*
X80000Y190000D01*
X77000D01*
X72000Y195000D01*
X71500D01*
G01Y188500D02*
X72000Y189000D01*
X75000D01*
X76500Y187500D01*
Y187450D01*
X76950Y187000D01*
X81244D01*
X94000Y199756D01*
Y203000D01*
X96000Y205000D01*
Y210500D01*
X91700Y214800D01*
Y224800D01*
X90000Y226500D01*
Y245500D01*
X93000Y248500D01*
X110500D01*
X114200Y252200D01*
X126200D01*
X128500Y254500D01*
X131000D01*
X136455Y259955D01*
X261000D01*
X265655Y255300D01*
X267400D01*
X270000Y252700D01*
Y250585D01*
X263850Y244435D01*
Y232812D01*
X265395Y231267D01*
Y230302D01*
G01X287000Y278500D02*
X285400Y276900D01*
Y272900D01*
X277049Y264549D01*
X269428D01*
X268628Y265349D01*
X268551D01*
X257000Y276900D01*
X137900D01*
X130000Y269000D01*
X100500D01*
X100000Y269500D01*
X88000D01*
X85500Y267000D01*
Y259500D01*
X74500Y248500D01*
Y215000D01*
X78500Y211000D01*
Y206500D01*
X80000Y205000D01*
X84000D01*
X84500Y205500D01*
Y207000D01*
G01X379800Y282000D02*
X377500D01*
X373200Y277700D01*
X361300D01*
X359000Y280000D01*
X305400D01*
X296900Y271500D01*
X289000D01*
X276300Y258800D01*
X270300D01*
X269400Y259700D01*
X266700D01*
X265600Y260800D01*
Y263500D01*
X257600Y271500D01*
X139000D01*
X128400Y260900D01*
X123900D01*
X122500Y259500D01*
X111500D01*
X108500Y256500D01*
X105500D01*
X104500Y255500D01*
X85000D01*
X76500Y247000D01*
Y218500D01*
X83500Y211500D01*
X87500D01*
X89200Y209800D01*
Y203700D01*
X88000Y202500D01*
X84000D01*
G01X301400Y62000D02*
X303400D01*
X304000Y61400D01*
Y60500D01*
X303000Y59500D01*
X300500D01*
X297000Y56000D01*
X207844D01*
X207000Y56844D01*
Y57656D01*
X207844Y58500D01*
X218344D01*
X219450Y59606D01*
Y61894D01*
X218394Y62950D01*
X204950D01*
X201500Y59500D01*
X163500D01*
X161500Y61500D01*
X147156D01*
X139656Y54000D01*
X91500D01*
X90100Y52600D01*
Y50600D01*
X89500Y50000D01*
G01X307250Y62000D02*
X305700D01*
X304950Y61250D01*
Y60106D01*
X303394Y58550D01*
X300894D01*
X297394Y55050D01*
X207450D01*
X206050Y56450D01*
Y58050D01*
X207450Y59450D01*
X217950D01*
X218500Y60000D01*
Y61500D01*
X218000Y62000D01*
X205344D01*
X201894Y58550D01*
X163106D01*
X161106Y60550D01*
X147550D01*
X140050Y53050D01*
X91894D01*
X91050Y52206D01*
Y50950D01*
X92000Y50000D01*
G01X399000Y192000D02*
X396500Y189500D01*
X374000D01*
X369500Y185000D01*
Y160500D01*
X344000Y135000D01*
X275000D01*
X261000Y121000D01*
X204000D01*
X198500Y126500D01*
X173844D01*
X118551Y181793D01*
Y182192D01*
X118550Y182193D01*
Y183807D01*
X118551Y183808D01*
Y190449D01*
X103644Y205356D01*
X102851D01*
X101889Y206318D01*
Y206937D01*
X101500Y207326D01*
Y212000D01*
X99000Y214500D01*
Y215500D01*
X97000Y217500D01*
Y219500D01*
X98800Y221300D01*
X104300D01*
G01X104500Y56500D02*
X103700D01*
X102950Y57250D01*
Y58306D01*
X104194Y59550D01*
X141050D01*
X146050Y64550D01*
X162950D01*
X165450Y62050D01*
X186894D01*
X188394Y63550D01*
X191606D01*
X193106Y62050D01*
X197894D01*
X198950Y63106D01*
Y64606D01*
X199894Y65550D01*
X221650D01*
X223050Y64150D01*
Y60000D01*
X224550Y58500D01*
X293844D01*
X296950Y61606D01*
Y64106D01*
X297844Y65000D01*
X327000D01*
X327500Y64500D01*
Y62450D01*
X327050Y62000D01*
X325150D01*
G01X101000Y56500D02*
X102000Y57500D01*
Y58700D01*
X103800Y60500D01*
X140656D01*
X145656Y65500D01*
X163344D01*
X165844Y63000D01*
X186500D01*
X188000Y64500D01*
X192000D01*
X193500Y63000D01*
X197500D01*
X198000Y63500D01*
Y65000D01*
X199500Y66500D01*
X222044D01*
X224000Y64544D01*
Y60394D01*
X224944Y59450D01*
X293450D01*
X296000Y62000D01*
Y64500D01*
X297450Y65950D01*
X327394D01*
X328450Y64894D01*
Y62450D01*
X328900Y62000D01*
X330800D01*
G01X396000Y197000D02*
X394500Y195500D01*
X373500D01*
X366000Y188000D01*
Y163549D01*
X341451Y139000D01*
X274000D01*
X259500Y124500D01*
X205500D01*
X200000Y130000D01*
X176000D01*
X123500Y182500D01*
Y195500D01*
X103500Y215500D01*
Y217100D01*
G01X100000Y219500D02*
X101000Y218500D01*
Y215500D01*
X105500Y211000D01*
Y207500D01*
X108500Y204500D01*
X111000D01*
X115250Y200250D01*
Y197750D01*
X120500Y192500D01*
Y183000D01*
X175051Y128449D01*
X199551D01*
X205000Y123000D01*
X260000D01*
X274500Y137500D01*
X342073D01*
X367500Y162927D01*
Y186500D01*
X374645Y193645D01*
X396145D01*
X398500Y196000D01*
Y199560D01*
X396780Y201280D01*
G01X105500Y218900D02*
Y217500D01*
X116500Y206500D01*
X121000D01*
X125000Y202500D01*
Y183000D01*
X177000Y131000D01*
X201000D01*
X206000Y126000D01*
X259000D01*
X276500Y143500D01*
X343829D01*
X364500Y164171D01*
Y189500D01*
X366500Y191500D01*
Y214000D01*
X369500Y217000D01*
Y220000D01*
X375000Y225500D01*
X378000D01*
G01X364100Y279970D02*
X363930D01*
X362900Y281000D01*
X304985D01*
X296485Y272500D01*
X288000D01*
X278100Y262600D01*
X268620D01*
X267820Y263400D01*
X267700D01*
X256900Y274200D01*
X138200D01*
X125900Y261900D01*
X108800D01*
X107700Y263000D01*
G01X259500Y257000D02*
X259000Y257500D01*
X140500D01*
X135000Y252000D01*
Y231500D01*
X127000Y223500D01*
Y208500D01*
X125300Y206800D01*
Y205300D01*
G01X379400Y228600D02*
X374600D01*
X365000Y219000D01*
Y192500D01*
X363000Y190500D01*
Y166000D01*
X342000Y145000D01*
X274000D01*
X273000Y144000D01*
X269500D01*
X267000Y141500D01*
Y136500D01*
X258000Y127500D01*
X220000D01*
X216500Y131000D01*
X209000D01*
X207500Y129500D01*
X204500D01*
X201500Y132500D01*
X179000D01*
X144000Y167500D01*
G01X156516Y216358D02*
X173874Y199000D01*
X176055D01*
X177022Y198033D01*
Y196815D01*
X177988Y195849D01*
X179351D01*
X180607Y194593D01*
X201463D01*
X204067Y197197D01*
X221934D01*
X222899Y198162D01*
Y199441D01*
X223806Y200347D01*
X225084D01*
X225999Y201262D01*
Y209806D01*
X227595Y211402D01*
G01X221296Y214552D02*
X219691Y216156D01*
Y221491D01*
X218785Y222397D01*
X218423D01*
X218363Y222456D01*
X217470D01*
X217411Y222398D01*
X214356D01*
X212573Y220614D01*
X198609D01*
X198214Y221009D01*
Y222200D01*
X197820Y222594D01*
X197258D01*
X196864Y222200D01*
Y221009D01*
X196469Y220614D01*
X195908D01*
X195513Y221009D01*
Y222200D01*
X195119Y222594D01*
X194557D01*
X194163Y222200D01*
Y221009D01*
X193768Y220614D01*
X192200D01*
X192129Y220685D01*
X187250D01*
X185836Y222099D01*
Y230443D01*
X181664Y234615D01*
X176856D01*
X163067Y220827D01*
X161370D01*
X160097Y222099D01*
G01X221296Y208251D02*
X219749Y209798D01*
X215635D01*
Y209797D01*
X211207D01*
X208801Y207392D01*
X186684D01*
X180037Y214038D01*
Y218794D01*
X180110Y218866D01*
Y220145D01*
X180037Y220217D01*
Y221944D01*
X180107Y222014D01*
Y223292D01*
X179179Y224221D01*
X171128D01*
X170138Y223231D01*
Y216018D01*
X167310Y213190D01*
X166037D01*
X156545Y222682D01*
G01X211845Y236601D02*
X207243Y231999D01*
X202948D01*
X201841Y233105D01*
Y233664D01*
X202697Y234520D01*
Y235078D01*
X202301Y235474D01*
X201742D01*
X200887Y234619D01*
X200328D01*
X199932Y235015D01*
Y235573D01*
X200788Y236429D01*
Y236987D01*
X200392Y237383D01*
X199833D01*
X198977Y236528D01*
X198419D01*
X198023Y236924D01*
Y237482D01*
X198878Y238338D01*
Y238897D01*
X198482Y239293D01*
X197924D01*
X197068Y238437D01*
X196510D01*
X196114Y238833D01*
Y239392D01*
X196969Y240247D01*
Y240806D01*
X196573Y241202D01*
X196015D01*
X195159Y240346D01*
X194600D01*
X194204Y240742D01*
Y241301D01*
X195060Y242156D01*
Y242715D01*
X194664Y243111D01*
X194105D01*
X193250Y242255D01*
X192691D01*
X192295Y242651D01*
Y243210D01*
X193151Y244066D01*
Y244624D01*
X192755Y245020D01*
X192196D01*
X191341Y244165D01*
X190782D01*
X190386Y244561D01*
Y245119D01*
X191242Y245975D01*
Y246533D01*
X190846Y246929D01*
X190287D01*
X189431Y246074D01*
X187433D01*
X183682Y242323D01*
X169886D01*
X156516Y228953D01*
G01X153366Y228956D02*
X154915Y227407D01*
X160507D01*
X161500Y228400D01*
Y230500D01*
X161932Y230932D01*
X162568D01*
X163000Y230500D01*
Y228500D01*
X163500Y228000D01*
X164583D01*
X168434Y231850D01*
Y234434D01*
X172500Y238500D01*
X188500D01*
X199000Y228000D01*
X200900D01*
X201500Y227400D01*
Y225500D01*
X201932Y225068D01*
X202568D01*
X203000Y225500D01*
Y228000D01*
X204000Y229000D01*
X209500D01*
X209932Y228568D01*
Y227932D01*
X209500Y227500D01*
X207000D01*
X206568Y227068D01*
Y226432D01*
X207000Y226000D01*
X208000D01*
X208605Y225395D01*
Y224362D01*
G01X224446Y211402D02*
X222786Y213061D01*
Y213857D01*
X222841Y213912D01*
Y220274D01*
X219750Y223362D01*
Y224583D01*
X218785Y225548D01*
X218679D01*
X218646Y225581D01*
X211241D01*
X210300Y224641D01*
Y223654D01*
X209453Y222806D01*
X201194D01*
X187000Y237000D01*
X173725D01*
X172691Y235966D01*
X169784Y233060D01*
Y231221D01*
X164371Y225807D01*
X153366D01*
G01X218146Y233452D02*
X216601Y231907D01*
X214355D01*
X213451Y232811D01*
Y232812D01*
X213413Y232850D01*
Y236312D01*
X213390Y236336D01*
Y237241D01*
X212485Y238146D01*
X211205D01*
X211139Y238080D01*
X203220D01*
X192100Y249200D01*
X187339D01*
X182159Y244020D01*
X170179D01*
X168176Y246022D01*
X167618D01*
X167222Y245626D01*
Y245068D01*
X167723Y244567D01*
Y244008D01*
X167327Y243612D01*
X166768D01*
X166267Y244113D01*
X165709D01*
X165313Y243717D01*
Y243158D01*
X165813Y242658D01*
Y242099D01*
X165417Y241703D01*
X164859D01*
X164358Y242204D01*
X163799D01*
X163404Y241808D01*
Y241249D01*
X163904Y240749D01*
Y240190D01*
X163508Y239794D01*
X162950D01*
X162449Y240295D01*
X161890D01*
X161494Y239899D01*
Y239340D01*
X161995Y238839D01*
Y238281D01*
X161599Y237885D01*
X161040D01*
X160540Y238385D01*
X159981D01*
X159585Y237989D01*
Y237431D01*
X160086Y236930D01*
Y236372D01*
X159690Y235976D01*
X159131D01*
X158631Y236476D01*
X158072D01*
X157676Y236080D01*
Y235522D01*
X158177Y235021D01*
Y234462D01*
X157781Y234066D01*
X157222D01*
X156721Y234567D01*
X156163D01*
X154655Y233060D01*
G01X175416Y222655D02*
X173872Y221111D01*
Y215717D01*
X174777Y214811D01*
X176436D01*
X181989Y209258D01*
Y208700D01*
X181063Y207773D01*
Y207215D01*
X181459Y206819D01*
X182017D01*
X182944Y207745D01*
X183502D01*
X183898Y207349D01*
Y206790D01*
X182972Y205864D01*
Y205306D01*
X183368Y204910D01*
X183927D01*
X184853Y205836D01*
X185412D01*
X185807Y205440D01*
Y204881D01*
X184881Y203955D01*
Y203396D01*
X185277Y203000D01*
X185836D01*
X186762Y203927D01*
X190168D01*
X190562Y204321D01*
Y205088D01*
X190957Y205482D01*
X191518D01*
X191913Y205088D01*
Y204321D01*
X192307Y203927D01*
X192869D01*
X193263Y204321D01*
Y205088D01*
X193658Y205482D01*
X194219D01*
X194614Y205088D01*
Y204321D01*
X195008Y203927D01*
X195570D01*
X195964Y204321D01*
Y205088D01*
X196359Y205482D01*
X196920D01*
X197315Y205088D01*
Y204321D01*
X197710Y203927D01*
X198271D01*
X198666Y204321D01*
Y205088D01*
X199060Y205482D01*
X199622D01*
X200016Y205088D01*
Y204321D01*
X200411Y203927D01*
X200972D01*
X201367Y204321D01*
Y205088D01*
X201761Y205482D01*
X202323D01*
X202717Y205088D01*
Y204321D01*
X203112Y203927D01*
X203673D01*
X204068Y204321D01*
Y205088D01*
X204462Y205482D01*
X205024D01*
X205418Y205088D01*
Y204321D01*
X205813Y203927D01*
X206374D01*
X206769Y204321D01*
Y205088D01*
X207164Y205482D01*
X207725D01*
X208120Y205088D01*
Y204321D01*
X208514Y203927D01*
X209076D01*
X209470Y204321D01*
Y205088D01*
X209865Y205482D01*
X210426D01*
X210821Y205088D01*
Y204321D01*
X211215Y203927D01*
X211777D01*
X212171Y204321D01*
Y205088D01*
X212566Y205482D01*
X213127D01*
X213522Y205088D01*
Y204321D01*
X213916Y203927D01*
X214478D01*
X214872Y204321D01*
Y205088D01*
X215267Y205482D01*
X215828D01*
X216223Y205088D01*
Y204321D01*
X216618Y203927D01*
X217179D01*
X217574Y204321D01*
Y205088D01*
X217968Y205482D01*
X218530D01*
X218924Y205088D01*
Y204321D01*
X219320Y203927D01*
X221295Y201952D01*
G01X224446D02*
X223479D01*
X222841Y201314D01*
Y201313D01*
X221934Y200406D01*
X221933D01*
X221899Y200372D01*
X220646D01*
X220612Y200406D01*
X217521D01*
X217506Y200391D01*
X210160D01*
X209100Y199331D01*
X208226D01*
X207831Y199725D01*
Y200845D01*
X207436Y201240D01*
X206875D01*
X206480Y200845D01*
Y199725D01*
X206086Y199331D01*
X205524D01*
X205130Y199725D01*
Y200845D01*
X204735Y201240D01*
X204174D01*
X203779Y200845D01*
Y199725D01*
X203385Y199331D01*
X202823D01*
X202429Y199725D01*
Y200845D01*
X202034Y201240D01*
X201473D01*
X201078Y200845D01*
Y199725D01*
X200684Y199331D01*
X200122D01*
X199728Y199725D01*
Y200845D01*
X199333Y201240D01*
X198772D01*
X198377Y200845D01*
Y199725D01*
X197982Y199331D01*
X197421D01*
X197026Y199725D01*
Y200845D01*
X196632Y201240D01*
X196070D01*
X195676Y200845D01*
Y199725D01*
X195281Y199331D01*
X194720D01*
X194325Y199725D01*
Y200845D01*
X193931Y201240D01*
X193369D01*
X192975Y200845D01*
Y199725D01*
X192580Y199331D01*
X192019D01*
X191624Y199725D01*
Y200845D01*
X191230Y201240D01*
X190668D01*
X190274Y200845D01*
Y199725D01*
X189879Y199331D01*
X189318D01*
X188923Y199725D01*
Y200845D01*
X188528Y201240D01*
X187967D01*
X187572Y200845D01*
Y199725D01*
X187178Y199331D01*
X186189D01*
X176962Y208558D01*
Y210696D01*
X176056Y211602D01*
X174834D01*
X173812Y212624D01*
Y213845D01*
X172259Y215397D01*
Y222665D01*
G01X221296Y211402D02*
X219717Y212981D01*
X209574D01*
X209179Y212587D01*
Y210472D01*
X208785Y210078D01*
X208223D01*
X207829Y210472D01*
Y212587D01*
X207434Y212981D01*
X206873D01*
X206478Y212587D01*
Y210472D01*
X206084Y210078D01*
X205522D01*
X205128Y210472D01*
Y212587D01*
X204733Y212981D01*
X204172D01*
X203777Y212587D01*
Y210472D01*
X203383Y210078D01*
X202821D01*
X202427Y210472D01*
Y212587D01*
X202032Y212981D01*
X201471D01*
X201076Y212587D01*
Y210472D01*
X200681Y210078D01*
X200120D01*
X199725Y210472D01*
Y212587D01*
X199331Y212981D01*
X198769D01*
X198375Y212587D01*
Y210472D01*
X197980Y210078D01*
X197419D01*
X197024Y210472D01*
Y212587D01*
X196630Y212981D01*
X196068D01*
X195674Y212587D01*
Y210472D01*
X195279Y210078D01*
X194718D01*
X194323Y210472D01*
Y212587D01*
X193929Y212981D01*
X193367D01*
X192973Y212587D01*
Y210472D01*
X192578Y210078D01*
X192017D01*
X191622Y210472D01*
Y212587D01*
X191227Y212981D01*
X184206D01*
X181937Y215250D01*
Y226400D01*
X181030Y227306D01*
X179957D01*
X179895Y227369D01*
X178595D01*
X178558Y227332D01*
X177038D01*
X175416Y228954D01*
G01X218146Y220851D02*
X216599Y219305D01*
Y217120D01*
X215635Y216156D01*
X214828D01*
X214769Y216097D01*
X211207D01*
X209996Y214887D01*
X208828D01*
X208433Y215281D01*
Y216684D01*
X208039Y217079D01*
X207477D01*
X207083Y216684D01*
Y215281D01*
X206688Y214887D01*
X206127D01*
X205732Y215281D01*
Y216684D01*
X205338Y217079D01*
X204776D01*
X204382Y216684D01*
Y215281D01*
X203987Y214887D01*
X203426D01*
X203031Y215281D01*
Y216684D01*
X202637Y217079D01*
X202075D01*
X201681Y216684D01*
Y215281D01*
X201286Y214887D01*
X200725D01*
X200330Y215281D01*
Y216684D01*
X199935Y217079D01*
X199374D01*
X198979Y216684D01*
Y215281D01*
X198585Y214887D01*
X198023D01*
X197629Y215281D01*
Y216684D01*
X197234Y217079D01*
X196673D01*
X196278Y216684D01*
Y215281D01*
X195884Y214887D01*
X195322D01*
X194928Y215281D01*
Y216684D01*
X194533Y217079D01*
X193972D01*
X193577Y216684D01*
Y215281D01*
X193183Y214887D01*
X192621D01*
X192227Y215281D01*
Y216684D01*
X191832Y217079D01*
X191271D01*
X190876Y216684D01*
Y215281D01*
X190481Y214887D01*
X189920D01*
X189525Y215281D01*
Y216684D01*
X189131Y217079D01*
X188569D01*
X188175Y216684D01*
Y215281D01*
X187780Y214887D01*
X186260D01*
X183856Y217291D01*
Y229595D01*
X182937Y230514D01*
X177906D01*
X177482Y230938D01*
X175158D01*
X173603Y229383D01*
Y227618D01*
X175416Y225805D01*
G01X211845Y233452D02*
X208893Y230500D01*
X201500D01*
X200531Y229531D01*
X199617D01*
X198897Y230251D01*
Y230809D01*
X200036Y231948D01*
Y232507D01*
X199640Y232903D01*
X199081D01*
X197943Y231764D01*
X197384D01*
X196988Y232160D01*
Y232719D01*
X198127Y233857D01*
Y234416D01*
X197731Y234812D01*
X197172D01*
X196034Y233673D01*
X195475D01*
X195079Y234069D01*
Y234628D01*
X196218Y235766D01*
Y236325D01*
X195822Y236721D01*
X195263D01*
X194124Y235582D01*
X193566D01*
X193170Y235978D01*
Y236537D01*
X194308Y237675D01*
Y238234D01*
X193912Y238630D01*
X193354D01*
X192215Y237492D01*
X191657D01*
X191261Y237888D01*
Y238446D01*
X192399Y239585D01*
Y240143D01*
X192003Y240539D01*
X191445D01*
X190306Y239401D01*
X189747D01*
X189352Y239797D01*
Y240355D01*
X190490Y241494D01*
Y242052D01*
X190094Y242448D01*
X189535D01*
X187407Y240320D01*
X186848D01*
X186452Y240716D01*
Y241275D01*
X188581Y243403D01*
Y243962D01*
X188185Y244358D01*
X187626D01*
X183682Y240413D01*
X171870D01*
X165966Y234509D01*
Y232070D01*
G01X206506Y253000D02*
Y252994D01*
X212288Y247212D01*
X212946D01*
X219750Y240408D01*
Y235844D01*
X220597Y234997D01*
X221935D01*
X222888Y234044D01*
Y232765D01*
X223806Y231848D01*
X225084D01*
X225991Y230941D01*
Y229663D01*
X226956Y228697D01*
X234597D01*
X235441Y229542D01*
Y230882D01*
X236465Y231906D01*
X237806D01*
X238650Y232750D01*
Y234091D01*
X240196Y235637D01*
Y236601D01*
G01X224446Y233452D02*
Y234416D01*
X222900Y235962D01*
Y238139D01*
X222747Y238292D01*
Y242464D01*
X219848Y245363D01*
X217726D01*
X212143Y250946D01*
Y251707D01*
X211050Y252801D01*
G01X227595Y233452D02*
X226050Y234998D01*
Y237241D01*
X226141Y237332D01*
Y242181D01*
X219282Y249040D01*
Y252434D01*
G01X222727Y252400D02*
Y248282D01*
X225344Y245665D01*
Y245319D01*
X226308Y244354D01*
X226655D01*
X227595Y243414D01*
Y236601D01*
G01X422500Y240790D02*
X416210Y234500D01*
X388500D01*
X387455Y233455D01*
X376955D01*
X363500Y220000D01*
Y200000D01*
X357000Y193500D01*
Y168500D01*
X350000Y161500D01*
X291500D01*
X288500Y164500D01*
X276500D01*
X272092Y168908D01*
X271056D01*
X267002Y172962D01*
Y174179D01*
X266035Y175146D01*
X264818D01*
X261607Y178357D01*
X249006D01*
X245863Y181500D01*
X236000D01*
X235440Y180940D01*
Y175144D01*
X233898Y173602D01*
X233895D01*
G01X420500Y242500D02*
X415000Y237000D01*
X378500D01*
X362000Y220500D01*
Y200500D01*
X355500Y194000D01*
Y169000D01*
X349500Y163000D01*
X292500D01*
X289500Y166000D01*
X277500D01*
X274592Y168908D01*
X274206D01*
X273302Y169812D01*
Y171030D01*
X272336Y171996D01*
X271118D01*
X270152Y172962D01*
Y174180D01*
X269186Y175146D01*
X267967D01*
X267001Y176112D01*
Y177331D01*
X266036Y178296D01*
X264817D01*
X263852Y179261D01*
Y180480D01*
X262886Y181446D01*
X249554D01*
X249492Y181508D01*
X249006D01*
X245856Y184658D01*
X236405D01*
X236063Y185000D01*
X233500D01*
X232290Y183790D01*
Y172210D01*
X233896Y170604D01*
Y170452D01*
G01X227595Y179901D02*
Y180866D01*
X229202Y182473D01*
Y186842D01*
X230106Y187746D01*
X245918D01*
X249006Y184658D01*
X262823D01*
X266940Y180541D01*
Y179261D01*
X267905Y178296D01*
X269185D01*
X270089Y177392D01*
Y176113D01*
X271056Y175146D01*
X272336D01*
X273240Y174242D01*
Y172962D01*
X274206Y171996D01*
X275486D01*
X276390Y171092D01*
Y169610D01*
X277500Y168500D01*
X351500D01*
X354000Y171000D01*
Y194500D01*
X360500Y201000D01*
Y221500D01*
X378000Y239000D01*
X393000D01*
X398000Y244000D01*
Y246000D01*
X400500Y248500D01*
X404877D01*
X404946Y248569D01*
G01X230746Y233451D02*
X229141Y235056D01*
Y237241D01*
X229111Y237271D01*
Y246282D01*
X228474Y246919D01*
Y251500D01*
G01X237046Y233451D02*
X237650Y234055D01*
Y234750D01*
X238650Y235750D01*
Y237241D01*
X238727Y237318D01*
Y241615D01*
X244210Y247098D01*
Y252788D01*
G01X233896Y233452D02*
X235441Y234998D01*
Y237241D01*
X235404Y237278D01*
Y240838D01*
X241202Y246636D01*
Y252434D01*
G01X259000Y253000D02*
X256171Y250171D01*
X253647D01*
X241768Y238292D01*
Y235024D01*
X240196Y233452D01*
G01X238374Y252434D02*
X239545Y251263D01*
Y248045D01*
X232293Y240793D01*
Y231849D01*
X230746Y230302D01*
G01X262245Y186202D02*
X260701Y187746D01*
X249066D01*
X248101Y188712D01*
X247500Y189313D01*
Y225000D01*
X251257Y228757D01*
X266036D01*
X266940Y229661D01*
Y230940D01*
X267907Y231907D01*
X269186D01*
X270090Y232811D01*
Y246090D01*
X273000Y249000D01*
X276000D01*
G01X267000Y251500D02*
Y251000D01*
X260020Y244020D01*
X254820D01*
X251300Y240500D01*
Y238705D01*
X250249Y237654D01*
Y237205D01*
X249646Y236601D01*
G01X263500Y253120D02*
Y250000D01*
X261833Y248333D01*
X254920D01*
X248884Y242296D01*
X248592D01*
X247100Y240804D01*
Y240513D01*
X245233Y238646D01*
Y235339D01*
X243345Y233452D01*
G01X265396Y208252D02*
X267205Y206443D01*
X268996D01*
X271300Y204139D01*
X275780D01*
X277194Y202725D01*
X323716D01*
X336172Y215181D01*
X336409D01*
X336410Y215182D01*
X337582D01*
X338298Y215898D01*
Y217329D01*
X339301Y218333D01*
X340543D01*
X340800Y218589D01*
X341508Y219296D01*
Y224571D01*
X339904Y226176D01*
G01X268545Y211402D02*
X270150Y209797D01*
Y207612D01*
X271175Y206587D01*
X277238D01*
X277357Y206706D01*
X281794D01*
X283776Y204724D01*
X285131D01*
X285580Y205174D01*
Y205284D01*
X285599Y205303D01*
Y206797D01*
X283547Y208849D01*
Y209485D01*
X284348Y210286D01*
X285058D01*
X291270Y204075D01*
X323157D01*
X334045Y214963D01*
Y217150D01*
X335228Y218332D01*
X337232D01*
X337234Y218334D01*
X337394D01*
X338937Y219877D01*
X339904D01*
G01X265396Y211402D02*
X267000Y213006D01*
X269185D01*
X270092Y213912D01*
Y215133D01*
X271090Y216131D01*
X283820D01*
X292444Y207507D01*
X310782D01*
X312159Y208884D01*
X322244D01*
X327964Y214604D01*
Y216445D01*
X328042Y216523D01*
Y226759D01*
X327964Y226837D01*
Y228322D01*
X324811Y231475D01*
X323114D01*
X322176Y230537D01*
Y230498D01*
X321083Y229405D01*
G01X274846Y195651D02*
X276390Y197196D01*
Y200000D01*
X277029Y200639D01*
X311874D01*
X313109Y199405D01*
X322960D01*
X325607Y202051D01*
X326243D01*
X328072Y200223D01*
X328708D01*
X329345Y200859D01*
Y201496D01*
X327516Y203324D01*
Y203961D01*
X328318Y204763D01*
X328955D01*
X329663Y204055D01*
X330300D01*
X330936Y204691D01*
Y205327D01*
X330228Y206036D01*
Y206672D01*
X330864Y207309D01*
X331500D01*
X332209Y206600D01*
X332845D01*
X333482Y207237D01*
Y207873D01*
X332773Y208582D01*
Y209218D01*
X335580Y212024D01*
X337497D01*
X337517Y212005D01*
X343005D01*
X345000Y214000D01*
Y215725D01*
X344000Y216725D01*
X339906D01*
X339904Y216727D01*
G01X274846Y220851D02*
Y221819D01*
X273300Y223364D01*
Y230976D01*
X274206Y231881D01*
X281760D01*
X282692Y232813D01*
Y235295D01*
X284904Y237507D01*
X287453D01*
X287902Y237057D01*
Y236267D01*
X288352Y235817D01*
X289253D01*
X289703Y236267D01*
Y237057D01*
X290152Y237507D01*
X291053D01*
X291503Y237057D01*
Y236267D01*
X291953Y235817D01*
X292854D01*
X293303Y236267D01*
Y237057D01*
X293753Y237507D01*
X294654D01*
X295104Y237057D01*
Y236267D01*
X295553Y235817D01*
X296454D01*
X296904Y236267D01*
Y237057D01*
X297354Y237507D01*
X298254D01*
X298704Y237057D01*
Y236267D01*
X299154Y235817D01*
X300055D01*
X300504Y236267D01*
Y237057D01*
X300954Y237507D01*
X301855D01*
X302305Y237057D01*
Y236267D01*
X302754Y235817D01*
X303655D01*
X304105Y236267D01*
Y237057D01*
X304555Y237507D01*
X305456D01*
X305905Y237057D01*
Y236267D01*
X306355Y235817D01*
X307256D01*
X307706Y236267D01*
Y237057D01*
X308155Y237507D01*
X309056D01*
X309506Y237057D01*
Y236267D01*
X309956Y235817D01*
X310856D01*
X311306Y236267D01*
Y237057D01*
X311756Y237507D01*
X312657D01*
X313107Y237057D01*
Y236267D01*
X313556Y235817D01*
X314457D01*
X314907Y236267D01*
Y237057D01*
X315357Y237507D01*
X316257D01*
X316707Y237057D01*
Y236267D01*
X317157Y235817D01*
X318058D01*
X318507Y236267D01*
Y237057D01*
X318957Y237507D01*
X319833D01*
X320822Y236517D01*
Y234474D01*
X317810Y231461D01*
Y229302D01*
G01X339904Y223026D02*
X338357Y221480D01*
X336114D01*
X331376Y226218D01*
X330669D01*
X329873Y225423D01*
Y224716D01*
X334434Y220155D01*
Y219448D01*
X333515Y218528D01*
X332808D01*
X331712Y219624D01*
X331005D01*
X329873Y218493D01*
Y217786D01*
X331500Y216160D01*
Y215453D01*
X321671Y205624D01*
X292050D01*
X284693Y212981D01*
X279566D01*
X277996Y214552D01*
G01X274846Y227152D02*
Y226187D01*
X276450Y224583D01*
Y223362D01*
X277359Y222453D01*
X285548D01*
X285997Y222003D01*
Y220640D01*
X286447Y220190D01*
X287348D01*
X287798Y220640D01*
Y222003D01*
X288247Y222453D01*
X289148D01*
X289598Y222003D01*
Y220640D01*
X290048Y220190D01*
X290949D01*
X291398Y220640D01*
Y222003D01*
X291848Y222453D01*
X292749D01*
X293199Y222003D01*
Y218398D01*
X293528Y218069D01*
X294377D01*
X295013Y218705D01*
Y220626D01*
X294999Y220640D01*
Y222003D01*
X295449Y222453D01*
X296349D01*
X296799Y222003D01*
Y219606D01*
X297488Y218917D01*
X298054D01*
X299963Y220827D01*
X300811D01*
X301377Y220261D01*
Y219503D01*
X298291Y216417D01*
X298301Y216407D01*
Y215771D01*
X299464Y214608D01*
X300101D01*
X301409Y215916D01*
X302045D01*
X302682Y215279D01*
Y214643D01*
X301656Y213618D01*
Y212769D01*
X302862Y211563D01*
X303331D01*
X303933Y212165D01*
X304570D01*
X305890Y210844D01*
X306527D01*
X307163Y211481D01*
Y212117D01*
X305842Y213438D01*
Y214074D01*
X306479Y214711D01*
X307115D01*
X308436Y213390D01*
X309072D01*
X309709Y214026D01*
Y214663D01*
X308388Y215984D01*
Y216620D01*
X310132Y218364D01*
X310769D01*
X312647Y216486D01*
Y214672D01*
X311554Y213579D01*
G01X274846Y217702D02*
X276415Y219271D01*
X283558D01*
X286884Y215945D01*
X287521D01*
X289430Y217854D01*
X290066D01*
X290703Y217217D01*
Y216581D01*
X288793Y214672D01*
Y214036D01*
X289430Y213399D01*
X290066D01*
X291975Y215308D01*
X292612D01*
X293248Y214672D01*
Y214036D01*
X291339Y212126D01*
Y211490D01*
X293971Y208857D01*
X297549D01*
X297999Y209307D01*
X298000Y211395D01*
X298450Y211845D01*
X299350D01*
X299800Y211395D01*
X299799Y209307D01*
X300249Y208857D01*
X307793D01*
X310968Y212033D01*
X322989D01*
X326614Y215658D01*
Y226940D01*
X324283Y229271D01*
G01X321004Y216729D02*
X322167D01*
Y216725D01*
X322873Y216018D01*
Y215382D01*
X322449Y214958D01*
X321808D01*
X321643Y215123D01*
X320001D01*
X319999Y215124D01*
X317273D01*
X316249Y216148D01*
Y218400D01*
X315526Y219122D01*
X312203D01*
X310350Y220975D01*
Y225571D01*
X309727Y226195D01*
X308802D01*
X307953Y225346D01*
Y219624D01*
X307387Y219059D01*
X306822D01*
X306185Y219695D01*
Y225771D01*
X305761Y226195D01*
X304866D01*
X304231Y225560D01*
Y224315D01*
X303782Y223866D01*
X302881D01*
X302431Y224316D01*
X302430Y225559D01*
X301930Y226059D01*
X301130D01*
X300630Y225560D01*
Y224315D01*
X300181Y223866D01*
X299280D01*
X298831Y224316D01*
X298830Y225489D01*
X298331Y225988D01*
X297529D01*
X297030Y225489D01*
Y224315D01*
X296581Y223866D01*
X295680D01*
X295230Y224316D01*
X295229Y225185D01*
X294780Y225635D01*
X293879D01*
X293429Y225185D01*
Y224315D01*
X292980Y223866D01*
X292079D01*
X291630Y224316D01*
X291629Y225185D01*
X291179Y225635D01*
X290278D01*
X289829Y225185D01*
Y224315D01*
X289380Y223866D01*
X288479D01*
X288029Y224316D01*
X288028Y225185D01*
X287579Y225635D01*
X286678D01*
X286228Y225185D01*
Y224315D01*
X285779Y223866D01*
X284878D01*
X284428Y224316D01*
Y225185D01*
X283978Y225635D01*
X282692D01*
X282639Y225581D01*
X280496D01*
X280479Y225564D01*
X277378D01*
X276391Y226551D01*
Y228697D01*
X277996Y230302D01*
G01X281146Y233452D02*
X279566Y235032D01*
X277346D01*
X276425Y235952D01*
Y242827D01*
X277335Y243737D01*
X278540D01*
X278990Y243287D01*
Y242277D01*
X279440Y241828D01*
X280341D01*
X280790Y242277D01*
Y243287D01*
X281240Y243737D01*
X326065D01*
X326737Y243064D01*
X333106D01*
X334406Y241764D01*
Y228524D01*
X336754Y226177D01*
G01X321004Y223025D02*
X322590Y224611D01*
Y224786D01*
X323121Y225317D01*
X323757D01*
X324712Y224362D01*
Y222099D01*
X323297Y220685D01*
X320144D01*
X319404Y221425D01*
X317215D01*
X316263Y220473D01*
X312761D01*
X311701Y221534D01*
Y228619D01*
X310449Y229870D01*
X309561D01*
X309111Y229421D01*
Y227995D01*
X308662Y227545D01*
X307761D01*
X307311Y227995D01*
Y229421D01*
X306861Y229870D01*
X305960D01*
X305511Y229421D01*
Y227995D01*
X305061Y227545D01*
X304160D01*
X303710Y227995D01*
Y229421D01*
X303261Y229870D01*
X302360D01*
X301910Y229421D01*
Y227995D01*
X301460Y227545D01*
X300560D01*
X300110Y227995D01*
Y229421D01*
X299660Y229870D01*
X298759D01*
X298310Y229421D01*
Y227995D01*
X297860Y227545D01*
X296959D01*
X296509Y227995D01*
Y229421D01*
X296060Y229870D01*
X295159D01*
X294709Y229421D01*
Y227995D01*
X294259Y227545D01*
X293358D01*
X292909Y227995D01*
Y229421D01*
X292459Y229870D01*
X292446D01*
X292009Y230308D01*
X291303D01*
X290609Y229614D01*
X290629Y229595D01*
Y228180D01*
X289780Y227332D01*
X288038D01*
X287588Y227782D01*
Y231097D01*
X287604Y231112D01*
Y232666D01*
X287154Y233116D01*
X286231D01*
X285405Y232290D01*
X285404Y230805D01*
Y230294D01*
X285821Y229878D01*
Y229170D01*
X284274Y227623D01*
X283566D01*
X282945Y228245D01*
X282239D01*
X281146Y227152D01*
G01X339904Y229325D02*
X338612Y230617D01*
Y231546D01*
X338333Y231825D01*
Y242081D01*
X336000Y244414D01*
X327296D01*
X326559Y245151D01*
X274861D01*
X273275Y243566D01*
Y235022D01*
X274846Y233452D01*
G01X281146Y236601D02*
X281400Y236855D01*
X282343D01*
X284346Y238858D01*
X321780D01*
X322230Y238408D01*
Y235277D01*
X322679Y234827D01*
X323580D01*
X324030Y235277D01*
Y238408D01*
X324480Y238858D01*
X325380D01*
X325830Y238408D01*
Y235114D01*
X326329Y234615D01*
X327960D01*
X328459Y235114D01*
Y237579D01*
X327823Y238216D01*
Y239636D01*
X328295Y240108D01*
X330037D01*
X331139Y239006D01*
Y234042D01*
X330156Y233060D01*
X321787D01*
X319396Y230668D01*
Y227783D01*
X321003Y226175D01*
G01X281145Y230302D02*
X282992D01*
X284054Y231363D01*
Y234093D01*
X284503Y234542D01*
X285043D01*
Y234467D01*
X288505D01*
X288955Y234017D01*
Y231671D01*
X289404Y231221D01*
X290305D01*
X290755Y231671D01*
Y234017D01*
X291205Y234467D01*
X292105D01*
X292555Y234017D01*
Y231671D01*
X293005Y231221D01*
X293906D01*
X294355Y231671D01*
Y234017D01*
X294805Y234467D01*
X295706D01*
X296156Y234017D01*
Y231671D01*
X296605Y231221D01*
X297506D01*
X297956Y231671D01*
Y234017D01*
X298406Y234467D01*
X299307D01*
X299756Y234017D01*
Y231671D01*
X300206Y231221D01*
X301107D01*
X301557Y231671D01*
Y234017D01*
X302006Y234467D01*
X302907D01*
X303357Y234017D01*
Y231671D01*
X303807Y231221D01*
X304707D01*
X305157Y231671D01*
Y234017D01*
X305607Y234467D01*
X306508D01*
X306958Y234017D01*
Y231671D01*
X307407Y231221D01*
X308308D01*
X308758Y231671D01*
Y234017D01*
X309208Y234467D01*
X310108D01*
X310558Y234017D01*
Y231671D01*
X311008Y231221D01*
X311909D01*
X312358Y231671D01*
Y234017D01*
X312808Y234467D01*
X314898D01*
X316047Y233318D01*
Y228709D01*
X315448Y228110D01*
X315229D01*
X315122Y228003D01*
X314343D01*
X313158Y226818D01*
Y225450D01*
X314388Y224221D01*
X315166D01*
X317123Y226178D01*
X317854D01*
G01X277996Y236602D02*
X279566Y238172D01*
X280680D01*
X280714Y238206D01*
X281785D01*
X282691Y239112D01*
Y240183D01*
X284194Y241686D01*
X285662D01*
X286112Y241236D01*
Y240863D01*
X286562Y240413D01*
X287463D01*
X287912Y240863D01*
Y241236D01*
X288362Y241686D01*
X289263D01*
X289713Y241236D01*
Y240863D01*
X290162Y240413D01*
X291063D01*
X291513Y240863D01*
Y241236D01*
X291963Y241686D01*
X292863D01*
X293313Y241236D01*
Y240863D01*
X293763Y240413D01*
X294664D01*
X295113Y240863D01*
Y241236D01*
X295563Y241686D01*
X296464D01*
X296914Y241236D01*
Y240863D01*
X297363Y240413D01*
X298264D01*
X298714Y240863D01*
Y241236D01*
X299164Y241686D01*
X300065D01*
X300514Y241236D01*
Y240863D01*
X300964Y240413D01*
X301865D01*
X302315Y240863D01*
Y241236D01*
X302764Y241686D01*
X303665D01*
X304115Y241236D01*
Y240863D01*
X304565Y240413D01*
X305466D01*
X305915Y240863D01*
Y241236D01*
X306365Y241686D01*
X307266D01*
X307716Y241236D01*
Y240863D01*
X308165Y240413D01*
X309066D01*
X309516Y240863D01*
Y241236D01*
X309966Y241686D01*
X310866D01*
X311316Y241236D01*
Y240863D01*
X311766Y240413D01*
X312667D01*
X313116Y240863D01*
Y241236D01*
X313566Y241686D01*
X314467D01*
X314917Y241236D01*
Y240863D01*
X315366Y240413D01*
X316267D01*
X316717Y240863D01*
Y241236D01*
X317167Y241686D01*
X318068D01*
X318517Y241236D01*
Y240863D01*
X318967Y240413D01*
X319868D01*
X320318Y240863D01*
Y241236D01*
X320767Y241686D01*
X321668D01*
X322118Y241236D01*
Y240863D01*
X322568Y240413D01*
X323468D01*
X323918Y240863D01*
Y241236D01*
X324368Y241686D01*
X330439D01*
X332490Y239636D01*
Y227290D01*
X336754Y223026D01*
G01X306000Y49000D02*
X305400Y48400D01*
X304800D01*
X304200Y49000D01*
Y50800D01*
X304900Y51500D01*
X308500D01*
X312000Y55000D01*
X321000D01*
X324050Y58050D01*
X333050D01*
X334500Y59500D01*
Y60656D01*
X335344Y61500D01*
X336656D01*
X337550Y60606D01*
Y59606D01*
X339106Y58050D01*
X366150D01*
X370000Y61900D01*
Y65156D01*
X380450Y75606D01*
Y78606D01*
X380894Y79050D01*
X383606D01*
X384050Y78606D01*
Y76106D01*
X385106Y75050D01*
X387394D01*
X391394Y79050D01*
X461606D01*
X463606Y77050D01*
X488050D01*
X494050Y83050D01*
X510394D01*
X518450Y91106D01*
Y94606D01*
X528450Y104606D01*
Y109606D01*
X531950Y113106D01*
Y152394D01*
X527394Y156950D01*
X519894D01*
X518950Y157894D01*
Y164606D01*
X521950Y167606D01*
Y188394D01*
X519150Y191194D01*
Y194806D01*
X519944Y195600D01*
X520600D01*
X521500Y194700D01*
G01X486000Y135000D02*
X491500Y129500D01*
Y87500D01*
X484500Y80500D01*
X466000D01*
X464000Y82500D01*
X378500D01*
X365000Y69000D01*
X294500D01*
X292000Y66500D01*
Y63000D01*
X293000Y62000D01*
G01X302500Y49000D02*
X303250Y49750D01*
Y51194D01*
X304506Y52450D01*
X308106D01*
X311606Y55950D01*
X320606D01*
X323656Y59000D01*
X332656D01*
X333550Y59894D01*
Y61050D01*
X334950Y62450D01*
X337050D01*
X338500Y61000D01*
Y60000D01*
X339500Y59000D01*
X365756D01*
X369050Y62294D01*
Y65550D01*
X379500Y76000D01*
Y79000D01*
X380500Y80000D01*
X384000D01*
X385000Y79000D01*
Y76500D01*
X385500Y76000D01*
X387000D01*
X391000Y80000D01*
X462000D01*
X464000Y78000D01*
X487656D01*
X493656Y84000D01*
X510000D01*
X517500Y91500D01*
Y95000D01*
X527500Y105000D01*
Y110000D01*
X531000Y113500D01*
Y152000D01*
X527000Y156000D01*
X519500D01*
X518000Y157500D01*
Y165000D01*
X521000Y168000D01*
Y188000D01*
X518200Y190800D01*
Y195200D01*
X519550Y196550D01*
X520850D01*
X521500Y197200D01*
G01X461116Y220571D02*
X461850Y221305D01*
Y223650D01*
X459000Y226500D01*
X453500D01*
X450950Y229050D01*
X435950D01*
X434500Y230500D01*
Y232394D01*
X436056Y233950D01*
X439106D01*
X440000Y234844D01*
Y238156D01*
X430656Y247500D01*
X415656D01*
X412606Y250550D01*
X391894D01*
X388028Y246684D01*
Y246528D01*
X386000Y244500D01*
X372500D01*
X370578Y246422D01*
Y249078D01*
X364156Y255500D01*
X343156D01*
X337156Y261500D01*
X308500D01*
X304000Y266000D01*
Y270500D01*
X308025Y274525D01*
Y276975D01*
X307000Y278000D01*
G01X518000Y206500D02*
X517200Y205700D01*
X515806D01*
X514550Y204444D01*
Y201950D01*
X516500Y200000D01*
X523500D01*
X526500Y197000D01*
Y165000D01*
X535050Y156450D01*
Y111050D01*
X531550Y107550D01*
Y100050D01*
X511950Y80450D01*
X495950D01*
X490000Y74500D01*
X462000D01*
X460000Y76500D01*
X393000D01*
X386500Y70000D01*
Y68000D01*
X385950Y67450D01*
X384500D01*
X384000Y67950D01*
Y70895D01*
X382894Y72001D01*
X380501D01*
X379500Y71000D01*
Y61344D01*
X379106Y60950D01*
X377394D01*
X376950Y61394D01*
Y63394D01*
X375844Y64500D01*
X373856D01*
X372550Y63194D01*
Y56394D01*
X371606Y55450D01*
X325950D01*
X323000Y52500D01*
X317500D01*
X315900Y50900D01*
Y49600D01*
X315300Y49000D01*
X314580D01*
G01X518000Y203500D02*
Y204300D01*
X517550Y204750D01*
X516200D01*
X515500Y204050D01*
Y202344D01*
X516894Y200950D01*
X523894D01*
X527450Y197394D01*
Y165394D01*
X536000Y156844D01*
Y110656D01*
X532500Y107156D01*
Y99656D01*
X512344Y79500D01*
X496344D01*
X490394Y73550D01*
X461606D01*
X459606Y75550D01*
X393394D01*
X387450Y69606D01*
Y67606D01*
X386344Y66500D01*
X384106D01*
X383050Y67556D01*
Y70501D01*
X382500Y71051D01*
X380895D01*
X380450Y70606D01*
Y60950D01*
X379500Y60000D01*
X377000D01*
X376000Y61000D01*
Y63000D01*
X375450Y63550D01*
X374250D01*
X373500Y62800D01*
Y56000D01*
X372000Y54500D01*
X326344D01*
X323394Y51550D01*
X317894D01*
X316850Y50506D01*
Y49550D01*
X317400Y49000D01*
X318000D01*
G01X320000Y84350D02*
Y96000D01*
X331500Y107500D01*
Y119000D01*
X372000Y159500D01*
Y182000D01*
X377500Y187500D01*
X399000D01*
X404900Y193400D01*
Y201700D01*
G01X464500Y220500D02*
Y219900D01*
X464000Y219400D01*
X463300D01*
X462800Y219900D01*
Y224044D01*
X459394Y227450D01*
X453894D01*
X451344Y230000D01*
X436344D01*
X435450Y230894D01*
Y232000D01*
X436450Y233000D01*
X439500D01*
X440950Y234450D01*
Y238550D01*
X431050Y248450D01*
X416050D01*
X413000Y251500D01*
X391500D01*
X387078Y247078D01*
Y246922D01*
X385606Y245450D01*
X372894D01*
X371528Y246816D01*
Y249472D01*
X364550Y256450D01*
X343550D01*
X337550Y262450D01*
X308894D01*
X304950Y266394D01*
Y270106D01*
X308975Y274131D01*
Y276975D01*
X310000Y278000D01*
G01X317000D02*
X316200Y277200D01*
Y274630D01*
X318830Y272000D01*
X335500D01*
X346050Y261450D01*
X398550D01*
X404000Y256000D01*
X415000D01*
X417000Y254000D01*
X424000D01*
X426000Y256000D01*
X431344D01*
X455394Y231950D01*
X466394D01*
X470950Y227394D01*
Y218606D01*
X467394Y215050D01*
X460894D01*
X455950Y210106D01*
Y207394D01*
X456894Y206450D01*
X458950D01*
X459500Y207000D01*
Y207500D01*
X459000Y208000D01*
G01X314500Y278000D02*
X315250Y277250D01*
Y274236D01*
X318436Y271050D01*
X335106D01*
X345656Y260500D01*
X398156D01*
X403606Y255050D01*
X414606D01*
X416606Y253050D01*
X424394D01*
X426394Y255050D01*
X430950D01*
X455000Y231000D01*
X466000D01*
X470000Y227000D01*
Y219000D01*
X467000Y216000D01*
X460500D01*
X455000Y210500D01*
Y207000D01*
X456500Y205500D01*
X458000D01*
X459000Y204500D01*
G01X511000Y209000D02*
X510100Y209900D01*
X509350D01*
X508500Y209050D01*
Y207844D01*
X509394Y206950D01*
X511606D01*
X515656Y211000D01*
X521344D01*
X531450Y200894D01*
Y167394D01*
X540450Y158394D01*
Y115394D01*
X542000Y113844D01*
Y100000D01*
X517550Y75550D01*
X499394D01*
X493894Y70050D01*
X459106D01*
X457606Y71550D01*
X396894D01*
X376344Y51000D01*
X328844D01*
X327900Y50056D01*
Y49300D01*
X328500Y48700D01*
X329385D01*
X329685Y49000D01*
G01X511000Y211500D02*
X510350Y210850D01*
X508956D01*
X507550Y209444D01*
Y207450D01*
X509000Y206000D01*
X512000D01*
X516050Y210050D01*
X520950D01*
X530500Y200500D01*
Y167000D01*
X539500Y158000D01*
Y115000D01*
X541050Y113450D01*
Y100394D01*
X517156Y76500D01*
X499000D01*
X493500Y71000D01*
X459500D01*
X458000Y72500D01*
X396500D01*
X375950Y51950D01*
X328450D01*
X326950Y50450D01*
Y49685D01*
X326265Y49000D01*
G01X324500Y278000D02*
X323350Y276850D01*
Y276050D01*
X323950Y275450D01*
X338394D01*
X348394Y265450D01*
X400050D01*
X405500Y260000D01*
X433000D01*
X435000Y262000D01*
X451656D01*
X452050Y262394D01*
Y264106D01*
X451606Y264550D01*
X435606D01*
X434550Y265606D01*
Y267894D01*
X435606Y268950D01*
X453550D01*
X456500Y266000D01*
Y244500D01*
X461650Y239350D01*
Y238050D01*
X462700Y237000D01*
X463000D01*
G01X322000Y278000D02*
X322400Y277600D01*
Y275656D01*
X323556Y274500D01*
X338000D01*
X348000Y264500D01*
X399656D01*
X405106Y259050D01*
X433394D01*
X435394Y261050D01*
X452050D01*
X453000Y262000D01*
Y264500D01*
X452000Y265500D01*
X436000D01*
X435500Y266000D01*
Y267500D01*
X436000Y268000D01*
X453156D01*
X455550Y265606D01*
Y244106D01*
X460700Y238956D01*
Y237700D01*
X460000Y237000D01*
G01X349506Y215006D02*
X347500Y213000D01*
Y212500D01*
X343884Y208884D01*
X342414D01*
X342413Y208885D01*
X338115D01*
X336754Y210246D01*
Y210428D01*
G01X470500Y151000D02*
X467500Y148000D01*
X450225D01*
X448723Y146498D01*
Y141792D01*
X448000Y141069D01*
Y141067D01*
X443434Y136501D01*
X439501D01*
X439500Y136500D01*
G01X450500Y139500D02*
X451000D01*
X453000Y141500D01*
X482000D01*
X486000Y145500D01*
X493878D01*
X507878Y131500D01*
X513000D01*
X524500Y143000D01*
Y146378D01*
X526061Y147939D01*
X527061D01*
X528000Y147000D01*
G01Y150000D02*
X527500Y149500D01*
X525500D01*
X523000Y147000D01*
Y143500D01*
X512500Y133000D01*
X508500D01*
X494500Y147000D01*
X485500D01*
X481500Y143000D01*
X452000D01*
X450500Y144500D01*
G01X577500Y140000D02*
X576800Y139300D01*
Y136300D01*
X571550Y131050D01*
X557450D01*
X550500Y138000D01*
Y153500D01*
X538000Y166000D01*
Y172156D01*
X534050Y176106D01*
Y202950D01*
X521000Y216000D01*
X506156D01*
X502156Y220000D01*
X487500D01*
X485275Y222225D01*
Y225225D01*
X484500Y226000D01*
G01X574000Y140000D02*
Y140400D01*
X574600Y141000D01*
X575300D01*
X575850Y140450D01*
Y136694D01*
X571156Y132000D01*
X557844D01*
X551450Y138394D01*
Y153894D01*
X538950Y166394D01*
Y172550D01*
X535000Y176500D01*
Y203344D01*
X521394Y216950D01*
X506550D01*
X502550Y220950D01*
X487894D01*
X486225Y222619D01*
Y225225D01*
X487000Y226000D01*
G01X569500Y140000D02*
X568800Y139300D01*
Y137300D01*
X566500Y135000D01*
X559000D01*
X554500Y139500D01*
Y143500D01*
X556000Y145000D01*
X562000D01*
X562500Y145500D01*
Y147500D01*
X562000Y148000D01*
X556500D01*
X554500Y150000D01*
Y155500D01*
X542000Y168000D01*
Y209000D01*
X538500Y212500D01*
X532000D01*
X520500Y224000D01*
X513000D01*
X507000Y230000D01*
X492500D01*
X491275Y231225D01*
Y232225D01*
X490500Y233000D01*
G01X566000Y140000D02*
Y140400D01*
X566600Y141000D01*
X567400D01*
X567850Y140550D01*
Y137694D01*
X566106Y135950D01*
X559394D01*
X555450Y139894D01*
Y143106D01*
X556394Y144050D01*
X562394D01*
X563450Y145106D01*
Y147894D01*
X562394Y148950D01*
X556894D01*
X555450Y150394D01*
Y155894D01*
X542950Y168394D01*
Y209394D01*
X538894Y213450D01*
X532394D01*
X520894Y224950D01*
X513394D01*
X507394Y230950D01*
X492894D01*
X492225Y231619D01*
Y232225D01*
X493000Y233000D01*
G01X581500Y140000D02*
Y139800D01*
X582100Y139200D01*
X582900D01*
X583450Y139750D01*
Y142950D01*
X586500Y146000D01*
X596000D01*
X596500Y146500D01*
Y148550D01*
X596000Y149050D01*
X588606D01*
X583656Y154000D01*
X562500D01*
X546000Y170500D01*
Y220656D01*
X542606Y224050D01*
X536394D01*
X535450Y223106D01*
Y221419D01*
X535894Y220975D01*
X536975D01*
X538000Y222000D01*
G01X585000Y140000D02*
X584400Y140600D01*
Y142556D01*
X586894Y145050D01*
X596394D01*
X597450Y146106D01*
Y148944D01*
X596394Y150000D01*
X589000D01*
X584050Y154950D01*
X562894D01*
X546950Y170894D01*
Y221050D01*
X543000Y225000D01*
X536000D01*
X534500Y223500D01*
Y221025D01*
X535500Y220025D01*
X536975D01*
X538000Y219000D01*
G54D15*
X44089Y57768D03*
X42084Y55774D03*
X40089Y57779D03*
X42094Y59774D03*
X98169Y229000D03*
X113500Y236000D03*
Y232500D03*
X107500Y244000D03*
X104000D03*
X99500D03*
X137859Y145481D03*
X139859Y148481D03*
X137859Y151481D03*
X135859Y148481D03*
X159352Y102200D03*
X157352Y100200D03*
X159352Y98200D03*
X161352Y100200D03*
X238001Y98201D03*
X240000Y100199D03*
X236000Y100200D03*
X238000Y102200D03*
X318700Y100200D03*
X316700Y98200D03*
X314700Y100200D03*
X316700Y102200D03*
X398690Y213670D03*
X392670D03*
Y219690D03*
X398690D03*
Y231730D03*
X392670D03*
X398690Y225710D03*
X392670D03*
X405993Y145571D03*
Y143407D03*
Y141242D03*
Y139077D03*
X408158D03*
X410323D03*
X412487Y139076D03*
X414652D03*
Y141242D03*
Y143407D03*
Y145572D03*
X416818Y139076D03*
X405993Y152067D03*
Y154232D03*
Y156397D03*
X408158D03*
X410323D03*
X412487Y156396D03*
X414652Y147737D03*
X412487D03*
X410323Y147736D03*
X408158D03*
X405993D03*
Y149902D03*
X414652Y156396D03*
X416818D03*
Y147737D03*
X414652Y149902D03*
X414653Y152067D03*
X414652Y154231D03*
X410730Y213670D03*
X404710D03*
X410730Y219690D03*
X404710D03*
X410730Y231730D03*
X404710D03*
X410730Y225710D03*
X404710D03*
X423312Y145571D03*
X423313Y143407D03*
X423312Y141242D03*
Y139077D03*
X421147D03*
X418983Y139076D03*
Y156396D03*
X421147Y156397D03*
X423312D03*
Y154232D03*
Y152067D03*
Y149902D03*
Y147736D03*
X418983Y147737D03*
X421147Y147736D03*
G54D24*
X364200Y270500D03*
X387800D03*
G54D16*
X65803Y36811D03*
X116197D03*
G54D25*
X449538Y107624D03*
X454460Y107620D03*
G54D17*
X73185Y32283D03*
X108815D03*
G54D26*
X441780Y181240D03*
G54D18*
X95677Y92554D03*
X473630D03*
X518906Y239417D03*
G54D27*
X441780Y191240D03*
G54D28*
X462157Y244000D03*
X476921D03*
X471999D03*
X467078D03*
X481842D03*
G54D19*
X140957Y13768D03*
X198043D03*
G54D29*
G01X287526Y173521D02*
X343167D01*
X347834Y178188D01*
Y201166D01*
X344500Y204500D01*
X471500Y269000D03*
X495500D03*
M02*
