G04 ================== begin FILE IDENTIFICATION RECORD ==================*
G04 Layout Name:  F:/work/Eileen/hmd/dvt/hmd-dvt-323am11.brd*
G04 Film Name:    hmd_dvt_SMPS*
G04 File Format:  Gerber RS274X*
G04 File Origin:  Cadence Allegro 16.3-S053*
G04 Origin Date:  Mon Mar 23 11:22:05 2015*
G04 *
G04 Layer:  VIA CLASS/SOLDERMASK_BOTTOM*
G04 Layer:  PIN/SOLDERMASK_BOTTOM*
G04 Layer:  PACKAGE GEOMETRY/SOLDERMASK_BOTTOM*
G04 Layer:  BOARD GEOMETRY/OUTLINE*
G04 Layer:  BOARD GEOMETRY/SOLDERMASK_BOTTOM*
G04 *
G04 Offset:    (0.00 0.00)*
G04 Mirror:    No*
G04 Mode:      Positive*
G04 Rotation:  0*
G04 FullContactRelief:  No*
G04 UndefLineWidth:     5.00*
G04 ================== end FILE IDENTIFICATION RECORD ====================*
%FSLAX55Y55*MOIN*%
%IR0*IPPOS*OFA0.00000B0.00000*MIA0B0*SFA1.00000B1.00000*%
%ADD46O,.065X.112*%
%ADD32O,.058X.101*%
%ADD71R,.083X.13*%
%ADD90R,.106X.056*%
%AMMACRO70*
21,1,.035,.028,0.0,0.0,135.*%
%ADD70MACRO70*%
%ADD47O,.065X.136*%
%ADD12C,.032*%
%ADD38C,.051*%
%ADD75C,.071*%
%ADD72R,.106X.078*%
%ADD69R,.085X.215*%
%ADD10C,.062*%
%ADD79C,.036*%
%AMMACRO67*
21,1,.03,.03,0.0,0.0,45.*%
%ADD67MACRO67*%
%ADD64C,.045*%
%ADD65C,.046*%
%ADD53R,.164X.085*%
%ADD24R,.03X.03*%
%ADD61R,.085X.164*%
%ADD16R,.031X.031*%
%AMMACRO54*
21,1,.016,.016,0.0,0.0,45.*%
%ADD54MACRO54*%
%ADD51C,.049*%
%AMMACRO44*
21,1,.03,.03,0.0,0.0,.003*%
%ADD44MACRO44*%
%ADD49R,.016X.016*%
%AMMACRO26*
21,1,.03,.03,0.0,0.0,.262*%
%ADD26MACRO26*%
%ADD80R,.046X.046*%
%ADD76R,.073X.073*%
%ADD36R,.085X.085*%
%AMMACRO77*
21,1,.075,.018,0.0,0.0,.079*%
%ADD77MACRO77*%
%AMMACRO74*
21,1,.038,.014,0.0,0.0,179.96*
1,1,.038,.000005,.007*
1,1,.038,-.000005,-.007*%
%ADD74MACRO74*%
%AMMACRO85*
21,1,.03,.03,0.0,0.0,89.716*%
%ADD85MACRO85*%
%AMMACRO27*
21,1,.03,.03,0.0,0.0,89.849*%
%ADD27MACRO27*%
%ADD56R,.02X.01*%
%ADD52R,.01X.02*%
%ADD84R,.011X.021*%
%ADD86R,.012X.051*%
%ADD89R,.024X.022*%
%ADD82R,.051X.012*%
%ADD41R,.032X.05*%
%ADD88R,.022X.024*%
%ADD45R,.05X.032*%
%ADD34O,.036X.014*%
%ADD35O,.014X.036*%
%ADD11C,.12*%
%ADD87R,.028X.012*%
%ADD23R,.053X.033*%
%ADD21R,.048X.03*%
%ADD20R,.033X.053*%
%ADD17R,.041X.046*%
%ADD78O,.038X.052*%
%ADD30R,.046X.041*%
%ADD83R,.031X.076*%
%ADD43R,.061X.045*%
%ADD29R,.055X.043*%
%ADD73R,.028X.035*%
%ADD28R,.043X.055*%
%ADD15R,.063X.071*%
%ADD60R,.071X.056*%
%ADD42C,.244*%
%ADD40R,.035X.028*%
%ADD33R,.039X.034*%
%ADD59R,.146X.166*%
%ADD25R,.034X.039*%
%ADD19R,.028X.028*%
%ADD13R,.059X.051*%
%ADD81R,.046X.056*%
%ADD68R,.028X.047*%
%ADD63R,.034X.049*%
%ADD57R,.02X.02098*%
%ADD37R,.028X.028*%
%ADD50R,.02098X.02*%
%ADD39R,.055X.039*%
%ADD14R,.075X.055*%
%ADD66R,.067X.091*%
%ADD62R,.055X.075*%
%ADD31R,.039X.055*%
%ADD22R,.046X.049*%
%ADD48R,.049X.046*%
%ADD55R,.085X.077*%
%ADD58O,.05906X.02756*%
%AMMACRO18*
21,1,.034,.039,0.0,0.0,89.849*%
%ADD18MACRO18*%
%ADD91C,.005*%
G75*
%LPD*%
G75*
G36*
G01X46520Y58300D02*
G03I-4020J0D01*
G37*
G36*
G01X57181Y191891D02*
X60409D01*
Y195119D01*
X57181D01*
Y191891D01*
G37*
G36*
G01Y187481D02*
X60409D01*
Y190709D01*
X57181D01*
Y187481D01*
G37*
G36*
G01X61591D02*
X64819D01*
Y190709D01*
X61591D01*
Y187481D01*
G37*
G36*
G01Y191891D02*
X64819D01*
Y195119D01*
X61591D01*
Y191891D01*
G37*
G36*
G01X163520Y100100D02*
G03I-4020J0D01*
G37*
G36*
G01X242120Y100200D02*
G03I-4020J0D01*
G37*
G36*
G01X320720Y100000D02*
G03I-4020J0D01*
G37*
G36*
G01X355820Y90000D02*
G03I-4020J0D01*
G37*
G36*
G01X379420D02*
G03I-4020J0D01*
G37*
G54D10*
X-12000Y32000D03*
X450000Y173000D03*
G54D20*
X16000Y191996D03*
Y199004D03*
X464500Y149496D03*
Y156504D03*
G54D11*
X-12000Y280000D03*
X-6000Y24000D03*
X117900Y188100D03*
X154000Y273000D03*
X360000Y170000D03*
X524000Y21000D03*
X548000Y274000D03*
G54D30*
X42450Y167000D03*
X48550D03*
X140550Y273000D03*
X134450D03*
X298950Y78500D03*
X305050D03*
G54D21*
X35418Y112292D03*
Y119772D03*
Y116032D03*
X46018Y112292D03*
Y119772D03*
G54D12*
X-1000Y53000D03*
X0Y127500D03*
X-2000Y190500D03*
X-7000Y223500D03*
X2000Y258000D03*
X14500Y33000D03*
X16500Y27000D03*
X15500Y174500D03*
X18000Y169500D03*
X5500Y184500D03*
X6000Y264000D03*
X21000Y33000D03*
X23500Y26500D03*
X27500Y33000D03*
X30500Y26500D03*
X21000Y174500D03*
X27000Y189000D03*
X26500Y205000D03*
X33500Y273500D03*
X36500Y41500D03*
X35800Y57000D03*
X49500Y50500D03*
X41000Y104500D03*
X43000Y125500D03*
X44000Y133000D03*
X45500Y172000D03*
X35500Y188500D03*
X45500Y209000D03*
X41000Y229000D03*
X46000Y281000D03*
X66500Y92500D03*
X56000Y106000D03*
X65500Y125500D03*
X53000Y130500D03*
X60000D03*
X58500Y167500D03*
X61000Y162000D03*
X63000Y206500D03*
X57000Y208000D03*
X55000Y212700D03*
X56000Y218000D03*
X54000Y223000D03*
X63000Y230000D03*
X57000Y232500D03*
X63000Y237500D03*
X58000Y226500D03*
X57000Y240000D03*
X57500Y253500D03*
X58000Y259000D03*
X62000Y268000D03*
X63500Y276500D03*
X82500Y48500D03*
X77000D03*
X79500Y92500D03*
X71200Y99500D03*
X70500Y116000D03*
X74500Y128000D03*
X74000Y150500D03*
X67500Y165000D03*
X72500Y166500D03*
Y272000D03*
X88000Y53000D03*
X93500D03*
X98000Y126000D03*
X97500Y164000D03*
X95000Y175000D03*
X94500Y206500D03*
X95000Y220500D03*
X90000Y220000D03*
X92000Y240000D03*
X83500Y234500D03*
X87000Y263500D03*
X89000Y279000D03*
X83750D03*
X104500Y59500D03*
X101000Y53500D03*
X109000Y80500D03*
X105000Y74100D03*
X111000Y109000D03*
X103000Y115000D03*
X99500Y139500D03*
X102000Y151121D03*
X101000Y196000D03*
X111500Y219500D03*
X107000Y223500D03*
X99000Y224000D03*
X110500Y227500D03*
X103000Y227000D03*
X114500Y256000D03*
X101500Y270000D03*
X120500Y67000D03*
X127500Y77500D03*
X126500Y145000D03*
X124500Y158000D03*
X121500Y146500D03*
X122500Y221500D03*
X127500Y238500D03*
X125000Y230500D03*
X120000Y260500D03*
X127000Y263500D03*
X146500Y179500D03*
X131500Y230500D03*
X133500Y237000D03*
X140500Y234500D03*
X135500Y265000D03*
X160500Y50500D03*
X158000Y61500D03*
X154500Y56000D03*
X151000Y74000D03*
X153250Y99500D03*
X158000Y163000D03*
X157500Y177500D03*
X150000Y165500D03*
X153366Y188009D03*
X162500Y190000D03*
X159500Y195500D03*
Y205500D03*
X153366Y197457D03*
X153365Y216358D03*
X153366Y222657D03*
X160500Y219000D03*
X161470Y237000D03*
X157200Y226100D03*
X152700Y237000D03*
X172500Y45500D03*
X168000Y48500D03*
X173500Y51500D03*
X167000Y54500D03*
X177500Y178500D03*
X172177Y188102D03*
X167500Y192500D03*
X172000Y207000D03*
X175416Y222655D03*
X163774Y223500D03*
X166200Y229000D03*
X189000Y33000D03*
X190000Y48500D03*
X183500Y45500D03*
X178500Y48500D03*
X181000Y54500D03*
X189500Y108500D03*
Y129000D03*
X184700Y219000D03*
X189400Y232000D03*
X201500Y129000D03*
X200500Y165500D03*
X208000Y183000D03*
X207500Y195500D03*
X206500Y201500D03*
Y210500D03*
X209000Y234500D03*
X207500Y227500D03*
X206500Y256000D03*
Y267000D03*
X225000Y50500D03*
X215000Y80500D03*
X212000Y146000D03*
X218500D03*
X226000Y158000D03*
X214995Y173602D03*
X211846Y189352D03*
X210500Y205000D03*
X218146Y198802D03*
X211846D03*
X215500Y205000D03*
X211845Y211402D03*
Y217702D03*
X224446Y211402D03*
X218146Y220851D03*
Y214552D03*
X211846Y224001D03*
Y230302D03*
X219250Y255500D03*
X214000D03*
X224500D03*
X215000Y250000D03*
X224500Y244000D03*
X223000Y249000D03*
X212000Y245950D03*
X211750Y267000D03*
X222000D03*
X217000D03*
X234000Y51500D03*
X227000Y77500D03*
X232500D03*
X237000Y74500D03*
X240200Y129500D03*
X227500Y133000D03*
X238000Y150000D03*
X232000Y149000D03*
X228500Y153500D03*
X235500Y162500D03*
X241000Y169500D03*
X230746Y214552D03*
Y233451D03*
X234000Y239500D03*
X237046Y233451D03*
X238500Y255500D03*
X230500Y255000D03*
X233000Y267000D03*
X229000Y260000D03*
X239500Y260500D03*
X234500Y259500D03*
X227500Y267000D03*
X238500D03*
X246500Y74500D03*
X250700Y77500D03*
X256000D03*
X249000Y88500D03*
X244000Y84100D03*
X252000Y95000D03*
X249617Y159900D03*
X255945Y233451D03*
X244000Y256000D03*
X256000Y256500D03*
X250000D03*
X252000Y270000D03*
X257000Y269000D03*
X249000Y265500D03*
X244000Y267000D03*
X269000Y50000D03*
X261000Y49500D03*
X260500Y75000D03*
X265500Y77500D03*
X264500Y91500D03*
X268000Y109000D03*
X268500Y103500D03*
X271000Y128500D03*
X264000Y158500D03*
X266966Y171000D03*
X262500Y191500D03*
X262245Y186202D03*
X265500Y205300D03*
X268545Y211402D03*
Y227152D03*
X270000Y254400D03*
X287500Y58500D03*
X282000D03*
X276000Y158000D03*
X284500Y167000D03*
X287000Y181500D03*
X274846Y201952D03*
X285000Y208000D03*
X281145Y198802D03*
X281137Y205072D03*
X274846Y195651D03*
X285500Y195500D03*
X281146Y211402D03*
X281145Y220852D03*
X274846Y211402D03*
Y220851D03*
X288000Y223000D03*
X281146Y233452D03*
X284000Y238000D03*
X285000Y230000D03*
X274846Y227152D03*
X279500Y246700D03*
X288900Y282400D03*
X292800Y58500D03*
X298000Y59000D03*
X299000Y83000D03*
X294000Y143500D03*
X295500Y154000D03*
X292500Y200500D03*
X298000D03*
X304003Y238000D03*
X302000Y272500D03*
X295000Y270000D03*
X295500Y263000D03*
X312500Y77000D03*
X319500D03*
X310500Y99500D03*
X317854Y191530D03*
Y185231D03*
X317853Y197829D03*
Y216729D03*
X321004Y223025D03*
X308000Y234500D03*
X320000Y240000D03*
X324700Y77000D03*
X332000Y76500D03*
X328000Y94500D03*
X329500Y184000D03*
X328500Y191000D03*
X324994Y186885D03*
X333500Y190000D03*
X336754Y207278D03*
X324000Y206000D03*
Y194000D03*
X333000Y195000D03*
X330000Y218500D03*
X333500Y223000D03*
X336754Y213577D03*
X328500Y224500D03*
X326000Y256000D03*
X332500Y272000D03*
X346000Y88000D03*
X351500Y103000D03*
X339904Y188378D03*
X340228Y181755D03*
X339904Y223026D03*
X352500Y235500D03*
X339904Y229325D03*
X349000Y253000D03*
X352500Y260500D03*
X364000Y80000D03*
X356500Y99000D03*
X364000Y219500D03*
X367500Y223500D03*
X366500Y215000D03*
X364500Y232500D03*
X355500Y266500D03*
X366500Y275500D03*
X378500Y44000D03*
X375000Y103500D03*
X375500Y124500D03*
X383000Y123500D03*
X382500Y129000D03*
X371000Y117000D03*
X375500Y130000D03*
Y145000D03*
X384000Y144500D03*
Y137500D03*
X377000D03*
X383500Y159000D03*
X374000Y152000D03*
X383000Y153000D03*
X373000Y157500D03*
X375500Y165500D03*
X383000Y166000D03*
X373500Y170500D03*
X379000Y173000D03*
X385500Y191500D03*
X371000Y200000D03*
X380500Y216250D03*
X383500Y237000D03*
X376000Y230500D03*
X383500Y254000D03*
X396500Y61000D03*
X394000Y105500D03*
X400500Y113500D03*
X389000Y111000D03*
X395500Y113000D03*
X397000Y158000D03*
X392000Y168000D03*
X390000Y188500D03*
X397000D03*
X393500Y182500D03*
X399500Y182000D03*
X396000Y194000D03*
X393500Y199000D03*
X390500Y204500D03*
Y244000D03*
X398000Y269500D03*
X404500Y39500D03*
X414000Y161000D03*
X416500Y166500D03*
X413000Y170500D03*
X417500Y188500D03*
X407250D03*
X412500Y189000D03*
X402250Y188500D03*
X407500Y199500D03*
X417500Y222500D03*
X417000Y238500D03*
X417500Y244000D03*
X408000Y250000D03*
X419000Y17000D03*
X420500Y109000D03*
X428500Y113500D03*
X429000Y107000D03*
X430850Y139000D03*
X433000Y146500D03*
X430500Y191500D03*
X423000Y188500D03*
X429000Y200500D03*
X420500Y204500D03*
X433000Y222000D03*
X422000Y237500D03*
X425080Y245000D03*
X441000Y113000D03*
X438500Y107000D03*
X434000Y113000D03*
X435000Y123500D03*
X449000Y116500D03*
X438930Y139500D03*
X439000Y146000D03*
X442500Y218500D03*
X434000Y258500D03*
X444000Y275500D03*
X461000Y139000D03*
X462000Y165500D03*
X464500Y186000D03*
X451000Y190000D03*
X462000Y205500D03*
X456500Y218000D03*
X451500Y221500D03*
X460500Y223500D03*
X463000Y217500D03*
X458500Y211000D03*
X449800Y229400D03*
X465000Y239500D03*
X459000Y232500D03*
X460500Y261500D03*
X455500Y263000D03*
X466500Y139500D03*
X473000Y148500D03*
X467500Y176000D03*
X473000Y187000D03*
X480500Y254000D03*
X479000Y262000D03*
X493500Y58500D03*
X482000Y181500D03*
X489500Y186500D03*
X484500Y186000D03*
X492700Y221500D03*
X489500Y237000D03*
X493500Y261500D03*
X502500Y77000D03*
X497500Y91000D03*
X503500Y90500D03*
X507000Y128500D03*
X500000Y118500D03*
X511000Y141000D03*
Y131500D03*
X509500Y147000D03*
X512000Y152500D03*
X508500Y156500D03*
X505000Y176500D03*
X507000Y190000D03*
X505500Y204000D03*
X512000Y206000D03*
X511000Y214500D03*
X504000Y212000D03*
X501500Y224500D03*
X520000Y65500D03*
X524000Y93000D03*
X517500Y88000D03*
X522000Y108000D03*
X528000Y106000D03*
X514500Y127500D03*
X524500Y128000D03*
X528000Y153000D03*
X523000Y156500D03*
X520000Y209500D03*
X518000Y200500D03*
X523500Y200000D03*
X518500Y194500D03*
X515500Y212000D03*
X542000Y93000D03*
X538500Y89000D03*
X534000Y111500D03*
X539500Y123500D03*
X531000Y147000D03*
X544000Y156000D03*
X537000Y168000D03*
X538000Y230000D03*
X553000Y130500D03*
X574000Y93000D03*
X567500Y123000D03*
X567700Y136000D03*
X562500Y137000D03*
X572900Y135500D03*
X578000D03*
X582500Y133000D03*
X585500Y137000D03*
G54D22*
X22400Y141154D03*
X31500D03*
X22400Y147846D03*
X31500D03*
X49000Y152654D03*
Y159346D03*
X77800Y182854D03*
Y189546D03*
X129700Y176546D03*
Y169854D03*
X138900Y176654D03*
Y183346D03*
X481500Y236846D03*
Y230154D03*
X494500Y77654D03*
Y84346D03*
X551500Y92154D03*
Y98846D03*
G54D31*
X41000Y223350D03*
X37250Y214650D03*
X44750D03*
X67150Y140850D03*
X59650D03*
X63400Y149550D03*
X80250Y144350D03*
X84000Y135650D03*
X87750Y144350D03*
X257650Y116250D03*
X265150D03*
X261400Y124950D03*
X520750Y82350D03*
X528250D03*
X524500Y73650D03*
X545000Y108650D03*
X541250Y117350D03*
X548750D03*
G54D13*
X-5000Y78937D03*
Y71063D03*
X118500Y90063D03*
Y97937D03*
X197748Y89231D03*
Y97105D03*
X276448Y89231D03*
Y97105D03*
G54D40*
X77940Y229200D03*
X83060D03*
X217760Y132200D03*
X212640D03*
X270440Y77700D03*
X275560D03*
X440311Y128006D03*
X435191D03*
X440311Y133663D03*
X435191D03*
G54D14*
X4000Y68900D03*
Y81100D03*
X117800Y105168D03*
Y117368D03*
X196448Y105168D03*
Y117368D03*
X275148Y105168D03*
Y117368D03*
X404000Y21900D03*
Y34100D03*
X510500Y75400D03*
Y87600D03*
G54D50*
X143168Y240889D03*
Y244433D03*
X161470Y240889D03*
X154482D03*
Y244433D03*
X161470D03*
X150156Y240889D03*
Y244433D03*
X177006Y240728D03*
X172996Y240818D03*
X166008D03*
X177006Y244272D03*
X166008Y244362D03*
X172996D03*
X183994Y240728D03*
Y244272D03*
X304003Y244117D03*
Y247661D03*
X314620Y244132D03*
Y247676D03*
X310991Y244117D03*
Y247661D03*
X336152Y239721D03*
X332367Y239732D03*
X325379D03*
X336152Y243265D03*
X325379Y243276D03*
X332367D03*
X321608Y244132D03*
Y247676D03*
X343140Y239721D03*
Y243265D03*
G54D23*
X31996Y176500D03*
Y183000D03*
X39004Y176500D03*
Y183000D03*
X290504Y79000D03*
X283496D03*
X449596Y249700D03*
X456604D03*
X472496Y140000D03*
X479504D03*
G54D41*
X79740Y248550D03*
X76000D03*
X72260D03*
X79740Y258950D03*
X72260D03*
X560760Y99800D03*
Y110200D03*
X568240Y99800D03*
X564500D03*
X568240Y110200D03*
G54D32*
X65803Y36811D03*
X116197D03*
G54D33*
X65500Y113150D03*
Y119650D03*
X77500Y202250D03*
Y208750D03*
X100000Y216250D03*
Y209750D03*
X126200Y111818D03*
Y118318D03*
X192000Y249750D03*
Y256250D03*
X204848Y111818D03*
Y118318D03*
X202000Y252750D03*
Y246250D03*
X283548Y111818D03*
Y118318D03*
X413000Y31250D03*
Y24750D03*
X420000Y31250D03*
Y24750D03*
X446590Y121574D03*
Y128074D03*
X434500Y203750D03*
Y210250D03*
X468000Y227750D03*
Y234250D03*
X518000Y110250D03*
Y116750D03*
X534250Y122750D03*
Y116250D03*
G54D42*
X95677Y92554D03*
X272500Y274100D03*
X473630Y92554D03*
X518906Y239417D03*
G54D60*
X351500Y69500D03*
Y80500D03*
X486500Y56500D03*
Y67500D03*
X514000Y46500D03*
Y57500D03*
X524000Y46500D03*
Y57500D03*
G54D15*
X-5500Y100000D03*
X5500D03*
X382000Y35500D03*
Y22500D03*
X393000Y35500D03*
Y22500D03*
X445000Y155500D03*
X441500Y201000D03*
X456000Y155500D03*
X452500Y201000D03*
X560000Y82000D03*
X571000D03*
G54D51*
X159657Y30500D03*
X179343D03*
G54D24*
X25150Y170000D03*
X28850D03*
X25150Y165500D03*
X28850D03*
X48350Y199500D03*
X44650D03*
X38150Y207350D03*
X41850D03*
X44150Y194500D03*
X47850D03*
X64150Y107500D03*
Y102500D03*
X56750Y126100D03*
X53050D03*
X52818Y119118D03*
X56518D03*
X58150Y134500D03*
X61850D03*
X66500Y134350D03*
Y130650D03*
X65150Y156000D03*
Y160500D03*
X64050Y179900D03*
X58150D03*
X54450D03*
X63150Y203000D03*
X51000Y208850D03*
Y205150D03*
X79500Y97650D03*
X67850Y107500D03*
X79500Y101350D03*
X67850Y102500D03*
X78500Y124650D03*
Y128350D03*
X74000Y144850D03*
Y141150D03*
X68850Y156000D03*
Y160500D03*
X73000Y160350D03*
Y156650D03*
X67750Y179900D03*
X66850Y203000D03*
X78150Y222000D03*
X81850D03*
X94000Y111150D03*
Y114850D03*
X93500Y159150D03*
X95500Y150350D03*
Y146650D03*
X93500Y162850D03*
X94400Y213950D03*
Y210250D03*
X90100Y213950D03*
Y210250D03*
X85800Y213950D03*
Y210250D03*
X90650Y225000D03*
X94350D03*
X90200Y230150D03*
Y233850D03*
X95350Y255000D03*
X91650D03*
X93150Y247500D03*
X96850D03*
X96350Y261200D03*
X92650D03*
X99000Y111150D03*
X104500Y126350D03*
Y122650D03*
X99000Y114850D03*
X99500Y131650D03*
Y135350D03*
X107350Y143500D03*
X103650D03*
X104500Y131650D03*
Y135350D03*
X108500Y213850D03*
Y210150D03*
X104350Y247500D03*
X100650D03*
X104000Y251650D03*
Y255350D03*
X99500Y251650D03*
Y255350D03*
X111850Y247500D03*
X108150D03*
X110500Y255600D03*
Y251900D03*
X113350Y260000D03*
X109650D03*
X100650Y263900D03*
X104350D03*
X126650Y69500D03*
X130350D03*
X124400Y153750D03*
Y150050D03*
X117500Y218350D03*
Y214650D03*
Y225150D03*
Y228850D03*
X131900Y142550D03*
X139800Y161350D03*
Y157650D03*
X134650Y161400D03*
X130950D03*
X131900Y146250D03*
X145000Y161350D03*
Y157650D03*
X131900Y151550D03*
Y155250D03*
X142194Y210349D03*
X145894D03*
X145896Y214958D03*
X142196D03*
X142823Y224606D03*
Y228306D03*
X143480Y248943D03*
Y252643D03*
X153300Y107318D03*
Y103618D03*
X153750Y161300D03*
X150050D03*
X153750Y157200D03*
X150050D03*
X159666Y209581D03*
Y213681D03*
X161158Y248943D03*
Y252643D03*
X154794Y248943D03*
Y252643D03*
X149844Y248943D03*
Y252643D03*
X163621Y196644D03*
X167321D03*
X172330Y200686D03*
Y196986D03*
X167816Y203757D03*
X164116D03*
X163366Y209581D03*
Y213681D03*
X177987Y248801D03*
Y252501D03*
X166320Y248872D03*
Y252572D03*
X172966Y248731D03*
Y252431D03*
X193650Y128800D03*
X181716Y204032D03*
Y200332D03*
X186980Y213689D03*
X183280D03*
X184351Y248801D03*
Y252501D03*
X197350Y128800D03*
X208350Y167500D03*
X204650D03*
X204475Y173757D03*
X208175D03*
X204558Y178897D03*
X208258D03*
X196643Y221039D03*
X200343D03*
X204150Y238500D03*
X207850D03*
X196502Y228251D03*
X200202D03*
X208000Y249350D03*
Y245650D03*
X214850Y84500D03*
X211150D03*
X219500Y88350D03*
Y84650D03*
X215750Y142000D03*
X212050D03*
X215750Y137600D03*
X212050D03*
X223800Y136150D03*
Y132450D03*
X212200Y153950D03*
Y150250D03*
X220550Y154100D03*
X216850D03*
X220550Y150000D03*
X216850D03*
X218210Y166945D03*
X221910D03*
X223474Y204871D03*
X219774D03*
X241150Y88500D03*
X231948Y107318D03*
Y103618D03*
X234450Y129800D03*
X230750D03*
X227900Y149450D03*
Y145750D03*
X235415Y166591D03*
X231715D03*
X226800Y166350D03*
Y162650D03*
X239840Y247886D03*
Y244186D03*
X235096Y247852D03*
Y244152D03*
X230212Y247881D03*
Y244181D03*
X244850Y88500D03*
X254500Y109350D03*
Y105650D03*
X249350Y142000D03*
X245650D03*
X249350Y137000D03*
X245650D03*
X249350Y132000D03*
X245650D03*
X249350Y146500D03*
X245650D03*
X249350Y151500D03*
X245650D03*
X246150Y156500D03*
X249850D03*
X249617Y162974D03*
Y166674D03*
X255500Y163150D03*
Y166850D03*
X246407Y177723D03*
Y181423D03*
X247846Y204302D03*
X244146D03*
X246435Y221310D03*
Y225010D03*
X246364Y232717D03*
Y229017D03*
X249229Y247955D03*
Y244255D03*
X253973Y247939D03*
Y244239D03*
X244584Y247935D03*
Y244235D03*
X264100Y97450D03*
Y101150D03*
X260250Y109100D03*
X263950D03*
X267153Y166957D03*
Y163257D03*
X271608Y166886D03*
Y163186D03*
X260000Y166850D03*
Y163150D03*
X267822Y244195D03*
Y247895D03*
X272303Y244215D03*
Y247915D03*
X258592Y247939D03*
Y244239D03*
X263276Y247894D03*
Y244194D03*
X285150Y141000D03*
X288850D03*
X285150Y136000D03*
X288850D03*
Y146000D03*
X285150D03*
X288850Y151000D03*
X285150D03*
X285000Y155650D03*
Y159350D03*
X280447Y163115D03*
Y166815D03*
X275850Y163186D03*
Y166886D03*
X288448Y185825D03*
X284748D03*
Y191057D03*
X288448D03*
X288072Y218988D03*
X288001Y213826D03*
X303237Y213693D03*
X299537D03*
X291772Y218988D03*
X291701Y213826D03*
X304205Y251852D03*
Y255552D03*
X290650Y277500D03*
X294350D03*
X310648Y107318D03*
Y103618D03*
X308404Y210153D03*
Y213853D03*
X311059Y219532D03*
Y223232D03*
X314953Y251852D03*
Y255552D03*
X310711Y251852D03*
Y255552D03*
X321317Y251852D03*
Y255552D03*
X324000Y91350D03*
Y87650D03*
X328604Y200645D03*
X332304D03*
X337015Y201181D03*
Y197481D03*
X332304Y205118D03*
X328604D03*
X324154Y210003D03*
X327854D03*
X324154Y214003D03*
X327854D03*
X336450Y247968D03*
Y251668D03*
X325631Y248039D03*
Y251739D03*
X332136Y247897D03*
Y251597D03*
X346500Y203850D03*
Y200150D03*
Y211150D03*
Y214850D03*
X351650Y210500D03*
Y226500D03*
X347000Y237850D03*
Y234150D03*
X351500Y244650D03*
Y248350D03*
X355350Y210500D03*
Y226500D03*
X359500Y266850D03*
Y263150D03*
X369000Y261150D03*
Y264850D03*
X358850Y273000D03*
X355150D03*
X358850Y277500D03*
X355150D03*
X379150Y111500D03*
X382850D03*
Y203700D03*
X383700Y208850D03*
Y212550D03*
X370500Y235850D03*
Y232150D03*
X383150Y227000D03*
Y232000D03*
X379350Y254000D03*
X375650D03*
X376150Y242500D03*
X379850D03*
X376150Y247000D03*
X379850D03*
X384500Y261150D03*
Y264850D03*
X373500Y261150D03*
Y264850D03*
X378000Y261150D03*
Y264850D03*
X384000Y279350D03*
Y275650D03*
X370500Y279350D03*
Y275650D03*
X375000Y279350D03*
Y275650D03*
X379500Y279350D03*
Y275650D03*
X398778Y135431D03*
X386550Y203700D03*
X399850Y204700D03*
X399150Y241000D03*
X386850Y227000D03*
X394500Y240350D03*
Y236650D03*
X390500Y240350D03*
Y236650D03*
X386850Y232000D03*
X399850Y248500D03*
X396150D03*
X394000Y261150D03*
Y264850D03*
X389000Y261150D03*
Y264850D03*
X388500Y279350D03*
Y275650D03*
X393000Y279350D03*
Y275650D03*
X417516Y128006D03*
X407781D03*
X404081D03*
X402749Y141359D03*
Y145059D03*
X411317Y135077D03*
X407617D03*
X416809D03*
X402478Y135431D03*
X406202Y160533D03*
X409902D03*
X402395Y156019D03*
Y152319D03*
X416266Y175382D03*
X412566D03*
X408200Y204650D03*
Y208350D03*
X403550Y204700D03*
X415150Y209500D03*
X402850Y241000D03*
X407650D03*
X411350D03*
X415650Y231500D03*
X414500Y251850D03*
Y248150D03*
X429701Y128006D03*
X426001D03*
X421216D03*
X420509Y135077D03*
X426791Y136409D03*
Y140109D03*
X418223Y160533D03*
X421923D03*
X426791Y146309D03*
Y150009D03*
Y160615D03*
Y156915D03*
X432224Y170432D03*
X432242Y165819D03*
X432530Y186075D03*
X428830D03*
Y181125D03*
X432530D03*
X429000Y209350D03*
Y205650D03*
X422850Y218500D03*
X419150D03*
X422850Y214500D03*
X419150D03*
X429000Y216150D03*
Y219850D03*
X418850Y209500D03*
X419350Y231500D03*
X430500Y231350D03*
Y227650D03*
X418500Y248150D03*
Y251850D03*
X446150Y112500D03*
X444150Y144500D03*
X447850D03*
X444150Y139500D03*
X447850D03*
X444386Y133663D03*
X448086D03*
X434922Y142584D03*
Y138884D03*
X434569Y160615D03*
Y156915D03*
X435924Y170432D03*
X435942Y165819D03*
X449150Y186000D03*
X438650Y222500D03*
X442350D03*
X441850Y229000D03*
X438150D03*
X446150Y233500D03*
X438150D03*
X441850D03*
Y239500D03*
X438150D03*
X434000Y262650D03*
Y266350D03*
X447000D03*
Y262650D03*
X442000Y266350D03*
Y262650D03*
X438000Y266350D03*
Y262650D03*
X449850Y112500D03*
X454500Y126950D03*
X454700Y115550D03*
Y119250D03*
X453150Y139500D03*
X456850D03*
X454500Y130650D03*
X453150Y144500D03*
X456850D03*
X452850Y186000D03*
X456650D03*
X460350D03*
X464650Y190000D03*
Y196000D03*
Y209500D03*
X449850Y233500D03*
X463000Y228650D03*
Y232350D03*
X451400Y266450D03*
Y262750D03*
X473150Y135000D03*
X476850D03*
X470650Y161000D03*
X474350D03*
Y156500D03*
X470650D03*
Y165000D03*
X474350D03*
X472850Y183500D03*
X469150D03*
X477000Y188350D03*
Y184650D03*
X468350Y190000D03*
Y196000D03*
Y209500D03*
X473000Y219850D03*
Y216150D03*
X475000Y258150D03*
Y261850D03*
X467650Y262000D03*
X471350D03*
X476000Y268150D03*
Y271850D03*
X471350Y275500D03*
X467650D03*
X486000Y143350D03*
Y139650D03*
X491500Y143350D03*
Y139650D03*
X492150Y135000D03*
X495850D03*
X494650Y185500D03*
Y181000D03*
X496150Y190500D03*
Y204000D03*
Y196500D03*
Y210000D03*
X489000Y219850D03*
Y216150D03*
X483000Y219850D03*
Y216150D03*
X496150Y216000D03*
X483000Y258150D03*
Y261850D03*
X489500Y257650D03*
Y261350D03*
X502500Y81150D03*
Y84850D03*
X513000Y94650D03*
X508700D03*
X513000Y98350D03*
X508700D03*
X513000Y102150D03*
Y105850D03*
X508700Y102150D03*
Y105850D03*
X510650Y121500D03*
X503150Y122000D03*
X506850D03*
X503000Y126650D03*
X498000D03*
X507350Y135000D03*
X503650D03*
X503000Y130350D03*
X498000D03*
X508350Y180500D03*
X504650D03*
X498350Y185500D03*
Y181000D03*
X499850Y190500D03*
Y204000D03*
Y196500D03*
Y210000D03*
Y216000D03*
X526650Y89000D03*
X518500Y94150D03*
X525000Y111150D03*
X518500Y102150D03*
Y105850D03*
Y97850D03*
X514350Y121500D03*
X525000Y114850D03*
X528850Y119000D03*
X525150D03*
X527000Y159150D03*
Y162850D03*
X516367Y222273D03*
X520067D03*
X516367Y218273D03*
X520067D03*
X534500Y88650D03*
Y92350D03*
X530350Y89000D03*
X539500Y97150D03*
X530500D03*
X535000D03*
X544000D03*
X539500Y100850D03*
X535850Y106500D03*
X532150D03*
X530500Y100850D03*
X535000D03*
X544000D03*
X543650Y124500D03*
X554300Y113150D03*
Y109350D03*
Y105650D03*
X547350Y124500D03*
X554300Y116850D03*
G54D25*
X25750Y197000D03*
X32250D03*
X82250Y175000D03*
X88750D03*
X146650Y174200D03*
X153150D03*
X214750Y161000D03*
X221250D03*
X288935Y170622D03*
X295435D03*
X366250Y42500D03*
X361350Y101100D03*
X367850D03*
X372750Y42500D03*
X381750Y221000D03*
X388250D03*
X409045Y181039D03*
X415545D03*
X444700Y164500D03*
X456250Y172000D03*
X462750D03*
X451200Y164500D03*
X450150Y243200D03*
X456650D03*
X504350Y104600D03*
X497850D03*
X561250Y118000D03*
X569250Y91000D03*
X562750D03*
X567750Y118000D03*
G54D43*
X99169Y240150D03*
Y233850D03*
X107831Y240150D03*
Y233850D03*
G54D34*
X54110Y191300D03*
Y189332D03*
Y187363D03*
Y195237D03*
Y193268D03*
X67890Y191300D03*
Y189332D03*
Y187363D03*
Y195237D03*
Y193268D03*
G54D52*
X158960Y240889D03*
X156992D03*
Y244433D03*
X158960D03*
X147646Y240889D03*
X145678D03*
Y244433D03*
X147646D03*
X170486Y240818D03*
X168518D03*
Y244362D03*
X170486D03*
X181484Y240728D03*
X179516D03*
Y244272D03*
X181484D03*
X319098Y244132D03*
X317130D03*
Y247676D03*
X319098D03*
X308481Y244117D03*
X306513D03*
Y247661D03*
X308481D03*
X329857Y239732D03*
X327889D03*
Y243276D03*
X329857D03*
X340630Y239721D03*
X338662D03*
Y243265D03*
X340630D03*
G54D16*
X-2453Y110500D03*
X3453D03*
X364000Y85169D03*
Y93831D03*
X510153Y185500D03*
X504247D03*
G54D61*
X347767Y150000D03*
G54D70*
X400435Y162331D03*
X396815Y165951D03*
G54D62*
X365900Y51000D03*
X378100D03*
X445900Y98500D03*
X444400Y155500D03*
X440400Y201000D03*
X458100Y98500D03*
X456600Y155500D03*
X452600Y201000D03*
X490900Y97500D03*
X503100D03*
X499700Y112500D03*
X511900D03*
G54D17*
X-500Y131950D03*
Y138050D03*
X50000Y94950D03*
Y101050D03*
X56000Y94950D03*
Y101050D03*
X74000Y240550D03*
Y234450D03*
G54D35*
X63953Y184509D03*
X58047D03*
X63953Y198091D03*
X58047D03*
G54D80*
X481563Y268000D03*
X489437D03*
Y276000D03*
G54D26*
X45492Y46850D03*
X45508Y43150D03*
G54D44*
X109004Y77087D03*
Y73387D03*
G54D53*
X174000Y70500D03*
G54D71*
X406850Y57000D03*
X426150D03*
G54D18*
X12991Y71750D03*
X13009Y78250D03*
G54D63*
X366047Y35500D03*
X371953D03*
X380953Y98500D03*
X375047D03*
G54D81*
X481644Y275553D03*
G54D45*
X126200Y269760D03*
X115800D03*
X126200Y277240D03*
Y273500D03*
X115800Y277240D03*
X358800Y243260D03*
Y247000D03*
Y250740D03*
X369200Y243260D03*
Y250740D03*
G54D27*
X36056Y64908D03*
X36046Y61208D03*
G54D36*
X61000Y191300D03*
G54D54*
X177078Y211721D03*
X180874Y222707D03*
X182288Y224121D03*
X178492Y213135D03*
X216171Y191057D03*
X217585Y189643D03*
X216466Y181388D03*
X217880Y182802D03*
X220484Y185471D03*
X221898Y186885D03*
X221615Y179249D03*
X220201Y180663D03*
X223118Y218976D03*
X221704Y220390D03*
X216383Y232140D03*
X217797Y230726D03*
X228898Y175360D03*
X227484Y176774D03*
X237338Y192767D03*
X234414Y189785D03*
X235828Y191199D03*
X234343Y185188D03*
X232929Y186602D03*
X231303Y198411D03*
X229889Y199825D03*
X234220Y195871D03*
X235634Y197285D03*
X238752Y194181D03*
X229252Y222382D03*
X230666Y223796D03*
X238444Y222524D03*
X237030Y223938D03*
X237525Y219766D03*
X236111Y221180D03*
X232788Y218281D03*
X234202Y216867D03*
X240566Y211634D03*
X235757Y213190D03*
X234343Y211776D03*
X253223Y192896D03*
X257324Y194451D03*
X254637Y194310D03*
X252304Y220544D03*
X253718Y221958D03*
X255698Y217857D03*
X257112Y216443D03*
X241980Y218988D03*
X243394Y217574D03*
X241980Y213048D03*
X261143Y175643D03*
X262557Y177057D03*
X265314Y182926D03*
X263900Y181512D03*
X258738Y193037D03*
X265239Y224286D03*
X266653Y222872D03*
X262840Y213543D03*
X261426Y214957D03*
X260506Y222382D03*
X259092Y220968D03*
X270972Y232989D03*
X272386Y234403D03*
X272032Y229241D03*
X270618Y230655D03*
X275921Y235534D03*
X274507Y236948D03*
X342389Y190845D03*
X343803Y192259D03*
X342672Y213190D03*
X341258Y211776D03*
G54D72*
X434000Y22100D03*
Y39900D03*
G54D90*
X545500Y186500D03*
Y199500D03*
X593500Y137750D03*
Y150750D03*
G54D91*
G01X-56417Y117705D02*
X-57666Y118635D01*
X-58292Y119720D01*
X-58500Y120960D01*
X-58083Y122510D01*
X-57042Y123595D01*
X-55792Y123905D01*
X-54541Y123750D01*
X-53500Y123130D01*
X-51417Y120030D01*
X-49958Y118635D01*
X-47875Y117705D01*
X-46000Y117395D01*
Y123905D01*
G01Y132740D02*
X-48708Y133050D01*
X-51000Y133515D01*
X-53083Y134135D01*
X-55375Y134910D01*
X-58500Y136150D01*
Y129950D01*
G01X-47875Y142040D02*
X-46833Y142970D01*
X-46208Y144055D01*
X-46000Y145450D01*
X-46417Y146845D01*
X-47250Y147930D01*
X-48708Y148705D01*
X-50375Y148860D01*
X-52042Y148550D01*
X-53083Y147775D01*
X-53917Y146690D01*
X-54125Y145605D01*
X-53917Y144520D01*
X-53083Y143125D01*
X-58500Y143590D01*
Y147775D01*
G01X-48500Y154440D02*
X-47041Y155370D01*
X-46208Y156610D01*
X-46000Y158005D01*
X-46208Y159245D01*
X-47250Y160485D01*
X-48500Y161260D01*
X-49750Y161415D01*
X-51208Y161105D01*
X-52250Y160020D01*
X-52667Y158935D01*
Y157540D01*
G01Y158935D02*
X-53292Y159865D01*
X-54333Y160640D01*
X-55583Y160950D01*
X-56833Y160640D01*
X-57875Y159865D01*
X-58500Y158470D01*
X-58292Y157075D01*
X-57458Y155680D01*
G01X-45583Y170250D02*
X-45792Y169940D01*
X-46208D01*
X-46417Y170250D01*
X-46208Y170560D01*
X-45792D01*
X-45583Y170250D01*
G01X-56417Y179705D02*
X-57666Y180635D01*
X-58292Y181720D01*
X-58500Y182960D01*
X-58083Y184510D01*
X-57042Y185595D01*
X-55792Y185905D01*
X-54541Y185750D01*
X-53500Y185130D01*
X-51417Y182030D01*
X-49958Y180635D01*
X-47875Y179705D01*
X-46000Y179395D01*
Y185905D01*
G01X-58500Y195050D02*
X-58083Y193810D01*
X-57042Y192880D01*
X-55792Y192260D01*
X-54125Y191795D01*
X-52250Y191640D01*
X-50375Y191795D01*
X-48708Y192260D01*
X-47458Y192880D01*
X-46417Y193810D01*
X-46000Y195050D01*
X-46417Y196290D01*
X-47458Y197220D01*
X-48708Y197840D01*
X-50375Y198305D01*
X-52250Y198460D01*
X-54125Y198305D01*
X-55792Y197840D01*
X-57042Y197220D01*
X-58083Y196290D01*
X-58500Y195050D01*
G01X-53208Y221705D02*
X-54667Y222790D01*
X-55500Y223720D01*
X-55917Y224960D01*
X-55500Y226045D01*
X-54667Y226820D01*
X-53417Y227440D01*
X-51958Y227595D01*
X-50708Y227440D01*
X-49458Y226820D01*
X-48417Y225890D01*
X-48000Y224805D01*
X-48417Y223565D01*
X-49666Y222480D01*
X-51542Y221860D01*
X-53625Y221705D01*
X-56333Y222015D01*
X-57792Y222480D01*
X-59250Y223255D01*
X-60292Y224340D01*
X-60500Y225425D01*
X-60083Y226510D01*
X-59042Y227285D01*
G01X-49458Y234415D02*
X-48417Y235500D01*
X-48000Y236740D01*
X-48417Y237980D01*
X-49666Y239065D01*
X-51542Y239840D01*
X-53417Y240150D01*
X-55708D01*
X-57583Y239840D01*
X-59250Y239065D01*
X-60083Y238135D01*
X-60500Y237050D01*
X-60083Y235810D01*
X-59250Y234880D01*
X-58000Y234260D01*
X-56333Y233950D01*
X-54875Y234260D01*
X-53417Y235035D01*
X-52583Y235965D01*
X-52375Y237050D01*
X-52791Y238290D01*
X-53833Y239220D01*
X-55708Y240150D01*
G01X-47583Y249450D02*
X-47792Y249140D01*
X-48208D01*
X-48417Y249450D01*
X-48208Y249760D01*
X-47792D01*
X-47583Y249450D01*
G01X-49458Y259215D02*
X-48417Y260300D01*
X-48000Y261540D01*
X-48417Y262780D01*
X-49666Y263865D01*
X-51542Y264640D01*
X-53417Y264950D01*
X-55708D01*
X-57583Y264640D01*
X-59250Y263865D01*
X-60083Y262935D01*
X-60500Y261850D01*
X-60083Y260610D01*
X-59250Y259680D01*
X-58000Y259060D01*
X-56333Y258750D01*
X-54875Y259060D01*
X-53417Y259835D01*
X-52583Y260765D01*
X-52375Y261850D01*
X-52791Y263090D01*
X-53833Y264020D01*
X-55708Y264950D01*
G01X-50500Y270840D02*
X-49041Y271770D01*
X-48208Y273010D01*
X-48000Y274405D01*
X-48208Y275645D01*
X-49250Y276885D01*
X-50500Y277660D01*
X-51750Y277815D01*
X-53208Y277505D01*
X-54250Y276420D01*
X-54667Y275335D01*
Y273940D01*
G01Y275335D02*
X-55292Y276265D01*
X-56333Y277040D01*
X-57583Y277350D01*
X-58833Y277040D01*
X-59875Y276265D01*
X-60500Y274870D01*
X-60292Y273475D01*
X-59458Y272080D01*
G01X-47750Y215600D02*
Y210950D01*
X-60250D01*
Y215600D01*
G01X-47750Y283800D02*
Y288450D01*
X-60250D01*
Y283800D01*
G01X27602Y11341D02*
X-44000D01*
G01X-34000Y150375D02*
Y11341D01*
G01X-36500Y26341D02*
X-34000Y11341D01*
X-31500Y26341D01*
X-36500D01*
G01X-34000Y181625D02*
Y286661D01*
G01X-31500Y271661D02*
X-34000Y286661D01*
X-36500Y271661D01*
X-31500D01*
G01X-17789Y286661D02*
X-44000D01*
G01X-18492Y19215D02*
G03X-10618Y11341I7874J0D01*
G01X-18492Y111535D02*
Y19215D01*
G01X-12924Y117103D02*
X-18492Y111535D01*
G01Y210354D02*
X-12924Y204787D01*
G01X-18492Y278787D02*
Y210354D01*
G01Y230174D02*
Y320000D01*
G01X-10618Y286661D02*
G03X-18492Y278787I0J-7874D01*
G01X195975Y310000D02*
X-18492D01*
G01X-3492Y312500D02*
X-18492Y310000D01*
X-3492Y307500D01*
Y312500D01*
G01X-10618Y11341D02*
X201977D01*
G01X-12924Y117103D02*
G03X-10618Y122671I-5568J5568D01*
G01D02*
Y199219D01*
G01D02*
G03X-12924Y204787I-7874J0D01*
G01X554340Y286661D02*
X-10618D01*
G01X201977Y11341D02*
G03X209851Y19215I0J7874D01*
G01X207055Y308958D02*
X208140Y310417D01*
X209070Y311250D01*
X210310Y311667D01*
X211395Y311250D01*
X212170Y310417D01*
X212790Y309167D01*
X212945Y307708D01*
X212790Y306458D01*
X212170Y305208D01*
X211240Y304167D01*
X210155Y303750D01*
X208915Y304167D01*
X207830Y305416D01*
X207210Y307292D01*
X207055Y309375D01*
X207365Y312083D01*
X207830Y313542D01*
X208605Y315000D01*
X209690Y316042D01*
X210775Y316250D01*
X211860Y315833D01*
X212635Y314792D01*
G01X219455Y314167D02*
X220385Y315416D01*
X221470Y316042D01*
X222710Y316250D01*
X224260Y315833D01*
X225345Y314792D01*
X225655Y313542D01*
X225500Y312291D01*
X224880Y311250D01*
X221780Y309167D01*
X220385Y307708D01*
X219455Y305625D01*
X219145Y303750D01*
X225655D01*
G01X231390Y306250D02*
X232320Y304791D01*
X233560Y303958D01*
X234955Y303750D01*
X236195Y303958D01*
X237435Y305000D01*
X238210Y306250D01*
X238365Y307500D01*
X238055Y308958D01*
X236970Y310000D01*
X235885Y310417D01*
X234490D01*
G01X235885D02*
X236815Y311042D01*
X237590Y312083D01*
X237900Y313333D01*
X237590Y314583D01*
X236815Y315625D01*
X235420Y316250D01*
X234025Y316042D01*
X232630Y315208D01*
G01X243790Y306250D02*
X244720Y304791D01*
X245960Y303958D01*
X247355Y303750D01*
X248595Y303958D01*
X249835Y305000D01*
X250610Y306250D01*
X250765Y307500D01*
X250455Y308958D01*
X249370Y310000D01*
X248285Y310417D01*
X246890D01*
G01X248285D02*
X249215Y311042D01*
X249990Y312083D01*
X250300Y313333D01*
X249990Y314583D01*
X249215Y315625D01*
X247820Y316250D01*
X246425Y316042D01*
X245030Y315208D01*
G01X259600Y303333D02*
X259290Y303542D01*
Y303958D01*
X259600Y304167D01*
X259910Y303958D01*
Y303542D01*
X259600Y303333D01*
G01X272000Y316250D02*
X270760Y315833D01*
X269830Y314792D01*
X269210Y313542D01*
X268745Y311875D01*
X268590Y310000D01*
X268745Y308125D01*
X269210Y306458D01*
X269830Y305208D01*
X270760Y304167D01*
X272000Y303750D01*
X273240Y304167D01*
X274170Y305208D01*
X274790Y306458D01*
X275255Y308125D01*
X275410Y310000D01*
X275255Y311875D01*
X274790Y313542D01*
X274170Y314792D01*
X273240Y315833D01*
X272000Y316250D01*
G01X286260Y303750D02*
Y316250D01*
X280525Y307292D01*
X288275D01*
G01X209851Y42837D02*
Y19215D01*
G01X359457Y42837D02*
X209851D01*
G01X318700Y303750D02*
Y316250D01*
X316840Y313750D01*
G01Y303750D02*
X320560D01*
G01X327690Y305625D02*
X328620Y304583D01*
X329705Y303958D01*
X331100Y303750D01*
X332495Y304167D01*
X333580Y305000D01*
X334355Y306458D01*
X334510Y308125D01*
X334200Y309792D01*
X333425Y310833D01*
X332340Y311667D01*
X331255Y311875D01*
X330170Y311667D01*
X328775Y310833D01*
X329240Y316250D01*
X333425D01*
G01X343500Y303750D02*
X344585Y303958D01*
X345825Y304583D01*
X346600Y305625D01*
X346910Y307083D01*
X346600Y308541D01*
X345670Y309792D01*
X344275Y310417D01*
X342725D01*
X341795Y310833D01*
X341020Y311875D01*
X340710Y313333D01*
X341175Y314792D01*
X342260Y315833D01*
X343500Y316250D01*
X344740Y315833D01*
X345825Y314792D01*
X346290Y313333D01*
X345980Y311875D01*
X345205Y310833D01*
X344275Y310417D01*
X342725D01*
X341330Y309792D01*
X340400Y308541D01*
X340090Y307083D01*
X340400Y305625D01*
X341175Y304583D01*
X342415Y303958D01*
X343500Y303750D01*
G01X355900Y303333D02*
X355590Y303542D01*
Y303958D01*
X355900Y304167D01*
X356210Y303958D01*
Y303542D01*
X355900Y303333D01*
G01X364890Y306250D02*
X365820Y304791D01*
X367060Y303958D01*
X368455Y303750D01*
X369695Y303958D01*
X370935Y305000D01*
X371710Y306250D01*
X371865Y307500D01*
X371555Y308958D01*
X370470Y310000D01*
X369385Y310417D01*
X367990D01*
G01X369385D02*
X370315Y311042D01*
X371090Y312083D01*
X371400Y313333D01*
X371090Y314583D01*
X370315Y315625D01*
X368920Y316250D01*
X367525Y316042D01*
X366130Y315208D01*
G01X377755Y314167D02*
X378685Y315416D01*
X379770Y316042D01*
X381010Y316250D01*
X382560Y315833D01*
X383645Y314792D01*
X383955Y313542D01*
X383800Y312291D01*
X383180Y311250D01*
X380080Y309167D01*
X378685Y307708D01*
X377755Y305625D01*
X377445Y303750D01*
X383955D01*
G01X309400D02*
X304750D01*
Y316250D01*
X309400D01*
G01X367331Y11341D02*
X528828D01*
G01X359457Y19215D02*
G03X367331Y11341I7874J0D01*
G01X359457Y19215D02*
Y42837D01*
G01X390000Y303750D02*
X394650D01*
Y316250D01*
X390000D01*
G01X404025Y310000D02*
X604812D01*
G01X528828Y11341D02*
G03X536702Y19215I0J7874D01*
G01D02*
Y64490D01*
G01X544576Y72364D02*
G03X536702Y64490I0J-7874D01*
G01X544576Y72364D02*
X573316D01*
G01X562214Y278787D02*
G03X554340Y286661I-7874J0D01*
G01X573316Y72364D02*
G03X581190Y80238I0J7874D01*
G01X596938Y164803D02*
X570088D01*
G01X562214Y278787D02*
Y172677D01*
G01D02*
G03X570088Y164803I7874J0D01*
G01X581190Y117640D02*
Y80238D01*
G01X589064Y125514D02*
G03X581190Y117640I0J-7874D01*
G01X596938Y125514D02*
X589064D01*
G01X589812Y307500D02*
X604812Y310000D01*
X589812Y312500D01*
Y307500D01*
G01X596938Y125514D02*
G03X604812Y133388I0J7874D01*
G01D02*
Y156929D01*
G01D02*
G03X596938Y164803I-7874J0D01*
G01X604812Y158023D02*
Y320000D01*
G54D55*
X187850Y147400D03*
Y137400D03*
Y157400D03*
X204350Y147400D03*
Y137400D03*
Y157400D03*
G54D37*
X65800Y259500D03*
X62200D03*
X65700Y269000D03*
X59200Y280500D03*
X62800D03*
X69300Y269000D03*
X94800Y271000D03*
X91200D03*
X96300Y278500D03*
X92700D03*
X100700D03*
X104300D03*
X135200D03*
X138800D03*
X539200Y226500D03*
X542800D03*
G54D19*
X5000Y134800D03*
Y131200D03*
X41500Y26300D03*
Y22700D03*
X36000Y166800D03*
Y163200D03*
X47500Y271700D03*
Y275300D03*
X76000Y272200D03*
Y275800D03*
X67000Y276900D03*
Y280500D03*
X87500Y271300D03*
Y267700D03*
X226750Y64200D03*
X232350D03*
X238650D03*
X226750Y67800D03*
Y71400D03*
X232350Y67800D03*
Y71400D03*
X238650Y67800D03*
Y71400D03*
X226750Y67800D03*
X232350D03*
X238650D03*
X244250Y64200D03*
X250350D03*
X255950D03*
X244250Y67800D03*
Y71400D03*
X250350Y67800D03*
Y71400D03*
X255950Y67800D03*
Y71400D03*
X244250Y67800D03*
X250350D03*
X255950D03*
X262250Y64200D03*
X267850D03*
X273900D03*
X262250Y67800D03*
Y71400D03*
X267850Y67800D03*
Y71400D03*
X273900Y67800D03*
Y71400D03*
X262250Y67800D03*
X267850D03*
X273900D03*
X279600Y64200D03*
X286000D03*
X289800D03*
X279600Y67800D03*
Y71400D03*
X286000Y67800D03*
Y71400D03*
X289800Y67800D03*
Y71400D03*
X279600Y67800D03*
X286000D03*
X289800D03*
X297000Y64200D03*
X301400D03*
X297000Y67800D03*
Y71400D03*
X301400Y67800D03*
Y71400D03*
X297000Y67800D03*
X301400D03*
X307250Y64200D03*
X313300D03*
X319000D03*
X307250Y67800D03*
Y71400D03*
X313300Y67800D03*
Y71400D03*
X319000Y67800D03*
Y71400D03*
X307250Y67800D03*
X313300D03*
X319000D03*
X306450Y271200D03*
X313750D03*
X317400D03*
X310100D03*
X321100D03*
X306450Y274800D03*
X313750D03*
X317400D03*
X310100D03*
X321100D03*
X325150Y64200D03*
X330800D03*
X325150Y67800D03*
Y71400D03*
X330800Y67800D03*
Y71400D03*
X325150Y67800D03*
X330800D03*
X324700Y271200D03*
Y274800D03*
X471600Y175300D03*
Y171700D03*
X475200D03*
Y175300D03*
X569500Y142700D03*
X565500D03*
X573500D03*
X569500Y146300D03*
X565500D03*
X573500D03*
X585500Y142700D03*
X581500D03*
X577500D03*
X585500Y146300D03*
X581500D03*
X577500D03*
G54D28*
X45050Y143900D03*
X52350D03*
X73350Y215500D03*
X80650D03*
X160510Y183134D03*
X167810D03*
X301850Y161500D03*
X309150D03*
X330954Y177354D03*
X323654D03*
G54D73*
X421487Y175114D03*
Y169994D03*
X427000Y169940D03*
Y175060D03*
X519500Y128060D03*
Y122940D03*
G54D82*
X497650Y139632D03*
Y141600D03*
Y143568D03*
X503950D03*
Y141600D03*
Y139632D03*
G54D64*
X360100Y107000D03*
X421500Y226500D03*
G54D46*
X140957Y13768D03*
X198043D03*
G54D29*
X40500Y150350D03*
Y157650D03*
G54D83*
X496500Y151478D03*
X491500D03*
X486500D03*
X481500D03*
X496500Y174522D03*
X491500D03*
X486500D03*
X481500D03*
G54D56*
X188165Y223520D03*
X191709D03*
X188165Y225488D03*
X191709D03*
X351728Y217516D03*
Y219484D03*
X355272D03*
Y217516D03*
G54D74*
X449538Y107624D03*
X454460Y107620D03*
G54D65*
X364200Y270500D03*
X387800D03*
G54D38*
X73185Y32283D03*
X108815D03*
G54D47*
X140957Y36996D03*
X198043D03*
G54D48*
X141846Y76500D03*
X135154D03*
G54D66*
X381594Y23201D03*
Y35799D03*
X393406D03*
Y23201D03*
G54D39*
X76650Y111000D03*
X85350Y107250D03*
Y114750D03*
X226150Y84750D03*
Y92250D03*
X234850Y88500D03*
G54D57*
X188165Y221010D03*
X191709D03*
X188165Y227998D03*
X191709D03*
X351728Y215006D03*
Y221994D03*
X355272D03*
Y215006D03*
G54D84*
X523100Y97000D03*
X525900D03*
Y101000D03*
X524500D03*
X523100D03*
G54D75*
X441780Y181240D03*
G54D58*
X255483Y140700D03*
Y135700D03*
Y150700D03*
Y145700D03*
X278317Y135700D03*
Y140700D03*
Y145700D03*
Y150700D03*
G54D85*
X529041Y111150D03*
X529059Y114850D03*
G54D76*
X441780Y191240D03*
G54D49*
X145764Y191156D03*
X144268Y219129D03*
X142268D03*
X147764Y191156D03*
X152861Y179193D03*
X150861D03*
X147823Y187563D03*
Y185563D03*
X150106Y204686D03*
Y202686D03*
X147880Y194835D03*
Y196835D03*
X155941Y202767D03*
X153941D03*
X150994Y212278D03*
Y210278D03*
X147098Y223601D03*
X147086Y229019D03*
Y231019D03*
X147098Y225601D03*
X177624Y191157D03*
X174205Y182909D03*
X172205D03*
X175399Y205942D03*
Y207942D03*
X181398Y181079D03*
Y183079D03*
X181352Y188238D03*
Y186238D03*
X179624Y191157D03*
X182291Y208481D03*
X184291D03*
X182034Y196158D03*
Y194158D03*
X182654Y229514D03*
Y231514D03*
X219979Y173521D03*
X221979D03*
X225070Y189077D03*
X223727Y182784D03*
X224373Y196583D03*
Y194583D03*
X221333Y228332D03*
Y226332D03*
X223331Y239705D03*
X221331D03*
X214500Y242500D03*
X212500D03*
X240000Y188000D03*
Y186000D03*
X227070Y189077D03*
X225727Y182784D03*
X233131Y205058D03*
X235131D03*
X240071Y204058D03*
Y206058D03*
X227555Y205987D03*
Y203987D03*
X234636Y227049D03*
X232636D03*
X226979Y239494D03*
X228979D03*
X237515Y239423D03*
X239515D03*
X245374Y170915D03*
Y168915D03*
X252869Y187178D03*
Y185178D03*
X246435Y187229D03*
Y189229D03*
X247496Y208252D03*
X245496D03*
X256698Y206260D03*
X254698D03*
X252092Y206058D03*
Y204058D03*
X245375Y198389D03*
X247375D03*
X247364Y195229D03*
X245364D03*
X247435Y214675D03*
X245435D03*
X247496Y211502D03*
X245496D03*
X268567Y188290D03*
Y190290D03*
X271689Y204846D03*
X269689D03*
X268497Y194583D03*
Y196583D03*
X261294Y204492D03*
X259294D03*
X268497Y216645D03*
Y218645D03*
X283629Y179329D03*
Y177329D03*
X275719Y179744D03*
X273719D03*
X304761Y219554D03*
X304832Y223160D03*
X312266Y190997D03*
Y188997D03*
X316802Y179107D03*
X314802D03*
X312408Y195219D03*
Y197219D03*
X312479Y204927D03*
Y202927D03*
X320429Y204128D03*
X318429D03*
X306761Y219554D03*
X306832Y223160D03*
X314704Y213003D03*
Y211003D03*
X312332Y230256D03*
Y232256D03*
X345571Y188380D03*
Y186380D03*
Y181148D03*
Y183148D03*
X350299Y200603D03*
X352299D03*
X350369Y204492D03*
X352369D03*
X339975Y204139D03*
X341975D03*
X345147Y223574D03*
Y225574D03*
Y229514D03*
Y231514D03*
G54D67*
X385885Y172801D03*
X389420Y176337D03*
X392036Y173721D03*
X388501Y170185D03*
G54D68*
X374000Y224510D03*
Y213490D03*
G54D59*
X266900Y143200D03*
G54D86*
X517532Y142150D03*
X519500D03*
X521468D03*
Y135850D03*
X519500D03*
X517532D03*
G54D77*
X462487Y110938D03*
X462490Y108378D03*
X462466Y126298D03*
X462469Y123738D03*
X462473Y121178D03*
X462476Y118618D03*
X462480Y116058D03*
X462483Y113498D03*
X490090Y108416D03*
X490087Y110976D03*
X490083Y113536D03*
X490080Y116096D03*
X490076Y118656D03*
X490073Y121216D03*
X490069Y123776D03*
X490066Y126336D03*
G54D78*
X462157Y244000D03*
X476921D03*
X471999D03*
X467078D03*
X481842D03*
G54D87*
X520678Y219190D03*
Y221356D03*
X515756Y219190D03*
Y221356D03*
G54D69*
X403508Y57000D03*
X429492D03*
G54D88*
X528327Y224500D03*
Y216500D03*
X531673Y224500D03*
Y216500D03*
G54D79*
X471500Y269000D03*
X495500D03*
G54D89*
X533500Y159327D03*
Y162673D03*
M02*
