M48
INCH
T01C.012
T02C.106
T03C.043
;LEADER: 12 
;HEADER: 
;CODE  : ASCII 
;FILE  : display-002-119pm1510-1-4.drl for board display-002-119pm1510.brd ... layers TOP and BOTTOM
;T01 Holesize 1. = 12.000000 Tolerance = +0.000000/-0.000000 PLATED MILS Quantity = 97
;T02 Holesize 2. = 106.000000 Tolerance = +0.000000/-0.000000 PLATED MILS Quantity = 2
;T03 Holesize 3. = 43.000000 Tolerance = +0.000000/-0.000000 NON_PLATED MILS Quantity = 1
%
G90
T01
X000065650Y000005750
X000064650Y000006900
X000064350Y000007750
X000065100Y000008100
X000065850Y000008750
X000064650Y000008750
X000065200Y000009950
X000065100Y000010250
X000065100Y000012300
X000065100Y000012600
X000065900Y000012600
X000064350Y000015850
X000064800Y000016700
X000065100Y000016700
X000064350Y000016850
X000065100Y000017100
X000064350Y000017850
X000065100Y000018300
X000065100Y000018700
X000064350Y000018850
X000064350Y000019850
R02Y000001000
X000065100Y000022250
X000065100Y000022600
X000064350Y000022850
X000064350Y000023850
X000065350Y000024300
X000064350Y000024850
X000064350Y000025850
X000065800Y000026600
X000064350Y000027100
X000065650Y000027650
X000064900Y000027650
X000066800Y000027650
X000066000Y000025600
X000066867Y000024417
X000067550Y000023849
X000066200Y000023849
X000066867Y000023217
X000066150Y000023200
X000067600Y000023200
X000066900Y000022700
X000067650Y000022700
X000066150Y000022600
X000066900Y000022250
X000067650Y000022250
X000066084Y000022116
X000066075Y000021525
X000066065Y000020935
X000066050Y000020344
X000066050Y000019754
X000066050Y000019164
X000066200Y000018600
X000066200Y000018300
X000066200Y000018003
X000066200Y000017700
X000066200Y000017400
X000066200Y000016950
X000067000Y000016000
X000066500Y000016000
X000066450Y000012600
X000067050Y000012600
X000067700Y000012600
X000066120Y000010131
X000066638Y000009931
X000066120Y000009670
X000066620Y000009631
X000066950Y000009300
X000066600Y000009300
X000067770Y000009131
X000067370Y000009131
X000067000Y000008750
X000066000Y000008000
X000066000Y000007000
X000067050Y000005650
X000066150Y000005350
X000068700Y000008200
X000068100Y000008750
X000068470Y000009131
X000068120Y000009131
X000069100Y000009550
X000068800Y000009950
X000068450Y000010680
X000069500Y000010800
X000069250Y000011450
X000069710Y000011520
X000068450Y000011861
X000069750Y000012500
X000069200Y000013000
X000069750Y000013500
X000069750Y000014500
R03Y000001000
X000069750Y000026500
X000068250Y000027650
T02
X000067346Y000007232
X000067346Y000025736
T03
X000067346Y000027311
M30
