M48
INCH
T01C.012
T02C.032
T03C.091
;LEADER: 12 
;HEADER: 
;CODE  : ASCII 
;FILE  : usb-001-120pm1530-1-4.drl for board usb-001-120pm1530.brd ... layers TOP and BOTTOM
;T01 Holesize 1. = 12.000000 Tolerance = +0.000000/-0.000000 PLATED MILS Quantity = 57
;T02 Holesize 2. = 32.000000 Tolerance = +0.000000/-0.000000 PLATED MILS Quantity = 9
;T03 Holesize 3. = 91.000000 Tolerance = +0.000000/-0.000000 PLATED MILS Quantity = 2
%
G90
T01
X000012600Y-000001350
X000013500Y-000001000
X000013750Y-000002400
X000014650Y-000002450
X000016300Y-000001400
X000017300Y-000001400
X000018500Y-000001400
X000018800Y-000000550
X000019450Y-000001400
X000020200Y-000000550
X000020500Y-000001400
X000021650Y-000001400
X000022000Y-000001250
X000022320Y-000000930
X000023000Y-000001050
X000023000Y-000001350
X000023350Y-000001050
X000023600Y-000002700
X000023600Y-000002150
X000024317Y-000000583
X000024350Y-000001950
X000024350Y-000002730
X000024550Y-000001250
X000024900Y-000001250
X000025150Y-000001050
X000025200Y-000001400
X000025350Y-000000750
X000025350Y000001300
X000025350Y000000800
X000024600Y000000501
X000024600Y000000100
X000024308Y000000008
X000024300Y000000598
X000024150Y000002350
X000023850Y000001450
X000023850Y000001850
X000023550Y000001950
X000023500Y000001400
X000022900Y000002650
X000022850Y000001850
X000022250Y000001850
X000022050Y000001450
X000021900Y000002650
X000021050Y000001550
X000020150Y000000100
X000018800Y000000150
X000018750Y000001350
X000017900Y000000100
X000016900Y000002650
X000015900Y000002650
X000014800Y000002650
X000013900Y000002650
X000013500Y000002000
X000013500Y000000500
X000012900Y000002650
X000012600Y000000150
X000012600Y000001650
T02
X000017549Y000002391
X000017746Y000001800
X000018336Y000002391
X000018730Y000001800
X000019124Y000002391
X000019517Y000001800
X000019911Y000002391
X000020502Y000001800
X000020699Y000002391
T03
X000014991Y-000000740
X000014991Y000001425
M30
