M48
INCH
T01C.012
;LEADER: 12 
;HEADER: 
;CODE  : ASCII 
;FILE  : usb-fpc-001-0119pm16-1-2.drl for board usb-fpc-001-0119pm16.brd ... layers TOP and BOTTOM
;T01 Holesize 1. = 12.000000 Tolerance = +0.000000/-0.000000 PLATED MILS Quantity = 80
%
G90
T01
X000059100Y000029550
X000059500Y000029550
X000060100Y000029550
X000060700Y000029550
X000061350Y000029550
X000061350Y000030000
X000060700Y000030000
R02X-000000600
X000059100Y000030000
X000059100Y000031000
X000059500Y000031000
R02X000000600
X000061350Y000031000
X000061350Y000032000
X000060700Y000032000
R02X-000000600
X000059100Y000032000
X000059100Y000033000
X000059500Y000033000
R02X000000600
X000061350Y000033000
X000061350Y000034000
X000060700Y000034000
R02X-000000600
X000059100Y000034000
X000059100Y000035000
X000059500Y000035000
R02X000000600
X000061350Y000035000
X000061350Y000036000
X000060700Y000036000
R02X-000000600
X000059100Y000036000
X000059100Y000037000
X000059500Y000037000
R02X000000600
X000061350Y000037000
X000061350Y000038000
X000060700Y000038000
R02X-000000600
X000059100Y000038000
X000059100Y000039000
X000059500Y000039000
R02X000000600
X000061350Y000039000
X000061350Y000040000
X000060700Y000040000
R02X-000000600
X000059100Y000040000
X000059100Y000041000
X000059500Y000041000
R02X000000600
X000061350Y000041000
X000061350Y000042000
X000060700Y000042000
R02X-000000600
X000059100Y000042000
X000059100Y000043000
X000059100Y000043850
X000059500Y000043000
X000059500Y000043850
X000060100Y000043000
X000060100Y000043850
X000060700Y000043000
X000060700Y000043850
X000061350Y000043850
X000061350Y000043000
M30
