M48
INCH
T01C.012
T02C.158
;LEADER: 12 
;HEADER: 
;CODE  : ASCII 
;FILE  : front-cover-dvt2-0701-1-2.drl for board front-cover-dvt2-0701.brd ... layers TOP and BOTTOM
;T01 Holesize 1. = 12.000000 Tolerance = +0.000000/-0.000000 PLATED MILS Quantity = 304
;T02 Holesize 2. = 158.000000 Tolerance = +0.000000/-0.000000 NON_PLATED MILS Quantity = 2
%
G90
T01
X000000360Y-000010160
X000000360Y-000007640
X000001120Y-000007920
X000001760Y-000007920
X000002360Y-000010200
X000004320Y-000010200
X000004360Y-000008520
X000004760Y-000006160
X000007720Y-000006160
X000010760Y-000006160
X000015360Y-000010200
X000015360Y-000006240
X000016320Y-000007760
X000016880Y-000007760
X000017320Y-000010200
X000019440Y-000007600
X000019440Y-000010200
X000020120Y-000006160
X000022680Y-000006160
X000025440Y-000006160
X000027960Y-000006160
X000031120Y-000006160
X000031360Y-000008000
X000031400Y-000010200
X000033120Y-000010200
X000033600Y-000007920
X000034320Y-000007920
X000035040Y-000010200
X000035040Y-000006240
X000037680Y-000006160
X000040280Y-000006160
X000042880Y-000006160
X000045600Y-000006160
X000046080Y-000007720
X000046080Y-000010200
X000047960Y-000010200
X000048640Y-000007840
X000049360Y-000007920
X000050080Y-000010160
X000050080Y-000007320
X000050080Y-000002240
X000050080Y-000004840
X000046880Y-000005040
X000046400Y-000005040
X000037440Y-000001840
X000036720Y-000001840
X000030580Y-000000200
X000030020Y-000002840
X000030020Y-000001240
X000029980Y-000002000
X000029020Y-000001240
X000029020Y-000002840
X000028980Y-000002000
X000022230Y-000004630
X000022230Y-000003530
X000021120Y-000003440
X000021110Y-000004630
X000020200Y-000000200
X000019480Y-000001960
X000019480Y-000001240
X000019480Y-000002800
X000018560Y-000002040
X000018560Y-000001280
X000018520Y-000002800
X000012560Y-000005360
X000011920Y-000005360
X000009040Y-000001200
X000008880Y-000000320
X000008480Y-000000320
X000008440Y-000004250
X000008440Y-000002690
X000008440Y-000003450
X000008160Y-000000320
X000007560Y-000003490
X000007560Y-000002690
X000007520Y-000004290
X000006640Y-000000160
X000005920Y-000000480
X000005900Y-000001750
X000005200Y-000000730
X000004960Y-000001530
X000000360Y-000005000
X000000360Y-000002680
X000000360Y-000000200
X-000013409Y-000000056
X-000014400Y-000000250
X-000015050Y-000000400
X-000015800Y-000000500
X-000016550Y-000000600
X-000017009Y-000000136
X-000017400Y-000000750
X-000017649Y-000000216
X-000018409Y000003544
X-000018329Y000002904
X-000018320Y000005600
X-000018209Y000002344
X-000017969Y000004664
X-000017889Y000004224
X-000017769Y000003424
X-000017689Y000003064
X-000017489Y000001744
X-000017449Y000003344
X-000017409Y000001464
X-000017369Y000002904
X-000017369Y000000824
X-000017169Y000001664
X-000017009Y000000864
X-000016289Y000000024
X-000016169Y000002144
X-000016129Y000000944
X-000015849Y000002104
X-000015760Y000005820
X-000015569Y000000264
X-000015489Y000001984
X-000015489Y000001664
X-000015049Y000001664
X-000014769Y000000584
X-000014100Y000001200
X-000013700Y000000600
X-000013200Y000001200
X-000012600Y000000600
X-000012150Y000000050
X-000012000Y000001200
X-000010200Y000000350
X-000008100Y000000650
X-000007120Y000004880
X-000007000Y000000120
X-000006400Y000004880
X-000004000Y000000320
X-000001240Y000000360
X000001280Y000004840
X000001800Y000004840
X000004380Y000004350
X000005150Y000001150
X000007000Y000001150
X000008800Y000001150
X000010400Y000001150
X000012900Y000001150
X000015350Y000001150
X000016840Y000000280
X000017630Y000000350
X000018300Y000001150
X000018900Y000000550
X000019250Y000000550
X000020250Y000001150
X000020400Y000000350
X000022300Y000001150
X000023250Y000002200
X000025450Y000003150
X000027200Y000001550
X000027200Y000002750
X000027260Y000000280
X000028000Y000000240
X000029440Y000000320
X000029760Y000000320
X000030640Y000000320
X000031680Y000000960
X000032160Y000000960
X000032700Y000001150
X000034900Y000001150
X000036400Y000001150
X000038300Y000001150
X000039900Y000001150
X000043050Y000001150
X000045550Y000001150
X000046050Y000003700
X000048560Y000004880
X000049200Y000004880
X000050240Y000000360
X000054360Y000000360
X000057040Y000002960
X000057520Y000002960
X000057680Y000000160
X000058600Y000000640
X000059360Y000007440
X000059320Y000006320
X000059280Y000011240
X000058240Y000010000
X000057760Y000010000
X000056800Y000006400
X000056640Y000011240
X000056040Y000007440
X000054560Y000006920
X000049450Y000008900
X000047960Y000010520
X000047700Y000007050
X000046050Y000006300
X000004380Y000006000
X000004350Y000011700
X000002550Y000010550
X000002350Y000007200
X000001000Y000008850
X-000003760Y000006840
X-000004960Y000011200
X-000005600Y000007440
X-000005760Y000006360
X-000007200Y000010000
X-000007680Y000010000
X-000008760Y000007440
X-000008760Y000011200
X-000009360Y000006360
X-000012720Y000006080
X-000008600Y000013160
X-000007120Y000016960
X-000006640Y000016960
X-000005080Y000013160
X-000003760Y000012320
X000001280Y000015120
X000001840Y000015120
X000004350Y000013450
X000004350Y000015000
X000004650Y000016500
X000006200Y000016500
X000007800Y000016500
X000010000Y000016500
X000011850Y000016500
X000013900Y000016500
X000015700Y000016500
X000017400Y000016500
X000019400Y000016500
X000021300Y000016500
X000022750Y000016500
X000024200Y000014550
X000025040Y000017040
X000025440Y000017040
X000026400Y000014550
X000027200Y000014850
X000027200Y000015800
X000028050Y000016500
X000029600Y000016500
X000032800Y000016500
X000035450Y000016500
X000038250Y000016500
X000041400Y000016500
X000043150Y000016500
X000044650Y000016500
X000046050Y000012250
X000046050Y000014550
X000046050Y000016050
X000048640Y000015120
X000049200Y000015120
X000054560Y000012200
X000055560Y000013160
X000057040Y000017040
X000057600Y000017040
X000059080Y000013160
X000058360Y000018360
X000054360Y000018080
X000050160Y000018200
X000050080Y000021400
X000046560Y000023520
X000044360Y000023440
X000041320Y000023440
X000039600Y000023800
X000037280Y000021760
X000036800Y000021760
X000036000Y000023600
X000034280Y000023440
X000031800Y000020700
X000031480Y000023440
X000031400Y000020700
X000027240Y000023440
X000024040Y000023440
X000020800Y000023440
X000019120Y000020720
X000018640Y000020720
X000017360Y000023440
X000014520Y000023480
X000013760Y000021840
X000013120Y000021840
X000011120Y000023520
X000009240Y000023440
X000006360Y000023440
X000004200Y000023560
X000000360Y000021120
X000000360Y000018240
X-000007920Y000018320
X000000360Y000028120
X000000360Y000024480
X000000720Y000027600
X000002160Y000027600
X000002240Y000028200
X000004160Y000028160
X000004160Y000025880
X000011200Y000025760
X000011200Y000028080
X000012080Y000027440
X000012760Y000028200
X000013840Y000027360
X000014320Y000028120
X000014400Y000024960
X000036120Y000028160
X000036640Y000027440
X000037720Y000028200
X000038320Y000027440
X000039600Y000028160
X000039600Y000026120
X000046640Y000026040
X000046640Y000028120
X000048240Y000027360
X000048520Y000028200
X000049760Y000027360
X000050000Y000028200
X000050080Y000025120
T02
X000040550Y-000002950
X000009500Y000017950
M30
